;TYPE=PLATED
;Layer: PTH_Through
;EasyEDA Pro v2.1.64.d1969c9c.217bcf, 2024-08-30 02:53:32
;Gerber Generator version 0.3
M48
METRIC,LZ,000.00000
;Hole size 1 = 0.20000 METRIC
T01C0.20000
;Hole size 2 = 0.30000 METRIC
T02C0.30000
;Hole size 3 = 0.30002 METRIC
T03C0.30002
;Hole size 4 = 0.40000 METRIC
T04C0.40000
;Hole size 5 = 0.50000 METRIC
T05C0.50000
;Hole size 6 = 0.70000 METRIC
T06C0.70000
;Hole size 7 = 3.20000 METRIC
T07C3.20000
%
G05
G90
T01
X01749660Y-01535586
X01959660Y-01745587
X01749660Y-01955587
X01539660Y-01745587
X01601168Y-01597094
X01601168Y-01894079
X01898153Y-01894079
X01898153Y-01597094
X01555646Y-01665222
X01669295Y-01939601
X01943675Y-01825951
X01830025Y-01551572
X01555645Y-01825949
X01669298Y-01551571
X01943676Y-01665224
X01830023Y-01939602
X-01730340Y-01535586
X-01520340Y-01745587
X-01730340Y-01955587
X-01940340Y-01745587
X-01878832Y-01597094
X-01878832Y-01894079
X-01581847Y-01894079
X-01581847Y-01597094
X-01924354Y-01665222
X-01810705Y-01939601
X-01536326Y-01825951
X-01649975Y-01551572
X-01924355Y-01825949
X-01810702Y-01551571
X-01536325Y-01665224
X-01649978Y-01939602
X01749660Y01944414
X01959660Y01734414
X01749660Y01524414
X01539660Y01734414
X01601168Y01882906
X01601168Y01585921
X01898153Y01585921
X01898153Y01882906
X01555646Y01814778
X01669295Y01540399
X01943675Y01654049
X01830025Y01928428
X01555645Y01654051
X01669298Y01928429
X01943676Y01814776
X01830023Y01540398
X-01730340Y01944414
X-01520340Y01734414
X-01730340Y01524414
X-01940340Y01734414
X-01878832Y01882906
X-01878832Y01585921
X-01581847Y01585921
X-01581847Y01882906
X-01924354Y01814778
X-01810705Y01540399
X-01536326Y01654049
X-01649975Y01928428
X-01924355Y01654051
X-01810702Y01928429
X-01536325Y01814776
X-01649978Y01540398
X00090001Y01321076
X-01040997Y00357075
X-00673998Y00760774
X00260002Y00902076
X-00489999Y00721076
X01520002Y00932076
X02050004Y01851078
X01850004Y01451078
X01850004Y01251078
X01850004Y01051078
X01850004Y-00148923
X01850004Y-00348923
X01850004Y-00548923
X01850004Y-01348923
X01650004Y01451078
X01650004Y01251078
X01670002Y00961076
X01650004Y00651078
X01650004Y00251077
X01650004Y-00348923
X01650004Y-01348923
X01450004Y01851078
X01450004Y01651078
X01450004Y01451078
X01450004Y01251078
X01450004Y00851078
X01450004Y-00148923
X01450004Y-00348923
X01450004Y-00748923
X01450004Y-01548923
X01450004Y-01748924
X01450004Y-01948924
X01250004Y01851078
X01250004Y01651078
X01250004Y01451078
X01250004Y01251078
X01250004Y01051078
X01250004Y00851078
X01250004Y00251077
X01250004Y-00148923
X01250004Y-01548923
X01250004Y-01948924
X01050003Y01651078
X01050003Y01251078
X01050003Y00251077
X01050003Y-00148923
X01050003Y-01548923
X01050003Y-01948924
X00850003Y00251077
X00850003Y-00148923
X00850003Y-01548923
X00850003Y-01748924
X00850003Y-01948924
X00650003Y00251077
X00650003Y-00148923
X00650003Y-01548923
X00650003Y-01748924
X00650003Y-01948924
X00450003Y01451078
X00450003Y00851078
X00450003Y-01148923
X00450003Y-01548923
X00450003Y-01948924
X00250003Y01851078
X00250003Y01451078
X00250003Y01251078
X00250003Y-01748924
X00250003Y-01948924
X00050003Y01651078
X00050003Y-01948924
X-00149997Y-01748924
X-00549997Y01851078
X-00549997Y01651078
X-00549997Y01451078
X-00549997Y01251078
X-00549997Y-01348923
X-00749997Y01451078
X-00949998Y00051077
X-00949998Y-00548923
X-00949998Y-00748923
X-00949998Y-00948923
X-00949998Y-01148923
X-00949998Y-01348923
X-01149998Y00251077
X-01149998Y00051077
X-01149998Y-00548923
X-01149998Y-00748923
X-01349998Y01851078
X-01349998Y01651078
X-01349998Y01451078
X-01349998Y01051078
X-01349998Y00251077
X-01349998Y-00148923
X-01349998Y-00348923
X-01349998Y-00548923
X-01349998Y-01148923
X-01349998Y-01348923
X-01549998Y01451078
X-01549998Y01051078
X-01549998Y00851078
X-01549998Y00251077
X-01549998Y-00148923
X-01549998Y-00348923
X-01549998Y-00548923
X-01549998Y-01148923
X-01549998Y-01348923
X-01749998Y01451078
X-01749998Y01251078
X-01749998Y01051078
X-01749998Y-00148923
X-01749998Y-00348923
X-01749998Y-00548923
X-01749998Y-00748923
X-01749998Y-01148923
X-01949998Y02051078
X-01949998Y01451078
X-01949998Y01251078
X-01949998Y01051078
X-01949998Y-00148923
X-01949998Y-00348923
X-01949998Y-00548923
X-01949998Y-00748923
X-01949998Y-01148923
X-01949998Y-01348923
X-01949998Y-01548923
X-01949998Y-01948924
X-00769009Y01597080
X-01012543Y02061077
X-00810117Y-02058926
X-01010117Y-02058926
X-00659917Y-01086190
X01520002Y-00948925
X01690002Y-00818925
X01880002Y-00818925
X01840002Y-00878925
X01170002Y-00468925
X01345002Y-00748925
X00477338Y00440588
X01019853Y00748362
X00810135Y01063310
X00913880Y01818442
X-00146994Y01771075
X01818461Y00057617
X01918460Y00057617
X02018461Y00057617
X02018461Y00157575
X01918460Y00157575
X01818461Y00157575
X01818461Y00257534
X01918460Y00257534
X02018461Y00257534
X02018460Y00949530
X01918460Y00949530
X01818460Y00949530
X01818460Y00849572
X01918460Y00849572
X02018460Y00849572
X02018460Y00749613
X01918460Y00749613
X01818460Y00749613
X-01942236Y00058357
X-01842236Y00058357
X-01742236Y00058357
X-01742236Y00158315
X-01842236Y00158315
X-01942236Y00158315
X-01942236Y00258273
X-01842236Y00258273
X-01742236Y00258273
X-01942452Y00948892
X-01842452Y00948892
X-01742452Y00948892
X-01942452Y00848934
X-01842452Y00848934
X-01742452Y00848934
X-01742452Y00748976
X-01842452Y00748976
X-01942452Y00748976
X-01942452Y00649017
X-01842452Y00649017
X-01742452Y00649017
X00590002Y01031076
X-00721739Y01022909
X-01019999Y00781076
X-01192236Y00413232
X-01292236Y00413232
X-01342236Y00358232
X-01338925Y00649101
X-01288926Y00594101
X01919885Y-02018926
X02009885Y-01958925
X02057025Y-01866912
X02070002Y-01528925
X02070002Y-01628925
X02070002Y-01738925
X02030002Y01901077
X01970002Y01991077
X01789885Y-02058926
X01689885Y-02058926
X01589885Y-02058926
X01489884Y-02058926
X01389884Y-02058926
X01289884Y-02058926
X01189884Y-02058926
X01089884Y-02058926
X00989884Y-02058926
X00889884Y-02058926
X00789884Y-02058926
X00689884Y-02058926
X00589884Y-02058926
X00489884Y-02058926
X00389884Y-02058926
X00289884Y-02058926
X00189884Y-02058926
X00089884Y-02058926
X-00010116Y-02058926
X-00110116Y-02058926
X-00210116Y-02058926
X-00310116Y-02058926
X-00410117Y-02058926
X-00510117Y-02058926
X-00610117Y-02058926
X-00710117Y-02058926
X-00910117Y-02058926
X-01110117Y-02058926
X-01210117Y-02058926
X-01310117Y-02058926
X-01410117Y-02058926
X-01510117Y-02058926
X-01610117Y-02058926
X-01710117Y-02058926
X-01810117Y-02058926
X-01910000Y-02038926
X-01990000Y-01978925
X-02033931Y-01874994
X-02050000Y-01781650
X-02050000Y-01681650
X-02050000Y-01581650
X-02050000Y-01481650
X-02050000Y-01381650
X-02050000Y-01281650
X-02050000Y-01181650
X-02050000Y-01081650
X-02050000Y-00981650
X-02050000Y-00881650
X-02050000Y-00781650
X-02050000Y-00681650
X-02050000Y-00581650
X-02050000Y-00481650
X-02050000Y-00381650
X-02050000Y-00281650
X-02050000Y-00181650
X-02050000Y-00081650
X-02050000Y00018350
X-02050000Y00118351
X-02050000Y00218351
X-02050000Y00718351
X-02050000Y00818351
X-02050000Y00918351
X-02050000Y01018351
X-02050000Y01118351
X-02050000Y01218351
X-02050000Y01318351
X-02050000Y01418351
X-02050000Y01518351
X-02050000Y01618351
X-02050000Y01718351
X-02026860Y01854217
X-01990000Y01951077
X-01920000Y02011077
X-01812543Y02061077
X-01712543Y02061077
X-01612543Y02061077
X-01512543Y02061077
X-01412543Y02061077
X-01312543Y02061077
X-01212543Y02061077
X-01112543Y02061077
X-00912543Y02061077
X-00812543Y02061077
X-00712543Y02061077
X-00612543Y02061077
X-00512543Y02061077
X-00412543Y02061077
X-00312543Y02061077
X-00212543Y02061077
X-00112543Y02061077
X-00012543Y02061077
X00087458Y02061077
X00187458Y02061077
X00287458Y02061077
X00387458Y02061077
X00487458Y02061077
X00587458Y02061077
X00687458Y02061077
X00787458Y02061077
X00887458Y02061077
X00987458Y02061077
X01087458Y02061077
X01187458Y02061077
X01287458Y02061077
X01387458Y02061077
X01487458Y02061077
X01587458Y02061077
X01687458Y02061077
X01787458Y02061077
X01877989Y02038216
X02070002Y01771076
X02070002Y01671076
X02070002Y01571076
X02070002Y01471076
X02070002Y01371076
X02070002Y01271076
X02070002Y01171076
X02070002Y01071076
X02070002Y00971076
X02070002Y00871076
X02070002Y00771076
X02070002Y00671076
X02070002Y00271076
X02070002Y00171076
X02070002Y00071076
X02070002Y-00028925
X02070002Y-00128925
X02070002Y-00228925
X02070002Y-00328925
X02070002Y-00428925
X02070002Y-00528925
X02070002Y-00628925
X02070002Y-00728925
X02070002Y-00828925
X02070002Y-00928925
X02070002Y-01028925
X02070002Y-01128925
X02070002Y-01228925
X02070002Y-01328925
X02070002Y-01428925
X-00640000Y01233331
X-00359999Y-01588925
X-00089999Y-01118925
X-00249999Y-01118925
X-00409999Y-01218925
X-00449999Y-01658925
X01340002Y-00528925
X00605002Y-00787703
X00599999Y-00937703
X-00799999Y-01086190
X00110001Y-01008925
X-00069999Y-01008925
X-00800001Y-00937557
X-00800000Y-00210000
X-00800000Y-00360000
X-00799999Y-00488925
X01713046Y00186810
X-01450001Y-00630000
X-00343999Y00476075
X-00379999Y00531076
X-00768994Y00525773
X-00592361Y00234900
X00220001Y-00948925
X00270001Y-00888925
X00360002Y-00818925
X00430002Y-00758925
X-01065997Y-01889921
X-00892998Y-01636921
X-01150340Y-01828587
X-01309999Y-01808926
X-00719999Y-01508925
X-00359999Y-01408925
X00240002Y-01588925
X-00768994Y00732024
X-00915385Y00354431
X-00785379Y00354431
X-01242236Y00358232
X-00600340Y00594414
X01318460Y00357492
X01718460Y00649655
X01218461Y00357492
X00238966Y00193291
X00281004Y00140066
X01110002Y00881076
X00797199Y00751480
X00288043Y00746254
X-00231540Y00594655
X-00181540Y00649655
X-00668926Y00594101
X01169661Y00824414
X00129660Y-00155587
X00229660Y-00155587
X00029660Y-00155587
X-00070340Y-00155587
X-00300340Y-00065587
X-00653183Y00217256
X-00582472Y00146546
X-00370340Y-00065587
X-00441761Y00075835
X-00371051Y00005124
X01500913Y-00095322
X01642335Y00116100
X01571624Y00045389
X01500913Y-00025322
X01713046Y00116811
X01642335Y00046100
X01571624Y-00024611
X01373043Y-00040321
X01423043Y-00095322
X01123043Y-00095322
X01223043Y-00095322
X01323043Y-00095322
X01073043Y-00040321
X00373043Y-00040321
X00423043Y-00095322
X00473043Y-00040321
X00523043Y-00095322
X00573043Y-00040321
X00623043Y-00095322
X00673043Y-00040321
X00723043Y-00095322
X00773043Y-00040321
X00823043Y-00095322
X00873043Y-00040321
X00923043Y-00095322
X00973043Y-00040321
X01023043Y-00095322
X01173043Y-00040321
X01273043Y-00040321
X01073042Y00141841
X01123042Y00196841
X01173042Y00141841
X01223043Y00196841
X01323042Y00196841
X01273042Y00141841
X00973043Y00141841
X01268461Y00412492
X01373042Y00141841
X01323042Y00196841
X01273042Y00141841
X01223043Y00196841
X01173042Y00141841
X01123042Y00196841
X01073042Y00141841
X01023042Y00196841
X00923042Y00196841
X00873042Y00141841
X00823042Y00196841
X00773042Y00141841
X00723042Y00196841
X00673042Y00141841
X00623042Y00196841
X00573042Y00141841
X00523042Y00196841
X00473042Y00141841
X00423042Y00196841
X00373042Y00141841
X00331004Y00195066
X00122160Y00219414
X-00026958Y00141841
X-00076958Y00196841
X-00477910Y00117407
X01398954Y00209113
X01343954Y00259113
X01398954Y00309113
X-00229233Y00409329
X-00174233Y00359328
X-00229233Y00309329
X-00174233Y00259328
X-01009763Y01013432
X-00954763Y00963432
X-01009763Y00913432
X00218460Y00649655
X00268460Y00594655
X00318460Y00649655
X-00486216Y00612283
X-00938925Y00649101
X-00838925Y00649101
X-01238925Y00649101
X-01138925Y00649101
X-01038925Y00649101
X-00031540Y00594655
X-00081540Y00649655
X00168460Y00594655
X00118460Y00649655
X00018460Y00649655
X00068460Y00594655
X01118460Y00649655
X01068460Y00594655
X01018460Y00649655
X01418460Y00649655
X01368460Y00594655
X01318460Y00649655
X01268460Y00594655
X01168460Y00594655
X01218460Y00649655
X02068460Y00594655
X02018460Y00649655
X01968460Y00594655
X01918460Y00649655
X01868460Y00594655
X01818460Y00649655
X01768460Y00594655
X-00788926Y00594101
X-00888925Y00594101
X-00988925Y00594101
X-01088925Y00594101
X-01188925Y00594101
X-02092452Y00594017
X-01792452Y00594017
X-01892452Y00594017
X-01992452Y00594017
X-01642452Y00649017
X-01742452Y00649017
X-01842452Y00649017
X-01942452Y00649017
X-02042452Y00649017
X02018461Y00357492
X01918460Y00357492
X01818460Y00357492
X02068460Y00412492
X01968461Y00412492
X01868461Y00412492
X01768461Y00412492
X01118461Y00357492
X01018460Y00357492
X00918460Y00357492
X00818460Y00357492
X00718461Y00357492
X00618461Y00357492
X01168460Y00412492
X01068460Y00412492
X00968461Y00412492
X00868461Y00412492
X00768460Y00412492
X00568460Y00412492
X00418460Y00357492
X00118461Y00357492
X00018460Y00357492
X-00081540Y00357492
X00068461Y00412492
X-00031539Y00412492
X00518460Y00357492
X-00642236Y00358232
X-00592236Y00413232
X-01442236Y00358232
X-01542236Y00358232
X-01642236Y00358232
X-01742236Y00358232
X-01842236Y00358232
X-01942236Y00358232
X-02042236Y00358232
X-01392236Y00413232
X-01492236Y00413232
X-01592236Y00413232
X-01692236Y00413232
X-01792236Y00413232
X-01892236Y00413232
X-01992236Y00413232
X-02092236Y00413232
X-00236720Y-00526286
X-00236720Y-00411986
X00283980Y-00465326
X-01299999Y01131076
X-01089999Y01271076
X-01080340Y01274414
X00276360Y-00307846
X00259441Y01317954
X00591320Y00454154
X00543060Y00471934
X00543060Y00525274
X00591320Y00506647
X00543060Y00526120
X00591320Y00559140
X00543060Y00580307
X00591320Y00611634
X00543060Y00634494
X00144095Y00302507
X01567617Y00470554
X01512776Y00536923
X00720002Y00691076
X00440002Y01221076
X-00543485Y00951447
X-00767580Y01193294
X-00895202Y01192726
X00349335Y00297820
X-00249999Y00761076
X-00074160Y-00617726
X-01104539Y-00275007
X01650002Y00761076
X-00650000Y-00490000
X-00389999Y-01048925
X00000001Y00951076
X01520002Y01111076
X-00241800Y-00615186
X00370002Y01761076
X-00667998Y01602072
X-00675998Y01834072
X-00769999Y01831077
X00022360Y-00665986
X-00089999Y-00848925
X-00154899Y-00863324
X-00126120Y-00956926
X00151500Y-00273706
X-00118500Y-00363706
X00151500Y-00453706
X-00118500Y-00543707
X-00028500Y-00543707
X00061500Y-00543707
X00151500Y-00543707
X00061500Y-00453706
X-00028500Y-00453706
X-00118500Y-00453706
X-00028500Y-00363706
X00061500Y-00273706
X-00028500Y-00273706
X-00118500Y-00273706
X00151500Y-00363706
X00061500Y-00363706
X01138445Y-01738586
X01140002Y-01348925
X-00019999Y-00968925
X00180001Y-01348925
X00940680Y-00160407
X00780002Y-00388925
X01154040Y-00339706
X00950840Y-00656089
X00751603Y-00601326
X00740002Y-00488925
X00600002Y-00468925
X00070001Y-01118925
X-00169999Y-01108925
X-00470000Y-00340000
X-00250000Y-00300000
X-00230000Y-00240000
X-01386501Y-00739999
X-01270001Y-00850000
X-01500001Y-00780000
X-01660001Y-00790000
X00160000Y-01110001
X00170000Y-00880000
X-00770000Y-00710000
X-00820000Y-00790000
X-00664999Y-00357557
T02
X-01761739Y-01328925
T03
X00970130Y01337585
X00890145Y01337585
X00810135Y01337585
X00730150Y01337585
X00730150Y01257575
X00810135Y01257575
X00890145Y01257575
X00970130Y01257575
X00970130Y01177565
X00890145Y01177565
X00810135Y01177565
X00730150Y01177565
X-00123490Y01337096
X-00203475Y01337096
X-00283485Y01337096
X-00363470Y01337096
X-00363470Y01257086
X-00283485Y01257086
X-00203475Y01257086
X-00123490Y01257086
X-00123490Y01177076
X-00203475Y01177076
X-00283485Y01177076
X-00363470Y01177076
T04
X00540002Y-01438925
X01720002Y-00678925
X01680002Y-01048925
X-01519999Y01331076
X-01150340Y-01256587
X01051060Y-00605026
X00463434Y-00601351
X01110002Y01811077
X00040001Y01801077
X-01469999Y00731076
T05
X-00362485Y01771078
X00740002Y01761076
X-00999999Y01951077
T06
X01475003Y-01098924
X01475003Y-00618925
X01905002Y-00618925
X01905002Y-01098924
T07
X01749660Y-01745587
X-01730340Y-01745587
X01749660Y01734414
X-01730340Y01734414
M30