G04 Layer: TopSolderMaskLayer*
G04 EasyEDA Pro v2.1.64.d1969c9c.217bcf, 2024-08-30 02:53:31*
G04 Gerber Generator version 0.3*
G04 Scale: 100 percent, Rotated: No, Reflected: No*
G04 Dimensions in millimeters*
G04 Leading zeros omitted, absolute positions, 3 integers and 5 decimals*
%FSLAX35Y35*%
%MOMM*%
%AMRoundRect*1,1,$1,$2,$3*1,1,$1,$4,$5*1,1,$1,0-$2,0-$3*1,1,$1,0-$4,0-$5*20,1,$1,$2,$3,$4,$5,0*20,1,$1,$4,$5,0-$2,0-$3,0*20,1,$1,0-$2,0-$3,0-$4,0-$5,0*20,1,$1,0-$4,0-$5,$2,$3,0*4,1,4,$2,$3,$4,$5,0-$2,0-$3,0-$4,0-$5,$2,$3,0*%
%ADD10C,0.3*%
%ADD11C,3.0*%
%ADD12C,0.3424*%
%ADD13C,1.4*%
%ADD14RoundRect,0.08267X-0.18047X-0.18047X-0.18047X0.18047*%
%ADD15RoundRect,0.08267X-0.18047X-0.30947X-0.18047X0.30947*%
%ADD16RoundRect,0.0919X0.30643X-0.30643X-0.30643X-0.30643*%
%ADD17RoundRect,0.08875X0.30643X-0.30643X-0.30643X-0.30643*%
%ADD18RoundRect,0.08875X0.30643X0.30643X0.30643X-0.30643*%
%ADD19RoundRect,0.08875X-0.30643X0.30643X0.30643X0.30643*%
%ADD20RoundRect,0.08109X-0.18126X-0.16026X-0.18126X0.16026*%
%ADD21RoundRect,0.08692X-0.25734X-0.25734X-0.25734X0.25734*%
%ADD22RoundRect,0.08109X-0.16026X0.18126X0.16026X0.18126*%
%ADD23RoundRect,0.08267X-0.30947X0.18047X0.30947X0.18047*%
%ADD24RoundRect,0.08109X-0.16026X0.16026X0.16026X0.16026*%
%ADD25RoundRect,0.09336X0.50432X1.50432X0.50432X-1.50432*%
%ADD26RoundRect,0.08875X-0.30643X-0.30643X-0.30643X0.30643*%
%ADD27C,5.302*%
%ADD28RoundRect,0.076X-0.1628X-0.1128X-0.1628X0.1128*%
%ADD29RoundRect,0.08109X0.16026X0.16026X0.16026X-0.16026*%
%ADD30RoundRect,0.09302X-1.60429X0.50429X1.60429X0.50429*%
%ADD31RoundRect,0.09131X-0.45514X-0.40514X-0.45514X0.40514*%
%ADD32RoundRect,0.09138X0.43712X0.40835X0.43712X-0.40835*%
%ADD33RoundRect,0.09137X0.43712X0.40811X0.43712X-0.40811*%
%ADD34RoundRect,0.09164X-0.40518X-0.40518X-0.40518X0.40518*%
%ADD35RoundRect,0.0882X-0.28191X0.6069X0.28191X0.6069*%
%ADD36RoundRect,0.08295X-0.18053X0.60953X0.18053X0.60953*%
%ADD37RoundRect,0.07778X-0.13612X-0.27161X-0.13612X0.27161*%
%ADD38RoundRect,0.08155X-0.18023X-0.26973X-0.18023X0.26973*%
%ADD39RoundRect,0.09091X-0.80454X-0.45454X-0.80454X0.45454*%
%ADD40RoundRect,0.08906X0.30647X-0.55647X-0.30647X-0.55647*%
%ADD41RoundRect,0.08295X0.18053X-0.55953X-0.18053X-0.55953*%
%ADD42RoundRect,0.08906X0.30647X-0.35647X-0.30647X-0.35647*%
%ADD43RoundRect,0.09302X0.50429X-0.50429X-0.50429X-0.50429*%
%ADD44RoundRect,0.08109X0.26426X-0.16026X-0.26426X-0.16026*%
%ADD45RoundRect,0.08267X0.26347X-0.18047X-0.26347X-0.18047*%
%ADD46RoundRect,0.08267X0.18047X-0.26347X-0.18047X-0.26347*%
%ADD47RoundRect,0.08109X0.16026X-0.26426X-0.16026X-0.26426*%
%ADD48RoundRect,0.08109X0.34526X-0.16026X-0.34526X-0.16026*%
%ADD49RoundRect,0.08267X0.34447X-0.18047X-0.34447X-0.18047*%
%ADD50RoundRect,0.09131X-0.40514X0.80514X0.40514X0.80514*%
%ADD51RoundRect,0.09131X0.40515X0.40514X0.40515X-0.40514*%
%ADD52RoundRect,0.08267X0.20947X0.18047X0.20947X-0.18047*%
%ADD53R,0.85X0.3*%
%ADD54C,1.1*%
%ADD55RoundRect,0.08267X0.18047X0.4127X0.18047X-0.4127*%
%ADD56RoundRect,0.08267X0.18047X0.41247X0.18047X-0.41247*%
G75*


G04 Text Start*
G36*
G01X-1619352Y-877570D02*
G01X-1619352Y-942543D01*
G01X-1618996Y-991210D01*
G01X-1617980Y-1007110D01*
G01X-1614830Y-1005281D01*
G01X-1602537Y-997102D01*
G01X-1598016Y-994359D01*
G01X-1589786Y-988924D01*
G01X-1582522Y-984352D01*
G01X-1570279Y-976173D01*
G01X-1563014Y-971652D01*
G01X-1554836Y-966216D01*
G01X-1547520Y-961644D01*
G01X-1543456Y-958901D01*
G01X-1539799Y-956666D01*
G01X-1536649D01*
G01X-1532992Y-958901D01*
G01X-1524813Y-964387D01*
G01X-1517548Y-968908D01*
G01X-1509370Y-974395D01*
G01X-1502105Y-978916D01*
G01X-1489812Y-987095D01*
G01X-1485240Y-989838D01*
G01X-1477061Y-995274D01*
G01X-1469796Y-999846D01*
G01X-1461618Y-1005281D01*
G01X-1458468Y-1007110D01*
G01X-1457757Y-991210D01*
G01X-1457554Y-942543D01*
G01Y-877570D01*
G01X-1496619D01*
G01Y-914400D01*
G01X-1496974Y-941883D01*
G01X-1497990Y-950722D01*
G01X-1501191Y-948944D01*
G01X-1505255Y-946201D01*
G01X-1509827Y-943458D01*
G01X-1517091Y-938936D01*
G01X-1521155Y-936193D01*
G01X-1532077Y-929386D01*
G01X-1537513Y-927557D01*
G01X-1542542D01*
G01X-1546149Y-929843D01*
G01X-1550264Y-932536D01*
G01X-1564792Y-941629D01*
G01X-1568907Y-944372D01*
G01X-1573428Y-947115D01*
G01X-1577543Y-949808D01*
G01X-1579016Y-950519D01*
G01X-1579829Y-949808D01*
G01X-1580286Y-913028D01*
G01Y-877570D01*
G37*
G36*
G01X-1268425Y-877570D02*
G01X-1268425Y-1007567D01*
G01X-1228446D01*
G01Y-896671D01*
G01X-1156614D01*
G01Y-927557D01*
G01X-1189787D01*
G01X-1214476Y-927913D01*
G01X-1222096Y-928929D01*
G01X-1219810Y-931215D01*
G01X-1214374Y-937565D01*
G01X-1212088Y-939851D01*
G01X-1209345Y-943458D01*
G01X-1206195Y-946658D01*
G01X-1201623Y-952094D01*
G01X-1199337Y-954380D01*
G01X-1196645Y-958037D01*
G01X-1193444Y-961187D01*
G01X-1188009Y-967537D01*
G01X-1185723Y-969823D01*
G01X-1182980Y-973480D01*
G01X-1179830Y-976630D01*
G01X-1175258Y-982116D01*
G01X-1172972Y-984352D01*
G01X-1170280Y-988009D01*
G01X-1167079Y-991210D01*
G01X-1162558Y-996645D01*
G01X-1160272Y-998931D01*
G01X-1157529Y-1002538D01*
G01X-1154379Y-1005738D01*
G01X-1151636Y-1007110D01*
G01X-1128471Y-1007567D01*
G01X-1112317Y-1007212D01*
G01X-1107542Y-1006196D01*
G01X-1109828Y-1003910D01*
G01X-1113434Y-999388D01*
G01X-1115720Y-997102D01*
G01X-1118464Y-993445D01*
G01X-1121613Y-990295D01*
G01X-1126185Y-984809D01*
G01X-1128471Y-982574D01*
G01X-1131164Y-978916D01*
G01X-1134364Y-975716D01*
G01X-1138885Y-970280D01*
G01X-1141171Y-967994D01*
G01X-1143914Y-964387D01*
G01X-1147064Y-961187D01*
G01X-1152550Y-954837D01*
G01X-1154786Y-952551D01*
G01X-1157072Y-949401D01*
G01X-1157783Y-947877D01*
G01X-1157072Y-947115D01*
G01X-1136650Y-946658D01*
G01X-1117549D01*
G01Y-877570D01*
G37*
G36*
G01X-1792072Y-877570D02*
G01X-1792072Y-896671D01*
G01X-1753006D01*
G01X-1683004D01*
G01Y-988466D01*
G01X-1706626D01*
G01X-1730705Y-988009D01*
G01X-1732534Y-986638D01*
G01X-1734820Y-984352D01*
G01X-1738427Y-979830D01*
G01X-1742999Y-975309D01*
G01X-1745742Y-971652D01*
G01X-1748892Y-968451D01*
G01X-1751178Y-965759D01*
G01X-1752549Y-962558D01*
G01X-1753006Y-928929D01*
G01Y-896671D01*
G01X-1792072D01*
G01Y-925271D01*
G01X-1791767Y-961288D01*
G01X-1790700Y-973938D01*
G01X-1788465Y-976173D01*
G01X-1785722Y-979830D01*
G01X-1782521Y-983031D01*
G01X-1778000Y-988466D01*
G01X-1775714Y-990752D01*
G01X-1772107Y-995274D01*
G01X-1767535Y-999846D01*
G01X-1764792Y-1003452D01*
G01X-1762100Y-1006653D01*
G01X-1702562Y-1007567D01*
G01X-1643888D01*
G01Y-877570D01*
G37*
G36*
G01X-1433017Y-877570D02*
G01X-1433017Y-1007567D01*
G01X-1287526D01*
G01X-1288440Y-1005738D01*
G01X-1290726Y-1002995D01*
G01X-1293012Y-1000760D01*
G01X-1295705Y-997102D01*
G01X-1298905Y-993902D01*
G01X-1302410Y-989736D01*
G01X-1304341Y-988924D01*
G01X-1349807Y-988466D01*
G01X-1392987D01*
G01Y-952094D01*
G01X-1294790D01*
G01Y-932993D01*
G01X-1392987D01*
G01Y-896671D01*
G01X-1302106D01*
G01X-1300734Y-894385D01*
G01X-1292555Y-884834D01*
G01X-1290269Y-882548D01*
G01X-1287526Y-879399D01*
G01X-1285697Y-877570D01*
G37*
G36*
G01X-1961185Y-877570D02*
G01X-1961185Y-896671D01*
G01X-1922069D01*
G01X-1855724D01*
G01Y-943000D01*
G01X-1888439D01*
G01X-1921612Y-942543D01*
G01X-1922069Y-919378D01*
G01Y-896671D01*
G01X-1961185D01*
G01Y-1007567D01*
G01X-1922069D01*
G01Y-962101D01*
G01X-1816608D01*
G01Y-877570D01*
G37*
G36*
G01X-925454Y-1817107D02*
G01X-925454Y-1872562D01*
G01X-885454D01*
G01Y-1761653D01*
G01X-861363D01*
G01X-843067Y-1761312D01*
G01X-836363Y-1760289D01*
G01X-832727Y-1755744D01*
G01X-830454Y-1753471D01*
G01X-825908Y-1748016D01*
G01X-823181Y-1744834D01*
G01X-821818Y-1742562D01*
G01X-989090D01*
G01X-988636Y-1744380D01*
G01X-986817Y-1747107D01*
G01X-984545Y-1749380D01*
G01X-981817Y-1753016D01*
G01X-978636Y-1756198D01*
G01X-976817Y-1758471D01*
G01X-974545Y-1760743D01*
G01X-949090Y-1761653D01*
G01X-925454D01*
G01Y-1817107D01*
G37*
G36*
G01X-814090Y-1872107D02*
G01X-809431Y-1873130D01*
G01X-792727Y-1873471D01*
G01X-775454Y-1873130D01*
G01X-769090Y-1872107D01*
G01X-766818Y-1869834D01*
G01X-761363Y-1863471D01*
G01X-759090Y-1861198D01*
G01X-755454Y-1856653D01*
G01X-750908Y-1852107D01*
G01X-748181Y-1848471D01*
G01X-744999Y-1845289D01*
G01X-740454Y-1839835D01*
G01X-738181Y-1837562D01*
G01X-735454Y-1835744D01*
G01X-733749Y-1835971D01*
G01X-732272Y-1837562D01*
G01X-729545Y-1840744D01*
G01X-727272Y-1843016D01*
G01X-724545Y-1846653D01*
G01X-721363Y-1849835D01*
G01X-715908Y-1856198D01*
G01X-713636Y-1858471D01*
G01X-709999Y-1863016D01*
G01X-707727Y-1865289D01*
G01X-702272Y-1871653D01*
G01X-699545Y-1873016D01*
G01X-676818Y-1873471D01*
G01X-655454D01*
G01X-656818Y-1871198D01*
G01X-659545Y-1868016D01*
G01X-664090Y-1863471D01*
G01X-667727Y-1858925D01*
G01X-669999Y-1856653D01*
G01X-673636Y-1852107D01*
G01X-678181Y-1847562D01*
G01X-681818Y-1843016D01*
G01X-686363Y-1838471D01*
G01X-689090Y-1834835D01*
G01X-692272Y-1831653D01*
G01X-697727Y-1825289D01*
G01X-702272Y-1820744D01*
G01X-705908Y-1816198D01*
G01X-708181Y-1813925D01*
G01X-709999Y-1811653D01*
G01X-711363Y-1808925D01*
G01Y-1807334D01*
G01X-710454Y-1806198D01*
G01X-708181Y-1803925D01*
G01X-704545Y-1799380D01*
G01X-702272Y-1797107D01*
G01X-696818Y-1790744D01*
G01X-694545Y-1788471D01*
G01X-691818Y-1784834D01*
G01X-688636Y-1781653D01*
G01X-683181Y-1775289D01*
G01X-680908Y-1773016D01*
G01X-678181Y-1769380D01*
G01X-674999Y-1766198D01*
G01X-669545Y-1759834D01*
G01X-667272Y-1757562D01*
G01X-664545Y-1753925D01*
G01X-661363Y-1750744D01*
G01X-655227Y-1743585D01*
G01X-655909Y-1743016D01*
G01X-678636Y-1742562D01*
G01X-694886Y-1742903D01*
G01X-700908Y-1743925D01*
G01X-703181Y-1746198D01*
G01X-706817Y-1750744D01*
G01X-709090Y-1753016D01*
G01X-712727Y-1757562D01*
G01X-714999Y-1759834D01*
G01X-720454Y-1766198D01*
G01X-722727Y-1768471D01*
G01X-726363Y-1773016D01*
G01X-728636Y-1775289D01*
G01X-731363Y-1778471D01*
G01X-734545Y-1781653D01*
G01X-736022Y-1781994D01*
G01X-736817Y-1781198D01*
G01X-738636Y-1778925D01*
G01X-740908Y-1776653D01*
G01X-744545Y-1772107D01*
G01X-749090Y-1767562D01*
G01X-751818Y-1763925D01*
G01X-754999Y-1760743D01*
G01X-759545Y-1755289D01*
G01X-761818Y-1753016D01*
G01X-765454Y-1748471D01*
G01X-769999Y-1743925D01*
G01X-776363Y-1742903D01*
G01X-793636Y-1742562D01*
G01X-810454Y-1742903D01*
G01X-815454Y-1743925D01*
G01X-813181Y-1746198D01*
G01X-807727Y-1752562D01*
G01X-805454Y-1754834D01*
G01X-801818Y-1759380D01*
G01X-799545Y-1761653D01*
G01X-794090Y-1768016D01*
G01X-791818Y-1770289D01*
G01X-789090Y-1773925D01*
G01X-785909Y-1777107D01*
G01X-781363Y-1782562D01*
G01X-779090Y-1784834D01*
G01X-776363Y-1788471D01*
G01X-773181Y-1791653D01*
G01X-768636Y-1797107D01*
G01X-766363Y-1799380D01*
G01X-763636Y-1803016D01*
G01X-760454Y-1806198D01*
G01X-759090Y-1808925D01*
G01X-760454Y-1811653D01*
G01X-764999Y-1816198D01*
G01X-768636Y-1820744D01*
G01X-770909Y-1823016D01*
G01X-773636Y-1826653D01*
G01X-776818Y-1829835D01*
G01X-782272Y-1836198D01*
G01X-784545Y-1838471D01*
G01X-788181Y-1843016D01*
G01X-790454Y-1845289D01*
G01X-795908Y-1851653D01*
G01X-798181Y-1853925D01*
G01X-801818Y-1858471D01*
G01X-804090Y-1860744D01*
G01X-809545Y-1867107D01*
G01X-811818Y-1869380D01*
G01X-814090Y-1872107D01*
G37*
G36*
G01X-352245Y-1872107D02*
G01X-347586Y-1873130D01*
G01X-330881Y-1873471D01*
G01X-313609Y-1873130D01*
G01X-307245Y-1872107D01*
G01X-304972Y-1869834D01*
G01X-299518Y-1863471D01*
G01X-297245Y-1861198D01*
G01X-293609Y-1856653D01*
G01X-289063Y-1852107D01*
G01X-286336Y-1848471D01*
G01X-283154Y-1845289D01*
G01X-278609Y-1839835D01*
G01X-276336Y-1837562D01*
G01X-273609Y-1835744D01*
G01X-271904Y-1835971D01*
G01X-270427Y-1837562D01*
G01X-267700Y-1840744D01*
G01X-265427Y-1843016D01*
G01X-262700Y-1846653D01*
G01X-259518Y-1849835D01*
G01X-254063Y-1856198D01*
G01X-251791Y-1858471D01*
G01X-248154Y-1863016D01*
G01X-245882Y-1865289D01*
G01X-240427Y-1871653D01*
G01X-237700Y-1873016D01*
G01X-214973Y-1873471D01*
G01X-193609D01*
G01X-194972Y-1871198D01*
G01X-197700Y-1868016D01*
G01X-202245Y-1863471D01*
G01X-205882Y-1858925D01*
G01X-208154Y-1856653D01*
G01X-211791Y-1852107D01*
G01X-216336Y-1847562D01*
G01X-219973Y-1843016D01*
G01X-224518Y-1838471D01*
G01X-227245Y-1834835D01*
G01X-230427Y-1831653D01*
G01X-235882Y-1825289D01*
G01X-240427Y-1820744D01*
G01X-244064Y-1816198D01*
G01X-246336Y-1813925D01*
G01X-248154Y-1811653D01*
G01X-249518Y-1808925D01*
G01Y-1807334D01*
G01X-248609Y-1806198D01*
G01X-246336Y-1803925D01*
G01X-242700Y-1799380D01*
G01X-240427Y-1797107D01*
G01X-234973Y-1790744D01*
G01X-232700Y-1788471D01*
G01X-229973Y-1784834D01*
G01X-226791Y-1781653D01*
G01X-221336Y-1775289D01*
G01X-219063Y-1773016D01*
G01X-216336Y-1769380D01*
G01X-213154Y-1766198D01*
G01X-207700Y-1759834D01*
G01X-205427Y-1757562D01*
G01X-202700Y-1753925D01*
G01X-199518Y-1750744D01*
G01X-193382Y-1743585D01*
G01X-194063Y-1743016D01*
G01X-216791Y-1742562D01*
G01X-233041Y-1742903D01*
G01X-239064Y-1743925D01*
G01X-241336Y-1746198D01*
G01X-244973Y-1750744D01*
G01X-247245Y-1753016D01*
G01X-250882Y-1757562D01*
G01X-253154Y-1759834D01*
G01X-258609Y-1766198D01*
G01X-260882Y-1768471D01*
G01X-264518Y-1773016D01*
G01X-266791Y-1775289D01*
G01X-269518Y-1778471D01*
G01X-272700Y-1781653D01*
G01X-274177Y-1781994D01*
G01X-274973Y-1781198D01*
G01X-276791Y-1778925D01*
G01X-279063Y-1776653D01*
G01X-282700Y-1772107D01*
G01X-287245Y-1767562D01*
G01X-289972Y-1763925D01*
G01X-293154Y-1760743D01*
G01X-297700Y-1755289D01*
G01X-299972Y-1753016D01*
G01X-303609Y-1748471D01*
G01X-308154Y-1743925D01*
G01X-314518Y-1742903D01*
G01X-331791Y-1742562D01*
G01X-348609Y-1742903D01*
G01X-353609Y-1743925D01*
G01X-351336Y-1746198D01*
G01X-345881Y-1752562D01*
G01X-343609Y-1754834D01*
G01X-339972Y-1759380D01*
G01X-337700Y-1761653D01*
G01X-332245Y-1768016D01*
G01X-329972Y-1770289D01*
G01X-327245Y-1773925D01*
G01X-324063Y-1777107D01*
G01X-319518Y-1782562D01*
G01X-317245Y-1784834D01*
G01X-314518Y-1788471D01*
G01X-311336Y-1791653D01*
G01X-306791Y-1797107D01*
G01X-304518Y-1799380D01*
G01X-301791Y-1803016D01*
G01X-298609Y-1806198D01*
G01X-297245Y-1808925D01*
G01X-298609Y-1811653D01*
G01X-303154Y-1816198D01*
G01X-306791Y-1820744D01*
G01X-309063Y-1823016D01*
G01X-311791Y-1826653D01*
G01X-314972Y-1829835D01*
G01X-320427Y-1836198D01*
G01X-322700Y-1838471D01*
G01X-326336Y-1843016D01*
G01X-328609Y-1845289D01*
G01X-334063Y-1851653D01*
G01X-336336Y-1853925D01*
G01X-339972Y-1858471D01*
G01X-342245Y-1860744D01*
G01X-347700Y-1867107D01*
G01X-349972Y-1869380D01*
G01X-352245Y-1872107D01*
G37*
G36*
G01X-521791Y-1807562D02*
G01X-521791Y-1872562D01*
G01X-481791D01*
G01Y-1761653D01*
G01X-409973D01*
G01Y-1792562D01*
G01X-443154D01*
G01X-467813Y-1792903D01*
G01X-475427Y-1793925D01*
G01X-473154Y-1796198D01*
G01X-469518Y-1800744D01*
G01X-467245Y-1803016D01*
G01X-464518Y-1806653D01*
G01X-461336Y-1809835D01*
G01X-456791Y-1815289D01*
G01X-454518Y-1817562D01*
G01X-451791Y-1821198D01*
G01X-448609Y-1824380D01*
G01X-444063Y-1829835D01*
G01X-441791Y-1832107D01*
G01X-439063Y-1835744D01*
G01X-435882Y-1838925D01*
G01X-431336Y-1844380D01*
G01X-429063Y-1846653D01*
G01X-426336Y-1850289D01*
G01X-423154Y-1853471D01*
G01X-418609Y-1858925D01*
G01X-416336Y-1861198D01*
G01X-413609Y-1864834D01*
G01X-410427Y-1868016D01*
G01X-408154Y-1870744D01*
G01X-401563Y-1872107D01*
G01X-383609Y-1872562D01*
G01X-366109Y-1872221D01*
G01X-360882Y-1871198D01*
G01X-363154Y-1868925D01*
G01X-368609Y-1862562D01*
G01X-370882Y-1860289D01*
G01X-374518Y-1855744D01*
G01X-376791Y-1853471D01*
G01X-382245Y-1847107D01*
G01X-384518Y-1844835D01*
G01X-387245Y-1841198D01*
G01X-390427Y-1838016D01*
G01X-394973Y-1832562D01*
G01X-397245Y-1830289D01*
G01X-399973Y-1826653D01*
G01X-403154Y-1823471D01*
G01X-407700Y-1818016D01*
G01X-409973Y-1815744D01*
G01X-411336Y-1813016D01*
G01X-406677Y-1811994D01*
G01X-391791Y-1811653D01*
G01X-371791D01*
G01Y-1742562D01*
G01X-521791D01*
G01Y-1807562D01*
G37*
G36*
G01X109068Y-1742542D02*
G01X109068Y-1872539D01*
G01X240894D01*
G01X242265Y-1870304D01*
G01X245008Y-1867103D01*
G01X247294Y-1864817D01*
G01X249987Y-1861210D01*
G01X253187Y-1858010D01*
G01X255473Y-1855267D01*
G01X256388Y-1853489D01*
G01X150012D01*
G01Y-1761642D01*
G01X195021D01*
G01X228956Y-1761287D01*
G01X240894Y-1760271D01*
G01X243180Y-1758036D01*
G01X247752Y-1752549D01*
G01X253187Y-1746199D01*
G01X255473Y-1743913D01*
G01X237744Y-1742897D01*
G01X182728Y-1742542D01*
G37*
G36*
G01X-58166Y-1742542D02*
G01X-58166Y-1761642D01*
G01X-19101D01*
G01X45466D01*
G01Y-1792580D01*
G01X13614D01*
G01X-18644Y-1792122D01*
G01X-19101Y-1776628D01*
G01Y-1761642D01*
G01X-58166D01*
G01Y-1811630D01*
G01X-19101D01*
G01X45466D01*
G01Y-1853489D01*
G01X13614D01*
G01X-18644Y-1853032D01*
G01X-19101Y-1832102D01*
G01Y-1811630D01*
G01X-58166D01*
G01Y-1872539D01*
G01X85446D01*
G01Y-1792580D01*
G01X73660D01*
G01Y-1742542D01*
G37*
G04 Text End*

G04 PolygonModel Start*
G54D10*
G01X-473175Y503276D02*
G01X-472878Y503574D01*
G01X1346763Y503167D02*
G01X1347169Y503574D01*
G54D11*
G01X-2140340Y-1655586D02*
G03X-1640340Y-2155586I500000J0D01*
G01X-1640340Y-2155586D02*
G01X1659660Y-2155586D01*
G01X1659660Y-2155586D02*
G03X2159660Y-1655586I0J500000D01*
G01X2159660Y1644414D02*
G03X1659660Y2144414I-500000J0D01*
G01X-1640340Y2144414D02*
G03X-2140340Y1644414I0J-500000D01*
G01X2159660Y-1655586D02*
G01X2159660Y-319918D01*
G01X1694718Y2144414D02*
G01X-1605282Y2144414D01*
G54D10*
G01X-284282Y51376D02*
G01X-283982Y51076D01*
G54D12*
G01X1435663Y503167D02*
G01X1436069Y503574D01*
G01X-473175Y503276D02*
G01X-472878Y503574D01*
G54D13*
G01X-574575Y503252D02*
G01X-1485997Y503252D01*
G01X-319999Y101076D02*
G01X-319999Y288970D01*
G01X1492029Y51376D02*
G01X-343451Y51376D01*
G01X1488974Y302892D02*
G01X1488974Y96913D01*
G01X356188Y503167D02*
G01X-157620Y503167D01*
G01X1318979Y503574D02*
G01X778671Y503574D01*
G54D12*
G01X-1451936Y503252D02*
G01X-2104780Y503252D01*
G01X1641852Y503574D02*
G01X2109661Y503574D01*
G36*
G01X1498882Y43653D02*
G01X1658309Y87538D01*
G01Y27645D01*
G01X1513252Y-117347D01*
G01X1498882D01*
G01Y43653D01*
G37*
G36*
G01X1658309Y27645D02*
G01X1679997Y49333D01*
G01Y53076D01*
G01X1658997D01*
G01X1657997Y52076D01*
G01Y27645D01*
G01X1658309D01*
G37*
G36*
G01X-329813Y43559D02*
G01X-489241Y87444D01*
G01Y27552D01*
G01X-344183Y-117440D01*
G01X-329814D01*
G01X-329813Y43559D01*
G37*
G36*
G01X-489241Y27552D02*
G01X-510929Y49239D01*
G01Y52982D01*
G01X-489929D01*
G01X-488929Y51982D01*
G01Y27552D01*
G01X-489241D01*
G37*
G36*
G01X-262967Y68175D02*
G01X-262967Y34220D01*
G01X-296805D01*
G01X-336805Y74220D01*
G01X-336999D01*
G01Y118804D01*
G01X-303583D01*
G01X-302999Y118220D01*
G01Y68175D01*
G01X-262967D01*
G37*
G36*
G01X1472043Y108107D02*
G01X1505997Y108107D01*
G01Y74270D01*
G01X1465998Y34270D01*
G01Y34076D01*
G01X1421414D01*
G01Y67492D01*
G01X1421998Y68076D01*
G01X1472043D01*
G01Y108107D01*
G37*
G04 PolygonModel End*

G04 Rect Start*
G36*
G01X-2290200Y1638722D02*
G01X-2290200Y913362D01*
G01X-1990480D01*
G01Y1638722D01*
G01X-2290200D01*
G37*
G36*
G01X-2290200Y91610D02*
G01X-2290200Y-1682291D01*
G01X-1990480D01*
G01Y91610D01*
G01X-2290200D01*
G37*
G36*
G01X-1579999Y671076D02*
G01X-1579999Y571076D01*
G01X-489999D01*
G01Y671076D01*
G01X-1579999D01*
G37*
G36*
G01X-1777689Y434886D02*
G01X-1777689Y334896D01*
G01X-488339D01*
G01Y434886D01*
G01X-1777689D01*
G37*
G36*
G01X-253999Y671076D02*
G01X-253999Y571076D01*
G01X300001D01*
G01Y671076D01*
G01X-253999D01*
G37*
G36*
G01X990001Y671076D02*
G01X990001Y572076D01*
G01X1423441D01*
G01Y671076D01*
G01X990001D01*
G37*
G36*
G01X-251889Y435355D02*
G01X-251889Y119082D01*
G01X-151969D01*
G01Y435355D01*
G01X-251889D01*
G37*
G36*
G01X-209601Y435355D02*
G01X-209601Y335355D01*
G01X163324D01*
G01Y435355D01*
G01X-209601D01*
G37*
G36*
G01X1420705Y334923D02*
G01X1420705Y434923D01*
G01X427114D01*
G01Y334923D01*
G01X1420705D01*
G37*
G36*
G01X-168229Y219459D02*
G01X-168229Y119383D01*
G01X1420559D01*
G01Y219459D01*
G01X-168229D01*
G37*
G36*
G01X-332798Y-16915D02*
G01X-332798Y-117347D01*
G01X1498882D01*
G01Y-16915D01*
G01X-332798D01*
G37*
G36*
G01X1557580Y51401D02*
G01X1657580Y51401D01*
G01Y165845D01*
G01X1557580D01*
G01Y51401D01*
G37*
G36*
G01X1420705Y434923D02*
G01X1321705Y434923D01*
G01Y120105D01*
G01X1420705D01*
G01Y434923D01*
G37*
G36*
G01X-584199Y571076D02*
G01X-584199Y434886D01*
G01X-498369D01*
G01Y571076D01*
G01X-584199D01*
G37*
G36*
G01X-155773Y435071D02*
G01X-155773Y572261D01*
G01X-241603D01*
G01Y435071D01*
G01X-155773D01*
G37*
G36*
G01X-437488Y289361D02*
G01X-301298Y289361D01*
G01Y375191D01*
G01X-437488D01*
G01Y289361D01*
G37*
G36*
G01X-487785Y169658D02*
G01X-251595Y169658D01*
G01Y375488D01*
G01X-487785D01*
G01Y169658D01*
G37*
G36*
G01X-509999Y334916D02*
G01X-509999Y151075D01*
G01X-487789D01*
G01Y334916D01*
G01X-509999D01*
G37*
G36*
G01X-509999Y151075D02*
G01X-386159Y151075D01*
G01Y173285D01*
G01X-509999D01*
G01Y151075D01*
G37*
G36*
G01X1324342Y571670D02*
G01X1324342Y434479D01*
G01X1410172D01*
G01Y571670D01*
G01X1324342D01*
G37*
G36*
G01X1420458Y169361D02*
G01X1657649Y169361D01*
G01Y375191D01*
G01X1420458D01*
G01Y169361D01*
G37*
G36*
G01X358567Y572077D02*
G01X358567Y434886D01*
G01X444397D01*
G01Y572077D01*
G01X358567D01*
G37*
G36*
G01X781208Y435071D02*
G01X781208Y572261D01*
G01X695379D01*
G01Y435071D01*
G01X781208D01*
G37*
G36*
G01X1657632Y334916D02*
G01X1657632Y50076D01*
G01X1679842D01*
G01Y334916D01*
G01X1657632D01*
G37*
G36*
G01X1679842Y173286D02*
G01X1556002Y173286D01*
G01Y151076D01*
G01X1679842D01*
G01Y173286D01*
G37*
G36*
G01X-388512Y165752D02*
G01X-488512Y165752D01*
G01Y51307D01*
G01X-388512D01*
G01Y165752D01*
G37*
G36*
G01X-510774Y334822D02*
G01X-510774Y49982D01*
G01X-488564D01*
G01Y334822D01*
G01X-510774D01*
G37*
G36*
G01X-1576769Y572076D02*
G01X-1576769Y434886D01*
G01X-1439149D01*
G01Y572076D01*
G01X-1576769D01*
G37*
G36*
G01X-1576539Y571618D02*
G01X-1576539Y671608D01*
G01X-1732889D01*
G01Y571618D01*
G01X-1576539D01*
G37*
G36*
G01X-1722646Y35428D02*
G01X-1722646Y434428D01*
G01X-1781646D01*
G01Y35428D01*
G01X-1722646D01*
G37*
G36*
G01X-1722646Y94428D02*
G01X-2141646Y94428D01*
G01Y35428D01*
G01X-1722646D01*
G01Y94428D01*
G37*
G36*
G01X-1781769Y970618D02*
G01X-1781769Y571618D01*
G01X-1722769D01*
G01Y970618D01*
G01X-1781769D01*
G37*
G36*
G01X-1722769Y970618D02*
G01X-2141769Y970618D01*
G01Y911618D01*
G01X-1722769D01*
G01Y970618D01*
G37*
G36*
G01X1727527Y912398D02*
G01X2146527Y912398D01*
G01Y971398D01*
G01X1727527D01*
G01Y912398D01*
G37*
G36*
G01X1727527Y971398D02*
G01X1727527Y572397D01*
G01X1786527D01*
G01Y971398D01*
G01X1727527D01*
G37*
G36*
G01X1786650Y36207D02*
G01X1786650Y435207D01*
G01X1727650D01*
G01Y36207D01*
G01X1786650D01*
G37*
G36*
G01X1727650Y36207D02*
G01X2146651Y36207D01*
G01Y95207D01*
G01X1727650D01*
G01Y36207D01*
G37*
G36*
G01X2309075Y-630896D02*
G01X2309075Y89464D01*
G01X2009355D01*
G01Y-630896D01*
G01X2309075D01*
G37*
G36*
G01X2310081Y918216D02*
G01X2310081Y1652115D01*
G01X2010361D01*
G01Y918216D01*
G01X2310081D01*
G37*
G36*
G01X1657302Y435207D02*
G01X1657302Y335218D01*
G01X1739150D01*
G01Y435207D01*
G01X1657302D01*
G37*
G36*
G01X1783950Y571940D02*
G01X1783950Y671930D01*
G01X1659601D01*
G01Y571940D01*
G01X1783950D01*
G37*
G04 Rect End*

G04 Pad Start*
G54D14*
G01X-864005Y909562D03*
G54D15*
G01X-864005Y1024562D03*
G54D17*
G01X462493Y297618D03*
G01X347493Y297618D03*
G54D18*
G01X388120Y806253D03*
G01X388120Y691254D03*
G54D19*
G01X129660Y297618D03*
G01X244660Y297618D03*
G54D20*
G01X-50340Y504414D03*
G54D21*
G01X-50340Y619414D03*
G54D22*
G01X969628Y503167D03*
G54D23*
G01X1084627Y503167D03*
G54D19*
G01X-965599Y1391000D03*
G54D24*
G01X-863999Y1391000D03*
G54D25*
G01X627441Y1317954D03*
G01X373441Y1767941D03*
G01X119441Y1317954D03*
G54D26*
G01X914658Y731112D03*
G01X914658Y822552D03*
G01X797199Y636948D03*
G01X797199Y751948D03*
G01X-1189999Y1276000D03*
G01X-1189999Y1391000D03*
G01X-1084175Y1276000D03*
G01X-1084175Y1391000D03*
G54D27*
G01X1749660Y-1745587D03*
G01X-1730340Y-1745587D03*
G01X1749660Y1734414D03*
G01X-1730340Y1734414D03*
G54D26*
G01X249672Y393396D03*
G54D28*
G01X249672Y500076D03*
G54D29*
G01X345801Y504093D03*
G54D18*
G01X345801Y394873D03*
G54D22*
G01X1157758Y503167D03*
G01X1266978Y503167D03*
G54D30*
G01X1138445Y-1738586D03*
G01X458436Y-1738586D03*
G01X1138445Y-1338587D03*
G01X458436Y-1338587D03*
G01X1138445Y-963886D03*
G01X458436Y-963886D03*
G01X1138445Y-563887D03*
G01X458436Y-563887D03*
G54D31*
G01X-1330340Y1274417D03*
G01X-1330340Y1134412D03*
G01X-1189999Y1831079D03*
G01X-1189999Y1691074D03*
G01X-1042572Y1831841D03*
G01X-1042572Y1691837D03*
G54D32*
G01X1010002Y1572077D03*
G54D33*
G01X1010002Y1754076D03*
G54D20*
G01X-863999Y1431032D03*
G54D15*
G01X-863999Y1546032D03*
G54D22*
G01X39284Y503167D03*
G54D23*
G01X154284Y503167D03*
G54D34*
G01X-1633943Y-676261D03*
G01X-1474050Y-675575D03*
G01X-899946Y-1519263D03*
G01X-740053Y-1518577D03*
G01X-444946Y-1519263D03*
G01X-285053Y-1518577D03*
G01X10055Y-1519263D03*
G01X169948Y-1518577D03*
G54D35*
G01X-864005Y1837084D03*
G01X-674013Y1837084D03*
G01X-674013Y1597080D03*
G01X-769009Y1597080D03*
G54D36*
G01X-864005Y1597080D03*
G54D35*
G01X-769009Y1837084D03*
G54D37*
G01X-914011Y1097730D03*
G54D38*
G01X-863999Y1097730D03*
G54D37*
G01X-814012Y1097730D03*
G01X-763999Y1097730D03*
G01X-763999Y1287722D03*
G01X-814012Y1287722D03*
G54D38*
G01X-863999Y1287722D03*
G54D37*
G01X-914011Y1287722D03*
G54D39*
G01X-839005Y1192726D03*
G54D40*
G01X-674006Y783286D03*
G01X-769002Y783286D03*
G54D41*
G01X-863998Y783286D03*
G54D42*
G01X-863998Y521474D03*
G01X-768994Y521474D03*
G01X-674006Y521474D03*
G54D43*
G01X-369986Y503574D03*
G54D44*
G01X-267094Y553561D03*
G54D45*
G01X-267094Y503574D03*
G54D44*
G01X-267094Y453586D03*
G54D46*
G01X-319999Y400682D03*
G54D47*
G01X-369986Y400682D03*
G54D46*
G01X-419973Y400682D03*
G54D44*
G01X-472878Y453586D03*
G54D45*
G01X-472878Y503574D03*
G54D44*
G01X-472878Y553561D03*
G54D47*
G01X-419973Y606465D03*
G01X-369986Y606465D03*
G01X-319999Y606465D03*
G54D48*
G01X669887Y453561D03*
G54D49*
G01X669887Y503574D03*
G54D48*
G01X669887Y553561D03*
G01X669887Y603573D03*
G01X469888Y603573D03*
G01X469888Y553561D03*
G54D49*
G01X469888Y503574D03*
G54D48*
G01X469888Y453561D03*
G54D50*
G01X569888Y528567D03*
G54D43*
G01X1538961Y503574D03*
G54D44*
G01X1641852Y553561D03*
G54D45*
G01X1641852Y503574D03*
G54D44*
G01X1641852Y453586D03*
G54D46*
G01X1588948Y400682D03*
G54D47*
G01X1538961Y400682D03*
G54D46*
G01X1488974Y400682D03*
G54D44*
G01X1436069Y453586D03*
G54D45*
G01X1436069Y503574D03*
G54D44*
G01X1436069Y553561D03*
G54D47*
G01X1488974Y606465D03*
G01X1538961Y606465D03*
G01X1588948Y606465D03*
G54D17*
G01X1170002Y821076D03*
G01X1055002Y821076D03*
G54D22*
G01X-1347477Y503252D03*
G54D23*
G01X-1232478Y503252D03*
G54D51*
G01X-1473602Y643231D03*
G54D52*
G01X-1473602Y503252D03*
G54D53*
G01X1606502Y-1133924D03*
G01X1606502Y-983925D03*
G01X1606502Y-933925D03*
G01X1606502Y-883925D03*
G01X1606502Y-833925D03*
G01X1606502Y-783925D03*
G01X1606502Y-733925D03*
G01X1606502Y-583925D03*
G01X1773502Y-583925D03*
G01X1773502Y-733925D03*
G01X1773502Y-783925D03*
G01X1773502Y-833925D03*
G01X1773502Y-883925D03*
G01X1773502Y-933925D03*
G01X1773502Y-983925D03*
G01X1773502Y-1133924D03*
G54D54*
G01X1475003Y-1098924D03*
G01X1475003Y-618925D03*
G01X1905002Y-618925D03*
G01X1905002Y-1098924D03*
G54D55*
G01X-419999Y82076D03*
G54D56*
G01X-419999Y264075D03*
G54D55*
G01X1588948Y82076D03*
G54D56*
G01X1588948Y264075D03*
G54D18*
G01X908540Y605174D03*
G54D29*
G01X908540Y503574D03*
G04 Pad End*

M02*
