G04 Layer: TopLayer*
G04 EasyEDA Pro v2.2.27.1, 2024-09-01 06:15:27*
G04 Gerber Generator version 0.3*
G04 Scale: 100 percent, Rotated: No, Reflected: No*
G04 Dimensions in millimeters*
G04 Leading zeros omitted, absolute positions, 3 integers and 5 decimals*
%FSLAX35Y35*%
%MOMM*%
%ADD10C,0.2032*%
%ADD11R,1.0X2.99999*%
%ADD12C,5.2*%
%ADD13R,3.19999X1.0*%
%ADD14R,0.9X0.8*%
%ADD15R,0.86401X0.80648*%
%ADD16R,0.86401X0.806*%
%ADD17R,0.8011X0.8*%
%ADD18R,0.8X0.8*%
%ADD19R,0.55001X1.2*%
%ADD20R,0.342X1.2*%
%ADD21R,0.6X1.1*%
%ADD22R,0.342X1.1*%
%ADD23R,0.6X0.7*%
%ADD24R,1.0X1.0*%
%ADD25R,0.508X0.3*%
%ADD26R,0.508X0.342*%
%ADD27R,0.342X0.508*%
%ADD28R,0.3X0.508*%
%ADD29R,0.67X0.3*%
%ADD30R,0.67X0.342*%
%ADD31R,0.8X1.6*%
%ADD32R,0.85X0.3*%
%ADD33C,1.1*%
%ADD34R,0.342X0.80648*%
%ADD35R,0.342X0.806*%
%ADD36R,0.3X0.342*%
%ADD37R,0.6X0.342*%
%ADD38R,0.6X0.6*%
%ADD39R,0.3X0.3*%
%ADD40R,0.6X0.6*%
%ADD41R,0.6X0.6*%
%ADD42R,0.342X0.3*%
%ADD43R,0.5X0.5*%
%ADD44R,0.8X0.8*%
%ADD45R,0.4X0.342*%
%ADD46R,0.342X0.342*%
%ADD47R,0.342X0.6*%
%ADD48R,0.6X0.6*%
%ADD49R,0.3X0.3*%
%ADD50R,0.3X0.2*%
%ADD51R,0.25001X0.521*%
%ADD52R,0.342X0.521*%
%ADD53R,1.6X0.9*%
%ADD54R,0.3X0.3*%
%ADD55R,0.8X0.9*%
%ADD56R,0.8X0.4*%
%ADD57R,0.521X0.15*%
%ADD58R,0.521X0.342*%
%ADD59R,0.521X0.25001*%
%ADD60R,0.9X1.6*%
%ADD61C,0.45*%
%ADD62C,0.6*%
%ADD63C,0.8*%
%ADD64C,0.65*%
%ADD65C,0.50002*%
%ADD66C,0.5*%
%ADD67C,0.15*%
%ADD68C,0.254*%
%ADD69C,0.2*%
%ADD70C,0.3424*%
%ADD71C,0.127*%
%ADD72C,0.25*%
%ADD73C,0.342*%
%ADD74C,0.156*%
%ADD75C,0.3*%
G75*


G04 Copper Start*
G36*
G01X-3567502Y78916D02*
G01X-4085075Y78916D01*
G01X-4085075Y1340840D01*
G02X-3820889Y1605026I264186J0D01*
G01X-120889Y1605026D01*
G02X143297Y1340840I0J-264186D01*
G01X143297Y79009D01*
G01X-310694Y79009D01*
G01X-310694Y168002D01*
G03X-313850Y175470I-10414J0D01*
G03X-257531Y298449I-16697J82032D01*
G03X-391833Y314529I-73016J-40947D01*
G01X-391833Y380686D01*
G03X-460547Y512217I-68714J47817D01*
G03X-529261Y380686I0J-83714D01*
G01X-529261Y185147D01*
G03X-541714Y178416I22686J-56855D01*
G01X-557108Y178416D01*
G03X-567522Y168002I0J-10414D01*
G01X-567522Y134008D01*
G03X-567790Y128292I60947J-5716D01*
G01X-567790Y78716D01*
G01X-570212Y79001D01*
G01X-980795Y79001D01*
G01X-980795Y131600D01*
G03X-987684Y159812I-61214J0D01*
G03X-974677Y197538I-48207J37726D01*
G01X-974677Y229354D01*
G03X-955547Y226289I19130J58148D01*
G01X-895547Y226289D01*
G03X-834333Y287503I0J61214D01*
G01X-834333Y306999D01*
G03X-802848Y447156I-26214J79504D01*
G03X-941260Y408716I-57699J-60654D01*
G01X-955547Y408716D01*
G03X-994871Y394415I0J-61214D01*
G03X-1035891Y410192I-41020J-45437D01*
G01X-1095891Y410192D01*
G03X-1157105Y348978I0J-61214D01*
G01X-1157105Y288978D01*
G03X-1155052Y273258I61214J0D01*
G03X-1157105Y257538I59161J-15720D01*
G01X-1157105Y224588D01*
G01X-1213351Y224588D01*
G03X-1274565Y163374I0J-61214D01*
G01X-1274565Y152614D01*
G01X-1300977Y126201D01*
G01X-1344162Y126201D01*
G03X-1405376Y64987I0J-61214D01*
G01X-1405376Y34987D01*
G03X-1404719Y26044I61214J0D01*
G03X-1405376Y17100I60557J-8944D01*
G01X-1405376Y-17100D01*
G03X-1344162Y-78314I61214J0D01*
G01X-1312429Y-78314D01*
G01X-1310662Y-78334D01*
G01X-1274374Y-78334D01*
G03X-1270665Y-79017I3708J9731D01*
G01X-570585Y-79017D01*
G01X-570585Y-373429D01*
G01X-1372156Y-373429D01*
G01X-1372156Y-293145D01*
G03X-1371755Y-284957I-83313J8187D01*
G03X-1372156Y-276770I-83714J0D01*
G01X-1372156Y-262910D01*
G03X-1377835Y-253635I-10414J0D01*
G03X-1379157Y-250539I-77633J-31323D01*
G03X-1420462Y-208914I-58795J-17037D01*
G03X-1484293Y-206362I-35007J-76043D01*
G01X-1517953Y-206362D01*
G03X-1541842Y-211216I0J-61214D01*
G01X-1541842Y-175955D01*
G03X-1545658Y-154683I-61214J0D01*
G03X-1543534Y-138701I-59091J15982D01*
G01X-1543534Y-79003D01*
G03X-1540209Y-78334I-363J10408D01*
G01X-1511502Y-78334D01*
G01X-1511082Y-78333D01*
G01X-1508900Y-78314D01*
G01X-1477161Y-78314D01*
G03X-1415947Y-17100I0J61214D01*
G01X-1415947Y17100D01*
G03X-1416604Y26044I-61214J0D01*
G03X-1415947Y34987I-60557J8944D01*
G01X-1415947Y64987D01*
G03X-1477161Y126201I-61214J0D01*
G01X-1498188Y126201D01*
G01X-1498188Y162153D01*
G03X-1501215Y182324I-68714J0D01*
G01X-1501215Y217680D01*
G03X-1562429Y278894I-61214J0D01*
G01X-1622429Y278894D01*
G03X-1683643Y217680I0J-61214D01*
G01X-1683643Y157680D01*
G03X-1635616Y97903I61214J0D01*
G01X-1635616Y79009D01*
G01X-2222128Y79009D01*
G01X-2224134Y78814D01*
G01X-2224134Y166740D01*
G01X-2215771Y175103D01*
G03X-2171353Y316697I-14777J82400D01*
G03X-2312948Y272279I-59195J-59195D01*
G01X-2349136Y236090D01*
G03X-2354153Y230492I48588J-48588D01*
G01X-2381145Y257485D01*
G03X-2521780Y302847I-82400J-14777D01*
G03X-2480962Y160826I58236J-60139D01*
G01X-2480962Y78916D01*
G01X-2569144Y78916D01*
G03X-2624555Y114114I-55411J-26016D01*
G01X-2684555Y114114D01*
G03X-2739965Y78916I0J-61214D01*
G01X-2759136Y78916D01*
G03X-2814547Y114114I-55411J-26016D01*
G01X-2874547Y114114D01*
G03X-2929957Y78916I0J-61214D01*
G01X-3350134Y78916D01*
G01X-3350134Y247502D01*
G03X-3360548Y257916I-10414J0D01*
G01X-3364554Y257916D01*
G03X-3450549Y318716I-85994J-30414D01*
G03X-3536543Y257916I0J-91214D01*
G01X-3557088Y257916D01*
G03X-3567502Y247502I0J-10414D01*
G01X-3567502Y78916D01*
G37*
%LPC*%
G36*
G01X-2922868Y423089D02*
G01X-2922868Y388889D01*
G01X-2922861Y387923D01*
G01X-2922861Y308690D01*
G03X-3084263Y277502I-77688J-31188D01*
G03X-2922861Y246315I83714J0D01*
G01X-2922861Y224713D01*
G03X-2861647Y163499I61214J0D01*
G01X-2827447Y163499D01*
G03X-2766233Y224713I0J61214D01*
G01X-2766233Y393289D01*
G01X-2766240Y394381D01*
G01X-2766240Y423089D01*
G03X-2776518Y457039I-61214J0D01*
G03X-2769941Y470029I-50937J33950D01*
G03X-2636313Y467805I67653J49307D01*
G03X-2670834Y596916I-65975J51530D01*
G01X-2670834Y620207D01*
G03X-2732048Y681421I-61214J0D01*
G01X-2757049Y681421D01*
G03X-2769555Y680129I0J-61214D01*
G03X-2782060Y681421I-12506J-59923D01*
G01X-2807061Y681421D01*
G03X-2817255Y680566I0J-61214D01*
G03X-2827448Y681421I-10193J-60359D01*
G01X-2861648Y681421D01*
G03X-2871854Y680564I0J-61214D01*
G03X-2882060Y681421I-10206J-60357D01*
G01X-2907061Y681421D01*
G03X-2945222Y668070I0J-61214D01*
G01X-3116586Y668070D01*
G01X-3204676Y756160D01*
G01X-3204676Y796352D01*
G03X-3200549Y796213I4127J61075D01*
G01X-3140549Y796213D01*
G03X-3117637Y800662I0J61214D01*
G03X-3094725Y796213I22912J56764D01*
G01X-3034725Y796213D01*
G03X-3005436Y803674I0J61214D01*
G03X-2976148Y796213I29288J53753D01*
G01X-2968275Y796213D01*
G01X-2968275Y758098D01*
G03X-2907061Y696884I61214J0D01*
G01X-2882060Y696884D01*
G03X-2871854Y697741I0J61214D01*
G03X-2861648Y696884I10206J60357D01*
G01X-2827448Y696884D01*
G03X-2817255Y697739I0J61214D01*
G03X-2807061Y696884I10193J60359D01*
G01X-2782060Y696884D01*
G03X-2769555Y698175I0J61214D01*
G03X-2757049Y696884I12506J59923D01*
G01X-2732048Y696884D01*
G03X-2670834Y758098I0J61214D01*
G01X-2670834Y810199D01*
G03X-2732048Y871413I-61214J0D01*
G01X-2757049Y871413D01*
G03X-2766234Y870719I0J-61214D01*
G01X-2766234Y942459D01*
G03X-2777227Y977459I-61214J0D01*
G03X-2766234Y1012459I-50221J35000D01*
G01X-2766234Y1072459D01*
G01X-2766240Y1073340D01*
G01X-2766240Y1153506D01*
G03X-2811349Y1212563I-61214J0D01*
G03X-2797056Y1215656I-5705J60948D01*
G03X-2777059Y1212297I19997J57855D01*
G01X-2722058Y1212297D01*
G03X-2702060Y1215656I0J61214D01*
G03X-2694182Y1213509I19997J57855D01*
G03X-2743277Y1153506I12119J-60002D01*
G01X-2743277Y1033506D01*
G03X-2682063Y972292I61214J0D01*
G01X-2627062Y972292D01*
G03X-2565848Y1033506I0J61214D01*
G01X-2565848Y1085506D01*
G03X-2564833Y1098499I-82700J12993D01*
G03X-2565848Y1111492I-83714J0D01*
G01X-2565848Y1153506D01*
G03X-2614943Y1213509I-61214J0D01*
G03X-2565848Y1273511I-12119J60002D01*
G01X-2565848Y1393511D01*
G03X-2627062Y1454725I-61214J0D01*
G01X-2682063Y1454725D01*
G03X-2702060Y1451366I0J-61214D01*
G03X-2722058Y1454725I-19997J-57855D01*
G01X-2777059Y1454725D01*
G03X-2797056Y1451366I0J-61214D01*
G03X-2817054Y1454725I-19997J-57855D01*
G01X-2872055Y1454725D01*
G03X-2931535Y1407978I0J-61214D01*
G03X-2978121Y1429482I-46586J-39710D01*
G01X-3068121Y1429482D01*
G03X-3097553Y1421942I0J-61214D01*
G03X-3125549Y1428719I-27996J-54437D01*
G01X-3215549Y1428719D01*
G03X-3276763Y1367505I0J-61214D01*
G01X-3276763Y1325539D01*
G01X-3277199Y1325102D01*
G03X-3446261Y1248977I-67853J-75101D01*
G03X-3275695Y1176287I101209J1023D01*
G01X-3248053Y1176287D01*
G03X-3195929Y1197877I0J73714D01*
G01X-3167515Y1226291D01*
G01X-3125549Y1226291D01*
G03X-3096117Y1233831I0J61214D01*
G03X-3068121Y1227054I27996J54437D01*
G01X-2978121Y1227054D01*
G03X-2929176Y1251504I0J61214D01*
G03X-2877760Y1212563I57121J22007D01*
G03X-2922868Y1153506I16106J-59057D01*
G01X-2922868Y1033506D01*
G01X-2922862Y1032625D01*
G01X-2922862Y1012459D01*
G03X-2912604Y978538I61214J0D01*
G03X-2916148Y978640I-3544J-61111D01*
G01X-2976148Y978640D01*
G03X-3005436Y971179I0J-61214D01*
G03X-3034725Y978640I-29288J-53753D01*
G01X-3094725Y978640D01*
G03X-3117637Y974191I0J-61214D01*
G03X-3140549Y978640I-22912J-56764D01*
G01X-3200549Y978640D01*
G03X-3249035Y954792I0J-61214D01*
G03X-3270884Y939692I30416J-67366D01*
G01X-3329561Y881015D01*
G03X-3380549Y901417I-50988J-53512D01*
G01X-3447101Y901417D01*
G03X-3591763Y827503I-53448J-73914D01*
G03X-3447101Y753589I91214J0D01*
G01X-3417104Y753589D01*
G01X-3417104Y730843D01*
G03X-3355890Y669629I61214J0D01*
G01X-3327205Y669629D01*
G01X-3199467Y541891D01*
G03X-3147202Y520242I52265J52265D01*
G01X-2945222Y520242D01*
G03X-2922868Y508968I38160J47864D01*
G01X-2922868Y490989D01*
G03X-2912591Y457039I61214J0D01*
G03X-2922868Y423089I50937J-33950D01*
G37*
G36*
G01X-2444249Y1267504D02*
G03X-2241821Y1267504I101214J0D01*
G03X-2444249Y1267504I-101214J0D01*
G37*
G36*
G01X-2034262Y1297503D02*
G03X-1846834Y1297503I93714J0D01*
G03X-2034262Y1297503I-93714J0D01*
G37*
G36*
G01X-2029262Y447874D02*
G03X-1861834Y447874I83714J0D01*
G03X-2029262Y447874I-83714J0D01*
G37*
G36*
G01X-1804262Y398503D02*
G03X-1636834Y398503I83714J0D01*
G03X-1804262Y398503I-83714J0D01*
G37*
G36*
G01X-1657108Y1475581D02*
G03X-1718322Y1414367I0J-61214D01*
G01X-1718322Y1114368D01*
G03X-1657108Y1053154I61214J0D01*
G01X-1557108Y1053154D01*
G03X-1495894Y1114368I0J61214D01*
G01X-1495894Y1414367D01*
G03X-1557108Y1475581I-61214J0D01*
G01X-1657108Y1475581D01*
G37*
G36*
G01X-873822Y1180500D02*
G03X-845283Y1198238I-23725J70003D01*
G01X-818282Y1225238D01*
G03X-808597Y1237186I-52265J52265D01*
G03X-812223Y1380855I-61950J70317D01*
G03X-953015Y1352017I-58325J-73352D01*
G01X-1013748Y1352017D01*
G03X-1074962Y1290803I0J-61214D01*
G01X-1074962Y1210203D01*
G03X-1048068Y1159515I61214J0D01*
G03X-1067980Y1137217I34320J-50688D01*
G01X-1098986Y1137217D01*
G03X-1147574Y1117091I0J-68714D01*
G01X-1258435Y1006231D01*
G03X-1303108Y1025595I-44674J-41850D01*
G01X-1403108Y1025595D01*
G03X-1464322Y964381I0J-61214D01*
G01X-1464322Y664381D01*
G03X-1420478Y605683I61214J0D01*
G03X-1393749Y443850I29930J-78181D01*
G03X-1354730Y603167I3201J83653D01*
G01X-1303108Y603167D01*
G03X-1241894Y664381I0J61214D01*
G01X-1241894Y828419D01*
G01X-1070524Y999789D01*
G01X-1067980Y999789D01*
G03X-1013748Y966965I54232J28390D01*
G01X-927347Y966965D01*
G03X-866133Y1028179I0J61214D01*
G01X-866133Y1108827D01*
G03X-893027Y1159515I-61214J0D01*
G03X-873822Y1180500I-34320J50688D01*
G37*
G36*
G01X-1341761Y1257503D02*
G03X-1139334Y1257503I101214J0D01*
G03X-1341761Y1257503I-101214J0D01*
G37*
G36*
G01X-544261Y607503D02*
G03X-376833Y607503I83714J0D01*
G03X-544261Y607503I-83714J0D01*
G37*
%LPD*%
G36*
G01X-4085075Y-2359160D02*
G01X-4085075Y-79102D01*
G01X-2479531Y-79102D01*
G01X-2479531Y-332498D01*
G03X-2469117Y-342912I10414J0D01*
G01X-2379557Y-342912D01*
G01X-2379557Y-402498D01*
G03X-2378783Y-406438I10414J0D01*
G01X-2378660Y-408395D01*
G01X-2378567Y-429620D01*
G03X-2360639Y-472638I61213J266D01*
G01X-2320639Y-512638D01*
G03X-2277354Y-530567I43285J43285D01*
G01X-2274782Y-530567D01*
G03X-2270594Y-531447I4188J9535D01*
G01X-1380431Y-531447D01*
G03X-1380964Y-539505I60681J-8058D01*
G01X-1380964Y-564506D01*
G03X-1319750Y-625720I61214J0D01*
G01X-1267649Y-625720D01*
G03X-1206435Y-564506I0J61214D01*
G01X-1206435Y-539505D01*
G03X-1206968Y-531447I-61214J0D01*
G01X-967884Y-531447D01*
G01X-967884Y-923840D01*
G03X-957470Y-934254I10414J0D01*
G01X-772130Y-934254D01*
G03X-761716Y-923840I0J10414D01*
G01X-761716Y-531447D01*
G01X-559135Y-531447D01*
G03X-555252Y-530696I0J10414D01*
G01X-514285Y-530517D01*
G03X-471267Y-512589I-266J61213D01*
G01X-431267Y-472589D01*
G03X-413338Y-429304I-43285J43285D01*
G01X-413338Y-410114D01*
G03X-413262Y-406660I-78238J3454D01*
G01X-413262Y-384421D01*
G03X-412567Y-380681I-9719J3741D01*
G01X-412567Y-340890D01*
G03X-408701Y-341012I3865J61092D01*
G01X-374501Y-341012D01*
G03X-367643Y-340627I0J61214D01*
G01X-323401Y-340627D01*
G03X-312987Y-330213I0J10414D01*
G01X-312987Y-128383D01*
G01X-313287Y-125900D01*
G01X-313287Y-79005D01*
G01X-313017Y-79009D01*
G01X143297Y-79009D01*
G01X143297Y-2359160D01*
G02X-120889Y-2623346I-264186J0D01*
G01X-3820889Y-2623346D01*
G02X-4085075Y-2359160I0J264186D01*
G37*
%LPC*%
G36*
G01X-3918767Y-1170001D02*
G03X-3751339Y-1170001I83714J0D01*
G03X-3918767Y-1170001I-83714J0D01*
G37*
G36*
G01X-3574492Y-628620D02*
G01X-3654492Y-628620D01*
G03X-3715706Y-689834I0J-61214D01*
G01X-3715706Y-769834D01*
G03X-3654492Y-831048I61214J0D01*
G01X-3574492Y-831048D01*
G03X-3534148Y-815871I0J61214D01*
G03X-3494599Y-830362I39548J46723D01*
G01X-3414599Y-830362D01*
G03X-3353385Y-769148I0J61214D01*
G01X-3353385Y-689148D01*
G03X-3414599Y-627934I-61214J0D01*
G01X-3494599Y-627934D01*
G03X-3534944Y-643111I0J-61214D01*
G03X-3574492Y-628620I-39548J-46723D01*
G37*
G36*
G01X-3207882Y-2299296D02*
G03X-3260433Y-2234390I-82666J-13203D01*
G03X-3297580Y-2058822I-34620J84389D01*
G03X-3324945Y-2236178I2527J-91179D01*
G03X-3349149Y-2372282I34396J-76321D01*
G03X-3213555Y-2345364I58600J59783D01*
G03X-3127236Y-2415795I82666J13203D01*
G03X-2978842Y-2442729I80689J22300D01*
G03X-3050200Y-2309860I-67705J49235D01*
G03X-3207882Y-2299296I-80689J-22300D01*
G37*
G36*
G01X-2995708Y-1253180D02*
G03X-2872345Y-1167061I40655J73179D01*
G03X-2864398Y-1016821I-32708J77060D01*
G03X-2987761Y-1102941I-40655J-73179D01*
G03X-2995708Y-1253180I32708J-77060D01*
G37*
G36*
G01X-2760602Y-2123365D02*
G01X-2680602Y-2123365D01*
G03X-2619388Y-2062151I0J61214D01*
G01X-2619388Y-2033018D01*
G03X-2616834Y-2012499I-81160J20519D01*
G03X-2619388Y-1991980I-83714J0D01*
G01X-2619388Y-1982151D01*
G03X-2680602Y-1920937I-61214J0D01*
G01X-2760602Y-1920937D01*
G03X-2800947Y-1936113I0J-61214D01*
G03X-2840495Y-1921623I-39548J-46723D01*
G01X-2920495Y-1921623D01*
G03X-2981709Y-1982837I0J-61214D01*
G01X-2981709Y-2062837D01*
G03X-2953158Y-2114608I61214J0D01*
G03X-2872793Y-2224205I79611J-25887D01*
G03X-2794415Y-2113179I-754J83711D01*
G03X-2760602Y-2123365I33813J51028D01*
G37*
G36*
G01X-2886517Y-533639D02*
G03X-2736741Y-602595I80964J-21282D01*
G03X-2572415Y-616202I83362J7675D01*
G03X-2722191Y-547245I-80964J21282D01*
G03X-2886517Y-533639I-83362J-7675D01*
G37*
G36*
G01X-2844918Y-1364563D02*
G03X-2716902Y-1290228I44368J70989D01*
G03X-2681262Y-1166592I-33647J76654D01*
G03X-2633112Y-1072859I-33790J76592D01*
G03X-2589436Y-927432I-11940J82858D01*
G03X-2637620Y-777468I-51110J66301D01*
G03X-2696162Y-923700I-2926J-83663D01*
G03X-2726993Y-1007142I51110J-66301D01*
G03X-2784340Y-1136982I11940J-82858D01*
G03X-2834197Y-1216920I33790J-76592D01*
G03X-2844918Y-1364563I33647J-76654D01*
G37*
G36*
G01X-2868766Y-380000D02*
G03X-2701338Y-380000I83714J0D01*
G03X-2868766Y-380000I-83714J0D01*
G37*
G36*
G01X-2724180Y-1589763D02*
G03X-2556752Y-1589763I83714J0D01*
G03X-2724180Y-1589763I-83714J0D01*
G37*
G36*
G01X-2594129Y-463221D02*
G03X-2517117Y-331084I9076J83221D01*
G03X-2563834Y-185452I-55794J62411D01*
G03X-2640846Y-317590I-9076J-83221D01*
G03X-2594129Y-463221I55794J-62411D01*
G37*
G36*
G01X-2548766Y-840000D02*
G03X-2381338Y-840000I83714J0D01*
G03X-2548766Y-840000I-83714J0D01*
G37*
G36*
G01X-2465495Y-1921623D02*
G03X-2526709Y-1982837I0J-61214D01*
G01X-2526709Y-2062837D01*
G03X-2498884Y-2114143I61214J0D01*
G03X-2433013Y-2246177I68336J-48356D01*
G03X-2359484Y-2118250I2465J83678D01*
G03X-2345150Y-2108874I-26011J55413D01*
G03X-2305602Y-2123365I39548J46723D01*
G01X-2225602Y-2123365D01*
G03X-2164388Y-2062151I0J61214D01*
G01X-2164388Y-1982151D01*
G03X-2225602Y-1920937I-61214J0D01*
G01X-2234934Y-1920937D01*
G01X-2258148Y-1897722D01*
G03X-2352505Y-1829643I-82400J-14777D01*
G03X-2423763Y-1921623I11957J-82856D01*
G01X-2465495Y-1921623D01*
G37*
G36*
G01X-2454262Y-1552499D02*
G03X-2286834Y-1552499I83714J0D01*
G03X-2454262Y-1552499I-83714J0D01*
G37*
G36*
G01X-2285355Y-866854D02*
G03X-2278440Y-972710I68086J-48706D01*
G03X-2288301Y-1074160I61171J-57150D01*
G03X-2294002Y-1165040I67262J-49838D01*
G03X-2213375Y-1207360I72963J41042D01*
G03X-2064728Y-1215179I76336J34363D01*
G03X-2144702Y-1089635I-72310J42181D01*
G03X-2150007Y-1079698I-76336J-34363D01*
G03X-2156098Y-972710I-67262J49838D01*
G03X-2162463Y-852280I-61171J57150D01*
G03X-2146903Y-800222I-68086J48706D01*
G03X-2173890Y-662302I-58150J60222D01*
G03X-2288699Y-743352I-31162J-77698D01*
G03X-2285355Y-866854I58150J-60222D01*
G37*
G36*
G01X-2201138Y-1679197D02*
G03X-2068862Y-1594185I50590J66698D01*
G03X-1967765Y-1524952I18314J81686D01*
G03X-1954168Y-1516475I-37287J74952D01*
G03X-1901013Y-1590473I83620J3976D01*
G03X-1783431Y-1688610I80463J-23101D01*
G03X-1790084Y-1535600I-37118J75035D01*
G03X-1788960Y-1531244I-80463J23101D01*
G03X-1678663Y-1469903I28412J78745D01*
G03X-1627911Y-1405888I-31885J77404D01*
G03X-1540071Y-1345554I7364J83390D01*
G03X-1469900Y-1284949I-10476J83056D01*
G03X-1498661Y-1196803I-80647J22451D01*
G03X-1459294Y-1178674I-18454J91879D01*
G01X-1362114Y-1178674D01*
G03X-1300900Y-1117460I0J61214D01*
G01X-1300900Y-1017460D01*
G03X-1302615Y-1003070I-61214J0D01*
G03X-1357043Y-892152I-77932J30572D01*
G03X-1462669Y-956246I-23505J-80346D01*
G01X-1613817Y-956246D01*
G03X-1741387Y-898194I-82752J-12654D01*
G03X-1743327Y-1038339I44818J-70706D01*
G01X-1743327Y-1117460D01*
G03X-1682113Y-1178674I61214J0D01*
G01X-1574936Y-1178674D01*
G03X-1571287Y-1181394I57821J73750D01*
G03X-1631024Y-1239443I20740J-81104D01*
G03X-1703184Y-1309109I10476J-83056D01*
G03X-1754594Y-1321308I-7364J-83390D01*
G03X-1865049Y-1320030I-55956J-62266D01*
G03X-1880612Y-1429392I54500J-63544D01*
G03X-1902137Y-1434973I10064J-83107D01*
G03X-1921433Y-1446025I31589J-77526D01*
G03X-2031340Y-1370521I-83620J-3976D01*
G03X-2142178Y-1290803I-83712J520D01*
G03X-2180867Y-1421735I27126J-79198D01*
G03X-2188035Y-1480190I74198J-38765D01*
G03X-2154934Y-1528900I81366J19690D01*
G03X-2201138Y-1679197I4386J-83599D01*
G37*
G36*
G01X-1930494Y-1921623D02*
G01X-2010494Y-1921623D01*
G03X-2071708Y-1982837I0J-61214D01*
G01X-2071708Y-2062837D01*
G03X-2010494Y-2124051I61214J0D01*
G01X-1930494Y-2124051D01*
G03X-1890150Y-2108874I0J61214D01*
G03X-1850601Y-2123365I39548J46723D01*
G01X-1818364Y-2123365D01*
G03X-1681465Y-2151805I77816J30866D01*
G03X-1709387Y-2014800I-59083J59307D01*
G01X-1709387Y-1982151D01*
G03X-1770601Y-1920937I-61214J0D01*
G01X-1850601Y-1920937D01*
G03X-1890946Y-1936113I0J-61214D01*
G03X-1930494Y-1921623I-39548J-46723D01*
G37*
G36*
G01X-2041903Y-1169560D02*
G03X-1874475Y-1169560I83714J0D01*
G03X-2041903Y-1169560I-83714J0D01*
G37*
G36*
G01X-1300900Y-1892160D02*
G01X-1300900Y-1792160D01*
G03X-1362114Y-1730946I-61214J0D01*
G01X-1682113Y-1730946D01*
G03X-1743327Y-1792160I0J-61214D01*
G01X-1743327Y-1892160D01*
G03X-1682113Y-1953374I61214J0D01*
G01X-1531111Y-1953374D01*
G03X-1349844Y-1952132I90563J10876D01*
G03X-1300900Y-1892160I-12270J59972D01*
G37*
G36*
G01X-1063318Y-1117460D02*
G03X-1002104Y-1178674I61214J0D01*
G01X-682105Y-1178674D01*
G03X-620891Y-1117460I0J61214D01*
G01X-620891Y-1017460D01*
G03X-682105Y-956246I-61214J0D01*
G01X-1002104Y-956246D01*
G03X-1063318Y-1017460I0J-61214D01*
G01X-1063318Y-1117460D01*
G37*
G36*
G01X-1063318Y-1892160D02*
G03X-1002104Y-1953374I61214J0D01*
G01X-682105Y-1953374D01*
G03X-620891Y-1892160I0J61214D01*
G01X-620891Y-1792160D01*
G03X-682105Y-1730946I-61214J0D01*
G01X-1002104Y-1730946D01*
G03X-1063318Y-1792160I0J-61214D01*
G01X-1063318Y-1892160D01*
G37*
G36*
G01X-210025Y-1563712D02*
G01X-164547Y-1563712D01*
G03X-103333Y-1502498I0J61214D01*
G01X-103333Y-1472498D01*
G03X-104156Y-1462498I-61214J0D01*
G03X-103546Y-1457591I-60392J10000D01*
G03X-57684Y-1394407I-37001J75093D01*
G03X-20219Y-1298929I-42863J71908D01*
G03X-103333Y-1238831I-80328J-23570D01*
G01X-103333Y-1222499D01*
G03X-164547Y-1161285I-61214J0D01*
G01X-171834Y-1161285D01*
G03X-260547Y-1091284I-88713J-21214D01*
G03X-349260Y-1161285I0J-91214D01*
G01X-416547Y-1161285D01*
G03X-477761Y-1222499I0J-61214D01*
G01X-477761Y-1252499D01*
G03X-476938Y-1262499I61214J0D01*
G03X-477761Y-1272499I60392J-10000D01*
G01X-477761Y-1297362D01*
G01X-492103Y-1311704D01*
G03X-512961Y-1362060I50356J-50356D01*
G01X-512961Y-1387223D01*
G03X-540655Y-1476806I52414J-65275D01*
G03X-467849Y-1535894I80107J24308D01*
G03X-416547Y-1563712I51302J33395D01*
G01X-391069Y-1563712D01*
G03X-210025Y-1563712I90522J11214D01*
G37*
G36*
G01X-196233Y-987499D02*
G03X-384861Y-987499I-94314J0D01*
G03X-196233Y-987499I94314J0D01*
G37*
G36*
G01X-224733Y-1737498D02*
G03X-356361Y-1737498I-65814J0D01*
G03X-224733Y-1737498I65814J0D01*
G37*
%LPD*%
G36*
G01X-2366813Y16291D02*
G01X-2365535Y16278D01*
G01X-2335535Y16278D01*
G01X-2334258Y16291D01*
G01X-2334258Y-16291D01*
G01X-2335535Y-16278D01*
G01X-2365535Y-16278D01*
G01X-2366813Y-16291D01*
G01X-2366813Y16291D01*
G37*
G36*
G01X-2221539Y-79009D02*
G01X-1822080Y-79009D01*
G01X-1822091Y-80177D01*
G01X-1822091Y-140177D01*
G03X-1821306Y-149953I61214J0D01*
G03X-1827103Y-175955I55417J-26003D01*
G01X-1827103Y-235955D01*
G03X-1765889Y-297169I61214J0D01*
G01X-1705889Y-297169D01*
G03X-1684473Y-293300I0J61214D01*
G03X-1663056Y-297169I21416J57345D01*
G01X-1603056Y-297169D01*
G03X-1579354Y-292394I0J61214D01*
G01X-1579354Y-373429D01*
G01X-2221539Y-373429D01*
G01X-2221539Y-79009D01*
G37*
G36*
G01X-457866Y16291D02*
G01X-456588Y16278D01*
G01X-426588Y16278D01*
G01X-425311Y16291D01*
G01X-425311Y-16291D01*
G01X-426588Y-16278D01*
G01X-456588Y-16278D01*
G01X-457866Y-16291D01*
G01X-457866Y16291D01*
G37*
G54D10*
G01X-3567502Y78916D02*
G01X-4085075Y78916D01*
G01X-4085075Y1340840D01*
G02X-3820889Y1605026I264186J0D01*
G01X-120889Y1605026D01*
G02X143297Y1340840I0J-264186D01*
G01X143297Y79009D01*
G01X-310694Y79009D01*
G01X-310694Y168002D01*
G03X-313850Y175470I-10414J0D01*
G03X-257531Y298449I-16697J82032D01*
G03X-391833Y314529I-73016J-40947D01*
G01X-391833Y380686D01*
G03X-460547Y512217I-68714J47817D01*
G03X-529261Y380686I0J-83714D01*
G01X-529261Y185147D01*
G03X-541714Y178416I22686J-56855D01*
G01X-557108Y178416D01*
G03X-567522Y168002I0J-10414D01*
G01X-567522Y134008D01*
G03X-567790Y128292I60947J-5716D01*
G01X-567790Y78716D01*
G01X-570212Y79001D01*
G01X-980795Y79001D01*
G01X-980795Y131600D01*
G03X-987684Y159812I-61214J0D01*
G03X-974677Y197538I-48207J37726D01*
G01X-974677Y229354D01*
G03X-955547Y226289I19130J58148D01*
G01X-895547Y226289D01*
G03X-834333Y287503I0J61214D01*
G01X-834333Y306999D01*
G03X-802848Y447156I-26214J79504D01*
G03X-941260Y408716I-57699J-60654D01*
G01X-955547Y408716D01*
G03X-994871Y394415I0J-61214D01*
G03X-1035891Y410192I-41020J-45437D01*
G01X-1095891Y410192D01*
G03X-1157105Y348978I0J-61214D01*
G01X-1157105Y288978D01*
G03X-1155052Y273258I61214J0D01*
G03X-1157105Y257538I59161J-15720D01*
G01X-1157105Y224588D01*
G01X-1213351Y224588D01*
G03X-1274565Y163374I0J-61214D01*
G01X-1274565Y152614D01*
G01X-1300977Y126201D01*
G01X-1344162Y126201D01*
G03X-1405376Y64987I0J-61214D01*
G01X-1405376Y34987D01*
G03X-1404719Y26044I61214J0D01*
G03X-1405376Y17100I60557J-8944D01*
G01X-1405376Y-17100D01*
G03X-1344162Y-78314I61214J0D01*
G01X-1312429Y-78314D01*
G01X-1310662Y-78334D01*
G01X-1274374Y-78334D01*
G03X-1270665Y-79017I3708J9731D01*
G01X-570585Y-79017D01*
G01X-570585Y-373429D01*
G01X-1372156Y-373429D01*
G01X-1372156Y-293145D01*
G03X-1371755Y-284957I-83313J8187D01*
G03X-1372156Y-276770I-83714J0D01*
G01X-1372156Y-262910D01*
G03X-1377835Y-253635I-10414J0D01*
G03X-1379157Y-250539I-77633J-31323D01*
G03X-1420462Y-208914I-58795J-17037D01*
G03X-1484293Y-206362I-35007J-76043D01*
G01X-1517953Y-206362D01*
G03X-1541842Y-211216I0J-61214D01*
G01X-1541842Y-175955D01*
G03X-1545658Y-154683I-61214J0D01*
G03X-1543534Y-138701I-59091J15982D01*
G01X-1543534Y-79003D01*
G03X-1540209Y-78334I-363J10408D01*
G01X-1511502Y-78334D01*
G01X-1511082Y-78333D01*
G01X-1508900Y-78314D01*
G01X-1477161Y-78314D01*
G03X-1415947Y-17100I0J61214D01*
G01X-1415947Y17100D01*
G03X-1416604Y26044I-61214J0D01*
G03X-1415947Y34987I-60557J8944D01*
G01X-1415947Y64987D01*
G03X-1477161Y126201I-61214J0D01*
G01X-1498188Y126201D01*
G01X-1498188Y162153D01*
G03X-1501215Y182324I-68714J0D01*
G01X-1501215Y217680D01*
G03X-1562429Y278894I-61214J0D01*
G01X-1622429Y278894D01*
G03X-1683643Y217680I0J-61214D01*
G01X-1683643Y157680D01*
G03X-1635616Y97903I61214J0D01*
G01X-1635616Y79009D01*
G01X-2222128Y79009D01*
G01X-2224134Y78814D01*
G01X-2224134Y166740D01*
G01X-2215771Y175103D01*
G03X-2171353Y316697I-14777J82400D01*
G03X-2312948Y272279I-59195J-59195D01*
G01X-2349136Y236090D01*
G03X-2354153Y230492I48588J-48588D01*
G01X-2381145Y257485D01*
G03X-2521780Y302847I-82400J-14777D01*
G03X-2480962Y160826I58236J-60139D01*
G01X-2480962Y78916D01*
G01X-2569144Y78916D01*
G03X-2624555Y114114I-55411J-26016D01*
G01X-2684555Y114114D01*
G03X-2739965Y78916I0J-61214D01*
G01X-2759136Y78916D01*
G03X-2814547Y114114I-55411J-26016D01*
G01X-2874547Y114114D01*
G03X-2929957Y78916I0J-61214D01*
G01X-3350134Y78916D01*
G01X-3350134Y247502D01*
G03X-3360548Y257916I-10414J0D01*
G01X-3364554Y257916D01*
G03X-3450549Y318716I-85994J-30414D01*
G03X-3536543Y257916I0J-91214D01*
G01X-3557088Y257916D01*
G03X-3567502Y247502I0J-10414D01*
G01X-3567502Y78916D01*
G01X-2922868Y423089D02*
G01X-2922868Y388889D01*
G01X-2922861Y387923D01*
G01X-2922861Y308690D01*
G03X-3084263Y277502I-77688J-31188D01*
G03X-2922861Y246315I83714J0D01*
G01X-2922861Y224713D01*
G03X-2861647Y163499I61214J0D01*
G01X-2827447Y163499D01*
G03X-2766233Y224713I0J61214D01*
G01X-2766233Y393289D01*
G01X-2766240Y394381D01*
G01X-2766240Y423089D01*
G03X-2776518Y457039I-61214J0D01*
G03X-2769941Y470029I-50937J33950D01*
G03X-2636313Y467805I67653J49307D01*
G03X-2670834Y596916I-65975J51530D01*
G01X-2670834Y620207D01*
G03X-2732048Y681421I-61214J0D01*
G01X-2757049Y681421D01*
G03X-2769555Y680129I0J-61214D01*
G03X-2782060Y681421I-12506J-59923D01*
G01X-2807061Y681421D01*
G03X-2817255Y680566I0J-61214D01*
G03X-2827448Y681421I-10193J-60359D01*
G01X-2861648Y681421D01*
G03X-2871854Y680564I0J-61214D01*
G03X-2882060Y681421I-10206J-60357D01*
G01X-2907061Y681421D01*
G03X-2945222Y668070I0J-61214D01*
G01X-3116586Y668070D01*
G01X-3204676Y756160D01*
G01X-3204676Y796352D01*
G03X-3200549Y796213I4127J61075D01*
G01X-3140549Y796213D01*
G03X-3117637Y800662I0J61214D01*
G03X-3094725Y796213I22912J56764D01*
G01X-3034725Y796213D01*
G03X-3005436Y803674I0J61214D01*
G03X-2976148Y796213I29288J53753D01*
G01X-2968275Y796213D01*
G01X-2968275Y758098D01*
G03X-2907061Y696884I61214J0D01*
G01X-2882060Y696884D01*
G03X-2871854Y697741I0J61214D01*
G03X-2861648Y696884I10206J60357D01*
G01X-2827448Y696884D01*
G03X-2817255Y697739I0J61214D01*
G03X-2807061Y696884I10193J60359D01*
G01X-2782060Y696884D01*
G03X-2769555Y698175I0J61214D01*
G03X-2757049Y696884I12506J59923D01*
G01X-2732048Y696884D01*
G03X-2670834Y758098I0J61214D01*
G01X-2670834Y810199D01*
G03X-2732048Y871413I-61214J0D01*
G01X-2757049Y871413D01*
G03X-2766234Y870719I0J-61214D01*
G01X-2766234Y942459D01*
G03X-2777227Y977459I-61214J0D01*
G03X-2766234Y1012459I-50221J35000D01*
G01X-2766234Y1072459D01*
G01X-2766240Y1073340D01*
G01X-2766240Y1153506D01*
G03X-2811349Y1212563I-61214J0D01*
G03X-2797056Y1215656I-5705J60948D01*
G03X-2777059Y1212297I19997J57855D01*
G01X-2722058Y1212297D01*
G03X-2702060Y1215656I0J61214D01*
G03X-2694182Y1213509I19997J57855D01*
G03X-2743277Y1153506I12119J-60002D01*
G01X-2743277Y1033506D01*
G03X-2682063Y972292I61214J0D01*
G01X-2627062Y972292D01*
G03X-2565848Y1033506I0J61214D01*
G01X-2565848Y1085506D01*
G03X-2564833Y1098499I-82700J12993D01*
G03X-2565848Y1111492I-83714J0D01*
G01X-2565848Y1153506D01*
G03X-2614943Y1213509I-61214J0D01*
G03X-2565848Y1273511I-12119J60002D01*
G01X-2565848Y1393511D01*
G03X-2627062Y1454725I-61214J0D01*
G01X-2682063Y1454725D01*
G03X-2702060Y1451366I0J-61214D01*
G03X-2722058Y1454725I-19997J-57855D01*
G01X-2777059Y1454725D01*
G03X-2797056Y1451366I0J-61214D01*
G03X-2817054Y1454725I-19997J-57855D01*
G01X-2872055Y1454725D01*
G03X-2931535Y1407978I0J-61214D01*
G03X-2978121Y1429482I-46586J-39710D01*
G01X-3068121Y1429482D01*
G03X-3097553Y1421942I0J-61214D01*
G03X-3125549Y1428719I-27996J-54437D01*
G01X-3215549Y1428719D01*
G03X-3276763Y1367505I0J-61214D01*
G01X-3276763Y1325539D01*
G01X-3277199Y1325102D01*
G03X-3446261Y1248977I-67853J-75101D01*
G03X-3275695Y1176287I101209J1023D01*
G01X-3248053Y1176287D01*
G03X-3195929Y1197877I0J73714D01*
G01X-3167515Y1226291D01*
G01X-3125549Y1226291D01*
G03X-3096117Y1233831I0J61214D01*
G03X-3068121Y1227054I27996J54437D01*
G01X-2978121Y1227054D01*
G03X-2929176Y1251504I0J61214D01*
G03X-2877760Y1212563I57121J22007D01*
G03X-2922868Y1153506I16106J-59057D01*
G01X-2922868Y1033506D01*
G01X-2922862Y1032625D01*
G01X-2922862Y1012459D01*
G03X-2912604Y978538I61214J0D01*
G03X-2916148Y978640I-3544J-61111D01*
G01X-2976148Y978640D01*
G03X-3005436Y971179I0J-61214D01*
G03X-3034725Y978640I-29288J-53753D01*
G01X-3094725Y978640D01*
G03X-3117637Y974191I0J-61214D01*
G03X-3140549Y978640I-22912J-56764D01*
G01X-3200549Y978640D01*
G03X-3249035Y954792I0J-61214D01*
G03X-3270884Y939692I30416J-67366D01*
G01X-3329561Y881015D01*
G03X-3380549Y901417I-50988J-53512D01*
G01X-3447101Y901417D01*
G03X-3591763Y827503I-53448J-73914D01*
G03X-3447101Y753589I91214J0D01*
G01X-3417104Y753589D01*
G01X-3417104Y730843D01*
G03X-3355890Y669629I61214J0D01*
G01X-3327205Y669629D01*
G01X-3199467Y541891D01*
G03X-3147202Y520242I52265J52265D01*
G01X-2945222Y520242D01*
G03X-2922868Y508968I38160J47864D01*
G01X-2922868Y490989D01*
G03X-2912591Y457039I61214J0D01*
G03X-2922868Y423089I50937J-33950D01*
G01X-2444249Y1267504D02*
G03X-2241821Y1267504I101214J0D01*
G03X-2444249Y1267504I-101214J0D01*
G01X-2034262Y1297503D02*
G03X-1846834Y1297503I93714J0D01*
G03X-2034262Y1297503I-93714J0D01*
G01X-2029262Y447874D02*
G03X-1861834Y447874I83714J0D01*
G03X-2029262Y447874I-83714J0D01*
G01X-1804262Y398503D02*
G03X-1636834Y398503I83714J0D01*
G03X-1804262Y398503I-83714J0D01*
G01X-1657108Y1475581D02*
G03X-1718322Y1414367I0J-61214D01*
G01X-1718322Y1114368D01*
G03X-1657108Y1053154I61214J0D01*
G01X-1557108Y1053154D01*
G03X-1495894Y1114368I0J61214D01*
G01X-1495894Y1414367D01*
G03X-1557108Y1475581I-61214J0D01*
G01X-1657108Y1475581D01*
G01X-873822Y1180500D02*
G03X-845283Y1198238I-23725J70003D01*
G01X-818282Y1225238D01*
G03X-808597Y1237186I-52265J52265D01*
G03X-812223Y1380855I-61950J70317D01*
G03X-953015Y1352017I-58325J-73352D01*
G01X-1013748Y1352017D01*
G03X-1074962Y1290803I0J-61214D01*
G01X-1074962Y1210203D01*
G03X-1048068Y1159515I61214J0D01*
G03X-1067980Y1137217I34320J-50688D01*
G01X-1098986Y1137217D01*
G03X-1147574Y1117091I0J-68714D01*
G01X-1258435Y1006231D01*
G03X-1303108Y1025595I-44674J-41850D01*
G01X-1403108Y1025595D01*
G03X-1464322Y964381I0J-61214D01*
G01X-1464322Y664381D01*
G03X-1420478Y605683I61214J0D01*
G03X-1393749Y443850I29930J-78181D01*
G03X-1354730Y603167I3201J83653D01*
G01X-1303108Y603167D01*
G03X-1241894Y664381I0J61214D01*
G01X-1241894Y828419D01*
G01X-1070524Y999789D01*
G01X-1067980Y999789D01*
G03X-1013748Y966965I54232J28390D01*
G01X-927347Y966965D01*
G03X-866133Y1028179I0J61214D01*
G01X-866133Y1108827D01*
G03X-893027Y1159515I-61214J0D01*
G03X-873822Y1180500I-34320J50688D01*
G01X-1341761Y1257503D02*
G03X-1139334Y1257503I101214J0D01*
G03X-1341761Y1257503I-101214J0D01*
G01X-544261Y607503D02*
G03X-376833Y607503I83714J0D01*
G03X-544261Y607503I-83714J0D01*
G01X-4085075Y-2359160D02*
G01X-4085075Y-79102D01*
G01X-2479531Y-79102D01*
G01X-2479531Y-332498D01*
G03X-2469117Y-342912I10414J0D01*
G01X-2379557Y-342912D01*
G01X-2379557Y-402498D01*
G03X-2378783Y-406438I10414J0D01*
G01X-2378660Y-408395D01*
G01X-2378567Y-429620D01*
G03X-2360639Y-472638I61213J266D01*
G01X-2320639Y-512638D01*
G03X-2277354Y-530567I43285J43285D01*
G01X-2274782Y-530567D01*
G03X-2270594Y-531447I4188J9535D01*
G01X-1380431Y-531447D01*
G03X-1380964Y-539505I60681J-8058D01*
G01X-1380964Y-564506D01*
G03X-1319750Y-625720I61214J0D01*
G01X-1267649Y-625720D01*
G03X-1206435Y-564506I0J61214D01*
G01X-1206435Y-539505D01*
G03X-1206968Y-531447I-61214J0D01*
G01X-967884Y-531447D01*
G01X-967884Y-923840D01*
G03X-957470Y-934254I10414J0D01*
G01X-772130Y-934254D01*
G03X-761716Y-923840I0J10414D01*
G01X-761716Y-531447D01*
G01X-559135Y-531447D01*
G03X-555252Y-530696I0J10414D01*
G01X-514285Y-530517D01*
G03X-471267Y-512589I-266J61213D01*
G01X-431267Y-472589D01*
G03X-413338Y-429304I-43285J43285D01*
G01X-413338Y-410114D01*
G03X-413262Y-406660I-78238J3454D01*
G01X-413262Y-384421D01*
G03X-412567Y-380681I-9719J3741D01*
G01X-412567Y-340890D01*
G03X-408701Y-341012I3865J61092D01*
G01X-374501Y-341012D01*
G03X-367643Y-340627I0J61214D01*
G01X-323401Y-340627D01*
G03X-312987Y-330213I0J10414D01*
G01X-312987Y-128383D01*
G01X-313287Y-125900D01*
G01X-313287Y-79005D01*
G01X-313017Y-79009D01*
G01X143297Y-79009D01*
G01X143297Y-2359160D01*
G02X-120889Y-2623346I-264186J0D01*
G01X-3820889Y-2623346D01*
G02X-4085075Y-2359160I0J264186D01*
G01X-3918767Y-1170001D02*
G03X-3751339Y-1170001I83714J0D01*
G03X-3918767Y-1170001I-83714J0D01*
G01X-3574492Y-628620D02*
G01X-3654492Y-628620D01*
G03X-3715706Y-689834I0J-61214D01*
G01X-3715706Y-769834D01*
G03X-3654492Y-831048I61214J0D01*
G01X-3574492Y-831048D01*
G03X-3534148Y-815871I0J61214D01*
G03X-3494599Y-830362I39548J46723D01*
G01X-3414599Y-830362D01*
G03X-3353385Y-769148I0J61214D01*
G01X-3353385Y-689148D01*
G03X-3414599Y-627934I-61214J0D01*
G01X-3494599Y-627934D01*
G03X-3534944Y-643111I0J-61214D01*
G03X-3574492Y-628620I-39548J-46723D01*
G01X-3207882Y-2299296D02*
G03X-3260433Y-2234390I-82666J-13203D01*
G03X-3297580Y-2058822I-34620J84389D01*
G03X-3324945Y-2236178I2527J-91179D01*
G03X-3349149Y-2372282I34396J-76321D01*
G03X-3213555Y-2345364I58600J59783D01*
G03X-3127236Y-2415795I82666J13203D01*
G03X-2978842Y-2442729I80689J22300D01*
G03X-3050200Y-2309860I-67705J49235D01*
G03X-3207882Y-2299296I-80689J-22300D01*
G01X-2995708Y-1253180D02*
G03X-2872345Y-1167061I40655J73179D01*
G03X-2864398Y-1016821I-32708J77060D01*
G03X-2987761Y-1102941I-40655J-73179D01*
G03X-2995708Y-1253180I32708J-77060D01*
G01X-2760602Y-2123365D02*
G01X-2680602Y-2123365D01*
G03X-2619388Y-2062151I0J61214D01*
G01X-2619388Y-2033018D01*
G03X-2616834Y-2012499I-81160J20519D01*
G03X-2619388Y-1991980I-83714J0D01*
G01X-2619388Y-1982151D01*
G03X-2680602Y-1920937I-61214J0D01*
G01X-2760602Y-1920937D01*
G03X-2800947Y-1936113I0J-61214D01*
G03X-2840495Y-1921623I-39548J-46723D01*
G01X-2920495Y-1921623D01*
G03X-2981709Y-1982837I0J-61214D01*
G01X-2981709Y-2062837D01*
G03X-2953158Y-2114608I61214J0D01*
G03X-2872793Y-2224205I79611J-25887D01*
G03X-2794415Y-2113179I-754J83711D01*
G03X-2760602Y-2123365I33813J51028D01*
G01X-2886517Y-533639D02*
G03X-2736741Y-602595I80964J-21282D01*
G03X-2572415Y-616202I83362J7675D01*
G03X-2722191Y-547245I-80964J21282D01*
G03X-2886517Y-533639I-83362J-7675D01*
G01X-2844918Y-1364563D02*
G03X-2716902Y-1290228I44368J70989D01*
G03X-2681262Y-1166592I-33647J76654D01*
G03X-2633112Y-1072859I-33790J76592D01*
G03X-2589436Y-927432I-11940J82858D01*
G03X-2637620Y-777468I-51110J66301D01*
G03X-2696162Y-923700I-2926J-83663D01*
G03X-2726993Y-1007142I51110J-66301D01*
G03X-2784340Y-1136982I11940J-82858D01*
G03X-2834197Y-1216920I33790J-76592D01*
G03X-2844918Y-1364563I33647J-76654D01*
G01X-2868766Y-380000D02*
G03X-2701338Y-380000I83714J0D01*
G03X-2868766Y-380000I-83714J0D01*
G01X-2724180Y-1589763D02*
G03X-2556752Y-1589763I83714J0D01*
G03X-2724180Y-1589763I-83714J0D01*
G01X-2594129Y-463221D02*
G03X-2517117Y-331084I9076J83221D01*
G03X-2563834Y-185452I-55794J62411D01*
G03X-2640846Y-317590I-9076J-83221D01*
G03X-2594129Y-463221I55794J-62411D01*
G01X-2548766Y-840000D02*
G03X-2381338Y-840000I83714J0D01*
G03X-2548766Y-840000I-83714J0D01*
G01X-2465495Y-1921623D02*
G03X-2526709Y-1982837I0J-61214D01*
G01X-2526709Y-2062837D01*
G03X-2498884Y-2114143I61214J0D01*
G03X-2433013Y-2246177I68336J-48356D01*
G03X-2359484Y-2118250I2465J83678D01*
G03X-2345150Y-2108874I-26011J55413D01*
G03X-2305602Y-2123365I39548J46723D01*
G01X-2225602Y-2123365D01*
G03X-2164388Y-2062151I0J61214D01*
G01X-2164388Y-1982151D01*
G03X-2225602Y-1920937I-61214J0D01*
G01X-2234934Y-1920937D01*
G01X-2258148Y-1897722D01*
G03X-2352505Y-1829643I-82400J-14777D01*
G03X-2423763Y-1921623I11957J-82856D01*
G01X-2465495Y-1921623D01*
G01X-2454262Y-1552499D02*
G03X-2286834Y-1552499I83714J0D01*
G03X-2454262Y-1552499I-83714J0D01*
G01X-2285355Y-866854D02*
G03X-2278440Y-972710I68086J-48706D01*
G03X-2288301Y-1074160I61171J-57150D01*
G03X-2294002Y-1165040I67262J-49838D01*
G03X-2213375Y-1207360I72963J41042D01*
G03X-2064728Y-1215179I76336J34363D01*
G03X-2144702Y-1089635I-72310J42181D01*
G03X-2150007Y-1079698I-76336J-34363D01*
G03X-2156098Y-972710I-67262J49838D01*
G03X-2162463Y-852280I-61171J57150D01*
G03X-2146903Y-800222I-68086J48706D01*
G03X-2173890Y-662302I-58150J60222D01*
G03X-2288699Y-743352I-31162J-77698D01*
G03X-2285355Y-866854I58150J-60222D01*
G01X-2201138Y-1679197D02*
G03X-2068862Y-1594185I50590J66698D01*
G03X-1967765Y-1524952I18314J81686D01*
G03X-1954168Y-1516475I-37287J74952D01*
G03X-1901013Y-1590473I83620J3976D01*
G03X-1783431Y-1688610I80463J-23101D01*
G03X-1790084Y-1535600I-37118J75035D01*
G03X-1788960Y-1531244I-80463J23101D01*
G03X-1678663Y-1469903I28412J78745D01*
G03X-1627911Y-1405888I-31885J77404D01*
G03X-1540071Y-1345554I7364J83390D01*
G03X-1469900Y-1284949I-10476J83056D01*
G03X-1498661Y-1196803I-80647J22451D01*
G03X-1459294Y-1178674I-18454J91879D01*
G01X-1362114Y-1178674D01*
G03X-1300900Y-1117460I0J61214D01*
G01X-1300900Y-1017460D01*
G03X-1302615Y-1003070I-61214J0D01*
G03X-1357043Y-892152I-77932J30572D01*
G03X-1462669Y-956246I-23505J-80346D01*
G01X-1613817Y-956246D01*
G03X-1741387Y-898194I-82752J-12654D01*
G03X-1743327Y-1038339I44818J-70706D01*
G01X-1743327Y-1117460D01*
G03X-1682113Y-1178674I61214J0D01*
G01X-1574936Y-1178674D01*
G03X-1571287Y-1181394I57821J73750D01*
G03X-1631024Y-1239443I20740J-81104D01*
G03X-1703184Y-1309109I10476J-83056D01*
G03X-1754594Y-1321308I-7364J-83390D01*
G03X-1865049Y-1320030I-55956J-62266D01*
G03X-1880612Y-1429392I54500J-63544D01*
G03X-1902137Y-1434973I10064J-83107D01*
G03X-1921433Y-1446025I31589J-77526D01*
G03X-2031340Y-1370521I-83620J-3976D01*
G03X-2142178Y-1290803I-83712J520D01*
G03X-2180867Y-1421735I27126J-79198D01*
G03X-2188035Y-1480190I74198J-38765D01*
G03X-2154934Y-1528900I81366J19690D01*
G03X-2201138Y-1679197I4386J-83599D01*
G01X-1930494Y-1921623D02*
G01X-2010494Y-1921623D01*
G03X-2071708Y-1982837I0J-61214D01*
G01X-2071708Y-2062837D01*
G03X-2010494Y-2124051I61214J0D01*
G01X-1930494Y-2124051D01*
G03X-1890150Y-2108874I0J61214D01*
G03X-1850601Y-2123365I39548J46723D01*
G01X-1818364Y-2123365D01*
G03X-1681465Y-2151805I77816J30866D01*
G03X-1709387Y-2014800I-59083J59307D01*
G01X-1709387Y-1982151D01*
G03X-1770601Y-1920937I-61214J0D01*
G01X-1850601Y-1920937D01*
G03X-1890946Y-1936113I0J-61214D01*
G03X-1930494Y-1921623I-39548J-46723D01*
G01X-2041903Y-1169560D02*
G03X-1874475Y-1169560I83714J0D01*
G03X-2041903Y-1169560I-83714J0D01*
G01X-1300900Y-1892160D02*
G01X-1300900Y-1792160D01*
G03X-1362114Y-1730946I-61214J0D01*
G01X-1682113Y-1730946D01*
G03X-1743327Y-1792160I0J-61214D01*
G01X-1743327Y-1892160D01*
G03X-1682113Y-1953374I61214J0D01*
G01X-1531111Y-1953374D01*
G03X-1349844Y-1952132I90563J10876D01*
G03X-1300900Y-1892160I-12270J59972D01*
G01X-1063318Y-1117460D02*
G03X-1002104Y-1178674I61214J0D01*
G01X-682105Y-1178674D01*
G03X-620891Y-1117460I0J61214D01*
G01X-620891Y-1017460D01*
G03X-682105Y-956246I-61214J0D01*
G01X-1002104Y-956246D01*
G03X-1063318Y-1017460I0J-61214D01*
G01X-1063318Y-1117460D01*
G01X-1063318Y-1892160D02*
G03X-1002104Y-1953374I61214J0D01*
G01X-682105Y-1953374D01*
G03X-620891Y-1892160I0J61214D01*
G01X-620891Y-1792160D01*
G03X-682105Y-1730946I-61214J0D01*
G01X-1002104Y-1730946D01*
G03X-1063318Y-1792160I0J-61214D01*
G01X-1063318Y-1892160D01*
G01X-210025Y-1563712D02*
G01X-164547Y-1563712D01*
G03X-103333Y-1502498I0J61214D01*
G01X-103333Y-1472498D01*
G03X-104156Y-1462498I-61214J0D01*
G03X-103546Y-1457591I-60392J10000D01*
G03X-57684Y-1394407I-37001J75093D01*
G03X-20219Y-1298929I-42863J71908D01*
G03X-103333Y-1238831I-80328J-23570D01*
G01X-103333Y-1222499D01*
G03X-164547Y-1161285I-61214J0D01*
G01X-171834Y-1161285D01*
G03X-260547Y-1091284I-88713J-21214D01*
G03X-349260Y-1161285I0J-91214D01*
G01X-416547Y-1161285D01*
G03X-477761Y-1222499I0J-61214D01*
G01X-477761Y-1252499D01*
G03X-476938Y-1262499I61214J0D01*
G03X-477761Y-1272499I60392J-10000D01*
G01X-477761Y-1297362D01*
G01X-492103Y-1311704D01*
G03X-512961Y-1362060I50356J-50356D01*
G01X-512961Y-1387223D01*
G03X-540655Y-1476806I52414J-65275D01*
G03X-467849Y-1535894I80107J24308D01*
G03X-416547Y-1563712I51302J33395D01*
G01X-391069Y-1563712D01*
G03X-210025Y-1563712I90522J11214D01*
G01X-196233Y-987499D02*
G03X-384861Y-987499I-94314J0D01*
G03X-196233Y-987499I94314J0D01*
G01X-224733Y-1737498D02*
G03X-356361Y-1737498I-65814J0D01*
G03X-224733Y-1737498I65814J0D01*
G01X-2366813Y16291D02*
G01X-2365535Y16278D01*
G01X-2335535Y16278D01*
G01X-2334258Y16291D01*
G01X-2334258Y-16291D01*
G01X-2335535Y-16278D01*
G01X-2365535Y-16278D01*
G01X-2366813Y-16291D01*
G01X-2366813Y16291D01*
G01X-2221539Y-79009D02*
G01X-1822080Y-79009D01*
G01X-1822091Y-80177D01*
G01X-1822091Y-140177D01*
G03X-1821306Y-149953I61214J0D01*
G03X-1827103Y-175955I55417J-26003D01*
G01X-1827103Y-235955D01*
G03X-1765889Y-297169I61214J0D01*
G01X-1705889Y-297169D01*
G03X-1684473Y-293300I0J61214D01*
G03X-1663056Y-297169I21416J57345D01*
G01X-1603056Y-297169D01*
G03X-1579354Y-292394I0J61214D01*
G01X-1579354Y-373429D01*
G01X-2221539Y-373429D01*
G01X-2221539Y-79009D01*
G01X-457866Y16291D02*
G01X-456588Y16278D01*
G01X-426588Y16278D01*
G01X-425311Y16291D01*
G01X-425311Y-16291D01*
G01X-426588Y-16278D01*
G01X-456588Y-16278D01*
G01X-457866Y-16291D01*
G01X-457866Y16291D01*
G04 Copper End*

G04 PolygonModel Start*
G36*
G01X-508507Y-395467D02*
G01X-474552Y-395467D01*
G01X-474552Y-429304D01*
G01X-514552Y-469304D01*
G01X-514552Y-469498D01*
G01X-559135Y-469498D01*
G01X-559135Y-436082D01*
G01X-558552Y-435498D01*
G01X-508507Y-435498D01*
G01X-508507Y-395467D01*
G37*
G36*
G01X-2243517Y-435398D02*
G01X-2243517Y-469353D01*
G01X-2277354Y-469353D01*
G01X-2317354Y-429353D01*
G01X-2317548Y-429353D01*
G01X-2317548Y-384770D01*
G01X-2284132Y-384770D01*
G01X-2283548Y-385354D01*
G01X-2283548Y-435398D01*
G01X-2243517Y-435398D01*
G37*

G04 Rect Start*
G36*
G01X-1389228Y89992D02*
G01X-1389228Y114992D01*
G01X-1310658Y114992D01*
G01X-1310658Y89992D01*
G01X-1389228Y89992D01*
G37*
G36*
G01X-1507947Y92494D02*
G01X-1507947Y128494D01*
G01X-1411377Y128494D01*
G01X-1411377Y92494D01*
G01X-1507947Y92494D01*
G37*
G36*
G01X-1503211Y-75485D02*
G01X-1503211Y-50486D01*
G01X-1424641Y-50486D01*
G01X-1424641Y-75485D01*
G01X-1503211Y-75485D01*
G37*
G36*
G01X-1392401Y-75485D02*
G01X-1392401Y-50486D01*
G01X-1313831Y-50486D01*
G01X-1313831Y-75485D01*
G01X-1392401Y-75485D01*
G37*
G04 Rect End*

G04 Pad Start*
G54D11*
G01X-1353108Y814381D03*
G01X-1607108Y1264367D03*
G01X-1861108Y814381D03*
G54D12*
G01X-230889Y-2249160D03*
G01X-3710889Y-2249160D03*
G01X-230889Y1230840D03*
G01X-3710889Y1230840D03*
G54D13*
G01X-842105Y-2242160D03*
G01X-1522114Y-2242160D03*
G01X-842105Y-1842160D03*
G01X-1522114Y-1842160D03*
G01X-842105Y-1467460D03*
G01X-1522114Y-1467460D03*
G01X-842105Y-1067460D03*
G01X-1522114Y-1067460D03*
G54D14*
G01X-3310890Y770843D03*
G01X-3310890Y630838D03*
G01X-3170549Y1327505D03*
G01X-3170549Y1187501D03*
G01X-3023121Y1328268D03*
G01X-3023121Y1188263D03*
G54D15*
G01X-970547Y1068503D03*
G54D16*
G01X-970547Y1250503D03*
G54D18*
G01X-3614492Y-729834D03*
G01X-3454599Y-729148D03*
G01X-2880495Y-2022837D03*
G01X-2720602Y-2022151D03*
G01X-2425495Y-2022837D03*
G01X-2265602Y-2022151D03*
G01X-1970494Y-2022837D03*
G01X-1810601Y-2022151D03*
G54D19*
G01X-2844554Y1333511D03*
G01X-2654562Y1333511D03*
G01X-2654562Y1093506D03*
G01X-2749558Y1093506D03*
G54D20*
G01X-2844554Y1093506D03*
G54D19*
G01X-2749558Y1333511D03*
G54D21*
G01X-2654555Y279712D03*
G01X-2749551Y279712D03*
G54D22*
G01X-2844547Y279712D03*
G54D23*
G01X-2844547Y17900D03*
G01X-2749543Y17900D03*
G01X-2654555Y17900D03*
G54D24*
G01X-2350535Y0D03*
G54D25*
G01X-2247644Y49987D03*
G54D26*
G01X-2247644Y0D03*
G54D25*
G01X-2247644Y-49987D03*
G54D27*
G01X-2300548Y-102892D03*
G54D28*
G01X-2350535Y-102892D03*
G54D27*
G01X-2400523Y-102892D03*
G54D25*
G01X-2453427Y-49987D03*
G54D26*
G01X-2453427Y0D03*
G54D25*
G01X-2453427Y49987D03*
G54D28*
G01X-2400523Y102892D03*
G01X-2350535Y102892D03*
G01X-2300548Y102892D03*
G54D29*
G01X-1310662Y-50013D03*
G54D30*
G01X-1310662Y0D03*
G54D29*
G01X-1310662Y49987D03*
G01X-1310662Y100000D03*
G01X-1510661Y100000D03*
G01X-1510661Y49987D03*
G54D30*
G01X-1510661Y0D03*
G54D29*
G01X-1510661Y-50013D03*
G54D31*
G01X-1410662Y24994D03*
G54D24*
G01X-441588Y0D03*
G54D25*
G01X-338697Y49987D03*
G54D26*
G01X-338697Y0D03*
G54D25*
G01X-338697Y-49987D03*
G54D27*
G01X-391601Y-102892D03*
G54D28*
G01X-441588Y-102892D03*
G54D27*
G01X-491576Y-102892D03*
G54D25*
G01X-544480Y-49987D03*
G54D26*
G01X-544480Y0D03*
G54D25*
G01X-544480Y49987D03*
G54D28*
G01X-491576Y102892D03*
G01X-441588Y102892D03*
G01X-391601Y102892D03*
G54D32*
G01X-374047Y-1637498D03*
G01X-374047Y-1487498D03*
G01X-374047Y-1437498D03*
G01X-374047Y-1387498D03*
G01X-374047Y-1337498D03*
G01X-374047Y-1287499D03*
G01X-374047Y-1237499D03*
G01X-374047Y-1087499D03*
G01X-207047Y-1087499D03*
G01X-207047Y-1237499D03*
G01X-207047Y-1287499D03*
G01X-207047Y-1337498D03*
G01X-207047Y-1387498D03*
G01X-207047Y-1437498D03*
G01X-207047Y-1487498D03*
G01X-207047Y-1637498D03*
G54D33*
G01X-505547Y-1602498D03*
G01X-505547Y-1122499D03*
G01X-75547Y-1122499D03*
G01X-75547Y-1602498D03*
G54D34*
G01X-2400548Y-421498D03*
G54D35*
G01X-2400548Y-239498D03*
G54D34*
G01X-391601Y-421498D03*
G54D35*
G01X-391601Y-239498D03*
G54D36*
G01X-822791Y-406D03*
G01X-713571Y-406D03*
G01X-1010922Y-406D03*
G54D37*
G01X-895922Y-406D03*
G54D38*
G01X-1072009Y101600D03*
G54D39*
G01X-1072009Y0D03*
G54D40*
G01X-1065891Y227538D03*
G01X-1065891Y318978D03*
G01X-1183351Y133374D03*
G01X-1183351Y248374D03*
G54D41*
G01X-810548Y317503D03*
G01X-925547Y317503D03*
G54D39*
G01X-1634748Y519D03*
G54D38*
G01X-1634748Y-108701D03*
G54D36*
G01X-1941265Y-406D03*
G54D37*
G01X-1826265Y-406D03*
G54D42*
G01X-2030889Y840D03*
G54D43*
G01X-2030889Y115840D03*
G54D44*
G01X-3454152Y139658D03*
G54D45*
G01X-3454152Y-322D03*
G54D36*
G01X-3328027Y-322D03*
G54D37*
G01X-3213027Y-322D03*
G54D46*
G01X-2844554Y405989D03*
G54D47*
G01X-2844554Y520989D03*
G54D42*
G01X-2844548Y927459D03*
G54D47*
G01X-2844548Y1042459D03*
G54D48*
G01X-2946148Y887426D03*
G54D49*
G01X-2844548Y887426D03*
G54D40*
G01X-1730877Y-110177D03*
G54D50*
G01X-1730877Y-3497D03*
G54D48*
G01X-1850889Y-205955D03*
G01X-1735889Y-205955D03*
G54D41*
G01X-1518057Y-205955D03*
G01X-1633056Y-205955D03*
G54D38*
G01X-1592429Y302680D03*
G01X-1592429Y187680D03*
G54D42*
G01X-2136323Y-406D03*
G54D43*
G01X-2136323Y114593D03*
G54D51*
G01X-2894561Y594156D03*
G54D52*
G01X-2844548Y594156D03*
G54D51*
G01X-2794561Y594156D03*
G01X-2744548Y594156D03*
G01X-2744548Y784148D03*
G01X-2794561Y784148D03*
G54D52*
G01X-2844548Y784148D03*
G54D51*
G01X-2894561Y784148D03*
G54D53*
G01X-2819554Y689152D03*
G54D36*
G01X-1715228Y-452498D03*
G54D37*
G01X-1600228Y-452498D03*
G54D36*
G01X-808982Y-452198D03*
G54D37*
G01X-693982Y-452198D03*
G54D40*
G01X-875998Y-553799D03*
G54D54*
G01X-875998Y-452199D03*
G54D55*
G01X-1477953Y-312576D03*
G54D56*
G01X-1337948Y-312576D03*
G54D57*
G01X-1483692Y-401993D03*
G54D58*
G01X-1483692Y-452005D03*
G54D57*
G01X-1483692Y-501993D03*
G54D59*
G01X-1483692Y-552005D03*
G01X-1293700Y-552005D03*
G54D57*
G01X-1293700Y-501993D03*
G54D58*
G01X-1293700Y-452005D03*
G54D57*
G01X-1293700Y-401993D03*
G54D60*
G01X-1388696Y-476999D03*
G54D55*
G01X-864536Y-680071D03*
G01X-724531Y-680071D03*
G01X-863774Y-827499D03*
G01X-723769Y-827499D03*
G54D14*
G01X-3152994Y859001D03*
G01X-3152994Y718996D03*
G01X-3035581Y857773D03*
G01X-3035581Y717768D03*
G04 Pad End*

G04 Via Start*
G54D61*
G01X-1890548Y817503D03*
G01X-3021547Y-146499D03*
G01X-2654547Y257200D03*
G01X-1720548Y398503D03*
G01X-2463544Y242708D03*
G01X-460547Y428503D03*
G01X-130545Y947505D03*
G01X-130545Y747504D03*
G01X-130545Y547504D03*
G01X-130545Y-652496D03*
G01X-130545Y-852496D03*
G01X-130545Y-1052496D03*
G01X-130545Y-1852497D03*
G01X-330545Y947505D03*
G01X-330545Y747504D03*
G01X-310547Y457503D03*
G01X-330545Y147504D03*
G01X-330545Y-852496D03*
G01X-330545Y-1852497D03*
G01X-530546Y1347505D03*
G01X-530546Y1147505D03*
G01X-530546Y947505D03*
G01X-530546Y747504D03*
G01X-530546Y347504D03*
G01X-530546Y-652496D03*
G01X-530546Y-852496D03*
G01X-530546Y-1252497D03*
G01X-530546Y-2052497D03*
G01X-530546Y-2252497D03*
G01X-530546Y-2452497D03*
G01X-730546Y1347505D03*
G01X-730546Y1147505D03*
G01X-730546Y947505D03*
G01X-730546Y747504D03*
G01X-730546Y547504D03*
G01X-730546Y347504D03*
G01X-730546Y-252496D03*
G01X-730546Y-652496D03*
G01X-730546Y-2052497D03*
G01X-730546Y-2452497D03*
G01X-930546Y1147505D03*
G01X-930546Y747504D03*
G01X-930546Y-252496D03*
G01X-930546Y-2052497D03*
G01X-930546Y-2452497D03*
G01X-1130546Y-252496D03*
G01X-1130546Y-652496D03*
G01X-1130546Y-2052497D03*
G01X-1130546Y-2252497D03*
G01X-1130546Y-2452497D03*
G01X-1330546Y-252496D03*
G01X-1330546Y-2052497D03*
G01X-1330546Y-2252497D03*
G01X-1330546Y-2452497D03*
G01X-1530546Y947505D03*
G01X-1530546Y347504D03*
G01X-1530546Y-1652497D03*
G01X-1530546Y-2052497D03*
G01X-1530546Y-2452497D03*
G01X-1730546Y1347505D03*
G01X-1730546Y947505D03*
G01X-1730546Y747504D03*
G01X-1730546Y-2252497D03*
G01X-1730546Y-2452497D03*
G01X-1930546Y1147505D03*
G01X-1930546Y-2452497D03*
G01X-2130546Y-2252497D03*
G01X-2530547Y1347505D03*
G01X-2530547Y1147505D03*
G01X-2530547Y947505D03*
G01X-2530547Y747504D03*
G01X-2530547Y-1852497D03*
G01X-2730547Y947505D03*
G01X-2930547Y-1252497D03*
G01X-2930547Y-1452497D03*
G01X-2930547Y-1652497D03*
G01X-2930547Y-1852497D03*
G01X-3130547Y-252496D03*
G01X-3130547Y-452496D03*
G01X-3130547Y-1252497D03*
G01X-3330547Y1347505D03*
G01X-3330547Y1147505D03*
G01X-3330547Y947505D03*
G01X-3330547Y547504D03*
G01X-3330547Y-252496D03*
G01X-3330547Y-652496D03*
G01X-3330547Y-852496D03*
G01X-3330547Y-1652497D03*
G01X-3330547Y-1852497D03*
G01X-3530547Y947505D03*
G01X-3530547Y547504D03*
G01X-3530547Y347504D03*
G01X-3530547Y-252496D03*
G01X-3530547Y-652496D03*
G01X-3530547Y-852496D03*
G01X-3530547Y-1052496D03*
G01X-3530547Y-1652497D03*
G01X-3530547Y-1852497D03*
G01X-3730547Y947505D03*
G01X-3730547Y747504D03*
G01X-3730547Y547504D03*
G01X-3730547Y-652496D03*
G01X-3730547Y-852496D03*
G01X-3730547Y-1052496D03*
G01X-3730547Y-1252497D03*
G01X-3730547Y-1652497D03*
G01X-3930547Y947505D03*
G01X-3930547Y747504D03*
G01X-3930547Y547504D03*
G01X-3930547Y-652496D03*
G01X-3930547Y-852496D03*
G01X-3930547Y-1052496D03*
G01X-3930547Y-1252497D03*
G01X-3930547Y-1652497D03*
G01X-3930547Y-1852497D03*
G01X-3930547Y-2052497D03*
G01X-2749558Y1093506D03*
G01X-2993092Y1557503D03*
G01X-2790666Y-2562499D03*
G01X-2990666Y-2562499D03*
G54D62*
G01X-1440548Y-1942499D03*
G54D61*
G01X-2640466Y-1589763D03*
G54D62*
G01X-260547Y-1182498D03*
G01X-300547Y-1552499D03*
G54D61*
G01X-460547Y-1452498D03*
G01X-290547Y-1322498D03*
G01X-100547Y-1322498D03*
G01X-140547Y-1382498D03*
G01X-810547Y-972498D03*
G01X-635547Y-1252498D03*
G01X-1503211Y-62985D03*
G01X-960697Y244788D03*
G01X-1170414Y559737D03*
G01X-1066669Y1314868D03*
G01X-2127544Y1267502D03*
G01X-162089Y-445957D03*
G01X-62089Y-445957D03*
G01X37911Y-445957D03*
G01X37911Y-345998D03*
G01X-62089Y-345998D03*
G01X-162089Y-345998D03*
G01X-162089Y-246040D03*
G01X-62089Y-246040D03*
G01X37911Y-246040D03*
G01X37911Y445956D03*
G01X-62089Y445956D03*
G01X-162089Y445956D03*
G01X-162089Y345998D03*
G01X-62089Y345998D03*
G01X37911Y345998D03*
G01X37911Y246040D03*
G01X-62089Y246040D03*
G01X-162089Y246040D03*
G01X-3922785Y-445217D03*
G01X-3822785Y-445217D03*
G01X-3722785Y-445217D03*
G01X-3722785Y-345259D03*
G01X-3822785Y-345259D03*
G01X-3922785Y-345259D03*
G01X-3922785Y-245300D03*
G01X-3822785Y-245300D03*
G01X-3722785Y-245300D03*
G01X-3923001Y445319D03*
G01X-3823001Y445319D03*
G01X-3723001Y445319D03*
G01X-3923001Y345360D03*
G01X-3823001Y345360D03*
G01X-3723001Y345360D03*
G01X-3723001Y245402D03*
G01X-3823001Y245402D03*
G01X-3923001Y245402D03*
G01X-3723001Y145444D03*
G54D63*
G01X-2343035Y1267504D03*
G54D61*
G01X-1390548Y527503D03*
G01X-2702288Y519336D03*
G01X-3000548Y277502D03*
G01X-3172785Y-90342D03*
G01X-3272785Y-90342D03*
G01X-3322785Y-145342D03*
G01X-3319475Y145527D03*
G01X-3269475Y90527D03*
G01X-60664Y-2522499D03*
G01X29336Y-2462499D03*
G01X76475Y-2370486D03*
G01X89453Y-2032499D03*
G01X89453Y-2132499D03*
G01X89453Y-2242499D03*
G01X49453Y1397503D03*
G01X-10547Y1487503D03*
G01X-190665Y-2562499D03*
G01X-290665Y-2562499D03*
G01X-390665Y-2562499D03*
G01X-490665Y-2562499D03*
G01X-590665Y-2562499D03*
G01X-690665Y-2562499D03*
G01X-790665Y-2562499D03*
G01X-890665Y-2562499D03*
G01X-990665Y-2562499D03*
G01X-1090665Y-2562499D03*
G01X-1190665Y-2562499D03*
G01X-1290665Y-2562499D03*
G01X-1390665Y-2562499D03*
G01X-1490665Y-2562499D03*
G01X-1590665Y-2562499D03*
G01X-1690665Y-2562499D03*
G01X-1790665Y-2562499D03*
G01X-1890666Y-2562499D03*
G01X-1990666Y-2562499D03*
G01X-2090666Y-2562499D03*
G01X-2190666Y-2562499D03*
G01X-2290666Y-2562499D03*
G01X-2390666Y-2562499D03*
G01X-2490666Y-2562499D03*
G01X-2590666Y-2562499D03*
G01X-2690666Y-2562499D03*
G01X-2890666Y-2562499D03*
G01X-3090666Y-2562499D03*
G01X-3190666Y-2562499D03*
G01X-3290666Y-2562499D03*
G01X-3390666Y-2562499D03*
G01X-3490666Y-2562499D03*
G01X-3590666Y-2562499D03*
G01X-3690666Y-2562499D03*
G01X-3790667Y-2562499D03*
G01X-3890549Y-2542499D03*
G01X-3970549Y-2482499D03*
G01X-4014480Y-2378568D03*
G01X-4030549Y-2285224D03*
G01X-4030549Y-2185224D03*
G01X-4030549Y-2085224D03*
G01X-4030549Y-1985224D03*
G01X-4030549Y-1885224D03*
G01X-4030549Y-1785224D03*
G01X-4030549Y-1685224D03*
G01X-4030549Y-1585224D03*
G01X-4030549Y-1485224D03*
G01X-4030549Y-1385224D03*
G01X-4030549Y-1285223D03*
G01X-4030549Y-1185223D03*
G01X-4030549Y-1085223D03*
G01X-4030549Y-985223D03*
G01X-4030549Y-885223D03*
G01X-4030549Y-785223D03*
G01X-4030549Y-685223D03*
G01X-4030549Y-585223D03*
G01X-4030549Y-485223D03*
G01X-4030549Y-385223D03*
G01X-4030549Y-285223D03*
G01X-4030549Y214777D03*
G01X-4030549Y314777D03*
G01X-4030549Y414777D03*
G01X-4030549Y514777D03*
G01X-4030549Y614778D03*
G01X-4030549Y714778D03*
G01X-4030549Y814778D03*
G01X-4030549Y914778D03*
G01X-4030549Y1014778D03*
G01X-4030549Y1114778D03*
G01X-4030549Y1214778D03*
G01X-4007409Y1350643D03*
G01X-3970549Y1447503D03*
G01X-3900549Y1507503D03*
G01X-3793093Y1557503D03*
G01X-3693093Y1557503D03*
G01X-3593093Y1557503D03*
G01X-3493093Y1557503D03*
G01X-3393093Y1557503D03*
G01X-3293092Y1557503D03*
G01X-3193092Y1557503D03*
G01X-3093092Y1557503D03*
G01X-2893092Y1557503D03*
G01X-2793092Y1557503D03*
G01X-2693092Y1557503D03*
G01X-2593092Y1557503D03*
G01X-2493092Y1557503D03*
G01X-2393092Y1557503D03*
G01X-2293092Y1557503D03*
G01X-2193092Y1557503D03*
G01X-2093092Y1557503D03*
G01X-1993092Y1557503D03*
G01X-1893092Y1557503D03*
G01X-1793092Y1557503D03*
G01X-1693092Y1557503D03*
G01X-1593092Y1557503D03*
G01X-1493092Y1557503D03*
G01X-1393091Y1557503D03*
G01X-1293091Y1557503D03*
G01X-1193091Y1557503D03*
G01X-1093091Y1557503D03*
G01X-993091Y1557503D03*
G01X-893091Y1557503D03*
G01X-793091Y1557503D03*
G01X-693091Y1557503D03*
G01X-593091Y1557503D03*
G01X-493091Y1557503D03*
G01X-393091Y1557503D03*
G01X-293091Y1557503D03*
G01X-193091Y1557503D03*
G01X-102560Y1534643D03*
G01X89453Y1267503D03*
G01X89453Y1167503D03*
G01X89453Y1067503D03*
G01X89453Y967503D03*
G01X89453Y867503D03*
G01X89453Y767503D03*
G01X89453Y667503D03*
G01X89453Y567503D03*
G01X89453Y467502D03*
G01X89453Y367502D03*
G01X89453Y267502D03*
G01X89453Y167502D03*
G01X89453Y-232498D03*
G01X89453Y-332498D03*
G01X89453Y-432498D03*
G01X89453Y-532498D03*
G01X89453Y-632498D03*
G01X89453Y-732498D03*
G01X89453Y-832498D03*
G01X89453Y-932498D03*
G01X89453Y-1032498D03*
G01X89453Y-1132498D03*
G01X89453Y-1232498D03*
G01X89453Y-1332498D03*
G01X89453Y-1432499D03*
G01X89453Y-1532499D03*
G01X89453Y-1632499D03*
G01X89453Y-1732499D03*
G01X89453Y-1832499D03*
G01X89453Y-1932499D03*
G01X-2620549Y729757D03*
G01X-2070548Y-1622499D03*
G01X-2230548Y-1622499D03*
G01X-2390548Y-1722499D03*
G01X-2430548Y-2162499D03*
G01X-1380550Y-1441276D03*
G01X-2780548Y-1589763D03*
G01X-1870548Y-1512499D03*
G01X-2050548Y-1512499D03*
G01X-2780551Y-1441131D03*
G01X-2780550Y-713574D03*
G01X-2780550Y-863574D03*
G01X-2780548Y-992498D03*
G54D63*
G01X-1240547Y1257503D03*
G54D62*
G01X-3500549Y827503D03*
G54D61*
G01X-267504Y-316763D03*
G01X-3455053Y-740000D03*
G54D62*
G01X-3295053Y-2150001D03*
G54D61*
G01X-2324548Y-27499D03*
G01X-2360548Y27502D03*
G01X-2749543Y22200D03*
G01X-2572911Y-268673D03*
G01X-1760548Y-1452498D03*
G01X-1710548Y-1392498D03*
G01X-1620548Y-1322498D03*
G01X-1550548Y-1262498D03*
G01X-3046547Y-2393494D03*
G01X-2873547Y-2140495D03*
G01X-3130889Y-2332160D03*
G01X-3290549Y-2312499D03*
G01X-2700548Y-2012499D03*
G01X-2340548Y-1912499D03*
G01X-1740548Y-2092499D03*
G01X-2749543Y228450D03*
G01X-2895934Y-149142D03*
G01X-2765928Y-149142D03*
G01X-3222785Y-145342D03*
G01X-2580889Y90840D03*
G01X-662089Y-146081D03*
G01X-262089Y146081D03*
G01X-762089Y-146081D03*
G01X-1741583Y-310283D03*
G01X-1699545Y-363508D03*
G01X-860547Y386502D03*
G01X-1183351Y247907D03*
G01X-1692506Y242680D03*
G01X-2212089Y91081D03*
G01X-2162089Y146081D03*
G01X-2649475Y90527D03*
G01X-810888Y320840D03*
G01X-1850889Y-659160D03*
G01X-1750889Y-659160D03*
G01X-1950889Y-659160D03*
G01X-2050889Y-659160D03*
G01X-2280889Y-569160D03*
G01X-2633732Y-286317D03*
G01X-2350889Y-569160D03*
G01X-2351600Y-498449D03*
G01X-479636Y-598895D03*
G01X-338214Y-387474D03*
G01X-408925Y-458184D03*
G01X-479636Y-528895D03*
G01X-267504Y-386763D03*
G01X-338214Y-457474D03*
G01X-408925Y-528184D03*
G01X-607506Y-543895D03*
G01X-557506Y-598895D03*
G01X-757506Y-598895D03*
G01X-657506Y-598895D03*
G01X-1607506Y-543895D03*
G01X-1557506Y-598895D03*
G01X-1507506Y-543895D03*
G01X-1457506Y-598895D03*
G01X-1407506Y-543895D03*
G01X-1357506Y-598895D03*
G01X-1207506Y-543895D03*
G01X-1157506Y-598895D03*
G01X-1007506Y-543895D03*
G01X-707506Y-543895D03*
G01X-857507Y-306732D03*
G01X-807507Y-361732D03*
G01X-757507Y-306732D03*
G01X-707507Y-361732D03*
G01X-1007507Y-361732D03*
G01X-712089Y-91081D03*
G01X-607507Y-361732D03*
G01X-657507Y-306732D03*
G01X-907507Y-361732D03*
G01X-957507Y-306732D03*
G01X-1057507Y-306732D03*
G01X-1107507Y-361732D03*
G01X-1157507Y-306732D03*
G01X-1207507Y-361732D03*
G01X-1257507Y-306732D03*
G01X-1307507Y-361732D03*
G01X-1357507Y-306732D03*
G01X-1607507Y-361732D03*
G01X-1649545Y-308508D03*
G01X-1858389Y-284160D03*
G01X-2007507Y-361732D03*
G01X-2057507Y-306732D03*
G01X-2458459Y-386167D03*
G01X-581596Y-294461D03*
G01X-636596Y-244461D03*
G01X-581596Y-194461D03*
G01X-2209782Y-94245D03*
G01X-2154783Y-144245D03*
G01X-2209782Y-194245D03*
G01X-2154783Y-244245D03*
G01X-2990312Y509858D03*
G01X-2935312Y459858D03*
G01X-2990312Y409858D03*
G01X-1762089Y146081D03*
G01X-1712089Y91081D03*
G01X-1662089Y146081D03*
G01X-2466766Y108709D03*
G01X-2919475Y145527D03*
G01X-2819475Y145527D03*
G01X-3219475Y145527D03*
G01X-3119475Y145527D03*
G01X-3019475Y145527D03*
G01X-2012089Y91081D03*
G01X-2062089Y146081D03*
G01X-1812089Y91081D03*
G01X-1862089Y146081D03*
G01X-1962089Y146081D03*
G01X-1912089Y91081D03*
G01X-862089Y146081D03*
G01X-912089Y91081D03*
G01X-962089Y146081D03*
G01X-562089Y146081D03*
G01X-612089Y91081D03*
G01X-662089Y146081D03*
G01X-712089Y91081D03*
G01X-812089Y91081D03*
G01X-762089Y146081D03*
G01X87911Y91081D03*
G01X37911Y146081D03*
G01X-12089Y91081D03*
G01X-62089Y146081D03*
G01X-112089Y91081D03*
G01X-162089Y146081D03*
G01X-212089Y91081D03*
G01X-2769475Y90527D03*
G01X-2969475Y90527D03*
G01X-3069475Y90527D03*
G01X-3169475Y90527D03*
G01X-3773001Y90444D03*
G01X-3873001Y90444D03*
G01X-3973001Y90444D03*
G01X-3623001Y145444D03*
G01X-3823001Y145444D03*
G01X-4023001Y145444D03*
G01X37911Y-146081D03*
G01X-62089Y-146081D03*
G01X-162089Y-146081D03*
G01X87911Y-91081D03*
G01X-12089Y-91081D03*
G01X-112089Y-91081D03*
G01X-212089Y-91081D03*
G01X-862089Y-146081D03*
G01X-962089Y-146081D03*
G01X-1062089Y-146081D03*
G01X-1162089Y-146081D03*
G01X-1262089Y-146081D03*
G01X-1362089Y-146081D03*
G01X-812089Y-91081D03*
G01X-912089Y-91081D03*
G01X-1012089Y-91081D03*
G01X-1112089Y-91081D03*
G01X-1212089Y-91081D03*
G01X-1562089Y-146081D03*
G01X-1862089Y-146081D03*
G01X-1962089Y-146081D03*
G01X-2062089Y-146081D03*
G01X-1912089Y-91081D03*
G01X-2012089Y-91081D03*
G01X-1462089Y-146081D03*
G01X-2622785Y-145342D03*
G01X-2572785Y-90342D03*
G01X-3422785Y-145342D03*
G01X-3522785Y-145342D03*
G01X-3622785Y-145342D03*
G01X-3722785Y-145342D03*
G01X-3822785Y-145342D03*
G01X-3922785Y-145342D03*
G01X-4022785Y-145342D03*
G01X-3372785Y-90342D03*
G01X-3472785Y-90342D03*
G01X-3572785Y-90342D03*
G01X-3672785Y-90342D03*
G01X-3772785Y-90342D03*
G01X-3872785Y-90342D03*
G01X-3972785Y-90342D03*
G01X-2217269Y-1029860D03*
G01X-2217269Y-915560D03*
G01X-1696569Y-968900D03*
G01X-3280549Y627503D03*
G01X-3060890Y770841D03*
G01X-1704189Y-811420D03*
G01X-1721108Y814381D03*
G01X-1389229Y-49420D03*
G01X-1437489Y-31640D03*
G01X-1389229Y3073D03*
G01X-1437489Y22547D03*
G01X-1389229Y55567D03*
G01X-1437489Y76733D03*
G01X-1389229Y108060D03*
G01X-1437489Y130920D03*
G01X-1836454Y-201066D03*
G01X-412932Y-33020D03*
G01X-467773Y33350D03*
G01X-1260548Y187502D03*
G01X-1540548Y717503D03*
G01X-2524034Y447874D03*
G01X-2748129Y689720D03*
G01X-2875751Y689152D03*
G01X-1631214Y-205754D03*
G01X-2230548Y257502D03*
G54D64*
G01X-925051Y-1060001D03*
G01X-1517115Y-1104924D03*
G54D61*
G01X-330547Y257502D03*
G54D64*
G01X-870547Y1307503D03*
G01X-1940548Y1297503D03*
G54D61*
G01X-2370548Y-1552499D03*
G01X-1945548Y447874D03*
G01X-460547Y607503D03*
G01X-2221039Y-1123998D03*
G01X-1610548Y1257503D03*
G01X-2648547Y1098499D03*
G01X-2656547Y1330498D03*
G01X-2750548Y1327503D03*
G54D63*
G01X-3345053Y1250001D03*
G54D62*
G01X-3450549Y227502D03*
G54D61*
G01X-1958189Y-1169560D03*
G01X-2137039Y-1172998D03*
G01X-2115052Y-1370001D03*
G01X-2106669Y-1460500D03*
G01X-1829049Y-777280D03*
G01X-2099049Y-867280D03*
G01X-1829049Y-957280D03*
G01X-2099049Y-1047280D03*
G01X-2009049Y-1047280D03*
G01X-1919049Y-1047280D03*
G01X-1829049Y-1047280D03*
G01X-1919049Y-957280D03*
G01X-2009049Y-957280D03*
G01X-2099049Y-957280D03*
G01X-2009049Y-867280D03*
G01X-1919049Y-777280D03*
G01X-2009049Y-777280D03*
G01X-2099049Y-777280D03*
G01X-1829049Y-867280D03*
G01X-1919049Y-867280D03*
G01X-842105Y-2242160D03*
G01X-840547Y-1852499D03*
G01X-1525052Y-1840001D03*
G01X-1029709Y-1159662D03*
G01X-1228947Y-1104900D03*
G01X-1240547Y-992498D03*
G01X-1380548Y-972498D03*
G01X-1910548Y-1622499D03*
G01X-2150548Y-1612499D03*
G01X-2465052Y-840000D03*
G01X-2230550Y-803574D03*
G01X-2205052Y-740000D03*
G01X-2905053Y-1090001D03*
G01X-3835053Y-1170001D03*
G01X-1820549Y-1613574D03*
G01X-1810549Y-1383574D03*
G01X-2750550Y-1213574D03*
G01X-2800550Y-1293574D03*
G01X-1380550Y-1293741D03*
G01X-1240545Y-701276D03*
G01X-2005052Y-1450001D03*
G01X-2785052Y-380000D03*
G01X-2719475Y145527D03*
G01X-2585052Y-380000D03*
G01X-2653379Y-594920D03*
G01X-2640546Y-861131D03*
G01X-2645052Y-990001D03*
G01X-2805553Y-554920D03*
G01X-2715052Y-1090001D03*
G01X-2955053Y-1180001D03*
G01X-3923001Y145444D03*
G01X-1455469Y-284957D03*
G01X-864536Y-680071D03*
G01X-873771Y-837698D03*
G01X-1107506Y-543895D03*
G01X-1057506Y-598895D03*
G01X-1364909Y-476999D03*
G01X-1407175Y-432818D03*
G01X-230889Y-2039160D03*
G01X-20889Y-2249160D03*
G01X-230889Y-2459160D03*
G01X-440889Y-2249160D03*
G01X-379382Y-2100668D03*
G01X-379382Y-2397653D03*
G01X-82397Y-2397653D03*
G01X-82397Y-2100668D03*
G01X-424903Y-2168795D03*
G01X-311254Y-2443174D03*
G01X-36875Y-2329525D03*
G01X-150524Y-2055146D03*
G01X-424904Y-2329522D03*
G01X-311251Y-2055145D03*
G01X-36874Y-2168798D03*
G01X-150527Y-2443175D03*
G01X-3710889Y-2039160D03*
G01X-3500889Y-2249160D03*
G01X-3710889Y-2459160D03*
G01X-3920889Y-2249160D03*
G01X-3859382Y-2100668D03*
G01X-3859382Y-2397653D03*
G01X-3562397Y-2397653D03*
G01X-3562397Y-2100668D03*
G01X-3904904Y-2168795D03*
G01X-3791254Y-2443174D03*
G01X-3516875Y-2329525D03*
G01X-3630524Y-2055146D03*
G01X-3904905Y-2329522D03*
G01X-3791251Y-2055145D03*
G01X-3516874Y-2168798D03*
G01X-3630527Y-2443175D03*
G01X-230889Y1440840D03*
G01X-20889Y1230840D03*
G01X-230889Y1020840D03*
G01X-440889Y1230840D03*
G01X-379382Y1379333D03*
G01X-379382Y1082348D03*
G01X-82397Y1082348D03*
G01X-82397Y1379333D03*
G01X-424903Y1311205D03*
G01X-311254Y1036826D03*
G01X-36875Y1150475D03*
G01X-150524Y1424854D03*
G01X-424904Y1150478D03*
G01X-311251Y1424855D03*
G01X-36874Y1311202D03*
G01X-150527Y1036825D03*
G01X-3710889Y1440840D03*
G01X-3500889Y1230840D03*
G01X-3710889Y1020840D03*
G01X-3920889Y1230840D03*
G01X-3859382Y1379333D03*
G01X-3859382Y1082348D03*
G01X-3562397Y1082348D03*
G01X-3562397Y1379333D03*
G01X-3904904Y1311205D03*
G01X-3791254Y1036826D03*
G01X-3516875Y1150475D03*
G01X-3630524Y1424854D03*
G01X-3904905Y1150478D03*
G01X-3791251Y1424855D03*
G01X-3516874Y1311202D03*
G01X-3630527Y1036825D03*
G54D65*
G01X-1010420Y834011D03*
G01X-1090404Y834011D03*
G01X-1170414Y834011D03*
G01X-1250399Y834011D03*
G01X-1250399Y754001D03*
G01X-1170414Y754001D03*
G01X-1090404Y754001D03*
G01X-1010420Y754001D03*
G01X-1010420Y673991D03*
G01X-1090404Y673991D03*
G01X-1170414Y673991D03*
G01X-1250399Y673991D03*
G01X-2104040Y833522D03*
G01X-2184024Y833522D03*
G01X-2264034Y833522D03*
G01X-2344019Y833522D03*
G01X-2344019Y753512D03*
G01X-2264034Y753512D03*
G01X-2184024Y753512D03*
G01X-2104040Y753512D03*
G01X-2104040Y673502D03*
G01X-2184024Y673502D03*
G01X-2264034Y673502D03*
G01X-2344019Y673502D03*
G04 Via End*

G04 Track Start*
G54D66*
G01X-3454152Y223899D02*
G01X-3450549Y227502D01*
G01X-3454152Y139658D02*
G01X-3454152Y223899D01*
G54D67*
G01X-491576Y125407D02*
G01X-491576Y102892D01*
G01X-460547Y156436D02*
G01X-491576Y125407D01*
G01X-460547Y428503D02*
G01X-460547Y156436D01*
G54D68*
G01X-2303244Y-47291D02*
G01X-2350535Y0D01*
G01X-2273039Y-47291D02*
G01X-2303244Y-47291D01*
G01X-2270343Y-49987D02*
G01X-2273039Y-47291D01*
G01X-2247644Y-49987D02*
G01X-2270343Y-49987D01*
G01X-2303235Y47300D02*
G01X-2350535Y0D01*
G01X-2250331Y47300D02*
G01X-2303235Y47300D01*
G01X-2247644Y49987D02*
G01X-2250331Y47300D01*
G01X-2397827Y-47291D02*
G01X-2350535Y0D01*
G01X-2428032Y-47291D02*
G01X-2397827Y-47291D01*
G01X-2430727Y-49987D02*
G01X-2428032Y-47291D01*
G01X-2453427Y-49987D02*
G01X-2430727Y-49987D01*
G01X-2397827Y47291D02*
G01X-2350535Y0D01*
G01X-2428032Y47291D02*
G01X-2397827Y47291D01*
G01X-2430727Y49987D02*
G01X-2428032Y47291D01*
G01X-2453427Y49987D02*
G01X-2430727Y49987D01*
G54D69*
G01X-1522892Y-1842160D02*
G01X-1522114Y-1842160D01*
G01X-1525052Y-1840001D02*
G01X-1522892Y-1842160D01*
G01X-315547Y-1237499D02*
G01X-374047Y-1237499D01*
G01X-260547Y-1182498D02*
G01X-315547Y-1237499D01*
G01X-207047Y-1235998D02*
G01X-207047Y-1237499D01*
G01X-260547Y-1182498D02*
G01X-207047Y-1235998D01*
G01X-235547Y-1487498D02*
G01X-207047Y-1487498D01*
G01X-300547Y-1552499D02*
G01X-235547Y-1487498D01*
G01X-365547Y-1487498D02*
G01X-374047Y-1487498D01*
G01X-300547Y-1552499D02*
G01X-365547Y-1487498D01*
G01X-417185Y-1337498D02*
G01X-374047Y-1337498D01*
G01X-441747Y-1362060D02*
G01X-417185Y-1337498D01*
G01X-441747Y-1433698D02*
G01X-441747Y-1362060D01*
G01X-460547Y-1452498D02*
G01X-441747Y-1433698D01*
G01X-369047Y-1392498D02*
G01X-374047Y-1387498D01*
G01X-335909Y-1392498D02*
G01X-369047Y-1392498D01*
G01X-290547Y-1347137D02*
G01X-335909Y-1392498D01*
G01X-290547Y-1322498D02*
G01X-290547Y-1347137D01*
G01X-204347Y-1334798D02*
G01X-207047Y-1337498D01*
G01X-112847Y-1334798D02*
G01X-204347Y-1334798D01*
G01X-100547Y-1322498D02*
G01X-112847Y-1334798D01*
G01X-202047Y-1382498D02*
G01X-207047Y-1387498D01*
G01X-140547Y-1382498D02*
G01X-202047Y-1382498D01*
G54D67*
G01X-1098986Y1068503D02*
G01X-1353108Y814381D01*
G01X-970547Y1068503D02*
G01X-1098986Y1068503D01*
G01X-2230548Y257502D02*
G01X-2300548Y187502D01*
G01X-2300548Y102892D01*
G54D70*
G01X-3454152Y-322D02*
G01X-4085329Y-322D01*
G01X-3343546Y-322D02*
G01X-3454152Y-322D01*
G54D68*
G01X-3380549Y827503D02*
G01X-3320549Y767503D01*
G54D71*
G01X-840547Y-1852499D02*
G01X-840547Y-1843718D01*
G01X-842105Y-1842160D01*
G54D72*
G01X-3023121Y1328268D02*
G01X-3169786Y1328268D01*
G01X-3345053Y1250001D02*
G01X-3248053Y1250001D01*
G54D68*
G01X-870547Y1307503D02*
G01X-870547Y1277503D01*
G01X-897548Y1250503D01*
G01X-970547Y1250503D02*
G01X-897548Y1250503D01*
G01X-3147202Y594156D02*
G01X-2894561Y594156D01*
G01X-3320549Y767503D02*
G01X-3147202Y594156D01*
G01X-3320549Y785497D02*
G01X-3320549Y767503D01*
G54D66*
G01X-3320549Y767503D02*
G01X-3314230Y767503D01*
G54D68*
G01X-3500549Y827503D02*
G01X-3380549Y827503D01*
G54D66*
G01X-3314230Y767503D02*
G01X-3310890Y770843D01*
G54D68*
G01X-3218619Y887426D02*
G01X-3320549Y785497D01*
G54D67*
G01X-2749558Y1308847D02*
G01X-2749558Y1333511D01*
G01X-2750548Y1309837D02*
G01X-2749558Y1308847D01*
G01X-2750548Y1327503D02*
G01X-2750548Y1309837D01*
G54D72*
G01X-2849797Y1328268D02*
G01X-2844554Y1333511D01*
G01X-3023121Y1328268D02*
G01X-2849797Y1328268D01*
G54D67*
G01X-391601Y196448D02*
G01X-391601Y102892D01*
G01X-330547Y257502D02*
G01X-391601Y196448D01*
G01X-2340548Y-1912499D02*
G01X-2260548Y-1992499D01*
G01X-2260548Y-2012204D01*
G01X-2250602Y-2022151D02*
G01X-2260548Y-2012204D01*
G54D73*
G01X-391601Y-102892D02*
G01X-391601Y-239498D01*
G54D68*
G01X-491180Y-49591D02*
G01X-441588Y0D01*
G01X-518132Y-49591D02*
G01X-491180Y-49591D01*
G01X-518528Y-49987D02*
G01X-518132Y-49591D01*
G01X-544480Y-49987D02*
G01X-518528Y-49987D01*
G01X-391997Y49591D02*
G01X-441588Y0D01*
G01X-365045Y49591D02*
G01X-391997Y49591D01*
G01X-364649Y49987D02*
G01X-365045Y49591D01*
G01X-338697Y49987D02*
G01X-364649Y49987D01*
G01X-396588Y-45000D02*
G01X-441588Y0D01*
G01X-343684Y-45000D02*
G01X-396588Y-45000D01*
G01X-338697Y-49987D02*
G01X-343684Y-45000D01*
G01X-1311254Y-49420D02*
G01X-1310662Y-50013D01*
G01X-1389229Y-49420D02*
G01X-1311254Y-49420D01*
G54D70*
G01X-1956549Y0D02*
G01X-2247644Y0D01*
G54D73*
G01X-1511502Y820D02*
G01X-1510661Y-20D01*
G01X-1805889Y-20D02*
G01X-1511502Y-20D01*
G01X-2844548Y927459D02*
G01X-2844548Y887426D01*
G01X-2844548Y784148D01*
G54D67*
G01X-1721422Y-208974D02*
G01X-1721422Y-106474D01*
G01X-1636075Y-208974D02*
G01X-1721422Y-208974D01*
G01X-1740548Y-2092204D02*
G01X-1740548Y-2092499D01*
G01X-1810601Y-2022151D02*
G01X-1740548Y-2092204D01*
G54D70*
G01X-2300548Y-402498D02*
G01X-2300548Y-102892D01*
G54D67*
G01X-1566902Y75580D02*
G01X-1541308Y49987D01*
G01X-1566902Y162153D02*
G01X-1566902Y75580D01*
G01X-1592429Y187680D02*
G01X-1566902Y162153D01*
G01X-1510661Y49987D02*
G01X-1541308Y49987D01*
G01X-1197922Y132080D02*
G01X-1067796Y132080D01*
G01X-1280015Y49987D02*
G01X-1197922Y132080D01*
G01X-1310662Y49987D02*
G01X-1280015Y49987D01*
G01X-1721422Y-106474D02*
G01X-1721108Y-106161D01*
G54D68*
G01X-1654281Y242680D02*
G01X-1692506Y242680D01*
G01X-1639081Y257880D02*
G01X-1654281Y242680D01*
G01X-1637229Y257880D02*
G01X-1639081Y257880D01*
G01X-1592429Y302680D02*
G01X-1637229Y257880D01*
G54D73*
G01X-2400523Y-221844D02*
G01X-2400523Y-102892D01*
G54D74*
G01X-1064029Y320840D02*
G01X-1065891Y318978D01*
G01X-930889Y320840D02*
G01X-1064029Y320840D01*
G54D67*
G01X-1065891Y133985D02*
G01X-1067796Y132080D01*
G01X-1065891Y227538D02*
G01X-1065891Y133985D01*
G54D73*
G01X-491576Y-102892D02*
G01X-491576Y-406660D01*
G01X-2844554Y520989D02*
G01X-2844554Y594150D01*
G54D75*
G01X-2844554Y520989D02*
G01X-2844554Y513369D01*
G01X-488880Y47291D02*
G01X-441588Y0D01*
G01X-519085Y47291D02*
G01X-488880Y47291D01*
G01X-521781Y49987D02*
G01X-519085Y47291D01*
G01X-544480Y49987D02*
G01X-521781Y49987D01*
G01X-2649643Y1098425D02*
G01X-2654562Y1093506D01*
G01X-2648621Y1098425D02*
G01X-2649643Y1098425D01*
G54D67*
G01X-1637288Y-106161D02*
G01X-1634748Y-108701D01*
G01X-1721108Y-106161D02*
G01X-1637288Y-106161D01*
G54D70*
G01X-338697Y0D02*
G01X129112Y0D01*
G01X-895922Y-406D02*
G01X-822791Y-406D01*
G54D75*
G01X-895922Y-406D02*
G01X-901002Y-406D01*
G54D70*
G01X-544886Y-406D02*
G01X-703132Y-406D01*
G01X-544886Y-406D02*
G01X-544480Y0D01*
G54D67*
G01X-2656547Y1331526D02*
G01X-2654562Y1333511D01*
G01X-2656547Y1330498D02*
G01X-2656547Y1331526D01*
G54D73*
G01X-2844547Y279712D02*
G01X-2844547Y393289D01*
G54D70*
G01X-2453724Y-297D02*
G01X-2453427Y0D01*
G01X-2654555Y-297D02*
G01X-2453724Y-297D01*
G01X-3213027Y-322D02*
G01X-2844571Y-322D01*
G01X-1026551Y0D02*
G01X-1072009Y0D01*
G01X-1310662Y0D01*
G54D72*
G01X-3248053Y1250001D02*
G01X-3170549Y1327505D01*
G01X-3169786Y1328268D01*
G54D67*
G01X-860547Y386502D02*
G01X-925888Y321161D01*
G01X-925888Y320840D01*
G54D73*
G01X-1720997Y-452498D02*
G01X-2244548Y-452498D01*
G01X-1600228Y-452498D02*
G01X-1484184Y-452498D01*
G01X-1483692Y-452005D01*
G01X-664999Y-452198D02*
G01X-540999Y-452198D01*
G54D69*
G01X-1483692Y-401993D02*
G01X-1483692Y-313180D01*
G01X-1455469Y-284957D01*
G01X-1483692Y-501993D02*
G01X-1413689Y-501993D01*
G01X-1388696Y-476999D01*
G01X-1293700Y-401993D02*
G01X-1322476Y-401993D01*
G01X-875998Y-553799D02*
G01X-875998Y-668609D01*
G01X-864536Y-680071D01*
G54D73*
G01X-1293700Y-452005D02*
G01X-875998Y-452005D01*
G01X-825998Y-452005D01*
G54D69*
G01X-1293700Y-501993D02*
G01X-1339916Y-501993D01*
G01X-1364909Y-476999D01*
G01X-1322476Y-401993D02*
G01X-1388696Y-468213D01*
G01X-1388696Y-476999D01*
G54D67*
G01X-2400523Y102892D02*
G01X-2400523Y179686D01*
G01X-2463544Y242708D01*
G54D68*
G01X-3218619Y887426D02*
G01X-2946148Y887426D01*
G04 Track End*

M02*

