G04 Layer: InnerLayer2*
G04 EasyEDA Pro v2.1.64.d1969c9c.217bcf, 2024-08-30 02:53:31*
G04 Gerber Generator version 0.3*
G04 Scale: 100 percent, Rotated: No, Reflected: No*
G04 Dimensions in millimeters*
G04 Leading zeros omitted, absolute positions, 3 integers and 5 decimals*
%FSLAX35Y35*%
%MOMM*%
%ADD10C,5.2*%
%ADD11C,1.1*%
%ADD12C,0.45*%
%ADD13C,0.50002*%
%ADD14C,0.6*%
%ADD15C,0.55*%
%ADD16C,0.8*%
%ADD17C,0.6551*%
%ADD18C,0.65*%
G75*


G04 PlaneZone Start*
G36*
G01X541730Y-2058926D02*
G03X574430Y-2104532I48154J0D01*
G01X505338D01*
G03X538038Y-2058926I-15454J45607D01*
G03X489884Y-2010771I-48154J0D01*
G03X441730Y-2058926I0J-48154D01*
G03X474430Y-2104532I48154J0D01*
G01X405338D01*
G03X438038Y-2058926I-15454J45607D01*
G03X389884Y-2010771I-48154J0D01*
G03X341730Y-2058926I0J-48154D01*
G03X374430Y-2104532I48154J0D01*
G01X305338D01*
G03X338038Y-2058926I-15454J45607D01*
G03X289884Y-2010771I-48154J0D01*
G03X241730Y-2058926I0J-48154D01*
G03X274430Y-2104532I48154J0D01*
G01X205338D01*
G03X238038Y-2058926I-15454J45607D01*
G03X189884Y-2010771I-48154J0D01*
G03X141730Y-2058926I0J-48154D01*
G03X174430Y-2104532I48154J0D01*
G01X105338D01*
G03X138038Y-2058926I-15454J45607D01*
G03X89884Y-2010771I-48154J0D01*
G03X41730Y-2058926I0J-48154D01*
G03X74430Y-2104532I48154J0D01*
G01X5337D01*
G03X38038Y-2058926I-15454J45607D01*
G03X-10116Y-2010771I-48154J0D01*
G03X-58270Y-2058926I0J-48154D01*
G03X-25570Y-2104532I48154J0D01*
G01X-94663D01*
G03X-61962Y-2058926I-15454J45607D01*
G03X-110116Y-2010771I-48154J0D01*
G03X-158270Y-2058926I0J-48154D01*
G03X-125570Y-2104532I48154J0D01*
G01X-194663D01*
G03X-161962Y-2058926I-15454J45607D01*
G03X-210116Y-2010771I-48154J0D01*
G03X-258271Y-2058926I0J-48154D01*
G03X-225570Y-2104532I48154J0D01*
G01X-294663D01*
G03X-261962Y-2058926I-15454J45607D01*
G03X-310116Y-2010771I-48154J0D01*
G03X-358271Y-2058926I0J-48154D01*
G03X-325570Y-2104532I48154J0D01*
G01X-394663D01*
G03X-361962Y-2058926I-15454J45607D01*
G03X-410117Y-2010771I-48154J0D01*
G03X-458271Y-2058926I0J-48154D01*
G03X-425570Y-2104532I48154J0D01*
G01X-494663D01*
G03X-461962Y-2058926I-15454J45607D01*
G03X-510117Y-2010771I-48154J0D01*
G03X-558271Y-2058926I0J-48154D01*
G03X-525570Y-2104532I48154J0D01*
G01X-594663D01*
G03X-561963Y-2058926I-15454J45607D01*
G03X-610117Y-2010771I-48154J0D01*
G03X-658271Y-2058926I0J-48154D01*
G03X-625570Y-2104532I48154J0D01*
G01X-694663D01*
G03X-661963Y-2058926I-15454J45607D01*
G03X-710117Y-2010771I-48154J0D01*
G03X-758271Y-2058926I0J-48154D01*
G03X-725570Y-2104532I48154J0D01*
G01X-794663D01*
G03X-761963Y-2058926I-15454J45607D01*
G03X-810117Y-2010771I-48154J0D01*
G03X-858271Y-2058926I0J-48154D01*
G03X-825571Y-2104532I48154J0D01*
G01X-894663D01*
G03X-861963Y-2058926I-15454J45607D01*
G03X-910117Y-2010771I-48154J0D01*
G03X-958271Y-2058926I0J-48154D01*
G03X-925571Y-2104532I48154J0D01*
G01X-994663D01*
G03X-961963Y-2058926I-15454J45607D01*
G03X-1010117Y-2010771I-48154J0D01*
G03X-1058271Y-2058926I0J-48154D01*
G03X-1025571Y-2104532I48154J0D01*
G01X-1094663D01*
G03X-1061963Y-2058926I-15454J45607D01*
G03X-1110117Y-2010771I-48154J0D01*
G03X-1158271Y-2058926I0J-48154D01*
G03X-1125571Y-2104532I48154J0D01*
G01X-1194663D01*
G03X-1161963Y-2058926I-15454J45607D01*
G03X-1210117Y-2010771I-48154J0D01*
G03X-1258271Y-2058926I0J-48154D01*
G03X-1225571Y-2104532I48154J0D01*
G01X-1294663D01*
G03X-1261963Y-2058926I-15454J45607D01*
G03X-1310117Y-2010771I-48154J0D01*
G03X-1358271Y-2058926I0J-48154D01*
G03X-1325571Y-2104532I48154J0D01*
G01X-1394663D01*
G03X-1361963Y-2058926I-15454J45607D01*
G03X-1410117Y-2010771I-48154J0D01*
G03X-1458271Y-2058926I0J-48154D01*
G03X-1425571Y-2104532I48154J0D01*
G01X-1494663D01*
G03X-1461963Y-2058926I-15454J45607D01*
G03X-1510117Y-2010771I-48154J0D01*
G03X-1558271Y-2058926I0J-48154D01*
G03X-1525571Y-2104532I48154J0D01*
G01X-1594663D01*
G03X-1561963Y-2058926I-15454J45607D01*
G03X-1610117Y-2010771I-48154J0D01*
G03X-1658271Y-2058926I0J-48154D01*
G03X-1625571Y-2104532I48154J0D01*
G01X-1694663D01*
G03X-1661963Y-2058926I-15454J45607D01*
G03X-1675118Y-2025852I-48154J0D01*
G03X-1444686Y-1745587I-55222J280265D01*
G03X-1730340Y-1459933I-285654J0D01*
G03X-1909403Y-1523023I0J-285654D01*
G03X-1949998Y-1500769I-40595J-25901D01*
G03X-1998152Y-1548923I0J-48154D01*
G03X-1971270Y-1592124I48154J0D01*
G03X-2004581Y-1665650I240931J-153462D01*
G03X-2050000Y-1633496I-45418J-16000D01*
G03X-2089286Y-1653804I0J-48154D01*
G01Y-1609497D01*
G03X-2050000Y-1629804I39286J27846D01*
G03X-2001846Y-1581650I0J48154D01*
G03X-2050000Y-1533496I-48154J0D01*
G03X-2089286Y-1553804I0J-48154D01*
G01Y-1509497D01*
G03X-2050000Y-1529804I39286J27846D01*
G03X-2001846Y-1481650I0J48154D01*
G03X-2050000Y-1433496I-48154J0D01*
G03X-2089286Y-1453804I0J-48154D01*
G01Y-1409496D01*
G03X-2050000Y-1429804I39286J27846D01*
G03X-2001846Y-1381650I0J48154D01*
G03X-2050000Y-1333496I-48154J0D01*
G03X-2089286Y-1353804I0J-48154D01*
G01Y-1309496D01*
G03X-2050000Y-1329804I39286J27846D01*
G03X-2001846Y-1281650I0J48154D01*
G03X-2050000Y-1233496I-48154J0D01*
G03X-2089286Y-1253804I0J-48154D01*
G01Y-1209496D01*
G03X-2050000Y-1229804I39286J27846D01*
G03X-2001846Y-1181650I0J48154D01*
G03X-2050000Y-1133496I-48154J0D01*
G03X-2089286Y-1153804I0J-48154D01*
G01Y-1109496D01*
G03X-2050000Y-1129804I39286J27846D01*
G03X-2001846Y-1081650I0J48154D01*
G03X-2050000Y-1033496I-48154J0D01*
G03X-2089286Y-1053804I0J-48154D01*
G01Y-1009496D01*
G03X-2050000Y-1029804I39286J27846D01*
G03X-2001846Y-981650I0J48154D01*
G03X-2050000Y-933496I-48154J0D01*
G03X-2089286Y-953804I0J-48154D01*
G01Y-909496D01*
G03X-2050000Y-929804I39286J27846D01*
G03X-2001846Y-881650I0J48154D01*
G03X-2050000Y-833496I-48154J0D01*
G03X-2089286Y-853804I0J-48154D01*
G01Y-809496D01*
G03X-2050000Y-829804I39286J27846D01*
G03X-2001846Y-781650I0J48154D01*
G03X-2050000Y-733496I-48154J0D01*
G03X-2089286Y-753804I0J-48154D01*
G01Y-709496D01*
G03X-2050000Y-729804I39286J27846D01*
G03X-2001846Y-681650I0J48154D01*
G03X-2050000Y-633496I-48154J0D01*
G03X-2089286Y-653804I0J-48154D01*
G01Y-609496D01*
G03X-2050000Y-629804I39286J27846D01*
G03X-2001846Y-581650I0J48154D01*
G03X-2050000Y-533496I-48154J0D01*
G03X-2089286Y-553804I0J-48154D01*
G01Y-509496D01*
G03X-2050000Y-529804I39286J27846D01*
G03X-2001846Y-481650I0J48154D01*
G03X-2050000Y-433496I-48154J0D01*
G03X-2089286Y-453804I0J-48154D01*
G01Y-409496D01*
G03X-2050000Y-429804I39286J27846D01*
G03X-2001846Y-381650I0J48154D01*
G03X-2050000Y-333496I-48154J0D01*
G03X-2089286Y-353804I0J-48154D01*
G01Y-309496D01*
G03X-2050000Y-329804I39286J27846D01*
G03X-2001846Y-281650I0J48154D01*
G03X-2050000Y-233496I-48154J0D01*
G03X-2089286Y-253803I0J-48154D01*
G01Y-209496D01*
G03X-2050000Y-229804I39286J27846D01*
G03X-2001846Y-181650I0J48154D01*
G03X-2050000Y-133496I-48154J0D01*
G03X-2089286Y-153803I0J-48154D01*
G01Y-109496D01*
G03X-2050000Y-129804I39286J27846D01*
G03X-2001846Y-81650I0J48154D01*
G03X-2050000Y-33495I-48154J0D01*
G03X-2089286Y-53803I0J-48154D01*
G01Y-9496D01*
G03X-2050000Y-29804I39286J27846D01*
G03X-2001846Y18350I0J48154D01*
G03X-2050000Y66505I-48154J0D01*
G03X-2089286Y46197I0J-48154D01*
G01Y90504D01*
G03X-2050000Y70196I39286J27846D01*
G03X-2001846Y118351I0J48154D01*
G03X-2050000Y166505I-48154J0D01*
G03X-2089286Y146197I0J-48154D01*
G01Y190504D01*
G03X-2050000Y170197I39286J27846D01*
G03X-2001846Y218351I0J48154D01*
G03X-2050000Y266505I-48154J0D01*
G03X-2089286Y246197I0J-48154D01*
G01Y347978D01*
G03X-2042236Y310078I47050J10254D01*
G03X-1994082Y358232I0J48154D01*
G03X-1994579Y365135I-48154J0D01*
G01X-1992236Y365078D01*
G01X-1989893Y365135D01*
G03X-1990390Y358232I47657J-6903D01*
G03X-1942236Y310078I48154J0D01*
G03X-1894082Y358232I0J48154D01*
G03X-1894579Y365135I-48154J0D01*
G01X-1892236Y365078D01*
G01X-1889893Y365135D01*
G03X-1890390Y358232I47657J-6903D01*
G03X-1842236Y310078I48154J0D01*
G03X-1794082Y358232I0J48154D01*
G03X-1794579Y365135I-48154J0D01*
G01X-1792236Y365078D01*
G01X-1789893Y365135D01*
G03X-1790390Y358232I47657J-6903D01*
G03X-1742236Y310078I48154J0D01*
G03X-1694082Y358232I0J48154D01*
G03X-1694579Y365135I-48154J0D01*
G01X-1692236Y365078D01*
G01X-1689893Y365135D01*
G03X-1690390Y358232I47657J-6903D01*
G03X-1642236Y310078I48154J0D01*
G03X-1594082Y358232I0J48154D01*
G03X-1594579Y365135I-48154J0D01*
G01X-1592236Y365078D01*
G01X-1589893Y365135D01*
G03X-1590390Y358232I47657J-6903D01*
G03X-1542236Y310078I48154J0D01*
G03X-1494082Y358232I0J48154D01*
G03X-1494579Y365135I-48154J0D01*
G01X-1492236Y365078D01*
G01X-1489893Y365135D01*
G03X-1490390Y358232I47657J-6903D01*
G03X-1442236Y310078I48154J0D01*
G03X-1394082Y358232I0J48154D01*
G03X-1394579Y365135I-48154J0D01*
G01X-1392236Y365078D01*
G01X-1389893Y365135D01*
G03X-1390390Y358232I47657J-6903D01*
G03X-1342236Y310078I48154J0D01*
G03X-1294082Y358232I0J48154D01*
G03X-1294579Y365135I-48154J0D01*
G01X-1292236Y365078D01*
G01X-1289893Y365135D01*
G03X-1290390Y358232I47657J-6903D01*
G03X-1242236Y310078I48154J0D01*
G03X-1194082Y358232I0J48154D01*
G03X-1194579Y365135I-48154J0D01*
G01X-1192236Y365078D01*
G03X-1144082Y413232I0J48154D01*
G03X-1192236Y461386I-48154J0D01*
G03X-1240390Y413232I0J-48154D01*
G03X-1239893Y406329I48154J0D01*
G01X-1242236Y406386D01*
G01X-1244579Y406329D01*
G03X-1244082Y413232I-47657J6903D01*
G03X-1292236Y461386I-48154J0D01*
G03X-1340390Y413232I0J-48154D01*
G03X-1339893Y406329I48154J0D01*
G01X-1342236Y406386D01*
G01X-1344579Y406329D01*
G03X-1344082Y413232I-47657J6903D01*
G03X-1392236Y461386I-48154J0D01*
G03X-1440390Y413232I0J-48154D01*
G03X-1439893Y406329I48154J0D01*
G01X-1442236Y406386D01*
G01X-1444579Y406329D01*
G03X-1444082Y413232I-47657J6903D01*
G03X-1492236Y461386I-48154J0D01*
G03X-1540390Y413232I0J-48154D01*
G03X-1539893Y406329I48154J0D01*
G01X-1542236Y406386D01*
G01X-1544579Y406329D01*
G03X-1544082Y413232I-47657J6903D01*
G03X-1592236Y461386I-48154J0D01*
G03X-1640390Y413232I0J-48154D01*
G03X-1639893Y406329I48154J0D01*
G01X-1642236Y406386D01*
G01X-1644579Y406329D01*
G03X-1644082Y413232I-47657J6903D01*
G03X-1692236Y461386I-48154J0D01*
G03X-1740390Y413232I0J-48154D01*
G03X-1739893Y406329I48154J0D01*
G01X-1742236Y406386D01*
G01X-1744579Y406329D01*
G03X-1744082Y413232I-47657J6903D01*
G03X-1792236Y461386I-48154J0D01*
G03X-1840390Y413232I0J-48154D01*
G03X-1839893Y406329I48154J0D01*
G01X-1842236Y406386D01*
G01X-1844579Y406329D01*
G03X-1844082Y413232I-47657J6903D01*
G03X-1892236Y461386I-48154J0D01*
G03X-1940390Y413232I0J-48154D01*
G03X-1939893Y406329I48154J0D01*
G01X-1942236Y406386D01*
G01X-1944579Y406329D01*
G03X-1944082Y413232I-47657J6903D01*
G03X-1992236Y461386I-48154J0D01*
G03X-2040390Y413232I0J-48154D01*
G03X-2039893Y406329I48154J0D01*
G01X-2042236Y406386D01*
G01X-2044579Y406329D01*
G03X-2044082Y413232I-47657J6903D01*
G03X-2089286Y461295I-48154J0D01*
G01Y545967D01*
G03X-2044298Y594017I-3166J48050D01*
G03X-2044795Y600920I-48154J0D01*
G01X-2042452Y600863D01*
G01X-2040109Y600920D01*
G03X-2040606Y594017I47657J-6903D01*
G03X-1992452Y545863I48154J0D01*
G03X-1944298Y594017I0J48154D01*
G03X-1944795Y600920I-48154J0D01*
G01X-1942452Y600863D01*
G01X-1940109Y600920D01*
G03X-1940606Y594017I47657J-6903D01*
G03X-1892452Y545863I48154J0D01*
G03X-1844298Y594017I0J48154D01*
G03X-1844795Y600920I-48154J0D01*
G01X-1842452Y600863D01*
G01X-1840109Y600920D01*
G03X-1840606Y594017I47657J-6903D01*
G03X-1792452Y545863I48154J0D01*
G03X-1744298Y594017I0J48154D01*
G03X-1744795Y600920I-48154J0D01*
G01X-1742452Y600863D01*
G03X-1694298Y649017I0J48154D01*
G03X-1742452Y697171I-48154J0D01*
G03X-1790606Y649017I0J-48154D01*
G03X-1790109Y642114I48154J0D01*
G01X-1792452Y642171D01*
G01X-1794795Y642114D01*
G03X-1794298Y649017I-47657J6903D01*
G03X-1842452Y697171I-48154J0D01*
G03X-1890606Y649017I0J-48154D01*
G03X-1890108Y642114I48154J0D01*
G01X-1892452Y642171D01*
G01X-1894795Y642114D01*
G03X-1894298Y649017I-47657J6903D01*
G03X-1942452Y697171I-48154J0D01*
G03X-1990606Y649017I0J-48154D01*
G03X-1990109Y642114I48154J0D01*
G01X-1992452Y642171D01*
G01X-1994795Y642114D01*
G03X-1994298Y649017I-47657J6903D01*
G03X-2013213Y687278I-48154J0D01*
G03X-2001846Y718351I-36787J31073D01*
G03X-2050000Y766505I-48154J0D01*
G03X-2089286Y746197I0J-48154D01*
G01Y790505D01*
G03X-2050000Y770197I39286J27846D01*
G03X-2001846Y818351I0J48154D01*
G03X-2050000Y866505I-48154J0D01*
G03X-2089286Y846197I0J-48154D01*
G01Y890505D01*
G03X-2050000Y870197I39286J27846D01*
G03X-2001846Y918351I0J48154D01*
G03X-2050000Y966505I-48154J0D01*
G03X-2089286Y946197I0J-48154D01*
G01Y990505D01*
G03X-2050000Y970197I39286J27846D01*
G03X-2001846Y1018351I0J48154D01*
G03X-2050000Y1066505I-48154J0D01*
G03X-2089286Y1046197I0J-48154D01*
G01Y1090505D01*
G03X-2050000Y1070197I39286J27846D01*
G03X-2001846Y1118351I0J48154D01*
G03X-2050000Y1166505I-48154J0D01*
G03X-2089286Y1146197I0J-48154D01*
G01Y1190505D01*
G03X-2050000Y1170197I39286J27846D01*
G03X-2001846Y1218351I0J48154D01*
G03X-2050000Y1266505I-48154J0D01*
G03X-2089286Y1246197I0J-48154D01*
G01Y1290505D01*
G03X-2050000Y1270197I39286J27846D01*
G03X-2001846Y1318351I0J48154D01*
G03X-2050000Y1366505I-48154J0D01*
G03X-2089286Y1346197I0J-48154D01*
G01Y1390505D01*
G03X-2050000Y1370197I39286J27846D01*
G03X-2001846Y1418351I0J48154D01*
G03X-2050000Y1466505I-48154J0D01*
G03X-2089286Y1446197I0J-48154D01*
G01Y1490505D01*
G03X-2050000Y1470197I39286J27846D01*
G03X-2001846Y1518351I0J48154D01*
G03X-2050000Y1566505I-48154J0D01*
G03X-2089286Y1546198I0J-48154D01*
G01Y1590505D01*
G03X-2050000Y1570197I39286J27846D01*
G03X-2001846Y1618351I0J48154D01*
G03X-2050000Y1666505I-48154J0D01*
G03X-2089286Y1646198I0J-48154D01*
G01Y1690505D01*
G03X-2050000Y1670197I39286J27846D01*
G03X-2012269Y1688432I0J48154D01*
G03X-1797806Y1456841I281929J45982D01*
G03X-1798152Y1451078I47808J-5763D01*
G03X-1749998Y1402924I48154J0D01*
G03X-1701852Y1450184I0J48154D01*
G03X-1444686Y1734414I-28488J284230D01*
G03X-1692069Y2017492I-285654J0D01*
G03X-1664389Y2061077I-20475J43584D01*
G03X-1676813Y2093360I-48154J0D01*
G01X-1648273D01*
G03X-1660697Y2061077I35730J-32283D01*
G03X-1612543Y2012923I48154J0D01*
G03X-1564389Y2061077I0J48154D01*
G03X-1576813Y2093360I-48154J0D01*
G01X-1548273D01*
G03X-1560697Y2061077I35730J-32283D01*
G03X-1512543Y2012923I48154J0D01*
G03X-1464389Y2061077I0J48154D01*
G03X-1476813Y2093360I-48154J0D01*
G01X-1448273D01*
G03X-1460697Y2061077I35730J-32283D01*
G03X-1412543Y2012923I48154J0D01*
G03X-1364389Y2061077I0J48154D01*
G03X-1376813Y2093360I-48154J0D01*
G01X-1348273D01*
G03X-1360697Y2061077I35730J-32283D01*
G03X-1312543Y2012923I48154J0D01*
G03X-1264389Y2061077I0J48154D01*
G03X-1276813Y2093360I-48154J0D01*
G01X-1248273D01*
G03X-1260697Y2061077I35730J-32283D01*
G03X-1212543Y2012923I48154J0D01*
G03X-1164389Y2061077I0J48154D01*
G03X-1176813Y2093360I-48154J0D01*
G01X-1148273D01*
G03X-1160697Y2061077I35730J-32283D01*
G03X-1112543Y2012923I48154J0D01*
G03X-1064389Y2061077I0J48154D01*
G03X-1076813Y2093360I-48154J0D01*
G01X-1048273D01*
G03X-1060697Y2061077I35730J-32283D01*
G03X-1012543Y2012923I48154J0D01*
G03X-964389Y2061077I0J48154D01*
G03X-976813Y2093360I-48154J0D01*
G01X-948273D01*
G03X-960697Y2061077I35730J-32283D01*
G03X-912543Y2012923I48154J0D01*
G03X-864389Y2061077I0J48154D01*
G03X-876813Y2093360I-48154J0D01*
G01X-848273D01*
G03X-860697Y2061077I35730J-32283D01*
G03X-812543Y2012923I48154J0D01*
G03X-764389Y2061077I0J48154D01*
G03X-776813Y2093360I-48154J0D01*
G01X-748273D01*
G03X-760697Y2061077I35730J-32283D01*
G03X-712543Y2012923I48154J0D01*
G03X-664389Y2061077I0J48154D01*
G03X-676813Y2093360I-48154J0D01*
G01X-648273D01*
G03X-660697Y2061077I35730J-32283D01*
G03X-612543Y2012923I48154J0D01*
G03X-564389Y2061077I0J48154D01*
G03X-576813Y2093360I-48154J0D01*
G01X-548273D01*
G03X-560697Y2061077I35730J-32283D01*
G03X-512543Y2012923I48154J0D01*
G03X-464389Y2061077I0J48154D01*
G03X-476813Y2093360I-48154J0D01*
G01X-448273D01*
G03X-460697Y2061077I35730J-32283D01*
G03X-412543Y2012923I48154J0D01*
G03X-364389Y2061077I0J48154D01*
G03X-376813Y2093360I-48154J0D01*
G01X-348273D01*
G03X-360697Y2061077I35730J-32283D01*
G03X-312543Y2012923I48154J0D01*
G03X-264389Y2061077I0J48154D01*
G03X-276813Y2093360I-48154J0D01*
G01X-248273D01*
G03X-260697Y2061077I35730J-32283D01*
G03X-212543Y2012923I48154J0D01*
G03X-164389Y2061077I0J48154D01*
G03X-176813Y2093360I-48154J0D01*
G01X-148273D01*
G03X-160697Y2061077I35730J-32283D01*
G03X-112543Y2012923I48154J0D01*
G03X-64388Y2061077I0J48154D01*
G03X-76813Y2093360I-48154J0D01*
G01X-48272D01*
G03X-60697Y2061077I35730J-32283D01*
G03X-12543Y2012923I48154J0D01*
G03X35612Y2061077I0J48154D01*
G03X23187Y2093360I-48154J0D01*
G01X51728D01*
G03X39303Y2061077I35730J-32283D01*
G03X87458Y2012923I48154J0D01*
G03X135612Y2061077I0J48154D01*
G03X123188Y2093360I-48154J0D01*
G01X151728D01*
G03X139304Y2061077I35730J-32283D01*
G03X187458Y2012923I48154J0D01*
G03X235612Y2061077I0J48154D01*
G03X223188Y2093360I-48154J0D01*
G01X251728D01*
G03X239304Y2061077I35730J-32283D01*
G03X287458Y2012923I48154J0D01*
G03X335612Y2061077I0J48154D01*
G03X323188Y2093360I-48154J0D01*
G01X351728D01*
G03X339304Y2061077I35730J-32283D01*
G03X387458Y2012923I48154J0D01*
G03X435612Y2061077I0J48154D01*
G03X423188Y2093360I-48154J0D01*
G01X451728D01*
G03X439304Y2061077I35730J-32283D01*
G03X487458Y2012923I48154J0D01*
G03X535612Y2061077I0J48154D01*
G03X523188Y2093360I-48154J0D01*
G01X551728D01*
G03X539304Y2061077I35730J-32283D01*
G03X587458Y2012923I48154J0D01*
G03X635612Y2061077I0J48154D01*
G03X623188Y2093360I-48154J0D01*
G01X651728D01*
G03X639304Y2061077I35730J-32283D01*
G03X687458Y2012923I48154J0D01*
G03X735612Y2061077I0J48154D01*
G03X723188Y2093360I-48154J0D01*
G01X751728D01*
G03X739304Y2061077I35730J-32283D01*
G03X787458Y2012923I48154J0D01*
G03X835612Y2061077I0J48154D01*
G03X823188Y2093360I-48154J0D01*
G01X851728D01*
G03X839304Y2061077I35730J-32283D01*
G03X887458Y2012923I48154J0D01*
G03X935612Y2061077I0J48154D01*
G03X923188Y2093360I-48154J0D01*
G01X951728D01*
G03X939304Y2061077I35730J-32283D01*
G03X987458Y2012923I48154J0D01*
G03X1035612Y2061077I0J48154D01*
G03X1023188Y2093360I-48154J0D01*
G01X1051728D01*
G03X1039304Y2061077I35730J-32283D01*
G03X1087458Y2012923I48154J0D01*
G03X1135612Y2061077I0J48154D01*
G03X1123188Y2093360I-48154J0D01*
G01X1151728D01*
G03X1139304Y2061077I35730J-32283D01*
G03X1187458Y2012923I48154J0D01*
G03X1235612Y2061077I0J48154D01*
G03X1223188Y2093360I-48154J0D01*
G01X1251728D01*
G03X1239304Y2061077I35730J-32283D01*
G03X1287458Y2012923I48154J0D01*
G03X1335612Y2061077I0J48154D01*
G03X1323188Y2093360I-48154J0D01*
G01X1351728D01*
G03X1339304Y2061077I35730J-32283D01*
G03X1387458Y2012923I48154J0D01*
G03X1435612Y2061077I0J48154D01*
G03X1423188Y2093360I-48154J0D01*
G01X1451728D01*
G03X1439304Y2061077I35730J-32283D01*
G03X1487458Y2012923I48154J0D01*
G03X1535612Y2061077I0J48154D01*
G03X1523188Y2093360I-48154J0D01*
G01X1551728D01*
G03X1539304Y2061077I35730J-32283D01*
G03X1587458Y2012923I48154J0D01*
G03X1635612Y2061077I0J48154D01*
G03X1623188Y2093360I-48154J0D01*
G01X1651728D01*
G03X1639304Y2061077I35730J-32283D01*
G03X1686238Y2012938I48154J0D01*
G03X1495914Y1865605I63422J-278524D01*
G03X1450004Y1899232I-45911J-14527D01*
G03X1401850Y1851078I0J-48154D01*
G03X1450004Y1802924I48154J0D01*
G03X1474006Y1809332I0J48154D01*
G03X1464006Y1734414I275654J-74919D01*
G03X1466561Y1696296I285654J0D01*
G03X1450004Y1699232I-16557J-45218D01*
G03X1401850Y1651078I0J-48154D01*
G03X1450004Y1602924I48154J0D01*
G03X1487529Y1620900I0J48154D01*
G03X1613984Y1483037I262132J113513D01*
G03X1601850Y1451078I36020J-31959D01*
G03X1650004Y1402924I48154J0D01*
G03X1698158Y1451078I0J48154D01*
G01X1698099Y1453452D01*
G03X1749660Y1448760I51561J280962D01*
G03X1801915Y1453580I0J285654D01*
G01X1801850Y1451078D01*
G03X1850004Y1402924I48154J0D01*
G03X1898158Y1451078I0J48154D01*
G03X1885800Y1483288I-48154J0D01*
G03X2024308Y1655884I-136140J251126D01*
G03X2070002Y1622922I45695J15192D01*
G03X2108606Y1642291I0J48154D01*
G01Y1599861D01*
G03X2070002Y1619230I-38604J-28785D01*
G03X2021848Y1571076I0J-48154D01*
G03X2070002Y1522922I48154J0D01*
G03X2108606Y1542291I0J48154D01*
G01Y1499861D01*
G03X2070002Y1519230I-38604J-28785D01*
G03X2021848Y1471076I0J-48154D01*
G03X2070002Y1422922I48154J0D01*
G03X2108606Y1442291I0J48154D01*
G01Y1399861D01*
G03X2070002Y1419230I-38604J-28785D01*
G03X2021848Y1371076I0J-48154D01*
G03X2070002Y1322922I48154J0D01*
G03X2108606Y1342291I0J48154D01*
G01Y1299861D01*
G03X2070002Y1319230I-38604J-28785D01*
G03X2021848Y1271076I0J-48154D01*
G03X2070002Y1222922I48154J0D01*
G03X2108606Y1242291I0J48154D01*
G01Y1199861D01*
G03X2070002Y1219230I-38604J-28785D01*
G03X2021848Y1171076I0J-48154D01*
G03X2070002Y1122922I48154J0D01*
G03X2108606Y1142291I0J48154D01*
G01Y1099861D01*
G03X2070002Y1119230I-38604J-28785D01*
G03X2021848Y1071076I0J-48154D01*
G03X2070002Y1022922I48154J0D01*
G03X2108606Y1042291I0J48154D01*
G01Y999861D01*
G03X2070002Y1019230I-38604J-28785D01*
G03X2029103Y996493I0J-48154D01*
G03X2018460Y997684I-10643J-46963D01*
G03X1970306Y949530I0J-48154D01*
G03X2018460Y901376I48154J0D01*
G03X2035234Y904392I0J48154D01*
G03X2029125Y896530I34769J-33316D01*
G03X2018460Y897726I-10666J-46958D01*
G03X1970306Y849572I0J-48154D01*
G03X2018460Y801417I48154J0D01*
G03X2035296Y804457I0J48154D01*
G03X2029148Y796566I34707J-33381D01*
G03X2018460Y797767I-10688J-46953D01*
G03X1970306Y749613I0J-48154D01*
G03X2018460Y701459I48154J0D01*
G03X2035359Y704522I0J48154D01*
G03X2029171Y696603I34644J-33446D01*
G03X2018460Y697809I-10711J-46948D01*
G03X1970306Y649655I0J-48154D01*
G03X1970803Y642752I48154J0D01*
G01X1968460Y642809D01*
G01X1966117Y642752D01*
G03X1966614Y649655I-47657J6903D01*
G03X1918460Y697809I-48154J0D01*
G03X1870306Y649655I0J-48154D01*
G03X1870803Y642752I48154J0D01*
G01X1868460Y642809D01*
G01X1866117Y642752D01*
G03X1866614Y649655I-47657J6903D01*
G03X1818460Y697809I-48154J0D01*
G03X1770306Y649655I0J-48154D01*
G03X1770803Y642752I48154J0D01*
G01X1768460Y642809D01*
G01X1766117Y642752D01*
G03X1766614Y649655I-47657J6903D01*
G03X1718460Y697809I-48154J0D01*
G03X1684936Y684223I0J-48154D01*
G03X1650004Y699232I-34932J-33145D01*
G03X1601850Y651078I0J-48154D01*
G03X1650004Y602924I48154J0D01*
G03X1683528Y616510I0J48154D01*
G03X1718460Y601501I34932J33145D01*
G01X1720803Y601558D01*
G03X1720306Y594655I47657J-6903D01*
G03X1768460Y546501I48154J0D01*
G03X1816614Y594655I0J48154D01*
G03X1816117Y601558I-48154J0D01*
G01X1818460Y601501D01*
G01X1820803Y601558D01*
G03X1820306Y594655I47657J-6903D01*
G03X1868460Y546501I48154J0D01*
G03X1916614Y594655I0J48154D01*
G03X1916117Y601558I-48154J0D01*
G01X1918460Y601501D01*
G01X1920803Y601558D01*
G03X1920306Y594655I47657J-6903D01*
G03X1968460Y546501I48154J0D01*
G03X2016614Y594655I0J48154D01*
G03X2016117Y601558I-48154J0D01*
G01X2018460Y601501D01*
G01X2020803Y601558D01*
G03X2020306Y594655I47657J-6903D01*
G03X2068460Y546501I48154J0D01*
G03X2108606Y568064I0J48154D01*
G01Y439084D01*
G03X2068460Y460646I-40146J-26592D01*
G03X2020306Y412492I0J-48154D01*
G03X2020804Y405589I48154J0D01*
G01X2018461Y405646D01*
G01X2016117Y405589D01*
G03X2016615Y412492I-47657J6903D01*
G03X1968461Y460646I-48154J0D01*
G03X1920307Y412492I0J-48154D01*
G03X1920804Y405589I48154J0D01*
G01X1918460Y405646D01*
G01X1916117Y405589D01*
G03X1916615Y412492I-47657J6903D01*
G03X1868461Y460646I-48154J0D01*
G03X1820306Y412492I0J-48154D01*
G03X1820804Y405589I48154J0D01*
G01X1818460Y405646D01*
G01X1816117Y405589D01*
G03X1816615Y412492I-47657J6903D01*
G03X1768461Y460646I-48154J0D01*
G03X1720306Y412492I0J-48154D01*
G03X1768461Y364338I48154J0D01*
G01X1770804Y364395D01*
G03X1770306Y357492I47657J-6903D01*
G03X1818460Y309338I48154J0D01*
G03X1866615Y357492I0J48154D01*
G03X1866117Y364395I-48154J0D01*
G01X1868461Y364338D01*
G01X1870804Y364395D01*
G03X1870306Y357492I47657J-6903D01*
G03X1918460Y309338I48154J0D01*
G03X1966615Y357492I0J48154D01*
G03X1966117Y364395I-48154J0D01*
G01X1968461Y364338D01*
G01X1970804Y364395D01*
G03X1970306Y357492I47657J-6903D01*
G03X2018461Y309338I48154J0D01*
G03X2066615Y357492I0J48154D01*
G03X2066117Y364395I-48154J0D01*
G01X2068460Y364338D01*
G03X2108606Y385900I0J48154D01*
G01Y299861D01*
G03X2070002Y319230I-38604J-28785D01*
G03X2034039Y303098I0J-48154D01*
G03X2018461Y305688I-15578J-45565D01*
G03X1970306Y257534I0J-48154D01*
G03X2018461Y209380I48154J0D01*
G03X2054424Y225511I0J48154D01*
G03X2070002Y222922I15578J45565D01*
G03X2108606Y242291I0J48154D01*
G01Y199861D01*
G03X2070002Y219230I-38604J-28785D01*
G03X2034067Y203130I0J-48154D01*
G03X2018461Y205729I-15607J-45555D01*
G03X1970306Y157575I0J-48154D01*
G03X2018461Y109421I48154J0D01*
G03X2054396Y125521I0J48154D01*
G03X2070002Y122922I15607J45555D01*
G03X2108606Y142291I0J48154D01*
G01Y99860D01*
G03X2070002Y119230I-38604J-28785D01*
G03X2034096Y103162I0J-48154D01*
G03X2018461Y105771I-15635J-45545D01*
G03X1970306Y57617I0J-48154D01*
G03X2018461Y9463I48154J0D01*
G03X2054367Y25531I0J48154D01*
G03X2070002Y22921I15635J45545D01*
G03X2108606Y42291I0J48154D01*
G01Y-140D01*
G03X2070002Y19230I-38604J-28785D01*
G03X2021848Y-28925I0J-48154D01*
G03X2070002Y-77079I48154J0D01*
G03X2108606Y-57709I0J48154D01*
G01Y-100140D01*
G03X2070002Y-80770I-38604J-28785D01*
G03X2021848Y-128925I0J-48154D01*
G03X2070002Y-177079I48154J0D01*
G03X2108606Y-157709I0J48154D01*
G01Y-200140D01*
G03X2070002Y-180771I-38604J-28785D01*
G03X2021848Y-228925I0J-48154D01*
G03X2070002Y-277079I48154J0D01*
G03X2108606Y-257710I0J48154D01*
G01Y-300140D01*
G03X2070002Y-280771I-38604J-28785D01*
G03X2021848Y-328925I0J-48154D01*
G03X2070002Y-377079I48154J0D01*
G03X2108606Y-357710I0J48154D01*
G01Y-400140D01*
G03X2070002Y-380771I-38604J-28785D01*
G03X2021848Y-428925I0J-48154D01*
G03X2070002Y-477079I48154J0D01*
G03X2108606Y-457710I0J48154D01*
G01Y-500140D01*
G03X2070002Y-480771I-38604J-28785D01*
G03X2021848Y-528925I0J-48154D01*
G03X2070002Y-577079I48154J0D01*
G03X2108606Y-557710I0J48154D01*
G01Y-600140D01*
G03X2070002Y-580771I-38604J-28785D01*
G03X2021848Y-628925I0J-48154D01*
G03X2070002Y-677079I48154J0D01*
G03X2108606Y-657710I0J48154D01*
G01Y-700140D01*
G03X2070002Y-680771I-38604J-28785D01*
G03X2021848Y-728925I0J-48154D01*
G03X2070002Y-777079I48154J0D01*
G03X2108606Y-757710I0J48154D01*
G01Y-800140D01*
G03X2070002Y-780771I-38604J-28785D01*
G03X2021848Y-828925I0J-48154D01*
G03X2070002Y-877079I48154J0D01*
G03X2108606Y-857710I0J48154D01*
G01Y-900140D01*
G03X2070002Y-880771I-38604J-28785D01*
G03X2021848Y-928925I0J-48154D01*
G03X2070002Y-977079I48154J0D01*
G03X2108606Y-957710I0J48154D01*
G01Y-1000140D01*
G03X2070002Y-980771I-38604J-28785D01*
G03X2021848Y-1028925I0J-48154D01*
G03X2070002Y-1077079I48154J0D01*
G03X2108606Y-1057710I0J48154D01*
G01Y-1100140D01*
G03X2070002Y-1080771I-38604J-28785D01*
G03X2021848Y-1128925I0J-48154D01*
G03X2070002Y-1177079I48154J0D01*
G03X2108606Y-1157710I0J48154D01*
G01Y-1200140D01*
G03X2070002Y-1180771I-38604J-28785D01*
G03X2021848Y-1228925I0J-48154D01*
G03X2070002Y-1277079I48154J0D01*
G03X2108606Y-1257710I0J48154D01*
G01Y-1300140D01*
G03X2070002Y-1280771I-38604J-28785D01*
G03X2021848Y-1328925I0J-48154D01*
G03X2070002Y-1377079I48154J0D01*
G03X2108606Y-1357710I0J48154D01*
G01Y-1400140D01*
G03X2070002Y-1380771I-38604J-28785D01*
G03X2021848Y-1428925I0J-48154D01*
G03X2070002Y-1477079I48154J0D01*
G03X2108606Y-1457710I0J48154D01*
G01Y-1500140D01*
G03X2070002Y-1480771I-38604J-28785D01*
G03X2021848Y-1528925I0J-48154D01*
G03X2070002Y-1577079I48154J0D01*
G03X2108606Y-1557710I0J48154D01*
G01Y-1600140D01*
G03X2070002Y-1580771I-38604J-28785D01*
G03X2021848Y-1628925I0J-48154D01*
G03X2070002Y-1677079I48154J0D01*
G03X2108606Y-1657710I0J48154D01*
G01Y-1710140D01*
G03X2070002Y-1690771I-38604J-28785D01*
G03X2032866Y-1708270I0J-48154D01*
G03X1749660Y-1459933I-283206J-37316D01*
G03X1467065Y-1703893I0J-285654D01*
G03X1450004Y-1700770I-17062J-45030D01*
G03X1401850Y-1748924I0J-48154D01*
G03X1450004Y-1797078I48154J0D01*
G03X1468064Y-1793563I0J48154D01*
G03X1664238Y-2018169I281596J47976D01*
G03X1641731Y-2058926I25646J-40756D01*
G03X1674431Y-2104532I48154J0D01*
G01X1605338D01*
G03X1638039Y-2058926I-15454J45607D01*
G03X1589885Y-2010771I-48154J0D01*
G03X1541730Y-2058926I0J-48154D01*
G03X1574431Y-2104532I48154J0D01*
G01X1505338D01*
G03X1538039Y-2058926I-15454J45607D01*
G03X1489884Y-2010771I-48154J0D01*
G03X1441730Y-2058926I0J-48154D01*
G03X1474431Y-2104532I48154J0D01*
G01X1405338D01*
G03X1438039Y-2058926I-15454J45607D01*
G03X1389884Y-2010771I-48154J0D01*
G03X1341730Y-2058926I0J-48154D01*
G03X1374431Y-2104532I48154J0D01*
G01X1305338D01*
G03X1338038Y-2058926I-15454J45607D01*
G03X1289884Y-2010771I-48154J0D01*
G03X1241730Y-2058926I0J-48154D01*
G03X1274431Y-2104532I48154J0D01*
G01X1205338D01*
G03X1238038Y-2058926I-15454J45607D01*
G03X1189884Y-2010771I-48154J0D01*
G03X1141730Y-2058926I0J-48154D01*
G03X1174431Y-2104532I48154J0D01*
G01X1105338D01*
G03X1138038Y-2058926I-15454J45607D01*
G03X1089884Y-2010771I-48154J0D01*
G03X1041730Y-2058926I0J-48154D01*
G03X1074430Y-2104532I48154J0D01*
G01X1005338D01*
G03X1038038Y-2058926I-15454J45607D01*
G03X989884Y-2010771I-48154J0D01*
G03X941730Y-2058926I0J-48154D01*
G03X974430Y-2104532I48154J0D01*
G01X905338D01*
G03X938038Y-2058926I-15454J45607D01*
G03X889884Y-2010771I-48154J0D01*
G03X841730Y-2058926I0J-48154D01*
G03X874430Y-2104532I48154J0D01*
G01X805338D01*
G03X838038Y-2058926I-15454J45607D01*
G03X789884Y-2010771I-48154J0D01*
G03X741730Y-2058926I0J-48154D01*
G03X774430Y-2104532I48154J0D01*
G01X705338D01*
G03X738038Y-2058926I-15454J45607D01*
G03X689884Y-2010771I-48154J0D01*
G03X641730Y-2058926I0J-48154D01*
G03X674430Y-2104532I48154J0D01*
G01X605338D01*
G03X638038Y-2058926I-15454J45607D01*
G03X589884Y-2010771I-48154J0D01*
G03X541730Y-2058926I0J-48154D01*
G37*
%LPC*%
G36*
G01X893435Y-169719D02*
G03X940680Y-208561I47245J9313D01*
G03X988834Y-160407I0J48154D01*
G03X965045Y-118872I-48154J0D01*
G03X971197Y-95322I-42003J23550D01*
G03X970700Y-88419I-48154J0D01*
G01X973043Y-88476D01*
G01X975386Y-88419D01*
G03X974889Y-95322I47657J-6903D01*
G03X1002873Y-139048I48154J0D01*
G03X1001849Y-148923I47131J-9875D01*
G03X1050003Y-197077I48154J0D01*
G03X1098158Y-148923I0J48154D01*
G03X1096188Y-135292I-48154J0D01*
G03X1123043Y-143476I26855J39970D01*
G03X1171197Y-95322I0J48154D01*
G03X1170700Y-88419I-48154J0D01*
G01X1173043Y-88476D01*
G01X1175386Y-88419D01*
G03X1174889Y-95322I47657J-6903D01*
G03X1202873Y-139048I48154J0D01*
G03X1201850Y-148923I47131J-9875D01*
G03X1250004Y-197077I48154J0D01*
G03X1298158Y-148923I0J48154D01*
G03X1296188Y-135292I-48154J0D01*
G03X1323043Y-143476I26855J39971D01*
G03X1371197Y-95322I0J48154D01*
G03X1370700Y-88419I-48154J0D01*
G01X1373043Y-88476D01*
G01X1375386Y-88419D01*
G03X1374889Y-95322I47657J-6903D01*
G03X1402873Y-139048I48154J0D01*
G03X1401850Y-148923I47131J-9875D01*
G03X1450004Y-197077I48154J0D01*
G03X1498158Y-148923I0J48154D01*
G03X1497837Y-143377I-48154J0D01*
G03X1500913Y-143476I3076J48056D01*
G03X1549068Y-95322I0J48154D01*
G03X1533986Y-60322I-48154J0D01*
G03X1536597Y-57655I-33073J35000D01*
G03X1571624Y-72765I35027J33045D01*
G03X1619778Y-24611I0J48154D01*
G03X1604697Y10389I-48154J0D01*
G03X1607308Y13056I-33073J35000D01*
G03X1642335Y-2054I35027J33044D01*
G03X1690489Y46100I0J48154D01*
G03X1675408Y81100I-48154J0D01*
G03X1678019Y83766I-33073J35000D01*
G03X1713046Y68656I35027J33044D01*
G03X1761200Y116811I0J48154D01*
G03X1746119Y151810I-48154J0D01*
G03X1761200Y186810I-33073J35000D01*
G03X1713046Y234964I-48154J0D01*
G03X1693738Y230924I0J-48154D01*
G03X1698158Y251077I-43734J20153D01*
G03X1650004Y299232I-48154J0D01*
G03X1601850Y251077I0J-48154D01*
G03X1650004Y202923I48154J0D01*
G03X1669312Y206964I0J48154D01*
G03X1664892Y186810I43734J-20153D01*
G03X1679973Y151810I48154J0D01*
G03X1677362Y149144I33073J-35000D01*
G03X1642335Y164254I-35027J-33044D01*
G03X1594181Y116100I0J-48154D01*
G03X1609262Y81100I48154J0D01*
G03X1606651Y78434I33073J-35000D01*
G03X1571624Y93543I-35027J-33044D01*
G03X1523470Y45389I0J-48154D01*
G03X1538551Y10389I48154J0D01*
G03X1535940Y7723I33073J-35000D01*
G03X1500913Y22833I-35027J-33045D01*
G03X1452759Y-25322I0J-48154D01*
G03X1467841Y-60322I48154J0D01*
G03X1461978Y-66987I33073J-35000D01*
G03X1423043Y-47168I-38935J-28335D01*
G01X1420700Y-47225D01*
G03X1421197Y-40321I-47657J6903D01*
G03X1373043Y7833I-48154J0D01*
G03X1324889Y-40321I0J-48154D01*
G03X1325386Y-47225I48154J0D01*
G01X1323043Y-47168D01*
G01X1320700Y-47225D01*
G03X1321197Y-40321I-47657J6903D01*
G03X1273043Y7833I-48154J0D01*
G03X1224889Y-40321I0J-48154D01*
G03X1225386Y-47225I48154J0D01*
G01X1223043Y-47168D01*
G01X1220700Y-47225D01*
G03X1221197Y-40321I-47657J6903D01*
G03X1173043Y7833I-48154J0D01*
G03X1124889Y-40321I0J-48154D01*
G03X1125386Y-47225I48154J0D01*
G01X1123043Y-47168D01*
G01X1120700Y-47225D01*
G03X1121197Y-40321I-47657J6903D01*
G03X1073043Y7833I-48154J0D01*
G03X1024889Y-40321I0J-48154D01*
G03X1025386Y-47225I48154J0D01*
G01X1023043Y-47168D01*
G01X1020699Y-47225D01*
G03X1021197Y-40321I-47657J6903D01*
G03X973043Y7833I-48154J0D01*
G03X924889Y-40321I0J-48154D01*
G03X925386Y-47225I48154J0D01*
G01X923043Y-47168D01*
G01X920700Y-47225D01*
G03X921197Y-40321I-47657J6903D01*
G03X873043Y7833I-48154J0D01*
G03X824889Y-40321I0J-48154D01*
G03X825386Y-47225I48154J0D01*
G01X823043Y-47168D01*
G01X820700Y-47225D01*
G03X821197Y-40321I-47657J6903D01*
G03X773043Y7833I-48154J0D01*
G03X724889Y-40321I0J-48154D01*
G03X725386Y-47225I48154J0D01*
G01X723043Y-47168D01*
G01X720700Y-47225D01*
G03X721197Y-40321I-47657J6903D01*
G03X673043Y7833I-48154J0D01*
G03X624889Y-40321I0J-48154D01*
G03X625386Y-47225I48154J0D01*
G01X623043Y-47168D01*
G01X620700Y-47225D01*
G03X621197Y-40321I-47657J6903D01*
G03X573043Y7833I-48154J0D01*
G03X524889Y-40321I0J-48154D01*
G03X525386Y-47225I48154J0D01*
G01X523043Y-47168D01*
G01X520700Y-47225D01*
G03X521197Y-40321I-47657J6903D01*
G03X473043Y7833I-48154J0D01*
G03X424889Y-40321I0J-48154D01*
G03X425386Y-47225I48154J0D01*
G01X423043Y-47168D01*
G01X420700Y-47225D01*
G03X421197Y-40321I-47657J6903D01*
G03X373043Y7833I-48154J0D01*
G03X324889Y-40321I0J-48154D01*
G03X373043Y-88476I48154J0D01*
G01X375386Y-88419D01*
G03X374889Y-95322I47657J-6903D01*
G03X423043Y-143476I48154J0D01*
G03X471197Y-95322I0J48154D01*
G03X470700Y-88419I-48154J0D01*
G01X473043Y-88476D01*
G01X475386Y-88419D01*
G03X474889Y-95322I47657J-6903D01*
G03X523043Y-143476I48154J0D01*
G03X571197Y-95322I0J48154D01*
G03X570700Y-88419I-48154J0D01*
G01X573043Y-88476D01*
G01X575386Y-88419D01*
G03X574889Y-95322I47657J-6903D01*
G03X602873Y-139048I48154J0D01*
G03X601849Y-148923I47131J-9875D01*
G03X650003Y-197077I48154J0D01*
G03X698157Y-148923I0J48154D01*
G03X696188Y-135292I-48154J0D01*
G03X723043Y-143476I26855J39970D01*
G03X771197Y-95322I0J48154D01*
G03X770699Y-88419I-48154J0D01*
G01X773043Y-88476D01*
G01X775386Y-88419D01*
G03X774889Y-95322I47657J-6903D01*
G03X802873Y-139048I48154J0D01*
G03X801849Y-148923I47131J-9875D01*
G03X850003Y-197077I48154J0D01*
G03X893435Y-169719I0J48154D01*
G37*
G36*
G01X232850Y140066D02*
G03X281004Y91912I48154J0D01*
G03X327296Y126805I0J48154D01*
G03X373042Y93687I45746J15037D01*
G03X421197Y141841I0J48154D01*
G03X420699Y148744I-48154J0D01*
G01X423042Y148687D01*
G01X425386Y148744D01*
G03X424888Y141841I47657J-6903D01*
G03X473042Y93687I48154J0D01*
G03X521197Y141841I0J48154D01*
G03X520699Y148744I-48154J0D01*
G01X523042Y148687D01*
G01X525386Y148744D01*
G03X524888Y141841I47657J-6903D01*
G03X573042Y93687I48154J0D01*
G03X621196Y141841I0J48154D01*
G03X620699Y148744I-48154J0D01*
G01X623042Y148687D01*
G01X625386Y148744D01*
G03X624888Y141841I47657J-6903D01*
G03X673042Y93687I48154J0D01*
G03X721196Y141841I0J48154D01*
G03X720699Y148744I-48154J0D01*
G01X723042Y148687D01*
G01X725386Y148744D01*
G03X724888Y141841I47657J-6903D01*
G03X773042Y93687I48154J0D01*
G03X821196Y141841I0J48154D01*
G03X820699Y148744I-48154J0D01*
G01X823042Y148687D01*
G01X825386Y148744D01*
G03X824888Y141841I47657J-6903D01*
G03X873042Y93687I48154J0D01*
G03X921197Y141841I0J48154D01*
G03X920699Y148744I-48154J0D01*
G01X923042Y148687D01*
G01X925386Y148744D01*
G03X924888Y141841I47657J-6903D01*
G03X973043Y93687I48154J0D01*
G03X1021197Y141841I0J48154D01*
G03X1020699Y148744I-48154J0D01*
G01X1023042Y148687D01*
G01X1025386Y148744D01*
G03X1024888Y141841I47657J-6903D01*
G03X1073042Y93687I48154J0D01*
G03X1121196Y141841I0J48154D01*
G03X1120699Y148744I-48154J0D01*
G01X1123042Y148687D01*
G01X1125386Y148744D01*
G03X1124888Y141841I47657J-6903D01*
G03X1173042Y93687I48154J0D01*
G03X1221196Y141841I0J48154D01*
G03X1220699Y148744I-48154J0D01*
G01X1223043Y148687D01*
G01X1225386Y148744D01*
G03X1224888Y141841I47657J-6903D01*
G03X1273042Y93687I48154J0D01*
G03X1321196Y141841I0J48154D01*
G03X1320699Y148744I-48154J0D01*
G01X1323042Y148687D01*
G01X1325386Y148744D01*
G03X1324888Y141841I47657J-6903D01*
G03X1373042Y93687I48154J0D01*
G03X1421197Y141841I0J48154D01*
G03X1415795Y164000I-48154J0D01*
G03X1447108Y209113I-16842J45113D01*
G03X1398954Y257267I-48154J0D01*
G03X1392051Y256770I0J-48154D01*
G01X1392108Y259113D01*
G01X1392051Y261456D01*
G03X1398954Y260959I6903J47657D01*
G03X1447108Y309113I0J48154D01*
G03X1398954Y357267I-48154J0D01*
G03X1364205Y342449I0J-48154D01*
G03X1366614Y357492I-45744J15043D01*
G03X1318460Y405646I-48154J0D01*
G01X1316117Y405589D01*
G03X1316615Y412492I-47657J6903D01*
G03X1268461Y460646I-48154J0D01*
G03X1220306Y412492I0J-48154D01*
G03X1220804Y405589I48154J0D01*
G01X1218461Y405646D01*
G01X1216117Y405589D01*
G03X1216615Y412492I-47657J6903D01*
G03X1168460Y460646I-48154J0D01*
G03X1120306Y412492I0J-48154D01*
G03X1120804Y405589I48154J0D01*
G01X1118461Y405646D01*
G01X1116117Y405589D01*
G03X1116614Y412492I-47657J6903D01*
G03X1068460Y460646I-48154J0D01*
G03X1020306Y412492I0J-48154D01*
G03X1020804Y405589I48154J0D01*
G01X1018460Y405646D01*
G01X1016117Y405589D01*
G03X1016615Y412492I-47657J6903D01*
G03X968461Y460646I-48154J0D01*
G03X920307Y412492I0J-48154D01*
G03X920804Y405589I48154J0D01*
G01X918460Y405646D01*
G01X916117Y405589D01*
G03X916615Y412492I-47657J6903D01*
G03X868461Y460646I-48154J0D01*
G03X820306Y412492I0J-48154D01*
G03X820804Y405589I48154J0D01*
G01X818460Y405646D01*
G01X816117Y405589D01*
G03X816615Y412492I-47657J6903D01*
G03X768460Y460646I-48154J0D01*
G03X720306Y412492I0J-48154D01*
G03X720804Y405589I48154J0D01*
G01X718461Y405646D01*
G03X670307Y357492I0J-48154D01*
G03X718461Y309338I48154J0D01*
G03X766615Y357492I0J48154D01*
G03X766117Y364395I-48154J0D01*
G01X768460Y364338D01*
G01X770804Y364395D01*
G03X770306Y357492I47657J-6903D01*
G03X818460Y309338I48154J0D01*
G03X866614Y357492I0J48154D01*
G03X866117Y364395I-48154J0D01*
G01X868461Y364338D01*
G01X870804Y364395D01*
G03X870306Y357492I47657J-6903D01*
G03X918460Y309338I48154J0D01*
G03X966615Y357492I0J48154D01*
G03X966117Y364395I-48154J0D01*
G01X968461Y364338D01*
G01X970804Y364395D01*
G03X970306Y357492I47657J-6903D01*
G03X1018460Y309338I48154J0D01*
G03X1066615Y357492I0J48154D01*
G03X1066117Y364395I-48154J0D01*
G01X1068460Y364338D01*
G01X1070804Y364395D01*
G03X1070306Y357492I47657J-6903D01*
G03X1118461Y309338I48154J0D01*
G03X1166615Y357492I0J48154D01*
G03X1166117Y364395I-48154J0D01*
G01X1168460Y364338D01*
G01X1170804Y364395D01*
G03X1170307Y357492I47657J-6903D01*
G03X1218461Y309338I48154J0D01*
G03X1266615Y357492I0J48154D01*
G03X1266117Y364395I-48154J0D01*
G01X1268461Y364338D01*
G01X1270804Y364395D01*
G03X1270306Y357492I47657J-6903D01*
G03X1318460Y309338I48154J0D01*
G03X1353209Y324155I0J48154D01*
G03X1350799Y309113I45744J-15043D01*
G01X1350856Y306770D01*
G03X1343954Y307267I-6903J-47657D01*
G03X1296144Y264859I0J-48154D01*
G03X1250004Y299232I-46140J-13781D01*
G03X1201850Y251077I0J-48154D01*
G03X1202998Y240625I48154J0D01*
G03X1174888Y196841I20045J-43784D01*
G03X1175386Y189938I48154J0D01*
G01X1173042Y189995D01*
G01X1170699Y189938D01*
G03X1171197Y196841I-47657J6903D01*
G03X1123042Y244995I-48154J0D01*
G03X1095945Y236647I0J-48154D01*
G03X1098158Y251077I-45941J14430D01*
G03X1050003Y299232I-48154J0D01*
G03X1001849Y251077I0J-48154D01*
G03X1002998Y240625I48154J0D01*
G03X974888Y196841I20045J-43784D01*
G03X975386Y189938I48154J0D01*
G01X973043Y189995D01*
G01X970699Y189938D01*
G03X971196Y196841I-47657J6903D01*
G03X923042Y244995I-48154J0D01*
G03X895944Y236647I0J-48154D01*
G03X898157Y251077I-45941J14430D01*
G03X850003Y299232I-48154J0D01*
G03X801849Y251077I0J-48154D01*
G03X802997Y240625I48154J0D01*
G03X774888Y196841I20045J-43784D01*
G03X775386Y189938I48154J0D01*
G01X773042Y189995D01*
G01X770699Y189938D01*
G03X771197Y196841I-47657J6903D01*
G03X723042Y244995I-48154J0D01*
G03X695944Y236647I0J-48154D01*
G03X698157Y251077I-45941J14431D01*
G03X650003Y299232I-48154J0D01*
G03X601849Y251077I0J-48154D01*
G03X602997Y240625I48154J0D01*
G03X574888Y196841I20045J-43784D01*
G03X575386Y189938I48154J0D01*
G01X573042Y189995D01*
G01X570699Y189938D01*
G03X571196Y196841I-47657J6903D01*
G03X523042Y244995I-48154J0D01*
G03X474888Y196841I0J-48154D01*
G03X475386Y189938I48154J0D01*
G01X473042Y189995D01*
G01X470699Y189938D01*
G03X471196Y196841I-47657J6903D01*
G03X423042Y244995I-48154J0D01*
G03X376750Y210103I0J-48154D01*
G03X331004Y243220I-45746J-15037D01*
G03X284712Y208327I0J-48154D01*
G03X238966Y241445I-45746J-15037D01*
G03X190812Y193291I0J-48154D01*
G03X233156Y145488I48154J0D01*
G03X232850Y140066I47848J-5422D01*
G37*
G36*
G01X-74160Y-665881D02*
G03X-26006Y-617726I0J48154D01*
G03X-33725Y-591576I-48154J0D01*
G03X-28500Y-591861I5225J47870D01*
G03X16500Y-560848I0J48154D01*
G03X61500Y-591861I45000J17141D01*
G03X106500Y-560848I0J48154D01*
G03X151500Y-591861I45000J17141D01*
G03X199654Y-543707I0J48154D01*
G03X168641Y-498707I-48154J0D01*
G03X199654Y-453706I-17141J45000D01*
G03X168641Y-408706I-48154J0D01*
G03X199654Y-363706I-17141J45000D01*
G03X168641Y-318706I-48154J0D01*
G03X199654Y-273706I-17141J45000D01*
G03X151500Y-225552I-48154J0D01*
G03X106500Y-256565I0J-48154D01*
G03X61500Y-225552I-45000J-17141D01*
G03X16500Y-256565I0J-48154D01*
G03X-28500Y-225552I-45000J-17141D01*
G03X-73500Y-256565I0J-48154D01*
G03X-118500Y-225552I-45000J-17141D01*
G03X-166654Y-273706I0J-48154D01*
G03X-135641Y-318706I48154J0D01*
G03X-166654Y-363706I17141J-45000D01*
G03X-135641Y-408706I48154J0D01*
G03X-166654Y-453706I17141J-45000D01*
G03X-135641Y-498707I48154J0D01*
G03X-166654Y-543707I17141J-45000D01*
G03X-118500Y-591861I48154J0D01*
G03X-114680Y-591709I0J48154D01*
G03X-122314Y-617726I40520J-26018D01*
G03X-74160Y-665881I48154J0D01*
G37*
G36*
G01X-817148Y525773D02*
G03X-768994Y477619I48154J0D01*
G03X-720840Y525773I0J48154D01*
G03X-747818Y569021I-48154J0D01*
G03X-740771Y594101I-41108J25079D01*
G03X-788926Y642255I-48154J0D01*
G01X-791269Y642198D01*
G03X-790771Y649101I-47657J6903D01*
G03X-838925Y697255I-48154J0D01*
G03X-887080Y649101I0J-48154D01*
G03X-886582Y642198I48154J0D01*
G01X-888925Y642255D01*
G01X-891269Y642198D01*
G03X-890771Y649101I-47657J6903D01*
G03X-938925Y697255I-48154J0D01*
G03X-987080Y649101I0J-48154D01*
G03X-986582Y642198I48154J0D01*
G01X-988925Y642255D01*
G01X-991269Y642198D01*
G03X-990771Y649101I-47657J6903D01*
G03X-1038925Y697255I-48154J0D01*
G03X-1087079Y649101I0J-48154D01*
G03X-1086582Y642198I48154J0D01*
G01X-1088925Y642255D01*
G01X-1091269Y642198D01*
G03X-1090771Y649101I-47657J6903D01*
G03X-1138925Y697255I-48154J0D01*
G03X-1187079Y649101I0J-48154D01*
G03X-1186582Y642198I48154J0D01*
G01X-1188925Y642255D01*
G01X-1191269Y642198D01*
G03X-1190771Y649101I-47657J6903D01*
G03X-1238925Y697255I-48154J0D01*
G03X-1287079Y649101I0J-48154D01*
G03X-1286582Y642198I48154J0D01*
G01X-1288926Y642255D01*
G01X-1291269Y642198D01*
G03X-1290771Y649101I-47657J6903D01*
G03X-1338925Y697255I-48154J0D01*
G03X-1387080Y649101I0J-48154D01*
G03X-1338925Y600946I48154J0D01*
G01X-1336582Y601004D01*
G03X-1337080Y594101I47657J-6903D01*
G03X-1288926Y545947I48154J0D01*
G03X-1240771Y594101I0J48154D01*
G03X-1241269Y601004I-48154J0D01*
G01X-1238925Y600946D01*
G01X-1236582Y601004D01*
G03X-1237080Y594101I47657J-6903D01*
G03X-1188925Y545947I48154J0D01*
G03X-1140771Y594101I0J48154D01*
G03X-1141269Y601004I-48154J0D01*
G01X-1138925Y600946D01*
G01X-1136582Y601004D01*
G03X-1137080Y594101I47657J-6903D01*
G03X-1088925Y545947I48154J0D01*
G03X-1040771Y594101I0J48154D01*
G03X-1041269Y601004I-48154J0D01*
G01X-1038925Y600946D01*
G01X-1036582Y601004D01*
G03X-1037079Y594101I47657J-6903D01*
G03X-988925Y545947I48154J0D01*
G03X-940771Y594101I0J48154D01*
G03X-941269Y601004I-48154J0D01*
G01X-938925Y600946D01*
G01X-936582Y601004D01*
G03X-937079Y594101I47657J-6903D01*
G03X-888925Y545947I48154J0D01*
G03X-840771Y594101I0J48154D01*
G03X-841269Y601004I-48154J0D01*
G01X-838925Y600946D01*
G01X-836582Y601004D01*
G03X-837080Y594101I47657J-6903D01*
G03X-810101Y550853I48154J0D01*
G03X-817148Y525773I41108J-25079D01*
G37*
G36*
G01X74006Y219414D02*
G03X122160Y171260I48154J0D01*
G03X170314Y219414I0J48154D01*
G03X154142Y255413I-48154J0D01*
G03X192249Y302507I-10047J47094D01*
G03X165174Y345803I-48154J0D01*
G03X166615Y357492I-46714J11690D01*
G03X118461Y405646I-48154J0D01*
G01X116117Y405589D01*
G03X116615Y412492I-47657J6903D01*
G03X68461Y460646I-48154J0D01*
G03X20307Y412492I0J-48154D01*
G03X20804Y405589I48154J0D01*
G01X18460Y405646D01*
G01X16117Y405589D01*
G03X16615Y412492I-47657J6903D01*
G03X-31539Y460646I-48154J0D01*
G03X-79694Y412492I0J-48154D01*
G03X-79196Y405589I48154J0D01*
G01X-81540Y405646D01*
G03X-127628Y371444I0J-48154D01*
G03X-174233Y407483I-46605J-12115D01*
G03X-181136Y406985I0J-48154D01*
G01X-181079Y409329D01*
G03X-229233Y457483I-48154J0D01*
G03X-277387Y409329I0J-48154D01*
G03X-229233Y361175I48154J0D01*
G03X-222330Y361672I0J48154D01*
G01X-222387Y359328D01*
G01X-222330Y356985D01*
G03X-229233Y357483I-6903J-47657D01*
G03X-277387Y309329I0J-48154D01*
G03X-229233Y261174I48154J0D01*
G03X-222330Y261672I0J48154D01*
G01X-222387Y259328D01*
G03X-174233Y211174I48154J0D01*
G03X-126079Y259328I0J48154D01*
G03X-174233Y307482I-48154J0D01*
G03X-181136Y306985I0J-48154D01*
G01X-181079Y309329D01*
G01X-181136Y311672D01*
G03X-174233Y311174I6903J47657D01*
G03X-128145Y345377I0J48154D01*
G03X-81540Y309338I46605J12115D01*
G03X-33386Y357492I0J48154D01*
G03X-33883Y364395I-48154J0D01*
G01X-31539Y364338D01*
G01X-29196Y364395D01*
G03X-29694Y357492I47657J-6903D01*
G03X18460Y309338I48154J0D01*
G03X66615Y357492I0J48154D01*
G03X66117Y364395I-48154J0D01*
G01X68461Y364338D01*
G01X70804Y364395D01*
G03X70306Y357492I47657J-6903D01*
G03X97382Y314197I48154J0D01*
G03X95941Y302507I46714J-11690D01*
G03X112113Y266508I48154J0D01*
G03X74006Y219414I10047J-47094D01*
G37*
G36*
G01X850140Y1146491D02*
G03X890145Y1126909I40005J31073D01*
G03X930137Y1146475I0J50655D01*
G03X970130Y1126909I39992J31090D01*
G03X1020785Y1177565I0J50655D01*
G03X1001203Y1217570I-50655J0D01*
G03X1009262Y1225409I-31073J40005D01*
G03X1050003Y1202924I40742J25669D01*
G03X1098158Y1251078I0J48154D01*
G03X1050003Y1299232I-48154J0D01*
G03X1013945Y1282994I0J-48154D01*
G03X1001203Y1297580I-43816J-25419D01*
G03X1020785Y1337585I-31073J40005D01*
G03X970130Y1388240I-50655J0D01*
G03X930137Y1368674I0J-50655D01*
G03X890145Y1388240I-39992J-31090D01*
G03X850140Y1368658I0J-50655D01*
G03X810135Y1388240I-40005J-31073D01*
G03X770143Y1368674I0J-50655D01*
G03X730150Y1388240I-39992J-31090D01*
G03X679495Y1337585I0J-50655D01*
G03X699077Y1297580I50655J0D01*
G03X679495Y1257575I31073J-40005D01*
G03X699077Y1217570I50655J0D01*
G03X679495Y1177565I31073J-40005D01*
G03X730150Y1126909I50655J0D01*
G03X770143Y1146475I0J50655D01*
G03X810135Y1126909I39992J31090D01*
G03X850140Y1146491I0J50655D01*
G37*
G36*
G01X-243480Y1146003D02*
G03X-203475Y1126421I40005J31073D01*
G03X-163483Y1145986I0J50655D01*
G03X-123490Y1126421I39992J31090D01*
G03X-72835Y1177076I0J50655D01*
G03X-92417Y1217081I-50655J0D01*
G03X-72835Y1257086I-31073J40005D01*
G03X-92417Y1297091I-50655J0D01*
G03X-72835Y1337096I-31073J40005D01*
G03X-123490Y1387751I-50655J0D01*
G03X-163483Y1368186I0J-50655D01*
G03X-203475Y1387751I-39992J-31090D01*
G03X-243480Y1368169I0J-50655D01*
G03X-283485Y1387751I-40005J-31073D01*
G03X-323477Y1368186I0J-50655D01*
G03X-363470Y1387751I-39992J-31090D01*
G03X-414125Y1337096I0J-50655D01*
G03X-394543Y1297091I50655J0D01*
G03X-414125Y1257086I31073J-40005D01*
G03X-394543Y1217081I50655J0D01*
G03X-414125Y1177076I31073J-40005D01*
G03X-363470Y1126421I50655J0D01*
G03X-323477Y1145986I0J50655D01*
G03X-283485Y1126421I39992J31090D01*
G03X-243480Y1146003I0J50655D01*
G37*
G36*
G01X570306Y357492D02*
G03X618461Y309338I48154J0D01*
G03X666615Y357492I0J48154D01*
G03X618461Y405646I-48154J0D01*
G01X616117Y405589D01*
G03X616614Y412492I-47657J6903D01*
G01X616610Y413175D01*
G03X639474Y454154I-25289J40979D01*
G03X631692Y480400I-48154J0D01*
G03X639474Y506647I-40372J26247D01*
G03X631693Y532894I-48154J0D01*
G03X639474Y559140I-40372J26247D01*
G03X631692Y585387I-48154J0D01*
G03X639474Y611634I-40372J26247D01*
G03X591320Y659788I-48154J0D01*
G03X584345Y659280I0J-48154D01*
G03X543060Y682648I-41285J-24786D01*
G03X494906Y634494I0J-48154D01*
G03X503251Y607400I48154J0D01*
G03X494906Y580307I39809J-27093D01*
G03X503251Y553214I48154J0D01*
G03X494906Y526120I39809J-27093D01*
G01X494908Y525697D01*
G01X494906Y525274D01*
G03X502966Y498604I48154J0D01*
G03X496631Y484708I40094J-26670D01*
G03X477338Y488742I-19293J-44120D01*
G03X429184Y440588I0J-48154D01*
G03X477338Y392434I48154J0D01*
G03X486220Y393260I0J48154D01*
G03X470306Y357492I32241J-35768D01*
G03X518460Y309338I48154J0D01*
G03X566615Y357492I0J48154D01*
G03X566117Y364395I-48154J0D01*
G01X568460Y364338D01*
G01X570804Y364395D01*
G03X570306Y357492I47657J-6903D01*
G37*
G36*
G01X-79694Y594655D02*
G03X-31540Y546501I48154J0D01*
G03X16614Y594655I0J48154D01*
G03X16117Y601558I-48154J0D01*
G01X18460Y601501D01*
G01X20803Y601558D01*
G03X20306Y594655I47657J-6903D01*
G03X68460Y546501I48154J0D01*
G03X116614Y594655I0J48154D01*
G03X116117Y601558I-48154J0D01*
G01X118460Y601501D01*
G01X120803Y601558D01*
G03X120306Y594655I47657J-6903D01*
G03X168460Y546501I48154J0D01*
G03X216614Y594655I0J48154D01*
G03X216117Y601558I-48154J0D01*
G01X218460Y601501D01*
G01X220803Y601558D01*
G03X220306Y594655I47657J-6903D01*
G03X268460Y546501I48154J0D01*
G03X316614Y594655I0J48154D01*
G03X316117Y601558I-48154J0D01*
G01X318460Y601501D01*
G03X366614Y649655I0J48154D01*
G03X318460Y697809I-48154J0D01*
G03X270306Y649655I0J-48154D01*
G03X270803Y642752I48154J0D01*
G01X268460Y642809D01*
G01X266117Y642752D01*
G03X266614Y649655I-47657J6903D01*
G03X218460Y697809I-48154J0D01*
G03X170306Y649655I0J-48154D01*
G03X170803Y642752I48154J0D01*
G01X168460Y642809D01*
G01X166117Y642752D01*
G03X166614Y649655I-47657J6903D01*
G03X118460Y697809I-48154J0D01*
G03X70306Y649655I0J-48154D01*
G03X70803Y642752I48154J0D01*
G01X68460Y642809D01*
G01X66117Y642752D01*
G03X66614Y649655I-47657J6903D01*
G03X18460Y697809I-48154J0D01*
G03X-29694Y649655I0J-48154D01*
G03X-29197Y642752I48154J0D01*
G01X-31540Y642809D01*
G01X-33883Y642752D01*
G03X-33386Y649655I-47657J6903D01*
G03X-81540Y697809I-48154J0D01*
G03X-129694Y649655I0J-48154D01*
G03X-81540Y601501I48154J0D01*
G01X-79197Y601558D01*
G03X-79694Y594655I47657J-6903D01*
G37*
G36*
G01X1220306Y594655D02*
G03X1268460Y546501I48154J0D01*
G03X1316614Y594655I0J48154D01*
G03X1316117Y601558I-48154J0D01*
G01X1318460Y601501D01*
G01X1320803Y601558D01*
G03X1320306Y594655I47657J-6903D01*
G03X1368460Y546501I48154J0D01*
G03X1416614Y594655I0J48154D01*
G03X1416117Y601558I-48154J0D01*
G01X1418460Y601501D01*
G03X1466614Y649655I0J48154D01*
G03X1418460Y697809I-48154J0D01*
G03X1370306Y649655I0J-48154D01*
G03X1370803Y642752I48154J0D01*
G01X1368460Y642809D01*
G01X1366117Y642752D01*
G03X1366614Y649655I-47657J6903D01*
G03X1318460Y697809I-48154J0D01*
G03X1270306Y649655I0J-48154D01*
G03X1270803Y642752I48154J0D01*
G01X1268460Y642809D01*
G01X1266117Y642752D01*
G03X1266614Y649655I-47657J6903D01*
G03X1218460Y697809I-48154J0D01*
G03X1170306Y649655I0J-48154D01*
G03X1170803Y642752I48154J0D01*
G01X1168460Y642809D01*
G01X1166117Y642752D01*
G03X1166614Y649655I-47657J6903D01*
G03X1118460Y697809I-48154J0D01*
G03X1070306Y649655I0J-48154D01*
G03X1070803Y642752I48154J0D01*
G01X1068460Y642809D01*
G01X1066117Y642752D01*
G03X1066614Y649655I-47657J6903D01*
G03X1018460Y697809I-48154J0D01*
G03X970306Y649655I0J-48154D01*
G03X1018460Y601501I48154J0D01*
G01X1020803Y601558D01*
G03X1020306Y594655I47657J-6903D01*
G03X1068460Y546501I48154J0D01*
G03X1116614Y594655I0J48154D01*
G03X1116117Y601558I-48154J0D01*
G01X1118460Y601501D01*
G01X1120803Y601558D01*
G03X1120306Y594655I47657J-6903D01*
G03X1168460Y546501I48154J0D01*
G03X1216614Y594655I0J48154D01*
G03X1216117Y601558I-48154J0D01*
G01X1218460Y601501D01*
G01X1220803Y601558D01*
G03X1220306Y594655I47657J-6903D01*
G37*
G36*
G01X1690002Y-593480D02*
G03X1799556Y-483926I0J109554D01*
G03X1690882Y-374375I-109554J0D01*
G03X1698158Y-348923I-40878J25452D01*
G03X1650004Y-300769I-48154J0D01*
G03X1601850Y-348923I0J-48154D01*
G03X1629588Y-392535I48154J0D01*
G03X1580448Y-483926I60414J-91391D01*
G03X1690002Y-593480I109554J0D01*
G37*
G36*
G01X1601850Y-1348923D02*
G03X1650004Y-1397077I48154J0D01*
G03X1698158Y-1348923I0J48154D01*
G03X1683930Y-1314750I-48154J0D01*
G03X1690002Y-1314978I6072J80826D01*
G03X1771056Y-1233924I0J81054D01*
G03X1690002Y-1152870I-81054J0D01*
G03X1608948Y-1233924I0J-81054D01*
G03X1644606Y-1301073I81054J0D01*
G03X1601850Y-1348923I5398J-47851D01*
G37*
G36*
G01X1824348Y-618925D02*
G03X1905002Y-699579I80654J0D01*
G03X1985656Y-618925I0J80654D01*
G03X1905002Y-538271I-80654J0D01*
G03X1897053Y-538664I0J-80654D01*
G03X1850004Y-500769I-47049J-10259D01*
G03X1801850Y-548923I0J-48154D01*
G03X1828902Y-592207I48154J0D01*
G03X1824348Y-618925I76100J-26718D01*
G37*
G36*
G01X1121507Y824414D02*
G03X1169661Y776260I48154J0D01*
G03X1217065Y815951I0J48154D01*
G03X1250004Y802924I32938J35127D01*
G03X1298158Y851078I0J48154D01*
G03X1250004Y899232I-48154J0D01*
G03X1202599Y859541I0J-48154D01*
G03X1169661Y872568I-32938J-35127D01*
G03X1157067Y870892I0J-48154D01*
G03X1158156Y881076I-47065J10184D01*
G03X1110002Y929230I-48154J0D01*
G03X1061848Y881076I0J-48154D01*
G03X1110002Y832922I48154J0D01*
G03X1122596Y834598I0J48154D01*
G03X1121507Y824414I47065J-10184D01*
G37*
G36*
G01X220001Y-997079D02*
G03X268155Y-948925I0J48154D01*
G03X266646Y-936962I-48154J0D01*
G03X270001Y-937079I3356J48037D01*
G03X318156Y-888925I0J48154D01*
G03X270001Y-840771I-48154J0D01*
G03X221847Y-888925I0J-48154D01*
G03X223357Y-900888I48154J0D01*
G03X220001Y-900771I-3356J-48037D01*
G03X213211Y-901252I0J-48154D01*
G03X218154Y-880000I-43211J21252D01*
G03X170000Y-831846I-48154J0D01*
G03X121846Y-880000I0J-48154D01*
G03X170000Y-928155I48154J0D01*
G03X176790Y-927673I0J48154D01*
G03X171847Y-948925I43211J-21252D01*
G03X220001Y-997079I48154J0D01*
G37*
G36*
G01X-1009763Y865278D02*
G03X-961609Y913432I0J48154D01*
G01X-961666Y915775D01*
G03X-954763Y915278I6903J47657D01*
G03X-906609Y963432I0J48154D01*
G03X-954763Y1011586I-48154J0D01*
G03X-961666Y1011088I0J-48154D01*
G01X-961609Y1013432D01*
G03X-1009763Y1061586I-48154J0D01*
G03X-1057917Y1013432I0J-48154D01*
G03X-1009763Y965277I48154J0D01*
G03X-1002860Y965775I0J48154D01*
G01X-1002917Y963432D01*
G01X-1002860Y961089D01*
G03X-1009763Y961586I-6903J-47657D01*
G03X-1057917Y913432I0J-48154D01*
G03X-1009763Y865278I48154J0D01*
G37*
G36*
G01X-418494Y-65587D02*
G03X-370340Y-113741I48154J0D01*
G03X-335340Y-98659I0J48154D01*
G03X-300340Y-113741I35000J33073D01*
G03X-252186Y-65587I0J48154D01*
G03X-300340Y-17433I-48154J0D01*
G03X-335340Y-32514I0J-48154D01*
G03X-338006Y-29903I-35000J-33073D01*
G03X-322897Y5124I-33044J35027D01*
G03X-371051Y53278I-48154J0D01*
G03X-419205Y5124I0J-48154D01*
G03X-403385Y-30560I48154J0D01*
G03X-418494Y-65587I33044J-35027D01*
G37*
G36*
G01X1394349Y-618925D02*
G03X1475003Y-699579I80654J0D01*
G03X1555657Y-618925I0J80654D01*
G03X1475003Y-538271I-80654J0D01*
G03X1394349Y-618925I0J-80654D01*
G37*
G36*
G01X1905002Y-1179578D02*
G03X1985656Y-1098924I0J80654D01*
G03X1905002Y-1018271I-80654J0D01*
G03X1824348Y-1098924I0J-80654D01*
G03X1905002Y-1179578I80654J0D01*
G37*
G36*
G01X1475003Y-1179578D02*
G03X1555657Y-1098924I0J80654D01*
G03X1475003Y-1018271I-80654J0D01*
G03X1394349Y-1098924I0J-80654D01*
G03X1475003Y-1179578I80654J0D01*
G37*
G36*
G01X311847Y-818925D02*
G03X360002Y-867079I48154J0D01*
G03X408156Y-818925I0J48154D01*
G03X404062Y-799495I-48154J0D01*
G03X430002Y-807079I25940J40570D01*
G03X478156Y-758925I0J48154D01*
G03X430002Y-710771I-48154J0D01*
G03X381848Y-758925I0J-48154D01*
G03X385942Y-778355I48154J0D01*
G03X360002Y-770771I-25940J-40570D01*
G03X311847Y-818925I0J-48154D01*
G37*
G36*
G01X349335Y249665D02*
G03X397489Y297820I0J48154D01*
G03X393894Y316076I-48154J0D01*
G03X418460Y309338I24566J41417D01*
G03X466615Y357492I0J48154D01*
G03X418460Y405646I-48154J0D01*
G03X370306Y357492I0J-48154D01*
G03X373901Y339236I48154J0D01*
G03X349335Y345974I-24566J-41417D01*
G03X301181Y297820I0J-48154D01*
G03X349335Y249665I48154J0D01*
G37*
G36*
G01X-820000Y-838155D02*
G03X-771846Y-790000I0J48154D01*
G03X-786787Y-755134I-48154J0D01*
G03X-770000Y-758154I16787J45133D01*
G03X-721846Y-710000I0J48154D01*
G03X-770000Y-661846I-48154J0D01*
G03X-818154Y-710000I0J-48154D01*
G03X-803214Y-744867I48154J0D01*
G03X-820000Y-741846I-16787J-45133D01*
G03X-868155Y-790000I0J-48154D01*
G03X-820000Y-838155I48154J0D01*
G37*
G36*
G01X-1398152Y1051078D02*
G03X-1349998Y1002924I48154J0D01*
G03X-1301844Y1051078I0J48154D01*
G03X-1316780Y1085941I-48154J0D01*
G03X-1299999Y1082922I16781J45136D01*
G03X-1251845Y1131076I0J48154D01*
G03X-1299999Y1179230I-48154J0D01*
G03X-1348154Y1131076I0J-48154D01*
G03X-1333217Y1096213I48154J0D01*
G03X-1349998Y1099232I-16781J-45136D01*
G03X-1398152Y1051078I0J-48154D01*
G37*
G36*
G01X1567617Y422399D02*
G03X1615771Y470554I0J48154D01*
G03X1567617Y518708I-48154J0D01*
G03X1556832Y517484I0J-48154D01*
G03X1560930Y536923I-44056J19439D01*
G03X1512776Y585078I-48154J0D01*
G03X1464622Y536923I0J-48154D01*
G03X1512776Y488769I48154J0D01*
G03X1523561Y489993I0J48154D01*
G03X1519463Y470554I44056J-19439D01*
G03X1567617Y422399I48154J0D01*
G37*
G36*
G01X-690390Y358232D02*
G03X-642236Y310078I48154J0D01*
G03X-594082Y358232I0J48154D01*
G03X-594579Y365135I-48154J0D01*
G01X-592236Y365078D01*
G03X-544082Y413232I0J48154D01*
G03X-592236Y461386I-48154J0D01*
G03X-640390Y413232I0J-48154D01*
G03X-639893Y406329I48154J0D01*
G01X-642236Y406386D01*
G03X-690390Y358232I0J-48154D01*
G37*
G36*
G01X-26958Y93687D02*
G03X21197Y141841I0J48154D01*
G03X-26958Y189995I-48154J0D01*
G01X-29301Y189938D01*
G03X-28804Y196841I-47657J6903D01*
G03X-76958Y244995I-48154J0D01*
G03X-125112Y196841I0J-48154D01*
G03X-76958Y148687I48154J0D01*
G01X-74614Y148744D01*
G03X-75112Y141841I47657J-6903D01*
G03X-26958Y93687I48154J0D01*
G37*
G36*
G01X-231540Y546501D02*
G03X-183386Y594655I0J48154D01*
G03X-183883Y601558I-48154J0D01*
G01X-181540Y601501D01*
G03X-133386Y649655I0J48154D01*
G03X-181540Y697809I-48154J0D01*
G03X-229694Y649655I0J-48154D01*
G03X-229197Y642752I48154J0D01*
G01X-231540Y642809D01*
G03X-279694Y594655I0J-48154D01*
G03X-231540Y546501I48154J0D01*
G37*
G36*
G01X1791848Y-878925D02*
G03X1840002Y-927079I48154J0D01*
G03X1888156Y-878925I0J48154D01*
G03X1886561Y-866630I-48154J0D01*
G03X1928156Y-818925I-6558J47705D01*
G03X1880002Y-770771I-48154J0D01*
G03X1831848Y-818925I0J-48154D01*
G03X1833444Y-831219I48154J0D01*
G03X1791848Y-878925I6558J-47705D01*
G37*
G36*
G01X-640000Y1185177D02*
G03X-592162Y1227820I0J48154D01*
G03X-549997Y1202924I42165J23258D01*
G03X-501843Y1251078I0J48154D01*
G03X-549997Y1299232I-48154J0D01*
G03X-597835Y1256588I0J-48154D01*
G03X-640000Y1281485I-42165J-23258D01*
G03X-688154Y1233331I0J-48154D01*
G03X-640000Y1185177I48154J0D01*
G37*
G36*
G01X-392153Y476075D02*
G03X-343999Y427921I48154J0D01*
G03X-295845Y476075I0J48154D01*
G03X-332553Y522849I-48154J0D01*
G03X-331845Y531076I-47446J8227D01*
G03X-379999Y579230I-48154J0D01*
G03X-428153Y531076I0J-48154D01*
G03X-391445Y484302I48154J0D01*
G03X-392153Y476075I47446J-8227D01*
G37*
G36*
G01X21847Y-1118925D02*
G03X70001Y-1167079I48154J0D01*
G03X116634Y-1130934I0J48154D01*
G03X160000Y-1158155I43366J20933D01*
G03X208154Y-1110001I0J48154D01*
G03X160000Y-1061847I-48154J0D01*
G03X113367Y-1097992I0J-48154D01*
G03X70001Y-1070771I-43366J-20933D01*
G03X21847Y-1118925I0J-48154D01*
G37*
G36*
G01X-769999Y1782923D02*
G03X-722668Y1822210I0J48154D01*
G03X-675998Y1785918I46670J11862D01*
G03X-627844Y1834072I0J48154D01*
G03X-675998Y1882226I-48154J0D01*
G03X-723329Y1842939I0J-48154D01*
G03X-769999Y1879231I-46670J-11862D01*
G03X-818153Y1831077I0J-48154D01*
G03X-769999Y1782923I48154J0D01*
G37*
G36*
G01X-241800Y-663341D02*
G03X-193646Y-615186I0J48154D01*
G03X-220944Y-571783I-48154J0D01*
G03X-188566Y-526286I-15776J45497D01*
G03X-236720Y-478132I-48154J0D01*
G03X-284874Y-526286I0J-48154D01*
G03X-257576Y-569690I48154J0D01*
G03X-289954Y-615186I15776J-45497D01*
G03X-241800Y-663341I48154J0D01*
G37*
G36*
G01X-441761Y27681D02*
G03X-393607Y75835I0J48154D01*
G03X-430030Y122538I-48154J0D01*
G03X-477910Y165561I-47880J-5131D01*
G03X-526064Y117407I0J-48154D01*
G03X-489641Y70704I48154J0D01*
G03X-441761Y27681I47880J5131D01*
G37*
G36*
G01X-250000Y-348154D02*
G03X-201846Y-300000I0J48154D01*
G03X-205548Y-281484I-48154J0D01*
G03X-181846Y-240000I-24452J41484D01*
G03X-230000Y-191846I-48154J0D01*
G03X-278154Y-240000I0J-48154D01*
G03X-274452Y-258516I48154J0D01*
G03X-298154Y-300000I24452J-41484D01*
G03X-250000Y-348154I48154J0D01*
G37*
G36*
G01X-154899Y-911478D02*
G03X-114902Y-890140I0J48154D01*
G03X-89999Y-897079I24903J41215D01*
G03X-41845Y-848925I0J48154D01*
G03X-89999Y-800771I-48154J0D01*
G03X-129996Y-822110I0J-48154D01*
G03X-154899Y-815170I-24903J-41215D01*
G03X-203053Y-863324I0J-48154D01*
G03X-154899Y-911478I48154J0D01*
G37*
G36*
G01X201849Y1251078D02*
G03X250003Y1202924I48154J0D01*
G03X298157Y1251078I0J48154D01*
G03X288713Y1279719I-48154J0D01*
G03X307595Y1317954I-29273J38235D01*
G03X259441Y1366109I-48154J0D01*
G03X211287Y1317954I0J-48154D01*
G03X220730Y1289313I48154J0D01*
G03X201849Y1251078I29273J-38235D01*
G37*
G36*
G01X740002Y1695423D02*
G03X805656Y1761076I0J65654D01*
G03X740002Y1826730I-65654J0D01*
G03X674348Y1761076I0J-65654D01*
G03X740002Y1695423I65654J0D01*
G37*
G36*
G01X-668926Y545947D02*
G03X-634478Y560452I0J48154D01*
G03X-600340Y546260I34138J33962D01*
G03X-552186Y594414I0J48154D01*
G03X-600340Y642568I-48154J0D01*
G03X-634787Y628062I0J-48154D01*
G03X-668926Y642255I-34138J-33962D01*
G03X-717080Y594101I0J-48154D01*
G03X-668926Y545947I48154J0D01*
G37*
G36*
G01X405280Y-601351D02*
G03X463434Y-659505I58154J0D01*
G03X521588Y-601351I0J58154D01*
G03X463434Y-543197I-58154J0D01*
G03X405280Y-601351I0J-58154D01*
G37*
G36*
G01X1051060Y-663181D02*
G03X1109214Y-605026I0J58154D01*
G03X1051060Y-546872I-58154J0D01*
G03X992906Y-605026I0J-58154D01*
G03X1051060Y-663181I58154J0D01*
G37*
G36*
G01X-1150340Y-1312241D02*
G03X-1094686Y-1256587I0J55654D01*
G03X-1150340Y-1200933I-55654J0D01*
G03X-1205994Y-1256587I0J-55654D01*
G03X-1150340Y-1312241I55654J0D01*
G37*
G36*
G01X540002Y-1494579D02*
G03X595656Y-1438925I0J55654D01*
G03X540002Y-1383271I-55654J0D01*
G03X484348Y-1438925I0J-55654D01*
G03X540002Y-1494579I55654J0D01*
G37*
G36*
G01X1680002Y-1104579D02*
G03X1735656Y-1048925I0J55654D01*
G03X1680002Y-993271I-55654J0D01*
G03X1624348Y-1048925I0J-55654D01*
G03X1680002Y-1104579I55654J0D01*
G37*
G36*
G01X1720002Y-734579D02*
G03X1775656Y-678925I0J55654D01*
G03X1720002Y-623271I-55654J0D01*
G03X1664348Y-678925I0J-55654D01*
G03X1720002Y-734579I55654J0D01*
G37*
G36*
G01X-1469999Y675422D02*
G03X-1414345Y731076I0J55654D01*
G03X-1469999Y786730I-55654J0D01*
G03X-1525653Y731076I0J-55654D01*
G03X-1469999Y675422I55654J0D01*
G37*
G36*
G01X-1814893Y-1328925D02*
G03X-1761739Y-1382079I53154J0D01*
G03X-1708585Y-1328925I0J53154D01*
G03X-1761739Y-1275771I-53154J0D01*
G03X-1814893Y-1328925I0J-53154D01*
G37*
G36*
G01X-1138153Y1271076D02*
G03X-1089999Y1222922I48154J0D01*
G03X-1069530Y1227489I0J48154D01*
G03X-1032186Y1274414I-10811J46925D01*
G03X-1080340Y1322568I-48154J0D01*
G03X-1100810Y1318001I0J-48154D01*
G03X-1138153Y1271076I10811J-46925D01*
G37*
G36*
G01X-817163Y1597080D02*
G03X-769009Y1548926I48154J0D01*
G03X-720855Y1597080I0J48154D01*
G03X-769009Y1645234I-48154J0D01*
G03X-817163Y1597080I0J-48154D01*
G37*
G36*
G01X-800001Y-985711D02*
G03X-751847Y-937557I0J48154D01*
G03X-800001Y-889403I-48154J0D01*
G03X-848156Y-937557I0J-48154D01*
G03X-800001Y-985711I48154J0D01*
G37*
G36*
G01X-848153Y-488925D02*
G03X-799999Y-537079I48154J0D01*
G03X-751845Y-488925I0J48154D01*
G03X-799999Y-440771I-48154J0D01*
G03X-848153Y-488925I0J-48154D01*
G37*
G36*
G01X-892998Y-1685075D02*
G03X-844844Y-1636921I0J48154D01*
G03X-892998Y-1588767I-48154J0D01*
G03X-941152Y-1636921I0J-48154D01*
G03X-892998Y-1685075I48154J0D01*
G37*
G36*
G01X-768153Y-1508925D02*
G03X-719999Y-1557079I48154J0D01*
G03X-671845Y-1508925I0J48154D01*
G03X-719999Y-1460771I-48154J0D01*
G03X-768153Y-1508925I0J-48154D01*
G37*
G36*
G01X-1150340Y-1876741D02*
G03X-1102186Y-1828587I0J48154D01*
G03X-1150340Y-1780433I-48154J0D01*
G03X-1198494Y-1828587I0J-48154D01*
G03X-1150340Y-1876741I48154J0D01*
G37*
G36*
G01X-799999Y-1134344D02*
G03X-751845Y-1086190I0J48154D01*
G03X-799999Y-1038036I-48154J0D01*
G03X-848153Y-1086190I0J-48154D01*
G03X-799999Y-1134344I48154J0D01*
G37*
G36*
G01X-1749998Y-1197077D02*
G03X-1701844Y-1148923I0J48154D01*
G03X-1749998Y-1100769I-48154J0D01*
G03X-1798152Y-1148923I0J-48154D01*
G03X-1749998Y-1197077I48154J0D01*
G37*
G36*
G01X180001Y-1397079D02*
G03X228156Y-1348925I0J48154D01*
G03X180001Y-1300771I-48154J0D01*
G03X131847Y-1348925I0J-48154D01*
G03X180001Y-1397079I48154J0D01*
G37*
G36*
G01X850003Y-1997078D02*
G03X898157Y-1948924I0J48154D01*
G03X850003Y-1900770I-48154J0D01*
G03X801849Y-1948924I0J-48154D01*
G03X850003Y-1997078I48154J0D01*
G37*
G36*
G01X-1434655Y-739999D02*
G03X-1386501Y-788154I48154J0D01*
G03X-1338347Y-739999I0J48154D01*
G03X-1386501Y-691845I-48154J0D01*
G03X-1434655Y-739999I0J-48154D01*
G37*
G36*
G01X-298153Y-1118925D02*
G03X-249999Y-1167079I48154J0D01*
G03X-201845Y-1118925I0J48154D01*
G03X-249999Y-1070771I-48154J0D01*
G03X-298153Y-1118925I0J-48154D01*
G37*
G36*
G01X1250004Y1802924D02*
G03X1298158Y1851078I0J48154D01*
G03X1250004Y1899232I-48154J0D01*
G03X1201850Y1851078I0J-48154D01*
G03X1250004Y1802924I48154J0D01*
G37*
G36*
G01X601849Y-1948924D02*
G03X650003Y-1997078I48154J0D01*
G03X698157Y-1948924I0J48154D01*
G03X650003Y-1900770I-48154J0D01*
G03X601849Y-1948924I0J-48154D01*
G37*
G36*
G01X-408153Y-1588925D02*
G03X-359999Y-1637079I48154J0D01*
G03X-311845Y-1588925I0J48154D01*
G03X-359999Y-1540771I-48154J0D01*
G03X-408153Y-1588925I0J-48154D01*
G37*
G36*
G01X-998152Y-1148923D02*
G03X-949998Y-1197077I48154J0D01*
G03X-901844Y-1148923I0J48154D01*
G03X-949998Y-1100769I-48154J0D01*
G03X-998152Y-1148923I0J-48154D01*
G37*
G36*
G01X-1349998Y1802924D02*
G03X-1301844Y1851078I0J48154D01*
G03X-1349998Y1899232I-48154J0D01*
G03X-1398152Y1851078I0J-48154D01*
G03X-1349998Y1802924I48154J0D01*
G37*
G36*
G01X850003Y-1597078D02*
G03X898157Y-1548923I0J48154D01*
G03X850003Y-1500769I-48154J0D01*
G03X801849Y-1548923I0J-48154D01*
G03X850003Y-1597078I48154J0D01*
G37*
G36*
G01X-1498155Y-630000D02*
G03X-1450001Y-678154I48154J0D01*
G03X-1401847Y-630000I0J48154D01*
G03X-1450001Y-581846I-48154J0D01*
G03X-1498155Y-630000I0J-48154D01*
G37*
G36*
G01X-998152Y-1348923D02*
G03X-949998Y-1397077I48154J0D01*
G03X-901844Y-1348923I0J48154D01*
G03X-949998Y-1300769I-48154J0D01*
G03X-998152Y-1348923I0J-48154D01*
G37*
G36*
G01X1091848Y-1348925D02*
G03X1140002Y-1397079I48154J0D01*
G03X1188156Y-1348925I0J48154D01*
G03X1140002Y-1300771I-48154J0D01*
G03X1091848Y-1348925I0J-48154D01*
G37*
G36*
G01X-89999Y-1167079D02*
G03X-41845Y-1118925I0J48154D01*
G03X-89999Y-1070771I-48154J0D01*
G03X-138153Y-1118925I0J-48154D01*
G03X-89999Y-1167079I48154J0D01*
G37*
G36*
G01X191847Y-1588925D02*
G03X240002Y-1637079I48154J0D01*
G03X288156Y-1588925I0J48154D01*
G03X240002Y-1540771I-48154J0D01*
G03X191847Y-1588925I0J-48154D01*
G37*
G36*
G01X551845Y-937703D02*
G03X599999Y-985857I48154J0D01*
G03X648153Y-937703I0J48154D01*
G03X599999Y-889549I-48154J0D01*
G03X551845Y-937703I0J-48154D01*
G37*
G36*
G01X1250004Y-1597078D02*
G03X1298158Y-1548923I0J48154D01*
G03X1250004Y-1500769I-48154J0D01*
G03X1201850Y-1548923I0J-48154D01*
G03X1250004Y-1597078I48154J0D01*
G37*
G36*
G01X-1549998Y-1197077D02*
G03X-1501844Y-1148923I0J48154D01*
G03X-1549998Y-1100769I-48154J0D01*
G03X-1598152Y-1148923I0J-48154D01*
G03X-1549998Y-1197077I48154J0D01*
G37*
G36*
G01X1450004Y-797077D02*
G03X1498158Y-748923I0J48154D01*
G03X1450004Y-700769I-48154J0D01*
G03X1401850Y-748923I0J-48154D01*
G03X1450004Y-797077I48154J0D01*
G37*
G36*
G01X-1398152Y-1348923D02*
G03X-1349998Y-1397077I48154J0D01*
G03X-1301844Y-1348923I0J48154D01*
G03X-1349998Y-1300769I-48154J0D01*
G03X-1398152Y-1348923I0J-48154D01*
G37*
G36*
G01X450003Y-1597078D02*
G03X498157Y-1548923I0J48154D01*
G03X450003Y-1500769I-48154J0D01*
G03X401849Y-1548923I0J-48154D01*
G03X450003Y-1597078I48154J0D01*
G37*
G36*
G01X201849Y1851078D02*
G03X250003Y1802924I48154J0D01*
G03X298157Y1851078I0J48154D01*
G03X250003Y1899232I-48154J0D01*
G03X201849Y1851078I0J-48154D01*
G37*
G36*
G01X1450004Y-1597078D02*
G03X1498158Y-1548923I0J48154D01*
G03X1450004Y-1500769I-48154J0D01*
G03X1401850Y-1548923I0J-48154D01*
G03X1450004Y-1597078I48154J0D01*
G37*
G36*
G01X450003Y-1197077D02*
G03X498157Y-1148923I0J48154D01*
G03X450003Y-1100769I-48154J0D01*
G03X401849Y-1148923I0J-48154D01*
G03X450003Y-1197077I48154J0D01*
G37*
G36*
G01X865726Y1818442D02*
G03X913880Y1770288I48154J0D01*
G03X962034Y1818442I0J48154D01*
G03X913880Y1866596I-48154J0D01*
G03X865726Y1818442I0J-48154D01*
G37*
G36*
G01X-549997Y1802924D02*
G03X-501843Y1851078I0J48154D01*
G03X-549997Y1899232I-48154J0D01*
G03X-598151Y1851078I0J-48154D01*
G03X-549997Y1802924I48154J0D01*
G37*
G36*
G01X-1270001Y-898155D02*
G03X-1221847Y-850000I0J48154D01*
G03X-1270001Y-801846I-48154J0D01*
G03X-1318155Y-850000I0J-48154D01*
G03X-1270001Y-898155I48154J0D01*
G37*
G36*
G01X-998152Y-748923D02*
G03X-949998Y-797077I48154J0D01*
G03X-901844Y-748923I0J48154D01*
G03X-949998Y-700769I-48154J0D01*
G03X-998152Y-748923I0J-48154D01*
G37*
G36*
G01X650003Y-1797078D02*
G03X698157Y-1748924I0J48154D01*
G03X650003Y-1700770I-48154J0D01*
G03X601849Y-1748924I0J-48154D01*
G03X650003Y-1797078I48154J0D01*
G37*
G36*
G01X401849Y-1948924D02*
G03X450003Y-1997078I48154J0D01*
G03X498157Y-1948924I0J48154D01*
G03X450003Y-1900770I-48154J0D01*
G03X401849Y-1948924I0J-48154D01*
G37*
G36*
G01X-1549998Y-1397077D02*
G03X-1501844Y-1348923I0J48154D01*
G03X-1549998Y-1300769I-48154J0D01*
G03X-1598152Y-1348923I0J-48154D01*
G03X-1549998Y-1397077I48154J0D01*
G37*
G36*
G01X250003Y-1797078D02*
G03X298157Y-1748924I0J48154D01*
G03X250003Y-1700770I-48154J0D01*
G03X201849Y-1748924I0J-48154D01*
G03X250003Y-1797078I48154J0D01*
G37*
G36*
G01X1050003Y-1997078D02*
G03X1098158Y-1948924I0J48154D01*
G03X1050003Y-1900770I-48154J0D01*
G03X1001849Y-1948924I0J-48154D01*
G03X1050003Y-1997078I48154J0D01*
G37*
G36*
G01X-1548155Y-780000D02*
G03X-1500001Y-828155I48154J0D01*
G03X-1451847Y-780000I0J48154D01*
G03X-1500001Y-731846I-48154J0D01*
G03X-1548155Y-780000I0J-48154D01*
G37*
G36*
G01X-598151Y-1348923D02*
G03X-549997Y-1397077I48154J0D01*
G03X-501843Y-1348923I0J48154D01*
G03X-549997Y-1300769I-48154J0D01*
G03X-598151Y-1348923I0J-48154D01*
G37*
G36*
G01X1201850Y-1948924D02*
G03X1250004Y-1997078I48154J0D01*
G03X1298158Y-1948924I0J48154D01*
G03X1250004Y-1900770I-48154J0D01*
G03X1201850Y-1948924I0J-48154D01*
G37*
G36*
G01X650003Y-1597078D02*
G03X698157Y-1548923I0J48154D01*
G03X650003Y-1500769I-48154J0D01*
G03X601849Y-1548923I0J-48154D01*
G03X650003Y-1597078I48154J0D01*
G37*
G36*
G01X-149997Y-1797078D02*
G03X-101843Y-1748924I0J48154D01*
G03X-149997Y-1700770I-48154J0D01*
G03X-198151Y-1748924I0J-48154D01*
G03X-149997Y-1797078I48154J0D01*
G37*
G36*
G01X-1149998Y-797077D02*
G03X-1101844Y-748923I0J48154D01*
G03X-1149998Y-700769I-48154J0D01*
G03X-1198152Y-748923I0J-48154D01*
G03X-1149998Y-797077I48154J0D01*
G37*
G36*
G01X250003Y-1997078D02*
G03X298157Y-1948924I0J48154D01*
G03X250003Y-1900770I-48154J0D01*
G03X201849Y-1948924I0J-48154D01*
G03X250003Y-1997078I48154J0D01*
G37*
G36*
G01X1050003Y-1597078D02*
G03X1098158Y-1548923I0J48154D01*
G03X1050003Y-1500769I-48154J0D01*
G03X1001849Y-1548923I0J-48154D01*
G03X1050003Y-1597078I48154J0D01*
G37*
G36*
G01X1105886Y-339706D02*
G03X1154040Y-387861I48154J0D01*
G03X1202194Y-339706I0J48154D01*
G03X1154040Y-291552I-48154J0D01*
G03X1105886Y-339706I0J-48154D01*
G37*
G36*
G01X-1749998Y-797077D02*
G03X-1701844Y-748923I0J48154D01*
G03X-1749998Y-700769I-48154J0D01*
G03X-1798152Y-748923I0J-48154D01*
G03X-1749998Y-797077I48154J0D01*
G37*
G36*
G01X370002Y1712922D02*
G03X418156Y1761076I0J48154D01*
G03X370002Y1809231I-48154J0D01*
G03X321847Y1761076I0J-48154D01*
G03X370002Y1712922I48154J0D01*
G37*
G36*
G01X-1398152Y-1148923D02*
G03X-1349998Y-1197077I48154J0D01*
G03X-1301844Y-1148923I0J48154D01*
G03X-1349998Y-1100769I-48154J0D01*
G03X-1398152Y-1148923I0J-48154D01*
G37*
G36*
G01X-359999Y-1457079D02*
G03X-311845Y-1408925I0J48154D01*
G03X-359999Y-1360771I-48154J0D01*
G03X-408153Y-1408925I0J-48154D01*
G03X-359999Y-1457079I48154J0D01*
G37*
G36*
G01X1296848Y-748925D02*
G03X1345002Y-797079I48154J0D01*
G03X1393156Y-748925I0J48154D01*
G03X1345002Y-700771I-48154J0D01*
G03X1296848Y-748925I0J-48154D01*
G37*
G36*
G01X-1998152Y-748923D02*
G03X-1949998Y-797077I48154J0D01*
G03X-1901844Y-748923I0J48154D01*
G03X-1949998Y-700769I-48154J0D01*
G03X-1998152Y-748923I0J-48154D01*
G37*
G36*
G01X902686Y-656089D02*
G03X950840Y-704243I48154J0D01*
G03X998994Y-656089I0J48154D01*
G03X950840Y-607935I-48154J0D01*
G03X902686Y-656089I0J-48154D01*
G37*
G36*
G01X1801850Y-1348923D02*
G03X1850004Y-1397077I48154J0D01*
G03X1898158Y-1348923I0J48154D01*
G03X1850004Y-1300769I-48154J0D01*
G03X1801850Y-1348923I0J-48154D01*
G37*
G36*
G01X235826Y-465326D02*
G03X283980Y-513481I48154J0D01*
G03X332134Y-465326I0J48154D01*
G03X283980Y-417172I-48154J0D01*
G03X235826Y-465326I0J-48154D01*
G37*
G36*
G01X276360Y-356001D02*
G03X324514Y-307846I0J48154D01*
G03X276360Y-259692I-48154J0D01*
G03X228206Y-307846I0J-48154D01*
G03X276360Y-356001I48154J0D01*
G37*
G36*
G01X691848Y-488925D02*
G03X740002Y-537079I48154J0D01*
G03X788156Y-488925I0J48154D01*
G03X740002Y-440771I-48154J0D01*
G03X691848Y-488925I0J-48154D01*
G37*
G36*
G01X-1998152Y-1348923D02*
G03X-1949998Y-1397077I48154J0D01*
G03X-1901844Y-1348923I0J48154D01*
G03X-1949998Y-1300769I-48154J0D01*
G03X-1998152Y-1348923I0J-48154D01*
G37*
G36*
G01X-1309999Y-1857080D02*
G03X-1261845Y-1808926I0J48154D01*
G03X-1309999Y-1760771I-48154J0D01*
G03X-1358153Y-1808926I0J-48154D01*
G03X-1309999Y-1857080I48154J0D01*
G37*
G36*
G01X1090290Y-1738586D02*
G03X1138445Y-1786740I48154J0D01*
G03X1186599Y-1738586I0J48154D01*
G03X1138445Y-1690432I-48154J0D01*
G03X1090290Y-1738586I0J-48154D01*
G37*
G36*
G01X-409999Y-1267079D02*
G03X-361845Y-1218925I0J48154D01*
G03X-409999Y-1170771I-48154J0D01*
G03X-458153Y-1218925I0J-48154D01*
G03X-409999Y-1267079I48154J0D01*
G37*
G36*
G01X-1949998Y-1197077D02*
G03X-1901844Y-1148923I0J48154D01*
G03X-1949998Y-1100769I-48154J0D01*
G03X-1998152Y-1148923I0J-48154D01*
G03X-1949998Y-1197077I48154J0D01*
G37*
G36*
G01X-1065997Y-1938075D02*
G03X-1017843Y-1889921I0J48154D01*
G03X-1065997Y-1841766I-48154J0D01*
G03X-1114151Y-1889921I0J-48154D01*
G03X-1065997Y-1938075I48154J0D01*
G37*
G36*
G01X1450004Y-1997078D02*
G03X1498158Y-1948924I0J48154D01*
G03X1450004Y-1900770I-48154J0D01*
G03X1401850Y-1948924I0J-48154D01*
G03X1450004Y-1997078I48154J0D01*
G37*
G36*
G01X850003Y-1797078D02*
G03X898157Y-1748924I0J48154D01*
G03X850003Y-1700770I-48154J0D01*
G03X801849Y-1748924I0J-48154D01*
G03X850003Y-1797078I48154J0D01*
G37*
G36*
G01X1849Y-1948924D02*
G03X50003Y-1997078I48154J0D01*
G03X98157Y-1948924I0J48154D01*
G03X50003Y-1900770I-48154J0D01*
G03X1849Y-1948924I0J-48154D01*
G37*
G36*
G01X-19999Y-1017079D02*
G03X28155Y-968925I0J48154D01*
G03X-19999Y-920771I-48154J0D01*
G03X-68153Y-968925I0J-48154D01*
G03X-19999Y-1017079I48154J0D01*
G37*
G36*
G01X-800000Y-258154D02*
G03X-751846Y-210000I0J48154D01*
G03X-800000Y-161846I-48154J0D01*
G03X-848155Y-210000I0J-48154D01*
G03X-800000Y-258154I48154J0D01*
G37*
G36*
G01X1621848Y961076D02*
G03X1670002Y912922I48154J0D01*
G03X1718156Y961076I0J48154D01*
G03X1670002Y1009230I-48154J0D01*
G03X1621848Y961076I0J-48154D01*
G37*
G36*
G01X1870306Y749613D02*
G03X1918460Y701459I48154J0D01*
G03X1966614Y749613I0J48154D01*
G03X1918460Y797767I-48154J0D01*
G03X1870306Y749613I0J-48154D01*
G37*
G36*
G01X1818460Y701459D02*
G03X1866614Y749613I0J48154D01*
G03X1818460Y797767I-48154J0D01*
G03X1770306Y749613I0J-48154D01*
G03X1818460Y701459I48154J0D01*
G37*
G36*
G01X-534371Y612283D02*
G03X-486216Y564129I48154J0D01*
G03X-438062Y612283I0J48154D01*
G03X-486216Y660437I-48154J0D01*
G03X-534371Y612283I0J-48154D01*
G37*
G36*
G01X-1990390Y58357D02*
G03X-1942236Y10202I48154J0D01*
G03X-1894082Y58357I0J48154D01*
G03X-1942236Y106511I-48154J0D01*
G03X-1990390Y58357I0J-48154D01*
G37*
G36*
G01X1818461Y9463D02*
G03X1866615Y57617I0J48154D01*
G03X1818461Y105771I-48154J0D01*
G03X1770307Y57617I0J-48154D01*
G03X1818461Y9463I48154J0D01*
G37*
G36*
G01X1870306Y257534D02*
G03X1918460Y209380I48154J0D01*
G03X1966615Y257534I0J48154D01*
G03X1918460Y305688I-48154J0D01*
G03X1870306Y257534I0J-48154D01*
G37*
G36*
G01X239889Y746254D02*
G03X288043Y698099I48154J0D01*
G03X336197Y746254I0J48154D01*
G03X288043Y794408I-48154J0D01*
G03X239889Y746254I0J-48154D01*
G37*
G36*
G01X1918460Y9463D02*
G03X1966615Y57617I0J48154D01*
G03X1918460Y105771I-48154J0D01*
G03X1870306Y57617I0J-48154D01*
G03X1918460Y9463I48154J0D01*
G37*
G36*
G01X1770307Y157575D02*
G03X1818461Y109421I48154J0D01*
G03X1866615Y157575I0J48154D01*
G03X1818461Y205729I-48154J0D01*
G03X1770307Y157575I0J-48154D01*
G37*
G36*
G01X1520002Y1062922D02*
G03X1568156Y1111076I0J48154D01*
G03X1520002Y1159230I-48154J0D01*
G03X1471848Y1111076I0J-48154D01*
G03X1520002Y1062922I48154J0D01*
G37*
G36*
G01X1601850Y1251078D02*
G03X1650004Y1202924I48154J0D01*
G03X1698158Y1251078I0J48154D01*
G03X1650004Y1299232I-48154J0D01*
G03X1601850Y1251078I0J-48154D01*
G37*
G36*
G01X-1198152Y51077D02*
G03X-1149998Y2923I48154J0D01*
G03X-1101844Y51077I0J48154D01*
G03X-1149998Y99231I-48154J0D01*
G03X-1198152Y51077I0J-48154D01*
G37*
G36*
G01X1770307Y257534D02*
G03X1818461Y209380I48154J0D01*
G03X1866615Y257534I0J48154D01*
G03X1818461Y305688I-48154J0D01*
G03X1770307Y257534I0J-48154D01*
G37*
G36*
G01X-1549998Y202923D02*
G03X-1501844Y251077I0J48154D01*
G03X-1549998Y299232I-48154J0D01*
G03X-1598152Y251077I0J-48154D01*
G03X-1549998Y202923I48154J0D01*
G37*
G36*
G01X-1798152Y1251078D02*
G03X-1749998Y1202924I48154J0D01*
G03X-1701844Y1251078I0J48154D01*
G03X-1749998Y1299232I-48154J0D01*
G03X-1798152Y1251078I0J-48154D01*
G37*
G36*
G01X-1949998Y-197077D02*
G03X-1901844Y-148923I0J48154D01*
G03X-1949998Y-100769I-48154J0D01*
G03X-1998152Y-148923I0J-48154D01*
G03X-1949998Y-197077I48154J0D01*
G37*
G36*
G01X-1798152Y-148923D02*
G03X-1749998Y-197077I48154J0D01*
G03X-1701844Y-148923I0J48154D01*
G03X-1749998Y-100769I-48154J0D01*
G03X-1798152Y-148923I0J-48154D01*
G37*
G36*
G01X-943356Y1192726D02*
G03X-895202Y1144572I48154J0D01*
G03X-847048Y1192726I0J48154D01*
G03X-895202Y1240880I-48154J0D01*
G03X-943356Y1192726I0J-48154D01*
G37*
G36*
G01X1450004Y1202924D02*
G03X1498158Y1251078I0J48154D01*
G03X1450004Y1299232I-48154J0D01*
G03X1401850Y1251078I0J-48154D01*
G03X1450004Y1202924I48154J0D01*
G37*
G36*
G01X1850004Y-197077D02*
G03X1898158Y-148923I0J48154D01*
G03X1850004Y-100769I-48154J0D01*
G03X1801850Y-148923I0J-48154D01*
G03X1850004Y-197077I48154J0D01*
G37*
G36*
G01X-949998Y2923D02*
G03X-901844Y51077I0J48154D01*
G03X-949998Y99231I-48154J0D01*
G03X-998152Y51077I0J-48154D01*
G03X-949998Y2923I48154J0D01*
G37*
G36*
G01X-1690606Y649017D02*
G03X-1642452Y600863I48154J0D01*
G03X-1594298Y649017I0J48154D01*
G03X-1642452Y697171I-48154J0D01*
G03X-1690606Y649017I0J-48154D01*
G37*
G36*
G01X-722152Y760774D02*
G03X-673998Y712620I48154J0D01*
G03X-625844Y760774I0J48154D01*
G03X-673998Y808928I-48154J0D01*
G03X-722152Y760774I0J-48154D01*
G37*
G36*
G01X-1998152Y1051078D02*
G03X-1949998Y1002924I48154J0D01*
G03X-1901844Y1051078I0J48154D01*
G03X-1949998Y1099232I-48154J0D01*
G03X-1998152Y1051078I0J-48154D01*
G37*
G36*
G01X-1742236Y10202D02*
G03X-1694082Y58357I0J48154D01*
G03X-1742236Y106511I-48154J0D01*
G03X-1790390Y58357I0J-48154D01*
G03X-1742236Y10202I48154J0D01*
G37*
G36*
G01X720002Y642922D02*
G03X768156Y691076I0J48154D01*
G03X720002Y739230I-48154J0D01*
G03X671848Y691076I0J-48154D01*
G03X720002Y642922I48154J0D01*
G37*
G36*
G01X-1198152Y251077D02*
G03X-1149998Y202923I48154J0D01*
G03X-1101844Y251077I0J48154D01*
G03X-1149998Y299232I-48154J0D01*
G03X-1198152Y251077I0J-48154D01*
G37*
G36*
G01X1850004Y1202924D02*
G03X1898158Y1251078I0J48154D01*
G03X1850004Y1299232I-48154J0D01*
G03X1801850Y1251078I0J-48154D01*
G03X1850004Y1202924I48154J0D01*
G37*
G36*
G01X-1890390Y58357D02*
G03X-1842236Y10202I48154J0D01*
G03X-1794082Y58357I0J48154D01*
G03X-1842236Y106511I-48154J0D01*
G03X-1890390Y58357I0J-48154D01*
G37*
G36*
G01X-1089151Y357075D02*
G03X-1040997Y308921I48154J0D01*
G03X-992843Y357075I0J48154D01*
G03X-1040997Y405229I-48154J0D01*
G03X-1089151Y357075I0J-48154D01*
G37*
G36*
G01X-1790606Y848934D02*
G03X-1742452Y800780I48154J0D01*
G03X-1694298Y848934I0J48154D01*
G03X-1742452Y897088I-48154J0D01*
G03X-1790606Y848934I0J-48154D01*
G37*
G36*
G01X-1998152Y1251078D02*
G03X-1949998Y1202924I48154J0D01*
G03X-1901844Y1251078I0J48154D01*
G03X-1949998Y1299232I-48154J0D01*
G03X-1998152Y1251078I0J-48154D01*
G37*
G36*
G01X229660Y-203741D02*
G03X277814Y-155587I0J48154D01*
G03X229660Y-107433I-48154J0D01*
G03X181506Y-155587I0J-48154D01*
G03X229660Y-203741I48154J0D01*
G37*
G36*
G01X1019853Y700208D02*
G03X1068007Y748362I0J48154D01*
G03X1019853Y796516I-48154J0D01*
G03X971699Y748362I0J-48154D01*
G03X1019853Y700208I48154J0D01*
G37*
G36*
G01X81506Y-155587D02*
G03X129660Y-203741I48154J0D01*
G03X177814Y-155587I0J48154D01*
G03X129660Y-107433I-48154J0D01*
G03X81506Y-155587I0J-48154D01*
G37*
G36*
G01X1850004Y1002924D02*
G03X1898158Y1051078I0J48154D01*
G03X1850004Y1099232I-48154J0D01*
G03X1801850Y1051078I0J-48154D01*
G03X1850004Y1002924I48154J0D01*
G37*
G36*
G01X-1398152Y-148923D02*
G03X-1349998Y-197077I48154J0D01*
G03X-1301844Y-148923I0J48154D01*
G03X-1349998Y-100769I-48154J0D01*
G03X-1398152Y-148923I0J-48154D01*
G37*
G36*
G01X-963539Y354431D02*
G03X-915385Y306277I48154J0D01*
G03X-867231Y354431I0J48154D01*
G03X-915385Y402585I-48154J0D01*
G03X-963539Y354431I0J-48154D01*
G37*
G36*
G01X450003Y802924D02*
G03X498157Y851078I0J48154D01*
G03X450003Y899232I-48154J0D01*
G03X401849Y851078I0J-48154D01*
G03X450003Y802924I48154J0D01*
G37*
G36*
G01X-1990390Y258273D02*
G03X-1942236Y210119I48154J0D01*
G03X-1894082Y258273I0J48154D01*
G03X-1942236Y306427I-48154J0D01*
G03X-1990390Y258273I0J-48154D01*
G37*
G36*
G01X-70340Y-203741D02*
G03X-22186Y-155587I0J48154D01*
G03X-70340Y-107433I-48154J0D01*
G03X-118494Y-155587I0J-48154D01*
G03X-70340Y-203741I48154J0D01*
G37*
G36*
G01X-1068153Y781076D02*
G03X-1019999Y732922I48154J0D01*
G03X-971845Y781076I0J48154D01*
G03X-1019999Y829230I-48154J0D01*
G03X-1068153Y781076I0J-48154D01*
G37*
G36*
G01X-1598152Y-148923D02*
G03X-1549998Y-197077I48154J0D01*
G03X-1501844Y-148923I0J48154D01*
G03X-1549998Y-100769I-48154J0D01*
G03X-1598152Y-148923I0J-48154D01*
G37*
G36*
G01X-1942236Y110161D02*
G03X-1894082Y158315I0J48154D01*
G03X-1942236Y206469I-48154J0D01*
G03X-1990390Y158315I0J-48154D01*
G03X-1942236Y110161I48154J0D01*
G37*
G36*
G01X-817148Y732024D02*
G03X-768994Y683870I48154J0D01*
G03X-720840Y732024I0J48154D01*
G03X-768994Y780178I-48154J0D01*
G03X-817148Y732024I0J-48154D01*
G37*
G36*
G01X-1942452Y800780D02*
G03X-1894298Y848934I0J48154D01*
G03X-1942452Y897088I-48154J0D01*
G03X-1990606Y848934I0J-48154D01*
G03X-1942452Y800780I48154J0D01*
G37*
G36*
G01X1770306Y849572D02*
G03X1818460Y801417I48154J0D01*
G03X1866614Y849572I0J48154D01*
G03X1818460Y897726I-48154J0D01*
G03X1770306Y849572I0J-48154D01*
G37*
G36*
G01X1918460Y801417D02*
G03X1966614Y849572I0J48154D01*
G03X1918460Y897726I-48154J0D01*
G03X1870306Y849572I0J-48154D01*
G03X1918460Y801417I48154J0D01*
G37*
G36*
G01X-1742236Y110161D02*
G03X-1694082Y158315I0J48154D01*
G03X-1742236Y206469I-48154J0D01*
G03X-1790390Y158315I0J-48154D01*
G03X-1742236Y110161I48154J0D01*
G37*
G36*
G01X-1598152Y851078D02*
G03X-1549998Y802924I48154J0D01*
G03X-1501844Y851078I0J48154D01*
G03X-1549998Y899232I-48154J0D01*
G03X-1598152Y851078I0J-48154D01*
G37*
G36*
G01X-18494Y-155587D02*
G03X29660Y-203741I48154J0D01*
G03X77814Y-155587I0J48154D01*
G03X29660Y-107433I-48154J0D01*
G03X-18494Y-155587I0J-48154D01*
G37*
G36*
G01X1918460Y109421D02*
G03X1966615Y157575I0J48154D01*
G03X1918460Y205729I-48154J0D01*
G03X1870306Y157575I0J-48154D01*
G03X1918460Y109421I48154J0D01*
G37*
G36*
G01X-653183Y169102D02*
G03X-605029Y217256I0J48154D01*
G03X-653183Y265410I-48154J0D01*
G03X-701337Y217256I0J-48154D01*
G03X-653183Y169102I48154J0D01*
G37*
G36*
G01X1520002Y883922D02*
G03X1568156Y932076I0J48154D01*
G03X1520002Y980230I-48154J0D01*
G03X1471848Y932076I0J-48154D01*
G03X1520002Y883922I48154J0D01*
G37*
G36*
G01X1450004Y802924D02*
G03X1498158Y851078I0J48154D01*
G03X1450004Y899232I-48154J0D01*
G03X1401850Y851078I0J-48154D01*
G03X1450004Y802924I48154J0D01*
G37*
G36*
G01X-1890390Y158315D02*
G03X-1842236Y110161I48154J0D01*
G03X-1794082Y158315I0J48154D01*
G03X-1842236Y206469I-48154J0D01*
G03X-1890390Y158315I0J-48154D01*
G37*
G36*
G01X1918460Y901376D02*
G03X1966614Y949530I0J48154D01*
G03X1918460Y997684I-48154J0D01*
G03X1870306Y949530I0J-48154D01*
G03X1918460Y901376I48154J0D01*
G37*
G36*
G01X211847Y902076D02*
G03X260002Y853922I48154J0D01*
G03X308156Y902076I0J48154D01*
G03X260002Y950231I-48154J0D01*
G03X211847Y902076I0J-48154D01*
G37*
G36*
G01X-1398152Y251077D02*
G03X-1349998Y202923I48154J0D01*
G03X-1301844Y251077I0J48154D01*
G03X-1349998Y299232I-48154J0D01*
G03X-1398152Y251077I0J-48154D01*
G37*
G36*
G01X-1890606Y848934D02*
G03X-1842452Y800780I48154J0D01*
G03X-1794298Y848934I0J48154D01*
G03X-1842452Y897088I-48154J0D01*
G03X-1890606Y848934I0J-48154D01*
G37*
G36*
G01X-1742236Y210119D02*
G03X-1694082Y258273I0J48154D01*
G03X-1742236Y306427I-48154J0D01*
G03X-1790390Y258273I0J-48154D01*
G03X-1742236Y210119I48154J0D01*
G37*
G36*
G01X1250004Y1202924D02*
G03X1298158Y1251078I0J48154D01*
G03X1250004Y1299232I-48154J0D01*
G03X1201850Y1251078I0J-48154D01*
G03X1250004Y1202924I48154J0D01*
G37*
G36*
G01X-1842236Y210119D02*
G03X-1794082Y258273I0J48154D01*
G03X-1842236Y306427I-48154J0D01*
G03X-1890390Y258273I0J-48154D01*
G03X-1842236Y210119I48154J0D01*
G37*
G36*
G01X1Y902922D02*
G03X48155Y951076I0J48154D01*
G03X1Y999230I-48154J0D01*
G03X-48153Y951076I0J-48154D01*
G03X1Y902922I48154J0D01*
G37*
G36*
G01X-785379Y306277D02*
G03X-737225Y354431I0J48154D01*
G03X-785379Y402585I-48154J0D01*
G03X-833533Y354431I0J-48154D01*
G03X-785379Y306277I48154J0D01*
G37*
G36*
G01X-543485Y903293D02*
G03X-495331Y951447I0J48154D01*
G03X-543485Y999601I-48154J0D01*
G03X-591639Y951447I0J-48154D01*
G03X-543485Y903293I48154J0D01*
G37*
G36*
G01X-538153Y721076D02*
G03X-489999Y672922I48154J0D01*
G03X-441845Y721076I0J48154D01*
G03X-489999Y769230I-48154J0D01*
G03X-538153Y721076I0J-48154D01*
G37*
G36*
G01X-769893Y1022909D02*
G03X-721739Y974755I48154J0D01*
G03X-673585Y1022909I0J48154D01*
G03X-721739Y1071063I-48154J0D01*
G03X-769893Y1022909I0J-48154D01*
G37*
G36*
G01X1818460Y901376D02*
G03X1866614Y949530I0J48154D01*
G03X1818460Y997684I-48154J0D01*
G03X1770306Y949530I0J-48154D01*
G03X1818460Y901376I48154J0D01*
G37*
G36*
G01X90001Y1272922D02*
G03X138155Y1321076I0J48154D01*
G03X90001Y1369230I-48154J0D01*
G03X41847Y1321076I0J-48154D01*
G03X90001Y1272922I48154J0D01*
G37*
G36*
G01X590002Y982922D02*
G03X638156Y1031076I0J48154D01*
G03X590002Y1079230I-48154J0D01*
G03X541848Y1031076I0J-48154D01*
G03X590002Y982922I48154J0D01*
G37*
G36*
G01X1250004Y1002924D02*
G03X1298158Y1051078I0J48154D01*
G03X1250004Y1099232I-48154J0D01*
G03X1201850Y1051078I0J-48154D01*
G03X1250004Y1002924I48154J0D01*
G37*
G36*
G01X-1549998Y1002924D02*
G03X-1501844Y1051078I0J48154D01*
G03X-1549998Y1099232I-48154J0D01*
G03X-1598152Y1051078I0J-48154D01*
G03X-1549998Y1002924I48154J0D01*
G37*
G36*
G01X810135Y1015156D02*
G03X858289Y1063310I0J48154D01*
G03X810135Y1111464I-48154J0D01*
G03X761981Y1063310I0J-48154D01*
G03X810135Y1015156I48154J0D01*
G37*
G36*
G01X-1798152Y1051078D02*
G03X-1749998Y1002924I48154J0D01*
G03X-1701844Y1051078I0J48154D01*
G03X-1749998Y1099232I-48154J0D01*
G03X-1798152Y1051078I0J-48154D01*
G37*
G36*
G01X-815734Y1193294D02*
G03X-767580Y1145139I48154J0D01*
G03X-719426Y1193294I0J48154D01*
G03X-767580Y1241448I-48154J0D01*
G03X-815734Y1193294I0J-48154D01*
G37*
G36*
G01X391848Y1221076D02*
G03X440002Y1172922I48154J0D01*
G03X488156Y1221076I0J48154D01*
G03X440002Y1269230I-48154J0D01*
G03X391848Y1221076I0J-48154D01*
G37*
G36*
G01X-1990606Y748976D02*
G03X-1942452Y700822I48154J0D01*
G03X-1894298Y748976I0J48154D01*
G03X-1942452Y797130I-48154J0D01*
G03X-1990606Y748976I0J-48154D01*
G37*
G36*
G01X-1742452Y700822D02*
G03X-1694298Y748976I0J48154D01*
G03X-1742452Y797130I-48154J0D01*
G03X-1790606Y748976I0J-48154D01*
G03X-1742452Y700822I48154J0D01*
G37*
G36*
G01X749044Y751480D02*
G03X797199Y703326I48154J0D01*
G03X845353Y751480I0J48154D01*
G03X797199Y799634I-48154J0D01*
G03X749044Y751480I0J-48154D01*
G37*
G36*
G01X-1890606Y748976D02*
G03X-1842452Y700822I48154J0D01*
G03X-1794298Y748976I0J48154D01*
G03X-1842452Y797130I-48154J0D01*
G03X-1890606Y748976I0J-48154D01*
G37*
G36*
G01X-582472Y98391D02*
G03X-534318Y146546I0J48154D01*
G03X-582472Y194700I-48154J0D01*
G03X-630626Y146546I0J-48154D01*
G03X-582472Y98391I48154J0D01*
G37*
G36*
G01X-1942452Y900738D02*
G03X-1894298Y948892I0J48154D01*
G03X-1942452Y997047I-48154J0D01*
G03X-1990606Y948892I0J-48154D01*
G03X-1942452Y900738I48154J0D01*
G37*
G36*
G01X-1890606Y948892D02*
G03X-1842452Y900738I48154J0D01*
G03X-1794298Y948892I0J48154D01*
G03X-1842452Y997047I-48154J0D01*
G03X-1890606Y948892I0J-48154D01*
G37*
G36*
G01X-1790606Y948892D02*
G03X-1742452Y900738I48154J0D01*
G03X-1694298Y948892I0J48154D01*
G03X-1742452Y997047I-48154J0D01*
G03X-1790606Y948892I0J-48154D01*
G37*
G36*
G01X-126120Y-1005081D02*
G03X-77966Y-956926I0J48154D01*
G03X-126120Y-908772I-48154J0D01*
G03X-174274Y-956926I0J-48154D01*
G03X-126120Y-1005081I48154J0D01*
G37*
G36*
G01X-1549998Y-597077D02*
G03X-1501844Y-548923I0J48154D01*
G03X-1549998Y-500769I-48154J0D01*
G03X-1598152Y-548923I0J-48154D01*
G03X-1549998Y-597077I48154J0D01*
G37*
G36*
G01X-146994Y1722921D02*
G03X-98840Y1771075I0J48154D01*
G03X-146994Y1819229I-48154J0D01*
G03X-195148Y1771075I0J-48154D01*
G03X-146994Y1722921I48154J0D01*
G37*
G36*
G01X-1549998Y-397077D02*
G03X-1501844Y-348923I0J48154D01*
G03X-1549998Y-300769I-48154J0D01*
G03X-1598152Y-348923I0J-48154D01*
G03X-1549998Y-397077I48154J0D01*
G37*
G36*
G01X-848155Y-360000D02*
G03X-800000Y-408154I48154J0D01*
G03X-751846Y-360000I0J48154D01*
G03X-800000Y-311846I-48154J0D01*
G03X-848155Y-360000I0J-48154D01*
G37*
G36*
G01X-1398152Y-348923D02*
G03X-1349998Y-397077I48154J0D01*
G03X-1301844Y-348923I0J48154D01*
G03X-1349998Y-300769I-48154J0D01*
G03X-1398152Y-348923I0J-48154D01*
G37*
G36*
G01X-1398152Y1651078D02*
G03X-1349998Y1602924I48154J0D01*
G03X-1301844Y1651078I0J48154D01*
G03X-1349998Y1699232I-48154J0D01*
G03X-1398152Y1651078I0J-48154D01*
G37*
G36*
G01X-1198152Y-548923D02*
G03X-1149998Y-597077I48154J0D01*
G03X-1101844Y-548923I0J48154D01*
G03X-1149998Y-500769I-48154J0D01*
G03X-1198152Y-548923I0J-48154D01*
G37*
G36*
G01X1471848Y-948925D02*
G03X1520002Y-997079I48154J0D01*
G03X1568156Y-948925I0J48154D01*
G03X1520002Y-900771I-48154J0D01*
G03X1471848Y-948925I0J-48154D01*
G37*
G36*
G01X1641848Y-818925D02*
G03X1690002Y-867079I48154J0D01*
G03X1738156Y-818925I0J48154D01*
G03X1690002Y-770771I-48154J0D01*
G03X1641848Y-818925I0J-48154D01*
G37*
G36*
G01X1250004Y1602924D02*
G03X1298158Y1651078I0J48154D01*
G03X1250004Y1699232I-48154J0D01*
G03X1201850Y1651078I0J-48154D01*
G03X1250004Y1602924I48154J0D01*
G37*
G36*
G01X703448Y-601326D02*
G03X751603Y-649481I48154J0D01*
G03X799757Y-601326I0J48154D01*
G03X751603Y-553172I-48154J0D01*
G03X703448Y-601326I0J-48154D01*
G37*
G36*
G01X1850004Y-397077D02*
G03X1898158Y-348923I0J48154D01*
G03X1850004Y-300769I-48154J0D01*
G03X1801850Y-348923I0J-48154D01*
G03X1850004Y-397077I48154J0D01*
G37*
G36*
G01X-998152Y-548923D02*
G03X-949998Y-597077I48154J0D01*
G03X-901844Y-548923I0J48154D01*
G03X-949998Y-500769I-48154J0D01*
G03X-998152Y-548923I0J-48154D01*
G37*
G36*
G01X-716152Y1602072D02*
G03X-667998Y1553918I48154J0D01*
G03X-619844Y1602072I0J48154D01*
G03X-667998Y1650227I-48154J0D01*
G03X-716152Y1602072I0J-48154D01*
G37*
G36*
G01X1001849Y1651078D02*
G03X1050003Y1602924I48154J0D01*
G03X1098158Y1651078I0J48154D01*
G03X1050003Y1699232I-48154J0D01*
G03X1001849Y1651078I0J-48154D01*
G37*
G36*
G01X-998152Y-948923D02*
G03X-949998Y-997077I48154J0D01*
G03X-901844Y-948923I0J48154D01*
G03X-949998Y-900769I-48154J0D01*
G03X-998152Y-948923I0J-48154D01*
G37*
G36*
G01X1340002Y-577079D02*
G03X1388156Y-528925I0J48154D01*
G03X1340002Y-480771I-48154J0D01*
G03X1291848Y-528925I0J-48154D01*
G03X1340002Y-577079I48154J0D01*
G37*
G36*
G01X1450004Y1402924D02*
G03X1498158Y1451078I0J48154D01*
G03X1450004Y1499232I-48154J0D01*
G03X1401850Y1451078I0J-48154D01*
G03X1450004Y1402924I48154J0D01*
G37*
G36*
G01X605002Y-835857D02*
G03X653156Y-787703I0J48154D01*
G03X605002Y-739549I-48154J0D01*
G03X556848Y-787703I0J-48154D01*
G03X605002Y-835857I48154J0D01*
G37*
G36*
G01X-284874Y-411986D02*
G03X-236720Y-460141I48154J0D01*
G03X-188566Y-411986I0J48154D01*
G03X-236720Y-363832I-48154J0D01*
G03X-284874Y-411986I0J-48154D01*
G37*
G36*
G01X-1749998Y-397077D02*
G03X-1701844Y-348923I0J48154D01*
G03X-1749998Y-300769I-48154J0D01*
G03X-1798152Y-348923I0J-48154D01*
G03X-1749998Y-397077I48154J0D01*
G37*
G36*
G01X-1549998Y1402924D02*
G03X-1501844Y1451078I0J48154D01*
G03X-1549998Y1499232I-48154J0D01*
G03X-1598152Y1451078I0J-48154D01*
G03X-1549998Y1402924I48154J0D01*
G37*
G36*
G01X50003Y1602924D02*
G03X98157Y1651078I0J48154D01*
G03X50003Y1699232I-48154J0D01*
G03X1849Y1651078I0J-48154D01*
G03X50003Y1602924I48154J0D01*
G37*
G36*
G01X-1949998Y-397077D02*
G03X-1901844Y-348923I0J48154D01*
G03X-1949998Y-300769I-48154J0D01*
G03X-1998152Y-348923I0J-48154D01*
G03X-1949998Y-397077I48154J0D01*
G37*
G36*
G01X-1398152Y-548923D02*
G03X-1349998Y-597077I48154J0D01*
G03X-1301844Y-548923I0J48154D01*
G03X-1349998Y-500769I-48154J0D01*
G03X-1398152Y-548923I0J-48154D01*
G37*
G36*
G01X-1949998Y1402924D02*
G03X-1901844Y1451078I0J48154D01*
G03X-1949998Y1499232I-48154J0D01*
G03X-1998152Y1451078I0J-48154D01*
G03X-1949998Y1402924I48154J0D01*
G37*
G36*
G01X-798152Y1451078D02*
G03X-749997Y1402924I48154J0D01*
G03X-701843Y1451078I0J48154D01*
G03X-749997Y1499232I-48154J0D01*
G03X-798152Y1451078I0J-48154D01*
G37*
G36*
G01X-518154Y-340000D02*
G03X-470000Y-388154I48154J0D01*
G03X-421846Y-340000I0J48154D01*
G03X-470000Y-291846I-48154J0D01*
G03X-518154Y-340000I0J-48154D01*
G37*
G36*
G01X1450004Y-397077D02*
G03X1498158Y-348923I0J48154D01*
G03X1450004Y-300769I-48154J0D01*
G03X1401850Y-348923I0J-48154D01*
G03X1450004Y-397077I48154J0D01*
G37*
G36*
G01X-1949998Y-597077D02*
G03X-1901844Y-548923I0J48154D01*
G03X-1949998Y-500769I-48154J0D01*
G03X-1998152Y-548923I0J-48154D01*
G03X-1949998Y-597077I48154J0D01*
G37*
G36*
G01X450003Y1402924D02*
G03X498157Y1451078I0J48154D01*
G03X450003Y1499232I-48154J0D01*
G03X401849Y1451078I0J-48154D01*
G03X450003Y1402924I48154J0D01*
G37*
G36*
G01X22360Y-714141D02*
G03X70514Y-665986I0J48154D01*
G03X22360Y-617832I-48154J0D01*
G03X-25794Y-665986I0J-48154D01*
G03X22360Y-714141I48154J0D01*
G37*
G36*
G01X-549997Y1602924D02*
G03X-501843Y1651078I0J48154D01*
G03X-549997Y1699232I-48154J0D01*
G03X-598151Y1651078I0J-48154D01*
G03X-549997Y1602924I48154J0D01*
G37*
G36*
G01X731848Y-388925D02*
G03X780002Y-437079I48154J0D01*
G03X828156Y-388925I0J48154D01*
G03X780002Y-340770I-48154J0D01*
G03X731848Y-388925I0J-48154D01*
G37*
G36*
G01X1201850Y1451078D02*
G03X1250004Y1402924I48154J0D01*
G03X1298158Y1451078I0J48154D01*
G03X1250004Y1499232I-48154J0D01*
G03X1201850Y1451078I0J-48154D01*
G37*
G36*
G01X-1798152Y-548923D02*
G03X-1749998Y-597077I48154J0D01*
G03X-1701844Y-548923I0J48154D01*
G03X-1749998Y-500769I-48154J0D01*
G03X-1798152Y-548923I0J-48154D01*
G37*
G36*
G01X-1398152Y1451078D02*
G03X-1349998Y1402924I48154J0D01*
G03X-1301844Y1451078I0J48154D01*
G03X-1349998Y1499232I-48154J0D01*
G03X-1398152Y1451078I0J-48154D01*
G37*
G36*
G01X1170002Y-517079D02*
G03X1218156Y-468925I0J48154D01*
G03X1170002Y-420771I-48154J0D01*
G03X1121848Y-468925I0J-48154D01*
G03X1170002Y-517079I48154J0D01*
G37*
G36*
G01X-549997Y1402924D02*
G03X-501843Y1451078I0J48154D01*
G03X-549997Y1499232I-48154J0D01*
G03X-598151Y1451078I0J-48154D01*
G03X-549997Y1402924I48154J0D01*
G37*
G36*
G01X201849Y1451078D02*
G03X250003Y1402924I48154J0D01*
G03X298157Y1451078I0J48154D01*
G03X250003Y1499232I-48154J0D01*
G03X201849Y1451078I0J-48154D01*
G37*
%LPD*%
G04 PlaneZone End*

G04 Pad Start*
G54D10*
G01X1749660Y-1745587D03*
G01X-1730340Y-1745587D03*
G01X1749660Y1734414D03*
G01X-1730340Y1734414D03*
G54D11*
G01X1475003Y-1098924D03*
G01X1475003Y-618925D03*
G01X1905002Y-618925D03*
G01X1905002Y-1098924D03*
G04 Pad End*

G04 Via Start*
G54D12*
G01X1749660Y-1535586D03*
G01X1959660Y-1745587D03*
G01X1749660Y-1955587D03*
G01X1539660Y-1745587D03*
G01X1601168Y-1597094D03*
G01X1601168Y-1894079D03*
G01X1898153Y-1894079D03*
G01X1898153Y-1597094D03*
G01X1555646Y-1665222D03*
G01X1669295Y-1939601D03*
G01X1943675Y-1825951D03*
G01X1830025Y-1551572D03*
G01X1555645Y-1825949D03*
G01X1669298Y-1551571D03*
G01X1943676Y-1665224D03*
G01X1830023Y-1939602D03*
G01X-1730340Y-1535586D03*
G01X-1520340Y-1745587D03*
G01X-1730340Y-1955587D03*
G01X-1940340Y-1745587D03*
G01X-1878832Y-1597094D03*
G01X-1878832Y-1894079D03*
G01X-1581847Y-1894079D03*
G01X-1581847Y-1597094D03*
G01X-1924354Y-1665222D03*
G01X-1810705Y-1939601D03*
G01X-1536326Y-1825951D03*
G01X-1649975Y-1551572D03*
G01X-1924355Y-1825949D03*
G01X-1810702Y-1551571D03*
G01X-1536325Y-1665224D03*
G01X-1649978Y-1939602D03*
G01X1749660Y1944414D03*
G01X1959660Y1734414D03*
G01X1749660Y1524414D03*
G01X1539660Y1734414D03*
G01X1601168Y1882906D03*
G01X1601168Y1585921D03*
G01X1898153Y1585921D03*
G01X1898153Y1882906D03*
G01X1555646Y1814778D03*
G01X1669295Y1540399D03*
G01X1943675Y1654049D03*
G01X1830025Y1928428D03*
G01X1555645Y1654051D03*
G01X1669298Y1928429D03*
G01X1943676Y1814776D03*
G01X1830023Y1540398D03*
G01X-1730340Y1944414D03*
G01X-1520340Y1734414D03*
G01X-1730340Y1524414D03*
G01X-1940340Y1734414D03*
G01X-1878832Y1882906D03*
G01X-1878832Y1585921D03*
G01X-1581847Y1585921D03*
G01X-1581847Y1882906D03*
G01X-1924354Y1814778D03*
G01X-1810705Y1540399D03*
G01X-1536326Y1654049D03*
G01X-1649975Y1928428D03*
G01X-1924355Y1654051D03*
G01X-1810702Y1928429D03*
G01X-1536325Y1814776D03*
G01X-1649978Y1540398D03*
G54D13*
G01X970130Y1337585D03*
G01X890145Y1337585D03*
G01X810135Y1337585D03*
G01X730150Y1337585D03*
G01X730150Y1257575D03*
G01X810135Y1257575D03*
G01X890145Y1257575D03*
G01X970130Y1257575D03*
G01X970130Y1177565D03*
G01X890145Y1177565D03*
G01X810135Y1177565D03*
G01X730150Y1177565D03*
G01X-123490Y1337096D03*
G01X-203475Y1337096D03*
G01X-283485Y1337096D03*
G01X-363470Y1337096D03*
G01X-363470Y1257086D03*
G01X-283485Y1257086D03*
G01X-203475Y1257086D03*
G01X-123490Y1257086D03*
G01X-123490Y1177076D03*
G01X-203475Y1177076D03*
G01X-283485Y1177076D03*
G01X-363470Y1177076D03*
G54D12*
G01X90001Y1321076D03*
G01X-1040997Y357075D03*
G01X-673998Y760774D03*
G01X260002Y902076D03*
G01X-489999Y721076D03*
G01X1520002Y932076D03*
G01X2050004Y1851078D03*
G01X1850004Y1451078D03*
G01X1850004Y1251078D03*
G01X1850004Y1051078D03*
G01X1850004Y-148923D03*
G01X1850004Y-348923D03*
G01X1850004Y-548923D03*
G01X1850004Y-1348923D03*
G01X1650004Y1451078D03*
G01X1650004Y1251078D03*
G01X1670002Y961076D03*
G01X1650004Y651078D03*
G01X1650004Y251077D03*
G01X1650004Y-348923D03*
G01X1650004Y-1348923D03*
G01X1450004Y1851078D03*
G01X1450004Y1651078D03*
G01X1450004Y1451078D03*
G01X1450004Y1251078D03*
G01X1450004Y851078D03*
G01X1450004Y-148923D03*
G01X1450004Y-348923D03*
G01X1450004Y-748923D03*
G01X1450004Y-1548923D03*
G01X1450004Y-1748924D03*
G01X1450004Y-1948924D03*
G01X1250004Y1851078D03*
G01X1250004Y1651078D03*
G01X1250004Y1451078D03*
G01X1250004Y1251078D03*
G01X1250004Y1051078D03*
G01X1250004Y851078D03*
G01X1250004Y251077D03*
G01X1250004Y-148923D03*
G01X1250004Y-1548923D03*
G01X1250004Y-1948924D03*
G01X1050003Y1651078D03*
G01X1050003Y1251078D03*
G01X1050003Y251077D03*
G01X1050003Y-148923D03*
G01X1050003Y-1548923D03*
G01X1050003Y-1948924D03*
G01X850003Y251077D03*
G01X850003Y-148923D03*
G01X850003Y-1548923D03*
G01X850003Y-1748924D03*
G01X850003Y-1948924D03*
G01X650003Y251077D03*
G01X650003Y-148923D03*
G01X650003Y-1548923D03*
G01X650003Y-1748924D03*
G01X650003Y-1948924D03*
G01X450003Y1451078D03*
G01X450003Y851078D03*
G01X450003Y-1148923D03*
G01X450003Y-1548923D03*
G01X450003Y-1948924D03*
G01X250003Y1851078D03*
G01X250003Y1451078D03*
G01X250003Y1251078D03*
G01X250003Y-1748924D03*
G01X250003Y-1948924D03*
G01X50003Y1651078D03*
G01X50003Y-1948924D03*
G01X-149997Y-1748924D03*
G01X-549997Y1851078D03*
G01X-549997Y1651078D03*
G01X-549997Y1451078D03*
G01X-549997Y1251078D03*
G01X-549997Y-1348923D03*
G01X-749997Y1451078D03*
G01X-949998Y51077D03*
G01X-949998Y-548923D03*
G01X-949998Y-748923D03*
G01X-949998Y-948923D03*
G01X-949998Y-1148923D03*
G01X-949998Y-1348923D03*
G01X-1149998Y251077D03*
G01X-1149998Y51077D03*
G01X-1149998Y-548923D03*
G01X-1149998Y-748923D03*
G01X-1349998Y1851078D03*
G01X-1349998Y1651078D03*
G01X-1349998Y1451078D03*
G01X-1349998Y1051078D03*
G01X-1349998Y251077D03*
G01X-1349998Y-148923D03*
G01X-1349998Y-348923D03*
G01X-1349998Y-548923D03*
G01X-1349998Y-1148923D03*
G01X-1349998Y-1348923D03*
G01X-1549998Y1451078D03*
G01X-1549998Y1051078D03*
G01X-1549998Y851078D03*
G01X-1549998Y251077D03*
G01X-1549998Y-148923D03*
G01X-1549998Y-348923D03*
G01X-1549998Y-548923D03*
G01X-1549998Y-1148923D03*
G01X-1549998Y-1348923D03*
G01X-1749998Y1451078D03*
G01X-1749998Y1251078D03*
G01X-1749998Y1051078D03*
G01X-1749998Y-148923D03*
G01X-1749998Y-348923D03*
G01X-1749998Y-548923D03*
G01X-1749998Y-748923D03*
G01X-1749998Y-1148923D03*
G01X-1949998Y2051078D03*
G01X-1949998Y1451078D03*
G01X-1949998Y1251078D03*
G01X-1949998Y1051078D03*
G01X-1949998Y-148923D03*
G01X-1949998Y-348923D03*
G01X-1949998Y-548923D03*
G01X-1949998Y-748923D03*
G01X-1949998Y-1148923D03*
G01X-1949998Y-1348923D03*
G01X-1949998Y-1548923D03*
G01X-1949998Y-1948924D03*
G01X-769009Y1597080D03*
G01X-1012543Y2061077D03*
G01X-810117Y-2058926D03*
G01X-1010117Y-2058926D03*
G54D14*
G01X540002Y-1438925D03*
G54D12*
G01X-659917Y-1086190D03*
G54D14*
G01X1720002Y-678925D03*
G01X1680002Y-1048925D03*
G54D12*
G01X1520002Y-948925D03*
G01X1690002Y-818925D03*
G01X1880002Y-818925D03*
G01X1840002Y-878925D03*
G01X1170002Y-468925D03*
G01X1345002Y-748925D03*
G01X477338Y440588D03*
G01X1019853Y748362D03*
G01X810135Y1063310D03*
G01X913880Y1818442D03*
G01X-146994Y1771075D03*
G01X1818461Y57617D03*
G01X1918460Y57617D03*
G01X2018461Y57617D03*
G01X2018461Y157575D03*
G01X1918460Y157575D03*
G01X1818461Y157575D03*
G01X1818461Y257534D03*
G01X1918460Y257534D03*
G01X2018461Y257534D03*
G01X2018460Y949530D03*
G01X1918460Y949530D03*
G01X1818460Y949530D03*
G01X1818460Y849572D03*
G01X1918460Y849572D03*
G01X2018460Y849572D03*
G01X2018460Y749613D03*
G01X1918460Y749613D03*
G01X1818460Y749613D03*
G01X-1942236Y58357D03*
G01X-1842236Y58357D03*
G01X-1742236Y58357D03*
G01X-1742236Y158315D03*
G01X-1842236Y158315D03*
G01X-1942236Y158315D03*
G01X-1942236Y258273D03*
G01X-1842236Y258273D03*
G01X-1742236Y258273D03*
G01X-1942452Y948892D03*
G01X-1842452Y948892D03*
G01X-1742452Y948892D03*
G01X-1942452Y848934D03*
G01X-1842452Y848934D03*
G01X-1742452Y848934D03*
G01X-1742452Y748976D03*
G01X-1842452Y748976D03*
G01X-1942452Y748976D03*
G01X-1942452Y649017D03*
G01X-1842452Y649017D03*
G01X-1742452Y649017D03*
G54D15*
G01X-1761739Y-1328925D03*
G54D16*
G01X-362485Y1771078D03*
G54D12*
G01X590002Y1031076D03*
G01X-721739Y1022909D03*
G01X-1019999Y781076D03*
G01X-1192236Y413232D03*
G01X-1292236Y413232D03*
G01X-1342236Y358232D03*
G01X-1338925Y649101D03*
G01X-1288926Y594101D03*
G01X1919885Y-2018926D03*
G01X2009885Y-1958925D03*
G01X2057025Y-1866912D03*
G01X2070002Y-1528925D03*
G01X2070002Y-1628925D03*
G01X2070002Y-1738925D03*
G01X2030002Y1901077D03*
G01X1970002Y1991077D03*
G01X1789885Y-2058926D03*
G01X1689885Y-2058926D03*
G01X1589885Y-2058926D03*
G01X1489884Y-2058926D03*
G01X1389884Y-2058926D03*
G01X1289884Y-2058926D03*
G01X1189884Y-2058926D03*
G01X1089884Y-2058926D03*
G01X989884Y-2058926D03*
G01X889884Y-2058926D03*
G01X789884Y-2058926D03*
G01X689884Y-2058926D03*
G01X589884Y-2058926D03*
G01X489884Y-2058926D03*
G01X389884Y-2058926D03*
G01X289884Y-2058926D03*
G01X189884Y-2058926D03*
G01X89884Y-2058926D03*
G01X-10116Y-2058926D03*
G01X-110116Y-2058926D03*
G01X-210116Y-2058926D03*
G01X-310116Y-2058926D03*
G01X-410117Y-2058926D03*
G01X-510117Y-2058926D03*
G01X-610117Y-2058926D03*
G01X-710117Y-2058926D03*
G01X-910117Y-2058926D03*
G01X-1110117Y-2058926D03*
G01X-1210117Y-2058926D03*
G01X-1310117Y-2058926D03*
G01X-1410117Y-2058926D03*
G01X-1510117Y-2058926D03*
G01X-1610117Y-2058926D03*
G01X-1710117Y-2058926D03*
G01X-1810117Y-2058926D03*
G01X-1910000Y-2038926D03*
G01X-1990000Y-1978925D03*
G01X-2033931Y-1874994D03*
G01X-2050000Y-1781650D03*
G01X-2050000Y-1681650D03*
G01X-2050000Y-1581650D03*
G01X-2050000Y-1481650D03*
G01X-2050000Y-1381650D03*
G01X-2050000Y-1281650D03*
G01X-2050000Y-1181650D03*
G01X-2050000Y-1081650D03*
G01X-2050000Y-981650D03*
G01X-2050000Y-881650D03*
G01X-2050000Y-781650D03*
G01X-2050000Y-681650D03*
G01X-2050000Y-581650D03*
G01X-2050000Y-481650D03*
G01X-2050000Y-381650D03*
G01X-2050000Y-281650D03*
G01X-2050000Y-181650D03*
G01X-2050000Y-81650D03*
G01X-2050000Y18350D03*
G01X-2050000Y118351D03*
G01X-2050000Y218351D03*
G01X-2050000Y718351D03*
G01X-2050000Y818351D03*
G01X-2050000Y918351D03*
G01X-2050000Y1018351D03*
G01X-2050000Y1118351D03*
G01X-2050000Y1218351D03*
G01X-2050000Y1318351D03*
G01X-2050000Y1418351D03*
G01X-2050000Y1518351D03*
G01X-2050000Y1618351D03*
G01X-2050000Y1718351D03*
G01X-2026860Y1854217D03*
G01X-1990000Y1951077D03*
G01X-1920000Y2011077D03*
G01X-1812543Y2061077D03*
G01X-1712543Y2061077D03*
G01X-1612543Y2061077D03*
G01X-1512543Y2061077D03*
G01X-1412543Y2061077D03*
G01X-1312543Y2061077D03*
G01X-1212543Y2061077D03*
G01X-1112543Y2061077D03*
G01X-912543Y2061077D03*
G01X-812543Y2061077D03*
G01X-712543Y2061077D03*
G01X-612543Y2061077D03*
G01X-512543Y2061077D03*
G01X-412543Y2061077D03*
G01X-312543Y2061077D03*
G01X-212543Y2061077D03*
G01X-112543Y2061077D03*
G01X-12543Y2061077D03*
G01X87458Y2061077D03*
G01X187458Y2061077D03*
G01X287458Y2061077D03*
G01X387458Y2061077D03*
G01X487458Y2061077D03*
G01X587458Y2061077D03*
G01X687458Y2061077D03*
G01X787458Y2061077D03*
G01X887458Y2061077D03*
G01X987458Y2061077D03*
G01X1087458Y2061077D03*
G01X1187458Y2061077D03*
G01X1287458Y2061077D03*
G01X1387458Y2061077D03*
G01X1487458Y2061077D03*
G01X1587458Y2061077D03*
G01X1687458Y2061077D03*
G01X1787458Y2061077D03*
G01X1877989Y2038216D03*
G01X2070002Y1771076D03*
G01X2070002Y1671076D03*
G01X2070002Y1571076D03*
G01X2070002Y1471076D03*
G01X2070002Y1371076D03*
G01X2070002Y1271076D03*
G01X2070002Y1171076D03*
G01X2070002Y1071076D03*
G01X2070002Y971076D03*
G01X2070002Y871076D03*
G01X2070002Y771076D03*
G01X2070002Y671076D03*
G01X2070002Y271076D03*
G01X2070002Y171076D03*
G01X2070002Y71076D03*
G01X2070002Y-28925D03*
G01X2070002Y-128925D03*
G01X2070002Y-228925D03*
G01X2070002Y-328925D03*
G01X2070002Y-428925D03*
G01X2070002Y-528925D03*
G01X2070002Y-628925D03*
G01X2070002Y-728925D03*
G01X2070002Y-828925D03*
G01X2070002Y-928925D03*
G01X2070002Y-1028925D03*
G01X2070002Y-1128925D03*
G01X2070002Y-1228925D03*
G01X2070002Y-1328925D03*
G01X2070002Y-1428925D03*
G01X-640000Y1233331D03*
G01X-359999Y-1588925D03*
G01X-89999Y-1118925D03*
G01X-249999Y-1118925D03*
G01X-409999Y-1218925D03*
G01X-449999Y-1658925D03*
G01X1340002Y-528925D03*
G01X605002Y-787703D03*
G01X599999Y-937703D03*
G01X-799999Y-1086190D03*
G01X110001Y-1008925D03*
G01X-69999Y-1008925D03*
G01X-800001Y-937557D03*
G01X-800000Y-210000D03*
G01X-800000Y-360000D03*
G01X-799999Y-488925D03*
G54D16*
G01X740002Y1761076D03*
G54D14*
G01X-1519999Y1331076D03*
G54D12*
G01X1713046Y186810D03*
G01X-1450001Y-630000D03*
G54D14*
G01X-1150340Y-1256587D03*
G54D12*
G01X-343999Y476075D03*
G01X-379999Y531076D03*
G01X-768994Y525773D03*
G01X-592361Y234900D03*
G01X220001Y-948925D03*
G01X270001Y-888925D03*
G01X360002Y-818925D03*
G01X430002Y-758925D03*
G01X-1065997Y-1889921D03*
G01X-892998Y-1636921D03*
G01X-1150340Y-1828587D03*
G01X-1309999Y-1808926D03*
G01X-719999Y-1508925D03*
G01X-359999Y-1408925D03*
G01X240002Y-1588925D03*
G01X-768994Y732024D03*
G01X-915385Y354431D03*
G01X-785379Y354431D03*
G01X-1242236Y358232D03*
G01X-600340Y594414D03*
G01X1318460Y357492D03*
G01X1718460Y649655D03*
G01X1218461Y357492D03*
G01X238966Y193291D03*
G01X281004Y140066D03*
G01X1110002Y881076D03*
G01X797199Y751480D03*
G01X288043Y746254D03*
G01X-231540Y594655D03*
G01X-181540Y649655D03*
G01X-668926Y594101D03*
G01X1169661Y824414D03*
G01X129660Y-155587D03*
G01X229660Y-155587D03*
G01X29660Y-155587D03*
G01X-70340Y-155587D03*
G01X-300340Y-65587D03*
G01X-653183Y217256D03*
G01X-582472Y146546D03*
G01X-370340Y-65587D03*
G01X-441761Y75835D03*
G01X-371051Y5124D03*
G01X1500913Y-95322D03*
G01X1642335Y116100D03*
G01X1571624Y45389D03*
G01X1500913Y-25322D03*
G01X1713046Y116811D03*
G01X1642335Y46100D03*
G01X1571624Y-24611D03*
G01X1373043Y-40321D03*
G01X1423043Y-95322D03*
G01X1123043Y-95322D03*
G01X1223043Y-95322D03*
G01X1323043Y-95322D03*
G01X1073043Y-40321D03*
G01X373043Y-40321D03*
G01X423043Y-95322D03*
G01X473043Y-40321D03*
G01X523043Y-95322D03*
G01X573043Y-40321D03*
G01X623043Y-95322D03*
G01X673043Y-40321D03*
G01X723043Y-95322D03*
G01X773043Y-40321D03*
G01X823043Y-95322D03*
G01X873043Y-40321D03*
G01X923043Y-95322D03*
G01X973043Y-40321D03*
G01X1023043Y-95322D03*
G01X1173043Y-40321D03*
G01X1273043Y-40321D03*
G01X1073042Y141841D03*
G01X1123042Y196841D03*
G01X1173042Y141841D03*
G01X1223043Y196841D03*
G01X1323042Y196841D03*
G01X1273042Y141841D03*
G01X973043Y141841D03*
G01X1268461Y412492D03*
G01X1373042Y141841D03*
G01X1323042Y196841D03*
G01X1273042Y141841D03*
G01X1223043Y196841D03*
G01X1173042Y141841D03*
G01X1123042Y196841D03*
G01X1073042Y141841D03*
G01X1023042Y196841D03*
G01X923042Y196841D03*
G01X873042Y141841D03*
G01X823042Y196841D03*
G01X773042Y141841D03*
G01X723042Y196841D03*
G01X673042Y141841D03*
G01X623042Y196841D03*
G01X573042Y141841D03*
G01X523042Y196841D03*
G01X473042Y141841D03*
G01X423042Y196841D03*
G01X373042Y141841D03*
G01X331004Y195066D03*
G01X122160Y219414D03*
G01X-26958Y141841D03*
G01X-76958Y196841D03*
G01X-477910Y117407D03*
G01X1398954Y209113D03*
G01X1343954Y259113D03*
G01X1398954Y309113D03*
G01X-229233Y409329D03*
G01X-174233Y359328D03*
G01X-229233Y309329D03*
G01X-174233Y259328D03*
G01X-1009763Y1013432D03*
G01X-954763Y963432D03*
G01X-1009763Y913432D03*
G01X218460Y649655D03*
G01X268460Y594655D03*
G01X318460Y649655D03*
G01X-486216Y612283D03*
G01X-938925Y649101D03*
G01X-838925Y649101D03*
G01X-1238925Y649101D03*
G01X-1138925Y649101D03*
G01X-1038925Y649101D03*
G01X-31540Y594655D03*
G01X-81540Y649655D03*
G01X168460Y594655D03*
G01X118460Y649655D03*
G01X18460Y649655D03*
G01X68460Y594655D03*
G01X1118460Y649655D03*
G01X1068460Y594655D03*
G01X1018460Y649655D03*
G01X1418460Y649655D03*
G01X1368460Y594655D03*
G01X1318460Y649655D03*
G01X1268460Y594655D03*
G01X1168460Y594655D03*
G01X1218460Y649655D03*
G01X2068460Y594655D03*
G01X2018460Y649655D03*
G01X1968460Y594655D03*
G01X1918460Y649655D03*
G01X1868460Y594655D03*
G01X1818460Y649655D03*
G01X1768460Y594655D03*
G01X-788926Y594101D03*
G01X-888925Y594101D03*
G01X-988925Y594101D03*
G01X-1088925Y594101D03*
G01X-1188925Y594101D03*
G01X-2092452Y594017D03*
G01X-1792452Y594017D03*
G01X-1892452Y594017D03*
G01X-1992452Y594017D03*
G01X-1642452Y649017D03*
G01X-1742452Y649017D03*
G01X-1842452Y649017D03*
G01X-1942452Y649017D03*
G01X-2042452Y649017D03*
G01X2018461Y357492D03*
G01X1918460Y357492D03*
G01X1818460Y357492D03*
G01X2068460Y412492D03*
G01X1968461Y412492D03*
G01X1868461Y412492D03*
G01X1768461Y412492D03*
G01X1118461Y357492D03*
G01X1018460Y357492D03*
G01X918460Y357492D03*
G01X818460Y357492D03*
G01X718461Y357492D03*
G01X618461Y357492D03*
G01X1168460Y412492D03*
G01X1068460Y412492D03*
G01X968461Y412492D03*
G01X868461Y412492D03*
G01X768460Y412492D03*
G01X568460Y412492D03*
G01X418460Y357492D03*
G01X118461Y357492D03*
G01X18460Y357492D03*
G01X-81540Y357492D03*
G01X68461Y412492D03*
G01X-31539Y412492D03*
G01X518460Y357492D03*
G01X-642236Y358232D03*
G01X-592236Y413232D03*
G01X-1442236Y358232D03*
G01X-1542236Y358232D03*
G01X-1642236Y358232D03*
G01X-1742236Y358232D03*
G01X-1842236Y358232D03*
G01X-1942236Y358232D03*
G01X-2042236Y358232D03*
G01X-1392236Y413232D03*
G01X-1492236Y413232D03*
G01X-1592236Y413232D03*
G01X-1692236Y413232D03*
G01X-1792236Y413232D03*
G01X-1892236Y413232D03*
G01X-1992236Y413232D03*
G01X-2092236Y413232D03*
G01X-236720Y-526286D03*
G01X-236720Y-411986D03*
G01X283980Y-465326D03*
G01X-1299999Y1131076D03*
G01X-1089999Y1271076D03*
G01X-1080340Y1274414D03*
G01X276360Y-307846D03*
G01X259441Y1317954D03*
G01X591320Y454154D03*
G01X543060Y471934D03*
G01X543060Y525274D03*
G01X591320Y506647D03*
G01X543060Y526120D03*
G01X591320Y559140D03*
G01X543060Y580307D03*
G01X591320Y611634D03*
G01X543060Y634494D03*
G01X144095Y302507D03*
G01X1567617Y470554D03*
G01X1512776Y536923D03*
G01X720002Y691076D03*
G01X440002Y1221076D03*
G01X-543485Y951447D03*
G01X-767580Y1193294D03*
G01X-895202Y1192726D03*
G01X349335Y297820D03*
G01X-249999Y761076D03*
G01X-74160Y-617726D03*
G54D18*
G01X1051060Y-605026D03*
G01X463434Y-601351D03*
G54D12*
G01X-1104539Y-275007D03*
G01X1650002Y761076D03*
G54D18*
G01X1110002Y1811077D03*
G01X40001Y1801077D03*
G54D12*
G01X-650000Y-490000D03*
G01X-389999Y-1048925D03*
G01X1Y951076D03*
G01X1520002Y1111076D03*
G01X-241800Y-615186D03*
G01X370002Y1761076D03*
G01X-667998Y1602072D03*
G01X-675998Y1834072D03*
G01X-769999Y1831077D03*
G54D16*
G01X-999999Y1951077D03*
G54D14*
G01X-1469999Y731076D03*
G54D12*
G01X22360Y-665986D03*
G01X-89999Y-848925D03*
G01X-154899Y-863324D03*
G01X-126120Y-956926D03*
G01X151500Y-273706D03*
G01X-118500Y-363706D03*
G01X151500Y-453706D03*
G01X-118500Y-543707D03*
G01X-28500Y-543707D03*
G01X61500Y-543707D03*
G01X151500Y-543707D03*
G01X61500Y-453706D03*
G01X-28500Y-453706D03*
G01X-118500Y-453706D03*
G01X-28500Y-363706D03*
G01X61500Y-273706D03*
G01X-28500Y-273706D03*
G01X-118500Y-273706D03*
G01X151500Y-363706D03*
G01X61500Y-363706D03*
G01X1138445Y-1738586D03*
G01X1140002Y-1348925D03*
G01X-19999Y-968925D03*
G01X180001Y-1348925D03*
G01X940680Y-160407D03*
G01X780002Y-388925D03*
G01X1154040Y-339706D03*
G01X950840Y-656089D03*
G01X751603Y-601326D03*
G01X740002Y-488925D03*
G01X600002Y-468925D03*
G01X70001Y-1118925D03*
G01X-169999Y-1108925D03*
G01X-470000Y-340000D03*
G01X-250000Y-300000D03*
G01X-230000Y-240000D03*
G01X-1386501Y-739999D03*
G01X-1270001Y-850000D03*
G01X-1500001Y-780000D03*
G01X-1660001Y-790000D03*
G01X160000Y-1110001D03*
G01X170000Y-880000D03*
G01X-770000Y-710000D03*
G01X-820000Y-790000D03*
G01X-664999Y-357557D03*
G04 Via End*

M02*
