G04 Layer: InnerLayer3*
G04 EasyEDA Pro v2.1.64.d1969c9c.217bcf, 2024-08-30 02:53:31*
G04 Gerber Generator version 0.3*
G04 Scale: 100 percent, Rotated: No, Reflected: No*
G04 Dimensions in millimeters*
G04 Leading zeros omitted, absolute positions, 3 integers and 5 decimals*
%FSLAX35Y35*%
%MOMM*%
%ADD8191C,0.2032*%
%ADD10C,5.2*%
%ADD11C,1.1*%
%ADD12C,0.45*%
%ADD13C,0.50002*%
%ADD14C,0.6*%
%ADD15C,0.55*%
%ADD16C,0.8026*%
%ADD17C,0.8*%
%ADD18C,0.65*%
%ADD19C,0.15*%
%ADD20C,1.0*%
%ADD21C,0.2*%
G75*


G04 Copper Start*
G36*
G01X771250Y-1977312D02*
G03X739884Y-1991784I18635J-81614D01*
G03X726236Y-1983516I-50000J-67142D01*
G03X733717Y-1948924I-76233J34592D01*
G03X650003Y-1865210I-83714J0D01*
G03X566289Y-1948924I0J-83714D01*
G03X571249Y-1977312I83714J0D01*
G03X539884Y-1991784I18635J-81614D01*
G03X526236Y-1983516I-50000J-67142D01*
G03X533717Y-1948924I-76233J34592D01*
G03X450003Y-1865210I-83714J0D01*
G03X366289Y-1948924I0J-83714D01*
G03X371249Y-1977312I83714J0D01*
G03X339884Y-1991784I18635J-81614D01*
G03X326236Y-1983516I-50000J-67142D01*
G03X333717Y-1948924I-76233J34592D01*
G03X250003Y-1865210I-83714J0D01*
G03X166289Y-1948924I0J-83714D01*
G03X171249Y-1977312I83714J0D01*
G03X139884Y-1991784I18635J-81614D01*
G03X126236Y-1983516I-50000J-67142D01*
G03X133717Y-1948924I-76233J34592D01*
G03X50003Y-1865210I-83714J0D01*
G03X-33711Y-1948924I0J-83714D01*
G03X-28751Y-1977312I83714J0D01*
G03X-60116Y-1991784I18635J-81614D01*
G03X-110116Y-1975211I-50000J-67142D01*
G03X-160116Y-1991784I0J-83714D01*
G03X-210116Y-1975211I-50000J-67142D01*
G03X-260116Y-1991784I0J-83714D01*
G03X-310116Y-1975211I-50000J-67142D01*
G03X-360117Y-1991784I0J-83714D01*
G03X-410117Y-1975211I-50000J-67142D01*
G03X-460117Y-1991784I0J-83714D01*
G03X-510117Y-1975211I-50000J-67142D01*
G03X-560117Y-1991784I0J-83714D01*
G03X-610117Y-1975211I-50000J-67142D01*
G03X-660117Y-1991784I0J-83714D01*
G03X-710117Y-1975211I-50000J-67142D01*
G03X-760117Y-1991784I0J-83714D01*
G03X-810117Y-1975211I-50000J-67142D01*
G03X-860117Y-1991784I0J-83714D01*
G03X-910117Y-1975211I-50000J-67142D01*
G03X-960117Y-1991784I0J-83714D01*
G03X-1010117Y-1975211I-50000J-67142D01*
G03X-1060117Y-1991784I0J-83714D01*
G03X-1110117Y-1975211I-50000J-67142D01*
G03X-1160117Y-1991784I0J-83714D01*
G03X-1210117Y-1975211I-50000J-67142D01*
G03X-1260117Y-1991784I0J-83714D01*
G03X-1310117Y-1975211I-50000J-67142D01*
G03X-1360117Y-1991784I0J-83714D01*
G03X-1410117Y-1975211I-50000J-67142D01*
G03X-1460117Y-1991784I0J-83714D01*
G03X-1505839Y-1975321I-50000J-67142D01*
G03X-1409126Y-1745587I-224501J229734D01*
G03X-1730340Y-1424373I-321214J0D01*
G03X-1906826Y-1477200I0J-321214D01*
G03X-1949998Y-1465209I-43172J-71723D01*
G03X-1967565Y-1467073I0J-83714D01*
G03X-1982858Y-1431650I-82435J-14577D01*
G03X-1979746Y-1427174I-67142J50000D01*
G03X-1949998Y-1432637I29747J78250D01*
G03X-1866284Y-1348923I0J83714D01*
G03X-1949998Y-1265209I-83714J0D01*
G03X-1967565Y-1267073I0J-83714D01*
G03X-1982858Y-1231650I-82435J-14577D01*
G03X-1979746Y-1227174I-67142J50000D01*
G03X-1949998Y-1232637I29747J78250D01*
G03X-1866284Y-1148923I0J83714D01*
G03X-1949998Y-1065209I-83714J0D01*
G03X-1967565Y-1067073I0J-83714D01*
G03X-1982858Y-1031650I-82435J-14577D01*
G03X-1966286Y-981650I-67142J50000D01*
G03X-1982858Y-931650I-83714J0D01*
G03X-1966286Y-881650I-67142J50000D01*
G03X-1982858Y-831650I-83714J0D01*
G03X-1979746Y-827174I-67142J50000D01*
G03X-1949998Y-832637I29747J78250D01*
G03X-1866284Y-748923I0J83714D01*
G03X-1949998Y-665209I-83714J0D01*
G03X-1967565Y-667073I0J-83714D01*
G03X-1982858Y-631650I-82435J-14577D01*
G03X-1979746Y-627173I-67142J50000D01*
G03X-1949998Y-632637I29747J78250D01*
G03X-1866284Y-548923I0J83714D01*
G03X-1949998Y-465209I-83714J0D01*
G03X-1967565Y-467073I0J-83714D01*
G03X-1982858Y-431650I-82435J-14577D01*
G03X-1979746Y-427173I-67142J50000D01*
G03X-1949998Y-432637I29747J78250D01*
G03X-1866284Y-348923I0J83714D01*
G03X-1949998Y-265209I-83714J0D01*
G03X-1967565Y-267073I0J-83714D01*
G03X-1982858Y-231650I-82435J-14577D01*
G03X-1979746Y-227173I-67142J50000D01*
G03X-1949998Y-232637I29747J78250D01*
G03X-1866284Y-148923I0J83714D01*
G03X-1949998Y-65209I-83714J0D01*
G03X-1967565Y-67072I0J-83714D01*
G03X-1982858Y-31650I-82435J-14577D01*
G03X-1974935Y-18707I-67142J50000D01*
G03X-1942236Y-25358I32699J77064D01*
G03X-1892236Y-8786I0J83714D01*
G03X-1842236Y-25358I50000J67142D01*
G03X-1792236Y-8785I0J83714D01*
G03X-1742236Y-25358I50000J67142D01*
G03X-1658522Y58357I0J83714D01*
G03X-1675079Y108336I-83714J0D01*
G03X-1658522Y158315I-67157J49979D01*
G03X-1675079Y208294I-83714J0D01*
G03X-1658522Y258273I-67157J49979D01*
G03X-1660540Y276543I-83714J0D01*
G03X-1642236Y274518I18304J81689D01*
G03X-1630100Y275402I0J83714D01*
G03X-1633712Y251077I80102J-24324D01*
G03X-1549998Y167363I83714J0D01*
G03X-1466284Y251077I0J83714D01*
G03X-1471344Y279741I-83714J0D01*
G03X-1442236Y274518I29108J78491D01*
G03X-1430100Y275402I0J83714D01*
G03X-1433712Y251077I80102J-24324D01*
G03X-1349998Y167363I83714J0D01*
G03X-1266284Y251077I0J83714D01*
G03X-1271344Y279741I-83714J0D01*
G03X-1242236Y274518I29108J78491D01*
G03X-1230100Y275402I0J83714D01*
G03X-1233712Y251077I80102J-24324D01*
G03X-1149998Y167363I83714J0D01*
G03X-1066284Y251077I0J83714D01*
G03X-1071058Y278944I-83714J0D01*
G03X-1040997Y273361I30060J78131D01*
G03X-979356Y300433I0J83714D01*
G03X-915385Y270717I63971J53998D01*
G03X-850382Y301680I0J83714D01*
G03X-785379Y270717I65003J52751D01*
G03X-712656Y312965I0J83714D01*
G03X-692403Y291214I70420J45267D01*
G03X-736897Y217256I39220J-73958D01*
G03X-665304Y134424I83714J0D01*
G03X-582472Y62831I82832J12121D01*
G03X-547301Y70578I0J83714D01*
G03X-519490Y44749I69391J46829D01*
G03X-453883Y-6997I77728J31086D01*
G03X-446573Y-30994I82832J12121D01*
G03X-454054Y-65587I76232J-34593D01*
G03X-370340Y-149301I83714J0D01*
G03X-335340Y-141633I0J83714D01*
G03X-300340Y-149301I35000J76046D01*
G03X-216626Y-65587I0J83714D01*
G03X-288219Y17245I-83714J0D01*
G03X-358929Y87956I-82832J-12121D01*
G03X-400182Y148493I-82832J-12121D01*
G03X-477910Y201121I-77728J-31086D01*
G03X-513081Y193374I0J-83714D01*
G03X-546216Y222001I-69391J-46829D01*
G03X-544447Y234900I-46145J12899D01*
G03X-592361Y282815I-47914J0D01*
G03X-600300Y282152I0J-47914D01*
G03X-603016Y284274I-52883J-64896D01*
G03X-561732Y335273I-39220J73958D01*
G03X-508522Y413232I-30504J77959D01*
G03X-592236Y496946I-83714J0D01*
G03X-672740Y436190I0J-83714D01*
G03X-714959Y399698I30504J-77959D01*
G03X-785379Y438145I-70420J-45267D01*
G03X-850382Y407182I0J-83714D01*
G03X-915385Y438145I-65003J-52751D01*
G03X-977027Y411073I0J-83714D01*
G03X-1040997Y440789I-63971J-53998D01*
G03X-1108822Y406145I0J-83714D01*
G03X-1108522Y413232I-83414J7087D01*
G03X-1192236Y496946I-83714J0D01*
G03X-1242236Y480374I0J-83714D01*
G03X-1292236Y496946I-50000J-67142D01*
G03X-1342236Y480374I0J-83714D01*
G03X-1392236Y496946I-50000J-67142D01*
G03X-1442236Y480374I0J-83714D01*
G03X-1492236Y496946I-50000J-67142D01*
G03X-1542236Y480374I0J-83714D01*
G03X-1592236Y496946I-50000J-67142D01*
G03X-1642236Y480374I0J-83714D01*
G03X-1692236Y496946I-50000J-67142D01*
G03X-1742236Y480374I0J-83714D01*
G03X-1792236Y496946I-50000J-67142D01*
G03X-1842236Y480374I0J-83714D01*
G03X-1892236Y496946I-50000J-67142D01*
G03X-1942236Y480374I0J-83714D01*
G03X-1992236Y496946I-50000J-67142D01*
G03X-2042236Y480374I0J-83714D01*
G03X-2089926Y496914I-50000J-67142D01*
G01Y510341D01*
G03X-2042452Y526875I-2526J83676D01*
G03X-1992452Y510303I50000J67142D01*
G03X-1942452Y526875I0J83714D01*
G03X-1892452Y510303I50000J67142D01*
G03X-1842452Y526875I0J83714D01*
G03X-1792452Y510303I50000J67142D01*
G03X-1711947Y571059I0J83714D01*
G03X-1692452Y581875I-30504J77958D01*
G03X-1642452Y565303I50000J67142D01*
G03X-1558738Y649017I0J83714D01*
G03X-1642452Y732731I-83714J0D01*
G03X-1660756Y730706I0J-83714D01*
G03X-1658738Y748976I-81696J18270D01*
G03X-1675294Y798955I-83714J0D01*
G03X-1658738Y848934I-67157J49979D01*
G03X-1675294Y898913I-83714J0D01*
G03X-1658738Y948892I-67157J49979D01*
G03X-1680198Y1004861I-83714J0D01*
G03X-1666284Y1051078I-69800J46217D01*
G03X-1749998Y1134792I-83714J0D01*
G03X-1833712Y1051078I0J-83714D01*
G03X-1831482Y1031885I83714J0D01*
G03X-1842452Y1032607I-10970J-82992D01*
G03X-1869494Y1028118I0J-83714D01*
G03X-1866284Y1051078I-80504J22959D01*
G03X-1949998Y1134792I-83714J0D01*
G03X-1967565Y1132928I0J-83714D01*
G03X-1982858Y1168351I-82435J-14577D01*
G03X-1979746Y1172828I-67142J50000D01*
G03X-1949998Y1167364I29747J78250D01*
G03X-1866284Y1251078I0J83714D01*
G03X-1949998Y1334792I-83714J0D01*
G03X-1967565Y1332928I0J-83714D01*
G03X-1982858Y1368351I-82435J-14577D01*
G03X-1979746Y1372828I-67142J50000D01*
G03X-1949998Y1367364I29747J78250D01*
G03X-1866624Y1443544I0J83714D01*
G03X-1830837Y1429325I136284J290870D01*
G03X-1749998Y1367364I80838J21753D01*
G03X-1672938Y1418370I0J83714D01*
G03X-1630755Y1429026I-57402J316043D01*
G03X-1561213Y1368119I80757J22052D01*
G03X-1575413Y1331076I41214J-37042D01*
G03X-1519999Y1275662I55414J0D01*
G03X-1464586Y1331076I0J55414D01*
G03X-1501065Y1383155I-55414J0D01*
G03X-1466284Y1451078I-48933J67923D01*
G03X-1495831Y1514906I-83714J0D01*
G03X-1428963Y1623282I-234509J219508D01*
G03X-1349998Y1567364I78965J27796D01*
G03X-1266284Y1651078I0J83714D01*
G03X-1349998Y1734792I-83714J0D01*
G03X-1410106Y1709346I0J-83714D01*
G03X-1409126Y1734414I-320234J25068D01*
G03X-1415737Y1799248I-321214J0D01*
G03X-1349998Y1767364I65739J51830D01*
G03X-1266284Y1851078I0J83714D01*
G03X-1349998Y1934792I-83714J0D01*
G03X-1433493Y1857133I0J-83714D01*
G03X-1520669Y1977758I-296847J-122720D01*
G03X-1512543Y1977363I8125J83319D01*
G03X-1462543Y1993935I0J83714D01*
G03X-1412543Y1977363I50000J67142D01*
G03X-1362543Y1993935I0J83714D01*
G03X-1312543Y1977363I50000J67142D01*
G03X-1262543Y1993935I0J83714D01*
G03X-1212543Y1977363I50000J67142D01*
G03X-1162543Y1993935I0J83714D01*
G03X-1112543Y1977363I50000J67142D01*
G03X-1062543Y1993935I0J83714D01*
G03X-1053825Y1988249I50000J67142D01*
G03X-1065413Y1951077I53826J-37172D01*
G03X-999999Y1885663I65414J0D01*
G03X-934585Y1951077I0J65414D01*
G03X-942948Y1983080I-65414J0D01*
G03X-912543Y1977363I30405J77997D01*
G03X-862543Y1993935I0J83714D01*
G03X-812543Y1977363I50000J67142D01*
G03X-762543Y1993935I0J83714D01*
G03X-712543Y1977363I50000J67142D01*
G03X-662543Y1993935I0J83714D01*
G03X-612543Y1977363I50000J67142D01*
G03X-562543Y1993935I0J83714D01*
G03X-512543Y1977363I50000J67142D01*
G03X-462543Y1993935I0J83714D01*
G03X-412543Y1977363I50000J67142D01*
G03X-362543Y1993935I0J83714D01*
G03X-312543Y1977363I50000J67142D01*
G03X-262543Y1993935I0J83714D01*
G03X-212543Y1977363I50000J67142D01*
G03X-162543Y1993935I0J83714D01*
G03X-112543Y1977363I50000J67142D01*
G03X-62543Y1993935I0J83714D01*
G03X-12543Y1977363I50000J67142D01*
G03X37458Y1993935I0J83714D01*
G03X87458Y1977363I50000J67142D01*
G03X137458Y1993935I0J83714D01*
G03X187458Y1977363I50000J67142D01*
G03X237458Y1993935I0J83714D01*
G03X287458Y1977363I50000J67142D01*
G03X337458Y1993935I0J83714D01*
G03X387458Y1977363I50000J67142D01*
G03X437458Y1993935I0J83714D01*
G03X487458Y1977363I50000J67142D01*
G03X537458Y1993935I0J83714D01*
G03X587458Y1977363I50000J67142D01*
G03X637458Y1993935I0J83714D01*
G03X687458Y1977363I50000J67142D01*
G03X737458Y1993935I0J83714D01*
G03X787458Y1977363I50000J67142D01*
G03X837458Y1993935I0J83714D01*
G03X887458Y1977363I50000J67142D01*
G03X937458Y1993935I0J83714D01*
G03X987458Y1977363I50000J67142D01*
G03X1037458Y1993935I0J83714D01*
G03X1087458Y1977363I50000J67142D01*
G03X1137458Y1993935I0J83714D01*
G03X1187458Y1977363I50000J67142D01*
G03X1237458Y1993935I0J83714D01*
G03X1287458Y1977363I50000J67142D01*
G03X1337458Y1993935I0J83714D01*
G03X1387458Y1977363I50000J67142D01*
G03X1437458Y1993935I0J83714D01*
G03X1487458Y1977363I50000J67142D01*
G03X1537458Y1993935I0J83714D01*
G03X1550135Y1986143I50000J67142D01*
G03X1490582Y1924300I199526J-251730D01*
G03X1450004Y1934792I-40578J-73222D01*
G03X1366290Y1851078I0J-83714D01*
G03X1430390Y1769694I83714J0D01*
G03X1428446Y1734414I319271J-35281D01*
G01X1428455Y1731972D01*
G03X1366290Y1651078I21548J-80893D01*
G03X1450004Y1567364I83714J0D01*
G03X1473313Y1570675I0J83714D01*
G03X1568297Y1469299I276348J163739D01*
G03X1566290Y1451078I81707J-18221D01*
G03X1650004Y1367364I83714J0D01*
G03X1725127Y1414138I0J83714D01*
G03X1749660Y1413200I24533J320276D01*
G03X1774856Y1414189I0J321214D01*
G03X1850004Y1367364I75148J36889D01*
G03X1933718Y1451078I0J83714D01*
G03X1931619Y1469707I-83714J0D01*
G03X1997213Y1529728I-181959J264706D01*
G03X2002860Y1521076I72790J41348D01*
G03X1986288Y1471076I67142J-50000D01*
G03X2002860Y1421076I83714J0D01*
G03X1986288Y1371076I67142J-50000D01*
G03X2002860Y1321076I83714J0D01*
G03X1986288Y1271076I67142J-50000D01*
G03X2002860Y1221076I83714J0D01*
G03X1986288Y1171076I67142J-50000D01*
G03X2002860Y1121076I83714J0D01*
G03X1986288Y1071076I67142J-50000D01*
G03X1996833Y1030402I83714J0D01*
G03X1968460Y1016672I21626J-80872D01*
G03X1931564Y1032212I-50000J-67142D01*
G03X1933718Y1051078I-81561J18866D01*
G03X1850004Y1134792I-83714J0D01*
G03X1766290Y1051078I0J-83714D01*
G03X1772480Y1019486I83714J0D01*
G03X1747199Y993460I45980J-69956D01*
G03X1670002Y1044790I-77196J-32384D01*
G03X1586288Y961076I0J-83714D01*
G03X1670002Y877362I83714J0D01*
G03X1741263Y917146I0J83714D01*
G03X1751302Y899551I77196J32384D01*
G03X1734746Y849572I67157J-49979D01*
G03X1751302Y799592I83714J0D01*
G03X1734746Y749613I67157J-49979D01*
G03X1736764Y731343I83714J0D01*
G03X1718460Y733369I-18304J-81689D01*
G03X1685820Y726743I0J-83714D01*
G01X1684182Y727497D01*
G03X1697916Y761076I-34179J33579D01*
G03X1650002Y808990I-47914J0D01*
G03X1602088Y761076I0J-47914D01*
G03X1615824Y727496I47914J0D01*
G03X1566290Y651078I34180J-76418D01*
G03X1650004Y567364I83714J0D01*
G03X1682644Y573989I0J83714D01*
G03X1687956Y571696I35816J75666D01*
G03X1768460Y510941I80504J22959D01*
G03X1818460Y527513I0J83714D01*
G03X1868460Y510941I50000J67142D01*
G03X1918460Y527513I0J83714D01*
G03X1968460Y510941I50000J67142D01*
G03X2018460Y527513I0J83714D01*
G03X2068460Y510941I50000J67142D01*
G03X2109246Y521549I0J83714D01*
G01Y485599D01*
G03X2068460Y496206I-40786J-73107D01*
G03X2018461Y479634I0J-83714D01*
G03X1968461Y496206I-50000J-67142D01*
G03X1918461Y479634I0J-83714D01*
G03X1868461Y496206I-50000J-67142D01*
G03X1818461Y479634I0J-83714D01*
G03X1768461Y496206I-50000J-67142D01*
G03X1684746Y412492I0J-83714D01*
G03X1737956Y334534I83714J0D01*
G03X1751303Y307513I80504J22958D01*
G03X1735342Y267501I67158J-49979D01*
G03X1731912Y268371I-22296J-80690D01*
G03X1650004Y334792I-81908J-17293D01*
G03X1566290Y251077I0J-83714D01*
G03X1596867Y186390I83714J0D01*
G03X1559503Y128221I45468J-70290D01*
G03X1488792Y57510I12121J-82832D01*
G03X1430743Y20331I12121J-82832D01*
G03X1373043Y43393I-57700J-60653D01*
G03X1323043Y26820I0J-83714D01*
G03X1273043Y43393I-50000J-67142D01*
G03X1223043Y26820I0J-83714D01*
G03X1173043Y43393I-50000J-67142D01*
G03X1123043Y26820I0J-83714D01*
G03X1073043Y43393I-50000J-67142D01*
G03X1023043Y26820I0J-83714D01*
G03X973043Y43393I-50000J-67142D01*
G03X923043Y26821I0J-83714D01*
G03X873043Y43393I-50000J-67142D01*
G03X823043Y26820I0J-83714D01*
G03X773043Y43393I-50000J-67142D01*
G03X723043Y26820I0J-83714D01*
G03X673043Y43393I-50000J-67142D01*
G03X623043Y26820I0J-83714D01*
G03X573043Y43393I-50000J-67142D01*
G03X523043Y26821I0J-83714D01*
G03X473043Y43393I-50000J-67142D01*
G03X423043Y26820I0J-83714D01*
G03X373043Y43393I-50000J-67142D01*
G03X289329Y-40321I0J-83714D01*
G03X342538Y-118280I83714J0D01*
G03X423043Y-179036I80504J22958D01*
G03X473043Y-162464I0J83714D01*
G03X523043Y-179036I50000J67142D01*
G03X568033Y-165919I0J83714D01*
G03X650003Y-232637I81971J16996D01*
G03X728174Y-178878I0J83714D01*
G03X768033Y-165919I-5132J83557D01*
G03X850003Y-232637I81971J16996D01*
G03X886529Y-224248I0J83714D01*
G03X940680Y-244121I54151J63841D01*
G03X1001938Y-217463I0J83714D01*
G03X1050003Y-232637I48065J68541D01*
G03X1128175Y-178878I0J83714D01*
G03X1168033Y-165919I-5132J83557D01*
G03X1250004Y-232637I81971J16996D01*
G03X1328175Y-178878I0J83714D01*
G03X1368033Y-165919I-5132J83557D01*
G03X1450004Y-232637I81971J16996D01*
G03X1529921Y-173850I0J83714D01*
G03X1583745Y-107443I-29007J78528D01*
G03X1654456Y-36732I-12121J82832D01*
G03X1725167Y33979I-12121J82832D01*
G03X1737398Y36717I-12121J82832D01*
G03X1818461Y-26097I81063J20900D01*
G03X1868461Y-9525I0J83714D01*
G03X1918460Y-26097I50000J67142D01*
G03X1968461Y-9525I0J83714D01*
G03X1986779Y-19871I50000J67142D01*
G03X1986288Y-28925I83223J-9054D01*
G03X2002860Y-78925I83714J0D01*
G03X1986288Y-128925I67142J-50000D01*
G03X2002860Y-178925I83714J0D01*
G03X1986288Y-228925I67142J-50000D01*
G03X2002860Y-278925I83714J0D01*
G03X1986288Y-328925I67142J-50000D01*
G03X2002860Y-378925I83714J0D01*
G03X1986288Y-428925I67142J-50000D01*
G03X2002860Y-478925I83714J0D01*
G03X1986288Y-528925I67142J-50000D01*
G03X1986603Y-536180I83714J0D01*
G03X1920482Y-503747I-81602J-82746D01*
G03X1850004Y-465209I-70478J-45176D01*
G03X1798908Y-482611I0J-83714D01*
G03X1727108Y-381527I-108906J-1315D01*
G03X1733718Y-348923I-77104J32605D01*
G03X1650004Y-265209I-83714J0D01*
G03X1566290Y-348923I0J-83714D01*
G03X1603105Y-418267I83714J0D01*
G03X1581088Y-483926I86897J-65659D01*
G03X1690002Y-592839I108914J0D01*
G03X1767139Y-560816I0J108914D01*
G03X1789432Y-606708I82865J11893D01*
G03X1788788Y-618925I115570J-12218D01*
G03X1905002Y-735139I116214J0D01*
G03X1994179Y-693444I0J116214D01*
G03X1986288Y-728925I75823J-35481D01*
G03X2002860Y-778925I83714J0D01*
G03X1986288Y-828925I67142J-50000D01*
G03X2002860Y-878925I83714J0D01*
G03X1986288Y-928925I67142J-50000D01*
G03X2002860Y-978925I83714J0D01*
G03X1987178Y-1016750I67142J-50000D01*
G03X1905002Y-982711I-82177J-82175D01*
G03X1788788Y-1098924I0J-116214D01*
G03X1905002Y-1215138I116214J0D01*
G03X1997011Y-1169917I0J116214D01*
G03X2002860Y-1178925I72991J40992D01*
G03X1986288Y-1228925I67142J-50000D01*
G03X2002860Y-1278925I83714J0D01*
G03X1986288Y-1328925I67142J-50000D01*
G03X2002860Y-1378925I83714J0D01*
G03X1986288Y-1428925I67142J-50000D01*
G03X2002860Y-1478925I83714J0D01*
G03X1986290Y-1528366I67142J-50000D01*
G03X1749660Y-1424373I-236630J-217220D01*
G03X1526385Y-1514661I0J-321214D01*
G03X1450004Y-1465209I-76381J-34263D01*
G03X1366290Y-1548923I0J-83714D01*
G03X1448962Y-1632631I83714J0D01*
G03X1438459Y-1666009I300698J-112955D01*
G03X1366290Y-1748924I11544J-82914D01*
G03X1440309Y-1832074I83714J0D01*
G03X1451557Y-1865224I309351J86488D01*
G01X1450004Y-1865210D01*
G03X1366290Y-1948924I0J-83714D01*
G03X1371250Y-1977312I83714J0D01*
G03X1339884Y-1991784I18635J-81614D01*
G03X1326236Y-1983516I-50000J-67142D01*
G03X1333718Y-1948924I-76233J34592D01*
G03X1250004Y-1865210I-83714J0D01*
G03X1166290Y-1948924I0J-83714D01*
G03X1171250Y-1977312I83714J0D01*
G03X1139884Y-1991784I18635J-81614D01*
G03X1126236Y-1983516I-50000J-67142D01*
G03X1133718Y-1948924I-76233J34592D01*
G03X1050003Y-1865210I-83714J0D01*
G03X966289Y-1948924I0J-83714D01*
G03X971250Y-1977312I83714J0D01*
G03X939884Y-1991784I18635J-81614D01*
G03X926236Y-1983516I-50000J-67142D01*
G03X933717Y-1948924I-76233J34592D01*
G03X850003Y-1865210I-83714J0D01*
G03X766289Y-1948924I0J-83714D01*
G03X771250Y-1977312I83714J0D01*
G37*
%LPC*%
G36*
G01X199922Y119239D02*
G03X281004Y56352I81082J20827D01*
G03X328372Y71042I0J83714D01*
G03X373042Y58127I44671J70800D01*
G03X423042Y74699I0J83714D01*
G03X473042Y58127I50000J67142D01*
G03X523042Y74699I0J83714D01*
G03X573042Y58127I50000J67142D01*
G03X623042Y74699I0J83714D01*
G03X673042Y58127I50000J67142D01*
G03X723042Y74699I0J83714D01*
G03X773042Y58127I50000J67142D01*
G03X823042Y74699I0J83714D01*
G03X873042Y58127I50000J67142D01*
G03X923042Y74699I0J83714D01*
G03X973043Y58127I50000J67142D01*
G03X1023042Y74699I0J83714D01*
G03X1073042Y58127I50000J67142D01*
G03X1123042Y74699I0J83714D01*
G03X1173042Y58127I50000J67142D01*
G03X1223042Y74699I0J83714D01*
G03X1273042Y58127I50000J67142D01*
G03X1323042Y74699I0J83714D01*
G03X1373042Y58127I50000J67142D01*
G03X1456757Y141841I0J83714D01*
G03X1456505Y148320I-83714J0D01*
G03X1482668Y209113I-57552J60793D01*
G03X1466096Y259113I-83714J0D01*
G03X1482668Y309113I-67142J50000D01*
G03X1398954Y392827I-83714J0D01*
G03X1394409Y392703I0J-83714D01*
G03X1348965Y435451I-75949J-35211D01*
G03X1268461Y496206I-80504J-22958D01*
G03X1218460Y479634I0J-83714D01*
G03X1168460Y496206I-50000J-67142D01*
G03X1118460Y479634I0J-83714D01*
G03X1068460Y496206I-50000J-67142D01*
G03X1018460Y479634I0J-83714D01*
G03X968461Y496206I-50000J-67142D01*
G03X918461Y479634I0J-83714D01*
G03X868461Y496206I-50000J-67142D01*
G03X818461Y479634I0J-83714D01*
G03X768460Y496206I-50000J-67142D01*
G03X687956Y435451I0J-83714D01*
G03X670093Y425820I30505J-77958D01*
G03X675034Y454154I-78773J28334D01*
G03X670813Y480400I-83714J0D01*
G03X675034Y506647I-79493J26247D01*
G03X670813Y532894I-83714J0D01*
G03X675034Y559140I-79493J26247D01*
G03X670813Y585387I-83714J0D01*
G03X675034Y611634I-79493J26247D01*
G03X674532Y620786I-83714J0D01*
G03X720002Y607362I45469J70289D01*
G03X800423Y667828I0J83714D01*
G03X880913Y751480I-3224J83652D01*
G03X797199Y835194I-83714J0D01*
G03X716777Y774728I0J-83714D01*
G03X636288Y691076I3224J-83652D01*
G03X636789Y681923I83714J0D01*
G03X601155Y694768I-45469J-70289D01*
G03X543060Y718208I-58095J-60274D01*
G03X459346Y634494I0J-83714D01*
G03X463852Y607400I83714J0D01*
G03X459346Y580307I79209J-27093D01*
G03X463852Y553214I83714J0D01*
G03X459346Y526120I79209J-27093D01*
G01X459347Y525697D01*
G01X459346Y525274D01*
G03X459397Y522357I83714J0D01*
G03X393624Y440588I17941J-81769D01*
G03X393683Y437455I83714J0D01*
G03X334746Y357492I24778J-79963D01*
G03X397296Y276498I83714J0D01*
G03X375675Y265865I25747J-79656D01*
G03X331004Y278780I-44671J-70800D01*
G03X283637Y264090I0J-83714D01*
G03X238966Y277005I-44671J-70800D01*
G03X223345Y275534I0J-83714D01*
G03X227809Y302507I-79250J26973D01*
G03X201995Y362969I-83714J0D01*
G03X148965Y435451I-83535J-5477D01*
G03X68461Y496206I-80504J-22958D01*
G03X18461Y479634I0J-83714D01*
G03X-31539Y496206I-50000J-67142D01*
G03X-112044Y435451I0J-83714D01*
G03X-126506Y428104I30504J-77959D01*
G03X-151275Y439833I-47728J-68776D01*
G03X-229233Y493043I-77959J-30504D01*
G03X-260974Y486792I0J-83714D01*
G03X-274569Y522846I-83025J-10717D01*
G03X-231540Y510941I43029J71809D01*
G03X-151036Y571696I0J83714D01*
G03X-131540Y582513I-30504J77959D01*
G03X-112044Y571696I50000J67142D01*
G03X-31540Y510941I80504J22959D01*
G03X18460Y527513I0J83714D01*
G03X68460Y510941I50000J67142D01*
G03X118460Y527513I0J83714D01*
G03X168460Y510941I50000J67142D01*
G03X218460Y527513I0J83714D01*
G03X268460Y510941I50000J67142D01*
G03X348964Y571696I0J83714D01*
G03X402174Y649655I-30504J77959D01*
G03X366837Y717976I-83714J0D01*
G03X371757Y746254I-78794J28278D01*
G03X288043Y829968I-83714J0D01*
G03X204329Y746254I0J-83714D01*
G03X205490Y732358I83714J0D01*
G03X168460Y716797I12970J-82703D01*
G03X118460Y733369I-50000J-67142D01*
G03X68460Y716797I0J-83714D01*
G03X18460Y733369I-50000J-67142D01*
G03X-31540Y716797I0J-83714D01*
G03X-81540Y733369I-50000J-67142D01*
G03X-131540Y716797I0J-83714D01*
G03X-181540Y733369I-50000J-67142D01*
G03X-219060Y724490I0J-83714D01*
G03X-202085Y761076I-30939J36586D01*
G03X-249999Y808990I-47914J0D01*
G03X-297913Y761076I0J-47914D01*
G03X-249999Y713162I47914J0D01*
G03X-231343Y716943I0J47914D01*
G03X-262044Y672613I49803J-67288D01*
G03X-315254Y594655I30504J-77959D01*
G03X-314461Y583161I83714J0D01*
G03X-379999Y614790I-65538J-52085D01*
G03X-402504Y611708I0J-83714D01*
G01X-402502Y612283D01*
G03X-453940Y689524I-83714J0D01*
G03X-442085Y721076I-36059J31552D01*
G01X-442104Y722424D01*
G01X-296365Y868162D01*
G01X226155D01*
G03X260002Y854162I33846J33914D01*
G03X307916Y902076I0J47914D01*
G03X260002Y949990I-47914J0D01*
G03X224263Y933990I0J-47914D01*
G01X44765D01*
G03X47915Y951076I-44764J17086D01*
G03X46213Y963733I-47914J0D01*
G01X556057D01*
G03X590002Y955662I33944J67343D01*
G03X665416Y1031076I0J75414D01*
G03X643327Y1084402I-75414J0D01*
G01X635256Y1092473D01*
G03X581931Y1114561I-53326J-53326D01*
G01X-64119D01*
G03X-37275Y1177076I-59372J62515D01*
G03X-47119Y1217081I-86215J0D01*
G03X-37275Y1257086I-76372J40005D01*
G03X-47119Y1297091I-86215J0D01*
G03X-37275Y1337096I-76372J40005D01*
G03X-123490Y1423311I-86215J0D01*
G03X-163483Y1413474I0J-86215D01*
G03X-203475Y1423311I-39992J-76379D01*
G03X-243480Y1413468I0J-86215D01*
G03X-283485Y1423311I-40005J-76372D01*
G03X-323477Y1413474I0J-86215D01*
G03X-363470Y1423311I-39992J-76379D01*
G03X-449685Y1337096I0J-86215D01*
G03X-439842Y1297091I86215J0D01*
G03X-449685Y1257086I76372J-40005D01*
G03X-439842Y1217081I86215J0D01*
G03X-449685Y1177076I76372J-40005D01*
G03X-422841Y1114561I86215J0D01*
G01X-579812D01*
G03X-626561Y1098323I0J-75414D01*
G01X-721739D01*
G03X-797153Y1022909I0J-75414D01*
G03X-721739Y947495I75414J0D01*
G01X-627106D01*
G03X-543485Y867733I83621J3952D01*
G03X-459771Y951447I0J83714D01*
G03X-460677Y963733I-83714J0D01*
G01X-46211D01*
G03X-47913Y951076I46212J-12657D01*
G03X-44763Y933990I47914J0D01*
G01X-309999D01*
G03X-333273Y924350I0J-32914D01*
G01X-488651Y768971D01*
G01X-489999Y768990D01*
G03X-537913Y721076I0J-47914D01*
G03X-523780Y687096I47914J0D01*
G03X-552652Y663217I37563J-74813D01*
G03X-600340Y678128I-47688J-68803D01*
G03X-634982Y670624I0J-83714D01*
G03X-663941Y677666I-33944J-76524D01*
G03X-590284Y760774I-10057J83108D01*
G03X-673998Y844488I-83714J0D01*
G03X-741025Y810927I0J-83714D01*
G03X-768994Y815738I-27969J-78904D01*
G03X-852708Y732024I0J-83714D01*
G01X-852707Y731672D01*
G03X-888925Y716243I13782J-82572D01*
G03X-938925Y732815I-50000J-67142D01*
G03X-988925Y716243I0J-83714D01*
G03X-1038925Y732815I-50000J-67142D01*
G03X-1088925Y716243I0J-83714D01*
G03X-1138925Y732815I-50000J-67142D01*
G03X-1188925Y716243I0J-83714D01*
G03X-1238925Y732815I-50000J-67142D01*
G03X-1288925Y716243I0J-83714D01*
G03X-1338925Y732815I-50000J-67142D01*
G03X-1422640Y649101I0J-83714D01*
G03X-1369430Y571142I83714J0D01*
G03X-1288926Y510387I80504J22959D01*
G03X-1238926Y526959I0J83714D01*
G03X-1188925Y510387I50000J67142D01*
G03X-1138925Y526959I0J83714D01*
G03X-1088925Y510387I50000J67142D01*
G03X-1038925Y526959I0J83714D01*
G03X-988925Y510387I50000J67142D01*
G03X-938925Y526959I0J83714D01*
G03X-888925Y510387I50000J67142D01*
G03X-852414Y518768I0J83714D01*
G03X-768994Y442059I83420J7005D01*
G03X-686383Y512227I0J83714D01*
G03X-668926Y510387I17458J81874D01*
G03X-634284Y517890I0J83714D01*
G03X-600340Y510700I33944J76524D01*
G03X-533904Y543479I0J83714D01*
G03X-486216Y528569I47688J68803D01*
G03X-463711Y531651I0J83714D01*
G01X-463713Y531076D01*
G03X-426418Y461410I83714J0D01*
G03X-343999Y392361I82420J14664D01*
G03X-312258Y398611I0J83714D01*
G03X-296375Y359329I83025J10717D01*
G03X-312947Y309329I67142J-50000D01*
G03X-252192Y228824I83714J0D01*
G03X-174233Y175614I77959J30504D01*
G03X-158321Y177141I0J83714D01*
G03X-107462Y118883I81363J19701D01*
G03X-26958Y58127I80504J22959D01*
G03X56757Y141841I0J83714D01*
G03X3547Y219800I-83714J0D01*
G03X-55793Y277836I-80504J-22959D01*
G03X-31540Y290350I-25747J79656D01*
G03X18460Y273778I50000J67142D01*
G03X62024Y286006I0J83714D01*
G03X63663Y279298I82072J16501D01*
G03X38446Y219414I58497J-59884D01*
G03X122160Y135700I83714J0D01*
G03X167787Y149227I0J83714D01*
G03X199922Y119239I71179J44064D01*
G37*
G36*
G01X-249999Y-1202639D02*
G03X-175218Y-1156554I0J83714D01*
G03X-169999Y-1156839I5219J47629D01*
G03X-164779Y-1156554I0J47914D01*
G03X-89999Y-1202639I74780J37629D01*
G03X-9999Y-1143583I0J83714D01*
G03X70001Y-1202639I80000J24658D01*
G03X145259Y-1155591I0J83714D01*
G03X160000Y-1157915I14741J45590D01*
G03X207914Y-1110001I0J47914D01*
G03X162220Y-1062138I-47914J0D01*
G01X143381Y-1043299D01*
G03X157915Y-1008925I-33380J34374D01*
G03X110001Y-961011I-47914J0D01*
G03X62087Y-1008925I0J-47914D01*
G03X64719Y-1024587I47914J0D01*
G01X-24716D01*
G03X-22730Y-1016761I-45282J15662D01*
G03X-19999Y-1016839I2731J47836D01*
G03X27915Y-968925I0J47914D01*
G03X-19999Y-921011I-47914J0D01*
G03X-67268Y-961089I0J-47914D01*
G03X-69999Y-961011I-2731J-47836D01*
G03X-78451Y-961762I0J-47914D01*
G03X-78206Y-956926I-47669J4836D01*
G03X-126120Y-909012I-47914J0D01*
G03X-174034Y-956926I0J-47914D01*
G03X-126120Y-1004841I47914J0D01*
G03X-117668Y-1004089I0J47914D01*
G03X-117913Y-1008925I47669J-4836D01*
G03X-115281Y-1024587I47914J0D01*
G01X-235331D01*
G01X-494959Y-764959D01*
G03X-520000Y-754586I-25041J-25041D01*
G01X-752455D01*
G03X-737726Y-745414I-17545J44586D01*
G01X-464669D01*
G01X-428044Y-782040D01*
G03X-403002Y-792412I25041J25041D01*
G01X-320999D01*
G03X-295958Y-782040I0J35414D01*
G01X-259332Y-745414D01*
G01X-164669D01*
G01X-107806Y-802277D01*
G01X-106162Y-803820D01*
G03X-129924Y-822434I16164J-45105D01*
G03X-154899Y-815410I-24975J-40890D01*
G03X-202813Y-863324I0J-47914D01*
G03X-154899Y-911238I47914J0D01*
G03X-114974Y-889815I0J47914D01*
G03X-89999Y-896839I24975J40890D01*
G03X-42085Y-848925I0J47914D01*
G03X-58696Y-812650I-47914J0D01*
G01X52567D01*
G01X122138Y-882221D01*
G03X170000Y-927915I47863J2220D01*
G03X177210Y-927369I0J47914D01*
G03X172087Y-948925I42791J-21556D01*
G03X220001Y-996839I47914J0D01*
G03X267915Y-948925I0J47914D01*
G03X266329Y-936698I-47914J0D01*
G03X270001Y-936839I3672J47773D01*
G03X317916Y-888925I0J47914D01*
G03X270001Y-841011I-47914J0D01*
G03X222087Y-888925I0J-47914D01*
G03X223674Y-901152I47914J0D01*
G03X220001Y-901011I-3672J-47773D01*
G03X212791Y-901556I0J-47914D01*
G03X217914Y-880000I-42791J21556D01*
G03X172220Y-832138I-47914J0D01*
G01X117532Y-777450D01*
G01X276120D01*
G03X294090Y-770006I0J25414D01*
G01X377972Y-686124D01*
G03X385416Y-668154I-17970J17970D01*
G01Y-408925D01*
G03X377972Y-390954I-25414J0D01*
G01X377334Y-390316D01*
G03X359363Y-382872I-17970J-17970D01*
G01X313497D01*
G03X360074Y-307846I-37137J75026D01*
G03X277702Y-224143I-83714J0D01*
G03X313374Y-155587I-48042J68556D01*
G03X229660Y-71873I-83714J0D01*
G03X179660Y-88445I0J-83714D01*
G03X129660Y-71873I-50000J-67142D01*
G03X79660Y-88445I0J-83714D01*
G03X29660Y-71873I-50000J-67142D01*
G03X-20340Y-88445I0J-83714D01*
G03X-70340Y-71873I-50000J-67142D01*
G03X-154054Y-155587I0J-83714D01*
G03X-144630Y-194175I83714J0D01*
G03X-185172Y-223082I26130J-79532D01*
G03X-230000Y-192086I-44828J-16918D01*
G03X-277914Y-240000I0J-47914D01*
G03X-274150Y-258617I47914J0D01*
G03X-294439Y-282086I24149J-41383D01*
G01X-368312D01*
G03X-391586Y-291727I0J-32914D01*
G01X-424586Y-324727D01*
G03X-470000Y-292086I-45415J-15273D01*
G03X-517914Y-340000I0J-47914D01*
G03X-509600Y-366975I47914J0D01*
G01X-608565Y-465940D01*
G03X-650000Y-442086I-41435J-24060D01*
G03X-697914Y-490000I0J-47914D01*
G03X-674060Y-531435I47914J0D01*
G01X-704710Y-562085D01*
G01X-759310D01*
G03X-716285Y-488925I-40689J73160D01*
G03X-746589Y-424462I-83714J0D01*
G03X-716286Y-360000I-53411J64462D01*
G03X-762811Y-285000I-83714J0D01*
G03X-716286Y-210000I-37189J75000D01*
G03X-800000Y-126286I-83714J0D01*
G03X-883715Y-210000I0J-83714D01*
G03X-837190Y-285000I83714J0D01*
G03X-883715Y-360000I37189J-75000D01*
G03X-853410Y-424463I83714J0D01*
G03X-883713Y-488925I53411J-64462D01*
G03X-883162Y-498514I83714J0D01*
G03X-949998Y-465209I-66835J-50409D01*
G03X-1033712Y-548923I0J-83714D01*
G03X-1032671Y-562085I83714J0D01*
G01X-1067325D01*
G03X-1066284Y-548923I-82673J13162D01*
G03X-1149998Y-465209I-83714J0D01*
G03X-1233712Y-548923I0J-83714D01*
G03X-1232671Y-562085I83714J0D01*
G01X-1267325D01*
G03X-1266284Y-548923I-82673J13162D01*
G03X-1349998Y-465209I-83714J0D01*
G03X-1433712Y-548923I0J-83714D01*
G03X-1422509Y-590758I83714J0D01*
G03X-1450001Y-582086I-27492J-39242D01*
G03X-1477483Y-590751I0J-47914D01*
G03X-1466284Y-548923I-72515J41828D01*
G03X-1549998Y-465209I-83714J0D01*
G03X-1633712Y-548923I0J-83714D01*
G03X-1549998Y-632637I83714J0D01*
G03X-1494083Y-611225I0J83714D01*
G03X-1497915Y-630000I44082J-18775D01*
G03X-1450001Y-677914I47914J0D01*
G03X-1444097Y-677549I0J47914D01*
G01X-1498653Y-732105D01*
G01X-1500001Y-732086D01*
G03X-1547915Y-780000I0J-47914D01*
G03X-1500001Y-827914I47914J0D01*
G03X-1452087Y-780000I0J47914D01*
G01X-1452106Y-778653D01*
G01X-1431062Y-757609D01*
G03X-1386501Y-787914I44561J17609D01*
G03X-1338897Y-745444I0J47914D01*
G01X-1251592Y-658139D01*
G01X-1184686D01*
G01X-1293274Y-766727D01*
G03X-1302915Y-790000I23274J-23274D01*
G01Y-815181D01*
G03X-1317915Y-850000I32914J-34820D01*
G03X-1270001Y-897915I47914J0D01*
G03X-1222087Y-850000I0J47914D01*
G03X-1237087Y-815181I-47914J0D01*
G01Y-803634D01*
G01X-1223125Y-789672D01*
G03X-1149998Y-832637I73127J40749D01*
G03X-1066284Y-748923I0J83714D01*
G03X-1087780Y-692914I-83714J0D01*
G01X-1012215D01*
G03X-1033712Y-748923I62218J-56009D01*
G03X-949998Y-832637I83714J0D01*
G03X-866284Y-748923I0J83714D01*
G03X-887780Y-692914I-83714J0D01*
G01X-814764D01*
G03X-817914Y-710000I44764J-17086D01*
G03X-802133Y-745542I47914J0D01*
G03X-820000Y-742086I-17867J-44458D01*
G03X-867914Y-790000I0J-47914D01*
G03X-820000Y-837914I47914J0D01*
G03X-787726Y-825414I0J47914D01*
G01X-534669D01*
G01X-304608Y-1055475D01*
G03X-333713Y-1118925I54609J-63450D01*
G03X-249999Y-1202639I83714J0D01*
G37*
G36*
G01X1484849Y458005D02*
G03X1567617Y386839I82768J12549D01*
G03X1651331Y470554I0J83714D01*
G03X1595544Y549472I-83714J0D01*
G03X1512776Y620638I-82768J-12549D01*
G03X1496365Y619013I0J-83714D01*
G03X1502174Y649655I-77905J30642D01*
G03X1418460Y733369I-83714J0D01*
G03X1368460Y716797I0J-83714D01*
G03X1318460Y733369I-50000J-67142D01*
G03X1268460Y716797I0J-83714D01*
G03X1218460Y733369I-50000J-67142D01*
G03X1168460Y716797I0J-83714D01*
G03X1118460Y733369I-50000J-67142D01*
G03X1101895Y731714I0J-83714D01*
G03X1103567Y748362I-82042J16648D01*
G03X1019853Y832076I-83714J0D01*
G03X936139Y748362I0J-83714D01*
G03X951548Y699962I83714J0D01*
G03X934746Y649655I66912J-50307D01*
G03X987956Y571696I83714J0D01*
G03X1068460Y510941I80504J22959D01*
G03X1118460Y527513I0J83714D01*
G03X1168460Y510941I50000J67142D01*
G03X1218460Y527513I0J83714D01*
G03X1268460Y510941I50000J67142D01*
G03X1318460Y527513I0J83714D01*
G03X1368460Y510941I50000J67142D01*
G03X1429062Y536902I0J83714D01*
G03X1484849Y458005I83714J22D01*
G37*
G36*
G01X810135Y979596D02*
G03X893849Y1063310I0J83714D01*
G03X889011Y1091357I-83714J0D01*
G01X890145Y1091349D01*
G03X930137Y1101186I0J86215D01*
G03X970130Y1091349I39992J76379D01*
G03X1055763Y1167562I0J86215D01*
G03X1133718Y1251078I-5759J83516D01*
G03X1056292Y1334556I-83714J0D01*
G03X1056345Y1337585I-86162J3029D01*
G03X970130Y1423800I-86215J0D01*
G03X930137Y1413963I0J-86215D01*
G03X890145Y1423800I-39992J-76379D01*
G03X850140Y1413956I0J-86215D01*
G03X810135Y1423800I-40005J-76372D01*
G03X770143Y1413963I0J-86215D01*
G03X730150Y1423800I-39992J-76379D01*
G03X643935Y1337585I0J-86215D01*
G03X653779Y1297580I86215J0D01*
G03X643935Y1257575I76372J-40005D01*
G03X653779Y1217570I86215J0D01*
G03X643935Y1177565I76372J-40005D01*
G03X730150Y1091349I86215J0D01*
G01X731259Y1091356D01*
G03X726421Y1063310I78876J-28046D01*
G03X810135Y979596I83714J0D01*
G37*
G36*
G01X-833712Y1451078D02*
G03X-749997Y1367364I83714J0D01*
G03X-666283Y1451078I0J83714D01*
G03X-719980Y1529225I-83714J0D01*
G03X-693290Y1561378I-49029J67854D01*
G03X-667998Y1554158I25292J40695D01*
G03X-620084Y1602072I0J47914D01*
G03X-620206Y1605484I-47914J0D01*
G03X-549997Y1567364I70208J45594D01*
G03X-466283Y1651078I0J83714D01*
G03X-549997Y1734792I-83714J0D01*
G03X-633711Y1651078I0J-83714D01*
G03X-631850Y1633522I83714J0D01*
G03X-667998Y1649987I-36148J-31449D01*
G03X-697180Y1640075I0J-47914D01*
G03X-769009Y1680794I-71829J-42995D01*
G03X-852723Y1597080I0J-83714D01*
G03X-799026Y1518932I83714J0D01*
G03X-833712Y1451078I49029J-67854D01*
G37*
G36*
G01X-1033712Y-1148923D02*
G03X-949998Y-1232637I83714J0D01*
G03X-866284Y-1148923I0J83714D01*
G03X-867288Y-1135991I-83714J0D01*
G03X-799999Y-1169904I67289J49802D01*
G03X-716285Y-1086190I0J83714D01*
G03X-761463Y-1011873I-83714J0D01*
G03X-716287Y-937557I-38539J74316D01*
G03X-800001Y-853843I-83714J0D01*
G03X-877777Y-906589I0J-83714D01*
G03X-949998Y-865209I-72221J-42334D01*
G03X-1033712Y-948923I0J-83714D01*
G03X-949998Y-1032637I83714J0D01*
G03X-872222Y-979892I0J83714D01*
G03X-838538Y-1011874I72221J42334D01*
G03X-883713Y-1086190I38539J-74316D01*
G03X-882708Y-1099122I83714J0D01*
G03X-949998Y-1065209I-67289J-49802D01*
G03X-1033712Y-1148923I0J-83714D01*
G37*
G36*
G01X1261288Y-748925D02*
G03X1345002Y-832639I83714J0D01*
G03X1397504Y-814129I0J83714D01*
G03X1450004Y-832637I52500J65206D01*
G03X1533718Y-748923I0J83714D01*
G03X1529181Y-721738I-83714J0D01*
G03X1591217Y-618925I-54178J102812D01*
G03X1475003Y-502711I-116214J0D01*
G03X1384987Y-545422I0J-116214D01*
G03X1387916Y-528925I-44985J16497D01*
G03X1340002Y-481011I-47914J0D01*
G03X1292088Y-528925I0J-47914D01*
G03X1340002Y-576839I47914J0D01*
G03X1372532Y-564104I0J47914D01*
G03X1358789Y-618925I102471J-54821D01*
G03X1370170Y-669083I116214J0D01*
G03X1345002Y-665211I-25168J-79841D01*
G03X1261288Y-748925I0J-83714D01*
G37*
G36*
G01X-895202Y1109012D02*
G03X-831150Y1138824I0J83714D01*
G03X-767580Y1109579I63570J54469D01*
G03X-688705Y1165243I0J83714D01*
G03X-640000Y1149617I48705J68087D01*
G03X-581451Y1173498I0J83714D01*
G03X-549997Y1167364I31453J77580D01*
G03X-466283Y1251078I0J83714D01*
G03X-549997Y1334792I-83714J0D01*
G03X-608547Y1310911I0J-83714D01*
G03X-640000Y1317045I-31453J-77580D01*
G03X-718875Y1261381I0J-83714D01*
G03X-767580Y1277008I-48705J-68087D01*
G03X-831632Y1247195I0J-83714D01*
G03X-895202Y1276440I-63570J-54469D01*
G03X-978916Y1192726I0J-83714D01*
G03X-895202Y1109012I83714J0D01*
G37*
G36*
G01X751603Y-685041D02*
G03X835317Y-601326I0J83714D01*
G03X807248Y-538784I-83714J0D01*
G03X823716Y-488925I-67247J49859D01*
G03X819512Y-462728I-83714J0D01*
G03X863716Y-388925I-39510J73804D01*
G03X780002Y-305210I-83714J0D01*
G03X696288Y-388925I0J-83714D01*
G03X700492Y-415121I83714J0D01*
G03X656288Y-488925I39510J-73804D01*
G03X684356Y-551467I83714J0D01*
G03X667888Y-601326I67247J-49859D01*
G03X751603Y-685041I83714J0D01*
G37*
G36*
G01X1358789Y-1098924D02*
G03X1475003Y-1215138I116214J0D01*
G03X1591217Y-1098924I0J116214D01*
G03X1528958Y-995995I-116214J0D01*
G03X1567916Y-948925I-8956J47070D01*
G03X1520002Y-901011I-47914J0D01*
G03X1472088Y-948925I0J-47914D01*
G03X1486616Y-983292I47914J0D01*
G03X1475003Y-982711I-11613J-115632D01*
G03X1358789Y-1098924I0J-116214D01*
G37*
G36*
G01X250003Y1167364D02*
G03X333717Y1251078I0J83714D01*
G03X330571Y1273812I-83714J0D01*
G03X343155Y1317954I-71130J44142D01*
G03X305145Y1388091I-83714J0D01*
G03X333717Y1451078I-55142J62987D01*
G03X250003Y1534792I-83714J0D01*
G03X166289Y1451078I0J-83714D01*
G03X204299Y1380941I83714J0D01*
G03X175727Y1317954I55142J-62987D01*
G03X178873Y1295220I83714J0D01*
G03X166289Y1251078I71130J-44142D01*
G03X250003Y1167364I83714J0D01*
G37*
G36*
G01X-1009763Y829718D02*
G03X-931805Y882927I0J83714D01*
G03X-871049Y963432I-22959J80504D01*
G03X-931805Y1043936I-83714J0D01*
G03X-1009763Y1097146I-77958J-30504D01*
G03X-1093477Y1013432I0J-83714D01*
G03X-1076905Y963432I83714J0D01*
G03X-1093477Y913432I67142J-50000D01*
G03X-1009763Y829718I83714J0D01*
G37*
G36*
G01X-629176Y1823899D02*
G03X-549997Y1767364I79179J27179D01*
G03X-466283Y1851078I0J83714D01*
G03X-549997Y1934792I-83714J0D01*
G03X-633549Y1856294I0J-83714D01*
G03X-675998Y1881986I-42449J-22222D01*
G03X-723291Y1841761I0J-47914D01*
G03X-769999Y1878991I-46708J-10684D01*
G03X-817913Y1831077I0J-47914D01*
G03X-769999Y1783163I47914J0D01*
G03X-722706Y1823388I0J47914D01*
G03X-675998Y1786158I46708J10684D01*
G03X-629176Y1823899I0J47914D01*
G37*
G36*
G01X1650004Y-1432637D02*
G03X1733718Y-1348923I0J83714D01*
G03X1722691Y-1307394I-83714J0D01*
G03X1770416Y-1233924I-32688J73470D01*
G03X1690002Y-1153510I-80414J0D01*
G03X1609588Y-1233924I0J-80414D01*
G03X1618777Y-1271251I80414J0D01*
G03X1566290Y-1348923I31227J-77672D01*
G03X1650004Y-1432637I83714J0D01*
G37*
G36*
G01X1170002Y-552639D02*
G03X1253716Y-468925I0J83714D01*
G03X1214255Y-397863I-83714J0D01*
G03X1237754Y-339706I-60215J58157D01*
G03X1154040Y-255992I-83714J0D01*
G03X1070326Y-339706I0J-83714D01*
G03X1109787Y-410768I83714J0D01*
G03X1086288Y-468925I60215J-58157D01*
G03X1170002Y-552639I83714J0D01*
G37*
G36*
G01X-1433712Y1051078D02*
G03X-1349998Y967364I83714J0D01*
G03X-1266284Y1051078I0J83714D01*
G03X-1266351Y1054422I-83714J0D01*
G03X-1216285Y1131076I-33649J76654D01*
G03X-1299999Y1214790I-83714J0D01*
G03X-1383714Y1131076I0J-83714D01*
G03X-1383647Y1127732I83714J0D01*
G03X-1433712Y1051078I33649J-76654D01*
G37*
G36*
G01X1085947Y824414D02*
G03X1169661Y740700I83714J0D01*
G03X1232582Y769197I0J83714D01*
G03X1250004Y767364I17421J81881D01*
G03X1333718Y851078I0J83714D01*
G03X1250004Y934792I-83714J0D01*
G03X1187082Y906295I0J-83714D01*
G03X1169661Y908128I-17421J-81881D01*
G03X1085947Y824414I0J-83714D01*
G37*
G36*
G01X867126Y-656089D02*
G03X950840Y-739803I83714J0D01*
G03X1034438Y-660504I0J83714D01*
G03X1051060Y-662941I16622J55477D01*
G03X1108974Y-605026I0J57914D01*
G03X1051060Y-547112I-57914J0D01*
G03X996408Y-585864I0J-57914D01*
G03X950840Y-572375I-45568J-70225D01*
G03X867126Y-656089I0J-83714D01*
G37*
G36*
G01X1366290Y851078D02*
G03X1450004Y767364I83714J0D01*
G03X1533718Y851078I0J83714D01*
G03X1526699Y884633I-83714J0D01*
G03X1567916Y932076I-6697J47444D01*
G03X1520002Y979990I-47914J0D01*
G03X1472088Y932076I0J-47914D01*
G01X1472089Y931826D01*
G03X1450004Y934792I-22085J-80748D01*
G03X1366290Y851078I0J-83714D01*
G37*
G36*
G01X-1700138Y-816169D02*
G03X-1660001Y-837914I40137J26168D01*
G03X-1612087Y-790000I0J47914D01*
G03X-1660001Y-742086I-47914J0D01*
G03X-1666528Y-742533I0J-47914D01*
G03X-1749998Y-665209I-83470J-6390D01*
G03X-1833712Y-748923I0J-83714D01*
G03X-1749998Y-832637I83714J0D01*
G03X-1700138Y-816169I0J83714D01*
G37*
G36*
G01X-1173713Y1271076D02*
G03X-1089999Y1187362I83714J0D01*
G03X-1057877Y1193770I0J83714D01*
G03X-996626Y1274414I-22464J80644D01*
G03X-1080340Y1358128I-83714J0D01*
G03X-1112463Y1351720I0J-83714D01*
G03X-1173713Y1271076I22464J-80644D01*
G37*
G36*
G01X1850004Y-432637D02*
G03X1933718Y-348923I0J83714D01*
G03X1850004Y-265209I-83714J0D01*
G03X1766290Y-348923I0J-83714D01*
G03X1850004Y-432637I83714J0D01*
G37*
G36*
G01X599999Y-1021417D02*
G03X683713Y-937703I0J83714D01*
G03X599999Y-853989I-83714J0D01*
G03X516285Y-937703I0J-83714D01*
G03X599999Y-1021417I83714J0D01*
G37*
G36*
G01X1366290Y-348923D02*
G03X1450004Y-432637I83714J0D01*
G03X1533718Y-348923I0J83714D01*
G03X1450004Y-265209I-83714J0D01*
G03X1366290Y-348923I0J-83714D01*
G37*
G36*
G01X-33711Y1651078D02*
G03X50003Y1567364I83714J0D01*
G03X133717Y1651078I0J83714D01*
G03X50003Y1734792I-83714J0D01*
G03X-33711Y1651078I0J-83714D01*
G37*
G36*
G01X830166Y1818442D02*
G03X913880Y1734728I83714J0D01*
G03X997594Y1818442I0J83714D01*
G03X913880Y1902156I-83714J0D01*
G03X830166Y1818442I0J-83714D01*
G37*
G36*
G01X-146994Y1687361D02*
G03X-63280Y1771075I0J83714D01*
G03X-146994Y1854789I-83714J0D01*
G03X-230708Y1771075I0J-83714D01*
G03X-146994Y1687361I83714J0D01*
G37*
G36*
G01X1250004Y1767364D02*
G03X1333718Y1851078I0J83714D01*
G03X1250004Y1934792I-83714J0D01*
G03X1166290Y1851078I0J-83714D01*
G03X1250004Y1767364I83714J0D01*
G37*
G36*
G01X166289Y1851078D02*
G03X250003Y1767364I83714J0D01*
G03X333717Y1851078I0J83714D01*
G03X250003Y1934792I-83714J0D01*
G03X166289Y1851078I0J-83714D01*
G37*
G36*
G01X1250004Y1567364D02*
G03X1333718Y1651078I0J83714D01*
G03X1250004Y1734792I-83714J0D01*
G03X1166290Y1651078I0J-83714D01*
G03X1250004Y1567364I83714J0D01*
G37*
G36*
G01X1050003Y1567364D02*
G03X1133718Y1651078I0J83714D01*
G03X1050003Y1734792I-83714J0D01*
G03X966289Y1651078I0J-83714D01*
G03X1050003Y1567364I83714J0D01*
G37*
G36*
G01X1366290Y1451078D02*
G03X1450004Y1367364I83714J0D01*
G03X1533718Y1451078I0J83714D01*
G03X1450004Y1534792I-83714J0D01*
G03X1366290Y1451078I0J-83714D01*
G37*
G36*
G01X-549997Y1367364D02*
G03X-466283Y1451078I0J83714D01*
G03X-549997Y1534792I-83714J0D01*
G03X-633711Y1451078I0J-83714D01*
G03X-549997Y1367364I83714J0D01*
G37*
G36*
G01X6287Y1321076D02*
G03X90001Y1237362I83714J0D01*
G03X173715Y1321076I0J83714D01*
G03X90001Y1404790I-83714J0D01*
G03X6287Y1321076I0J-83714D01*
G37*
G36*
G01X1166290Y1451078D02*
G03X1250004Y1367364I83714J0D01*
G03X1333718Y1451078I0J83714D01*
G03X1250004Y1534792I-83714J0D01*
G03X1166290Y1451078I0J-83714D01*
G37*
G36*
G01X450003Y1367364D02*
G03X533717Y1451078I0J83714D01*
G03X450003Y1534792I-83714J0D01*
G03X366289Y1451078I0J-83714D01*
G03X450003Y1367364I83714J0D01*
G37*
G36*
G01X1850004Y1167364D02*
G03X1933718Y1251078I0J83714D01*
G03X1850004Y1334792I-83714J0D01*
G03X1766290Y1251078I0J-83714D01*
G03X1850004Y1167364I83714J0D01*
G37*
G36*
G01X450003Y-1232637D02*
G03X533717Y-1148923I0J83714D01*
G03X450003Y-1065209I-83714J0D01*
G03X366289Y-1148923I0J-83714D01*
G03X450003Y-1232637I83714J0D01*
G37*
G36*
G01X1250004Y967364D02*
G03X1333718Y1051078I0J83714D01*
G03X1250004Y1134792I-83714J0D01*
G03X1166290Y1051078I0J-83714D01*
G03X1250004Y967364I83714J0D01*
G37*
G36*
G01X440002Y1137362D02*
G03X523716Y1221076I0J83714D01*
G03X440002Y1304790I-83714J0D01*
G03X356288Y1221076I0J-83714D01*
G03X440002Y1137362I83714J0D01*
G37*
G36*
G01X1850004Y-232637D02*
G03X1933718Y-148923I0J83714D01*
G03X1850004Y-65209I-83714J0D01*
G03X1766290Y-148923I0J-83714D01*
G03X1850004Y-232637I83714J0D01*
G37*
G36*
G01X450003Y767364D02*
G03X533717Y851078I0J83714D01*
G03X450003Y934792I-83714J0D01*
G03X366289Y851078I0J-83714D01*
G03X450003Y767364I83714J0D01*
G37*
G36*
G01X1450004Y1167364D02*
G03X1533718Y1251078I0J83714D01*
G03X1450004Y1334792I-83714J0D01*
G03X1366290Y1251078I0J-83714D01*
G03X1450004Y1167364I83714J0D01*
G37*
G36*
G01X1566290Y1251078D02*
G03X1650004Y1167364I83714J0D01*
G03X1733718Y1251078I0J83714D01*
G03X1650004Y1334792I-83714J0D01*
G03X1566290Y1251078I0J-83714D01*
G37*
G36*
G01X1250004Y1167364D02*
G03X1333718Y1251078I0J83714D01*
G03X1250004Y1334792I-83714J0D01*
G03X1166290Y1251078I0J-83714D01*
G03X1250004Y1167364I83714J0D01*
G37*
G36*
G01X-233711Y-1748924D02*
G03X-149997Y-1832638I83714J0D01*
G03X-66283Y-1748924I0J83714D01*
G03X-149997Y-1665210I-83714J0D01*
G03X-233711Y-1748924I0J-83714D01*
G37*
G36*
G01X650003Y-1832638D02*
G03X733717Y-1748924I0J83714D01*
G03X650003Y-1665210I-83714J0D01*
G03X566289Y-1748924I0J-83714D01*
G03X650003Y-1832638I83714J0D01*
G37*
G36*
G01X1138445Y-1822300D02*
G03X1222159Y-1738586I0J83714D01*
G03X1138445Y-1654872I-83714J0D01*
G03X1054730Y-1738586I0J-83714D01*
G03X1138445Y-1822300I83714J0D01*
G37*
G36*
G01X766289Y-1548923D02*
G03X850003Y-1632638I83714J0D01*
G03X933717Y-1548923I0J83714D01*
G03X850003Y-1465209I-83714J0D01*
G03X766289Y-1548923I0J-83714D01*
G37*
G36*
G01X850003Y-1832638D02*
G03X933717Y-1748924I0J83714D01*
G03X850003Y-1665210I-83714J0D01*
G03X766289Y-1748924I0J-83714D01*
G03X850003Y-1832638I83714J0D01*
G37*
G36*
G01X450003Y-1632638D02*
G03X533717Y-1548923I0J83714D01*
G03X450003Y-1465209I-83714J0D01*
G03X366289Y-1548923I0J-83714D01*
G03X450003Y-1632638I83714J0D01*
G37*
G36*
G01X1766290Y-1348923D02*
G03X1850004Y-1432637I83714J0D01*
G03X1933718Y-1348923I0J83714D01*
G03X1850004Y-1265209I-83714J0D01*
G03X1766290Y-1348923I0J-83714D01*
G37*
G36*
G01X650003Y-1632638D02*
G03X733717Y-1548923I0J83714D01*
G03X650003Y-1465209I-83714J0D01*
G03X566289Y-1548923I0J-83714D01*
G03X650003Y-1632638I83714J0D01*
G37*
G36*
G01X1166290Y-1548923D02*
G03X1250004Y-1632638I83714J0D01*
G03X1333718Y-1548923I0J83714D01*
G03X1250004Y-1465209I-83714J0D01*
G03X1166290Y-1548923I0J-83714D01*
G37*
G36*
G01X1050003Y-1632638D02*
G03X1133718Y-1548923I0J83714D01*
G03X1050003Y-1465209I-83714J0D01*
G03X966289Y-1548923I0J-83714D01*
G03X1050003Y-1632638I83714J0D01*
G37*
G36*
G01X-549997Y-1432637D02*
G03X-466283Y-1348923I0J83714D01*
G03X-549997Y-1265209I-83714J0D01*
G03X-633711Y-1348923I0J-83714D01*
G03X-549997Y-1432637I83714J0D01*
G37*
G36*
G01X166289Y-1748924D02*
G03X250003Y-1832638I83714J0D01*
G03X333717Y-1748924I0J83714D01*
G03X250003Y-1665210I-83714J0D01*
G03X166289Y-1748924I0J-83714D01*
G37*
G36*
G01X-409999Y-1302639D02*
G03X-326285Y-1218925I0J83714D01*
G03X-409999Y-1135211I-83714J0D01*
G03X-493713Y-1218925I0J-83714D01*
G03X-409999Y-1302639I83714J0D01*
G37*
G36*
G01X-1833712Y-348923D02*
G03X-1749998Y-432637I83714J0D01*
G03X-1666284Y-348923I0J83714D01*
G03X-1749998Y-265209I-83714J0D01*
G03X-1833712Y-348923I0J-83714D01*
G37*
G36*
G01X-1633712Y-348923D02*
G03X-1549998Y-432637I83714J0D01*
G03X-1466284Y-348923I0J83714D01*
G03X-1549998Y-265209I-83714J0D01*
G03X-1633712Y-348923I0J-83714D01*
G37*
G36*
G01X-1749998Y-632637D02*
G03X-1666284Y-548923I0J83714D01*
G03X-1749998Y-465209I-83714J0D01*
G03X-1833712Y-548923I0J-83714D01*
G03X-1749998Y-632637I83714J0D01*
G37*
G36*
G01X-1349998Y-432637D02*
G03X-1266284Y-348923I0J83714D01*
G03X-1349998Y-265209I-83714J0D01*
G03X-1433712Y-348923I0J-83714D01*
G03X-1349998Y-432637I83714J0D01*
G37*
G36*
G01X-1433712Y1451078D02*
G03X-1349998Y1367364I83714J0D01*
G03X-1266284Y1451078I0J83714D01*
G03X-1349998Y1534792I-83714J0D01*
G03X-1433712Y1451078I0J-83714D01*
G37*
G36*
G01X-1549998Y767364D02*
G03X-1466284Y851078I0J83714D01*
G03X-1549998Y934792I-83714J0D01*
G03X-1633712Y851078I0J-83714D01*
G03X-1549998Y767364I83714J0D01*
G37*
G36*
G01X-1549998Y-232637D02*
G03X-1466284Y-148923I0J83714D01*
G03X-1549998Y-65209I-83714J0D01*
G03X-1633712Y-148923I0J-83714D01*
G03X-1549998Y-232637I83714J0D01*
G37*
G36*
G01X-1433712Y-148923D02*
G03X-1349998Y-232637I83714J0D01*
G03X-1266284Y-148923I0J83714D01*
G03X-1349998Y-65209I-83714J0D01*
G03X-1433712Y-148923I0J-83714D01*
G37*
G36*
G01X-949998Y-32637D02*
G03X-866284Y51077I0J83714D01*
G03X-949998Y134791I-83714J0D01*
G03X-1033712Y51077I0J-83714D01*
G03X-949998Y-32637I83714J0D01*
G37*
G36*
G01X-1149998Y-32637D02*
G03X-1066284Y51077I0J83714D01*
G03X-1149998Y134791I-83714J0D01*
G03X-1233712Y51077I0J-83714D01*
G03X-1149998Y-32637I83714J0D01*
G37*
G36*
G01X-1833712Y-148923D02*
G03X-1749998Y-232637I83714J0D01*
G03X-1666284Y-148923I0J83714D01*
G03X-1749998Y-65209I-83714J0D01*
G03X-1833712Y-148923I0J-83714D01*
G37*
G36*
G01X-1749998Y-1232637D02*
G03X-1666284Y-1148923I0J83714D01*
G03X-1749998Y-1065209I-83714J0D01*
G03X-1833712Y-1148923I0J-83714D01*
G03X-1749998Y-1232637I83714J0D01*
G37*
G36*
G01X-1549998Y-1232637D02*
G03X-1466284Y-1148923I0J83714D01*
G03X-1549998Y-1065209I-83714J0D01*
G03X-1633712Y-1148923I0J-83714D01*
G03X-1549998Y-1232637I83714J0D01*
G37*
G36*
G01X-1433712Y-1148923D02*
G03X-1349998Y-1232637I83714J0D01*
G03X-1266284Y-1148923I0J83714D01*
G03X-1349998Y-1065209I-83714J0D01*
G03X-1433712Y-1148923I0J-83714D01*
G37*
G36*
G01X-1549998Y967364D02*
G03X-1466284Y1051078I0J83714D01*
G03X-1549998Y1134792I-83714J0D01*
G03X-1633712Y1051078I0J-83714D01*
G03X-1549998Y967364I83714J0D01*
G37*
G36*
G01X-1833712Y1251078D02*
G03X-1749998Y1167364I83714J0D01*
G03X-1666284Y1251078I0J83714D01*
G03X-1749998Y1334792I-83714J0D01*
G03X-1833712Y1251078I0J-83714D01*
G37*
G36*
G01X-1633712Y-1348923D02*
G03X-1549998Y-1432637I83714J0D01*
G03X-1466284Y-1348923I0J83714D01*
G03X-1549998Y-1265209I-83714J0D01*
G03X-1633712Y-1348923I0J-83714D01*
G37*
G36*
G01X-1033712Y-1348923D02*
G03X-949998Y-1432637I83714J0D01*
G03X-866284Y-1348923I0J83714D01*
G03X-949998Y-1265209I-83714J0D01*
G03X-1033712Y-1348923I0J-83714D01*
G37*
G36*
G01X-1433712Y-1348923D02*
G03X-1349998Y-1432637I83714J0D01*
G03X-1266284Y-1348923I0J83714D01*
G03X-1349998Y-1265209I-83714J0D01*
G03X-1433712Y-1348923I0J-83714D01*
G37*
G36*
G01X312088Y-818925D02*
G03X360002Y-866839I47914J0D01*
G03X407916Y-818925I0J47914D01*
G03X403506Y-798846I-47914J0D01*
G03X430002Y-806839I26496J39921D01*
G03X477916Y-758925I0J47914D01*
G03X430002Y-711011I-47914J0D01*
G03X382088Y-758925I0J-47914D01*
G03X386498Y-779004I47914J0D01*
G03X360002Y-771011I-26496J-39921D01*
G03X312088Y-818925I0J-47914D01*
G37*
G36*
G01X1840002Y-926839D02*
G03X1887916Y-878925I0J47914D01*
G03X1886258Y-866429I-47914J0D01*
G03X1927916Y-818925I-6256J47504D01*
G03X1880002Y-771011I-47914J0D01*
G03X1832088Y-818925I0J-47914D01*
G03X1833746Y-831421I47914J0D01*
G03X1792088Y-878925I6256J-47504D01*
G03X1840002Y-926839I47914J0D01*
G37*
G36*
G01X-427899Y1771078D02*
G03X-362485Y1705664I65414J0D01*
G03X-297072Y1771078I0J65414D01*
G03X-362485Y1836492I-65414J0D01*
G03X-427899Y1771078I0J-65414D01*
G37*
G36*
G01X1052088Y1811077D02*
G03X1110002Y1753163I57914J0D01*
G03X1167916Y1811077I0J57914D01*
G03X1110002Y1868991I-57914J0D01*
G03X1052088Y1811077I0J-57914D01*
G37*
G36*
G01X405520Y-601351D02*
G03X463434Y-659265I57914J0D01*
G03X521348Y-601351I0J57914D01*
G03X463434Y-543437I-57914J0D01*
G03X405520Y-601351I0J-57914D01*
G37*
G36*
G01X40001Y1743163D02*
G03X97915Y1801077I0J57914D01*
G03X40001Y1858991I-57914J0D01*
G03X-17913Y1801077I0J-57914D01*
G03X40001Y1743163I57914J0D01*
G37*
G36*
G01X-1469999Y675662D02*
G03X-1414585Y731076I0J55414D01*
G03X-1469999Y786490I-55414J0D01*
G03X-1525413Y731076I0J-55414D01*
G03X-1469999Y675662I55414J0D01*
G37*
G36*
G01X1680002Y-1104339D02*
G03X1735416Y-1048925I0J55414D01*
G03X1680002Y-993511I-55414J0D01*
G03X1624588Y-1048925I0J-55414D01*
G03X1680002Y-1104339I55414J0D01*
G37*
G36*
G01X-1205753Y-1256587D02*
G03X-1150340Y-1312001I55414J0D01*
G03X-1094926Y-1256587I0J55414D01*
G03X-1150340Y-1201173I-55414J0D01*
G03X-1205753Y-1256587I0J-55414D01*
G37*
G36*
G01X1720002Y-734339D02*
G03X1775416Y-678925I0J55414D01*
G03X1720002Y-623511I-55414J0D01*
G03X1664588Y-678925I0J-55414D01*
G03X1720002Y-734339I55414J0D01*
G37*
G36*
G01X-940912Y-1636921D02*
G03X-892998Y-1684835I47914J0D01*
G03X-845084Y-1636921I0J47914D01*
G03X-892998Y-1589007I-47914J0D01*
G03X-940912Y-1636921I0J-47914D01*
G37*
G36*
G01X-1357913Y-1808926D02*
G03X-1309999Y-1856840I47914J0D01*
G03X-1262085Y-1808926I0J47914D01*
G03X-1309999Y-1761011I-47914J0D01*
G03X-1357913Y-1808926I0J-47914D01*
G37*
G36*
G01X-1198254Y-1828587D02*
G03X-1150340Y-1876501I47914J0D01*
G03X-1102426Y-1828587I0J47914D01*
G03X-1150340Y-1780673I-47914J0D01*
G03X-1198254Y-1828587I0J-47914D01*
G37*
G36*
G01X-1065997Y-1937835D02*
G03X-1018083Y-1889921I0J47914D01*
G03X-1065997Y-1842006I-47914J0D01*
G03X-1113911Y-1889921I0J-47914D01*
G03X-1065997Y-1937835I47914J0D01*
G37*
G36*
G01X-1152453Y-275007D02*
G03X-1104539Y-322921I47914J0D01*
G03X-1056625Y-275007I0J47914D01*
G03X-1104539Y-227093I-47914J0D01*
G03X-1152453Y-275007I0J-47914D01*
G37*
G36*
G01X-407913Y-1408925D02*
G03X-359999Y-1456839I47914J0D01*
G03X-312085Y-1408925I0J47914D01*
G03X-359999Y-1361011I-47914J0D01*
G03X-407913Y-1408925I0J-47914D01*
G37*
G36*
G01X132087Y-1348925D02*
G03X180001Y-1396839I47914J0D01*
G03X227915Y-1348925I0J47914D01*
G03X180001Y-1301011I-47914J0D01*
G03X132087Y-1348925I0J-47914D01*
G37*
G36*
G01X-767913Y-1508925D02*
G03X-719999Y-1556839I47914J0D01*
G03X-672085Y-1508925I0J47914D01*
G03X-719999Y-1461011I-47914J0D01*
G03X-767913Y-1508925I0J-47914D01*
G37*
G36*
G01X557088Y-787703D02*
G03X605002Y-835617I47914J0D01*
G03X652916Y-787703I0J47914D01*
G03X605002Y-739789I-47914J0D01*
G03X557088Y-787703I0J-47914D01*
G37*
G36*
G01X240002Y-1636839D02*
G03X287916Y-1588925I0J47914D01*
G03X240002Y-1541011I-47914J0D01*
G03X192088Y-1588925I0J-47914D01*
G03X240002Y-1636839I47914J0D01*
G37*
G36*
G01X-389999Y-1096839D02*
G03X-342085Y-1048925I0J47914D01*
G03X-389999Y-1001011I-47914J0D01*
G03X-437913Y-1048925I0J-47914D01*
G03X-389999Y-1096839I47914J0D01*
G37*
G36*
G01X-407913Y-1588925D02*
G03X-359999Y-1636839I47914J0D01*
G03X-312085Y-1588925I0J47914D01*
G03X-359999Y-1541011I-47914J0D01*
G03X-407913Y-1588925I0J-47914D01*
G37*
G36*
G01X322087Y1761076D02*
G03X370002Y1713162I47914J0D01*
G03X417916Y1761076I0J47914D01*
G03X370002Y1808991I-47914J0D01*
G03X322087Y1761076I0J-47914D01*
G37*
G36*
G01X-449999Y-1706839D02*
G03X-402085Y-1658925I0J47914D01*
G03X-449999Y-1611011I-47914J0D01*
G03X-497913Y-1658925I0J-47914D01*
G03X-449999Y-1706839I47914J0D01*
G37*
G36*
G01X-659917Y-1134104D02*
G03X-612003Y-1086190I0J47914D01*
G03X-659917Y-1038276I-47914J0D01*
G03X-707831Y-1086190I0J-47914D01*
G03X-659917Y-1134104I47914J0D01*
G37*
G36*
G01X1690002Y-866839D02*
G03X1737916Y-818925I0J47914D01*
G03X1690002Y-771011I-47914J0D01*
G03X1642088Y-818925I0J-47914D01*
G03X1690002Y-866839I47914J0D01*
G37*
G36*
G01X1140002Y-1396839D02*
G03X1187916Y-1348925I0J47914D01*
G03X1140002Y-1301011I-47914J0D01*
G03X1092088Y-1348925I0J-47914D01*
G03X1140002Y-1396839I47914J0D01*
G37*
G36*
G01X-664999Y-405471D02*
G03X-617085Y-357557I0J47914D01*
G03X-664999Y-309643I-47914J0D01*
G03X-712913Y-357557I0J-47914D01*
G03X-664999Y-405471I47914J0D01*
G37*
G36*
G01X600002Y-516839D02*
G03X647916Y-468925I0J47914D01*
G03X600002Y-421011I-47914J0D01*
G03X552088Y-468925I0J-47914D01*
G03X600002Y-516839I47914J0D01*
G37*
G36*
G01X1472088Y1111076D02*
G03X1520002Y1063162I47914J0D01*
G03X1567916Y1111076I0J47914D01*
G03X1520002Y1158990I-47914J0D01*
G03X1472088Y1111076I0J-47914D01*
G37*
%LPD*%
G36*
G01X-787867Y-754459D02*
G01X-787546Y-754586D01*
G01X-787726D01*
G01X-787867Y-754459D01*
G37*
G36*
G01X-678983Y677208D02*
G03X-728926Y652479I10057J-83108D01*
G03X-733036Y656426I-60000J-58378D01*
G03X-701966Y681870I-35958J75598D01*
G03X-678983Y677208I27969J78904D01*
G37*
G54D8191*
G01X771250Y-1977312D02*
G03X739884Y-1991784I18635J-81614D01*
G03X726236Y-1983516I-50000J-67142D01*
G03X733717Y-1948924I-76233J34592D01*
G03X650003Y-1865210I-83714J0D01*
G03X566289Y-1948924I0J-83714D01*
G03X571249Y-1977312I83714J0D01*
G03X539884Y-1991784I18635J-81614D01*
G03X526236Y-1983516I-50000J-67142D01*
G03X533717Y-1948924I-76233J34592D01*
G03X450003Y-1865210I-83714J0D01*
G03X366289Y-1948924I0J-83714D01*
G03X371249Y-1977312I83714J0D01*
G03X339884Y-1991784I18635J-81614D01*
G03X326236Y-1983516I-50000J-67142D01*
G03X333717Y-1948924I-76233J34592D01*
G03X250003Y-1865210I-83714J0D01*
G03X166289Y-1948924I0J-83714D01*
G03X171249Y-1977312I83714J0D01*
G03X139884Y-1991784I18635J-81614D01*
G03X126236Y-1983516I-50000J-67142D01*
G03X133717Y-1948924I-76233J34592D01*
G03X50003Y-1865210I-83714J0D01*
G03X-33711Y-1948924I0J-83714D01*
G03X-28751Y-1977312I83714J0D01*
G03X-60116Y-1991784I18635J-81614D01*
G03X-110116Y-1975211I-50000J-67142D01*
G03X-160116Y-1991784I0J-83714D01*
G03X-210116Y-1975211I-50000J-67142D01*
G03X-260116Y-1991784I0J-83714D01*
G03X-310116Y-1975211I-50000J-67142D01*
G03X-360117Y-1991784I0J-83714D01*
G03X-410117Y-1975211I-50000J-67142D01*
G03X-460117Y-1991784I0J-83714D01*
G03X-510117Y-1975211I-50000J-67142D01*
G03X-560117Y-1991784I0J-83714D01*
G03X-610117Y-1975211I-50000J-67142D01*
G03X-660117Y-1991784I0J-83714D01*
G03X-710117Y-1975211I-50000J-67142D01*
G03X-760117Y-1991784I0J-83714D01*
G03X-810117Y-1975211I-50000J-67142D01*
G03X-860117Y-1991784I0J-83714D01*
G03X-910117Y-1975211I-50000J-67142D01*
G03X-960117Y-1991784I0J-83714D01*
G03X-1010117Y-1975211I-50000J-67142D01*
G03X-1060117Y-1991784I0J-83714D01*
G03X-1110117Y-1975211I-50000J-67142D01*
G03X-1160117Y-1991784I0J-83714D01*
G03X-1210117Y-1975211I-50000J-67142D01*
G03X-1260117Y-1991784I0J-83714D01*
G03X-1310117Y-1975211I-50000J-67142D01*
G03X-1360117Y-1991784I0J-83714D01*
G03X-1410117Y-1975211I-50000J-67142D01*
G03X-1460117Y-1991784I0J-83714D01*
G03X-1505839Y-1975321I-50000J-67142D01*
G03X-1409126Y-1745587I-224501J229734D01*
G03X-1730340Y-1424373I-321214J0D01*
G03X-1906826Y-1477200I0J-321214D01*
G03X-1949998Y-1465209I-43172J-71723D01*
G03X-1967565Y-1467073I0J-83714D01*
G03X-1982858Y-1431650I-82435J-14577D01*
G03X-1979746Y-1427174I-67142J50000D01*
G03X-1949998Y-1432637I29747J78250D01*
G03X-1866284Y-1348923I0J83714D01*
G03X-1949998Y-1265209I-83714J0D01*
G03X-1967565Y-1267073I0J-83714D01*
G03X-1982858Y-1231650I-82435J-14577D01*
G03X-1979746Y-1227174I-67142J50000D01*
G03X-1949998Y-1232637I29747J78250D01*
G03X-1866284Y-1148923I0J83714D01*
G03X-1949998Y-1065209I-83714J0D01*
G03X-1967565Y-1067073I0J-83714D01*
G03X-1982858Y-1031650I-82435J-14577D01*
G03X-1966286Y-981650I-67142J50000D01*
G03X-1982858Y-931650I-83714J0D01*
G03X-1966286Y-881650I-67142J50000D01*
G03X-1982858Y-831650I-83714J0D01*
G03X-1979746Y-827174I-67142J50000D01*
G03X-1949998Y-832637I29747J78250D01*
G03X-1866284Y-748923I0J83714D01*
G03X-1949998Y-665209I-83714J0D01*
G03X-1967565Y-667073I0J-83714D01*
G03X-1982858Y-631650I-82435J-14577D01*
G03X-1979746Y-627173I-67142J50000D01*
G03X-1949998Y-632637I29747J78250D01*
G03X-1866284Y-548923I0J83714D01*
G03X-1949998Y-465209I-83714J0D01*
G03X-1967565Y-467073I0J-83714D01*
G03X-1982858Y-431650I-82435J-14577D01*
G03X-1979746Y-427173I-67142J50000D01*
G03X-1949998Y-432637I29747J78250D01*
G03X-1866284Y-348923I0J83714D01*
G03X-1949998Y-265209I-83714J0D01*
G03X-1967565Y-267073I0J-83714D01*
G03X-1982858Y-231650I-82435J-14577D01*
G03X-1979746Y-227173I-67142J50000D01*
G03X-1949998Y-232637I29747J78250D01*
G03X-1866284Y-148923I0J83714D01*
G03X-1949998Y-65209I-83714J0D01*
G03X-1967565Y-67072I0J-83714D01*
G03X-1982858Y-31650I-82435J-14577D01*
G03X-1974935Y-18707I-67142J50000D01*
G03X-1942236Y-25358I32699J77064D01*
G03X-1892236Y-8786I0J83714D01*
G03X-1842236Y-25358I50000J67142D01*
G03X-1792236Y-8785I0J83714D01*
G03X-1742236Y-25358I50000J67142D01*
G03X-1658522Y58357I0J83714D01*
G03X-1675079Y108336I-83714J0D01*
G03X-1658522Y158315I-67157J49979D01*
G03X-1675079Y208294I-83714J0D01*
G03X-1658522Y258273I-67157J49979D01*
G03X-1660540Y276543I-83714J0D01*
G03X-1642236Y274518I18304J81689D01*
G03X-1630100Y275402I0J83714D01*
G03X-1633712Y251077I80102J-24324D01*
G03X-1549998Y167363I83714J0D01*
G03X-1466284Y251077I0J83714D01*
G03X-1471344Y279741I-83714J0D01*
G03X-1442236Y274518I29108J78491D01*
G03X-1430100Y275402I0J83714D01*
G03X-1433712Y251077I80102J-24324D01*
G03X-1349998Y167363I83714J0D01*
G03X-1266284Y251077I0J83714D01*
G03X-1271344Y279741I-83714J0D01*
G03X-1242236Y274518I29108J78491D01*
G03X-1230100Y275402I0J83714D01*
G03X-1233712Y251077I80102J-24324D01*
G03X-1149998Y167363I83714J0D01*
G03X-1066284Y251077I0J83714D01*
G03X-1071058Y278944I-83714J0D01*
G03X-1040997Y273361I30060J78131D01*
G03X-979356Y300433I0J83714D01*
G03X-915385Y270717I63971J53998D01*
G03X-850382Y301680I0J83714D01*
G03X-785379Y270717I65003J52751D01*
G03X-712656Y312965I0J83714D01*
G03X-692403Y291214I70420J45267D01*
G03X-736897Y217256I39220J-73958D01*
G03X-665304Y134424I83714J0D01*
G03X-582472Y62831I82832J12121D01*
G03X-547301Y70578I0J83714D01*
G03X-519490Y44749I69391J46829D01*
G03X-453883Y-6997I77728J31086D01*
G03X-446573Y-30994I82832J12121D01*
G03X-454054Y-65587I76232J-34593D01*
G03X-370340Y-149301I83714J0D01*
G03X-335340Y-141633I0J83714D01*
G03X-300340Y-149301I35000J76046D01*
G03X-216626Y-65587I0J83714D01*
G03X-288219Y17245I-83714J0D01*
G03X-358929Y87956I-82832J-12121D01*
G03X-400182Y148493I-82832J-12121D01*
G03X-477910Y201121I-77728J-31086D01*
G03X-513081Y193374I0J-83714D01*
G03X-546216Y222001I-69391J-46829D01*
G03X-544447Y234900I-46145J12899D01*
G03X-592361Y282815I-47914J0D01*
G03X-600300Y282152I0J-47914D01*
G03X-603016Y284274I-52883J-64896D01*
G03X-561732Y335273I-39220J73958D01*
G03X-508522Y413232I-30504J77959D01*
G03X-592236Y496946I-83714J0D01*
G03X-672740Y436190I0J-83714D01*
G03X-714959Y399698I30504J-77959D01*
G03X-785379Y438145I-70420J-45267D01*
G03X-850382Y407182I0J-83714D01*
G03X-915385Y438145I-65003J-52751D01*
G03X-977027Y411073I0J-83714D01*
G03X-1040997Y440789I-63971J-53998D01*
G03X-1108822Y406145I0J-83714D01*
G03X-1108522Y413232I-83414J7087D01*
G03X-1192236Y496946I-83714J0D01*
G03X-1242236Y480374I0J-83714D01*
G03X-1292236Y496946I-50000J-67142D01*
G03X-1342236Y480374I0J-83714D01*
G03X-1392236Y496946I-50000J-67142D01*
G03X-1442236Y480374I0J-83714D01*
G03X-1492236Y496946I-50000J-67142D01*
G03X-1542236Y480374I0J-83714D01*
G03X-1592236Y496946I-50000J-67142D01*
G03X-1642236Y480374I0J-83714D01*
G03X-1692236Y496946I-50000J-67142D01*
G03X-1742236Y480374I0J-83714D01*
G03X-1792236Y496946I-50000J-67142D01*
G03X-1842236Y480374I0J-83714D01*
G03X-1892236Y496946I-50000J-67142D01*
G03X-1942236Y480374I0J-83714D01*
G03X-1992236Y496946I-50000J-67142D01*
G03X-2042236Y480374I0J-83714D01*
G03X-2089926Y496914I-50000J-67142D01*
G01Y510341D01*
G03X-2042452Y526875I-2526J83676D01*
G03X-1992452Y510303I50000J67142D01*
G03X-1942452Y526875I0J83714D01*
G03X-1892452Y510303I50000J67142D01*
G03X-1842452Y526875I0J83714D01*
G03X-1792452Y510303I50000J67142D01*
G03X-1711947Y571059I0J83714D01*
G03X-1692452Y581875I-30504J77958D01*
G03X-1642452Y565303I50000J67142D01*
G03X-1558738Y649017I0J83714D01*
G03X-1642452Y732731I-83714J0D01*
G03X-1660756Y730706I0J-83714D01*
G03X-1658738Y748976I-81696J18270D01*
G03X-1675294Y798955I-83714J0D01*
G03X-1658738Y848934I-67157J49979D01*
G03X-1675294Y898913I-83714J0D01*
G03X-1658738Y948892I-67157J49979D01*
G03X-1680198Y1004861I-83714J0D01*
G03X-1666284Y1051078I-69800J46217D01*
G03X-1749998Y1134792I-83714J0D01*
G03X-1833712Y1051078I0J-83714D01*
G03X-1831482Y1031885I83714J0D01*
G03X-1842452Y1032607I-10970J-82992D01*
G03X-1869494Y1028118I0J-83714D01*
G03X-1866284Y1051078I-80504J22959D01*
G03X-1949998Y1134792I-83714J0D01*
G03X-1967565Y1132928I0J-83714D01*
G03X-1982858Y1168351I-82435J-14577D01*
G03X-1979746Y1172828I-67142J50000D01*
G03X-1949998Y1167364I29747J78250D01*
G03X-1866284Y1251078I0J83714D01*
G03X-1949998Y1334792I-83714J0D01*
G03X-1967565Y1332928I0J-83714D01*
G03X-1982858Y1368351I-82435J-14577D01*
G03X-1979746Y1372828I-67142J50000D01*
G03X-1949998Y1367364I29747J78250D01*
G03X-1866624Y1443544I0J83714D01*
G03X-1830837Y1429325I136284J290870D01*
G03X-1749998Y1367364I80838J21753D01*
G03X-1672938Y1418370I0J83714D01*
G03X-1630755Y1429026I-57402J316043D01*
G03X-1561213Y1368119I80757J22052D01*
G03X-1575413Y1331076I41214J-37042D01*
G03X-1519999Y1275662I55414J0D01*
G03X-1464586Y1331076I0J55414D01*
G03X-1501065Y1383155I-55414J0D01*
G03X-1466284Y1451078I-48933J67923D01*
G03X-1495831Y1514906I-83714J0D01*
G03X-1428963Y1623282I-234509J219508D01*
G03X-1349998Y1567364I78965J27796D01*
G03X-1266284Y1651078I0J83714D01*
G03X-1349998Y1734792I-83714J0D01*
G03X-1410106Y1709346I0J-83714D01*
G03X-1409126Y1734414I-320234J25068D01*
G03X-1415737Y1799248I-321214J0D01*
G03X-1349998Y1767364I65739J51830D01*
G03X-1266284Y1851078I0J83714D01*
G03X-1349998Y1934792I-83714J0D01*
G03X-1433493Y1857133I0J-83714D01*
G03X-1520669Y1977758I-296847J-122720D01*
G03X-1512543Y1977363I8125J83319D01*
G03X-1462543Y1993935I0J83714D01*
G03X-1412543Y1977363I50000J67142D01*
G03X-1362543Y1993935I0J83714D01*
G03X-1312543Y1977363I50000J67142D01*
G03X-1262543Y1993935I0J83714D01*
G03X-1212543Y1977363I50000J67142D01*
G03X-1162543Y1993935I0J83714D01*
G03X-1112543Y1977363I50000J67142D01*
G03X-1062543Y1993935I0J83714D01*
G03X-1053825Y1988249I50000J67142D01*
G03X-1065413Y1951077I53826J-37172D01*
G03X-999999Y1885663I65414J0D01*
G03X-934585Y1951077I0J65414D01*
G03X-942948Y1983080I-65414J0D01*
G03X-912543Y1977363I30405J77997D01*
G03X-862543Y1993935I0J83714D01*
G03X-812543Y1977363I50000J67142D01*
G03X-762543Y1993935I0J83714D01*
G03X-712543Y1977363I50000J67142D01*
G03X-662543Y1993935I0J83714D01*
G03X-612543Y1977363I50000J67142D01*
G03X-562543Y1993935I0J83714D01*
G03X-512543Y1977363I50000J67142D01*
G03X-462543Y1993935I0J83714D01*
G03X-412543Y1977363I50000J67142D01*
G03X-362543Y1993935I0J83714D01*
G03X-312543Y1977363I50000J67142D01*
G03X-262543Y1993935I0J83714D01*
G03X-212543Y1977363I50000J67142D01*
G03X-162543Y1993935I0J83714D01*
G03X-112543Y1977363I50000J67142D01*
G03X-62543Y1993935I0J83714D01*
G03X-12543Y1977363I50000J67142D01*
G03X37458Y1993935I0J83714D01*
G03X87458Y1977363I50000J67142D01*
G03X137458Y1993935I0J83714D01*
G03X187458Y1977363I50000J67142D01*
G03X237458Y1993935I0J83714D01*
G03X287458Y1977363I50000J67142D01*
G03X337458Y1993935I0J83714D01*
G03X387458Y1977363I50000J67142D01*
G03X437458Y1993935I0J83714D01*
G03X487458Y1977363I50000J67142D01*
G03X537458Y1993935I0J83714D01*
G03X587458Y1977363I50000J67142D01*
G03X637458Y1993935I0J83714D01*
G03X687458Y1977363I50000J67142D01*
G03X737458Y1993935I0J83714D01*
G03X787458Y1977363I50000J67142D01*
G03X837458Y1993935I0J83714D01*
G03X887458Y1977363I50000J67142D01*
G03X937458Y1993935I0J83714D01*
G03X987458Y1977363I50000J67142D01*
G03X1037458Y1993935I0J83714D01*
G03X1087458Y1977363I50000J67142D01*
G03X1137458Y1993935I0J83714D01*
G03X1187458Y1977363I50000J67142D01*
G03X1237458Y1993935I0J83714D01*
G03X1287458Y1977363I50000J67142D01*
G03X1337458Y1993935I0J83714D01*
G03X1387458Y1977363I50000J67142D01*
G03X1437458Y1993935I0J83714D01*
G03X1487458Y1977363I50000J67142D01*
G03X1537458Y1993935I0J83714D01*
G03X1550135Y1986143I50000J67142D01*
G03X1490582Y1924300I199526J-251730D01*
G03X1450004Y1934792I-40578J-73222D01*
G03X1366290Y1851078I0J-83714D01*
G03X1430390Y1769694I83714J0D01*
G03X1428446Y1734414I319271J-35281D01*
G01X1428455Y1731972D01*
G03X1366290Y1651078I21548J-80893D01*
G03X1450004Y1567364I83714J0D01*
G03X1473313Y1570675I0J83714D01*
G03X1568297Y1469299I276348J163739D01*
G03X1566290Y1451078I81707J-18221D01*
G03X1650004Y1367364I83714J0D01*
G03X1725127Y1414138I0J83714D01*
G03X1749660Y1413200I24533J320276D01*
G03X1774856Y1414189I0J321214D01*
G03X1850004Y1367364I75148J36889D01*
G03X1933718Y1451078I0J83714D01*
G03X1931619Y1469707I-83714J0D01*
G03X1997213Y1529728I-181959J264706D01*
G03X2002860Y1521076I72790J41348D01*
G03X1986288Y1471076I67142J-50000D01*
G03X2002860Y1421076I83714J0D01*
G03X1986288Y1371076I67142J-50000D01*
G03X2002860Y1321076I83714J0D01*
G03X1986288Y1271076I67142J-50000D01*
G03X2002860Y1221076I83714J0D01*
G03X1986288Y1171076I67142J-50000D01*
G03X2002860Y1121076I83714J0D01*
G03X1986288Y1071076I67142J-50000D01*
G03X1996833Y1030402I83714J0D01*
G03X1968460Y1016672I21626J-80872D01*
G03X1931564Y1032212I-50000J-67142D01*
G03X1933718Y1051078I-81561J18866D01*
G03X1850004Y1134792I-83714J0D01*
G03X1766290Y1051078I0J-83714D01*
G03X1772480Y1019486I83714J0D01*
G03X1747199Y993460I45980J-69956D01*
G03X1670002Y1044790I-77196J-32384D01*
G03X1586288Y961076I0J-83714D01*
G03X1670002Y877362I83714J0D01*
G03X1741263Y917146I0J83714D01*
G03X1751302Y899551I77196J32384D01*
G03X1734746Y849572I67157J-49979D01*
G03X1751302Y799592I83714J0D01*
G03X1734746Y749613I67157J-49979D01*
G03X1736764Y731343I83714J0D01*
G03X1718460Y733369I-18304J-81689D01*
G03X1685820Y726743I0J-83714D01*
G01X1684182Y727497D01*
G03X1697916Y761076I-34179J33579D01*
G03X1650002Y808990I-47914J0D01*
G03X1602088Y761076I0J-47914D01*
G03X1615824Y727496I47914J0D01*
G03X1566290Y651078I34180J-76418D01*
G03X1650004Y567364I83714J0D01*
G03X1682644Y573989I0J83714D01*
G03X1687956Y571696I35816J75666D01*
G03X1768460Y510941I80504J22959D01*
G03X1818460Y527513I0J83714D01*
G03X1868460Y510941I50000J67142D01*
G03X1918460Y527513I0J83714D01*
G03X1968460Y510941I50000J67142D01*
G03X2018460Y527513I0J83714D01*
G03X2068460Y510941I50000J67142D01*
G03X2109246Y521549I0J83714D01*
G01Y485599D01*
G03X2068460Y496206I-40786J-73107D01*
G03X2018461Y479634I0J-83714D01*
G03X1968461Y496206I-50000J-67142D01*
G03X1918461Y479634I0J-83714D01*
G03X1868461Y496206I-50000J-67142D01*
G03X1818461Y479634I0J-83714D01*
G03X1768461Y496206I-50000J-67142D01*
G03X1684746Y412492I0J-83714D01*
G03X1737956Y334534I83714J0D01*
G03X1751303Y307513I80504J22958D01*
G03X1735342Y267501I67158J-49979D01*
G03X1731912Y268371I-22296J-80690D01*
G03X1650004Y334792I-81908J-17293D01*
G03X1566290Y251077I0J-83714D01*
G03X1596867Y186390I83714J0D01*
G03X1559503Y128221I45468J-70290D01*
G03X1488792Y57510I12121J-82832D01*
G03X1430743Y20331I12121J-82832D01*
G03X1373043Y43393I-57700J-60653D01*
G03X1323043Y26820I0J-83714D01*
G03X1273043Y43393I-50000J-67142D01*
G03X1223043Y26820I0J-83714D01*
G03X1173043Y43393I-50000J-67142D01*
G03X1123043Y26820I0J-83714D01*
G03X1073043Y43393I-50000J-67142D01*
G03X1023043Y26820I0J-83714D01*
G03X973043Y43393I-50000J-67142D01*
G03X923043Y26821I0J-83714D01*
G03X873043Y43393I-50000J-67142D01*
G03X823043Y26820I0J-83714D01*
G03X773043Y43393I-50000J-67142D01*
G03X723043Y26820I0J-83714D01*
G03X673043Y43393I-50000J-67142D01*
G03X623043Y26820I0J-83714D01*
G03X573043Y43393I-50000J-67142D01*
G03X523043Y26821I0J-83714D01*
G03X473043Y43393I-50000J-67142D01*
G03X423043Y26820I0J-83714D01*
G03X373043Y43393I-50000J-67142D01*
G03X289329Y-40321I0J-83714D01*
G03X342538Y-118280I83714J0D01*
G03X423043Y-179036I80504J22958D01*
G03X473043Y-162464I0J83714D01*
G03X523043Y-179036I50000J67142D01*
G03X568033Y-165919I0J83714D01*
G03X650003Y-232637I81971J16996D01*
G03X728174Y-178878I0J83714D01*
G03X768033Y-165919I-5132J83557D01*
G03X850003Y-232637I81971J16996D01*
G03X886529Y-224248I0J83714D01*
G03X940680Y-244121I54151J63841D01*
G03X1001938Y-217463I0J83714D01*
G03X1050003Y-232637I48065J68541D01*
G03X1128175Y-178878I0J83714D01*
G03X1168033Y-165919I-5132J83557D01*
G03X1250004Y-232637I81971J16996D01*
G03X1328175Y-178878I0J83714D01*
G03X1368033Y-165919I-5132J83557D01*
G03X1450004Y-232637I81971J16996D01*
G03X1529921Y-173850I0J83714D01*
G03X1583745Y-107443I-29007J78528D01*
G03X1654456Y-36732I-12121J82832D01*
G03X1725167Y33979I-12121J82832D01*
G03X1737398Y36717I-12121J82832D01*
G03X1818461Y-26097I81063J20900D01*
G03X1868461Y-9525I0J83714D01*
G03X1918460Y-26097I50000J67142D01*
G03X1968461Y-9525I0J83714D01*
G03X1986779Y-19871I50000J67142D01*
G03X1986288Y-28925I83223J-9054D01*
G03X2002860Y-78925I83714J0D01*
G03X1986288Y-128925I67142J-50000D01*
G03X2002860Y-178925I83714J0D01*
G03X1986288Y-228925I67142J-50000D01*
G03X2002860Y-278925I83714J0D01*
G03X1986288Y-328925I67142J-50000D01*
G03X2002860Y-378925I83714J0D01*
G03X1986288Y-428925I67142J-50000D01*
G03X2002860Y-478925I83714J0D01*
G03X1986288Y-528925I67142J-50000D01*
G03X1986603Y-536180I83714J0D01*
G03X1920482Y-503747I-81602J-82746D01*
G03X1850004Y-465209I-70478J-45176D01*
G03X1798908Y-482611I0J-83714D01*
G03X1727108Y-381527I-108906J-1315D01*
G03X1733718Y-348923I-77104J32605D01*
G03X1650004Y-265209I-83714J0D01*
G03X1566290Y-348923I0J-83714D01*
G03X1603105Y-418267I83714J0D01*
G03X1581088Y-483926I86897J-65659D01*
G03X1690002Y-592839I108914J0D01*
G03X1767139Y-560816I0J108914D01*
G03X1789432Y-606708I82865J11893D01*
G03X1788788Y-618925I115570J-12218D01*
G03X1905002Y-735139I116214J0D01*
G03X1994179Y-693444I0J116214D01*
G03X1986288Y-728925I75823J-35481D01*
G03X2002860Y-778925I83714J0D01*
G03X1986288Y-828925I67142J-50000D01*
G03X2002860Y-878925I83714J0D01*
G03X1986288Y-928925I67142J-50000D01*
G03X2002860Y-978925I83714J0D01*
G03X1987178Y-1016750I67142J-50000D01*
G03X1905002Y-982711I-82177J-82175D01*
G03X1788788Y-1098924I0J-116214D01*
G03X1905002Y-1215138I116214J0D01*
G03X1997011Y-1169917I0J116214D01*
G03X2002860Y-1178925I72991J40992D01*
G03X1986288Y-1228925I67142J-50000D01*
G03X2002860Y-1278925I83714J0D01*
G03X1986288Y-1328925I67142J-50000D01*
G03X2002860Y-1378925I83714J0D01*
G03X1986288Y-1428925I67142J-50000D01*
G03X2002860Y-1478925I83714J0D01*
G03X1986290Y-1528366I67142J-50000D01*
G03X1749660Y-1424373I-236630J-217220D01*
G03X1526385Y-1514661I0J-321214D01*
G03X1450004Y-1465209I-76381J-34263D01*
G03X1366290Y-1548923I0J-83714D01*
G03X1448962Y-1632631I83714J0D01*
G03X1438459Y-1666009I300698J-112955D01*
G03X1366290Y-1748924I11544J-82914D01*
G03X1440309Y-1832074I83714J0D01*
G03X1451557Y-1865224I309351J86488D01*
G01X1450004Y-1865210D01*
G03X1366290Y-1948924I0J-83714D01*
G03X1371250Y-1977312I83714J0D01*
G03X1339884Y-1991784I18635J-81614D01*
G03X1326236Y-1983516I-50000J-67142D01*
G03X1333718Y-1948924I-76233J34592D01*
G03X1250004Y-1865210I-83714J0D01*
G03X1166290Y-1948924I0J-83714D01*
G03X1171250Y-1977312I83714J0D01*
G03X1139884Y-1991784I18635J-81614D01*
G03X1126236Y-1983516I-50000J-67142D01*
G03X1133718Y-1948924I-76233J34592D01*
G03X1050003Y-1865210I-83714J0D01*
G03X966289Y-1948924I0J-83714D01*
G03X971250Y-1977312I83714J0D01*
G03X939884Y-1991784I18635J-81614D01*
G03X926236Y-1983516I-50000J-67142D01*
G03X933717Y-1948924I-76233J34592D01*
G03X850003Y-1865210I-83714J0D01*
G03X766289Y-1948924I0J-83714D01*
G03X771250Y-1977312I83714J0D01*
G01X199922Y119239D02*
G03X281004Y56352I81082J20827D01*
G03X328372Y71042I0J83714D01*
G03X373042Y58127I44671J70800D01*
G03X423042Y74699I0J83714D01*
G03X473042Y58127I50000J67142D01*
G03X523042Y74699I0J83714D01*
G03X573042Y58127I50000J67142D01*
G03X623042Y74699I0J83714D01*
G03X673042Y58127I50000J67142D01*
G03X723042Y74699I0J83714D01*
G03X773042Y58127I50000J67142D01*
G03X823042Y74699I0J83714D01*
G03X873042Y58127I50000J67142D01*
G03X923042Y74699I0J83714D01*
G03X973043Y58127I50000J67142D01*
G03X1023042Y74699I0J83714D01*
G03X1073042Y58127I50000J67142D01*
G03X1123042Y74699I0J83714D01*
G03X1173042Y58127I50000J67142D01*
G03X1223042Y74699I0J83714D01*
G03X1273042Y58127I50000J67142D01*
G03X1323042Y74699I0J83714D01*
G03X1373042Y58127I50000J67142D01*
G03X1456757Y141841I0J83714D01*
G03X1456505Y148320I-83714J0D01*
G03X1482668Y209113I-57552J60793D01*
G03X1466096Y259113I-83714J0D01*
G03X1482668Y309113I-67142J50000D01*
G03X1398954Y392827I-83714J0D01*
G03X1394409Y392703I0J-83714D01*
G03X1348965Y435451I-75949J-35211D01*
G03X1268461Y496206I-80504J-22958D01*
G03X1218460Y479634I0J-83714D01*
G03X1168460Y496206I-50000J-67142D01*
G03X1118460Y479634I0J-83714D01*
G03X1068460Y496206I-50000J-67142D01*
G03X1018460Y479634I0J-83714D01*
G03X968461Y496206I-50000J-67142D01*
G03X918461Y479634I0J-83714D01*
G03X868461Y496206I-50000J-67142D01*
G03X818461Y479634I0J-83714D01*
G03X768460Y496206I-50000J-67142D01*
G03X687956Y435451I0J-83714D01*
G03X670093Y425820I30505J-77958D01*
G03X675034Y454154I-78773J28334D01*
G03X670813Y480400I-83714J0D01*
G03X675034Y506647I-79493J26247D01*
G03X670813Y532894I-83714J0D01*
G03X675034Y559140I-79493J26247D01*
G03X670813Y585387I-83714J0D01*
G03X675034Y611634I-79493J26247D01*
G03X674532Y620786I-83714J0D01*
G03X720002Y607362I45469J70289D01*
G03X800423Y667828I0J83714D01*
G03X880913Y751480I-3224J83652D01*
G03X797199Y835194I-83714J0D01*
G03X716777Y774728I0J-83714D01*
G03X636288Y691076I3224J-83652D01*
G03X636789Y681923I83714J0D01*
G03X601155Y694768I-45469J-70289D01*
G03X543060Y718208I-58095J-60274D01*
G03X459346Y634494I0J-83714D01*
G03X463852Y607400I83714J0D01*
G03X459346Y580307I79209J-27093D01*
G03X463852Y553214I83714J0D01*
G03X459346Y526120I79209J-27093D01*
G01X459347Y525697D01*
G01X459346Y525274D01*
G03X459397Y522357I83714J0D01*
G03X393624Y440588I17941J-81769D01*
G03X393683Y437455I83714J0D01*
G03X334746Y357492I24778J-79963D01*
G03X397296Y276498I83714J0D01*
G03X375675Y265865I25747J-79656D01*
G03X331004Y278780I-44671J-70800D01*
G03X283637Y264090I0J-83714D01*
G03X238966Y277005I-44671J-70800D01*
G03X223345Y275534I0J-83714D01*
G03X227809Y302507I-79250J26973D01*
G03X201995Y362969I-83714J0D01*
G03X148965Y435451I-83535J-5477D01*
G03X68461Y496206I-80504J-22958D01*
G03X18461Y479634I0J-83714D01*
G03X-31539Y496206I-50000J-67142D01*
G03X-112044Y435451I0J-83714D01*
G03X-126506Y428104I30504J-77959D01*
G03X-151275Y439833I-47728J-68776D01*
G03X-229233Y493043I-77959J-30504D01*
G03X-260974Y486792I0J-83714D01*
G03X-274569Y522846I-83025J-10717D01*
G03X-231540Y510941I43029J71809D01*
G03X-151036Y571696I0J83714D01*
G03X-131540Y582513I-30504J77959D01*
G03X-112044Y571696I50000J67142D01*
G03X-31540Y510941I80504J22959D01*
G03X18460Y527513I0J83714D01*
G03X68460Y510941I50000J67142D01*
G03X118460Y527513I0J83714D01*
G03X168460Y510941I50000J67142D01*
G03X218460Y527513I0J83714D01*
G03X268460Y510941I50000J67142D01*
G03X348964Y571696I0J83714D01*
G03X402174Y649655I-30504J77959D01*
G03X366837Y717976I-83714J0D01*
G03X371757Y746254I-78794J28278D01*
G03X288043Y829968I-83714J0D01*
G03X204329Y746254I0J-83714D01*
G03X205490Y732358I83714J0D01*
G03X168460Y716797I12970J-82703D01*
G03X118460Y733369I-50000J-67142D01*
G03X68460Y716797I0J-83714D01*
G03X18460Y733369I-50000J-67142D01*
G03X-31540Y716797I0J-83714D01*
G03X-81540Y733369I-50000J-67142D01*
G03X-131540Y716797I0J-83714D01*
G03X-181540Y733369I-50000J-67142D01*
G03X-219060Y724490I0J-83714D01*
G03X-202085Y761076I-30939J36586D01*
G03X-249999Y808990I-47914J0D01*
G03X-297913Y761076I0J-47914D01*
G03X-249999Y713162I47914J0D01*
G03X-231343Y716943I0J47914D01*
G03X-262044Y672613I49803J-67288D01*
G03X-315254Y594655I30504J-77959D01*
G03X-314461Y583161I83714J0D01*
G03X-379999Y614790I-65538J-52085D01*
G03X-402504Y611708I0J-83714D01*
G01X-402502Y612283D01*
G03X-453940Y689524I-83714J0D01*
G03X-442085Y721076I-36059J31552D01*
G01X-442104Y722424D01*
G01X-296365Y868162D01*
G01X226155D01*
G03X260002Y854162I33846J33914D01*
G03X307916Y902076I0J47914D01*
G03X260002Y949990I-47914J0D01*
G03X224263Y933990I0J-47914D01*
G01X44765D01*
G03X47915Y951076I-44764J17086D01*
G03X46213Y963733I-47914J0D01*
G01X556057D01*
G03X590002Y955662I33944J67343D01*
G03X665416Y1031076I0J75414D01*
G03X643327Y1084402I-75414J0D01*
G01X635256Y1092473D01*
G03X581931Y1114561I-53326J-53326D01*
G01X-64119D01*
G03X-37275Y1177076I-59372J62515D01*
G03X-47119Y1217081I-86215J0D01*
G03X-37275Y1257086I-76372J40005D01*
G03X-47119Y1297091I-86215J0D01*
G03X-37275Y1337096I-76372J40005D01*
G03X-123490Y1423311I-86215J0D01*
G03X-163483Y1413474I0J-86215D01*
G03X-203475Y1423311I-39992J-76379D01*
G03X-243480Y1413468I0J-86215D01*
G03X-283485Y1423311I-40005J-76372D01*
G03X-323477Y1413474I0J-86215D01*
G03X-363470Y1423311I-39992J-76379D01*
G03X-449685Y1337096I0J-86215D01*
G03X-439842Y1297091I86215J0D01*
G03X-449685Y1257086I76372J-40005D01*
G03X-439842Y1217081I86215J0D01*
G03X-449685Y1177076I76372J-40005D01*
G03X-422841Y1114561I86215J0D01*
G01X-579812D01*
G03X-626561Y1098323I0J-75414D01*
G01X-721739D01*
G03X-797153Y1022909I0J-75414D01*
G03X-721739Y947495I75414J0D01*
G01X-627106D01*
G03X-543485Y867733I83621J3952D01*
G03X-459771Y951447I0J83714D01*
G03X-460677Y963733I-83714J0D01*
G01X-46211D01*
G03X-47913Y951076I46212J-12657D01*
G03X-44763Y933990I47914J0D01*
G01X-309999D01*
G03X-333273Y924350I0J-32914D01*
G01X-488651Y768971D01*
G01X-489999Y768990D01*
G03X-537913Y721076I0J-47914D01*
G03X-523780Y687096I47914J0D01*
G03X-552652Y663217I37563J-74813D01*
G03X-600340Y678128I-47688J-68803D01*
G03X-634982Y670624I0J-83714D01*
G03X-663941Y677666I-33944J-76524D01*
G03X-590284Y760774I-10057J83108D01*
G03X-673998Y844488I-83714J0D01*
G03X-741025Y810927I0J-83714D01*
G03X-768994Y815738I-27969J-78904D01*
G03X-852708Y732024I0J-83714D01*
G01X-852707Y731672D01*
G03X-888925Y716243I13782J-82572D01*
G03X-938925Y732815I-50000J-67142D01*
G03X-988925Y716243I0J-83714D01*
G03X-1038925Y732815I-50000J-67142D01*
G03X-1088925Y716243I0J-83714D01*
G03X-1138925Y732815I-50000J-67142D01*
G03X-1188925Y716243I0J-83714D01*
G03X-1238925Y732815I-50000J-67142D01*
G03X-1288925Y716243I0J-83714D01*
G03X-1338925Y732815I-50000J-67142D01*
G03X-1422640Y649101I0J-83714D01*
G03X-1369430Y571142I83714J0D01*
G03X-1288926Y510387I80504J22959D01*
G03X-1238926Y526959I0J83714D01*
G03X-1188925Y510387I50000J67142D01*
G03X-1138925Y526959I0J83714D01*
G03X-1088925Y510387I50000J67142D01*
G03X-1038925Y526959I0J83714D01*
G03X-988925Y510387I50000J67142D01*
G03X-938925Y526959I0J83714D01*
G03X-888925Y510387I50000J67142D01*
G03X-852414Y518768I0J83714D01*
G03X-768994Y442059I83420J7005D01*
G03X-686383Y512227I0J83714D01*
G03X-668926Y510387I17458J81874D01*
G03X-634284Y517890I0J83714D01*
G03X-600340Y510700I33944J76524D01*
G03X-533904Y543479I0J83714D01*
G03X-486216Y528569I47688J68803D01*
G03X-463711Y531651I0J83714D01*
G01X-463713Y531076D01*
G03X-426418Y461410I83714J0D01*
G03X-343999Y392361I82420J14664D01*
G03X-312258Y398611I0J83714D01*
G03X-296375Y359329I83025J10717D01*
G03X-312947Y309329I67142J-50000D01*
G03X-252192Y228824I83714J0D01*
G03X-174233Y175614I77959J30504D01*
G03X-158321Y177141I0J83714D01*
G03X-107462Y118883I81363J19701D01*
G03X-26958Y58127I80504J22959D01*
G03X56757Y141841I0J83714D01*
G03X3547Y219800I-83714J0D01*
G03X-55793Y277836I-80504J-22959D01*
G03X-31540Y290350I-25747J79656D01*
G03X18460Y273778I50000J67142D01*
G03X62024Y286006I0J83714D01*
G03X63663Y279298I82072J16501D01*
G03X38446Y219414I58497J-59884D01*
G03X122160Y135700I83714J0D01*
G03X167787Y149227I0J83714D01*
G03X199922Y119239I71179J44064D01*
G01X-249999Y-1202639D02*
G03X-175218Y-1156554I0J83714D01*
G03X-169999Y-1156839I5219J47629D01*
G03X-164779Y-1156554I0J47914D01*
G03X-89999Y-1202639I74780J37629D01*
G03X-9999Y-1143583I0J83714D01*
G03X70001Y-1202639I80000J24658D01*
G03X145259Y-1155591I0J83714D01*
G03X160000Y-1157915I14741J45590D01*
G03X207914Y-1110001I0J47914D01*
G03X162220Y-1062138I-47914J0D01*
G01X143381Y-1043299D01*
G03X157915Y-1008925I-33380J34374D01*
G03X110001Y-961011I-47914J0D01*
G03X62087Y-1008925I0J-47914D01*
G03X64719Y-1024587I47914J0D01*
G01X-24716D01*
G03X-22730Y-1016761I-45282J15662D01*
G03X-19999Y-1016839I2731J47836D01*
G03X27915Y-968925I0J47914D01*
G03X-19999Y-921011I-47914J0D01*
G03X-67268Y-961089I0J-47914D01*
G03X-69999Y-961011I-2731J-47836D01*
G03X-78451Y-961762I0J-47914D01*
G03X-78206Y-956926I-47669J4836D01*
G03X-126120Y-909012I-47914J0D01*
G03X-174034Y-956926I0J-47914D01*
G03X-126120Y-1004841I47914J0D01*
G03X-117668Y-1004089I0J47914D01*
G03X-117913Y-1008925I47669J-4836D01*
G03X-115281Y-1024587I47914J0D01*
G01X-235331D01*
G01X-494959Y-764959D01*
G03X-520000Y-754586I-25041J-25041D01*
G01X-752455D01*
G03X-737726Y-745414I-17545J44586D01*
G01X-464669D01*
G01X-428044Y-782040D01*
G03X-403002Y-792412I25041J25041D01*
G01X-320999D01*
G03X-295958Y-782040I0J35414D01*
G01X-259332Y-745414D01*
G01X-164669D01*
G01X-107806Y-802277D01*
G01X-106162Y-803820D01*
G03X-129924Y-822434I16164J-45105D01*
G03X-154899Y-815410I-24975J-40890D01*
G03X-202813Y-863324I0J-47914D01*
G03X-154899Y-911238I47914J0D01*
G03X-114974Y-889815I0J47914D01*
G03X-89999Y-896839I24975J40890D01*
G03X-42085Y-848925I0J47914D01*
G03X-58696Y-812650I-47914J0D01*
G01X52567D01*
G01X122138Y-882221D01*
G03X170000Y-927915I47863J2220D01*
G03X177210Y-927369I0J47914D01*
G03X172087Y-948925I42791J-21556D01*
G03X220001Y-996839I47914J0D01*
G03X267915Y-948925I0J47914D01*
G03X266329Y-936698I-47914J0D01*
G03X270001Y-936839I3672J47773D01*
G03X317916Y-888925I0J47914D01*
G03X270001Y-841011I-47914J0D01*
G03X222087Y-888925I0J-47914D01*
G03X223674Y-901152I47914J0D01*
G03X220001Y-901011I-3672J-47773D01*
G03X212791Y-901556I0J-47914D01*
G03X217914Y-880000I-42791J21556D01*
G03X172220Y-832138I-47914J0D01*
G01X117532Y-777450D01*
G01X276120D01*
G03X294090Y-770006I0J25414D01*
G01X377972Y-686124D01*
G03X385416Y-668154I-17970J17970D01*
G01Y-408925D01*
G03X377972Y-390954I-25414J0D01*
G01X377334Y-390316D01*
G03X359363Y-382872I-17970J-17970D01*
G01X313497D01*
G03X360074Y-307846I-37137J75026D01*
G03X277702Y-224143I-83714J0D01*
G03X313374Y-155587I-48042J68556D01*
G03X229660Y-71873I-83714J0D01*
G03X179660Y-88445I0J-83714D01*
G03X129660Y-71873I-50000J-67142D01*
G03X79660Y-88445I0J-83714D01*
G03X29660Y-71873I-50000J-67142D01*
G03X-20340Y-88445I0J-83714D01*
G03X-70340Y-71873I-50000J-67142D01*
G03X-154054Y-155587I0J-83714D01*
G03X-144630Y-194175I83714J0D01*
G03X-185172Y-223082I26130J-79532D01*
G03X-230000Y-192086I-44828J-16918D01*
G03X-277914Y-240000I0J-47914D01*
G03X-274150Y-258617I47914J0D01*
G03X-294439Y-282086I24149J-41383D01*
G01X-368312D01*
G03X-391586Y-291727I0J-32914D01*
G01X-424586Y-324727D01*
G03X-470000Y-292086I-45415J-15273D01*
G03X-517914Y-340000I0J-47914D01*
G03X-509600Y-366975I47914J0D01*
G01X-608565Y-465940D01*
G03X-650000Y-442086I-41435J-24060D01*
G03X-697914Y-490000I0J-47914D01*
G03X-674060Y-531435I47914J0D01*
G01X-704710Y-562085D01*
G01X-759310D01*
G03X-716285Y-488925I-40689J73160D01*
G03X-746589Y-424462I-83714J0D01*
G03X-716286Y-360000I-53411J64462D01*
G03X-762811Y-285000I-83714J0D01*
G03X-716286Y-210000I-37189J75000D01*
G03X-800000Y-126286I-83714J0D01*
G03X-883715Y-210000I0J-83714D01*
G03X-837190Y-285000I83714J0D01*
G03X-883715Y-360000I37189J-75000D01*
G03X-853410Y-424463I83714J0D01*
G03X-883713Y-488925I53411J-64462D01*
G03X-883162Y-498514I83714J0D01*
G03X-949998Y-465209I-66835J-50409D01*
G03X-1033712Y-548923I0J-83714D01*
G03X-1032671Y-562085I83714J0D01*
G01X-1067325D01*
G03X-1066284Y-548923I-82673J13162D01*
G03X-1149998Y-465209I-83714J0D01*
G03X-1233712Y-548923I0J-83714D01*
G03X-1232671Y-562085I83714J0D01*
G01X-1267325D01*
G03X-1266284Y-548923I-82673J13162D01*
G03X-1349998Y-465209I-83714J0D01*
G03X-1433712Y-548923I0J-83714D01*
G03X-1422509Y-590758I83714J0D01*
G03X-1450001Y-582086I-27492J-39242D01*
G03X-1477483Y-590751I0J-47914D01*
G03X-1466284Y-548923I-72515J41828D01*
G03X-1549998Y-465209I-83714J0D01*
G03X-1633712Y-548923I0J-83714D01*
G03X-1549998Y-632637I83714J0D01*
G03X-1494083Y-611225I0J83714D01*
G03X-1497915Y-630000I44082J-18775D01*
G03X-1450001Y-677914I47914J0D01*
G03X-1444097Y-677549I0J47914D01*
G01X-1498653Y-732105D01*
G01X-1500001Y-732086D01*
G03X-1547915Y-780000I0J-47914D01*
G03X-1500001Y-827914I47914J0D01*
G03X-1452087Y-780000I0J47914D01*
G01X-1452106Y-778653D01*
G01X-1431062Y-757609D01*
G03X-1386501Y-787914I44561J17609D01*
G03X-1338897Y-745444I0J47914D01*
G01X-1251592Y-658139D01*
G01X-1184686D01*
G01X-1293274Y-766727D01*
G03X-1302915Y-790000I23274J-23274D01*
G01Y-815181D01*
G03X-1317915Y-850000I32914J-34820D01*
G03X-1270001Y-897915I47914J0D01*
G03X-1222087Y-850000I0J47914D01*
G03X-1237087Y-815181I-47914J0D01*
G01Y-803634D01*
G01X-1223125Y-789672D01*
G03X-1149998Y-832637I73127J40749D01*
G03X-1066284Y-748923I0J83714D01*
G03X-1087780Y-692914I-83714J0D01*
G01X-1012215D01*
G03X-1033712Y-748923I62218J-56009D01*
G03X-949998Y-832637I83714J0D01*
G03X-866284Y-748923I0J83714D01*
G03X-887780Y-692914I-83714J0D01*
G01X-814764D01*
G03X-817914Y-710000I44764J-17086D01*
G03X-802133Y-745542I47914J0D01*
G03X-820000Y-742086I-17867J-44458D01*
G03X-867914Y-790000I0J-47914D01*
G03X-820000Y-837914I47914J0D01*
G03X-787726Y-825414I0J47914D01*
G01X-534669D01*
G01X-304608Y-1055475D01*
G03X-333713Y-1118925I54609J-63450D01*
G03X-249999Y-1202639I83714J0D01*
G01X1484849Y458005D02*
G03X1567617Y386839I82768J12549D01*
G03X1651331Y470554I0J83714D01*
G03X1595544Y549472I-83714J0D01*
G03X1512776Y620638I-82768J-12549D01*
G03X1496365Y619013I0J-83714D01*
G03X1502174Y649655I-77905J30642D01*
G03X1418460Y733369I-83714J0D01*
G03X1368460Y716797I0J-83714D01*
G03X1318460Y733369I-50000J-67142D01*
G03X1268460Y716797I0J-83714D01*
G03X1218460Y733369I-50000J-67142D01*
G03X1168460Y716797I0J-83714D01*
G03X1118460Y733369I-50000J-67142D01*
G03X1101895Y731714I0J-83714D01*
G03X1103567Y748362I-82042J16648D01*
G03X1019853Y832076I-83714J0D01*
G03X936139Y748362I0J-83714D01*
G03X951548Y699962I83714J0D01*
G03X934746Y649655I66912J-50307D01*
G03X987956Y571696I83714J0D01*
G03X1068460Y510941I80504J22959D01*
G03X1118460Y527513I0J83714D01*
G03X1168460Y510941I50000J67142D01*
G03X1218460Y527513I0J83714D01*
G03X1268460Y510941I50000J67142D01*
G03X1318460Y527513I0J83714D01*
G03X1368460Y510941I50000J67142D01*
G03X1429062Y536902I0J83714D01*
G03X1484849Y458005I83714J22D01*
G01X810135Y979596D02*
G03X893849Y1063310I0J83714D01*
G03X889011Y1091357I-83714J0D01*
G01X890145Y1091349D01*
G03X930137Y1101186I0J86215D01*
G03X970130Y1091349I39992J76379D01*
G03X1055763Y1167562I0J86215D01*
G03X1133718Y1251078I-5759J83516D01*
G03X1056292Y1334556I-83714J0D01*
G03X1056345Y1337585I-86162J3029D01*
G03X970130Y1423800I-86215J0D01*
G03X930137Y1413963I0J-86215D01*
G03X890145Y1423800I-39992J-76379D01*
G03X850140Y1413956I0J-86215D01*
G03X810135Y1423800I-40005J-76372D01*
G03X770143Y1413963I0J-86215D01*
G03X730150Y1423800I-39992J-76379D01*
G03X643935Y1337585I0J-86215D01*
G03X653779Y1297580I86215J0D01*
G03X643935Y1257575I76372J-40005D01*
G03X653779Y1217570I86215J0D01*
G03X643935Y1177565I76372J-40005D01*
G03X730150Y1091349I86215J0D01*
G01X731259Y1091356D01*
G03X726421Y1063310I78876J-28046D01*
G03X810135Y979596I83714J0D01*
G01X-833712Y1451078D02*
G03X-749997Y1367364I83714J0D01*
G03X-666283Y1451078I0J83714D01*
G03X-719980Y1529225I-83714J0D01*
G03X-693290Y1561378I-49029J67854D01*
G03X-667998Y1554158I25292J40695D01*
G03X-620084Y1602072I0J47914D01*
G03X-620206Y1605484I-47914J0D01*
G03X-549997Y1567364I70208J45594D01*
G03X-466283Y1651078I0J83714D01*
G03X-549997Y1734792I-83714J0D01*
G03X-633711Y1651078I0J-83714D01*
G03X-631850Y1633522I83714J0D01*
G03X-667998Y1649987I-36148J-31449D01*
G03X-697180Y1640075I0J-47914D01*
G03X-769009Y1680794I-71829J-42995D01*
G03X-852723Y1597080I0J-83714D01*
G03X-799026Y1518932I83714J0D01*
G03X-833712Y1451078I49029J-67854D01*
G01X-1033712Y-1148923D02*
G03X-949998Y-1232637I83714J0D01*
G03X-866284Y-1148923I0J83714D01*
G03X-867288Y-1135991I-83714J0D01*
G03X-799999Y-1169904I67289J49802D01*
G03X-716285Y-1086190I0J83714D01*
G03X-761463Y-1011873I-83714J0D01*
G03X-716287Y-937557I-38539J74316D01*
G03X-800001Y-853843I-83714J0D01*
G03X-877777Y-906589I0J-83714D01*
G03X-949998Y-865209I-72221J-42334D01*
G03X-1033712Y-948923I0J-83714D01*
G03X-949998Y-1032637I83714J0D01*
G03X-872222Y-979892I0J83714D01*
G03X-838538Y-1011874I72221J42334D01*
G03X-883713Y-1086190I38539J-74316D01*
G03X-882708Y-1099122I83714J0D01*
G03X-949998Y-1065209I-67289J-49802D01*
G03X-1033712Y-1148923I0J-83714D01*
G01X1261288Y-748925D02*
G03X1345002Y-832639I83714J0D01*
G03X1397504Y-814129I0J83714D01*
G03X1450004Y-832637I52500J65206D01*
G03X1533718Y-748923I0J83714D01*
G03X1529181Y-721738I-83714J0D01*
G03X1591217Y-618925I-54178J102812D01*
G03X1475003Y-502711I-116214J0D01*
G03X1384987Y-545422I0J-116214D01*
G03X1387916Y-528925I-44985J16497D01*
G03X1340002Y-481011I-47914J0D01*
G03X1292088Y-528925I0J-47914D01*
G03X1340002Y-576839I47914J0D01*
G03X1372532Y-564104I0J47914D01*
G03X1358789Y-618925I102471J-54821D01*
G03X1370170Y-669083I116214J0D01*
G03X1345002Y-665211I-25168J-79841D01*
G03X1261288Y-748925I0J-83714D01*
G01X-895202Y1109012D02*
G03X-831150Y1138824I0J83714D01*
G03X-767580Y1109579I63570J54469D01*
G03X-688705Y1165243I0J83714D01*
G03X-640000Y1149617I48705J68087D01*
G03X-581451Y1173498I0J83714D01*
G03X-549997Y1167364I31453J77580D01*
G03X-466283Y1251078I0J83714D01*
G03X-549997Y1334792I-83714J0D01*
G03X-608547Y1310911I0J-83714D01*
G03X-640000Y1317045I-31453J-77580D01*
G03X-718875Y1261381I0J-83714D01*
G03X-767580Y1277008I-48705J-68087D01*
G03X-831632Y1247195I0J-83714D01*
G03X-895202Y1276440I-63570J-54469D01*
G03X-978916Y1192726I0J-83714D01*
G03X-895202Y1109012I83714J0D01*
G01X751603Y-685041D02*
G03X835317Y-601326I0J83714D01*
G03X807248Y-538784I-83714J0D01*
G03X823716Y-488925I-67247J49859D01*
G03X819512Y-462728I-83714J0D01*
G03X863716Y-388925I-39510J73804D01*
G03X780002Y-305210I-83714J0D01*
G03X696288Y-388925I0J-83714D01*
G03X700492Y-415121I83714J0D01*
G03X656288Y-488925I39510J-73804D01*
G03X684356Y-551467I83714J0D01*
G03X667888Y-601326I67247J-49859D01*
G03X751603Y-685041I83714J0D01*
G01X1358789Y-1098924D02*
G03X1475003Y-1215138I116214J0D01*
G03X1591217Y-1098924I0J116214D01*
G03X1528958Y-995995I-116214J0D01*
G03X1567916Y-948925I-8956J47070D01*
G03X1520002Y-901011I-47914J0D01*
G03X1472088Y-948925I0J-47914D01*
G03X1486616Y-983292I47914J0D01*
G03X1475003Y-982711I-11613J-115632D01*
G03X1358789Y-1098924I0J-116214D01*
G01X250003Y1167364D02*
G03X333717Y1251078I0J83714D01*
G03X330571Y1273812I-83714J0D01*
G03X343155Y1317954I-71130J44142D01*
G03X305145Y1388091I-83714J0D01*
G03X333717Y1451078I-55142J62987D01*
G03X250003Y1534792I-83714J0D01*
G03X166289Y1451078I0J-83714D01*
G03X204299Y1380941I83714J0D01*
G03X175727Y1317954I55142J-62987D01*
G03X178873Y1295220I83714J0D01*
G03X166289Y1251078I71130J-44142D01*
G03X250003Y1167364I83714J0D01*
G01X-1009763Y829718D02*
G03X-931805Y882927I0J83714D01*
G03X-871049Y963432I-22959J80504D01*
G03X-931805Y1043936I-83714J0D01*
G03X-1009763Y1097146I-77958J-30504D01*
G03X-1093477Y1013432I0J-83714D01*
G03X-1076905Y963432I83714J0D01*
G03X-1093477Y913432I67142J-50000D01*
G03X-1009763Y829718I83714J0D01*
G01X-629176Y1823899D02*
G03X-549997Y1767364I79179J27179D01*
G03X-466283Y1851078I0J83714D01*
G03X-549997Y1934792I-83714J0D01*
G03X-633549Y1856294I0J-83714D01*
G03X-675998Y1881986I-42449J-22222D01*
G03X-723291Y1841761I0J-47914D01*
G03X-769999Y1878991I-46708J-10684D01*
G03X-817913Y1831077I0J-47914D01*
G03X-769999Y1783163I47914J0D01*
G03X-722706Y1823388I0J47914D01*
G03X-675998Y1786158I46708J10684D01*
G03X-629176Y1823899I0J47914D01*
G01X1650004Y-1432637D02*
G03X1733718Y-1348923I0J83714D01*
G03X1722691Y-1307394I-83714J0D01*
G03X1770416Y-1233924I-32688J73470D01*
G03X1690002Y-1153510I-80414J0D01*
G03X1609588Y-1233924I0J-80414D01*
G03X1618777Y-1271251I80414J0D01*
G03X1566290Y-1348923I31227J-77672D01*
G03X1650004Y-1432637I83714J0D01*
G01X1170002Y-552639D02*
G03X1253716Y-468925I0J83714D01*
G03X1214255Y-397863I-83714J0D01*
G03X1237754Y-339706I-60215J58157D01*
G03X1154040Y-255992I-83714J0D01*
G03X1070326Y-339706I0J-83714D01*
G03X1109787Y-410768I83714J0D01*
G03X1086288Y-468925I60215J-58157D01*
G03X1170002Y-552639I83714J0D01*
G01X-1433712Y1051078D02*
G03X-1349998Y967364I83714J0D01*
G03X-1266284Y1051078I0J83714D01*
G03X-1266351Y1054422I-83714J0D01*
G03X-1216285Y1131076I-33649J76654D01*
G03X-1299999Y1214790I-83714J0D01*
G03X-1383714Y1131076I0J-83714D01*
G03X-1383647Y1127732I83714J0D01*
G03X-1433712Y1051078I33649J-76654D01*
G01X1085947Y824414D02*
G03X1169661Y740700I83714J0D01*
G03X1232582Y769197I0J83714D01*
G03X1250004Y767364I17421J81881D01*
G03X1333718Y851078I0J83714D01*
G03X1250004Y934792I-83714J0D01*
G03X1187082Y906295I0J-83714D01*
G03X1169661Y908128I-17421J-81881D01*
G03X1085947Y824414I0J-83714D01*
G01X867126Y-656089D02*
G03X950840Y-739803I83714J0D01*
G03X1034438Y-660504I0J83714D01*
G03X1051060Y-662941I16622J55477D01*
G03X1108974Y-605026I0J57914D01*
G03X1051060Y-547112I-57914J0D01*
G03X996408Y-585864I0J-57914D01*
G03X950840Y-572375I-45568J-70225D01*
G03X867126Y-656089I0J-83714D01*
G01X1366290Y851078D02*
G03X1450004Y767364I83714J0D01*
G03X1533718Y851078I0J83714D01*
G03X1526699Y884633I-83714J0D01*
G03X1567916Y932076I-6697J47444D01*
G03X1520002Y979990I-47914J0D01*
G03X1472088Y932076I0J-47914D01*
G01X1472089Y931826D01*
G03X1450004Y934792I-22085J-80748D01*
G03X1366290Y851078I0J-83714D01*
G01X-1700138Y-816169D02*
G03X-1660001Y-837914I40137J26168D01*
G03X-1612087Y-790000I0J47914D01*
G03X-1660001Y-742086I-47914J0D01*
G03X-1666528Y-742533I0J-47914D01*
G03X-1749998Y-665209I-83470J-6390D01*
G03X-1833712Y-748923I0J-83714D01*
G03X-1749998Y-832637I83714J0D01*
G03X-1700138Y-816169I0J83714D01*
G01X-1173713Y1271076D02*
G03X-1089999Y1187362I83714J0D01*
G03X-1057877Y1193770I0J83714D01*
G03X-996626Y1274414I-22464J80644D01*
G03X-1080340Y1358128I-83714J0D01*
G03X-1112463Y1351720I0J-83714D01*
G03X-1173713Y1271076I22464J-80644D01*
G01X1850004Y-432637D02*
G03X1933718Y-348923I0J83714D01*
G03X1850004Y-265209I-83714J0D01*
G03X1766290Y-348923I0J-83714D01*
G03X1850004Y-432637I83714J0D01*
G01X599999Y-1021417D02*
G03X683713Y-937703I0J83714D01*
G03X599999Y-853989I-83714J0D01*
G03X516285Y-937703I0J-83714D01*
G03X599999Y-1021417I83714J0D01*
G01X1366290Y-348923D02*
G03X1450004Y-432637I83714J0D01*
G03X1533718Y-348923I0J83714D01*
G03X1450004Y-265209I-83714J0D01*
G03X1366290Y-348923I0J-83714D01*
G01X-33711Y1651078D02*
G03X50003Y1567364I83714J0D01*
G03X133717Y1651078I0J83714D01*
G03X50003Y1734792I-83714J0D01*
G03X-33711Y1651078I0J-83714D01*
G01X830166Y1818442D02*
G03X913880Y1734728I83714J0D01*
G03X997594Y1818442I0J83714D01*
G03X913880Y1902156I-83714J0D01*
G03X830166Y1818442I0J-83714D01*
G01X-146994Y1687361D02*
G03X-63280Y1771075I0J83714D01*
G03X-146994Y1854789I-83714J0D01*
G03X-230708Y1771075I0J-83714D01*
G03X-146994Y1687361I83714J0D01*
G01X1250004Y1767364D02*
G03X1333718Y1851078I0J83714D01*
G03X1250004Y1934792I-83714J0D01*
G03X1166290Y1851078I0J-83714D01*
G03X1250004Y1767364I83714J0D01*
G01X166289Y1851078D02*
G03X250003Y1767364I83714J0D01*
G03X333717Y1851078I0J83714D01*
G03X250003Y1934792I-83714J0D01*
G03X166289Y1851078I0J-83714D01*
G01X1250004Y1567364D02*
G03X1333718Y1651078I0J83714D01*
G03X1250004Y1734792I-83714J0D01*
G03X1166290Y1651078I0J-83714D01*
G03X1250004Y1567364I83714J0D01*
G01X1050003Y1567364D02*
G03X1133718Y1651078I0J83714D01*
G03X1050003Y1734792I-83714J0D01*
G03X966289Y1651078I0J-83714D01*
G03X1050003Y1567364I83714J0D01*
G01X1366290Y1451078D02*
G03X1450004Y1367364I83714J0D01*
G03X1533718Y1451078I0J83714D01*
G03X1450004Y1534792I-83714J0D01*
G03X1366290Y1451078I0J-83714D01*
G01X-549997Y1367364D02*
G03X-466283Y1451078I0J83714D01*
G03X-549997Y1534792I-83714J0D01*
G03X-633711Y1451078I0J-83714D01*
G03X-549997Y1367364I83714J0D01*
G01X6287Y1321076D02*
G03X90001Y1237362I83714J0D01*
G03X173715Y1321076I0J83714D01*
G03X90001Y1404790I-83714J0D01*
G03X6287Y1321076I0J-83714D01*
G01X1166290Y1451078D02*
G03X1250004Y1367364I83714J0D01*
G03X1333718Y1451078I0J83714D01*
G03X1250004Y1534792I-83714J0D01*
G03X1166290Y1451078I0J-83714D01*
G01X450003Y1367364D02*
G03X533717Y1451078I0J83714D01*
G03X450003Y1534792I-83714J0D01*
G03X366289Y1451078I0J-83714D01*
G03X450003Y1367364I83714J0D01*
G01X1850004Y1167364D02*
G03X1933718Y1251078I0J83714D01*
G03X1850004Y1334792I-83714J0D01*
G03X1766290Y1251078I0J-83714D01*
G03X1850004Y1167364I83714J0D01*
G01X450003Y-1232637D02*
G03X533717Y-1148923I0J83714D01*
G03X450003Y-1065209I-83714J0D01*
G03X366289Y-1148923I0J-83714D01*
G03X450003Y-1232637I83714J0D01*
G01X1250004Y967364D02*
G03X1333718Y1051078I0J83714D01*
G03X1250004Y1134792I-83714J0D01*
G03X1166290Y1051078I0J-83714D01*
G03X1250004Y967364I83714J0D01*
G01X440002Y1137362D02*
G03X523716Y1221076I0J83714D01*
G03X440002Y1304790I-83714J0D01*
G03X356288Y1221076I0J-83714D01*
G03X440002Y1137362I83714J0D01*
G01X1850004Y-232637D02*
G03X1933718Y-148923I0J83714D01*
G03X1850004Y-65209I-83714J0D01*
G03X1766290Y-148923I0J-83714D01*
G03X1850004Y-232637I83714J0D01*
G01X450003Y767364D02*
G03X533717Y851078I0J83714D01*
G03X450003Y934792I-83714J0D01*
G03X366289Y851078I0J-83714D01*
G03X450003Y767364I83714J0D01*
G01X1450004Y1167364D02*
G03X1533718Y1251078I0J83714D01*
G03X1450004Y1334792I-83714J0D01*
G03X1366290Y1251078I0J-83714D01*
G03X1450004Y1167364I83714J0D01*
G01X1566290Y1251078D02*
G03X1650004Y1167364I83714J0D01*
G03X1733718Y1251078I0J83714D01*
G03X1650004Y1334792I-83714J0D01*
G03X1566290Y1251078I0J-83714D01*
G01X1250004Y1167364D02*
G03X1333718Y1251078I0J83714D01*
G03X1250004Y1334792I-83714J0D01*
G03X1166290Y1251078I0J-83714D01*
G03X1250004Y1167364I83714J0D01*
G01X-233711Y-1748924D02*
G03X-149997Y-1832638I83714J0D01*
G03X-66283Y-1748924I0J83714D01*
G03X-149997Y-1665210I-83714J0D01*
G03X-233711Y-1748924I0J-83714D01*
G01X650003Y-1832638D02*
G03X733717Y-1748924I0J83714D01*
G03X650003Y-1665210I-83714J0D01*
G03X566289Y-1748924I0J-83714D01*
G03X650003Y-1832638I83714J0D01*
G01X1138445Y-1822300D02*
G03X1222159Y-1738586I0J83714D01*
G03X1138445Y-1654872I-83714J0D01*
G03X1054730Y-1738586I0J-83714D01*
G03X1138445Y-1822300I83714J0D01*
G01X766289Y-1548923D02*
G03X850003Y-1632638I83714J0D01*
G03X933717Y-1548923I0J83714D01*
G03X850003Y-1465209I-83714J0D01*
G03X766289Y-1548923I0J-83714D01*
G01X850003Y-1832638D02*
G03X933717Y-1748924I0J83714D01*
G03X850003Y-1665210I-83714J0D01*
G03X766289Y-1748924I0J-83714D01*
G03X850003Y-1832638I83714J0D01*
G01X450003Y-1632638D02*
G03X533717Y-1548923I0J83714D01*
G03X450003Y-1465209I-83714J0D01*
G03X366289Y-1548923I0J-83714D01*
G03X450003Y-1632638I83714J0D01*
G01X1766290Y-1348923D02*
G03X1850004Y-1432637I83714J0D01*
G03X1933718Y-1348923I0J83714D01*
G03X1850004Y-1265209I-83714J0D01*
G03X1766290Y-1348923I0J-83714D01*
G01X650003Y-1632638D02*
G03X733717Y-1548923I0J83714D01*
G03X650003Y-1465209I-83714J0D01*
G03X566289Y-1548923I0J-83714D01*
G03X650003Y-1632638I83714J0D01*
G01X1166290Y-1548923D02*
G03X1250004Y-1632638I83714J0D01*
G03X1333718Y-1548923I0J83714D01*
G03X1250004Y-1465209I-83714J0D01*
G03X1166290Y-1548923I0J-83714D01*
G01X1050003Y-1632638D02*
G03X1133718Y-1548923I0J83714D01*
G03X1050003Y-1465209I-83714J0D01*
G03X966289Y-1548923I0J-83714D01*
G03X1050003Y-1632638I83714J0D01*
G01X-549997Y-1432637D02*
G03X-466283Y-1348923I0J83714D01*
G03X-549997Y-1265209I-83714J0D01*
G03X-633711Y-1348923I0J-83714D01*
G03X-549997Y-1432637I83714J0D01*
G01X166289Y-1748924D02*
G03X250003Y-1832638I83714J0D01*
G03X333717Y-1748924I0J83714D01*
G03X250003Y-1665210I-83714J0D01*
G03X166289Y-1748924I0J-83714D01*
G01X-409999Y-1302639D02*
G03X-326285Y-1218925I0J83714D01*
G03X-409999Y-1135211I-83714J0D01*
G03X-493713Y-1218925I0J-83714D01*
G03X-409999Y-1302639I83714J0D01*
G01X-1833712Y-348923D02*
G03X-1749998Y-432637I83714J0D01*
G03X-1666284Y-348923I0J83714D01*
G03X-1749998Y-265209I-83714J0D01*
G03X-1833712Y-348923I0J-83714D01*
G01X-1633712Y-348923D02*
G03X-1549998Y-432637I83714J0D01*
G03X-1466284Y-348923I0J83714D01*
G03X-1549998Y-265209I-83714J0D01*
G03X-1633712Y-348923I0J-83714D01*
G01X-1749998Y-632637D02*
G03X-1666284Y-548923I0J83714D01*
G03X-1749998Y-465209I-83714J0D01*
G03X-1833712Y-548923I0J-83714D01*
G03X-1749998Y-632637I83714J0D01*
G01X-1349998Y-432637D02*
G03X-1266284Y-348923I0J83714D01*
G03X-1349998Y-265209I-83714J0D01*
G03X-1433712Y-348923I0J-83714D01*
G03X-1349998Y-432637I83714J0D01*
G01X-1433712Y1451078D02*
G03X-1349998Y1367364I83714J0D01*
G03X-1266284Y1451078I0J83714D01*
G03X-1349998Y1534792I-83714J0D01*
G03X-1433712Y1451078I0J-83714D01*
G01X-1549998Y767364D02*
G03X-1466284Y851078I0J83714D01*
G03X-1549998Y934792I-83714J0D01*
G03X-1633712Y851078I0J-83714D01*
G03X-1549998Y767364I83714J0D01*
G01X-1549998Y-232637D02*
G03X-1466284Y-148923I0J83714D01*
G03X-1549998Y-65209I-83714J0D01*
G03X-1633712Y-148923I0J-83714D01*
G03X-1549998Y-232637I83714J0D01*
G01X-1433712Y-148923D02*
G03X-1349998Y-232637I83714J0D01*
G03X-1266284Y-148923I0J83714D01*
G03X-1349998Y-65209I-83714J0D01*
G03X-1433712Y-148923I0J-83714D01*
G01X-949998Y-32637D02*
G03X-866284Y51077I0J83714D01*
G03X-949998Y134791I-83714J0D01*
G03X-1033712Y51077I0J-83714D01*
G03X-949998Y-32637I83714J0D01*
G01X-1149998Y-32637D02*
G03X-1066284Y51077I0J83714D01*
G03X-1149998Y134791I-83714J0D01*
G03X-1233712Y51077I0J-83714D01*
G03X-1149998Y-32637I83714J0D01*
G01X-1833712Y-148923D02*
G03X-1749998Y-232637I83714J0D01*
G03X-1666284Y-148923I0J83714D01*
G03X-1749998Y-65209I-83714J0D01*
G03X-1833712Y-148923I0J-83714D01*
G01X-1749998Y-1232637D02*
G03X-1666284Y-1148923I0J83714D01*
G03X-1749998Y-1065209I-83714J0D01*
G03X-1833712Y-1148923I0J-83714D01*
G03X-1749998Y-1232637I83714J0D01*
G01X-1549998Y-1232637D02*
G03X-1466284Y-1148923I0J83714D01*
G03X-1549998Y-1065209I-83714J0D01*
G03X-1633712Y-1148923I0J-83714D01*
G03X-1549998Y-1232637I83714J0D01*
G01X-1433712Y-1148923D02*
G03X-1349998Y-1232637I83714J0D01*
G03X-1266284Y-1148923I0J83714D01*
G03X-1349998Y-1065209I-83714J0D01*
G03X-1433712Y-1148923I0J-83714D01*
G01X-1549998Y967364D02*
G03X-1466284Y1051078I0J83714D01*
G03X-1549998Y1134792I-83714J0D01*
G03X-1633712Y1051078I0J-83714D01*
G03X-1549998Y967364I83714J0D01*
G01X-1833712Y1251078D02*
G03X-1749998Y1167364I83714J0D01*
G03X-1666284Y1251078I0J83714D01*
G03X-1749998Y1334792I-83714J0D01*
G03X-1833712Y1251078I0J-83714D01*
G01X-1633712Y-1348923D02*
G03X-1549998Y-1432637I83714J0D01*
G03X-1466284Y-1348923I0J83714D01*
G03X-1549998Y-1265209I-83714J0D01*
G03X-1633712Y-1348923I0J-83714D01*
G01X-1033712Y-1348923D02*
G03X-949998Y-1432637I83714J0D01*
G03X-866284Y-1348923I0J83714D01*
G03X-949998Y-1265209I-83714J0D01*
G03X-1033712Y-1348923I0J-83714D01*
G01X-1433712Y-1348923D02*
G03X-1349998Y-1432637I83714J0D01*
G03X-1266284Y-1348923I0J83714D01*
G03X-1349998Y-1265209I-83714J0D01*
G03X-1433712Y-1348923I0J-83714D01*
G01X312088Y-818925D02*
G03X360002Y-866839I47914J0D01*
G03X407916Y-818925I0J47914D01*
G03X403506Y-798846I-47914J0D01*
G03X430002Y-806839I26496J39921D01*
G03X477916Y-758925I0J47914D01*
G03X430002Y-711011I-47914J0D01*
G03X382088Y-758925I0J-47914D01*
G03X386498Y-779004I47914J0D01*
G03X360002Y-771011I-26496J-39921D01*
G03X312088Y-818925I0J-47914D01*
G01X1840002Y-926839D02*
G03X1887916Y-878925I0J47914D01*
G03X1886258Y-866429I-47914J0D01*
G03X1927916Y-818925I-6256J47504D01*
G03X1880002Y-771011I-47914J0D01*
G03X1832088Y-818925I0J-47914D01*
G03X1833746Y-831421I47914J0D01*
G03X1792088Y-878925I6256J-47504D01*
G03X1840002Y-926839I47914J0D01*
G01X-427899Y1771078D02*
G03X-362485Y1705664I65414J0D01*
G03X-297072Y1771078I0J65414D01*
G03X-362485Y1836492I-65414J0D01*
G03X-427899Y1771078I0J-65414D01*
G01X1052088Y1811077D02*
G03X1110002Y1753163I57914J0D01*
G03X1167916Y1811077I0J57914D01*
G03X1110002Y1868991I-57914J0D01*
G03X1052088Y1811077I0J-57914D01*
G01X405520Y-601351D02*
G03X463434Y-659265I57914J0D01*
G03X521348Y-601351I0J57914D01*
G03X463434Y-543437I-57914J0D01*
G03X405520Y-601351I0J-57914D01*
G01X40001Y1743163D02*
G03X97915Y1801077I0J57914D01*
G03X40001Y1858991I-57914J0D01*
G03X-17913Y1801077I0J-57914D01*
G03X40001Y1743163I57914J0D01*
G01X-1469999Y675662D02*
G03X-1414585Y731076I0J55414D01*
G03X-1469999Y786490I-55414J0D01*
G03X-1525413Y731076I0J-55414D01*
G03X-1469999Y675662I55414J0D01*
G01X1680002Y-1104339D02*
G03X1735416Y-1048925I0J55414D01*
G03X1680002Y-993511I-55414J0D01*
G03X1624588Y-1048925I0J-55414D01*
G03X1680002Y-1104339I55414J0D01*
G01X-1205753Y-1256587D02*
G03X-1150340Y-1312001I55414J0D01*
G03X-1094926Y-1256587I0J55414D01*
G03X-1150340Y-1201173I-55414J0D01*
G03X-1205753Y-1256587I0J-55414D01*
G01X1720002Y-734339D02*
G03X1775416Y-678925I0J55414D01*
G03X1720002Y-623511I-55414J0D01*
G03X1664588Y-678925I0J-55414D01*
G03X1720002Y-734339I55414J0D01*
G01X-940912Y-1636921D02*
G03X-892998Y-1684835I47914J0D01*
G03X-845084Y-1636921I0J47914D01*
G03X-892998Y-1589007I-47914J0D01*
G03X-940912Y-1636921I0J-47914D01*
G01X-1357913Y-1808926D02*
G03X-1309999Y-1856840I47914J0D01*
G03X-1262085Y-1808926I0J47914D01*
G03X-1309999Y-1761011I-47914J0D01*
G03X-1357913Y-1808926I0J-47914D01*
G01X-1198254Y-1828587D02*
G03X-1150340Y-1876501I47914J0D01*
G03X-1102426Y-1828587I0J47914D01*
G03X-1150340Y-1780673I-47914J0D01*
G03X-1198254Y-1828587I0J-47914D01*
G01X-1065997Y-1937835D02*
G03X-1018083Y-1889921I0J47914D01*
G03X-1065997Y-1842006I-47914J0D01*
G03X-1113911Y-1889921I0J-47914D01*
G03X-1065997Y-1937835I47914J0D01*
G01X-1152453Y-275007D02*
G03X-1104539Y-322921I47914J0D01*
G03X-1056625Y-275007I0J47914D01*
G03X-1104539Y-227093I-47914J0D01*
G03X-1152453Y-275007I0J-47914D01*
G01X-407913Y-1408925D02*
G03X-359999Y-1456839I47914J0D01*
G03X-312085Y-1408925I0J47914D01*
G03X-359999Y-1361011I-47914J0D01*
G03X-407913Y-1408925I0J-47914D01*
G01X132087Y-1348925D02*
G03X180001Y-1396839I47914J0D01*
G03X227915Y-1348925I0J47914D01*
G03X180001Y-1301011I-47914J0D01*
G03X132087Y-1348925I0J-47914D01*
G01X-767913Y-1508925D02*
G03X-719999Y-1556839I47914J0D01*
G03X-672085Y-1508925I0J47914D01*
G03X-719999Y-1461011I-47914J0D01*
G03X-767913Y-1508925I0J-47914D01*
G01X557088Y-787703D02*
G03X605002Y-835617I47914J0D01*
G03X652916Y-787703I0J47914D01*
G03X605002Y-739789I-47914J0D01*
G03X557088Y-787703I0J-47914D01*
G01X240002Y-1636839D02*
G03X287916Y-1588925I0J47914D01*
G03X240002Y-1541011I-47914J0D01*
G03X192088Y-1588925I0J-47914D01*
G03X240002Y-1636839I47914J0D01*
G01X-389999Y-1096839D02*
G03X-342085Y-1048925I0J47914D01*
G03X-389999Y-1001011I-47914J0D01*
G03X-437913Y-1048925I0J-47914D01*
G03X-389999Y-1096839I47914J0D01*
G01X-407913Y-1588925D02*
G03X-359999Y-1636839I47914J0D01*
G03X-312085Y-1588925I0J47914D01*
G03X-359999Y-1541011I-47914J0D01*
G03X-407913Y-1588925I0J-47914D01*
G01X322087Y1761076D02*
G03X370002Y1713162I47914J0D01*
G03X417916Y1761076I0J47914D01*
G03X370002Y1808991I-47914J0D01*
G03X322087Y1761076I0J-47914D01*
G01X-449999Y-1706839D02*
G03X-402085Y-1658925I0J47914D01*
G03X-449999Y-1611011I-47914J0D01*
G03X-497913Y-1658925I0J-47914D01*
G03X-449999Y-1706839I47914J0D01*
G01X-659917Y-1134104D02*
G03X-612003Y-1086190I0J47914D01*
G03X-659917Y-1038276I-47914J0D01*
G03X-707831Y-1086190I0J-47914D01*
G03X-659917Y-1134104I47914J0D01*
G01X1690002Y-866839D02*
G03X1737916Y-818925I0J47914D01*
G03X1690002Y-771011I-47914J0D01*
G03X1642088Y-818925I0J-47914D01*
G03X1690002Y-866839I47914J0D01*
G01X1140002Y-1396839D02*
G03X1187916Y-1348925I0J47914D01*
G03X1140002Y-1301011I-47914J0D01*
G03X1092088Y-1348925I0J-47914D01*
G03X1140002Y-1396839I47914J0D01*
G01X-664999Y-405471D02*
G03X-617085Y-357557I0J47914D01*
G03X-664999Y-309643I-47914J0D01*
G03X-712913Y-357557I0J-47914D01*
G03X-664999Y-405471I47914J0D01*
G01X600002Y-516839D02*
G03X647916Y-468925I0J47914D01*
G03X600002Y-421011I-47914J0D01*
G03X552088Y-468925I0J-47914D01*
G03X600002Y-516839I47914J0D01*
G01X1472088Y1111076D02*
G03X1520002Y1063162I47914J0D01*
G03X1567916Y1111076I0J47914D01*
G03X1520002Y1158990I-47914J0D01*
G03X1472088Y1111076I0J-47914D01*
G01X-787867Y-754459D02*
G01X-787546Y-754586D01*
G01X-787726D01*
G01X-787867Y-754459D01*
G01X-678983Y677208D02*
G03X-728926Y652479I10057J-83108D01*
G03X-733036Y656426I-60000J-58378D01*
G03X-701966Y681870I-35958J75598D01*
G03X-678983Y677208I27969J78904D01*
G04 Copper End*

G04 PolygonModel Start*
G36*
G01X-269999Y-388925D02*
G01X-184071Y-388925D01*
G01Y-567180D01*
G01X-35580Y-711546D01*
G01X147380D01*
G01X230001Y-628925D01*
G01Y-408286D01*
G01X359363D01*
G01X360002Y-408925D01*
G01Y-668154D01*
G01X276120Y-752036D01*
G01X-46509D01*
G01X-269999Y-528546D01*
G01Y-388925D01*
G37*
G04 PolygonModel End*

G04 Pad Start*
G54D10*
G01X1749660Y-1745587D03*
G01X-1730340Y-1745587D03*
G01X1749660Y1734414D03*
G01X-1730340Y1734414D03*
G54D11*
G01X1475003Y-1098924D03*
G01X1475003Y-618925D03*
G01X1905002Y-618925D03*
G01X1905002Y-1098924D03*
G04 Pad End*

G04 Via Start*
G54D12*
G01X1749660Y-1535586D03*
G01X1959660Y-1745587D03*
G01X1749660Y-1955587D03*
G01X1539660Y-1745587D03*
G01X1601168Y-1597094D03*
G01X1601168Y-1894079D03*
G01X1898153Y-1894079D03*
G01X1898153Y-1597094D03*
G01X1555646Y-1665222D03*
G01X1669295Y-1939601D03*
G01X1943675Y-1825951D03*
G01X1830025Y-1551572D03*
G01X1555645Y-1825949D03*
G01X1669298Y-1551571D03*
G01X1943676Y-1665224D03*
G01X1830023Y-1939602D03*
G01X-1730340Y-1535586D03*
G01X-1520340Y-1745587D03*
G01X-1730340Y-1955587D03*
G01X-1940340Y-1745587D03*
G01X-1878832Y-1597094D03*
G01X-1878832Y-1894079D03*
G01X-1581847Y-1894079D03*
G01X-1581847Y-1597094D03*
G01X-1924354Y-1665222D03*
G01X-1810705Y-1939601D03*
G01X-1536326Y-1825951D03*
G01X-1649975Y-1551572D03*
G01X-1924355Y-1825949D03*
G01X-1810702Y-1551571D03*
G01X-1536325Y-1665224D03*
G01X-1649978Y-1939602D03*
G01X1749660Y1944414D03*
G01X1959660Y1734414D03*
G01X1749660Y1524414D03*
G01X1539660Y1734414D03*
G01X1601168Y1882906D03*
G01X1601168Y1585921D03*
G01X1898153Y1585921D03*
G01X1898153Y1882906D03*
G01X1555646Y1814778D03*
G01X1669295Y1540399D03*
G01X1943675Y1654049D03*
G01X1830025Y1928428D03*
G01X1555645Y1654051D03*
G01X1669298Y1928429D03*
G01X1943676Y1814776D03*
G01X1830023Y1540398D03*
G01X-1730340Y1944414D03*
G01X-1520340Y1734414D03*
G01X-1730340Y1524414D03*
G01X-1940340Y1734414D03*
G01X-1878832Y1882906D03*
G01X-1878832Y1585921D03*
G01X-1581847Y1585921D03*
G01X-1581847Y1882906D03*
G01X-1924354Y1814778D03*
G01X-1810705Y1540399D03*
G01X-1536326Y1654049D03*
G01X-1649975Y1928428D03*
G01X-1924355Y1654051D03*
G01X-1810702Y1928429D03*
G01X-1536325Y1814776D03*
G01X-1649978Y1540398D03*
G54D13*
G01X970130Y1337585D03*
G01X890145Y1337585D03*
G01X810135Y1337585D03*
G01X730150Y1337585D03*
G01X730150Y1257575D03*
G01X810135Y1257575D03*
G01X890145Y1257575D03*
G01X970130Y1257575D03*
G01X970130Y1177565D03*
G01X890145Y1177565D03*
G01X810135Y1177565D03*
G01X730150Y1177565D03*
G01X-123490Y1337096D03*
G01X-203475Y1337096D03*
G01X-283485Y1337096D03*
G01X-363470Y1337096D03*
G01X-363470Y1257086D03*
G01X-283485Y1257086D03*
G01X-203475Y1257086D03*
G01X-123490Y1257086D03*
G01X-123490Y1177076D03*
G01X-203475Y1177076D03*
G01X-283485Y1177076D03*
G01X-363470Y1177076D03*
G54D12*
G01X90001Y1321076D03*
G01X-1040997Y357075D03*
G01X-673998Y760774D03*
G01X260002Y902076D03*
G01X-489999Y721076D03*
G01X1520002Y932076D03*
G01X2050004Y1851078D03*
G01X1850004Y1451078D03*
G01X1850004Y1251078D03*
G01X1850004Y1051078D03*
G01X1850004Y-148923D03*
G01X1850004Y-348923D03*
G01X1850004Y-548923D03*
G01X1850004Y-1348923D03*
G01X1650004Y1451078D03*
G01X1650004Y1251078D03*
G01X1670002Y961076D03*
G01X1650004Y651078D03*
G01X1650004Y251077D03*
G01X1650004Y-348923D03*
G01X1650004Y-1348923D03*
G01X1450004Y1851078D03*
G01X1450004Y1651078D03*
G01X1450004Y1451078D03*
G01X1450004Y1251078D03*
G01X1450004Y851078D03*
G01X1450004Y-148923D03*
G01X1450004Y-348923D03*
G01X1450004Y-748923D03*
G01X1450004Y-1548923D03*
G01X1450004Y-1748924D03*
G01X1450004Y-1948924D03*
G01X1250004Y1851078D03*
G01X1250004Y1651078D03*
G01X1250004Y1451078D03*
G01X1250004Y1251078D03*
G01X1250004Y1051078D03*
G01X1250004Y851078D03*
G01X1250004Y251077D03*
G01X1250004Y-148923D03*
G01X1250004Y-1548923D03*
G01X1250004Y-1948924D03*
G01X1050003Y1651078D03*
G01X1050003Y1251078D03*
G01X1050003Y251077D03*
G01X1050003Y-148923D03*
G01X1050003Y-1548923D03*
G01X1050003Y-1948924D03*
G01X850003Y251077D03*
G01X850003Y-148923D03*
G01X850003Y-1548923D03*
G01X850003Y-1748924D03*
G01X850003Y-1948924D03*
G01X650003Y251077D03*
G01X650003Y-148923D03*
G01X650003Y-1548923D03*
G01X650003Y-1748924D03*
G01X650003Y-1948924D03*
G01X450003Y1451078D03*
G01X450003Y851078D03*
G01X450003Y-1148923D03*
G01X450003Y-1548923D03*
G01X450003Y-1948924D03*
G01X250003Y1851078D03*
G01X250003Y1451078D03*
G01X250003Y1251078D03*
G01X250003Y-1748924D03*
G01X250003Y-1948924D03*
G01X50003Y1651078D03*
G01X50003Y-1948924D03*
G01X-149997Y-1748924D03*
G01X-549997Y1851078D03*
G01X-549997Y1651078D03*
G01X-549997Y1451078D03*
G01X-549997Y1251078D03*
G01X-549997Y-1348923D03*
G01X-749997Y1451078D03*
G01X-949998Y51077D03*
G01X-949998Y-548923D03*
G01X-949998Y-748923D03*
G01X-949998Y-948923D03*
G01X-949998Y-1148923D03*
G01X-949998Y-1348923D03*
G01X-1149998Y251077D03*
G01X-1149998Y51077D03*
G01X-1149998Y-548923D03*
G01X-1149998Y-748923D03*
G01X-1349998Y1851078D03*
G01X-1349998Y1651078D03*
G01X-1349998Y1451078D03*
G01X-1349998Y1051078D03*
G01X-1349998Y251077D03*
G01X-1349998Y-148923D03*
G01X-1349998Y-348923D03*
G01X-1349998Y-548923D03*
G01X-1349998Y-1148923D03*
G01X-1349998Y-1348923D03*
G01X-1549998Y1451078D03*
G01X-1549998Y1051078D03*
G01X-1549998Y851078D03*
G01X-1549998Y251077D03*
G01X-1549998Y-148923D03*
G01X-1549998Y-348923D03*
G01X-1549998Y-548923D03*
G01X-1549998Y-1148923D03*
G01X-1549998Y-1348923D03*
G01X-1749998Y1451078D03*
G01X-1749998Y1251078D03*
G01X-1749998Y1051078D03*
G01X-1749998Y-148923D03*
G01X-1749998Y-348923D03*
G01X-1749998Y-548923D03*
G01X-1749998Y-748923D03*
G01X-1749998Y-1148923D03*
G01X-1949998Y2051078D03*
G01X-1949998Y1451078D03*
G01X-1949998Y1251078D03*
G01X-1949998Y1051078D03*
G01X-1949998Y-148923D03*
G01X-1949998Y-348923D03*
G01X-1949998Y-548923D03*
G01X-1949998Y-748923D03*
G01X-1949998Y-1148923D03*
G01X-1949998Y-1348923D03*
G01X-1949998Y-1548923D03*
G01X-1949998Y-1948924D03*
G01X-769009Y1597080D03*
G01X-1012543Y2061077D03*
G01X-810117Y-2058926D03*
G01X-1010117Y-2058926D03*
G54D14*
G01X540002Y-1438925D03*
G54D12*
G01X-659917Y-1086190D03*
G54D14*
G01X1720002Y-678925D03*
G01X1680002Y-1048925D03*
G54D12*
G01X1520002Y-948925D03*
G01X1690002Y-818925D03*
G01X1880002Y-818925D03*
G01X1840002Y-878925D03*
G01X1170002Y-468925D03*
G01X1345002Y-748925D03*
G01X477338Y440588D03*
G01X1019853Y748362D03*
G01X810135Y1063310D03*
G01X913880Y1818442D03*
G01X-146994Y1771075D03*
G01X1818461Y57617D03*
G01X1918460Y57617D03*
G01X2018461Y57617D03*
G01X2018461Y157575D03*
G01X1918460Y157575D03*
G01X1818461Y157575D03*
G01X1818461Y257534D03*
G01X1918460Y257534D03*
G01X2018461Y257534D03*
G01X2018460Y949530D03*
G01X1918460Y949530D03*
G01X1818460Y949530D03*
G01X1818460Y849572D03*
G01X1918460Y849572D03*
G01X2018460Y849572D03*
G01X2018460Y749613D03*
G01X1918460Y749613D03*
G01X1818460Y749613D03*
G01X-1942236Y58357D03*
G01X-1842236Y58357D03*
G01X-1742236Y58357D03*
G01X-1742236Y158315D03*
G01X-1842236Y158315D03*
G01X-1942236Y158315D03*
G01X-1942236Y258273D03*
G01X-1842236Y258273D03*
G01X-1742236Y258273D03*
G01X-1942452Y948892D03*
G01X-1842452Y948892D03*
G01X-1742452Y948892D03*
G01X-1942452Y848934D03*
G01X-1842452Y848934D03*
G01X-1742452Y848934D03*
G01X-1742452Y748976D03*
G01X-1842452Y748976D03*
G01X-1942452Y748976D03*
G01X-1942452Y649017D03*
G01X-1842452Y649017D03*
G01X-1742452Y649017D03*
G54D15*
G01X-1761739Y-1328925D03*
G54D17*
G01X-362485Y1771078D03*
G54D12*
G01X590002Y1031076D03*
G01X-721739Y1022909D03*
G01X-1019999Y781076D03*
G01X-1192236Y413232D03*
G01X-1292236Y413232D03*
G01X-1342236Y358232D03*
G01X-1338925Y649101D03*
G01X-1288926Y594101D03*
G01X1919885Y-2018926D03*
G01X2009885Y-1958925D03*
G01X2057025Y-1866912D03*
G01X2070002Y-1528925D03*
G01X2070002Y-1628925D03*
G01X2070002Y-1738925D03*
G01X2030002Y1901077D03*
G01X1970002Y1991077D03*
G01X1789885Y-2058926D03*
G01X1689885Y-2058926D03*
G01X1589885Y-2058926D03*
G01X1489884Y-2058926D03*
G01X1389884Y-2058926D03*
G01X1289884Y-2058926D03*
G01X1189884Y-2058926D03*
G01X1089884Y-2058926D03*
G01X989884Y-2058926D03*
G01X889884Y-2058926D03*
G01X789884Y-2058926D03*
G01X689884Y-2058926D03*
G01X589884Y-2058926D03*
G01X489884Y-2058926D03*
G01X389884Y-2058926D03*
G01X289884Y-2058926D03*
G01X189884Y-2058926D03*
G01X89884Y-2058926D03*
G01X-10116Y-2058926D03*
G01X-110116Y-2058926D03*
G01X-210116Y-2058926D03*
G01X-310116Y-2058926D03*
G01X-410117Y-2058926D03*
G01X-510117Y-2058926D03*
G01X-610117Y-2058926D03*
G01X-710117Y-2058926D03*
G01X-910117Y-2058926D03*
G01X-1110117Y-2058926D03*
G01X-1210117Y-2058926D03*
G01X-1310117Y-2058926D03*
G01X-1410117Y-2058926D03*
G01X-1510117Y-2058926D03*
G01X-1610117Y-2058926D03*
G01X-1710117Y-2058926D03*
G01X-1810117Y-2058926D03*
G01X-1910000Y-2038926D03*
G01X-1990000Y-1978925D03*
G01X-2033931Y-1874994D03*
G01X-2050000Y-1781650D03*
G01X-2050000Y-1681650D03*
G01X-2050000Y-1581650D03*
G01X-2050000Y-1481650D03*
G01X-2050000Y-1381650D03*
G01X-2050000Y-1281650D03*
G01X-2050000Y-1181650D03*
G01X-2050000Y-1081650D03*
G01X-2050000Y-981650D03*
G01X-2050000Y-881650D03*
G01X-2050000Y-781650D03*
G01X-2050000Y-681650D03*
G01X-2050000Y-581650D03*
G01X-2050000Y-481650D03*
G01X-2050000Y-381650D03*
G01X-2050000Y-281650D03*
G01X-2050000Y-181650D03*
G01X-2050000Y-81650D03*
G01X-2050000Y18350D03*
G01X-2050000Y118351D03*
G01X-2050000Y218351D03*
G01X-2050000Y718351D03*
G01X-2050000Y818351D03*
G01X-2050000Y918351D03*
G01X-2050000Y1018351D03*
G01X-2050000Y1118351D03*
G01X-2050000Y1218351D03*
G01X-2050000Y1318351D03*
G01X-2050000Y1418351D03*
G01X-2050000Y1518351D03*
G01X-2050000Y1618351D03*
G01X-2050000Y1718351D03*
G01X-2026860Y1854217D03*
G01X-1990000Y1951077D03*
G01X-1920000Y2011077D03*
G01X-1812543Y2061077D03*
G01X-1712543Y2061077D03*
G01X-1612543Y2061077D03*
G01X-1512543Y2061077D03*
G01X-1412543Y2061077D03*
G01X-1312543Y2061077D03*
G01X-1212543Y2061077D03*
G01X-1112543Y2061077D03*
G01X-912543Y2061077D03*
G01X-812543Y2061077D03*
G01X-712543Y2061077D03*
G01X-612543Y2061077D03*
G01X-512543Y2061077D03*
G01X-412543Y2061077D03*
G01X-312543Y2061077D03*
G01X-212543Y2061077D03*
G01X-112543Y2061077D03*
G01X-12543Y2061077D03*
G01X87458Y2061077D03*
G01X187458Y2061077D03*
G01X287458Y2061077D03*
G01X387458Y2061077D03*
G01X487458Y2061077D03*
G01X587458Y2061077D03*
G01X687458Y2061077D03*
G01X787458Y2061077D03*
G01X887458Y2061077D03*
G01X987458Y2061077D03*
G01X1087458Y2061077D03*
G01X1187458Y2061077D03*
G01X1287458Y2061077D03*
G01X1387458Y2061077D03*
G01X1487458Y2061077D03*
G01X1587458Y2061077D03*
G01X1687458Y2061077D03*
G01X1787458Y2061077D03*
G01X1877989Y2038216D03*
G01X2070002Y1771076D03*
G01X2070002Y1671076D03*
G01X2070002Y1571076D03*
G01X2070002Y1471076D03*
G01X2070002Y1371076D03*
G01X2070002Y1271076D03*
G01X2070002Y1171076D03*
G01X2070002Y1071076D03*
G01X2070002Y971076D03*
G01X2070002Y871076D03*
G01X2070002Y771076D03*
G01X2070002Y671076D03*
G01X2070002Y271076D03*
G01X2070002Y171076D03*
G01X2070002Y71076D03*
G01X2070002Y-28925D03*
G01X2070002Y-128925D03*
G01X2070002Y-228925D03*
G01X2070002Y-328925D03*
G01X2070002Y-428925D03*
G01X2070002Y-528925D03*
G01X2070002Y-628925D03*
G01X2070002Y-728925D03*
G01X2070002Y-828925D03*
G01X2070002Y-928925D03*
G01X2070002Y-1028925D03*
G01X2070002Y-1128925D03*
G01X2070002Y-1228925D03*
G01X2070002Y-1328925D03*
G01X2070002Y-1428925D03*
G01X-640000Y1233331D03*
G01X-359999Y-1588925D03*
G01X-89999Y-1118925D03*
G01X-249999Y-1118925D03*
G01X-409999Y-1218925D03*
G01X-449999Y-1658925D03*
G01X1340002Y-528925D03*
G01X605002Y-787703D03*
G01X599999Y-937703D03*
G01X-799999Y-1086190D03*
G01X110001Y-1008925D03*
G01X-69999Y-1008925D03*
G01X-800001Y-937557D03*
G01X-800000Y-210000D03*
G01X-800000Y-360000D03*
G01X-799999Y-488925D03*
G54D17*
G01X740002Y1761076D03*
G54D14*
G01X-1519999Y1331076D03*
G54D12*
G01X1713046Y186810D03*
G01X-1450001Y-630000D03*
G54D14*
G01X-1150340Y-1256587D03*
G54D12*
G01X-343999Y476075D03*
G01X-379999Y531076D03*
G01X-768994Y525773D03*
G01X-592361Y234900D03*
G01X220001Y-948925D03*
G01X270001Y-888925D03*
G01X360002Y-818925D03*
G01X430002Y-758925D03*
G01X-1065997Y-1889921D03*
G01X-892998Y-1636921D03*
G01X-1150340Y-1828587D03*
G01X-1309999Y-1808926D03*
G01X-719999Y-1508925D03*
G01X-359999Y-1408925D03*
G01X240002Y-1588925D03*
G01X-768994Y732024D03*
G01X-915385Y354431D03*
G01X-785379Y354431D03*
G01X-1242236Y358232D03*
G01X-600340Y594414D03*
G01X1318460Y357492D03*
G01X1718460Y649655D03*
G01X1218461Y357492D03*
G01X238966Y193291D03*
G01X281004Y140066D03*
G01X1110002Y881076D03*
G01X797199Y751480D03*
G01X288043Y746254D03*
G01X-231540Y594655D03*
G01X-181540Y649655D03*
G01X-668926Y594101D03*
G01X1169661Y824414D03*
G01X129660Y-155587D03*
G01X229660Y-155587D03*
G01X29660Y-155587D03*
G01X-70340Y-155587D03*
G01X-300340Y-65587D03*
G01X-653183Y217256D03*
G01X-582472Y146546D03*
G01X-370340Y-65587D03*
G01X-441761Y75835D03*
G01X-371051Y5124D03*
G01X1500913Y-95322D03*
G01X1642335Y116100D03*
G01X1571624Y45389D03*
G01X1500913Y-25322D03*
G01X1713046Y116811D03*
G01X1642335Y46100D03*
G01X1571624Y-24611D03*
G01X1373043Y-40321D03*
G01X1423043Y-95322D03*
G01X1123043Y-95322D03*
G01X1223043Y-95322D03*
G01X1323043Y-95322D03*
G01X1073043Y-40321D03*
G01X373043Y-40321D03*
G01X423043Y-95322D03*
G01X473043Y-40321D03*
G01X523043Y-95322D03*
G01X573043Y-40321D03*
G01X623043Y-95322D03*
G01X673043Y-40321D03*
G01X723043Y-95322D03*
G01X773043Y-40321D03*
G01X823043Y-95322D03*
G01X873043Y-40321D03*
G01X923043Y-95322D03*
G01X973043Y-40321D03*
G01X1023043Y-95322D03*
G01X1173043Y-40321D03*
G01X1273043Y-40321D03*
G01X1073042Y141841D03*
G01X1123042Y196841D03*
G01X1173042Y141841D03*
G01X1223043Y196841D03*
G01X1323042Y196841D03*
G01X1273042Y141841D03*
G01X973043Y141841D03*
G01X1268461Y412492D03*
G01X1373042Y141841D03*
G01X1323042Y196841D03*
G01X1273042Y141841D03*
G01X1223043Y196841D03*
G01X1173042Y141841D03*
G01X1123042Y196841D03*
G01X1073042Y141841D03*
G01X1023042Y196841D03*
G01X923042Y196841D03*
G01X873042Y141841D03*
G01X823042Y196841D03*
G01X773042Y141841D03*
G01X723042Y196841D03*
G01X673042Y141841D03*
G01X623042Y196841D03*
G01X573042Y141841D03*
G01X523042Y196841D03*
G01X473042Y141841D03*
G01X423042Y196841D03*
G01X373042Y141841D03*
G01X331004Y195066D03*
G01X122160Y219414D03*
G01X-26958Y141841D03*
G01X-76958Y196841D03*
G01X-477910Y117407D03*
G01X1398954Y209113D03*
G01X1343954Y259113D03*
G01X1398954Y309113D03*
G01X-229233Y409329D03*
G01X-174233Y359328D03*
G01X-229233Y309329D03*
G01X-174233Y259328D03*
G01X-1009763Y1013432D03*
G01X-954763Y963432D03*
G01X-1009763Y913432D03*
G01X218460Y649655D03*
G01X268460Y594655D03*
G01X318460Y649655D03*
G01X-486216Y612283D03*
G01X-938925Y649101D03*
G01X-838925Y649101D03*
G01X-1238925Y649101D03*
G01X-1138925Y649101D03*
G01X-1038925Y649101D03*
G01X-31540Y594655D03*
G01X-81540Y649655D03*
G01X168460Y594655D03*
G01X118460Y649655D03*
G01X18460Y649655D03*
G01X68460Y594655D03*
G01X1118460Y649655D03*
G01X1068460Y594655D03*
G01X1018460Y649655D03*
G01X1418460Y649655D03*
G01X1368460Y594655D03*
G01X1318460Y649655D03*
G01X1268460Y594655D03*
G01X1168460Y594655D03*
G01X1218460Y649655D03*
G01X2068460Y594655D03*
G01X2018460Y649655D03*
G01X1968460Y594655D03*
G01X1918460Y649655D03*
G01X1868460Y594655D03*
G01X1818460Y649655D03*
G01X1768460Y594655D03*
G01X-788926Y594101D03*
G01X-888925Y594101D03*
G01X-988925Y594101D03*
G01X-1088925Y594101D03*
G01X-1188925Y594101D03*
G01X-2092452Y594017D03*
G01X-1792452Y594017D03*
G01X-1892452Y594017D03*
G01X-1992452Y594017D03*
G01X-1642452Y649017D03*
G01X-1742452Y649017D03*
G01X-1842452Y649017D03*
G01X-1942452Y649017D03*
G01X-2042452Y649017D03*
G01X2018461Y357492D03*
G01X1918460Y357492D03*
G01X1818460Y357492D03*
G01X2068460Y412492D03*
G01X1968461Y412492D03*
G01X1868461Y412492D03*
G01X1768461Y412492D03*
G01X1118461Y357492D03*
G01X1018460Y357492D03*
G01X918460Y357492D03*
G01X818460Y357492D03*
G01X718461Y357492D03*
G01X618461Y357492D03*
G01X1168460Y412492D03*
G01X1068460Y412492D03*
G01X968461Y412492D03*
G01X868461Y412492D03*
G01X768460Y412492D03*
G01X568460Y412492D03*
G01X418460Y357492D03*
G01X118461Y357492D03*
G01X18460Y357492D03*
G01X-81540Y357492D03*
G01X68461Y412492D03*
G01X-31539Y412492D03*
G01X518460Y357492D03*
G01X-642236Y358232D03*
G01X-592236Y413232D03*
G01X-1442236Y358232D03*
G01X-1542236Y358232D03*
G01X-1642236Y358232D03*
G01X-1742236Y358232D03*
G01X-1842236Y358232D03*
G01X-1942236Y358232D03*
G01X-2042236Y358232D03*
G01X-1392236Y413232D03*
G01X-1492236Y413232D03*
G01X-1592236Y413232D03*
G01X-1692236Y413232D03*
G01X-1792236Y413232D03*
G01X-1892236Y413232D03*
G01X-1992236Y413232D03*
G01X-2092236Y413232D03*
G01X-236720Y-526286D03*
G01X-236720Y-411986D03*
G01X283980Y-465326D03*
G01X-1299999Y1131076D03*
G01X-1089999Y1271076D03*
G01X-1080340Y1274414D03*
G01X276360Y-307846D03*
G01X259441Y1317954D03*
G01X591320Y454154D03*
G01X543060Y471934D03*
G01X543060Y525274D03*
G01X591320Y506647D03*
G01X543060Y526120D03*
G01X591320Y559140D03*
G01X543060Y580307D03*
G01X591320Y611634D03*
G01X543060Y634494D03*
G01X144095Y302507D03*
G01X1567617Y470554D03*
G01X1512776Y536923D03*
G01X720002Y691076D03*
G01X440002Y1221076D03*
G01X-543485Y951447D03*
G01X-767580Y1193294D03*
G01X-895202Y1192726D03*
G01X349335Y297820D03*
G01X-249999Y761076D03*
G01X-74160Y-617726D03*
G54D18*
G01X1051060Y-605026D03*
G01X463434Y-601351D03*
G54D12*
G01X-1104539Y-275007D03*
G01X1650002Y761076D03*
G54D18*
G01X1110002Y1811077D03*
G01X40001Y1801077D03*
G54D12*
G01X-650000Y-490000D03*
G01X-389999Y-1048925D03*
G01X1Y951076D03*
G01X1520002Y1111076D03*
G01X-241800Y-615186D03*
G01X370002Y1761076D03*
G01X-667998Y1602072D03*
G01X-675998Y1834072D03*
G01X-769999Y1831077D03*
G54D17*
G01X-999999Y1951077D03*
G54D14*
G01X-1469999Y731076D03*
G54D12*
G01X22360Y-665986D03*
G01X-89999Y-848925D03*
G01X-154899Y-863324D03*
G01X-126120Y-956926D03*
G01X151500Y-273706D03*
G01X-118500Y-363706D03*
G01X151500Y-453706D03*
G01X-118500Y-543707D03*
G01X-28500Y-543707D03*
G01X61500Y-543707D03*
G01X151500Y-543707D03*
G01X61500Y-453706D03*
G01X-28500Y-453706D03*
G01X-118500Y-453706D03*
G01X-28500Y-363706D03*
G01X61500Y-273706D03*
G01X-28500Y-273706D03*
G01X-118500Y-273706D03*
G01X151500Y-363706D03*
G01X61500Y-363706D03*
G01X1138445Y-1738586D03*
G01X1140002Y-1348925D03*
G01X-19999Y-968925D03*
G01X180001Y-1348925D03*
G01X940680Y-160407D03*
G01X780002Y-388925D03*
G01X1154040Y-339706D03*
G01X950840Y-656089D03*
G01X751603Y-601326D03*
G01X740002Y-488925D03*
G01X600002Y-468925D03*
G01X70001Y-1118925D03*
G01X-169999Y-1108925D03*
G01X-470000Y-340000D03*
G01X-250000Y-300000D03*
G01X-230000Y-240000D03*
G01X-1386501Y-739999D03*
G01X-1270001Y-850000D03*
G01X-1500001Y-780000D03*
G01X-1660001Y-790000D03*
G01X160000Y-1110001D03*
G01X170000Y-880000D03*
G01X-770000Y-710000D03*
G01X-820000Y-790000D03*
G01X-664999Y-357557D03*
G04 Via End*

G04 Track Start*
G54D19*
G01X-309999Y901076D02*
G01X250002Y901076D01*
G01X-489999Y721076D02*
G01X-309999Y901076D01*
G54D20*
G01X590002Y1031076D02*
G01X581931Y1039147D01*
G01X-579812D01*
G01X-596050Y1022909D02*
G01X-579812Y1039147D01*
G01X-721739Y1022909D02*
G01X-596050Y1022909D01*
G54D19*
G01X-230000Y-240000D02*
G01X-230000Y-256077D01*
G01X-204800Y-281278D01*
G01Y-318723D01*
G01X-231278Y-345200D01*
G01X-250000Y-300000D02*
G01X-265000Y-315000D01*
G54D21*
G01X160000Y-1110001D02*
G01X110000Y-1060001D01*
G01X-250000Y-1060001D02*
G01X-520000Y-790000D01*
G01X-820000D01*
G01X110000Y-1060001D02*
G01X-250000Y-1060001D01*
G01X67236Y-777236D02*
G01X170000Y-880000D01*
G54D19*
G01X-691076Y-594999D02*
G01X-1314999Y-594999D01*
G01X-1500001Y-780000D01*
G01X-1265225Y-625225D02*
G01X-1370001Y-730000D01*
G01X-470000Y-340000D02*
G01X-470000Y-373923D01*
G01X-691076Y-594999D01*
G01X-265000Y-315000D02*
G01X-368312Y-315000D01*
G01X-678536Y-625225D01*
G01X-1265225D01*
G01X-231278Y-345200D02*
G01X-335200Y-345200D01*
G01X-650000Y-660000D01*
G01X-1140001Y-660000D02*
G01X-1270001Y-790000D01*
G01Y-850000D01*
G01X-1140001Y-660000D02*
G01X-650000Y-660000D01*
G54D21*
G01X-770000Y-710000D02*
G01X-450000Y-710000D01*
G01X-82765Y-777236D02*
G01X67236Y-777236D01*
G01X-150000Y-710000D02*
G01X-82765Y-777236D01*
G01X-274001Y-710000D02*
G01X-150000Y-710000D01*
G01X-450000Y-710000D02*
G01X-403002Y-756998D01*
G01X-320999D01*
G01X-274001Y-710000D01*
G04 Track End*

M02*
