G04 Layer: TopPasteMaskLayer*
G04 EasyEDA Pro v2.1.64.d1969c9c.217bcf, 2024-08-30 02:53:31*
G04 Gerber Generator version 0.3*
G04 Scale: 100 percent, Rotated: No, Reflected: No*
G04 Dimensions in millimeters*
G04 Leading zeros omitted, absolute positions, 3 integers and 5 decimals*
%FSLAX35Y35*%
%MOMM*%
%ADD10R,1.0X2.99999*%
%ADD11R,3.19999X1.0*%
%ADD12R,0.9X0.8*%
%ADD13R,0.8X0.8*%
%ADD14R,0.55001X1.2*%
%ADD15R,0.342X1.2*%
%ADD16R,0.25001X0.521*%
%ADD17R,0.342X0.521*%
%ADD18R,1.6X0.9*%
%ADD19R,0.6047X1.1*%
%ADD20R,0.6X1.1*%
%ADD21R,0.342X1.1*%
%ADD22R,0.6X0.7*%
%ADD23R,1.0X1.0*%
%ADD24R,0.508X0.3*%
%ADD25R,0.508X0.342*%
%ADD26R,0.342X0.508*%
%ADD27R,0.3X0.508*%
%ADD28R,0.67X0.3*%
%ADD29R,0.67X0.342*%
%ADD30R,0.8X1.6*%
%ADD31R,0.85X0.3*%
G75*


G04 PolygonModel Start*
G36*
G01X-848505Y923562D02*
G01X-879505Y923562D01*
G01Y895498D01*
G01X-848505D01*
G01Y923562D01*
G37*
G36*
G01X-848505Y994563D02*
G01X-879505Y994563D01*
G01Y1053627D01*
G01X-848505D01*
G01Y994563D01*
G37*
G36*
G01X448493Y313118D02*
G01X448493Y282119D01*
G01X476557D01*
G01Y313118D01*
G01X448493D01*
G37*
G36*
G01X377492Y313118D02*
G01X377492Y282119D01*
G01X318428D01*
G01Y313118D01*
G01X377492D01*
G37*
G36*
G01X372620Y792253D02*
G01X403620Y792253D01*
G01Y820318D01*
G01X372620D01*
G01Y792253D01*
G37*
G36*
G01X372620Y721253D02*
G01X403620Y721253D01*
G01Y662189D01*
G01X372620D01*
G01Y721253D01*
G37*
G36*
G01X143660Y282119D02*
G01X143660Y313118D01*
G01X115596D01*
G01Y282119D01*
G01X143660D01*
G37*
G36*
G01X214661Y282119D02*
G01X214661Y313118D01*
G01X273725D01*
G01Y282119D01*
G01X214661D01*
G37*
G36*
G01X-34840Y518414D02*
G01X-65840Y518414D01*
G01Y490349D01*
G01X-34840D01*
G01Y518414D01*
G37*
G36*
G01X-34840Y589415D02*
G01X-65840Y589415D01*
G01Y648478D01*
G01X-34840D01*
G01Y589415D01*
G37*
G36*
G01X983628Y487667D02*
G01X983628Y518667D01*
G01X955563D01*
G01Y487667D01*
G01X983628D01*
G37*
G36*
G01X1054628Y487667D02*
G01X1054628Y518667D01*
G01X1113692D01*
G01Y487667D01*
G01X1054628D01*
G37*
G36*
G01X-928299Y1368000D02*
G01X-928299Y1414000D01*
G01X-932299Y1418000D01*
G01X-982363D01*
G01X-986363Y1414000D01*
G01Y1368000D01*
G01X-982363Y1364000D01*
G01X-932299D01*
G01X-928299Y1368000D01*
G37*
G36*
G01X-901299Y1368000D02*
G01X-901299Y1414000D01*
G01X-897298Y1418000D01*
G01X-847235D01*
G01X-843234Y1414000D01*
G01Y1368000D01*
G01X-847235Y1364000D01*
G01X-897298D01*
G01X-901299Y1368000D01*
G37*
G36*
G01X930038Y755712D02*
G01X899279Y755712D01*
G01Y705267D01*
G01X930038D01*
G01Y755712D01*
G37*
G36*
G01X930038Y806842D02*
G01X899279Y806842D01*
G01Y836966D01*
G01X930038D01*
G01Y806842D01*
G37*
G36*
G01X812698Y650948D02*
G01X781699Y650948D01*
G01Y622883D01*
G01X812698D01*
G01Y650948D01*
G37*
G36*
G01X812698Y721949D02*
G01X781699Y721949D01*
G01Y781012D01*
G01X812698D01*
G01Y721949D01*
G37*
G36*
G01X-1174500Y1290000D02*
G01X-1205499Y1290000D01*
G01Y1261936D01*
G01X-1174500D01*
G01Y1290000D01*
G37*
G36*
G01X-1174500Y1361001D02*
G01X-1205499Y1361001D01*
G01Y1420064D01*
G01X-1174500D01*
G01Y1361001D01*
G37*
G36*
G01X-1068676Y1290000D02*
G01X-1099675Y1290000D01*
G01Y1261936D01*
G01X-1068676D01*
G01Y1290000D01*
G37*
G36*
G01X-1068676Y1361001D02*
G01X-1099675Y1361001D01*
G01Y1420064D01*
G01X-1068676D01*
G01Y1361001D01*
G37*
G36*
G01X265052Y433236D02*
G01X234292Y433236D01*
G01Y382792D01*
G01X265052D01*
G01Y433236D01*
G37*
G36*
G01X265052Y484366D02*
G01X234292Y484366D01*
G01Y514491D01*
G01X265052D01*
G01Y484366D01*
G37*
G36*
G01X322801Y466793D02*
G01X368801Y466793D01*
G01X372801Y470793D01*
G01Y520857D01*
G01X368801Y524857D01*
G01X322801D01*
G01X318801Y520857D01*
G01Y470793D01*
G01X322801Y466793D01*
G37*
G36*
G01X322801Y439793D02*
G01X368801Y439793D01*
G01X372801Y435792D01*
G01Y385729D01*
G01X368801Y381728D01*
G01X322801D01*
G01X318801Y385729D01*
G01Y435792D01*
G01X322801Y439793D01*
G37*
G36*
G01X1195058Y480167D02*
G01X1195058Y526167D01*
G01X1191057Y530167D01*
G01X1140994D01*
G01X1136993Y526167D01*
G01Y480167D01*
G01X1140994Y476167D01*
G01X1191057D01*
G01X1195058Y480167D01*
G37*
G36*
G01X1222058Y480167D02*
G01X1222058Y526167D01*
G01X1226059Y530167D01*
G01X1276122D01*
G01X1280122Y526167D01*
G01Y480167D01*
G01X1276122Y476167D01*
G01X1226059D01*
G01X1222058Y480167D01*
G37*
G36*
G01X1055000Y1541575D02*
G01X1055000Y1621574D01*
G01X1049999Y1626576D01*
G01X1027203D01*
G01Y1589575D01*
G01X994203D01*
G01Y1626576D01*
G01X969999D01*
G01X965001Y1621574D01*
G01Y1541575D01*
G01X969999Y1536576D01*
G01X1049999D01*
G01X1055000Y1541575D01*
G37*
G36*
G01X965003Y1780578D02*
G01X965003Y1700579D01*
G01X970004Y1695577D01*
G01X992801D01*
G01Y1732577D01*
G01X1025801D01*
G01Y1695577D01*
G01X1050004D01*
G01X1055003Y1700579D01*
G01Y1780578D01*
G01X1050004Y1785577D01*
G01X970004D01*
G01X965003Y1780578D01*
G37*
G36*
G01X-848499Y1445032D02*
G01X-879499Y1445032D01*
G01Y1416968D01*
G01X-848499D01*
G01Y1445032D01*
G37*
G36*
G01X-848499Y1516033D02*
G01X-879499Y1516033D01*
G01Y1575097D01*
G01X-848499D01*
G01Y1516033D01*
G37*
G36*
G01X53284Y487667D02*
G01X53284Y518667D01*
G01X25219D01*
G01Y487667D01*
G01X53284D01*
G37*
G36*
G01X124285Y487667D02*
G01X124285Y518667D01*
G01X183348D01*
G01Y487667D01*
G01X124285D01*
G37*
G36*
G01X1156002Y836576D02*
G01X1156002Y805576D01*
G01X1184066D01*
G01Y836576D01*
G01X1156002D01*
G37*
G36*
G01X1085001Y836576D02*
G01X1085001Y805576D01*
G01X1025937D01*
G01Y836576D01*
G01X1085001D01*
G37*
G36*
G01X-1333477Y487752D02*
G01X-1333477Y518752D01*
G01X-1361542D01*
G01Y487752D01*
G01X-1333477D01*
G37*
G36*
G01X-1262477Y487752D02*
G01X-1262477Y518752D01*
G01X-1203413D01*
G01Y487752D01*
G01X-1262477D01*
G37*
G36*
G01X-1487900Y548080D02*
G01X-1460250Y548080D01*
G01X-1430874Y520661D01*
G01Y470333D01*
G01X-1437275Y463933D01*
G01X-1510874D01*
G01X-1517275Y470333D01*
G01Y520661D01*
G01X-1487900Y548080D01*
G37*
G36*
G01X-1489025Y599645D02*
G01X-1461375Y599645D01*
G01X-1432000Y627064D01*
G01Y677392D01*
G01X-1438400Y683792D01*
G01X-1512000D01*
G01X-1518400Y677392D01*
G01Y627064D01*
G01X-1489025Y599645D01*
G37*
G36*
G01X-439996Y305576D02*
G01X-439996Y222577D01*
G01X-399996D01*
G01Y305576D01*
G01X-439996D01*
G37*
G36*
G01X-402798Y46575D02*
G01X-402798Y119575D01*
G01X-435798D01*
G01Y46575D01*
G01X-402798D01*
G37*
G36*
G01X1605945Y42575D02*
G01X1605945Y122575D01*
G01X1570946D01*
G01Y42575D01*
G01X1605945D01*
G37*
G36*
G01X1571747Y304576D02*
G01X1571747Y223577D01*
G01X1604747D01*
G01Y304576D01*
G01X1571747D01*
G37*
G36*
G01X894240Y584574D02*
G01X922840Y584574D01*
G01Y621938D01*
G01X894240D01*
G01Y584574D01*
G37*
G36*
G01X894240Y484892D02*
G01X922840Y484892D01*
G01Y522255D01*
G01X894240D01*
G01Y484892D01*
G37*
G04 PolygonModel End*

G04 Pad Start*
G54D10*
G01X627441Y1317954D03*
G01X373441Y1767941D03*
G01X119441Y1317954D03*
G54D11*
G01X1138445Y-1738586D03*
G01X458436Y-1738586D03*
G01X1138445Y-1338587D03*
G01X458436Y-1338587D03*
G01X1138445Y-963886D03*
G01X458436Y-963886D03*
G01X1138445Y-563887D03*
G01X458436Y-563887D03*
G54D12*
G01X-1330340Y1274417D03*
G01X-1330340Y1134412D03*
G01X-1189999Y1831079D03*
G01X-1189999Y1691074D03*
G01X-1042572Y1831841D03*
G01X-1042572Y1691837D03*
G54D13*
G01X-1633943Y-676261D03*
G01X-1474050Y-675575D03*
G01X-899946Y-1519263D03*
G01X-740053Y-1518577D03*
G01X-444946Y-1519263D03*
G01X-285053Y-1518577D03*
G01X10055Y-1519263D03*
G01X169948Y-1518577D03*
G54D14*
G01X-864005Y1837084D03*
G01X-674013Y1837084D03*
G01X-674013Y1597080D03*
G01X-769009Y1597080D03*
G54D15*
G01X-864005Y1597080D03*
G54D14*
G01X-769009Y1837084D03*
G54D16*
G01X-914011Y1097730D03*
G54D17*
G01X-863999Y1097730D03*
G54D16*
G01X-814012Y1097730D03*
G01X-763999Y1097730D03*
G01X-763999Y1287722D03*
G01X-814012Y1287722D03*
G54D17*
G01X-863999Y1287722D03*
G54D16*
G01X-914011Y1287722D03*
G54D18*
G01X-839005Y1192726D03*
G54D20*
G01X-674006Y783286D03*
G01X-769002Y783286D03*
G54D21*
G01X-863998Y783286D03*
G54D22*
G01X-863998Y521474D03*
G01X-768994Y521474D03*
G01X-674006Y521474D03*
G54D23*
G01X-369986Y503574D03*
G54D24*
G01X-267094Y553561D03*
G54D25*
G01X-267094Y503574D03*
G54D24*
G01X-267094Y453586D03*
G54D26*
G01X-319999Y400682D03*
G54D27*
G01X-369986Y400682D03*
G54D26*
G01X-419973Y400682D03*
G54D24*
G01X-472878Y453586D03*
G54D25*
G01X-472878Y503574D03*
G54D24*
G01X-472878Y553561D03*
G54D27*
G01X-419973Y606465D03*
G01X-369986Y606465D03*
G01X-319999Y606465D03*
G54D28*
G01X669887Y453561D03*
G54D29*
G01X669887Y503574D03*
G54D28*
G01X669887Y553561D03*
G01X669887Y603573D03*
G01X469888Y603573D03*
G01X469888Y553561D03*
G54D29*
G01X469888Y503574D03*
G54D28*
G01X469888Y453561D03*
G54D30*
G01X569888Y528567D03*
G54D23*
G01X1538961Y503574D03*
G54D24*
G01X1641852Y553561D03*
G54D25*
G01X1641852Y503574D03*
G54D24*
G01X1641852Y453586D03*
G54D26*
G01X1588948Y400682D03*
G54D27*
G01X1538961Y400682D03*
G54D26*
G01X1488974Y400682D03*
G54D24*
G01X1436069Y453586D03*
G54D25*
G01X1436069Y503574D03*
G54D24*
G01X1436069Y553561D03*
G54D27*
G01X1488974Y606465D03*
G01X1538961Y606465D03*
G01X1588948Y606465D03*
G54D31*
G01X1606502Y-1133924D03*
G01X1606502Y-983925D03*
G01X1606502Y-933925D03*
G01X1606502Y-883925D03*
G01X1606502Y-833925D03*
G01X1606502Y-783925D03*
G01X1606502Y-733925D03*
G01X1606502Y-583925D03*
G01X1773502Y-583925D03*
G01X1773502Y-733925D03*
G01X1773502Y-783925D03*
G01X1773502Y-833925D03*
G01X1773502Y-883925D03*
G01X1773502Y-933925D03*
G01X1773502Y-983925D03*
G01X1773502Y-1133924D03*
G04 Pad End*

M02*
