G04 Layer: BottomLayer*
G04 EasyEDA Pro v2.2.27.1, 2024-09-01 06:15:27*
G04 Gerber Generator version 0.3*
G04 Scale: 100 percent, Rotated: No, Reflected: No*
G04 Dimensions in millimeters*
G04 Leading zeros omitted, absolute positions, 3 integers and 5 decimals*
%FSLAX35Y35*%
%MOMM*%
%AMRoundRect*1,1,$1,$2,$3*1,1,$1,$4,$5*1,1,$1,0-$2,0-$3*1,1,$1,0-$4,0-$5*20,1,$1,$2,$3,$4,$5,0*20,1,$1,$4,$5,0-$2,0-$3,0*20,1,$1,0-$2,0-$3,0-$4,0-$5,0*20,1,$1,0-$4,0-$5,$2,$3,0*4,1,4,$2,$3,$4,$5,0-$2,0-$3,0-$4,0-$5,$2,$3,0*%
%ADD10C,0.2032*%
%ADD11R,1.13254X1.37701*%
%ADD12R,0.86401X0.80648*%
%ADD13R,1.37701X1.13254*%
%ADD14C,5.2*%
%ADD15R,0.8X0.9*%
%ADD16R,0.9093X0.8*%
%ADD17R,0.9X0.8*%
%ADD18R,0.80648X0.86401*%
%ADD19R,0.806X0.86401*%
%ADD20R,0.80648X0.86401*%
%ADD21R,0.806X0.86401*%
%ADD22R,0.86401X0.806*%
%ADD23RoundRect,0.1X0.05X0.3875X0.05X-0.3875*%
%ADD24RoundRect,0.1X0.3875X0.05X0.3875X-0.05*%
%ADD25RoundRect,0.288X1.456X1.456X1.456X-1.456*%
%ADD26RoundRect,0.3X0.15X0.65X0.15X-0.65*%
%ADD27R,1.2X1.4*%
%ADD28R,0.51999X0.7*%
%ADD29R,1.05001X0.7*%
%ADD30C,1.1*%
%ADD31R,0.51999X0.7*%
%ADD32R,1.05001X0.7*%
%ADD33O,0.41999X1.035*%
%ADD34R,2.99999X2.2*%
%ADD35R,0.86401X0.80648*%
%ADD36R,0.86401X0.806*%
%ADD37R,2.05999X2.07*%
%ADD38C,0.45*%
%ADD39C,0.6*%
%ADD40C,0.8*%
%ADD41C,0.65*%
%ADD42C,0.50002*%
%ADD43C,0.4*%
%ADD44C,0.15*%
%ADD45C,0.254*%
%ADD46C,0.2*%
G75*


G04 Copper Start*
G36*
G01X-4059675Y1340840D02*
G02X-3820889Y1579626I238786J0D01*
G01X-120889Y1579626D01*
G02X117897Y1340840I0J-238786D01*
G01X117897Y-2359160D01*
G02X-120889Y-2597946I-238786J0D01*
G01X-3820889Y-2597946D01*
G02X-4059675Y-2359160I0J238786D01*
G01X-4059675Y1340840D01*
G37*
%LPC*%
G36*
G01X-3300107Y-674058D02*
G03X-3269480Y-686745I30628J30628D01*
G01X-2716360Y-686745D01*
G01X-2716360Y-756131D01*
G03X-2700107Y-786131I35814J0D01*
G03X-2716360Y-816131I19561J-30000D01*
G01X-2716360Y-906131D01*
G03X-2700107Y-936131I35814J0D01*
G03X-2716360Y-966131I19561J-30000D01*
G01X-2716360Y-1031701D01*
G03X-2751349Y-1044359I1307J-58299D01*
G01X-2819438Y-1044359D01*
G01X-2874425Y-989373D01*
G03X-2905053Y-976687I-30628J-30628D01*
G01X-3291691Y-976687D01*
G03X-3322318Y-989373I0J-43314D01*
G01X-3463230Y-1130285D01*
G03X-3479050Y-1127759I-15820J-48289D01*
G01X-3509050Y-1127759D01*
G03X-3557550Y-1163413I0J-50814D01*
G03X-3606050Y-1127759I-48500J-15160D01*
G01X-3636050Y-1127759D01*
G03X-3665980Y-1137509I0J-50814D01*
G03X-3694622Y-1126687I-28643J-32492D01*
G01X-3796009Y-1126687D01*
G03X-3893367Y-1170001I-39044J-43314D01*
G03X-3796009Y-1213315I58314J0D01*
G01X-3712563Y-1213315D01*
G01X-3686864Y-1239014D01*
G01X-3686864Y-1308573D01*
G03X-3636050Y-1359387I50814J0D01*
G01X-3606050Y-1359387D01*
G03X-3557550Y-1323733I0J50814D01*
G03X-3509050Y-1359387I48500J15160D01*
G01X-3479050Y-1359387D01*
G03X-3430550Y-1323733I0J50814D01*
G03X-3382050Y-1359387I48500J15160D01*
G01X-3352050Y-1359387D01*
G03X-3303550Y-1323733I0J50814D01*
G03X-3255050Y-1359387I48500J15160D01*
G01X-3225050Y-1359387D01*
G03X-3174236Y-1308573I0J50814D01*
G01X-3174236Y-1239014D01*
G01X-3158537Y-1223315D01*
G01X-2994096Y-1223315D01*
G03X-2917222Y-1224379I39044J43314D01*
G03X-2906104Y-1148305I-37830J44378D01*
G03X-2875687Y-1140381I1052J58305D01*
G01X-2875687Y-1196774D01*
G03X-2863631Y-1223574I35814J0D01*
G03X-2875687Y-1250374I23757J-26800D01*
G01X-2875687Y-1336774D01*
G03X-2839873Y-1372588I35814J0D01*
G01X-2759226Y-1372588D01*
G03X-2723412Y-1336774I0J35814D01*
G01X-2723412Y-1265188D01*
G03X-2692236Y-1213574I-27138J51614D01*
G03X-2723412Y-1161959I-58314J0D01*
G01X-2723412Y-1147712D01*
G03X-2693664Y-1144251I8359J57712D01*
G01X-2693664Y-1196774D01*
G03X-2681607Y-1223574I35814J0D01*
G03X-2693664Y-1250374I23757J-26800D01*
G01X-2693664Y-1336774D01*
G03X-2684633Y-1360551I35814J0D01*
G03X-2716360Y-1396131I4087J-35580D01*
G01X-2716360Y-1486131D01*
G03X-2701116Y-1515448I35814J0D01*
G03X-2716358Y-1544763I20573J-29315D01*
G01X-2716358Y-1634763D01*
G03X-2680544Y-1670577I35814J0D01*
G01X-2600544Y-1670577D01*
G03X-2564730Y-1634763I0J35814D01*
G01X-2564730Y-1632967D01*
G03X-2537185Y-1620391I-3083J43204D01*
G01X-2456362Y-1539567D01*
G01X-2456362Y-1582496D01*
G03X-2420548Y-1618310I35814J0D01*
G01X-2330548Y-1618310D01*
G03X-2300548Y-1602057I0J35814D01*
G03X-2270548Y-1618310I30000J19561D01*
G01X-2208572Y-1618310D01*
G03X-2150548Y-1670813I58024J5812D01*
G03X-2092524Y-1618310I0J58314D01*
G01X-2048366Y-1618310D01*
G01X-2048366Y-1790001D01*
G03X-2035680Y-1820629I43314J0D01*
G01X-1985680Y-1870629D01*
G03X-1955052Y-1883315I30628J30628D01*
G01X-1564096Y-1883315D01*
G03X-1508153Y-1895813I39044J43314D01*
G01X-1486936Y-1895813D01*
G03X-1492004Y-1983532I46388J-46686D01*
G03X-1405357Y-1998114I51456J41033D01*
G01X-1369839Y-1998114D01*
G03X-1357349Y-1995866I0J35814D01*
G03X-1344859Y-1998114I12490J33566D01*
G01X-1239858Y-1998114D01*
G03X-1205716Y-1973114I0J35814D01*
G01X-675349Y-1973114D01*
G03X-642954Y-1959696I0J45814D01*
G01X-301562Y-1618305D01*
G03X-254010Y-1505961I1015J65806D01*
G03X-366353Y-1553514I-46537J-46537D01*
G01X-694326Y-1881486D01*
G01X-789948Y-1881486D01*
G03X-814098Y-1800528I-50599J28988D01*
G01X-772762Y-1800528D01*
G03X-740367Y-1787109I0J45814D01*
G01X-463970Y-1510712D01*
G03X-419313Y-1493733I3423J58214D01*
G03X-402334Y-1449076I-41234J41234D01*
G01X-381570Y-1428312D01*
G01X-176625Y-1428312D01*
G03X-113043Y-1433919I36078J45814D01*
G03X-82413Y-1377921I-27503J51421D01*
G03X-49140Y-1294970I-18134J55423D01*
G03X-136625Y-1276685I-51407J-27529D01*
G01X-254469Y-1276685D01*
G03X-326625Y-1276685I-36078J-45814D01*
G01X-400547Y-1276685D01*
G03X-432942Y-1290103I0J-45814D01*
G01X-671739Y-1528900D01*
G01X-1710433Y-1528900D01*
G01X-1734607Y-1504725D01*
G03X-1710394Y-1482249I-25941J52227D01*
G03X-1702278Y-1450223I-50154J29750D01*
G03X-1658015Y-1367183I-8270J57725D01*
G03X-1594594Y-1374719I37467J44685D01*
G03X-1562305Y-1319615I-25954J52220D01*
G03X-1499945Y-1291479I11757J57117D01*
G03X-1507234Y-1223454I-50603J28980D01*
G01X-1507234Y-1172520D01*
G03X-1456364Y-1136167I-9881J67596D01*
G01X-1456364Y-1186276D01*
G03X-1420550Y-1222090I35814J0D01*
G01X-1340550Y-1222090D01*
G03X-1304736Y-1186276I0J35814D01*
G01X-1304736Y-1096276D01*
G03X-1320989Y-1066276I-35814J0D01*
G03X-1304736Y-1036276I-19561J30000D01*
G01X-1304736Y-946276D01*
G03X-1333514Y-911160I-35814J0D01*
G03X-1327435Y-891199I-29735J19962D01*
G01X-1327435Y-804798D01*
G03X-1331040Y-789139I-35814J0D01*
G01X-1320575Y-799604D01*
G03X-1297687Y-811593I30628J30628D01*
G01X-1297687Y-891199D01*
G03X-1261873Y-927013I35814J0D01*
G01X-1181226Y-927013D01*
G03X-1166523Y-923855I0J35814D01*
G01X-1058366Y-1032013D01*
G01X-1058366Y-1064207D01*
G03X-1045679Y-1094835I43314J0D01*
G01X-931329Y-1209184D01*
G01X-1000547Y-1209184D01*
G03X-1031175Y-1221871I0J-43314D01*
G01X-1059731Y-1250427D01*
G01X-1164731Y-1250427D01*
G01X-1164731Y-1248741D01*
G03X-1200545Y-1212927I-35814J0D01*
G01X-1280545Y-1212927D01*
G03X-1316359Y-1248741I0J-35814D01*
G01X-1316359Y-1338741D01*
G03X-1280545Y-1374555I35814J0D01*
G01X-1200545Y-1374555D01*
G03X-1164731Y-1338741I0J35814D01*
G01X-1164731Y-1337055D01*
G01X-1041790Y-1337055D01*
G03X-1011163Y-1324369I0J43314D01*
G01X-982606Y-1295812D01*
G01X-901361Y-1295812D01*
G01X-901361Y-1322498D01*
G03X-865547Y-1358312I35814J0D01*
G01X-745547Y-1358312D01*
G03X-709733Y-1322498I0J35814D01*
G01X-709733Y-1182498D01*
G03X-745547Y-1146684I-35814J0D01*
G01X-865547Y-1146684D01*
G03X-870914Y-1147089I0J-35814D01*
G01X-896118Y-1121885D01*
G03X-868537Y-1021623I-28933J61884D01*
G03X-971903Y-1010284I-56515J-38378D01*
G03X-984424Y-983444I-43148J-3787D01*
G01X-1145412Y-822456D01*
G01X-1145412Y-812290D01*
G01X-926259Y-812290D01*
G03X-892901Y-892785I52488J-25408D01*
G03X-816833Y-850289I19129J55087D01*
G01X-725000Y-942122D01*
G03X-731361Y-962499I29452J-20377D01*
G01X-731361Y-1102498D01*
G03X-695547Y-1138312I35814J0D01*
G01X-575547Y-1138312D01*
G03X-539733Y-1102498I0J35814D01*
G01X-539733Y-962499D01*
G03X-575547Y-926685I-35814J0D01*
G01X-617927Y-926685D01*
G01X-806263Y-738348D01*
G03X-829084Y-726371I-30628J-30628D01*
G03X-863960Y-621760I-35452J46300D01*
G03X-900896Y-725662I-576J-58311D01*
G01X-1272006Y-725662D01*
G01X-1304736Y-692932D01*
G01X-1304736Y-656276D01*
G03X-1340550Y-620462I-35814J0D01*
G01X-1420550Y-620462D01*
G03X-1456364Y-656276I0J-35814D01*
G01X-1456364Y-715835D01*
G01X-1549075Y-808546D01*
G01X-1556205Y-808546D01*
G03X-1541116Y-776860I-25725J31686D01*
G01X-1541116Y-766860D01*
G03X-1543972Y-751860I-40814J0D01*
G03X-1541116Y-736860I-37958J15000D01*
G01X-1541116Y-726860D01*
G03X-1543972Y-711860I-40814J0D01*
G03X-1541116Y-696860I-37958J15000D01*
G01X-1541116Y-686860D01*
G03X-1543972Y-671860I-40814J0D01*
G03X-1541116Y-656861I-37958J15000D01*
G01X-1541116Y-646861D01*
G03X-1581930Y-606047I-40814J0D01*
G01X-1658616Y-606047D01*
G01X-1658616Y-529361D01*
G03X-1699430Y-488547I-40814J0D01*
G01X-1709430Y-488547D01*
G03X-1724430Y-491403I0J-40814D01*
G03X-1739430Y-488547I-15000J-37958D01*
G01X-1749430Y-488547D01*
G03X-1764430Y-491403I0J-40814D01*
G03X-1779430Y-488547I-15000J-37958D01*
G01X-1789429Y-488547D01*
G03X-1804429Y-491403I0J-40814D01*
G03X-1819429Y-488547I-15000J-37958D01*
G01X-1819555Y-440447D01*
G03X-1784555Y-404642I-814J35805D01*
G01X-1784555Y-324642D01*
G03X-1820369Y-288828I-35814J0D01*
G01X-1881801Y-288828D01*
G01X-1950647Y-219983D01*
G03X-1983042Y-206564I-32395J-32395D01*
G01X-2070611Y-206564D01*
G03X-2103007Y-219983I0J-45814D01*
G01X-2170272Y-287249D01*
G03X-2178509Y-286288I-8237J-34854D01*
G01X-2268509Y-286288D01*
G03X-2288889Y-292652I0J-35814D01*
G01X-2483021Y-292652D01*
G01X-2515172Y-260501D01*
G03X-2608657Y-222600I-57739J-8172D01*
G03X-2595172Y-322571I35747J-46073D01*
G03X-2603130Y-324559I10119J-57429D01*
G01X-2663877Y-324559D01*
G03X-2683430Y-330368I0J-35814D01*
G01X-2714425Y-299372D01*
G03X-2745052Y-286686I-30628J-30628D01*
G01X-3433791Y-286686D01*
G03X-3464419Y-299372I0J-43314D01*
G01X-3579995Y-414949D01*
G03X-3606050Y-407761I-26054J-43626D01*
G01X-3636050Y-407761D01*
G03X-3686864Y-458575I0J-50814D01*
G01X-3686864Y-588574D01*
G03X-3636050Y-639388I50814J0D01*
G01X-3606050Y-639388D01*
G03X-3557550Y-603734I0J50814D01*
G03X-3509050Y-639388I48500J15160D01*
G01X-3479050Y-639388D01*
G03X-3430550Y-603734I0J50814D01*
G03X-3382050Y-639388I48500J15160D01*
G01X-3352050Y-639388D01*
G03X-3337044Y-637122I0J50814D01*
G01X-3300107Y-674058D01*
G37*
G36*
G01X-2902688Y403316D02*
G01X-3330549Y403316D01*
G03X-3370015Y386969I0J-55814D01*
G01X-3443068Y313916D01*
G01X-3563548Y313916D01*
G03X-3599362Y278102I0J-35814D01*
G01X-3599362Y71102D01*
G03X-3563548Y35288I35814J0D01*
G01X-3357549Y35288D01*
G03X-3321735Y71102I0J35814D01*
G01X-3321735Y277383D01*
G01X-3307430Y291689D01*
G01X-3057111Y291689D01*
G03X-3040778Y235288I56562J-14186D01*
G03X-2983657Y221688I40230J42215D01*
G01X-2812288Y221688D01*
G03X-2772822Y238036I0J55814D01*
G01X-2694169Y316688D01*
G01X-2649787Y316688D01*
G03X-2637298Y318937I0J35814D01*
G03X-2624808Y316688I12490J33566D01*
G01X-2572809Y316688D01*
G03X-2543664Y331688I0J35814D01*
G01X-2445953Y331688D01*
G01X-2445953Y320875D01*
G03X-2410139Y285061I35814J0D01*
G01X-2281939Y285061D01*
G03X-2226712Y199315I51391J-27559D01*
G03X-2183220Y291569I-3836J58188D01*
G01X-2017787Y291569D01*
G03X-1983482Y305779I0J48514D01*
G01X-1967138Y322122D01*
G03X-1952929Y356427I-34305J34305D01*
G01X-1952929Y390029D01*
G03X-1906504Y404560I7381J57845D01*
G01X-1853177Y404560D01*
G03X-1822549Y417246I0J43314D01*
G01X-1799533Y440262D01*
G01X-1799562Y438827D01*
G01X-1799562Y358179D01*
G03X-1763748Y322365I35814J0D01*
G01X-1677347Y322365D01*
G03X-1641533Y358179I0J35814D01*
G01X-1641533Y416262D01*
G01X-1553407Y504389D01*
G01X-1507347Y504389D01*
G03X-1471533Y540203I0J35814D01*
G01X-1471533Y620803D01*
G03X-1507347Y656617I-35814J0D01*
G01X-1593748Y656617D01*
G03X-1629562Y620803I0J-35814D01*
G01X-1629562Y550744D01*
G01X-1641563Y538743D01*
G01X-1641533Y540203D01*
G01X-1641533Y620803D01*
G03X-1677347Y656617I-35814J0D01*
G01X-1763748Y656617D01*
G03X-1799562Y620803I0J-35814D01*
G01X-1799562Y562743D01*
G01X-1871118Y491188D01*
G01X-1906504Y491188D01*
G03X-1953419Y505654I-39044J-43314D01*
G01X-1953419Y845645D01*
G03X-1967629Y879949I-48514J0D01*
G01X-2047226Y959547D01*
G01X-2047226Y978502D01*
G03X-2073503Y1026411I-56813J0D01*
G03X-2072623Y1034302I-34934J7892D01*
G01X-2072623Y1120703D01*
G03X-2108437Y1156517I-35814J0D01*
G01X-2189084Y1156517D01*
G03X-2206186Y1152170I0J-35814D01*
G01X-2206186Y1359710D01*
G03X-2242000Y1395524I-35814J0D01*
G01X-2376110Y1395524D01*
G03X-2411924Y1359710I0J-35814D01*
G01X-2411924Y1299159D01*
G03X-2418849Y1267504I68889J-31654D01*
G03X-2411924Y1235850I75814J0D01*
G01X-2411924Y895000D01*
G03X-2376110Y859186I35814J0D01*
G01X-2242000Y859186D01*
G03X-2216191Y870170I0J35814D01*
G03X-2144032Y876647I32166J46830D01*
G03X-2087535Y862637I39992J40353D01*
G01X-2050447Y825550D01*
G01X-2050447Y608856D01*
G03X-2144032Y630352I-53592J-18858D01*
G03X-2240838Y589999I-39992J-40353D01*
G01X-2240838Y528498D01*
G03X-2147354Y485104I56813J0D01*
G01X-2147354Y465467D01*
G03X-2151558Y448631I31610J-16836D01*
G01X-2151558Y388597D01*
G01X-2236624Y388597D01*
G01X-2236624Y434129D01*
G03X-2272438Y469943I-35814J0D01*
G01X-2285474Y469943D01*
G01X-2285474Y556518D01*
G03X-2287205Y570310I-55814J0D01*
G01X-2287205Y589999D01*
G03X-2400832Y589999I-56813J0D01*
G01X-2400832Y528498D01*
G03X-2397102Y508251I56813J0D01*
G01X-2397102Y469943D01*
G01X-2410139Y469943D01*
G03X-2444754Y443316I0J-35814D01*
G01X-2542995Y443316D01*
G01X-2542995Y464493D01*
G03X-2536995Y484336I-29814J19843D01*
G01X-2536995Y554336D01*
G03X-2572809Y590150I-35814J0D01*
G01X-2624808Y590150D01*
G03X-2637298Y587901I0J-35814D01*
G03X-2649787Y590150I-12490J-33566D01*
G01X-2754788Y590150D01*
G03X-2790602Y554336I0J-35814D01*
G01X-2790602Y509954D01*
G01X-2791704Y508853D01*
G03X-2808835Y497169I22335J-51150D01*
G01X-2902688Y403316D01*
G37*
G36*
G01X-3566363Y827503D02*
G03X-3434735Y827503I65814J0D01*
G03X-3566363Y827503I-65814J0D01*
G37*
G36*
G01X-3513367Y-740000D02*
G03X-3396739Y-740000I58314J0D01*
G03X-3513367Y-740000I-58314J0D01*
G37*
G36*
G01X-3420867Y1250001D02*
G03X-3269239Y1250001I75814J0D01*
G03X-3420867Y1250001I-75814J0D01*
G37*
G36*
G01X-3247348Y-2226298D02*
G03X-3211534Y-2190484I0J35814D01*
G01X-3211534Y-2109837D01*
G03X-3247348Y-2074023I-35814J0D01*
G01X-3333749Y-2074023D01*
G03X-3369563Y-2109837I0J-35814D01*
G01X-3369563Y-2190484D01*
G03X-3333749Y-2226298I35814J0D01*
G01X-3247348Y-2226298D01*
G37*
G36*
G01X-3333749Y-2256046D02*
G03X-3369563Y-2291860I0J-35814D01*
G01X-3369563Y-2372460D01*
G03X-3333749Y-2408274I35814J0D01*
G01X-3247348Y-2408274D01*
G03X-3211534Y-2372460I0J35814D01*
G01X-3211534Y-2291860D01*
G03X-3247348Y-2256046I-35814J0D01*
G01X-3275934Y-2256046D01*
G03X-3305164Y-2256046I-14615J-56453D01*
G01X-3333749Y-2256046D01*
G37*
G36*
G01X-2632607Y-2399185D02*
G01X-2657234Y-2374558D01*
G01X-2657234Y-2240501D01*
G03X-2669921Y-2209874I-43314J0D01*
G01X-2711875Y-2167920D01*
G01X-2711875Y-2109837D01*
G03X-2712969Y-2101053I-35814J0D01*
G01X-2595788Y-2101053D01*
G03X-2565161Y-2088366I0J43314D01*
G01X-2432607Y-1955813D01*
G01X-2379592Y-1955813D01*
G03X-2282234Y-1912499I39044J43314D01*
G03X-2379592Y-1869185I-58314J0D01*
G01X-2450548Y-1869185D01*
G03X-2481176Y-1881871I0J-43314D01*
G01X-2613730Y-2014425D01*
G01X-2642266Y-2014425D01*
G03X-2675968Y-1959618I-58282J1926D01*
G03X-2739592Y-1969185I-24580J-52880D01*
G01X-2980549Y-1969185D01*
G03X-3011176Y-1981871I0J-43314D01*
G01X-3103328Y-2074023D01*
G01X-3174089Y-2074023D01*
G03X-3209903Y-2109837I0J-35814D01*
G01X-3209903Y-2190484D01*
G03X-3174089Y-2226298I35814J0D01*
G01X-3087689Y-2226298D01*
G03X-3051875Y-2190484I0J35814D01*
G01X-3051875Y-2145080D01*
G01X-3039903Y-2133109D01*
G01X-3039903Y-2190484D01*
G03X-3004089Y-2226298I35814J0D01*
G01X-2919818Y-2226298D01*
G01X-2949566Y-2256046D01*
G01X-3004089Y-2256046D01*
G03X-3039903Y-2291860I0J-35814D01*
G01X-3039903Y-2335560D01*
G03X-3051875Y-2335424I-6643J-57934D01*
G01X-3051875Y-2291860D01*
G03X-3087689Y-2256046I-35814J0D01*
G01X-3174089Y-2256046D01*
G03X-3209903Y-2291860I0J-35814D01*
G01X-3209903Y-2372460D01*
G03X-3174089Y-2408274I35814J0D01*
G01X-3102957Y-2408274D01*
G03X-3053431Y-2451400I56410J14780D01*
G01X-3029937Y-2474894D01*
G03X-2997542Y-2488313I32395J32395D01*
G01X-2901228Y-2488313D01*
G03X-2868833Y-2474894I0J45814D01*
G01X-2802213Y-2408274D01*
G01X-2747689Y-2408274D01*
G03X-2741120Y-2407667I0J35814D01*
G03X-2731176Y-2423126I40571J15168D01*
G01X-2681176Y-2473127D01*
G03X-2650548Y-2485813I30628J30628D01*
G01X-2090548Y-2485813D01*
G03X-2059920Y-2473127I0J43314D01*
G01X-1737528Y-2150735D01*
G03X-1699313Y-2051264I-3019J58236D01*
G03X-1798784Y-2089479I-41234J-41234D01*
G01X-2108489Y-2399185D01*
G01X-2632607Y-2399185D01*
G37*
G36*
G01X-2808833Y1325646D02*
G03X-2702449Y1294533I58284J1857D01*
G03X-2598263Y1332356I45902J35966D01*
G03X-2704646Y1363469I-58284J-1857D01*
G03X-2808833Y1325646I-45902J-35966D01*
G37*
G36*
G01X-2706861Y1098499D02*
G03X-2590233Y1098499I58314J0D01*
G03X-2706861Y1098499I-58314J0D01*
G37*
G36*
G01X-2521859Y242708D02*
G03X-2405230Y242708I58314J0D01*
G03X-2521859Y242708I-58314J0D01*
G37*
G36*
G01X-2488862Y-2162499D02*
G03X-2372234Y-2162499I58314J0D01*
G03X-2488862Y-2162499I-58314J0D01*
G37*
G36*
G01X-2008862Y1297503D02*
G03X-1872234Y1297503I68314J0D01*
G03X-2008862Y1297503I-68314J0D01*
G37*
G36*
G01X-1689528Y-205754D02*
G03X-1572900Y-205754I58314J0D01*
G03X-1689528Y-205754I-58314J0D01*
G37*
G36*
G01X-1668862Y1257503D02*
G03X-1552234Y1257503I58314J0D01*
G03X-1668862Y1257503I-58314J0D01*
G37*
G36*
G01X-1513783Y-284957D02*
G03X-1397155Y-284957I58314J0D01*
G03X-1513783Y-284957I-58314J0D01*
G37*
G36*
G01X-1352333Y320875D02*
G03X-1316519Y285061I35814J0D01*
G01X-1210620Y285061D01*
G03X-1203165Y284485I7454J47938D01*
G01X-943560Y284485D01*
G03X-909255Y298695I0J48514D01*
G01X-877303Y330647D01*
G03X-802722Y378969I16755J55855D01*
G03X-862434Y444786I-57825J7533D01*
G01X-862434Y493954D01*
G01X-845841Y510547D01*
G03X-831632Y544852I-34305J34305D01*
G01X-831632Y817966D01*
G03X-845841Y852270I-48514J0D01*
G01X-953606Y960036D01*
G01X-953606Y978990D01*
G03X-998879Y1034619I-56813J0D01*
G01X-998860Y1035798D01*
G01X-998860Y1122198D01*
G03X-1034674Y1158012I-35814J0D01*
G01X-1112186Y1158012D01*
G01X-1112186Y1352190D01*
G03X-1148000Y1388004I-35814J0D01*
G01X-1308660Y1388004D01*
G03X-1344474Y1352190I0J-35814D01*
G01X-1344474Y899000D01*
G03X-1308660Y863186I35814J0D01*
G01X-1267099Y863186D01*
G03X-1233698Y863186I16700J54303D01*
G01X-1187115Y863186D01*
G03X-1153714Y863186I16700J54303D01*
G01X-1148000Y863186D01*
G03X-1124457Y872012I0J35814D01*
G03X-1050412Y877136I34052J45477D01*
G03X-993915Y863126I39992J40353D01*
G01X-928660Y797871D01*
G01X-928660Y564947D01*
G01X-945252Y548354D01*
G03X-953606Y537155I34305J-34305D01*
G01X-953606Y590487D01*
G03X-1050412Y630841I-56813J0D01*
G03X-1147218Y590487I-39992J-40353D01*
G01X-1147218Y528986D01*
G03X-1053734Y485592I56813J0D01*
G01X-1053734Y479518D01*
G03X-1067864Y451014I21683J-28504D01*
G01X-1067864Y381513D01*
G01X-1143004Y381513D01*
G01X-1143004Y434129D01*
G03X-1178818Y469943I-35814J0D01*
G01X-1194585Y469943D01*
G01X-1194585Y518376D01*
G03X-1193585Y528986I-55814J10610D01*
G01X-1193585Y590487D01*
G03X-1307212Y590487I-56813J0D01*
G01X-1307212Y528986D01*
G03X-1306213Y518376I56813J0D01*
G01X-1306213Y514979D01*
G01X-1334368Y543134D01*
G03X-1410213Y582401I-56180J-15632D01*
G03X-1443875Y503908I19665J-54898D01*
G03X-1430014Y480915I53327J16474D01*
G01X-1352333Y403234D01*
G01X-1352333Y320875D01*
G37*
G36*
G01X-938861Y1307503D02*
G03X-802233Y1307503I68314J0D01*
G03X-938861Y1307503I-68314J0D01*
G37*
G36*
G01X-445665Y504641D02*
G01X-503748Y504641D01*
G03X-539562Y468827I0J-35814D01*
G01X-539562Y388179D01*
G03X-503748Y352365I35814J0D01*
G01X-417347Y352365D01*
G03X-381533Y388179I0J35814D01*
G01X-381533Y446262D01*
G01X-293406Y534388D01*
G01X-247347Y534388D01*
G03X-211533Y570202I0J35814D01*
G01X-211533Y650802D01*
G03X-247347Y686616I-35814J0D01*
G01X-333747Y686616D01*
G03X-369561Y650802I0J-35814D01*
G01X-369561Y580744D01*
G01X-381563Y568743D01*
G01X-381533Y570202D01*
G01X-381533Y650802D01*
G03X-417347Y686616I-35814J0D01*
G01X-503748Y686616D01*
G03X-539562Y650802I0J-35814D01*
G01X-539562Y570202D01*
G03X-503748Y534388I35814J0D01*
G01X-417347Y534388D01*
G01X-415887Y534418D01*
G01X-445665Y504641D01*
G37*
G36*
G01X-170833Y-987499D02*
G03X-410261Y-987499I-119714J0D01*
G03X-170833Y-987499I119714J0D01*
G37*
G36*
G01X-388861Y257502D02*
G03X-272233Y257502I58314J0D01*
G03X-388861Y257502I-58314J0D01*
G37*
G36*
G01X-199333Y-1737498D02*
G03X-381761Y-1737498I-91214J0D01*
G03X-199333Y-1737498I91214J0D01*
G37*
G36*
G01X-326361Y-1182498D02*
G03X-194733Y-1182498I65814J0D01*
G03X-326361Y-1182498I-65814J0D01*
G37*
%LPD*%
G36*
G01X-3301236Y-458575D02*
G03X-3302599Y-446887I-50814J0D01*
G01X-3102994Y-446887D01*
G01X-3030234Y-519648D01*
G03X-2999606Y-532334I30628J30628D01*
G01X-2881667Y-532334D01*
G01X-2881667Y-598121D01*
G01X-2881611Y-600117D01*
G01X-3251538Y-600117D01*
G01X-3301236Y-550419D01*
G01X-3301236Y-458575D01*
G37*
G36*
G01X-2534583Y-409214D02*
G03X-2526817Y-376975I-50469J29214D01*
G03X-2501998Y-384280I24819J38509D01*
G01X-2304323Y-384280D01*
G01X-2304323Y-402102D01*
G03X-2269323Y-437907I35814J0D01*
G01X-2269323Y-520746D01*
G03X-2270243Y-529361I39895J-8615D01*
G01X-2270243Y-606047D01*
G01X-2337751Y-606047D01*
G01X-2534583Y-409214D01*
G37*
G36*
G01X-2011988Y-1138932D02*
G01X-2022565Y-1149510D01*
G03X-2033801Y-1129996I-41864J-11114D01*
G01X-2070427Y-1093370D01*
G03X-2101055Y-1080684I-30628J-30628D01*
G01X-2181995Y-1080684D01*
G03X-2184808Y-1078304I-39044J-43314D01*
G03X-2160061Y-1018555I-32461J48444D01*
G03X-2205676Y-972710I-57208J-11305D01*
G03X-2158982Y-913803I-11594J57150D01*
G03X-2209140Y-857815I-58288J-1757D01*
G03X-2173995Y-789356I-21410J54242D01*
G03X-2153567Y-712618I-31057J49356D01*
G03X-2228615Y-686659I-51485J-27383D01*
G03X-2231471Y-671860I-40813J-202D01*
G03X-2228615Y-656861I-37958J15000D01*
G01X-2228615Y-647675D01*
G01X-2219429Y-647675D01*
G03X-2204429Y-644818I0J40814D01*
G03X-2189429Y-647675I15000J37958D01*
G01X-2179429Y-647675D01*
G03X-2164429Y-644818I0J40814D01*
G03X-2149429Y-647675I15000J37958D01*
G01X-2139429Y-647675D01*
G03X-2124429Y-644818I0J40814D01*
G03X-2109429Y-647675I15000J37958D01*
G01X-2099429Y-647675D01*
G03X-2084429Y-644818I0J40814D01*
G03X-2069429Y-647675I15000J37958D01*
G01X-2059429Y-647675D01*
G03X-2044429Y-644818I0J40814D01*
G03X-2029429Y-647675I15000J37958D01*
G01X-2019429Y-647675D01*
G03X-2004429Y-644818I0J40814D01*
G03X-1989429Y-647675I15000J37958D01*
G01X-1979429Y-647675D01*
G03X-1964429Y-644818I0J40814D01*
G03X-1949429Y-647675I15000J37958D01*
G01X-1939429Y-647675D01*
G03X-1924429Y-644818I0J40814D01*
G03X-1909429Y-647675I15000J37958D01*
G01X-1899429Y-647675D01*
G03X-1884429Y-644818I0J40814D01*
G03X-1869429Y-647675I15000J37958D01*
G01X-1859429Y-647675D01*
G03X-1844429Y-644818I0J40814D01*
G03X-1829429Y-647675I15000J37958D01*
G01X-1819429Y-647675D01*
G03X-1804429Y-644818I0J40814D01*
G03X-1789429Y-647675I15000J37958D01*
G01X-1779430Y-647675D01*
G03X-1764430Y-644818I0J40814D01*
G03X-1749430Y-647675I15000J37958D01*
G01X-1739430Y-647675D01*
G03X-1724430Y-644818I0J40814D01*
G03X-1709430Y-647675I15000J37958D01*
G01X-1700244Y-647675D01*
G01X-1700244Y-656861D01*
G03X-1697387Y-671860I40814J0D01*
G03X-1700244Y-686860I37958J-15000D01*
G01X-1700244Y-696860D01*
G03X-1697387Y-711860I40814J0D01*
G03X-1700244Y-726860I37958J-15000D01*
G01X-1700244Y-736860D01*
G03X-1697387Y-751860I40814J0D01*
G03X-1700244Y-766860I37958J-15000D01*
G01X-1700244Y-776860D01*
G03X-1680425Y-811860I40814J0D01*
G03X-1700244Y-846860I20995J-35000D01*
G01X-1700244Y-856860D01*
G03X-1697387Y-871860I40814J0D01*
G03X-1700244Y-886860I37958J-15000D01*
G01X-1700244Y-896860D01*
G03X-1697861Y-910600I40814J0D01*
G03X-1754881Y-968370I1292J-58300D01*
G03X-1698921Y-1027167I58312J-530D01*
G03X-1697387Y-1031860I39491J10307D01*
G03X-1700244Y-1046860I37958J-15000D01*
G01X-1700244Y-1056860D01*
G03X-1697387Y-1071860I40814J0D01*
G03X-1700244Y-1086860I37958J-15000D01*
G01X-1700244Y-1096860D01*
G03X-1697387Y-1111860I40814J0D01*
G03X-1700244Y-1126860I37958J-15000D01*
G01X-1700244Y-1136860D01*
G03X-1697387Y-1151860I40814J0D01*
G03X-1700244Y-1166859I37958J-15000D01*
G01X-1700244Y-1176045D01*
G01X-1709430Y-1176045D01*
G03X-1724430Y-1178902I0J-40814D01*
G03X-1739430Y-1176045I-15000J-37958D01*
G01X-1749430Y-1176045D01*
G03X-1764430Y-1178902I0J-40814D01*
G03X-1779430Y-1176045I-15000J-37958D01*
G01X-1789429Y-1176045D01*
G03X-1804429Y-1178902I0J-40814D01*
G03X-1819429Y-1176045I-15000J-37958D01*
G01X-1829429Y-1176045D01*
G03X-1844429Y-1178902I0J-40814D01*
G03X-1859429Y-1176045I-15000J-37958D01*
G01X-1869429Y-1176045D01*
G03X-1884429Y-1178902I0J-40814D01*
G03X-1899429Y-1176045I-15000J-37958D01*
G01X-1900237Y-1176045D01*
G03X-1935088Y-1116017I-57952J6485D01*
G03X-2002670Y-1131851I-23101J-53543D01*
G03X-2011988Y-1138932I21310J-37709D01*
G37*
G36*
G01X-2177695Y-437907D02*
G03X-2142695Y-402102I-814J35805D01*
G01X-2142695Y-389253D01*
G01X-2051635Y-298192D01*
G01X-2002019Y-298192D01*
G01X-1946183Y-354028D01*
G01X-1946183Y-404642D01*
G03X-1911183Y-440447I35814J0D01*
G01X-1911183Y-488584D01*
G03X-1924429Y-491403I1754J-40776D01*
G03X-1939429Y-488547I-15000J-37958D01*
G01X-1949429Y-488547D01*
G03X-1964429Y-491403I0J-40814D01*
G03X-1979429Y-488547I-15000J-37958D01*
G01X-1989429Y-488547D01*
G03X-2004429Y-491403I0J-40814D01*
G03X-2019429Y-488547I-15000J-37958D01*
G01X-2029429Y-488547D01*
G03X-2044429Y-491403I0J-40814D01*
G03X-2059429Y-488547I-15000J-37958D01*
G01X-2069429Y-488547D01*
G03X-2084429Y-491403I0J-40814D01*
G03X-2099429Y-488547I-15000J-37958D01*
G01X-2109429Y-488547D01*
G03X-2124429Y-491403I0J-40814D01*
G03X-2139429Y-488547I-15000J-37958D01*
G01X-2149429Y-488547D01*
G03X-2164429Y-491403I0J-40814D01*
G03X-2177695Y-488583I-15000J-37958D01*
G01X-2177695Y-437907D01*
G37*
G36*
G01X-1880548Y-1618310D02*
G01X-1878674Y-1618261D01*
G03X-1827434Y-1671480I58125J4687D01*
G01X-1711805Y-1787109D01*
G03X-1697772Y-1796687I32395J32395D01*
G01X-1937111Y-1796687D01*
G01X-1961738Y-1772060D01*
G01X-1961738Y-1618310D01*
G01X-1880548Y-1618310D01*
G37*
G36*
G01X-791739Y-1708900D02*
G01X-1660432Y-1708900D01*
G01X-1762643Y-1606690D01*
G01X-1762702Y-1606212D01*
G01X-1761805Y-1607109D01*
G03X-1729409Y-1620528I32395J32395D01*
G01X-703367Y-1620528D01*
G01X-791739Y-1708900D01*
G37*
G54D10*
G01X-4059675Y1340840D02*
G02X-3820889Y1579626I238786J0D01*
G01X-120889Y1579626D01*
G02X117897Y1340840I0J-238786D01*
G01X117897Y-2359160D01*
G02X-120889Y-2597946I-238786J0D01*
G01X-3820889Y-2597946D01*
G02X-4059675Y-2359160I0J238786D01*
G01X-4059675Y1340840D01*
G01X-3300107Y-674058D02*
G03X-3269480Y-686745I30628J30628D01*
G01X-2716360Y-686745D01*
G01X-2716360Y-756131D01*
G03X-2700107Y-786131I35814J0D01*
G03X-2716360Y-816131I19561J-30000D01*
G01X-2716360Y-906131D01*
G03X-2700107Y-936131I35814J0D01*
G03X-2716360Y-966131I19561J-30000D01*
G01X-2716360Y-1031701D01*
G03X-2751349Y-1044359I1307J-58299D01*
G01X-2819438Y-1044359D01*
G01X-2874425Y-989373D01*
G03X-2905053Y-976687I-30628J-30628D01*
G01X-3291691Y-976687D01*
G03X-3322318Y-989373I0J-43314D01*
G01X-3463230Y-1130285D01*
G03X-3479050Y-1127759I-15820J-48289D01*
G01X-3509050Y-1127759D01*
G03X-3557550Y-1163413I0J-50814D01*
G03X-3606050Y-1127759I-48500J-15160D01*
G01X-3636050Y-1127759D01*
G03X-3665980Y-1137509I0J-50814D01*
G03X-3694622Y-1126687I-28643J-32492D01*
G01X-3796009Y-1126687D01*
G03X-3893367Y-1170001I-39044J-43314D01*
G03X-3796009Y-1213315I58314J0D01*
G01X-3712563Y-1213315D01*
G01X-3686864Y-1239014D01*
G01X-3686864Y-1308573D01*
G03X-3636050Y-1359387I50814J0D01*
G01X-3606050Y-1359387D01*
G03X-3557550Y-1323733I0J50814D01*
G03X-3509050Y-1359387I48500J15160D01*
G01X-3479050Y-1359387D01*
G03X-3430550Y-1323733I0J50814D01*
G03X-3382050Y-1359387I48500J15160D01*
G01X-3352050Y-1359387D01*
G03X-3303550Y-1323733I0J50814D01*
G03X-3255050Y-1359387I48500J15160D01*
G01X-3225050Y-1359387D01*
G03X-3174236Y-1308573I0J50814D01*
G01X-3174236Y-1239014D01*
G01X-3158537Y-1223315D01*
G01X-2994096Y-1223315D01*
G03X-2917222Y-1224379I39044J43314D01*
G03X-2906104Y-1148305I-37830J44378D01*
G03X-2875687Y-1140381I1052J58305D01*
G01X-2875687Y-1196774D01*
G03X-2863631Y-1223574I35814J0D01*
G03X-2875687Y-1250374I23757J-26800D01*
G01X-2875687Y-1336774D01*
G03X-2839873Y-1372588I35814J0D01*
G01X-2759226Y-1372588D01*
G03X-2723412Y-1336774I0J35814D01*
G01X-2723412Y-1265188D01*
G03X-2692236Y-1213574I-27138J51614D01*
G03X-2723412Y-1161959I-58314J0D01*
G01X-2723412Y-1147712D01*
G03X-2693664Y-1144251I8359J57712D01*
G01X-2693664Y-1196774D01*
G03X-2681607Y-1223574I35814J0D01*
G03X-2693664Y-1250374I23757J-26800D01*
G01X-2693664Y-1336774D01*
G03X-2684633Y-1360551I35814J0D01*
G03X-2716360Y-1396131I4087J-35580D01*
G01X-2716360Y-1486131D01*
G03X-2701116Y-1515448I35814J0D01*
G03X-2716358Y-1544763I20573J-29315D01*
G01X-2716358Y-1634763D01*
G03X-2680544Y-1670577I35814J0D01*
G01X-2600544Y-1670577D01*
G03X-2564730Y-1634763I0J35814D01*
G01X-2564730Y-1632967D01*
G03X-2537185Y-1620391I-3083J43204D01*
G01X-2456362Y-1539567D01*
G01X-2456362Y-1582496D01*
G03X-2420548Y-1618310I35814J0D01*
G01X-2330548Y-1618310D01*
G03X-2300548Y-1602057I0J35814D01*
G03X-2270548Y-1618310I30000J19561D01*
G01X-2208572Y-1618310D01*
G03X-2150548Y-1670813I58024J5812D01*
G03X-2092524Y-1618310I0J58314D01*
G01X-2048366Y-1618310D01*
G01X-2048366Y-1790001D01*
G03X-2035680Y-1820629I43314J0D01*
G01X-1985680Y-1870629D01*
G03X-1955052Y-1883315I30628J30628D01*
G01X-1564096Y-1883315D01*
G03X-1508153Y-1895813I39044J43314D01*
G01X-1486936Y-1895813D01*
G03X-1492004Y-1983532I46388J-46686D01*
G03X-1405357Y-1998114I51456J41033D01*
G01X-1369839Y-1998114D01*
G03X-1357349Y-1995866I0J35814D01*
G03X-1344859Y-1998114I12490J33566D01*
G01X-1239858Y-1998114D01*
G03X-1205716Y-1973114I0J35814D01*
G01X-675349Y-1973114D01*
G03X-642954Y-1959696I0J45814D01*
G01X-301562Y-1618305D01*
G03X-254010Y-1505961I1015J65806D01*
G03X-366353Y-1553514I-46537J-46537D01*
G01X-694326Y-1881486D01*
G01X-789948Y-1881486D01*
G03X-814098Y-1800528I-50599J28988D01*
G01X-772762Y-1800528D01*
G03X-740367Y-1787109I0J45814D01*
G01X-463970Y-1510712D01*
G03X-419313Y-1493733I3423J58214D01*
G03X-402334Y-1449076I-41234J41234D01*
G01X-381570Y-1428312D01*
G01X-176625Y-1428312D01*
G03X-113043Y-1433919I36078J45814D01*
G03X-82413Y-1377921I-27503J51421D01*
G03X-49140Y-1294970I-18134J55423D01*
G03X-136625Y-1276685I-51407J-27529D01*
G01X-254469Y-1276685D01*
G03X-326625Y-1276685I-36078J-45814D01*
G01X-400547Y-1276685D01*
G03X-432942Y-1290103I0J-45814D01*
G01X-671739Y-1528900D01*
G01X-1710433Y-1528900D01*
G01X-1734607Y-1504725D01*
G03X-1710394Y-1482249I-25941J52227D01*
G03X-1702278Y-1450223I-50154J29750D01*
G03X-1658015Y-1367183I-8270J57725D01*
G03X-1594594Y-1374719I37467J44685D01*
G03X-1562305Y-1319615I-25954J52220D01*
G03X-1499945Y-1291479I11757J57117D01*
G03X-1507234Y-1223454I-50603J28980D01*
G01X-1507234Y-1172520D01*
G03X-1456364Y-1136167I-9881J67596D01*
G01X-1456364Y-1186276D01*
G03X-1420550Y-1222090I35814J0D01*
G01X-1340550Y-1222090D01*
G03X-1304736Y-1186276I0J35814D01*
G01X-1304736Y-1096276D01*
G03X-1320989Y-1066276I-35814J0D01*
G03X-1304736Y-1036276I-19561J30000D01*
G01X-1304736Y-946276D01*
G03X-1333514Y-911160I-35814J0D01*
G03X-1327435Y-891199I-29735J19962D01*
G01X-1327435Y-804798D01*
G03X-1331040Y-789139I-35814J0D01*
G01X-1320575Y-799604D01*
G03X-1297687Y-811593I30628J30628D01*
G01X-1297687Y-891199D01*
G03X-1261873Y-927013I35814J0D01*
G01X-1181226Y-927013D01*
G03X-1166523Y-923855I0J35814D01*
G01X-1058366Y-1032013D01*
G01X-1058366Y-1064207D01*
G03X-1045679Y-1094835I43314J0D01*
G01X-931329Y-1209184D01*
G01X-1000547Y-1209184D01*
G03X-1031175Y-1221871I0J-43314D01*
G01X-1059731Y-1250427D01*
G01X-1164731Y-1250427D01*
G01X-1164731Y-1248741D01*
G03X-1200545Y-1212927I-35814J0D01*
G01X-1280545Y-1212927D01*
G03X-1316359Y-1248741I0J-35814D01*
G01X-1316359Y-1338741D01*
G03X-1280545Y-1374555I35814J0D01*
G01X-1200545Y-1374555D01*
G03X-1164731Y-1338741I0J35814D01*
G01X-1164731Y-1337055D01*
G01X-1041790Y-1337055D01*
G03X-1011163Y-1324369I0J43314D01*
G01X-982606Y-1295812D01*
G01X-901361Y-1295812D01*
G01X-901361Y-1322498D01*
G03X-865547Y-1358312I35814J0D01*
G01X-745547Y-1358312D01*
G03X-709733Y-1322498I0J35814D01*
G01X-709733Y-1182498D01*
G03X-745547Y-1146684I-35814J0D01*
G01X-865547Y-1146684D01*
G03X-870914Y-1147089I0J-35814D01*
G01X-896118Y-1121885D01*
G03X-868537Y-1021623I-28933J61884D01*
G03X-971903Y-1010284I-56515J-38378D01*
G03X-984424Y-983444I-43148J-3787D01*
G01X-1145412Y-822456D01*
G01X-1145412Y-812290D01*
G01X-926259Y-812290D01*
G03X-892901Y-892785I52488J-25408D01*
G03X-816833Y-850289I19129J55087D01*
G01X-725000Y-942122D01*
G03X-731361Y-962499I29452J-20377D01*
G01X-731361Y-1102498D01*
G03X-695547Y-1138312I35814J0D01*
G01X-575547Y-1138312D01*
G03X-539733Y-1102498I0J35814D01*
G01X-539733Y-962499D01*
G03X-575547Y-926685I-35814J0D01*
G01X-617927Y-926685D01*
G01X-806263Y-738348D01*
G03X-829084Y-726371I-30628J-30628D01*
G03X-863960Y-621760I-35452J46300D01*
G03X-900896Y-725662I-576J-58311D01*
G01X-1272006Y-725662D01*
G01X-1304736Y-692932D01*
G01X-1304736Y-656276D01*
G03X-1340550Y-620462I-35814J0D01*
G01X-1420550Y-620462D01*
G03X-1456364Y-656276I0J-35814D01*
G01X-1456364Y-715835D01*
G01X-1549075Y-808546D01*
G01X-1556205Y-808546D01*
G03X-1541116Y-776860I-25725J31686D01*
G01X-1541116Y-766860D01*
G03X-1543972Y-751860I-40814J0D01*
G03X-1541116Y-736860I-37958J15000D01*
G01X-1541116Y-726860D01*
G03X-1543972Y-711860I-40814J0D01*
G03X-1541116Y-696860I-37958J15000D01*
G01X-1541116Y-686860D01*
G03X-1543972Y-671860I-40814J0D01*
G03X-1541116Y-656861I-37958J15000D01*
G01X-1541116Y-646861D01*
G03X-1581930Y-606047I-40814J0D01*
G01X-1658616Y-606047D01*
G01X-1658616Y-529361D01*
G03X-1699430Y-488547I-40814J0D01*
G01X-1709430Y-488547D01*
G03X-1724430Y-491403I0J-40814D01*
G03X-1739430Y-488547I-15000J-37958D01*
G01X-1749430Y-488547D01*
G03X-1764430Y-491403I0J-40814D01*
G03X-1779430Y-488547I-15000J-37958D01*
G01X-1789429Y-488547D01*
G03X-1804429Y-491403I0J-40814D01*
G03X-1819429Y-488547I-15000J-37958D01*
G01X-1819555Y-440447D01*
G03X-1784555Y-404642I-814J35805D01*
G01X-1784555Y-324642D01*
G03X-1820369Y-288828I-35814J0D01*
G01X-1881801Y-288828D01*
G01X-1950647Y-219983D01*
G03X-1983042Y-206564I-32395J-32395D01*
G01X-2070611Y-206564D01*
G03X-2103007Y-219983I0J-45814D01*
G01X-2170272Y-287249D01*
G03X-2178509Y-286288I-8237J-34854D01*
G01X-2268509Y-286288D01*
G03X-2288889Y-292652I0J-35814D01*
G01X-2483021Y-292652D01*
G01X-2515172Y-260501D01*
G03X-2608657Y-222600I-57739J-8172D01*
G03X-2595172Y-322571I35747J-46073D01*
G03X-2603130Y-324559I10119J-57429D01*
G01X-2663877Y-324559D01*
G03X-2683430Y-330368I0J-35814D01*
G01X-2714425Y-299372D01*
G03X-2745052Y-286686I-30628J-30628D01*
G01X-3433791Y-286686D01*
G03X-3464419Y-299372I0J-43314D01*
G01X-3579995Y-414949D01*
G03X-3606050Y-407761I-26054J-43626D01*
G01X-3636050Y-407761D01*
G03X-3686864Y-458575I0J-50814D01*
G01X-3686864Y-588574D01*
G03X-3636050Y-639388I50814J0D01*
G01X-3606050Y-639388D01*
G03X-3557550Y-603734I0J50814D01*
G03X-3509050Y-639388I48500J15160D01*
G01X-3479050Y-639388D01*
G03X-3430550Y-603734I0J50814D01*
G03X-3382050Y-639388I48500J15160D01*
G01X-3352050Y-639388D01*
G03X-3337044Y-637122I0J50814D01*
G01X-3300107Y-674058D01*
G01X-2902688Y403316D02*
G01X-3330549Y403316D01*
G03X-3370015Y386969I0J-55814D01*
G01X-3443068Y313916D01*
G01X-3563548Y313916D01*
G03X-3599362Y278102I0J-35814D01*
G01X-3599362Y71102D01*
G03X-3563548Y35288I35814J0D01*
G01X-3357549Y35288D01*
G03X-3321735Y71102I0J35814D01*
G01X-3321735Y277383D01*
G01X-3307430Y291689D01*
G01X-3057111Y291689D01*
G03X-3040778Y235288I56562J-14186D01*
G03X-2983657Y221688I40230J42215D01*
G01X-2812288Y221688D01*
G03X-2772822Y238036I0J55814D01*
G01X-2694169Y316688D01*
G01X-2649787Y316688D01*
G03X-2637298Y318937I0J35814D01*
G03X-2624808Y316688I12490J33566D01*
G01X-2572809Y316688D01*
G03X-2543664Y331688I0J35814D01*
G01X-2445953Y331688D01*
G01X-2445953Y320875D01*
G03X-2410139Y285061I35814J0D01*
G01X-2281939Y285061D01*
G03X-2226712Y199315I51391J-27559D01*
G03X-2183220Y291569I-3836J58188D01*
G01X-2017787Y291569D01*
G03X-1983482Y305779I0J48514D01*
G01X-1967138Y322122D01*
G03X-1952929Y356427I-34305J34305D01*
G01X-1952929Y390029D01*
G03X-1906504Y404560I7381J57845D01*
G01X-1853177Y404560D01*
G03X-1822549Y417246I0J43314D01*
G01X-1799533Y440262D01*
G01X-1799562Y438827D01*
G01X-1799562Y358179D01*
G03X-1763748Y322365I35814J0D01*
G01X-1677347Y322365D01*
G03X-1641533Y358179I0J35814D01*
G01X-1641533Y416262D01*
G01X-1553407Y504389D01*
G01X-1507347Y504389D01*
G03X-1471533Y540203I0J35814D01*
G01X-1471533Y620803D01*
G03X-1507347Y656617I-35814J0D01*
G01X-1593748Y656617D01*
G03X-1629562Y620803I0J-35814D01*
G01X-1629562Y550744D01*
G01X-1641563Y538743D01*
G01X-1641533Y540203D01*
G01X-1641533Y620803D01*
G03X-1677347Y656617I-35814J0D01*
G01X-1763748Y656617D01*
G03X-1799562Y620803I0J-35814D01*
G01X-1799562Y562743D01*
G01X-1871118Y491188D01*
G01X-1906504Y491188D01*
G03X-1953419Y505654I-39044J-43314D01*
G01X-1953419Y845645D01*
G03X-1967629Y879949I-48514J0D01*
G01X-2047226Y959547D01*
G01X-2047226Y978502D01*
G03X-2073503Y1026411I-56813J0D01*
G03X-2072623Y1034302I-34934J7892D01*
G01X-2072623Y1120703D01*
G03X-2108437Y1156517I-35814J0D01*
G01X-2189084Y1156517D01*
G03X-2206186Y1152170I0J-35814D01*
G01X-2206186Y1359710D01*
G03X-2242000Y1395524I-35814J0D01*
G01X-2376110Y1395524D01*
G03X-2411924Y1359710I0J-35814D01*
G01X-2411924Y1299159D01*
G03X-2418849Y1267504I68889J-31654D01*
G03X-2411924Y1235850I75814J0D01*
G01X-2411924Y895000D01*
G03X-2376110Y859186I35814J0D01*
G01X-2242000Y859186D01*
G03X-2216191Y870170I0J35814D01*
G03X-2144032Y876647I32166J46830D01*
G03X-2087535Y862637I39992J40353D01*
G01X-2050447Y825550D01*
G01X-2050447Y608856D01*
G03X-2144032Y630352I-53592J-18858D01*
G03X-2240838Y589999I-39992J-40353D01*
G01X-2240838Y528498D01*
G03X-2147354Y485104I56813J0D01*
G01X-2147354Y465467D01*
G03X-2151558Y448631I31610J-16836D01*
G01X-2151558Y388597D01*
G01X-2236624Y388597D01*
G01X-2236624Y434129D01*
G03X-2272438Y469943I-35814J0D01*
G01X-2285474Y469943D01*
G01X-2285474Y556518D01*
G03X-2287205Y570310I-55814J0D01*
G01X-2287205Y589999D01*
G03X-2400832Y589999I-56813J0D01*
G01X-2400832Y528498D01*
G03X-2397102Y508251I56813J0D01*
G01X-2397102Y469943D01*
G01X-2410139Y469943D01*
G03X-2444754Y443316I0J-35814D01*
G01X-2542995Y443316D01*
G01X-2542995Y464493D01*
G03X-2536995Y484336I-29814J19843D01*
G01X-2536995Y554336D01*
G03X-2572809Y590150I-35814J0D01*
G01X-2624808Y590150D01*
G03X-2637298Y587901I0J-35814D01*
G03X-2649787Y590150I-12490J-33566D01*
G01X-2754788Y590150D01*
G03X-2790602Y554336I0J-35814D01*
G01X-2790602Y509954D01*
G01X-2791704Y508853D01*
G03X-2808835Y497169I22335J-51150D01*
G01X-2902688Y403316D01*
G01X-3566363Y827503D02*
G03X-3434735Y827503I65814J0D01*
G03X-3566363Y827503I-65814J0D01*
G01X-3513367Y-740000D02*
G03X-3396739Y-740000I58314J0D01*
G03X-3513367Y-740000I-58314J0D01*
G01X-3420867Y1250001D02*
G03X-3269239Y1250001I75814J0D01*
G03X-3420867Y1250001I-75814J0D01*
G01X-3247348Y-2226298D02*
G03X-3211534Y-2190484I0J35814D01*
G01X-3211534Y-2109837D01*
G03X-3247348Y-2074023I-35814J0D01*
G01X-3333749Y-2074023D01*
G03X-3369563Y-2109837I0J-35814D01*
G01X-3369563Y-2190484D01*
G03X-3333749Y-2226298I35814J0D01*
G01X-3247348Y-2226298D01*
G01X-3333749Y-2256046D02*
G03X-3369563Y-2291860I0J-35814D01*
G01X-3369563Y-2372460D01*
G03X-3333749Y-2408274I35814J0D01*
G01X-3247348Y-2408274D01*
G03X-3211534Y-2372460I0J35814D01*
G01X-3211534Y-2291860D01*
G03X-3247348Y-2256046I-35814J0D01*
G01X-3275934Y-2256046D01*
G03X-3305164Y-2256046I-14615J-56453D01*
G01X-3333749Y-2256046D01*
G01X-2632607Y-2399185D02*
G01X-2657234Y-2374558D01*
G01X-2657234Y-2240501D01*
G03X-2669921Y-2209874I-43314J0D01*
G01X-2711875Y-2167920D01*
G01X-2711875Y-2109837D01*
G03X-2712969Y-2101053I-35814J0D01*
G01X-2595788Y-2101053D01*
G03X-2565161Y-2088366I0J43314D01*
G01X-2432607Y-1955813D01*
G01X-2379592Y-1955813D01*
G03X-2282234Y-1912499I39044J43314D01*
G03X-2379592Y-1869185I-58314J0D01*
G01X-2450548Y-1869185D01*
G03X-2481176Y-1881871I0J-43314D01*
G01X-2613730Y-2014425D01*
G01X-2642266Y-2014425D01*
G03X-2675968Y-1959618I-58282J1926D01*
G03X-2739592Y-1969185I-24580J-52880D01*
G01X-2980549Y-1969185D01*
G03X-3011176Y-1981871I0J-43314D01*
G01X-3103328Y-2074023D01*
G01X-3174089Y-2074023D01*
G03X-3209903Y-2109837I0J-35814D01*
G01X-3209903Y-2190484D01*
G03X-3174089Y-2226298I35814J0D01*
G01X-3087689Y-2226298D01*
G03X-3051875Y-2190484I0J35814D01*
G01X-3051875Y-2145080D01*
G01X-3039903Y-2133109D01*
G01X-3039903Y-2190484D01*
G03X-3004089Y-2226298I35814J0D01*
G01X-2919818Y-2226298D01*
G01X-2949566Y-2256046D01*
G01X-3004089Y-2256046D01*
G03X-3039903Y-2291860I0J-35814D01*
G01X-3039903Y-2335560D01*
G03X-3051875Y-2335424I-6643J-57934D01*
G01X-3051875Y-2291860D01*
G03X-3087689Y-2256046I-35814J0D01*
G01X-3174089Y-2256046D01*
G03X-3209903Y-2291860I0J-35814D01*
G01X-3209903Y-2372460D01*
G03X-3174089Y-2408274I35814J0D01*
G01X-3102957Y-2408274D01*
G03X-3053431Y-2451400I56410J14780D01*
G01X-3029937Y-2474894D01*
G03X-2997542Y-2488313I32395J32395D01*
G01X-2901228Y-2488313D01*
G03X-2868833Y-2474894I0J45814D01*
G01X-2802213Y-2408274D01*
G01X-2747689Y-2408274D01*
G03X-2741120Y-2407667I0J35814D01*
G03X-2731176Y-2423126I40571J15168D01*
G01X-2681176Y-2473127D01*
G03X-2650548Y-2485813I30628J30628D01*
G01X-2090548Y-2485813D01*
G03X-2059920Y-2473127I0J43314D01*
G01X-1737528Y-2150735D01*
G03X-1699313Y-2051264I-3019J58236D01*
G03X-1798784Y-2089479I-41234J-41234D01*
G01X-2108489Y-2399185D01*
G01X-2632607Y-2399185D01*
G01X-2808833Y1325646D02*
G03X-2702449Y1294533I58284J1857D01*
G03X-2598263Y1332356I45902J35966D01*
G03X-2704646Y1363469I-58284J-1857D01*
G03X-2808833Y1325646I-45902J-35966D01*
G01X-2706861Y1098499D02*
G03X-2590233Y1098499I58314J0D01*
G03X-2706861Y1098499I-58314J0D01*
G01X-2521859Y242708D02*
G03X-2405230Y242708I58314J0D01*
G03X-2521859Y242708I-58314J0D01*
G01X-2488862Y-2162499D02*
G03X-2372234Y-2162499I58314J0D01*
G03X-2488862Y-2162499I-58314J0D01*
G01X-2008862Y1297503D02*
G03X-1872234Y1297503I68314J0D01*
G03X-2008862Y1297503I-68314J0D01*
G01X-1689528Y-205754D02*
G03X-1572900Y-205754I58314J0D01*
G03X-1689528Y-205754I-58314J0D01*
G01X-1668862Y1257503D02*
G03X-1552234Y1257503I58314J0D01*
G03X-1668862Y1257503I-58314J0D01*
G01X-1513783Y-284957D02*
G03X-1397155Y-284957I58314J0D01*
G03X-1513783Y-284957I-58314J0D01*
G01X-1352333Y320875D02*
G03X-1316519Y285061I35814J0D01*
G01X-1210620Y285061D01*
G03X-1203165Y284485I7454J47938D01*
G01X-943560Y284485D01*
G03X-909255Y298695I0J48514D01*
G01X-877303Y330647D01*
G03X-802722Y378969I16755J55855D01*
G03X-862434Y444786I-57825J7533D01*
G01X-862434Y493954D01*
G01X-845841Y510547D01*
G03X-831632Y544852I-34305J34305D01*
G01X-831632Y817966D01*
G03X-845841Y852270I-48514J0D01*
G01X-953606Y960036D01*
G01X-953606Y978990D01*
G03X-998879Y1034619I-56813J0D01*
G01X-998860Y1035798D01*
G01X-998860Y1122198D01*
G03X-1034674Y1158012I-35814J0D01*
G01X-1112186Y1158012D01*
G01X-1112186Y1352190D01*
G03X-1148000Y1388004I-35814J0D01*
G01X-1308660Y1388004D01*
G03X-1344474Y1352190I0J-35814D01*
G01X-1344474Y899000D01*
G03X-1308660Y863186I35814J0D01*
G01X-1267099Y863186D01*
G03X-1233698Y863186I16700J54303D01*
G01X-1187115Y863186D01*
G03X-1153714Y863186I16700J54303D01*
G01X-1148000Y863186D01*
G03X-1124457Y872012I0J35814D01*
G03X-1050412Y877136I34052J45477D01*
G03X-993915Y863126I39992J40353D01*
G01X-928660Y797871D01*
G01X-928660Y564947D01*
G01X-945252Y548354D01*
G03X-953606Y537155I34305J-34305D01*
G01X-953606Y590487D01*
G03X-1050412Y630841I-56813J0D01*
G03X-1147218Y590487I-39992J-40353D01*
G01X-1147218Y528986D01*
G03X-1053734Y485592I56813J0D01*
G01X-1053734Y479518D01*
G03X-1067864Y451014I21683J-28504D01*
G01X-1067864Y381513D01*
G01X-1143004Y381513D01*
G01X-1143004Y434129D01*
G03X-1178818Y469943I-35814J0D01*
G01X-1194585Y469943D01*
G01X-1194585Y518376D01*
G03X-1193585Y528986I-55814J10610D01*
G01X-1193585Y590487D01*
G03X-1307212Y590487I-56813J0D01*
G01X-1307212Y528986D01*
G03X-1306213Y518376I56813J0D01*
G01X-1306213Y514979D01*
G01X-1334368Y543134D01*
G03X-1410213Y582401I-56180J-15632D01*
G03X-1443875Y503908I19665J-54898D01*
G03X-1430014Y480915I53327J16474D01*
G01X-1352333Y403234D01*
G01X-1352333Y320875D01*
G01X-938861Y1307503D02*
G03X-802233Y1307503I68314J0D01*
G03X-938861Y1307503I-68314J0D01*
G01X-445665Y504641D02*
G01X-503748Y504641D01*
G03X-539562Y468827I0J-35814D01*
G01X-539562Y388179D01*
G03X-503748Y352365I35814J0D01*
G01X-417347Y352365D01*
G03X-381533Y388179I0J35814D01*
G01X-381533Y446262D01*
G01X-293406Y534388D01*
G01X-247347Y534388D01*
G03X-211533Y570202I0J35814D01*
G01X-211533Y650802D01*
G03X-247347Y686616I-35814J0D01*
G01X-333747Y686616D01*
G03X-369561Y650802I0J-35814D01*
G01X-369561Y580744D01*
G01X-381563Y568743D01*
G01X-381533Y570202D01*
G01X-381533Y650802D01*
G03X-417347Y686616I-35814J0D01*
G01X-503748Y686616D01*
G03X-539562Y650802I0J-35814D01*
G01X-539562Y570202D01*
G03X-503748Y534388I35814J0D01*
G01X-417347Y534388D01*
G01X-415887Y534418D01*
G01X-445665Y504641D01*
G01X-170833Y-987499D02*
G03X-410261Y-987499I-119714J0D01*
G03X-170833Y-987499I119714J0D01*
G01X-388861Y257502D02*
G03X-272233Y257502I58314J0D01*
G03X-388861Y257502I-58314J0D01*
G01X-199333Y-1737498D02*
G03X-381761Y-1737498I-91214J0D01*
G03X-199333Y-1737498I91214J0D01*
G01X-326361Y-1182498D02*
G03X-194733Y-1182498I65814J0D01*
G03X-326361Y-1182498I-65814J0D01*
G01X-3301236Y-458575D02*
G03X-3302599Y-446887I-50814J0D01*
G01X-3102994Y-446887D01*
G01X-3030234Y-519648D01*
G03X-2999606Y-532334I30628J30628D01*
G01X-2881667Y-532334D01*
G01X-2881667Y-598121D01*
G01X-2881611Y-600117D01*
G01X-3251538Y-600117D01*
G01X-3301236Y-550419D01*
G01X-3301236Y-458575D01*
G01X-2534583Y-409214D02*
G03X-2526817Y-376975I-50469J29214D01*
G03X-2501998Y-384280I24819J38509D01*
G01X-2304323Y-384280D01*
G01X-2304323Y-402102D01*
G03X-2269323Y-437907I35814J0D01*
G01X-2269323Y-520746D01*
G03X-2270243Y-529361I39895J-8615D01*
G01X-2270243Y-606047D01*
G01X-2337751Y-606047D01*
G01X-2534583Y-409214D01*
G01X-2011988Y-1138932D02*
G01X-2022565Y-1149510D01*
G03X-2033801Y-1129996I-41864J-11114D01*
G01X-2070427Y-1093370D01*
G03X-2101055Y-1080684I-30628J-30628D01*
G01X-2181995Y-1080684D01*
G03X-2184808Y-1078304I-39044J-43314D01*
G03X-2160061Y-1018555I-32461J48444D01*
G03X-2205676Y-972710I-57208J-11305D01*
G03X-2158982Y-913803I-11594J57150D01*
G03X-2209140Y-857815I-58288J-1757D01*
G03X-2173995Y-789356I-21410J54242D01*
G03X-2153567Y-712618I-31057J49356D01*
G03X-2228615Y-686659I-51485J-27383D01*
G03X-2231471Y-671860I-40813J-202D01*
G03X-2228615Y-656861I-37958J15000D01*
G01X-2228615Y-647675D01*
G01X-2219429Y-647675D01*
G03X-2204429Y-644818I0J40814D01*
G03X-2189429Y-647675I15000J37958D01*
G01X-2179429Y-647675D01*
G03X-2164429Y-644818I0J40814D01*
G03X-2149429Y-647675I15000J37958D01*
G01X-2139429Y-647675D01*
G03X-2124429Y-644818I0J40814D01*
G03X-2109429Y-647675I15000J37958D01*
G01X-2099429Y-647675D01*
G03X-2084429Y-644818I0J40814D01*
G03X-2069429Y-647675I15000J37958D01*
G01X-2059429Y-647675D01*
G03X-2044429Y-644818I0J40814D01*
G03X-2029429Y-647675I15000J37958D01*
G01X-2019429Y-647675D01*
G03X-2004429Y-644818I0J40814D01*
G03X-1989429Y-647675I15000J37958D01*
G01X-1979429Y-647675D01*
G03X-1964429Y-644818I0J40814D01*
G03X-1949429Y-647675I15000J37958D01*
G01X-1939429Y-647675D01*
G03X-1924429Y-644818I0J40814D01*
G03X-1909429Y-647675I15000J37958D01*
G01X-1899429Y-647675D01*
G03X-1884429Y-644818I0J40814D01*
G03X-1869429Y-647675I15000J37958D01*
G01X-1859429Y-647675D01*
G03X-1844429Y-644818I0J40814D01*
G03X-1829429Y-647675I15000J37958D01*
G01X-1819429Y-647675D01*
G03X-1804429Y-644818I0J40814D01*
G03X-1789429Y-647675I15000J37958D01*
G01X-1779430Y-647675D01*
G03X-1764430Y-644818I0J40814D01*
G03X-1749430Y-647675I15000J37958D01*
G01X-1739430Y-647675D01*
G03X-1724430Y-644818I0J40814D01*
G03X-1709430Y-647675I15000J37958D01*
G01X-1700244Y-647675D01*
G01X-1700244Y-656861D01*
G03X-1697387Y-671860I40814J0D01*
G03X-1700244Y-686860I37958J-15000D01*
G01X-1700244Y-696860D01*
G03X-1697387Y-711860I40814J0D01*
G03X-1700244Y-726860I37958J-15000D01*
G01X-1700244Y-736860D01*
G03X-1697387Y-751860I40814J0D01*
G03X-1700244Y-766860I37958J-15000D01*
G01X-1700244Y-776860D01*
G03X-1680425Y-811860I40814J0D01*
G03X-1700244Y-846860I20995J-35000D01*
G01X-1700244Y-856860D01*
G03X-1697387Y-871860I40814J0D01*
G03X-1700244Y-886860I37958J-15000D01*
G01X-1700244Y-896860D01*
G03X-1697861Y-910600I40814J0D01*
G03X-1754881Y-968370I1292J-58300D01*
G03X-1698921Y-1027167I58312J-530D01*
G03X-1697387Y-1031860I39491J10307D01*
G03X-1700244Y-1046860I37958J-15000D01*
G01X-1700244Y-1056860D01*
G03X-1697387Y-1071860I40814J0D01*
G03X-1700244Y-1086860I37958J-15000D01*
G01X-1700244Y-1096860D01*
G03X-1697387Y-1111860I40814J0D01*
G03X-1700244Y-1126860I37958J-15000D01*
G01X-1700244Y-1136860D01*
G03X-1697387Y-1151860I40814J0D01*
G03X-1700244Y-1166859I37958J-15000D01*
G01X-1700244Y-1176045D01*
G01X-1709430Y-1176045D01*
G03X-1724430Y-1178902I0J-40814D01*
G03X-1739430Y-1176045I-15000J-37958D01*
G01X-1749430Y-1176045D01*
G03X-1764430Y-1178902I0J-40814D01*
G03X-1779430Y-1176045I-15000J-37958D01*
G01X-1789429Y-1176045D01*
G03X-1804429Y-1178902I0J-40814D01*
G03X-1819429Y-1176045I-15000J-37958D01*
G01X-1829429Y-1176045D01*
G03X-1844429Y-1178902I0J-40814D01*
G03X-1859429Y-1176045I-15000J-37958D01*
G01X-1869429Y-1176045D01*
G03X-1884429Y-1178902I0J-40814D01*
G03X-1899429Y-1176045I-15000J-37958D01*
G01X-1900237Y-1176045D01*
G03X-1935088Y-1116017I-57952J6485D01*
G03X-2002670Y-1131851I-23101J-53543D01*
G03X-2011988Y-1138932I21310J-37709D01*
G01X-2177695Y-437907D02*
G03X-2142695Y-402102I-814J35805D01*
G01X-2142695Y-389253D01*
G01X-2051635Y-298192D01*
G01X-2002019Y-298192D01*
G01X-1946183Y-354028D01*
G01X-1946183Y-404642D01*
G03X-1911183Y-440447I35814J0D01*
G01X-1911183Y-488584D01*
G03X-1924429Y-491403I1754J-40776D01*
G03X-1939429Y-488547I-15000J-37958D01*
G01X-1949429Y-488547D01*
G03X-1964429Y-491403I0J-40814D01*
G03X-1979429Y-488547I-15000J-37958D01*
G01X-1989429Y-488547D01*
G03X-2004429Y-491403I0J-40814D01*
G03X-2019429Y-488547I-15000J-37958D01*
G01X-2029429Y-488547D01*
G03X-2044429Y-491403I0J-40814D01*
G03X-2059429Y-488547I-15000J-37958D01*
G01X-2069429Y-488547D01*
G03X-2084429Y-491403I0J-40814D01*
G03X-2099429Y-488547I-15000J-37958D01*
G01X-2109429Y-488547D01*
G03X-2124429Y-491403I0J-40814D01*
G03X-2139429Y-488547I-15000J-37958D01*
G01X-2149429Y-488547D01*
G03X-2164429Y-491403I0J-40814D01*
G03X-2177695Y-488583I-15000J-37958D01*
G01X-2177695Y-437907D01*
G01X-1880548Y-1618310D02*
G01X-1878674Y-1618261D01*
G03X-1827434Y-1671480I58125J4687D01*
G01X-1711805Y-1787109D01*
G03X-1697772Y-1796687I32395J32395D01*
G01X-1937111Y-1796687D01*
G01X-1961738Y-1772060D01*
G01X-1961738Y-1618310D01*
G01X-1880548Y-1618310D01*
G01X-791739Y-1708900D02*
G01X-1660432Y-1708900D01*
G01X-1762643Y-1606690D01*
G01X-1762702Y-1606212D01*
G01X-1761805Y-1607109D01*
G03X-1729409Y-1620528I32395J32395D01*
G01X-703367Y-1620528D01*
G01X-791739Y-1708900D01*
G04 Copper End*

G04 Rect Start*
G36*
G01X-2376110Y895000D02*
G01X-2376110Y1359710D01*
G01X-2242000Y1359710D01*
G01X-2242000Y895000D01*
G01X-2376110Y895000D01*
G37*
G36*
G01X-1308660Y899000D02*
G01X-1308660Y1352190D01*
G01X-1148000Y1352190D01*
G01X-1148000Y899000D01*
G01X-1308660Y899000D01*
G37*
G04 Rect End*

G04 Pad Start*
G54D11*
G01X-2099996Y1267997D03*
G01X-2299995Y1267997D03*
G54D12*
G01X-988850Y260017D03*
G01X-988850Y410690D03*
G54D13*
G01X-2341288Y177503D03*
G01X-2341288Y377502D03*
G01X-1247668Y177503D03*
G01X-1247668Y377502D03*
G54D11*
G01X-1024669Y1268503D03*
G01X-1224669Y1268503D03*
G54D12*
G01X-2072543Y257634D03*
G01X-2072543Y408307D03*
G54D14*
G01X-230889Y-2249160D03*
G01X-3710889Y-2249160D03*
G01X-230889Y1230840D03*
G01X-3710889Y1230840D03*
G54D15*
G01X-1380550Y-701276D03*
G01X-1240545Y-701276D03*
G01X-1380550Y-991276D03*
G01X-1240545Y-991276D03*
G01X-1380550Y-1141276D03*
G01X-1240545Y-1141276D03*
G54D17*
G01X-1925548Y-1682501D03*
G01X-1925548Y-1542496D03*
G54D15*
G01X-2780551Y-861131D03*
G01X-2640546Y-861131D03*
G54D17*
G01X-1865369Y-364642D03*
G01X-1865369Y-224638D03*
G01X-2223509Y-362102D03*
G01X-2223509Y-222098D03*
G54D15*
G01X-2780551Y-1011131D03*
G01X-2640546Y-1011131D03*
G54D17*
G01X-2225548Y-1682501D03*
G01X-2225548Y-1542496D03*
G01X-2075548Y-1682501D03*
G01X-2075548Y-1542496D03*
G54D18*
G01X-2148760Y1077503D03*
G54D19*
G01X-2330760Y1077503D03*
G54D18*
G01X-1074998Y1078998D03*
G54D19*
G01X-1256997Y1078998D03*
G54D20*
G01X-2799549Y-1293574D03*
G54D21*
G01X-2617550Y-1293574D03*
G54D20*
G01X-2799549Y-1153574D03*
G54D21*
G01X-2617550Y-1153574D03*
G54D12*
G01X-3290549Y-2150161D03*
G54D22*
G01X-3290549Y-2332160D03*
G54D12*
G01X-3130889Y-2150161D03*
G54D22*
G01X-3130889Y-2332160D03*
G54D12*
G01X-2960889Y-2150161D03*
G54D22*
G01X-2960889Y-2332160D03*
G54D12*
G01X-2790889Y-2150161D03*
G54D22*
G01X-2790889Y-2332160D03*
G54D17*
G01X-2375548Y-1682501D03*
G01X-2375548Y-1542496D03*
G54D15*
G01X-2780548Y-1589763D03*
G01X-2640544Y-1589763D03*
G01X-1380550Y-1293741D03*
G01X-1240545Y-1293741D03*
G54D23*
G01X-2224429Y-568111D03*
G01X-2184429Y-568111D03*
G01X-2144429Y-568111D03*
G01X-2104429Y-568111D03*
G01X-2064429Y-568111D03*
G01X-2024429Y-568111D03*
G01X-1984429Y-568111D03*
G01X-1944429Y-568111D03*
G01X-1904429Y-568111D03*
G01X-1864429Y-568111D03*
G01X-1824429Y-568111D03*
G01X-1784430Y-568111D03*
G01X-1744430Y-568111D03*
G01X-1704430Y-568111D03*
G54D24*
G01X-1620680Y-651861D03*
G01X-1620680Y-691860D03*
G01X-1620680Y-731860D03*
G01X-1620680Y-771860D03*
G01X-1620680Y-811860D03*
G01X-1620680Y-851860D03*
G01X-1620680Y-891860D03*
G01X-1620680Y-931860D03*
G01X-1620680Y-971860D03*
G01X-1620680Y-1011860D03*
G01X-1620680Y-1051860D03*
G01X-1620680Y-1091860D03*
G01X-1620680Y-1131860D03*
G01X-1620680Y-1171859D03*
G54D23*
G01X-1704430Y-1255609D03*
G01X-1744430Y-1255609D03*
G01X-1784430Y-1255609D03*
G01X-1824429Y-1255609D03*
G01X-1864429Y-1255609D03*
G01X-1904429Y-1255609D03*
G01X-1944429Y-1255609D03*
G01X-1984429Y-1255609D03*
G01X-2024429Y-1255609D03*
G01X-2064429Y-1255609D03*
G01X-2104429Y-1255609D03*
G01X-2144429Y-1255609D03*
G01X-2184429Y-1255609D03*
G01X-2224429Y-1255609D03*
G54D24*
G01X-2308179Y-1171859D03*
G01X-2308179Y-1131860D03*
G01X-2308179Y-1091860D03*
G01X-2308179Y-1051860D03*
G01X-2308179Y-1011860D03*
G01X-2308179Y-971860D03*
G01X-2308179Y-931860D03*
G01X-2308179Y-891860D03*
G01X-2308179Y-851860D03*
G01X-2308179Y-811860D03*
G01X-2308179Y-771860D03*
G01X-2308179Y-731860D03*
G01X-2308179Y-691860D03*
G01X-2308179Y-651861D03*
G54D25*
G01X-1964429Y-911860D03*
G54D26*
G01X-3621050Y-523575D03*
G01X-3494050Y-523575D03*
G01X-3367050Y-523575D03*
G01X-3240050Y-523575D03*
G01X-3240050Y-1243573D03*
G01X-3367050Y-1243573D03*
G01X-3494050Y-1243573D03*
G01X-3621050Y-1243573D03*
G54D27*
G01X-635547Y-1032499D03*
G01X-635547Y-1252498D03*
G01X-805547Y-1252498D03*
G01X-805547Y-1032499D03*
G54D28*
G01X-2598808Y387502D03*
G54D29*
G01X-2702288Y387502D03*
G54D28*
G01X-2598808Y519336D03*
G54D29*
G01X-2702288Y519336D03*
G54D30*
G01X-505547Y-1602498D03*
G01X-505547Y-1122499D03*
G01X-75547Y-1122499D03*
G01X-75547Y-1602498D03*
G54D31*
G01X-1395838Y-1927300D03*
G54D32*
G01X-1292359Y-1927300D03*
G54D33*
G01X-1010420Y559737D03*
G01X-1090404Y559737D03*
G01X-1170414Y559737D03*
G01X-1250399Y559737D03*
G01X-1010420Y948240D03*
G01X-1090404Y948240D03*
G01X-1170414Y948240D03*
G01X-1250399Y948240D03*
G54D34*
G01X-1130409Y754001D03*
G54D33*
G01X-2104040Y559248D03*
G01X-2184024Y559248D03*
G01X-2264034Y559248D03*
G01X-2344019Y559248D03*
G01X-2104040Y947751D03*
G01X-2184024Y947751D03*
G01X-2264034Y947751D03*
G01X-2344019Y947751D03*
G54D34*
G01X-2224029Y753512D03*
G54D35*
G01X-460547Y428503D03*
G54D36*
G01X-460547Y610502D03*
G54D35*
G01X-290547Y428503D03*
G54D36*
G01X-290547Y610502D03*
G54D35*
G01X-1720548Y398503D03*
G54D36*
G01X-1720548Y580503D03*
G54D35*
G01X-1550548Y398503D03*
G54D36*
G01X-1550548Y580503D03*
G54D37*
G01X-3460549Y174602D03*
G01X-3460549Y560403D03*
G54D15*
G01X-2780551Y-711131D03*
G01X-2640546Y-711131D03*
G01X-2780551Y-1441131D03*
G01X-2640546Y-1441131D03*
G54D18*
G01X-1221549Y-847998D03*
G54D19*
G01X-1403549Y-847998D03*
G54D18*
G01X-2623553Y-554920D03*
G54D19*
G01X-2805553Y-554920D03*
G54D18*
G01X-2623553Y-403573D03*
G54D19*
G01X-2805553Y-403573D03*
G04 Pad End*

G04 Via Start*
G54D38*
G01X-1890548Y817503D03*
G01X-3021547Y-146499D03*
G01X-2654547Y257200D03*
G01X-1720548Y398503D03*
G01X-2463544Y242708D03*
G01X-460547Y428503D03*
G01X-130545Y947505D03*
G01X-130545Y747504D03*
G01X-130545Y547504D03*
G01X-130545Y-652496D03*
G01X-130545Y-852496D03*
G01X-130545Y-1052496D03*
G01X-130545Y-1852497D03*
G01X-330545Y947505D03*
G01X-330545Y747504D03*
G01X-310547Y457503D03*
G01X-330545Y147504D03*
G01X-330545Y-852496D03*
G01X-330545Y-1852497D03*
G01X-530546Y1347505D03*
G01X-530546Y1147505D03*
G01X-530546Y947505D03*
G01X-530546Y747504D03*
G01X-530546Y347504D03*
G01X-530546Y-652496D03*
G01X-530546Y-852496D03*
G01X-530546Y-1252497D03*
G01X-530546Y-2052497D03*
G01X-530546Y-2252497D03*
G01X-530546Y-2452497D03*
G01X-730546Y1347505D03*
G01X-730546Y1147505D03*
G01X-730546Y947505D03*
G01X-730546Y747504D03*
G01X-730546Y547504D03*
G01X-730546Y347504D03*
G01X-730546Y-252496D03*
G01X-730546Y-652496D03*
G01X-730546Y-2052497D03*
G01X-730546Y-2452497D03*
G01X-930546Y1147505D03*
G01X-930546Y747504D03*
G01X-930546Y-252496D03*
G01X-930546Y-2052497D03*
G01X-930546Y-2452497D03*
G01X-1130546Y-252496D03*
G01X-1130546Y-652496D03*
G01X-1130546Y-2052497D03*
G01X-1130546Y-2252497D03*
G01X-1130546Y-2452497D03*
G01X-1330546Y-252496D03*
G01X-1330546Y-2052497D03*
G01X-1330546Y-2252497D03*
G01X-1330546Y-2452497D03*
G01X-1530546Y947505D03*
G01X-1530546Y347504D03*
G01X-1530546Y-1652497D03*
G01X-1530546Y-2052497D03*
G01X-1530546Y-2452497D03*
G01X-1730546Y1347505D03*
G01X-1730546Y947505D03*
G01X-1730546Y747504D03*
G01X-1730546Y-2252497D03*
G01X-1730546Y-2452497D03*
G01X-1930546Y1147505D03*
G01X-1930546Y-2452497D03*
G01X-2130546Y-2252497D03*
G01X-2530547Y1347505D03*
G01X-2530547Y1147505D03*
G01X-2530547Y947505D03*
G01X-2530547Y747504D03*
G01X-2530547Y-1852497D03*
G01X-2730547Y947505D03*
G01X-2930547Y-1252497D03*
G01X-2930547Y-1452497D03*
G01X-2930547Y-1652497D03*
G01X-2930547Y-1852497D03*
G01X-3130547Y-252496D03*
G01X-3130547Y-452496D03*
G01X-3130547Y-1252497D03*
G01X-3330547Y1347505D03*
G01X-3330547Y1147505D03*
G01X-3330547Y947505D03*
G01X-3330547Y547504D03*
G01X-3330547Y-252496D03*
G01X-3330547Y-652496D03*
G01X-3330547Y-852496D03*
G01X-3330547Y-1652497D03*
G01X-3330547Y-1852497D03*
G01X-3530547Y947505D03*
G01X-3530547Y547504D03*
G01X-3530547Y347504D03*
G01X-3530547Y-252496D03*
G01X-3530547Y-652496D03*
G01X-3530547Y-852496D03*
G01X-3530547Y-1052496D03*
G01X-3530547Y-1652497D03*
G01X-3530547Y-1852497D03*
G01X-3730547Y947505D03*
G01X-3730547Y747504D03*
G01X-3730547Y547504D03*
G01X-3730547Y-652496D03*
G01X-3730547Y-852496D03*
G01X-3730547Y-1052496D03*
G01X-3730547Y-1252497D03*
G01X-3730547Y-1652497D03*
G01X-3930547Y947505D03*
G01X-3930547Y747504D03*
G01X-3930547Y547504D03*
G01X-3930547Y-652496D03*
G01X-3930547Y-852496D03*
G01X-3930547Y-1052496D03*
G01X-3930547Y-1252497D03*
G01X-3930547Y-1652497D03*
G01X-3930547Y-1852497D03*
G01X-3930547Y-2052497D03*
G01X-2749558Y1093506D03*
G01X-2993092Y1557503D03*
G01X-2790666Y-2562499D03*
G01X-2990666Y-2562499D03*
G54D39*
G01X-1440548Y-1942499D03*
G54D38*
G01X-2640466Y-1589763D03*
G54D39*
G01X-260547Y-1182498D03*
G01X-300547Y-1552499D03*
G54D38*
G01X-460547Y-1452498D03*
G01X-290547Y-1322498D03*
G01X-100547Y-1322498D03*
G01X-140547Y-1382498D03*
G01X-810547Y-972498D03*
G01X-635547Y-1252498D03*
G01X-1503211Y-62985D03*
G01X-960697Y244788D03*
G01X-1170414Y559737D03*
G01X-1066669Y1314868D03*
G01X-2127544Y1267502D03*
G01X-162089Y-445957D03*
G01X-62089Y-445957D03*
G01X37911Y-445957D03*
G01X37911Y-345998D03*
G01X-62089Y-345998D03*
G01X-162089Y-345998D03*
G01X-162089Y-246040D03*
G01X-62089Y-246040D03*
G01X37911Y-246040D03*
G01X37911Y445956D03*
G01X-62089Y445956D03*
G01X-162089Y445956D03*
G01X-162089Y345998D03*
G01X-62089Y345998D03*
G01X37911Y345998D03*
G01X37911Y246040D03*
G01X-62089Y246040D03*
G01X-162089Y246040D03*
G01X-3922785Y-445217D03*
G01X-3822785Y-445217D03*
G01X-3722785Y-445217D03*
G01X-3722785Y-345259D03*
G01X-3822785Y-345259D03*
G01X-3922785Y-345259D03*
G01X-3922785Y-245300D03*
G01X-3822785Y-245300D03*
G01X-3722785Y-245300D03*
G01X-3923001Y445319D03*
G01X-3823001Y445319D03*
G01X-3723001Y445319D03*
G01X-3923001Y345360D03*
G01X-3823001Y345360D03*
G01X-3723001Y345360D03*
G01X-3723001Y245402D03*
G01X-3823001Y245402D03*
G01X-3923001Y245402D03*
G01X-3723001Y145444D03*
G54D40*
G01X-2343035Y1267504D03*
G54D38*
G01X-1390548Y527503D03*
G01X-2702288Y519336D03*
G01X-3000548Y277502D03*
G01X-3172785Y-90342D03*
G01X-3272785Y-90342D03*
G01X-3322785Y-145342D03*
G01X-3319475Y145527D03*
G01X-3269475Y90527D03*
G01X-60664Y-2522499D03*
G01X29336Y-2462499D03*
G01X76475Y-2370486D03*
G01X89453Y-2032499D03*
G01X89453Y-2132499D03*
G01X89453Y-2242499D03*
G01X49453Y1397503D03*
G01X-10547Y1487503D03*
G01X-190665Y-2562499D03*
G01X-290665Y-2562499D03*
G01X-390665Y-2562499D03*
G01X-490665Y-2562499D03*
G01X-590665Y-2562499D03*
G01X-690665Y-2562499D03*
G01X-790665Y-2562499D03*
G01X-890665Y-2562499D03*
G01X-990665Y-2562499D03*
G01X-1090665Y-2562499D03*
G01X-1190665Y-2562499D03*
G01X-1290665Y-2562499D03*
G01X-1390665Y-2562499D03*
G01X-1490665Y-2562499D03*
G01X-1590665Y-2562499D03*
G01X-1690665Y-2562499D03*
G01X-1790665Y-2562499D03*
G01X-1890666Y-2562499D03*
G01X-1990666Y-2562499D03*
G01X-2090666Y-2562499D03*
G01X-2190666Y-2562499D03*
G01X-2290666Y-2562499D03*
G01X-2390666Y-2562499D03*
G01X-2490666Y-2562499D03*
G01X-2590666Y-2562499D03*
G01X-2690666Y-2562499D03*
G01X-2890666Y-2562499D03*
G01X-3090666Y-2562499D03*
G01X-3190666Y-2562499D03*
G01X-3290666Y-2562499D03*
G01X-3390666Y-2562499D03*
G01X-3490666Y-2562499D03*
G01X-3590666Y-2562499D03*
G01X-3690666Y-2562499D03*
G01X-3790667Y-2562499D03*
G01X-3890549Y-2542499D03*
G01X-3970549Y-2482499D03*
G01X-4014480Y-2378568D03*
G01X-4030549Y-2285224D03*
G01X-4030549Y-2185224D03*
G01X-4030549Y-2085224D03*
G01X-4030549Y-1985224D03*
G01X-4030549Y-1885224D03*
G01X-4030549Y-1785224D03*
G01X-4030549Y-1685224D03*
G01X-4030549Y-1585224D03*
G01X-4030549Y-1485224D03*
G01X-4030549Y-1385224D03*
G01X-4030549Y-1285223D03*
G01X-4030549Y-1185223D03*
G01X-4030549Y-1085223D03*
G01X-4030549Y-985223D03*
G01X-4030549Y-885223D03*
G01X-4030549Y-785223D03*
G01X-4030549Y-685223D03*
G01X-4030549Y-585223D03*
G01X-4030549Y-485223D03*
G01X-4030549Y-385223D03*
G01X-4030549Y-285223D03*
G01X-4030549Y214777D03*
G01X-4030549Y314777D03*
G01X-4030549Y414777D03*
G01X-4030549Y514777D03*
G01X-4030549Y614778D03*
G01X-4030549Y714778D03*
G01X-4030549Y814778D03*
G01X-4030549Y914778D03*
G01X-4030549Y1014778D03*
G01X-4030549Y1114778D03*
G01X-4030549Y1214778D03*
G01X-4007409Y1350643D03*
G01X-3970549Y1447503D03*
G01X-3900549Y1507503D03*
G01X-3793093Y1557503D03*
G01X-3693093Y1557503D03*
G01X-3593093Y1557503D03*
G01X-3493093Y1557503D03*
G01X-3393093Y1557503D03*
G01X-3293092Y1557503D03*
G01X-3193092Y1557503D03*
G01X-3093092Y1557503D03*
G01X-2893092Y1557503D03*
G01X-2793092Y1557503D03*
G01X-2693092Y1557503D03*
G01X-2593092Y1557503D03*
G01X-2493092Y1557503D03*
G01X-2393092Y1557503D03*
G01X-2293092Y1557503D03*
G01X-2193092Y1557503D03*
G01X-2093092Y1557503D03*
G01X-1993092Y1557503D03*
G01X-1893092Y1557503D03*
G01X-1793092Y1557503D03*
G01X-1693092Y1557503D03*
G01X-1593092Y1557503D03*
G01X-1493092Y1557503D03*
G01X-1393091Y1557503D03*
G01X-1293091Y1557503D03*
G01X-1193091Y1557503D03*
G01X-1093091Y1557503D03*
G01X-993091Y1557503D03*
G01X-893091Y1557503D03*
G01X-793091Y1557503D03*
G01X-693091Y1557503D03*
G01X-593091Y1557503D03*
G01X-493091Y1557503D03*
G01X-393091Y1557503D03*
G01X-293091Y1557503D03*
G01X-193091Y1557503D03*
G01X-102560Y1534643D03*
G01X89453Y1267503D03*
G01X89453Y1167503D03*
G01X89453Y1067503D03*
G01X89453Y967503D03*
G01X89453Y867503D03*
G01X89453Y767503D03*
G01X89453Y667503D03*
G01X89453Y567503D03*
G01X89453Y467502D03*
G01X89453Y367502D03*
G01X89453Y267502D03*
G01X89453Y167502D03*
G01X89453Y-232498D03*
G01X89453Y-332498D03*
G01X89453Y-432498D03*
G01X89453Y-532498D03*
G01X89453Y-632498D03*
G01X89453Y-732498D03*
G01X89453Y-832498D03*
G01X89453Y-932498D03*
G01X89453Y-1032498D03*
G01X89453Y-1132498D03*
G01X89453Y-1232498D03*
G01X89453Y-1332498D03*
G01X89453Y-1432499D03*
G01X89453Y-1532499D03*
G01X89453Y-1632499D03*
G01X89453Y-1732499D03*
G01X89453Y-1832499D03*
G01X89453Y-1932499D03*
G01X-2620549Y729757D03*
G01X-2070548Y-1622499D03*
G01X-2230548Y-1622499D03*
G01X-2390548Y-1722499D03*
G01X-2430548Y-2162499D03*
G01X-1380550Y-1441276D03*
G01X-2780548Y-1589763D03*
G01X-1870548Y-1512499D03*
G01X-2050548Y-1512499D03*
G01X-2780551Y-1441131D03*
G01X-2780550Y-713574D03*
G01X-2780550Y-863574D03*
G01X-2780548Y-992498D03*
G54D40*
G01X-1240547Y1257503D03*
G54D39*
G01X-3500549Y827503D03*
G54D38*
G01X-267504Y-316763D03*
G01X-3455053Y-740000D03*
G54D39*
G01X-3295053Y-2150001D03*
G54D38*
G01X-2324548Y-27499D03*
G01X-2360548Y27502D03*
G01X-2749543Y22200D03*
G01X-2572911Y-268673D03*
G01X-1760548Y-1452498D03*
G01X-1710548Y-1392498D03*
G01X-1620548Y-1322498D03*
G01X-1550548Y-1262498D03*
G01X-3046547Y-2393494D03*
G01X-2873547Y-2140495D03*
G01X-3130889Y-2332160D03*
G01X-3290549Y-2312499D03*
G01X-2700548Y-2012499D03*
G01X-2340548Y-1912499D03*
G01X-1740548Y-2092499D03*
G01X-2749543Y228450D03*
G01X-2895934Y-149142D03*
G01X-2765928Y-149142D03*
G01X-3222785Y-145342D03*
G01X-2580889Y90840D03*
G01X-662089Y-146081D03*
G01X-262089Y146081D03*
G01X-762089Y-146081D03*
G01X-1741583Y-310283D03*
G01X-1699545Y-363508D03*
G01X-860547Y386502D03*
G01X-1183351Y247907D03*
G01X-1692506Y242680D03*
G01X-2212089Y91081D03*
G01X-2162089Y146081D03*
G01X-2649475Y90527D03*
G01X-810888Y320840D03*
G01X-1850889Y-659160D03*
G01X-1750889Y-659160D03*
G01X-1950889Y-659160D03*
G01X-2050889Y-659160D03*
G01X-2280889Y-569160D03*
G01X-2633732Y-286317D03*
G01X-2350889Y-569160D03*
G01X-2351600Y-498449D03*
G01X-479636Y-598895D03*
G01X-338214Y-387474D03*
G01X-408925Y-458184D03*
G01X-479636Y-528895D03*
G01X-267504Y-386763D03*
G01X-338214Y-457474D03*
G01X-408925Y-528184D03*
G01X-607506Y-543895D03*
G01X-557506Y-598895D03*
G01X-757506Y-598895D03*
G01X-657506Y-598895D03*
G01X-1607506Y-543895D03*
G01X-1557506Y-598895D03*
G01X-1507506Y-543895D03*
G01X-1457506Y-598895D03*
G01X-1407506Y-543895D03*
G01X-1357506Y-598895D03*
G01X-1207506Y-543895D03*
G01X-1157506Y-598895D03*
G01X-1007506Y-543895D03*
G01X-707506Y-543895D03*
G01X-857507Y-306732D03*
G01X-807507Y-361732D03*
G01X-757507Y-306732D03*
G01X-707507Y-361732D03*
G01X-1007507Y-361732D03*
G01X-712089Y-91081D03*
G01X-607507Y-361732D03*
G01X-657507Y-306732D03*
G01X-907507Y-361732D03*
G01X-957507Y-306732D03*
G01X-1057507Y-306732D03*
G01X-1107507Y-361732D03*
G01X-1157507Y-306732D03*
G01X-1207507Y-361732D03*
G01X-1257507Y-306732D03*
G01X-1307507Y-361732D03*
G01X-1357507Y-306732D03*
G01X-1607507Y-361732D03*
G01X-1649545Y-308508D03*
G01X-1858389Y-284160D03*
G01X-2007507Y-361732D03*
G01X-2057507Y-306732D03*
G01X-2458459Y-386167D03*
G01X-581596Y-294461D03*
G01X-636596Y-244461D03*
G01X-581596Y-194461D03*
G01X-2209782Y-94245D03*
G01X-2154783Y-144245D03*
G01X-2209782Y-194245D03*
G01X-2154783Y-244245D03*
G01X-2990312Y509858D03*
G01X-2935312Y459858D03*
G01X-2990312Y409858D03*
G01X-1762089Y146081D03*
G01X-1712089Y91081D03*
G01X-1662089Y146081D03*
G01X-2466766Y108709D03*
G01X-2919475Y145527D03*
G01X-2819475Y145527D03*
G01X-3219475Y145527D03*
G01X-3119475Y145527D03*
G01X-3019475Y145527D03*
G01X-2012089Y91081D03*
G01X-2062089Y146081D03*
G01X-1812089Y91081D03*
G01X-1862089Y146081D03*
G01X-1962089Y146081D03*
G01X-1912089Y91081D03*
G01X-862089Y146081D03*
G01X-912089Y91081D03*
G01X-962089Y146081D03*
G01X-562089Y146081D03*
G01X-612089Y91081D03*
G01X-662089Y146081D03*
G01X-712089Y91081D03*
G01X-812089Y91081D03*
G01X-762089Y146081D03*
G01X87911Y91081D03*
G01X37911Y146081D03*
G01X-12089Y91081D03*
G01X-62089Y146081D03*
G01X-112089Y91081D03*
G01X-162089Y146081D03*
G01X-212089Y91081D03*
G01X-2769475Y90527D03*
G01X-2969475Y90527D03*
G01X-3069475Y90527D03*
G01X-3169475Y90527D03*
G01X-3773001Y90444D03*
G01X-3873001Y90444D03*
G01X-3973001Y90444D03*
G01X-3623001Y145444D03*
G01X-3823001Y145444D03*
G01X-4023001Y145444D03*
G01X37911Y-146081D03*
G01X-62089Y-146081D03*
G01X-162089Y-146081D03*
G01X87911Y-91081D03*
G01X-12089Y-91081D03*
G01X-112089Y-91081D03*
G01X-212089Y-91081D03*
G01X-862089Y-146081D03*
G01X-962089Y-146081D03*
G01X-1062089Y-146081D03*
G01X-1162089Y-146081D03*
G01X-1262089Y-146081D03*
G01X-1362089Y-146081D03*
G01X-812089Y-91081D03*
G01X-912089Y-91081D03*
G01X-1012089Y-91081D03*
G01X-1112089Y-91081D03*
G01X-1212089Y-91081D03*
G01X-1562089Y-146081D03*
G01X-1862089Y-146081D03*
G01X-1962089Y-146081D03*
G01X-2062089Y-146081D03*
G01X-1912089Y-91081D03*
G01X-2012089Y-91081D03*
G01X-1462089Y-146081D03*
G01X-2622785Y-145342D03*
G01X-2572785Y-90342D03*
G01X-3422785Y-145342D03*
G01X-3522785Y-145342D03*
G01X-3622785Y-145342D03*
G01X-3722785Y-145342D03*
G01X-3822785Y-145342D03*
G01X-3922785Y-145342D03*
G01X-4022785Y-145342D03*
G01X-3372785Y-90342D03*
G01X-3472785Y-90342D03*
G01X-3572785Y-90342D03*
G01X-3672785Y-90342D03*
G01X-3772785Y-90342D03*
G01X-3872785Y-90342D03*
G01X-3972785Y-90342D03*
G01X-2217269Y-1029860D03*
G01X-2217269Y-915560D03*
G01X-1696569Y-968900D03*
G01X-3280549Y627503D03*
G01X-3060890Y770841D03*
G01X-1704189Y-811420D03*
G01X-1721108Y814381D03*
G01X-1389229Y-49420D03*
G01X-1437489Y-31640D03*
G01X-1389229Y3073D03*
G01X-1437489Y22547D03*
G01X-1389229Y55567D03*
G01X-1437489Y76733D03*
G01X-1389229Y108060D03*
G01X-1437489Y130920D03*
G01X-1836454Y-201066D03*
G01X-412932Y-33020D03*
G01X-467773Y33350D03*
G01X-1260548Y187502D03*
G01X-1540548Y717503D03*
G01X-2524034Y447874D03*
G01X-2748129Y689720D03*
G01X-2875751Y689152D03*
G01X-1631214Y-205754D03*
G01X-2230548Y257502D03*
G54D41*
G01X-925051Y-1060001D03*
G01X-1517115Y-1104924D03*
G54D38*
G01X-330547Y257502D03*
G54D41*
G01X-870547Y1307503D03*
G01X-1940548Y1297503D03*
G54D38*
G01X-2370548Y-1552499D03*
G01X-1945548Y447874D03*
G01X-460547Y607503D03*
G01X-2221039Y-1123998D03*
G01X-1610548Y1257503D03*
G01X-2648547Y1098499D03*
G01X-2656547Y1330498D03*
G01X-2750548Y1327503D03*
G54D40*
G01X-3345053Y1250001D03*
G54D39*
G01X-3450549Y227502D03*
G54D38*
G01X-1958189Y-1169560D03*
G01X-2137039Y-1172998D03*
G01X-2115052Y-1370001D03*
G01X-2106669Y-1460500D03*
G01X-1829049Y-777280D03*
G01X-2099049Y-867280D03*
G01X-1829049Y-957280D03*
G01X-2099049Y-1047280D03*
G01X-2009049Y-1047280D03*
G01X-1919049Y-1047280D03*
G01X-1829049Y-1047280D03*
G01X-1919049Y-957280D03*
G01X-2009049Y-957280D03*
G01X-2099049Y-957280D03*
G01X-2009049Y-867280D03*
G01X-1919049Y-777280D03*
G01X-2009049Y-777280D03*
G01X-2099049Y-777280D03*
G01X-1829049Y-867280D03*
G01X-1919049Y-867280D03*
G01X-842105Y-2242160D03*
G01X-840547Y-1852499D03*
G01X-1525052Y-1840001D03*
G01X-1029709Y-1159662D03*
G01X-1228947Y-1104900D03*
G01X-1240547Y-992498D03*
G01X-1380548Y-972498D03*
G01X-1910548Y-1622499D03*
G01X-2150548Y-1612499D03*
G01X-2465052Y-840000D03*
G01X-2230550Y-803574D03*
G01X-2205052Y-740000D03*
G01X-2905053Y-1090001D03*
G01X-3835053Y-1170001D03*
G01X-1820549Y-1613574D03*
G01X-1810549Y-1383574D03*
G01X-2750550Y-1213574D03*
G01X-2800550Y-1293574D03*
G01X-1380550Y-1293741D03*
G01X-1240545Y-701276D03*
G01X-2005052Y-1450001D03*
G01X-2785052Y-380000D03*
G01X-2719475Y145527D03*
G01X-2585052Y-380000D03*
G01X-2653379Y-594920D03*
G01X-2640546Y-861131D03*
G01X-2645052Y-990001D03*
G01X-2805553Y-554920D03*
G01X-2715052Y-1090001D03*
G01X-2955053Y-1180001D03*
G01X-3923001Y145444D03*
G01X-1455469Y-284957D03*
G01X-864536Y-680071D03*
G01X-873771Y-837698D03*
G01X-1107506Y-543895D03*
G01X-1057506Y-598895D03*
G01X-1364909Y-476999D03*
G01X-1407175Y-432818D03*
G01X-230889Y-2039160D03*
G01X-20889Y-2249160D03*
G01X-230889Y-2459160D03*
G01X-440889Y-2249160D03*
G01X-379382Y-2100668D03*
G01X-379382Y-2397653D03*
G01X-82397Y-2397653D03*
G01X-82397Y-2100668D03*
G01X-424903Y-2168795D03*
G01X-311254Y-2443174D03*
G01X-36875Y-2329525D03*
G01X-150524Y-2055146D03*
G01X-424904Y-2329522D03*
G01X-311251Y-2055145D03*
G01X-36874Y-2168798D03*
G01X-150527Y-2443175D03*
G01X-3710889Y-2039160D03*
G01X-3500889Y-2249160D03*
G01X-3710889Y-2459160D03*
G01X-3920889Y-2249160D03*
G01X-3859382Y-2100668D03*
G01X-3859382Y-2397653D03*
G01X-3562397Y-2397653D03*
G01X-3562397Y-2100668D03*
G01X-3904904Y-2168795D03*
G01X-3791254Y-2443174D03*
G01X-3516875Y-2329525D03*
G01X-3630524Y-2055146D03*
G01X-3904905Y-2329522D03*
G01X-3791251Y-2055145D03*
G01X-3516874Y-2168798D03*
G01X-3630527Y-2443175D03*
G01X-230889Y1440840D03*
G01X-20889Y1230840D03*
G01X-230889Y1020840D03*
G01X-440889Y1230840D03*
G01X-379382Y1379333D03*
G01X-379382Y1082348D03*
G01X-82397Y1082348D03*
G01X-82397Y1379333D03*
G01X-424903Y1311205D03*
G01X-311254Y1036826D03*
G01X-36875Y1150475D03*
G01X-150524Y1424854D03*
G01X-424904Y1150478D03*
G01X-311251Y1424855D03*
G01X-36874Y1311202D03*
G01X-150527Y1036825D03*
G01X-3710889Y1440840D03*
G01X-3500889Y1230840D03*
G01X-3710889Y1020840D03*
G01X-3920889Y1230840D03*
G01X-3859382Y1379333D03*
G01X-3859382Y1082348D03*
G01X-3562397Y1082348D03*
G01X-3562397Y1379333D03*
G01X-3904904Y1311205D03*
G01X-3791254Y1036826D03*
G01X-3516875Y1150475D03*
G01X-3630524Y1424854D03*
G01X-3904905Y1150478D03*
G01X-3791251Y1424855D03*
G01X-3516874Y1311202D03*
G01X-3630527Y1036825D03*
G54D42*
G01X-1010420Y834011D03*
G01X-1090404Y834011D03*
G01X-1170414Y834011D03*
G01X-1250399Y834011D03*
G01X-1250399Y754001D03*
G01X-1170414Y754001D03*
G01X-1090404Y754001D03*
G01X-1010420Y754001D03*
G01X-1010420Y673991D03*
G01X-1090404Y673991D03*
G01X-1170414Y673991D03*
G01X-1250399Y673991D03*
G01X-2104040Y833522D03*
G01X-2184024Y833522D03*
G01X-2264034Y833522D03*
G01X-2344019Y833522D03*
G01X-2344019Y753512D03*
G01X-2264034Y753512D03*
G01X-2184024Y753512D03*
G01X-2104040Y753512D03*
G01X-2104040Y673502D03*
G01X-2184024Y673502D03*
G01X-2264034Y673502D03*
G01X-2344019Y673502D03*
G04 Via End*

G04 Track Start*
G54D43*
G01X-1390548Y520381D02*
G01X-1390548Y527503D01*
G01X-1250399Y380233D02*
G01X-1390548Y520381D01*
G54D44*
G01X-290547Y598503D02*
G01X-290547Y610502D01*
G01X-460547Y428503D02*
G01X-290547Y598503D01*
G01X-1550548Y568503D02*
G01X-1550548Y580503D01*
G01X-1720548Y398503D02*
G01X-1550548Y568503D01*
G54D45*
G01X-1530179Y-1091860D02*
G01X-1517115Y-1104924D01*
G01X-1620680Y-1091860D02*
G01X-1530179Y-1091860D01*
G54D44*
G01X-2342911Y-1131860D02*
G01X-2308179Y-1131860D01*
G01X-2407548Y-1196496D02*
G01X-2342911Y-1131860D01*
G01X-2407548Y-1429498D02*
G01X-2407548Y-1196496D01*
G01X-2364589Y-1228270D02*
G01X-2364589Y-1546462D01*
G01X-2308179Y-1171859D02*
G01X-2364589Y-1228270D01*
G01X-2567813Y-1589763D02*
G01X-2407548Y-1429498D01*
G01X-2115052Y-1370001D02*
G01X-2144429Y-1340624D01*
G01X-2144429Y-1255609D01*
G54D46*
G01X-1411037Y-1942499D02*
G01X-1440548Y-1942499D01*
G01X-1395838Y-1927300D02*
G01X-1411037Y-1942499D01*
G01X-675349Y-1927300D02*
G01X-300547Y-1552499D01*
G01X-1292359Y-1927300D02*
G01X-675349Y-1927300D01*
G01X-290547Y-1322498D02*
G01X-400547Y-1322498D01*
G01X-290547Y-1322498D02*
G01X-100547Y-1322498D01*
G01X-400547Y-1322498D02*
G01X-652762Y-1574714D01*
G01X-140547Y-1382498D02*
G01X-400547Y-1382498D01*
G01X-772762Y-1754714D01*
G54D43*
G01X-2184024Y947751D02*
G01X-2184024Y1054767D01*
G01X-1250399Y380233D02*
G01X-1250399Y559737D01*
G01X-1247668Y377502D02*
G01X-1250399Y380233D01*
G01X-3330549Y347502D02*
G01X-2879569Y347502D01*
G01X-2763921Y457702D02*
G01X-2702288Y519336D01*
G01X-2769369Y457702D02*
G01X-2763921Y457702D01*
G01X-2879569Y347502D02*
G01X-2769369Y457702D01*
G01X-3450549Y227502D02*
G01X-3330549Y347502D01*
G01X-2351289Y387502D02*
G01X-2341288Y377502D01*
G01X-2598808Y387502D02*
G01X-2351289Y387502D01*
G01X-2341288Y556518D02*
G01X-2344019Y559248D01*
G01X-2341288Y377502D02*
G01X-2341288Y556518D01*
G01X-2598809Y519336D02*
G01X-2598809Y387502D01*
G01X-2812288Y277502D02*
G01X-2702288Y387502D01*
G01X-3000548Y277502D02*
G01X-2812288Y277502D01*
G54D44*
G01X-2104040Y439804D02*
G01X-2104040Y559248D01*
G01X-2072543Y408307D02*
G01X-2104040Y439804D01*
G01X-1010420Y432259D02*
G01X-1010420Y559737D01*
G01X-988850Y410690D02*
G01X-1010420Y432259D01*
G54D46*
G01X-2901228Y-2442499D02*
G01X-2790889Y-2332160D01*
G01X-2997542Y-2442499D02*
G01X-2901228Y-2442499D01*
G01X-3046547Y-2393494D02*
G01X-2997542Y-2442499D01*
G54D44*
G01X-2915789Y-2057739D02*
G01X-2595788Y-2057739D01*
G01X-2960889Y-2102840D02*
G01X-2915789Y-2057739D01*
G01X-2960889Y-2150161D02*
G01X-2960889Y-2102840D01*
G01X-2450548Y-1912499D02*
G01X-2595788Y-2057739D01*
G01X-2980549Y-2012499D02*
G01X-3118210Y-2150161D01*
G01X-2700548Y-2012499D02*
G01X-2980549Y-2012499D01*
G01X-2700548Y-2392499D02*
G01X-2700548Y-2240501D01*
G01X-2790889Y-2150161D01*
G01X-2650548Y-2442499D02*
G01X-2700548Y-2392499D01*
G01X-2090548Y-2442499D02*
G01X-2650548Y-2442499D01*
G01X-1740548Y-2092499D02*
G01X-2090548Y-2442499D01*
G01X-2225548Y-1627499D02*
G01X-2225548Y-1682501D01*
G01X-2230548Y-1622499D02*
G01X-2225548Y-1627499D01*
G01X-2070548Y-1677501D02*
G01X-2075548Y-1682501D01*
G01X-2070548Y-1622499D02*
G01X-2070548Y-1677501D01*
G01X-805547Y-1252498D02*
G01X-806354Y-1253306D01*
G01X-888556Y-1253306D01*
G01X-889363Y-1252498D01*
G01X-1000547Y-1252498D01*
G01X-1389326Y-841276D02*
G01X-1380550Y-841276D01*
G01X-1439909Y-891860D02*
G01X-1620680Y-891860D01*
G01X-1389326Y-841276D02*
G01X-1439909Y-891860D01*
G54D46*
G01X-1521186Y-971860D02*
G01X-1620680Y-971860D01*
G01X-1388146Y-1104900D02*
G01X-1521186Y-971860D01*
G01X-1368952Y-1104900D02*
G01X-1388146Y-1104900D01*
G54D44*
G01X-2640544Y-1589763D02*
G01X-2567813Y-1589763D01*
G01X-1864429Y-1481378D02*
G01X-1925548Y-1542496D01*
G01X-1864429Y-1255609D02*
G01X-1864429Y-1481378D01*
G01X-2213788Y-1549258D02*
G01X-2225548Y-1549258D01*
G01X-2150548Y-1612499D02*
G01X-2213788Y-1549258D01*
G54D46*
G01X-2223509Y-1547219D02*
G01X-2225548Y-1549258D01*
G01X-2873547Y-2244818D02*
G01X-2960889Y-2332160D01*
G01X-2873547Y-2140495D02*
G01X-2873547Y-2244818D01*
G01X-2501998Y-338466D02*
G01X-2254082Y-338466D01*
G01X-2572911Y-267553D02*
G01X-2501998Y-338466D01*
G01X-2572911Y-268673D02*
G01X-2572911Y-267553D01*
G01X-2254082Y-338466D02*
G01X-2228789Y-363759D01*
G01X-2070611Y-252378D02*
G01X-1983042Y-252378D01*
G01X-2180335Y-362102D02*
G01X-2070611Y-252378D01*
G01X-2223509Y-362102D02*
G01X-2180335Y-362102D01*
G01X-1983042Y-252378D02*
G01X-1893551Y-341870D01*
G54D44*
G01X-1744430Y-1326380D02*
G01X-1744430Y-1255609D01*
G01X-1755748Y-1337699D02*
G01X-1744430Y-1326380D01*
G01X-1755748Y-1447699D02*
G01X-1755748Y-1337699D01*
G01X-1760548Y-1452498D02*
G01X-1755748Y-1447699D01*
G01X-1704430Y-1386380D02*
G01X-1704430Y-1255609D01*
G01X-1710548Y-1392498D02*
G01X-1704430Y-1386380D01*
G01X-1620548Y-1322498D02*
G01X-1620548Y-1182498D01*
G01X-1577756Y-1131860D02*
G01X-1620680Y-1131860D01*
G01X-1550548Y-1159068D02*
G01X-1577756Y-1131860D01*
G01X-1550548Y-1262498D02*
G01X-1550548Y-1159068D01*
G01X-3118210Y-2150161D02*
G01X-3130889Y-2150161D01*
G01X-2340548Y-1912499D02*
G01X-2450548Y-1912499D01*
G01X-1693609Y-971860D02*
G01X-1696569Y-968900D01*
G01X-1620680Y-971860D02*
G01X-1693609Y-971860D01*
G01X-2240969Y-891860D02*
G01X-2217269Y-915560D01*
G01X-2308179Y-891860D02*
G01X-2240969Y-891860D01*
G01X-2217269Y-1043874D02*
G01X-2217269Y-1029860D01*
G01X-2265255Y-1091860D02*
G01X-2217269Y-1043874D01*
G01X-2308179Y-1091860D02*
G01X-2265255Y-1091860D01*
G01X-2308179Y-1091860D02*
G01X-2309679Y-1093360D01*
G01X-1703749Y-811860D02*
G01X-1704189Y-811420D01*
G01X-1620680Y-811860D02*
G01X-1703749Y-811860D01*
G54D46*
G01X-2223281Y-358946D02*
G01X-2223281Y-361874D01*
G01X-2223509Y-362102D01*
G54D44*
G01X-2364589Y-1546462D02*
G01X-2370626Y-1552499D01*
G01X-2024429Y-1212629D02*
G01X-2024429Y-1255609D01*
G01X-1981360Y-1169560D02*
G01X-2024429Y-1212629D01*
G01X-1958189Y-1169560D02*
G01X-1981360Y-1169560D01*
G01X-2184429Y-1382740D02*
G01X-2184429Y-1255609D01*
G01X-2106669Y-1460500D02*
G01X-2184429Y-1382740D01*
G54D46*
G01X-2223509Y-1256529D02*
G01X-2224429Y-1255609D01*
G01X-2223509Y-1547219D02*
G01X-2223509Y-1256529D01*
G01X-1380548Y-972498D02*
G01X-1421186Y-931860D01*
G01X-1620680Y-931860D01*
G01X-1865369Y-567171D02*
G01X-1864429Y-568111D01*
G01X-1865369Y-364642D02*
G01X-1865369Y-567171D01*
G01X-2223509Y-567191D02*
G01X-2224429Y-568111D01*
G01X-2223509Y-362102D02*
G01X-2223509Y-567191D01*
G54D44*
G01X-2378835Y-1091860D02*
G01X-2308179Y-1091860D01*
G01X-2450550Y-1163574D02*
G01X-2378835Y-1091860D01*
G01X-2640546Y-1441131D02*
G01X-2598106Y-1441131D01*
G01X-2450550Y-1293574D01*
G01X-2450550Y-1163574D01*
G01X-2308179Y-1051860D02*
G01X-2381601Y-1051860D01*
G01X-2617550Y-1287808D01*
G01X-2475836Y-1011860D02*
G01X-2308179Y-1011860D01*
G01X-2617550Y-1153574D02*
G01X-2550550Y-1153574D01*
G01X-2640546Y-711131D02*
G01X-2640546Y-743972D01*
G01X-2492657Y-891860D01*
G01X-2308179Y-891860D01*
G01X-2453193Y-851860D02*
G01X-2308179Y-851860D01*
G01X-2465052Y-840000D02*
G01X-2453193Y-851860D01*
G01X-2238836Y-811860D02*
G01X-2308179Y-811860D01*
G01X-2230550Y-803574D02*
G01X-2238836Y-811860D01*
G01X-2308179Y-771860D02*
G01X-2262759Y-771860D01*
G01X-2230899Y-740000D01*
G01X-2205052Y-740000D01*
G01X-2308179Y-731860D02*
G01X-2502714Y-731860D01*
G01X-2591143Y-643431D01*
G01X-3367050Y-545860D02*
G01X-3367050Y-523575D01*
G01X-2591143Y-643431D02*
G01X-3269480Y-643431D01*
G01X-3367050Y-545860D01*
G01X-3494050Y-523575D02*
G01X-3485347Y-514871D01*
G01X-3485347Y-493658D02*
G01X-3395262Y-403573D01*
G01X-3485347Y-514871D02*
G01X-3485347Y-493658D01*
G01X-3395262Y-403573D02*
G01X-3085053Y-403573D01*
G01X-3621050Y-523575D02*
G01X-3621050Y-517258D01*
G54D46*
G01X-1820549Y-1613574D02*
G01X-1679409Y-1754714D01*
G01X-772762Y-1754714D01*
G01X-1810549Y-1383574D02*
G01X-1810549Y-1493574D01*
G01X-1729409Y-1574714D01*
G01X-652762Y-1574714D01*
G54D44*
G01X-2550550Y-1153574D02*
G01X-2510549Y-1113574D01*
G01X-2510549Y-1046573D01*
G01X-2475836Y-1011860D01*
G01X-1000547Y-1252498D02*
G01X-1041790Y-1293741D01*
G01X-1240545Y-1293741D01*
G01X-1620680Y-851860D02*
G01X-1531134Y-851860D01*
G01X-1380550Y-701276D01*
G01X-1357648Y-701276D01*
G01X-1289948Y-768976D01*
G01X-836890Y-768976D01*
G01X-635547Y-970319D01*
G01X-635547Y-1032499D01*
G01X-1221549Y-847998D02*
G01X-1219970Y-847998D01*
G01X-1219270Y-847298D01*
G01X-1181825Y-847298D01*
G01X-826760Y-1252498D02*
G01X-805547Y-1252498D01*
G01X-1181825Y-847298D02*
G01X-1015052Y-1014071D01*
G01X-1015052Y-1064207D01*
G01X-826760Y-1252498D01*
G01X-2353192Y-651861D02*
G01X-2308179Y-651861D01*
G01X-3085053Y-403573D02*
G01X-2999606Y-489020D01*
G01X-2566032Y-489020D01*
G01X-2645052Y-430000D02*
G01X-2575052Y-430000D01*
G01X-2353192Y-651861D01*
G01X-3621050Y-517258D02*
G01X-3433791Y-330000D01*
G01X-2745052Y-330000D01*
G01X-2645052Y-430000D01*
G01X-840547Y-1852499D02*
G01X-1512554Y-1852499D01*
G01X-1525052Y-1840001D01*
G01X-1955052Y-1840001D01*
G01X-2005052Y-1790001D02*
G01X-1955052Y-1840001D01*
G01X-2005052Y-1450001D02*
G01X-2005052Y-1790001D01*
G01X-2363192Y-691860D02*
G01X-2308179Y-691860D01*
G01X-2566032Y-489020D02*
G01X-2363192Y-691860D01*
G01X-2221039Y-1123998D02*
G01X-2101055Y-1123998D01*
G01X-2064429Y-1160624D01*
G01X-2064429Y-1255609D01*
G01X-2104429Y-1205608D02*
G01X-2104429Y-1255609D01*
G01X-2137039Y-1172998D02*
G01X-2104429Y-1205608D01*
G01X-2308179Y-931860D02*
G01X-2315478Y-924560D01*
G01X-2358402Y-924560D01*
G01X-2360902Y-922060D01*
G01X-2505167Y-922060D01*
G01X-2566096Y-861131D01*
G01X-2640546Y-861131D01*
G01X-2308179Y-971860D02*
G01X-2601275Y-971860D01*
G01X-2640546Y-1011131D01*
G01X-2645052Y-990001D02*
G01X-2640546Y-994507D01*
G01X-2640546Y-1011131D01*
G01X-2905053Y-1090001D02*
G01X-3219794Y-1090001D01*
G01X-3367050Y-1237257D01*
G01X-3367050Y-1243573D01*
G01X-2749823Y-1087673D02*
G01X-2837380Y-1087673D01*
G01X-2905053Y-1020000D01*
G01X-2715052Y-1090001D02*
G01X-2747496Y-1090001D01*
G01X-2749823Y-1087673D01*
G01X-2905053Y-1020000D02*
G01X-3291691Y-1020000D01*
G01X-3494050Y-1222360D01*
G01X-3494050Y-1243573D01*
G01X-2955053Y-1180001D02*
G01X-3176478Y-1180001D01*
G01X-3240050Y-1243573D01*
G01X-3621050Y-1243573D02*
G01X-3694622Y-1170001D01*
G01X-3835053Y-1170001D01*
G54D45*
G01X-2341288Y377502D02*
G01X-2303870Y340083D01*
G01X-2017787Y340083D01*
G54D44*
G01X-1945548Y447874D02*
G01X-1853177Y447874D01*
G01X-1720548Y580503D01*
G54D45*
G01X-2001933Y845645D02*
G01X-2104040Y947751D01*
G01X-2001443Y356427D02*
G01X-2001443Y460188D01*
G01X-2001933Y460678D01*
G01X-2001933Y845645D01*
G01X-2017787Y340083D02*
G01X-2001443Y356427D01*
G01X-880146Y817966D02*
G01X-1010420Y948240D01*
G01X-910948Y514050D02*
G01X-880146Y544852D01*
G01X-880146Y817966D01*
G01X-943560Y332999D02*
G01X-910948Y365611D01*
G01X-910948Y514050D01*
G01X-1247668Y377502D02*
G01X-1203165Y332999D01*
G01X-943560Y332999D01*
G01X-2264034Y559248D02*
G01X-2264034Y673502D01*
G54D43*
G01X-2184024Y1054767D02*
G01X-2161288Y1077503D01*
G01X-2148760Y1077503D01*
G01X-1097503Y1077503D02*
G01X-1090404Y1070404D01*
G01X-1090404Y948240D01*
G04 Track End*

M02*

