G04 Layer: InnerLayer1*
G04 EasyEDA Pro v2.1.64.d1969c9c.217bcf, 2024-08-30 02:53:31*
G04 Gerber Generator version 0.3*
G04 Scale: 100 percent, Rotated: No, Reflected: No*
G04 Dimensions in millimeters*
G04 Leading zeros omitted, absolute positions, 3 integers and 5 decimals*
%FSLAX35Y35*%
%MOMM*%
%ADD10C,5.2*%
%ADD11C,1.1*%
%ADD12C,0.45*%
%ADD13C,0.50002*%
%ADD14C,0.6*%
%ADD15C,0.55*%
%ADD16C,0.8*%
%ADD17C,0.6517*%
%ADD18C,0.65*%
G75*


G04 PlaneZone Start*
G36*
G01X-1840340Y-2104532D02*
G02X-2089286Y-1855587I0J248946D01*
G01Y1844414D01*
G02X-1840340Y2093360I248946J0D01*
G01X1859660D01*
G02X2108606Y1844414I0J-248946D01*
G01Y-1855587D01*
G02X1859660Y-2104532I-248946J0D01*
G01X-1840340D01*
G37*
%LPC*%
G36*
G01X1690002Y-593480D02*
G03X1799556Y-483926I0J109554D01*
G03X1690002Y-374372I-109554J0D01*
G03X1580448Y-483926I0J-109554D01*
G03X1690002Y-593480I109554J0D01*
G37*
G36*
G01X220001Y-997079D02*
G03X268155Y-948925I0J48154D01*
G03X266646Y-936962I-48154J0D01*
G03X270001Y-937079I3356J48037D01*
G03X318156Y-888925I0J48154D01*
G03X270001Y-840771I-48154J0D01*
G03X221847Y-888925I0J-48154D01*
G03X223357Y-900888I48154J0D01*
G03X220001Y-900771I-3356J-48037D01*
G03X213211Y-901252I0J-48154D01*
G03X218154Y-880000I-43211J21252D01*
G03X170000Y-831846I-48154J0D01*
G03X121846Y-880000I0J-48154D01*
G03X170000Y-928155I48154J0D01*
G03X176790Y-927673I0J48154D01*
G03X171847Y-948925I43211J-21252D01*
G03X220001Y-997079I48154J0D01*
G37*
G36*
G01X-69999Y-1057079D02*
G03X-22529Y-1017012I0J48154D01*
G01X-19999Y-1017079D01*
G03X28155Y-968925I0J48154D01*
G03X-19999Y-920771I-48154J0D01*
G03X-67469Y-960838I0J-48154D01*
G01X-69999Y-960771D01*
G03X-78181Y-961471I0J-48154D01*
G03X-77966Y-956926I-47939J4545D01*
G03X-126120Y-908772I-48154J0D01*
G03X-174274Y-956926I0J-48154D01*
G03X-126120Y-1005081I48154J0D01*
G03X-117938Y-1004380I0J48154D01*
G03X-118153Y-1008925I47939J-4545D01*
G03X-69999Y-1057079I48154J0D01*
G37*
G36*
G01X1608948Y-1233924D02*
G03X1690002Y-1314978I81054J0D01*
G03X1771056Y-1233924I0J81054D01*
G03X1690002Y-1152870I-81054J0D01*
G03X1608948Y-1233924I0J-81054D01*
G37*
G36*
G01X311847Y-818925D02*
G03X360002Y-867079I48154J0D01*
G03X408156Y-818925I0J48154D01*
G03X404062Y-799495I-48154J0D01*
G03X430002Y-807079I25940J40570D01*
G03X478156Y-758925I0J48154D01*
G03X430002Y-710771I-48154J0D01*
G03X381848Y-758925I0J-48154D01*
G03X385942Y-778355I48154J0D01*
G03X360002Y-770771I-25940J-40570D01*
G03X311847Y-818925I0J-48154D01*
G37*
G36*
G01X-820000Y-838155D02*
G03X-771846Y-790000I0J48154D01*
G03X-786787Y-755134I-48154J0D01*
G03X-770000Y-758154I16787J45133D01*
G03X-721846Y-710000I0J48154D01*
G03X-770000Y-661846I-48154J0D01*
G03X-818154Y-710000I0J-48154D01*
G03X-803214Y-744867I48154J0D01*
G03X-820000Y-741846I-16787J-45133D01*
G03X-868155Y-790000I0J-48154D01*
G03X-820000Y-838155I48154J0D01*
G37*
G36*
G01X1791848Y-878925D02*
G03X1840002Y-927079I48154J0D01*
G03X1888156Y-878925I0J48154D01*
G03X1886561Y-866630I-48154J0D01*
G03X1928156Y-818925I-6558J47705D01*
G03X1880002Y-770771I-48154J0D01*
G03X1831848Y-818925I0J-48154D01*
G03X1833444Y-831219I48154J0D01*
G03X1791848Y-878925I6558J-47705D01*
G37*
G36*
G01X-769999Y1782923D02*
G03X-722668Y1822210I0J48154D01*
G03X-675998Y1785918I46670J11862D01*
G03X-627844Y1834072I0J48154D01*
G03X-675998Y1882226I-48154J0D01*
G03X-723329Y1842939I0J-48154D01*
G03X-769999Y1879231I-46670J-11862D01*
G03X-818153Y1831077I0J-48154D01*
G03X-769999Y1782923I48154J0D01*
G37*
G36*
G01X-241800Y-663341D02*
G03X-193646Y-615186I0J48154D01*
G03X-220944Y-571783I-48154J0D01*
G03X-188566Y-526286I-15776J45497D01*
G03X-236720Y-478132I-48154J0D01*
G03X-284874Y-526286I0J-48154D01*
G03X-257576Y-569690I48154J0D01*
G03X-289954Y-615186I15776J-45497D01*
G03X-241800Y-663341I48154J0D01*
G37*
G36*
G01X-250000Y-348154D02*
G03X-201846Y-300000I0J48154D01*
G03X-205548Y-281484I-48154J0D01*
G03X-181846Y-240000I-24452J41484D01*
G03X-230000Y-191846I-48154J0D01*
G03X-278154Y-240000I0J-48154D01*
G03X-274452Y-258516I48154J0D01*
G03X-298154Y-300000I24452J-41484D01*
G03X-250000Y-348154I48154J0D01*
G37*
G36*
G01X-203053Y-863324D02*
G03X-154899Y-911478I48154J0D01*
G03X-114902Y-890140I0J48154D01*
G03X-89999Y-897079I24903J41215D01*
G03X-41845Y-848925I0J48154D01*
G03X-89999Y-800771I-48154J0D01*
G03X-129996Y-822110I0J-48154D01*
G03X-154899Y-815170I-24903J-41215D01*
G03X-203053Y-863324I0J-48154D01*
G37*
G36*
G01X-999999Y1885423D02*
G03X-934345Y1951077I0J65654D01*
G03X-999999Y2016731I-65654J0D01*
G03X-1065653Y1951077I0J-65654D01*
G03X-999999Y1885423I65654J0D01*
G37*
G36*
G01X-362485Y1705424D02*
G03X-296832Y1771078I0J65654D01*
G03X-362485Y1836732I-65654J0D01*
G03X-428139Y1771078I0J-65654D01*
G03X-362485Y1705424I65654J0D01*
G37*
G36*
G01X740002Y1695423D02*
G03X805656Y1761076I0J65654D01*
G03X740002Y1826730I-65654J0D01*
G03X674348Y1761076I0J-65654D01*
G03X740002Y1695423I65654J0D01*
G37*
G36*
G01X992906Y-605026D02*
G03X1051060Y-663181I58154J0D01*
G03X1109214Y-605026I0J58154D01*
G03X1051060Y-546872I-58154J0D01*
G03X992906Y-605026I0J-58154D01*
G37*
G36*
G01X40001Y1742923D02*
G03X98156Y1801077I0J58154D01*
G03X40001Y1859231I-58154J0D01*
G03X-18153Y1801077I0J-58154D01*
G03X40001Y1742923I58154J0D01*
G37*
G36*
G01X405280Y-601351D02*
G03X463434Y-659505I58154J0D01*
G03X521588Y-601351I0J58154D01*
G03X463434Y-543197I-58154J0D01*
G03X405280Y-601351I0J-58154D01*
G37*
G36*
G01X1051848Y1811077D02*
G03X1110002Y1752923I58154J0D01*
G03X1168156Y1811077I0J58154D01*
G03X1110002Y1869231I-58154J0D01*
G03X1051848Y1811077I0J-58154D01*
G37*
G36*
G01X484348Y-1438925D02*
G03X540002Y-1494579I55654J0D01*
G03X595656Y-1438925I0J55654D01*
G03X540002Y-1383271I-55654J0D01*
G03X484348Y-1438925I0J-55654D01*
G37*
G36*
G01X-1150340Y-1312241D02*
G03X-1094686Y-1256587I0J55654D01*
G03X-1150340Y-1200933I-55654J0D01*
G03X-1205994Y-1256587I0J-55654D01*
G03X-1150340Y-1312241I55654J0D01*
G37*
G36*
G01X1680002Y-1104579D02*
G03X1735656Y-1048925I0J55654D01*
G03X1680002Y-993271I-55654J0D01*
G03X1624348Y-1048925I0J-55654D01*
G03X1680002Y-1104579I55654J0D01*
G37*
G36*
G01X1720002Y-734579D02*
G03X1775656Y-678925I0J55654D01*
G03X1720002Y-623271I-55654J0D01*
G03X1664348Y-678925I0J-55654D01*
G03X1720002Y-734579I55654J0D01*
G37*
G36*
G01X-1469999Y675422D02*
G03X-1414345Y731076I0J55654D01*
G03X-1469999Y786730I-55654J0D01*
G03X-1525653Y731076I0J-55654D01*
G03X-1469999Y675422I55654J0D01*
G37*
G36*
G01X-1519999Y1275422D02*
G03X-1464346Y1331076I0J55654D01*
G03X-1519999Y1386730I-55654J0D01*
G03X-1575653Y1331076I0J-55654D01*
G03X-1519999Y1275422I55654J0D01*
G37*
G36*
G01X-1814893Y-1328925D02*
G03X-1761739Y-1382079I53154J0D01*
G03X-1708585Y-1328925I0J53154D01*
G03X-1761739Y-1275771I-53154J0D01*
G03X-1814893Y-1328925I0J-53154D01*
G37*
G36*
G01X-719999Y-1557079D02*
G03X-671845Y-1508925I0J48154D01*
G03X-719999Y-1460771I-48154J0D01*
G03X-768153Y-1508925I0J-48154D01*
G03X-719999Y-1557079I48154J0D01*
G37*
G36*
G01X-941152Y-1636921D02*
G03X-892998Y-1685075I48154J0D01*
G03X-844844Y-1636921I0J48154D01*
G03X-892998Y-1588767I-48154J0D01*
G03X-941152Y-1636921I0J-48154D01*
G37*
G36*
G01X-1150340Y-1876741D02*
G03X-1102186Y-1828587I0J48154D01*
G03X-1150340Y-1780433I-48154J0D01*
G03X-1198494Y-1828587I0J-48154D01*
G03X-1150340Y-1876741I48154J0D01*
G37*
G36*
G01X160000Y-1158155D02*
G03X208154Y-1110001I0J48154D01*
G03X160000Y-1061847I-48154J0D01*
G03X111846Y-1110001I0J-48154D01*
G03X160000Y-1158155I48154J0D01*
G37*
G36*
G01X-169999Y-1157079D02*
G03X-121845Y-1108925I0J48154D01*
G03X-169999Y-1060771I-48154J0D01*
G03X-218153Y-1108925I0J-48154D01*
G03X-169999Y-1157079I48154J0D01*
G37*
G36*
G01X321847Y1761076D02*
G03X370002Y1712922I48154J0D01*
G03X418156Y1761076I0J48154D01*
G03X370002Y1809231I-48154J0D01*
G03X321847Y1761076I0J-48154D01*
G37*
G36*
G01X180001Y-1397079D02*
G03X228156Y-1348925I0J48154D01*
G03X180001Y-1300771I-48154J0D01*
G03X131847Y-1348925I0J-48154D01*
G03X180001Y-1397079I48154J0D01*
G37*
G36*
G01X-74160Y-665881D02*
G03X-26006Y-617726I0J48154D01*
G03X-74160Y-569572I-48154J0D01*
G03X-122314Y-617726I0J-48154D01*
G03X-74160Y-665881I48154J0D01*
G37*
G36*
G01X1140002Y-1397079D02*
G03X1188156Y-1348925I0J48154D01*
G03X1140002Y-1300771I-48154J0D01*
G03X1091848Y-1348925I0J-48154D01*
G03X1140002Y-1397079I48154J0D01*
G37*
G36*
G01X283980Y-513481D02*
G03X332134Y-465326I0J48154D01*
G03X283980Y-417172I-48154J0D01*
G03X235826Y-465326I0J-48154D01*
G03X283980Y-513481I48154J0D01*
G37*
G36*
G01X-438153Y-1048925D02*
G03X-389999Y-1097079I48154J0D01*
G03X-341845Y-1048925I0J48154D01*
G03X-389999Y-1000771I-48154J0D01*
G03X-438153Y-1048925I0J-48154D01*
G37*
G36*
G01X-359999Y-1457079D02*
G03X-311845Y-1408925I0J48154D01*
G03X-359999Y-1360771I-48154J0D01*
G03X-408153Y-1408925I0J-48154D01*
G03X-359999Y-1457079I48154J0D01*
G37*
G36*
G01X191847Y-1588925D02*
G03X240002Y-1637079I48154J0D01*
G03X288156Y-1588925I0J48154D01*
G03X240002Y-1540771I-48154J0D01*
G03X191847Y-1588925I0J-48154D01*
G37*
G36*
G01X-408153Y-1588925D02*
G03X-359999Y-1637079I48154J0D01*
G03X-311845Y-1588925I0J48154D01*
G03X-359999Y-1540771I-48154J0D01*
G03X-408153Y-1588925I0J-48154D01*
G37*
G36*
G01X-1270001Y-898155D02*
G03X-1221847Y-850000I0J48154D01*
G03X-1270001Y-801846I-48154J0D01*
G03X-1318155Y-850000I0J-48154D01*
G03X-1270001Y-898155I48154J0D01*
G37*
G36*
G01X-1660001Y-838155D02*
G03X-1611847Y-790000I0J48154D01*
G03X-1660001Y-741846I-48154J0D01*
G03X-1708155Y-790000I0J-48154D01*
G03X-1660001Y-838155I48154J0D01*
G37*
G36*
G01X-449999Y-1707079D02*
G03X-401845Y-1658925I0J48154D01*
G03X-449999Y-1610771I-48154J0D01*
G03X-498153Y-1658925I0J-48154D01*
G03X-449999Y-1707079I48154J0D01*
G37*
G36*
G01X-1309999Y-1857080D02*
G03X-1261845Y-1808926I0J48154D01*
G03X-1309999Y-1760771I-48154J0D01*
G03X-1358153Y-1808926I0J-48154D01*
G03X-1309999Y-1857080I48154J0D01*
G37*
G36*
G01X-1500001Y-828155D02*
G03X-1451847Y-780000I0J48154D01*
G03X-1500001Y-731846I-48154J0D01*
G03X-1548155Y-780000I0J-48154D01*
G03X-1500001Y-828155I48154J0D01*
G37*
G36*
G01X-1434655Y-739999D02*
G03X-1386501Y-788154I48154J0D01*
G03X-1338347Y-739999I0J48154D01*
G03X-1386501Y-691845I-48154J0D01*
G03X-1434655Y-739999I0J-48154D01*
G37*
G36*
G01X-1450001Y-678154D02*
G03X-1401847Y-630000I0J48154D01*
G03X-1450001Y-581846I-48154J0D01*
G03X-1498155Y-630000I0J-48154D01*
G03X-1450001Y-678154I48154J0D01*
G37*
G36*
G01X-1065997Y-1938075D02*
G03X-1017843Y-1889921I0J48154D01*
G03X-1065997Y-1841766I-48154J0D01*
G03X-1114151Y-1889921I0J-48154D01*
G03X-1065997Y-1938075I48154J0D01*
G37*
G36*
G01X-650000Y-538154D02*
G03X-601846Y-490000I0J48154D01*
G03X-650000Y-441846I-48154J0D01*
G03X-698154Y-490000I0J-48154D01*
G03X-650000Y-538154I48154J0D01*
G37*
G36*
G01X-659917Y-1134344D02*
G03X-611763Y-1086190I0J48154D01*
G03X-659917Y-1038036I-48154J0D01*
G03X-708071Y-1086190I0J-48154D01*
G03X-659917Y-1134344I48154J0D01*
G37*
G36*
G01X-721739Y974755D02*
G03X-673585Y1022909I0J48154D01*
G03X-721739Y1071063I-48154J0D01*
G03X-769893Y1022909I0J-48154D01*
G03X-721739Y974755I48154J0D01*
G37*
G36*
G01X590002Y982922D02*
G03X638156Y1031076I0J48154D01*
G03X590002Y1079230I-48154J0D01*
G03X541848Y1031076I0J-48154D01*
G03X590002Y982922I48154J0D01*
G37*
G36*
G01X1471848Y1111076D02*
G03X1520002Y1062922I48154J0D01*
G03X1568156Y1111076I0J48154D01*
G03X1520002Y1159230I-48154J0D01*
G03X1471848Y1111076I0J-48154D01*
G37*
G36*
G01X1061848Y881076D02*
G03X1110002Y832922I48154J0D01*
G03X1158156Y881076I0J48154D01*
G03X1110002Y929230I-48154J0D01*
G03X1061848Y881076I0J-48154D01*
G37*
G36*
G01X-48153Y951076D02*
G03X1Y902922I48154J0D01*
G03X48155Y951076I0J48154D01*
G03X1Y999230I-48154J0D01*
G03X-48153Y951076I0J-48154D01*
G37*
G36*
G01X349335Y249665D02*
G03X397489Y297820I0J48154D01*
G03X349335Y345974I-48154J0D01*
G03X301181Y297820I0J-48154D01*
G03X349335Y249665I48154J0D01*
G37*
G36*
G01X-640515Y234900D02*
G03X-592361Y186746I48154J0D01*
G03X-544207Y234900I0J48154D01*
G03X-592361Y283055I-48154J0D01*
G03X-640515Y234900I0J-48154D01*
G37*
G36*
G01X-1019999Y732922D02*
G03X-971845Y781076I0J48154D01*
G03X-1019999Y829230I-48154J0D01*
G03X-1068153Y781076I0J-48154D01*
G03X-1019999Y732922I48154J0D01*
G37*
G36*
G01X1650002Y712922D02*
G03X1698156Y761076I0J48154D01*
G03X1650002Y809230I-48154J0D01*
G03X1601848Y761076I0J-48154D01*
G03X1650002Y712922I48154J0D01*
G37*
G36*
G01X1520002Y883922D02*
G03X1568156Y932076I0J48154D01*
G03X1520002Y980230I-48154J0D01*
G03X1471848Y932076I0J-48154D01*
G03X1520002Y883922I48154J0D01*
G37*
G36*
G01X211847Y902076D02*
G03X260002Y853922I48154J0D01*
G03X308156Y902076I0J48154D01*
G03X260002Y950231I-48154J0D01*
G03X211847Y902076I0J-48154D01*
G37*
G36*
G01X-538153Y721076D02*
G03X-489999Y672922I48154J0D01*
G03X-441845Y721076I0J48154D01*
G03X-489999Y769230I-48154J0D01*
G03X-538153Y721076I0J-48154D01*
G37*
G36*
G01X-249999Y712922D02*
G03X-201845Y761076I0J48154D01*
G03X-249999Y809230I-48154J0D01*
G03X-298153Y761076I0J-48154D01*
G03X-249999Y712922I48154J0D01*
G37*
G36*
G01X-1152693Y-275007D02*
G03X-1104539Y-323161I48154J0D01*
G03X-1056384Y-275007I0J48154D01*
G03X-1104539Y-226852I-48154J0D01*
G03X-1152693Y-275007I0J-48154D01*
G37*
G36*
G01X1471848Y-948925D02*
G03X1520002Y-997079I48154J0D01*
G03X1568156Y-948925I0J48154D01*
G03X1520002Y-900771I-48154J0D01*
G03X1471848Y-948925I0J-48154D01*
G37*
G36*
G01X22360Y-714141D02*
G03X70514Y-665986I0J48154D01*
G03X22360Y-617832I-48154J0D01*
G03X-25794Y-665986I0J-48154D01*
G03X22360Y-714141I48154J0D01*
G37*
G36*
G01X605002Y-835857D02*
G03X653156Y-787703I0J48154D01*
G03X605002Y-739549I-48154J0D01*
G03X556848Y-787703I0J-48154D01*
G03X605002Y-835857I48154J0D01*
G37*
G36*
G01X61847Y-1008925D02*
G03X110001Y-1057079I48154J0D01*
G03X158155Y-1008925I0J48154D01*
G03X110001Y-960771I-48154J0D01*
G03X61847Y-1008925I0J-48154D01*
G37*
G36*
G01X-518154Y-340000D02*
G03X-470000Y-388154I48154J0D01*
G03X-421846Y-340000I0J48154D01*
G03X-470000Y-291846I-48154J0D01*
G03X-518154Y-340000I0J-48154D01*
G37*
G36*
G01X1340002Y-577079D02*
G03X1388156Y-528925I0J48154D01*
G03X1340002Y-480771I-48154J0D01*
G03X1291848Y-528925I0J-48154D01*
G03X1340002Y-577079I48154J0D01*
G37*
G36*
G01X551848Y-468925D02*
G03X600002Y-517079I48154J0D01*
G03X648156Y-468925I0J48154D01*
G03X600002Y-420771I-48154J0D01*
G03X551848Y-468925I0J-48154D01*
G37*
G36*
G01X1690002Y-867079D02*
G03X1738156Y-818925I0J48154D01*
G03X1690002Y-770771I-48154J0D01*
G03X1641848Y-818925I0J-48154D01*
G03X1690002Y-867079I48154J0D01*
G37*
G36*
G01X-664999Y-405711D02*
G03X-616845Y-357557I0J48154D01*
G03X-664999Y-309403I-48154J0D01*
G03X-713153Y-357557I0J-48154D01*
G03X-664999Y-405711I48154J0D01*
G37*
G36*
G01X-716152Y1602072D02*
G03X-667998Y1553918I48154J0D01*
G03X-619844Y1602072I0J48154D01*
G03X-667998Y1650227I-48154J0D01*
G03X-716152Y1602072I0J-48154D01*
G37*
G36*
G01X-236720Y-460141D02*
G03X-188566Y-411986I0J48154D01*
G03X-236720Y-363832I-48154J0D01*
G03X-284874Y-411986I0J-48154D01*
G03X-236720Y-460141I48154J0D01*
G37*
%LPD*%
G04 PlaneZone End*

G04 Pad Start*
G54D10*
G01X1749660Y-1745587D03*
G01X-1730340Y-1745587D03*
G01X1749660Y1734414D03*
G01X-1730340Y1734414D03*
G54D11*
G01X1475003Y-1098924D03*
G01X1475003Y-618925D03*
G01X1905002Y-618925D03*
G01X1905002Y-1098924D03*
G04 Pad End*

G04 Via Start*
G54D12*
G01X1749660Y-1535586D03*
G01X1959660Y-1745587D03*
G01X1749660Y-1955587D03*
G01X1539660Y-1745587D03*
G01X1601168Y-1597094D03*
G01X1601168Y-1894079D03*
G01X1898153Y-1894079D03*
G01X1898153Y-1597094D03*
G01X1555646Y-1665222D03*
G01X1669295Y-1939601D03*
G01X1943675Y-1825951D03*
G01X1830025Y-1551572D03*
G01X1555645Y-1825949D03*
G01X1669298Y-1551571D03*
G01X1943676Y-1665224D03*
G01X1830023Y-1939602D03*
G01X-1730340Y-1535586D03*
G01X-1520340Y-1745587D03*
G01X-1730340Y-1955587D03*
G01X-1940340Y-1745587D03*
G01X-1878832Y-1597094D03*
G01X-1878832Y-1894079D03*
G01X-1581847Y-1894079D03*
G01X-1581847Y-1597094D03*
G01X-1924354Y-1665222D03*
G01X-1810705Y-1939601D03*
G01X-1536326Y-1825951D03*
G01X-1649975Y-1551572D03*
G01X-1924355Y-1825949D03*
G01X-1810702Y-1551571D03*
G01X-1536325Y-1665224D03*
G01X-1649978Y-1939602D03*
G01X1749660Y1944414D03*
G01X1959660Y1734414D03*
G01X1749660Y1524414D03*
G01X1539660Y1734414D03*
G01X1601168Y1882906D03*
G01X1601168Y1585921D03*
G01X1898153Y1585921D03*
G01X1898153Y1882906D03*
G01X1555646Y1814778D03*
G01X1669295Y1540399D03*
G01X1943675Y1654049D03*
G01X1830025Y1928428D03*
G01X1555645Y1654051D03*
G01X1669298Y1928429D03*
G01X1943676Y1814776D03*
G01X1830023Y1540398D03*
G01X-1730340Y1944414D03*
G01X-1520340Y1734414D03*
G01X-1730340Y1524414D03*
G01X-1940340Y1734414D03*
G01X-1878832Y1882906D03*
G01X-1878832Y1585921D03*
G01X-1581847Y1585921D03*
G01X-1581847Y1882906D03*
G01X-1924354Y1814778D03*
G01X-1810705Y1540399D03*
G01X-1536326Y1654049D03*
G01X-1649975Y1928428D03*
G01X-1924355Y1654051D03*
G01X-1810702Y1928429D03*
G01X-1536325Y1814776D03*
G01X-1649978Y1540398D03*
G54D13*
G01X970130Y1337585D03*
G01X890145Y1337585D03*
G01X810135Y1337585D03*
G01X730150Y1337585D03*
G01X730150Y1257575D03*
G01X810135Y1257575D03*
G01X890145Y1257575D03*
G01X970130Y1257575D03*
G01X970130Y1177565D03*
G01X890145Y1177565D03*
G01X810135Y1177565D03*
G01X730150Y1177565D03*
G01X-123490Y1337096D03*
G01X-203475Y1337096D03*
G01X-283485Y1337096D03*
G01X-363470Y1337096D03*
G01X-363470Y1257086D03*
G01X-283485Y1257086D03*
G01X-203475Y1257086D03*
G01X-123490Y1257086D03*
G01X-123490Y1177076D03*
G01X-203475Y1177076D03*
G01X-283485Y1177076D03*
G01X-363470Y1177076D03*
G54D12*
G01X90001Y1321076D03*
G01X-1040997Y357075D03*
G01X-673998Y760774D03*
G01X260002Y902076D03*
G01X-489999Y721076D03*
G01X1520002Y932076D03*
G01X2050004Y1851078D03*
G01X1850004Y1451078D03*
G01X1850004Y1251078D03*
G01X1850004Y1051078D03*
G01X1850004Y-148923D03*
G01X1850004Y-348923D03*
G01X1850004Y-548923D03*
G01X1850004Y-1348923D03*
G01X1650004Y1451078D03*
G01X1650004Y1251078D03*
G01X1670002Y961076D03*
G01X1650004Y651078D03*
G01X1650004Y251077D03*
G01X1650004Y-348923D03*
G01X1650004Y-1348923D03*
G01X1450004Y1851078D03*
G01X1450004Y1651078D03*
G01X1450004Y1451078D03*
G01X1450004Y1251078D03*
G01X1450004Y851078D03*
G01X1450004Y-148923D03*
G01X1450004Y-348923D03*
G01X1450004Y-748923D03*
G01X1450004Y-1548923D03*
G01X1450004Y-1748924D03*
G01X1450004Y-1948924D03*
G01X1250004Y1851078D03*
G01X1250004Y1651078D03*
G01X1250004Y1451078D03*
G01X1250004Y1251078D03*
G01X1250004Y1051078D03*
G01X1250004Y851078D03*
G01X1250004Y251077D03*
G01X1250004Y-148923D03*
G01X1250004Y-1548923D03*
G01X1250004Y-1948924D03*
G01X1050003Y1651078D03*
G01X1050003Y1251078D03*
G01X1050003Y251077D03*
G01X1050003Y-148923D03*
G01X1050003Y-1548923D03*
G01X1050003Y-1948924D03*
G01X850003Y251077D03*
G01X850003Y-148923D03*
G01X850003Y-1548923D03*
G01X850003Y-1748924D03*
G01X850003Y-1948924D03*
G01X650003Y251077D03*
G01X650003Y-148923D03*
G01X650003Y-1548923D03*
G01X650003Y-1748924D03*
G01X650003Y-1948924D03*
G01X450003Y1451078D03*
G01X450003Y851078D03*
G01X450003Y-1148923D03*
G01X450003Y-1548923D03*
G01X450003Y-1948924D03*
G01X250003Y1851078D03*
G01X250003Y1451078D03*
G01X250003Y1251078D03*
G01X250003Y-1748924D03*
G01X250003Y-1948924D03*
G01X50003Y1651078D03*
G01X50003Y-1948924D03*
G01X-149997Y-1748924D03*
G01X-549997Y1851078D03*
G01X-549997Y1651078D03*
G01X-549997Y1451078D03*
G01X-549997Y1251078D03*
G01X-549997Y-1348923D03*
G01X-749997Y1451078D03*
G01X-949998Y51077D03*
G01X-949998Y-548923D03*
G01X-949998Y-748923D03*
G01X-949998Y-948923D03*
G01X-949998Y-1148923D03*
G01X-949998Y-1348923D03*
G01X-1149998Y251077D03*
G01X-1149998Y51077D03*
G01X-1149998Y-548923D03*
G01X-1149998Y-748923D03*
G01X-1349998Y1851078D03*
G01X-1349998Y1651078D03*
G01X-1349998Y1451078D03*
G01X-1349998Y1051078D03*
G01X-1349998Y251077D03*
G01X-1349998Y-148923D03*
G01X-1349998Y-348923D03*
G01X-1349998Y-548923D03*
G01X-1349998Y-1148923D03*
G01X-1349998Y-1348923D03*
G01X-1549998Y1451078D03*
G01X-1549998Y1051078D03*
G01X-1549998Y851078D03*
G01X-1549998Y251077D03*
G01X-1549998Y-148923D03*
G01X-1549998Y-348923D03*
G01X-1549998Y-548923D03*
G01X-1549998Y-1148923D03*
G01X-1549998Y-1348923D03*
G01X-1749998Y1451078D03*
G01X-1749998Y1251078D03*
G01X-1749998Y1051078D03*
G01X-1749998Y-148923D03*
G01X-1749998Y-348923D03*
G01X-1749998Y-548923D03*
G01X-1749998Y-748923D03*
G01X-1749998Y-1148923D03*
G01X-1949998Y2051078D03*
G01X-1949998Y1451078D03*
G01X-1949998Y1251078D03*
G01X-1949998Y1051078D03*
G01X-1949998Y-148923D03*
G01X-1949998Y-348923D03*
G01X-1949998Y-548923D03*
G01X-1949998Y-748923D03*
G01X-1949998Y-1148923D03*
G01X-1949998Y-1348923D03*
G01X-1949998Y-1548923D03*
G01X-1949998Y-1948924D03*
G01X-769009Y1597080D03*
G01X-1012543Y2061077D03*
G01X-810117Y-2058926D03*
G01X-1010117Y-2058926D03*
G54D14*
G01X540002Y-1438925D03*
G54D12*
G01X-659917Y-1086190D03*
G54D14*
G01X1720002Y-678925D03*
G01X1680002Y-1048925D03*
G54D12*
G01X1520002Y-948925D03*
G01X1690002Y-818925D03*
G01X1880002Y-818925D03*
G01X1840002Y-878925D03*
G01X1170002Y-468925D03*
G01X1345002Y-748925D03*
G01X477338Y440588D03*
G01X1019853Y748362D03*
G01X810135Y1063310D03*
G01X913880Y1818442D03*
G01X-146994Y1771075D03*
G01X1818461Y57617D03*
G01X1918460Y57617D03*
G01X2018461Y57617D03*
G01X2018461Y157575D03*
G01X1918460Y157575D03*
G01X1818461Y157575D03*
G01X1818461Y257534D03*
G01X1918460Y257534D03*
G01X2018461Y257534D03*
G01X2018460Y949530D03*
G01X1918460Y949530D03*
G01X1818460Y949530D03*
G01X1818460Y849572D03*
G01X1918460Y849572D03*
G01X2018460Y849572D03*
G01X2018460Y749613D03*
G01X1918460Y749613D03*
G01X1818460Y749613D03*
G01X-1942236Y58357D03*
G01X-1842236Y58357D03*
G01X-1742236Y58357D03*
G01X-1742236Y158315D03*
G01X-1842236Y158315D03*
G01X-1942236Y158315D03*
G01X-1942236Y258273D03*
G01X-1842236Y258273D03*
G01X-1742236Y258273D03*
G01X-1942452Y948892D03*
G01X-1842452Y948892D03*
G01X-1742452Y948892D03*
G01X-1942452Y848934D03*
G01X-1842452Y848934D03*
G01X-1742452Y848934D03*
G01X-1742452Y748976D03*
G01X-1842452Y748976D03*
G01X-1942452Y748976D03*
G01X-1942452Y649017D03*
G01X-1842452Y649017D03*
G01X-1742452Y649017D03*
G54D15*
G01X-1761739Y-1328925D03*
G54D16*
G01X-362485Y1771078D03*
G54D12*
G01X590002Y1031076D03*
G01X-721739Y1022909D03*
G01X-1019999Y781076D03*
G01X-1192236Y413232D03*
G01X-1292236Y413232D03*
G01X-1342236Y358232D03*
G01X-1338925Y649101D03*
G01X-1288926Y594101D03*
G01X1919885Y-2018926D03*
G01X2009885Y-1958925D03*
G01X2057025Y-1866912D03*
G01X2070002Y-1528925D03*
G01X2070002Y-1628925D03*
G01X2070002Y-1738925D03*
G01X2030002Y1901077D03*
G01X1970002Y1991077D03*
G01X1789885Y-2058926D03*
G01X1689885Y-2058926D03*
G01X1589885Y-2058926D03*
G01X1489884Y-2058926D03*
G01X1389884Y-2058926D03*
G01X1289884Y-2058926D03*
G01X1189884Y-2058926D03*
G01X1089884Y-2058926D03*
G01X989884Y-2058926D03*
G01X889884Y-2058926D03*
G01X789884Y-2058926D03*
G01X689884Y-2058926D03*
G01X589884Y-2058926D03*
G01X489884Y-2058926D03*
G01X389884Y-2058926D03*
G01X289884Y-2058926D03*
G01X189884Y-2058926D03*
G01X89884Y-2058926D03*
G01X-10116Y-2058926D03*
G01X-110116Y-2058926D03*
G01X-210116Y-2058926D03*
G01X-310116Y-2058926D03*
G01X-410117Y-2058926D03*
G01X-510117Y-2058926D03*
G01X-610117Y-2058926D03*
G01X-710117Y-2058926D03*
G01X-910117Y-2058926D03*
G01X-1110117Y-2058926D03*
G01X-1210117Y-2058926D03*
G01X-1310117Y-2058926D03*
G01X-1410117Y-2058926D03*
G01X-1510117Y-2058926D03*
G01X-1610117Y-2058926D03*
G01X-1710117Y-2058926D03*
G01X-1810117Y-2058926D03*
G01X-1910000Y-2038926D03*
G01X-1990000Y-1978925D03*
G01X-2033931Y-1874994D03*
G01X-2050000Y-1781650D03*
G01X-2050000Y-1681650D03*
G01X-2050000Y-1581650D03*
G01X-2050000Y-1481650D03*
G01X-2050000Y-1381650D03*
G01X-2050000Y-1281650D03*
G01X-2050000Y-1181650D03*
G01X-2050000Y-1081650D03*
G01X-2050000Y-981650D03*
G01X-2050000Y-881650D03*
G01X-2050000Y-781650D03*
G01X-2050000Y-681650D03*
G01X-2050000Y-581650D03*
G01X-2050000Y-481650D03*
G01X-2050000Y-381650D03*
G01X-2050000Y-281650D03*
G01X-2050000Y-181650D03*
G01X-2050000Y-81650D03*
G01X-2050000Y18350D03*
G01X-2050000Y118351D03*
G01X-2050000Y218351D03*
G01X-2050000Y718351D03*
G01X-2050000Y818351D03*
G01X-2050000Y918351D03*
G01X-2050000Y1018351D03*
G01X-2050000Y1118351D03*
G01X-2050000Y1218351D03*
G01X-2050000Y1318351D03*
G01X-2050000Y1418351D03*
G01X-2050000Y1518351D03*
G01X-2050000Y1618351D03*
G01X-2050000Y1718351D03*
G01X-2026860Y1854217D03*
G01X-1990000Y1951077D03*
G01X-1920000Y2011077D03*
G01X-1812543Y2061077D03*
G01X-1712543Y2061077D03*
G01X-1612543Y2061077D03*
G01X-1512543Y2061077D03*
G01X-1412543Y2061077D03*
G01X-1312543Y2061077D03*
G01X-1212543Y2061077D03*
G01X-1112543Y2061077D03*
G01X-912543Y2061077D03*
G01X-812543Y2061077D03*
G01X-712543Y2061077D03*
G01X-612543Y2061077D03*
G01X-512543Y2061077D03*
G01X-412543Y2061077D03*
G01X-312543Y2061077D03*
G01X-212543Y2061077D03*
G01X-112543Y2061077D03*
G01X-12543Y2061077D03*
G01X87458Y2061077D03*
G01X187458Y2061077D03*
G01X287458Y2061077D03*
G01X387458Y2061077D03*
G01X487458Y2061077D03*
G01X587458Y2061077D03*
G01X687458Y2061077D03*
G01X787458Y2061077D03*
G01X887458Y2061077D03*
G01X987458Y2061077D03*
G01X1087458Y2061077D03*
G01X1187458Y2061077D03*
G01X1287458Y2061077D03*
G01X1387458Y2061077D03*
G01X1487458Y2061077D03*
G01X1587458Y2061077D03*
G01X1687458Y2061077D03*
G01X1787458Y2061077D03*
G01X1877989Y2038216D03*
G01X2070002Y1771076D03*
G01X2070002Y1671076D03*
G01X2070002Y1571076D03*
G01X2070002Y1471076D03*
G01X2070002Y1371076D03*
G01X2070002Y1271076D03*
G01X2070002Y1171076D03*
G01X2070002Y1071076D03*
G01X2070002Y971076D03*
G01X2070002Y871076D03*
G01X2070002Y771076D03*
G01X2070002Y671076D03*
G01X2070002Y271076D03*
G01X2070002Y171076D03*
G01X2070002Y71076D03*
G01X2070002Y-28925D03*
G01X2070002Y-128925D03*
G01X2070002Y-228925D03*
G01X2070002Y-328925D03*
G01X2070002Y-428925D03*
G01X2070002Y-528925D03*
G01X2070002Y-628925D03*
G01X2070002Y-728925D03*
G01X2070002Y-828925D03*
G01X2070002Y-928925D03*
G01X2070002Y-1028925D03*
G01X2070002Y-1128925D03*
G01X2070002Y-1228925D03*
G01X2070002Y-1328925D03*
G01X2070002Y-1428925D03*
G01X-640000Y1233331D03*
G01X-359999Y-1588925D03*
G01X-89999Y-1118925D03*
G01X-249999Y-1118925D03*
G01X-409999Y-1218925D03*
G01X-449999Y-1658925D03*
G01X1340002Y-528925D03*
G01X605002Y-787703D03*
G01X599999Y-937703D03*
G01X-799999Y-1086190D03*
G01X110001Y-1008925D03*
G01X-69999Y-1008925D03*
G01X-800001Y-937557D03*
G01X-800000Y-210000D03*
G01X-800000Y-360000D03*
G01X-799999Y-488925D03*
G54D16*
G01X740002Y1761076D03*
G54D14*
G01X-1519999Y1331076D03*
G54D12*
G01X1713046Y186810D03*
G01X-1450001Y-630000D03*
G54D14*
G01X-1150340Y-1256587D03*
G54D12*
G01X-343999Y476075D03*
G01X-379999Y531076D03*
G01X-768994Y525773D03*
G01X-592361Y234900D03*
G01X220001Y-948925D03*
G01X270001Y-888925D03*
G01X360002Y-818925D03*
G01X430002Y-758925D03*
G01X-1065997Y-1889921D03*
G01X-892998Y-1636921D03*
G01X-1150340Y-1828587D03*
G01X-1309999Y-1808926D03*
G01X-719999Y-1508925D03*
G01X-359999Y-1408925D03*
G01X240002Y-1588925D03*
G01X-768994Y732024D03*
G01X-915385Y354431D03*
G01X-785379Y354431D03*
G01X-1242236Y358232D03*
G01X-600340Y594414D03*
G01X1318460Y357492D03*
G01X1718460Y649655D03*
G01X1218461Y357492D03*
G01X238966Y193291D03*
G01X281004Y140066D03*
G01X1110002Y881076D03*
G01X797199Y751480D03*
G01X288043Y746254D03*
G01X-231540Y594655D03*
G01X-181540Y649655D03*
G01X-668926Y594101D03*
G01X1169661Y824414D03*
G01X129660Y-155587D03*
G01X229660Y-155587D03*
G01X29660Y-155587D03*
G01X-70340Y-155587D03*
G01X-300340Y-65587D03*
G01X-653183Y217256D03*
G01X-582472Y146546D03*
G01X-370340Y-65587D03*
G01X-441761Y75835D03*
G01X-371051Y5124D03*
G01X1500913Y-95322D03*
G01X1642335Y116100D03*
G01X1571624Y45389D03*
G01X1500913Y-25322D03*
G01X1713046Y116811D03*
G01X1642335Y46100D03*
G01X1571624Y-24611D03*
G01X1373043Y-40321D03*
G01X1423043Y-95322D03*
G01X1123043Y-95322D03*
G01X1223043Y-95322D03*
G01X1323043Y-95322D03*
G01X1073043Y-40321D03*
G01X373043Y-40321D03*
G01X423043Y-95322D03*
G01X473043Y-40321D03*
G01X523043Y-95322D03*
G01X573043Y-40321D03*
G01X623043Y-95322D03*
G01X673043Y-40321D03*
G01X723043Y-95322D03*
G01X773043Y-40321D03*
G01X823043Y-95322D03*
G01X873043Y-40321D03*
G01X923043Y-95322D03*
G01X973043Y-40321D03*
G01X1023043Y-95322D03*
G01X1173043Y-40321D03*
G01X1273043Y-40321D03*
G01X1073042Y141841D03*
G01X1123042Y196841D03*
G01X1173042Y141841D03*
G01X1223043Y196841D03*
G01X1323042Y196841D03*
G01X1273042Y141841D03*
G01X973043Y141841D03*
G01X1268461Y412492D03*
G01X1373042Y141841D03*
G01X1323042Y196841D03*
G01X1273042Y141841D03*
G01X1223043Y196841D03*
G01X1173042Y141841D03*
G01X1123042Y196841D03*
G01X1073042Y141841D03*
G01X1023042Y196841D03*
G01X923042Y196841D03*
G01X873042Y141841D03*
G01X823042Y196841D03*
G01X773042Y141841D03*
G01X723042Y196841D03*
G01X673042Y141841D03*
G01X623042Y196841D03*
G01X573042Y141841D03*
G01X523042Y196841D03*
G01X473042Y141841D03*
G01X423042Y196841D03*
G01X373042Y141841D03*
G01X331004Y195066D03*
G01X122160Y219414D03*
G01X-26958Y141841D03*
G01X-76958Y196841D03*
G01X-477910Y117407D03*
G01X1398954Y209113D03*
G01X1343954Y259113D03*
G01X1398954Y309113D03*
G01X-229233Y409329D03*
G01X-174233Y359328D03*
G01X-229233Y309329D03*
G01X-174233Y259328D03*
G01X-1009763Y1013432D03*
G01X-954763Y963432D03*
G01X-1009763Y913432D03*
G01X218460Y649655D03*
G01X268460Y594655D03*
G01X318460Y649655D03*
G01X-486216Y612283D03*
G01X-938925Y649101D03*
G01X-838925Y649101D03*
G01X-1238925Y649101D03*
G01X-1138925Y649101D03*
G01X-1038925Y649101D03*
G01X-31540Y594655D03*
G01X-81540Y649655D03*
G01X168460Y594655D03*
G01X118460Y649655D03*
G01X18460Y649655D03*
G01X68460Y594655D03*
G01X1118460Y649655D03*
G01X1068460Y594655D03*
G01X1018460Y649655D03*
G01X1418460Y649655D03*
G01X1368460Y594655D03*
G01X1318460Y649655D03*
G01X1268460Y594655D03*
G01X1168460Y594655D03*
G01X1218460Y649655D03*
G01X2068460Y594655D03*
G01X2018460Y649655D03*
G01X1968460Y594655D03*
G01X1918460Y649655D03*
G01X1868460Y594655D03*
G01X1818460Y649655D03*
G01X1768460Y594655D03*
G01X-788926Y594101D03*
G01X-888925Y594101D03*
G01X-988925Y594101D03*
G01X-1088925Y594101D03*
G01X-1188925Y594101D03*
G01X-2092452Y594017D03*
G01X-1792452Y594017D03*
G01X-1892452Y594017D03*
G01X-1992452Y594017D03*
G01X-1642452Y649017D03*
G01X-1742452Y649017D03*
G01X-1842452Y649017D03*
G01X-1942452Y649017D03*
G01X-2042452Y649017D03*
G01X2018461Y357492D03*
G01X1918460Y357492D03*
G01X1818460Y357492D03*
G01X2068460Y412492D03*
G01X1968461Y412492D03*
G01X1868461Y412492D03*
G01X1768461Y412492D03*
G01X1118461Y357492D03*
G01X1018460Y357492D03*
G01X918460Y357492D03*
G01X818460Y357492D03*
G01X718461Y357492D03*
G01X618461Y357492D03*
G01X1168460Y412492D03*
G01X1068460Y412492D03*
G01X968461Y412492D03*
G01X868461Y412492D03*
G01X768460Y412492D03*
G01X568460Y412492D03*
G01X418460Y357492D03*
G01X118461Y357492D03*
G01X18460Y357492D03*
G01X-81540Y357492D03*
G01X68461Y412492D03*
G01X-31539Y412492D03*
G01X518460Y357492D03*
G01X-642236Y358232D03*
G01X-592236Y413232D03*
G01X-1442236Y358232D03*
G01X-1542236Y358232D03*
G01X-1642236Y358232D03*
G01X-1742236Y358232D03*
G01X-1842236Y358232D03*
G01X-1942236Y358232D03*
G01X-2042236Y358232D03*
G01X-1392236Y413232D03*
G01X-1492236Y413232D03*
G01X-1592236Y413232D03*
G01X-1692236Y413232D03*
G01X-1792236Y413232D03*
G01X-1892236Y413232D03*
G01X-1992236Y413232D03*
G01X-2092236Y413232D03*
G01X-236720Y-526286D03*
G01X-236720Y-411986D03*
G01X283980Y-465326D03*
G01X-1299999Y1131076D03*
G01X-1089999Y1271076D03*
G01X-1080340Y1274414D03*
G01X276360Y-307846D03*
G01X259441Y1317954D03*
G01X591320Y454154D03*
G01X543060Y471934D03*
G01X543060Y525274D03*
G01X591320Y506647D03*
G01X543060Y526120D03*
G01X591320Y559140D03*
G01X543060Y580307D03*
G01X591320Y611634D03*
G01X543060Y634494D03*
G01X144095Y302507D03*
G01X1567617Y470554D03*
G01X1512776Y536923D03*
G01X720002Y691076D03*
G01X440002Y1221076D03*
G01X-543485Y951447D03*
G01X-767580Y1193294D03*
G01X-895202Y1192726D03*
G01X349335Y297820D03*
G01X-249999Y761076D03*
G01X-74160Y-617726D03*
G54D18*
G01X1051060Y-605026D03*
G01X463434Y-601351D03*
G54D12*
G01X-1104539Y-275007D03*
G01X1650002Y761076D03*
G54D18*
G01X1110002Y1811077D03*
G01X40001Y1801077D03*
G54D12*
G01X-650000Y-490000D03*
G01X-389999Y-1048925D03*
G01X1Y951076D03*
G01X1520002Y1111076D03*
G01X-241800Y-615186D03*
G01X370002Y1761076D03*
G01X-667998Y1602072D03*
G01X-675998Y1834072D03*
G01X-769999Y1831077D03*
G54D16*
G01X-999999Y1951077D03*
G54D14*
G01X-1469999Y731076D03*
G54D12*
G01X22360Y-665986D03*
G01X-89999Y-848925D03*
G01X-154899Y-863324D03*
G01X-126120Y-956926D03*
G01X151500Y-273706D03*
G01X-118500Y-363706D03*
G01X151500Y-453706D03*
G01X-118500Y-543707D03*
G01X-28500Y-543707D03*
G01X61500Y-543707D03*
G01X151500Y-543707D03*
G01X61500Y-453706D03*
G01X-28500Y-453706D03*
G01X-118500Y-453706D03*
G01X-28500Y-363706D03*
G01X61500Y-273706D03*
G01X-28500Y-273706D03*
G01X-118500Y-273706D03*
G01X151500Y-363706D03*
G01X61500Y-363706D03*
G01X1138445Y-1738586D03*
G01X1140002Y-1348925D03*
G01X-19999Y-968925D03*
G01X180001Y-1348925D03*
G01X940680Y-160407D03*
G01X780002Y-388925D03*
G01X1154040Y-339706D03*
G01X950840Y-656089D03*
G01X751603Y-601326D03*
G01X740002Y-488925D03*
G01X600002Y-468925D03*
G01X70001Y-1118925D03*
G01X-169999Y-1108925D03*
G01X-470000Y-340000D03*
G01X-250000Y-300000D03*
G01X-230000Y-240000D03*
G01X-1386501Y-739999D03*
G01X-1270001Y-850000D03*
G01X-1500001Y-780000D03*
G01X-1660001Y-790000D03*
G01X160000Y-1110001D03*
G01X170000Y-880000D03*
G01X-770000Y-710000D03*
G01X-820000Y-790000D03*
G01X-664999Y-357557D03*
G04 Via End*

M02*
