G04 Layer: InnerLayer2*
G04 EasyEDA Pro v2.2.27.1, 2024-09-01 06:15:27*
G04 Gerber Generator version 0.3*
G04 Scale: 100 percent, Rotated: No, Reflected: No*
G04 Dimensions in millimeters*
G04 Leading zeros omitted, absolute positions, 3 integers and 5 decimals*
%FSLAX35Y35*%
%MOMM*%
%ADD10C,5.2*%
%ADD11C,1.1*%
%ADD12C,0.45*%
%ADD13C,0.6*%
%ADD14C,0.8*%
%ADD15C,0.65*%
%ADD16C,0.5003*%
%ADD17C,0.50002*%
G75*


G04 PlaneZone Start*
G36*
G01X-3982395Y814778D02*
G03X-4069835Y842624I-48154J0D01*
G01X-4069835Y886931D01*
G03X-3982395Y914778I39286J27846D01*
G03X-4069835Y942624I-48154J0D01*
G01X-4069835Y986932D01*
G03X-3982395Y1014778I39286J27846D01*
G03X-4069835Y1042624I-48154J0D01*
G01X-4069835Y1086932D01*
G03X-3982395Y1114778I39286J27846D01*
G03X-4069835Y1142624I-48154J0D01*
G01X-4069835Y1186932D01*
G03X-3992818Y1184858I39286J27846D01*
G03X-3778355Y953267I281929J45982D01*
G03X-3733880Y899466I47808J-5763D01*
G03X-3682402Y946610I3333J48039D01*
G03X-3672618Y1513919I-28488J284230D01*
G03X-3657363Y1589786I-20475J43584D01*
G01X-3628823Y1589786D01*
G03X-3593093Y1509349I35730J-32283D01*
G03X-3557363Y1589786I0J48154D01*
G01X-3528823Y1589786D01*
G03X-3493093Y1509349I35730J-32283D01*
G03X-3457363Y1589786I0J48154D01*
G01X-3428822Y1589786D01*
G03X-3393093Y1509349I35730J-32283D01*
G03X-3357363Y1589786I0J48154D01*
G01X-3328822Y1589786D01*
G03X-3293092Y1509349I35730J-32283D01*
G03X-3257363Y1589786I0J48154D01*
G01X-3228822Y1589786D01*
G03X-3193092Y1509349I35730J-32283D01*
G03X-3157362Y1589786I0J48154D01*
G01X-3128822Y1589786D01*
G03X-3093092Y1509349I35730J-32283D01*
G03X-3057362Y1589786I0J48154D01*
G01X-3028822Y1589786D01*
G03X-2993092Y1509349I35730J-32283D01*
G03X-2957362Y1589786I0J48154D01*
G01X-2928822Y1589786D01*
G03X-2893092Y1509349I35730J-32283D01*
G03X-2857362Y1589786I0J48154D01*
G01X-2828822Y1589786D01*
G03X-2793092Y1509349I35730J-32283D01*
G03X-2757362Y1589786I0J48154D01*
G01X-2728822Y1589786D01*
G03X-2693092Y1509349I35730J-32283D01*
G03X-2657362Y1589786I0J48154D01*
G01X-2628822Y1589786D01*
G03X-2593092Y1509349I35730J-32283D01*
G03X-2557362Y1589786I0J48154D01*
G01X-2528822Y1589786D01*
G03X-2493092Y1509349I35730J-32283D01*
G03X-2457362Y1589786I0J48154D01*
G01X-2428822Y1589786D01*
G03X-2393092Y1509349I35730J-32283D01*
G03X-2357362Y1589786I0J48154D01*
G01X-2328822Y1589786D01*
G03X-2293092Y1509349I35730J-32283D01*
G03X-2257362Y1589786I0J48154D01*
G01X-2228822Y1589786D01*
G03X-2193092Y1509349I35730J-32283D01*
G03X-2157362Y1589786I0J48154D01*
G01X-2128822Y1589786D01*
G03X-2093092Y1509349I35730J-32283D01*
G03X-2057362Y1589786I0J48154D01*
G01X-2028822Y1589786D01*
G03X-1993092Y1509349I35730J-32283D01*
G03X-1957362Y1589786I0J48154D01*
G01X-1928822Y1589786D01*
G03X-1893092Y1509349I35730J-32283D01*
G03X-1857362Y1589786I0J48154D01*
G01X-1828822Y1589786D01*
G03X-1793092Y1509349I35730J-32283D01*
G03X-1757362Y1589786I0J48154D01*
G01X-1728822Y1589786D01*
G03X-1693092Y1509349I35730J-32283D01*
G03X-1657362Y1589786I0J48154D01*
G01X-1628822Y1589786D01*
G03X-1593092Y1509349I35730J-32283D01*
G03X-1557362Y1589786I0J48154D01*
G01X-1528821Y1589786D01*
G03X-1493092Y1509349I35730J-32283D01*
G03X-1457362Y1589786I0J48154D01*
G01X-1428821Y1589786D01*
G03X-1393091Y1509349I35730J-32283D01*
G03X-1357361Y1589786I0J48154D01*
G01X-1328821Y1589786D01*
G03X-1293091Y1509349I35730J-32283D01*
G03X-1257361Y1589786I0J48154D01*
G01X-1228821Y1589786D01*
G03X-1193091Y1509349I35730J-32283D01*
G03X-1157361Y1589786I0J48154D01*
G01X-1128821Y1589786D01*
G03X-1093091Y1509349I35730J-32283D01*
G03X-1057361Y1589786I0J48154D01*
G01X-1028821Y1589786D01*
G03X-993091Y1509349I35730J-32283D01*
G03X-957361Y1589786I0J48154D01*
G01X-928821Y1589786D01*
G03X-893091Y1509349I35730J-32283D01*
G03X-857361Y1589786I0J48154D01*
G01X-828821Y1589786D01*
G03X-793091Y1509349I35730J-32283D01*
G03X-757361Y1589786I0J48154D01*
G01X-728821Y1589786D01*
G03X-693091Y1509349I35730J-32283D01*
G03X-657361Y1589786I0J48154D01*
G01X-628821Y1589786D01*
G03X-593091Y1509349I35730J-32283D01*
G03X-557361Y1589786I0J48154D01*
G01X-528821Y1589786D01*
G03X-493091Y1509349I35730J-32283D01*
G03X-457361Y1589786I0J48154D01*
G01X-428821Y1589786D01*
G03X-393091Y1509349I35730J-32283D01*
G03X-357361Y1589786I0J48154D01*
G01X-328821Y1589786D01*
G03X-294311Y1509364I35730J-32283D01*
G03X-484635Y1362032I63422J-278524D01*
G03X-575419Y1364975I-45911J-14527D01*
G03X-506543Y1305759I44873J-17470D01*
G03X-513988Y1192723I275654J-74919D01*
G03X-576939Y1134603I-16557J-45218D01*
G03X-493021Y1117327I46393J12902D01*
G03X-366565Y979464I262132J113513D01*
G03X-346523Y902078I36020J-31959D01*
G03X-282450Y949878I15978J45426D01*
G03X-178634Y950006I51561J280962D01*
G03X-114470Y902113I48089J-2502D01*
G03X-94749Y979714I-16075J45392D01*
G03X43759Y1152310I-136140J251126D01*
G03X128057Y1138718I45695J15192D01*
G01X128057Y1096288D01*
G03X41299Y1067503I-38604J-28785D01*
G03X128057Y1038718I48154J0D01*
G01X128057Y996288D01*
G03X41299Y967503I-38604J-28785D01*
G03X128057Y938718I48154J0D01*
G01X128057Y896288D01*
G03X41299Y867503I-38604J-28785D01*
G03X128057Y838718I48154J0D01*
G01X128057Y796288D01*
G03X41299Y767503I-38604J-28785D01*
G03X128057Y738718I48154J0D01*
G01X128057Y696288D01*
G03X41299Y667503I-38604J-28785D01*
G03X128057Y638718I48154J0D01*
G01X128057Y596287D01*
G03X41299Y567503I-38604J-28785D01*
G03X128057Y538718I48154J0D01*
G01X128057Y496287D01*
G03X48554Y492920I-38604J-28785D01*
G03X-10137Y442758I-10643J-46963D01*
G03X54684Y400818I48048J3198D01*
G03X48576Y392956I34769J-33316D01*
G03X-10136Y342778I-10666J-46958D01*
G03X54747Y300883I48046J3220D01*
G03X48599Y292993I34707J-33381D01*
G03X-10134Y242798I-10688J-46953D01*
G03X54809Y200948I48045J3242D01*
G03X48622Y193029I34644J-33446D01*
G03X5258Y181473I-10711J-46948D01*
G03X-9746Y139178I32653J-35392D01*
G03X-14433Y139178I-2343J-48097D01*
G03X-62089Y194235I-47657J6903D01*
G03X-109746Y139178I0J-48154D01*
G03X-114433Y139178I-2343J-48097D01*
G03X-162089Y194235I-47657J6903D01*
G03X-209746Y139178I0J-48154D01*
G03X-214432Y139178I-2343J-48097D01*
G03X-240183Y188964I-47657J6903D01*
G03X-295614Y180649I-21906J-42883D01*
G03X-378689Y148505I-34932J-33145D01*
G03X-297021Y112936I48144J-1001D01*
G03X-259746Y97984I34932J33145D01*
G03X-212089Y42927I47657J-6903D01*
G03X-164432Y97984I0J48154D01*
G03X-159746Y97984I2343J48097D01*
G03X-112089Y42927I47657J-6903D01*
G03X-64432Y97984I0J48154D01*
G03X-59746Y97984I2343J48097D01*
G03X-12089Y42927I47657J-6903D01*
G03X35568Y97984I0J48154D01*
G03X40254Y97984I2343J48097D01*
G03X70748Y46090I47657J-6903D01*
G03X128057Y64490I17163J44992D01*
G01X128057Y-64489D01*
G03X70748Y-46090I-40146J-26592D01*
G03X40254Y-97984I17163J-44991D01*
G03X35568Y-97984I-2343J-48097D01*
G03X-12089Y-42927I-47657J6903D01*
G03X-59745Y-97984I0J-48154D01*
G03X-64432Y-97984I-2343J-48097D01*
G03X-112089Y-42927I-47657J6903D01*
G03X-159745Y-97984I0J-48154D01*
G03X-164432Y-97984I-2343J-48097D01*
G03X-244481Y-55450I-47657J6903D01*
G03X-209746Y-139178I32392J-35631D01*
G03X-162089Y-194236I47657J-6903D01*
G03X-114432Y-139178I0J48154D01*
G03X-109745Y-139178I2343J48097D01*
G03X-62089Y-194236I47657J-6903D01*
G03X-14432Y-139178I0J48154D01*
G03X-9745Y-139178I2343J48097D01*
G03X37911Y-194236I47657J-6903D01*
G03X85568Y-139178I0J48154D01*
G03X128057Y-117673I2343J48097D01*
G01X128057Y-203713D01*
G03X53490Y-200475I-38604J-28785D01*
G03X-8662Y-258276I-15578J-45565D01*
G03X73875Y-278062I46573J12237D01*
G03X128057Y-261283I15578J45565D01*
G01X128057Y-303713D01*
G03X53518Y-300443I-38604J-28785D01*
G03X-8671Y-358200I-15607J-45555D01*
G03X73846Y-378053I46583J12201D01*
G03X128057Y-361283I15607J45555D01*
G01X128057Y-403713D01*
G03X53547Y-400412I-38604J-28785D01*
G03X-8681Y-458123I-15635J-45545D01*
G03X73818Y-478043I46592J12166D01*
G03X128057Y-461283I15635J45545D01*
G01X128057Y-503713D01*
G03X41299Y-532498I-38604J-28785D01*
G03X128057Y-561283I48154J0D01*
G01X128057Y-603713D01*
G03X41299Y-632498I-38604J-28785D01*
G03X128057Y-661283I48154J0D01*
G01X128057Y-703713D01*
G03X41299Y-732498I-38604J-28785D01*
G03X128057Y-761283I48154J0D01*
G01X128057Y-803713D01*
G03X41299Y-832498I-38604J-28785D01*
G03X128057Y-861283I48154J0D01*
G01X128057Y-903713D01*
G03X41299Y-932498I-38604J-28785D01*
G03X128057Y-961283I48154J0D01*
G01X128057Y-1003713D01*
G03X41299Y-1032498I-38604J-28785D01*
G03X128057Y-1061283I48154J0D01*
G01X128057Y-1103713D01*
G03X41299Y-1132498I-38604J-28785D01*
G03X128057Y-1161283I48154J0D01*
G01X128057Y-1203714D01*
G03X41299Y-1232498I-38604J-28785D01*
G03X128057Y-1261283I48154J0D01*
G01X128057Y-1303714D01*
G03X41299Y-1332498I-38604J-28785D01*
G03X128057Y-1361283I48154J0D01*
G01X128057Y-1403714D01*
G03X41299Y-1432499I-38604J-28785D01*
G03X128057Y-1461283I48154J0D01*
G01X128057Y-1503714D01*
G03X41299Y-1532499I-38604J-28785D01*
G03X128057Y-1561284I48154J0D01*
G01X128057Y-1603714D01*
G03X41299Y-1632499I-38604J-28785D01*
G03X128057Y-1661284I48154J0D01*
G01X128057Y-1703714D01*
G03X41299Y-1732499I-38604J-28785D01*
G03X128057Y-1761284I48154J0D01*
G01X128057Y-1803714D01*
G03X41299Y-1832499I-38604J-28785D01*
G03X128057Y-1861284I48154J0D01*
G01X128057Y-1903714D01*
G03X41299Y-1932499I-38604J-28785D01*
G03X128057Y-1961284I48154J0D01*
G01X128057Y-2003714D01*
G03X41299Y-2032499I-38604J-28785D01*
G03X128057Y-2061284I48154J0D01*
G01X128057Y-2103714D01*
G03X41299Y-2132499I-38604J-28785D01*
G03X128057Y-2161284I48154J0D01*
G01X128057Y-2213714D01*
G03X52317Y-2211844I-38604J-28785D01*
G03X-513484Y-2207467I-283206J-37316D01*
G03X-578697Y-2253033I-17062J-45030D01*
G03X-512485Y-2297136I48151J536D01*
G03X-316311Y-2521743I281596J47976D01*
G03X-306118Y-2608106I25646J-40756D01*
G01X-375211Y-2608106D01*
G03X-390665Y-2514345I-15454J45607D01*
G03X-406118Y-2608106I0J-48154D01*
G01X-475211Y-2608106D01*
G03X-490665Y-2514345I-15454J45607D01*
G03X-506119Y-2608106I0J-48154D01*
G01X-575211Y-2608106D01*
G03X-590665Y-2514345I-15454J45607D01*
G03X-606119Y-2608106I0J-48154D01*
G01X-675211Y-2608106D01*
G03X-690665Y-2514345I-15454J45607D01*
G03X-706119Y-2608106I0J-48154D01*
G01X-775211Y-2608106D01*
G03X-790665Y-2514345I-15454J45607D01*
G03X-806119Y-2608106I0J-48154D01*
G01X-875211Y-2608106D01*
G03X-890665Y-2514345I-15454J45607D01*
G03X-906119Y-2608106I0J-48154D01*
G01X-975211Y-2608106D01*
G03X-990665Y-2514345I-15454J45607D01*
G03X-1006119Y-2608106I0J-48154D01*
G01X-1075211Y-2608106D01*
G03X-1090665Y-2514345I-15454J45607D01*
G03X-1106119Y-2608106I0J-48154D01*
G01X-1175211Y-2608106D01*
G03X-1190665Y-2514345I-15454J45607D01*
G03X-1206119Y-2608106I0J-48154D01*
G01X-1275211Y-2608106D01*
G03X-1290665Y-2514345I-15454J45607D01*
G03X-1306119Y-2608106I0J-48154D01*
G01X-1375211Y-2608106D01*
G03X-1390665Y-2514345I-15454J45607D01*
G03X-1406119Y-2608106I0J-48154D01*
G01X-1475211Y-2608106D01*
G03X-1490665Y-2514345I-15454J45607D01*
G03X-1506119Y-2608106I0J-48154D01*
G01X-1575212Y-2608106D01*
G03X-1590665Y-2514345I-15454J45607D01*
G03X-1606119Y-2608106I0J-48154D01*
G01X-1675212Y-2608106D01*
G03X-1690665Y-2514345I-15454J45607D01*
G03X-1706119Y-2608106I0J-48154D01*
G01X-1775212Y-2608106D01*
G03X-1790665Y-2514345I-15454J45607D01*
G03X-1806119Y-2608106I0J-48154D01*
G01X-1875212Y-2608106D01*
G03X-1890666Y-2514345I-15454J45607D01*
G03X-1906119Y-2608106I0J-48154D01*
G01X-1975212Y-2608106D01*
G03X-1990666Y-2514345I-15454J45607D01*
G03X-2006119Y-2608106I0J-48154D01*
G01X-2075212Y-2608106D01*
G03X-2090666Y-2514345I-15454J45607D01*
G03X-2106119Y-2608106I0J-48154D01*
G01X-2175212Y-2608106D01*
G03X-2190666Y-2514345I-15454J45607D01*
G03X-2206119Y-2608106I0J-48154D01*
G01X-2275212Y-2608106D01*
G03X-2290666Y-2514345I-15454J45607D01*
G03X-2306120Y-2608106I0J-48154D01*
G01X-2375212Y-2608106D01*
G03X-2390666Y-2514345I-15454J45607D01*
G03X-2406120Y-2608106I0J-48154D01*
G01X-2475212Y-2608106D01*
G03X-2490666Y-2514345I-15454J45607D01*
G03X-2506120Y-2608106I0J-48154D01*
G01X-2575212Y-2608106D01*
G03X-2590666Y-2514345I-15454J45607D01*
G03X-2606120Y-2608106I0J-48154D01*
G01X-2675212Y-2608106D01*
G03X-2690666Y-2514345I-15454J45607D01*
G03X-2706120Y-2608106I0J-48154D01*
G01X-2775212Y-2608106D01*
G03X-2790666Y-2514345I-15454J45607D01*
G03X-2806120Y-2608106I0J-48154D01*
G01X-2875212Y-2608106D01*
G03X-2890666Y-2514345I-15454J45607D01*
G03X-2906120Y-2608106I0J-48154D01*
G01X-2975212Y-2608106D01*
G03X-2990666Y-2514345I-15454J45607D01*
G03X-3006120Y-2608106I0J-48154D01*
G01X-3075212Y-2608106D01*
G03X-3090666Y-2514345I-15454J45607D01*
G03X-3106120Y-2608106I0J-48154D01*
G01X-3175212Y-2608106D01*
G03X-3190666Y-2514345I-15454J45607D01*
G03X-3206120Y-2608106I0J-48154D01*
G01X-3275212Y-2608106D01*
G03X-3290666Y-2514345I-15454J45607D01*
G03X-3306120Y-2608106I0J-48154D01*
G01X-3375213Y-2608106D01*
G03X-3390666Y-2514345I-15454J45607D01*
G03X-3406120Y-2608106I0J-48154D01*
G01X-3475213Y-2608106D01*
G03X-3490666Y-2514345I-15454J45607D01*
G03X-3506120Y-2608106I0J-48154D01*
G01X-3575213Y-2608106D01*
G03X-3590666Y-2514345I-15454J45607D01*
G03X-3606120Y-2608106I0J-48154D01*
G01X-3675213Y-2608106D01*
G03X-3655667Y-2529426I-15454J45607D01*
G03X-3451962Y-2128517I-55222J280265D01*
G03X-3889952Y-2026596I-258928J-120643D01*
G03X-3966424Y-2020377I-40595J-25901D01*
G03X-3951820Y-2095698I35876J-32120D01*
G03X-3985131Y-2169224I240931J-153462D01*
G03X-4069835Y-2157378I-45418J-16000D01*
G01X-4069835Y-2113070D01*
G03X-3982395Y-2085224I39286J27846D01*
G03X-4069835Y-2057378I-48154J0D01*
G01X-4069835Y-2013070D01*
G03X-3982395Y-1985224I39286J27846D01*
G03X-4069835Y-1957378I-48154J0D01*
G01X-4069835Y-1913070D01*
G03X-3982395Y-1885224I39286J27846D01*
G03X-4069835Y-1857378I-48154J0D01*
G01X-4069835Y-1813070D01*
G03X-3982395Y-1785224I39286J27846D01*
G03X-4069835Y-1757378I-48154J0D01*
G01X-4069835Y-1713070D01*
G03X-3982395Y-1685224I39286J27846D01*
G03X-4069835Y-1657377I-48154J0D01*
G01X-4069835Y-1613070D01*
G03X-3982395Y-1585224I39286J27846D01*
G03X-4069835Y-1557377I-48154J0D01*
G01X-4069835Y-1513070D01*
G03X-3982395Y-1485224I39286J27846D01*
G03X-4069835Y-1457377I-48154J0D01*
G01X-4069835Y-1413070D01*
G03X-3982395Y-1385224I39286J27846D01*
G03X-4069835Y-1357377I-48154J0D01*
G01X-4069835Y-1313070D01*
G03X-3982395Y-1285223I39286J27846D01*
G03X-4069835Y-1257377I-48154J0D01*
G01X-4069835Y-1213070D01*
G03X-3982395Y-1185223I39286J27846D01*
G03X-4069835Y-1157377I-48154J0D01*
G01X-4069835Y-1113070D01*
G03X-3982395Y-1085223I39286J27846D01*
G03X-4069835Y-1057377I-48154J0D01*
G01X-4069835Y-1013070D01*
G03X-3982395Y-985223I39286J27846D01*
G03X-4069835Y-957377I-48154J0D01*
G01X-4069835Y-913069D01*
G03X-3982395Y-885223I39286J27846D01*
G03X-4069835Y-857377I-48154J0D01*
G01X-4069835Y-813069D01*
G03X-3982395Y-785223I39286J27846D01*
G03X-4069835Y-757377I-48154J0D01*
G01X-4069835Y-713069D01*
G03X-3982395Y-685223I39286J27846D01*
G03X-4069835Y-657377I-48154J0D01*
G01X-4069835Y-613069D01*
G03X-3982395Y-585223I39286J27846D01*
G03X-4069835Y-557377I-48154J0D01*
G01X-4069835Y-513069D01*
G03X-3982395Y-485223I39286J27846D01*
G03X-4069835Y-457377I-48154J0D01*
G01X-4069835Y-413069D01*
G03X-3982395Y-385223I39286J27846D01*
G03X-4069835Y-357377I-48154J0D01*
G01X-4069835Y-313069D01*
G03X-3982395Y-285223I39286J27846D01*
G03X-4069835Y-257377I-48154J0D01*
G01X-4069835Y-155596D01*
G03X-4014202Y-192725I47050J10254D01*
G03X-3975129Y-138439I-8584J47383D01*
G03X-3970442Y-138439I2343J48097D01*
G03X-3922785Y-193496I47657J-6903D01*
G03X-3875129Y-138439I0J48154D01*
G03X-3870442Y-138439I2343J48097D01*
G03X-3822785Y-193496I47657J-6903D01*
G03X-3775129Y-138439I0J48154D01*
G03X-3770442Y-138439I2343J48097D01*
G03X-3722785Y-193496I47657J-6903D01*
G03X-3675129Y-138439I0J48154D01*
G03X-3670442Y-138439I2343J48097D01*
G03X-3622785Y-193496I47657J-6903D01*
G03X-3575129Y-138439I0J48154D01*
G03X-3570442Y-138439I2343J48097D01*
G03X-3522785Y-193496I47657J-6903D01*
G03X-3475129Y-138439I0J48154D01*
G03X-3470442Y-138439I2343J48097D01*
G03X-3422785Y-193496I47657J-6903D01*
G03X-3375129Y-138439I0J48154D01*
G03X-3370442Y-138439I2343J48097D01*
G03X-3322785Y-193496I47657J-6903D01*
G03X-3275129Y-138439I0J48154D01*
G03X-3270442Y-138439I2343J48097D01*
G03X-3222785Y-193496I47657J-6903D01*
G03X-3175129Y-138439I0J48154D01*
G03X-3140393Y-54711I2343J48097D01*
G03X-3220442Y-97245I-32392J-35631D01*
G03X-3225128Y-97245I-2343J-48097D01*
G03X-3272785Y-42188I-47657J6903D01*
G03X-3320442Y-97245I0J-48154D01*
G03X-3325128Y-97245I-2343J-48097D01*
G03X-3372785Y-42188I-47657J6903D01*
G03X-3420442Y-97245I0J-48154D01*
G03X-3425129Y-97245I-2343J-48097D01*
G03X-3472785Y-42188I-47657J6903D01*
G03X-3520442Y-97245I0J-48154D01*
G03X-3525129Y-97245I-2343J-48097D01*
G03X-3572785Y-42188I-47657J6903D01*
G03X-3620442Y-97245I0J-48154D01*
G03X-3625129Y-97245I-2343J-48097D01*
G03X-3672785Y-42188I-47657J6903D01*
G03X-3720442Y-97245I0J-48154D01*
G03X-3725129Y-97245I-2343J-48097D01*
G03X-3772785Y-42188I-47657J6903D01*
G03X-3820442Y-97245I0J-48154D01*
G03X-3825128Y-97245I-2343J-48097D01*
G03X-3872785Y-42188I-47657J6903D01*
G03X-3920442Y-97245I0J-48154D01*
G03X-3925129Y-97245I-2343J-48097D01*
G03X-3972785Y-42188I-47657J6903D01*
G03X-4020442Y-97245I0J-48154D01*
G03X-4069835Y-135088I-2343J-48097D01*
G01X-4069835Y134246D01*
G03X-4020658Y97347I46834J11198D01*
G03X-3973001Y42290I47657J-6903D01*
G03X-3925344Y97347I0J48154D01*
G03X-3920658Y97347I2343J48097D01*
G03X-3873001Y42290I47657J-6903D01*
G03X-3825344Y97347I0J48154D01*
G03X-3820658Y97347I2343J48097D01*
G03X-3773001Y42290I47657J-6903D01*
G03X-3725344Y97347I0J48154D01*
G03X-3690609Y181075I2343J48097D01*
G03X-3770658Y138541I-32392J-35631D01*
G03X-3775344Y138541I-2343J-48097D01*
G03X-3823001Y193598I-47657J6903D01*
G03X-3870658Y138541I0J-48154D01*
G03X-3875344Y138541I-2343J-48097D01*
G03X-3923001Y193598I-47657J6903D01*
G03X-3970658Y138541I0J-48154D01*
G03X-3975344Y138541I-2343J-48097D01*
G03X-3993762Y183704I-47657J6903D01*
G03X-4001063Y252848I-36787J31073D01*
G03X-4069835Y242624I-29486J-38071D01*
G01X-4069835Y286931D01*
G03X-3982395Y314777I39286J27846D01*
G03X-4069835Y342624I-48154J0D01*
G01X-4069835Y386931D01*
G03X-3982395Y414777I39286J27846D01*
G03X-4069835Y442624I-48154J0D01*
G01X-4069835Y486931D01*
G03X-3982395Y514777I39286J27846D01*
G03X-4069835Y542624I-48154J0D01*
G01X-4069835Y586931D01*
G03X-3982395Y614778I39286J27846D01*
G03X-4069835Y642624I-48154J0D01*
G01X-4069835Y686931D01*
G03X-3982395Y714778I39286J27846D01*
G03X-4069835Y742624I-48154J0D01*
G01X-4069835Y786931D01*
G03X-3982395Y814778I39286J27846D01*
G37*
%LPC*%
G36*
G01X-3978701Y747504D02*
G03X-3882393Y747504I48154J0D01*
G03X-3978701Y747504I-48154J0D01*
G37*
G36*
G01X-3978701Y947505D02*
G03X-3882393Y947505I48154J0D01*
G03X-3978701Y947505I-48154J0D01*
G37*
G36*
G01X-3978701Y547504D02*
G03X-3882393Y547504I48154J0D01*
G03X-3978701Y547504I-48154J0D01*
G37*
G36*
G01X-3978701Y-652496D02*
G03X-3882393Y-652496I48154J0D01*
G03X-3978701Y-652496I-48154J0D01*
G37*
G36*
G01X-3978701Y-852496D02*
G03X-3882393Y-852496I48154J0D01*
G03X-3978701Y-852496I-48154J0D01*
G37*
G36*
G01X-3978701Y-1252497D02*
G03X-3882393Y-1252497I48154J0D01*
G03X-3978701Y-1252497I-48154J0D01*
G37*
G36*
G01X-3978701Y-1052496D02*
G03X-3882393Y-1052496I48154J0D01*
G03X-3978701Y-1052496I-48154J0D01*
G37*
G36*
G01X-3978701Y-1852497D02*
G03X-3882393Y-1852497I48154J0D01*
G03X-3978701Y-1852497I-48154J0D01*
G37*
G36*
G01X-3978701Y-1652497D02*
G03X-3882393Y-1652497I48154J0D01*
G03X-3978701Y-1652497I-48154J0D01*
G37*
G36*
G01X-3971155Y345360D02*
G03X-3874847Y345360I48154J0D01*
G03X-3971155Y345360I-48154J0D01*
G37*
G36*
G01X-3971155Y445319D02*
G03X-3874847Y445319I48154J0D01*
G03X-3971155Y445319I-48154J0D01*
G37*
G36*
G01X-3971155Y245402D02*
G03X-3874847Y245402I48154J0D01*
G03X-3971155Y245402I-48154J0D01*
G37*
G36*
G01X-3970939Y-245300D02*
G03X-3874631Y-245300I48154J0D01*
G03X-3970939Y-245300I-48154J0D01*
G37*
G36*
G01X-3970939Y-345259D02*
G03X-3874631Y-345259I48154J0D01*
G03X-3970939Y-345259I-48154J0D01*
G37*
G36*
G01X-3970939Y-445217D02*
G03X-3874631Y-445217I48154J0D01*
G03X-3970939Y-445217I-48154J0D01*
G37*
G36*
G01X-3871155Y345360D02*
G03X-3774847Y345360I48154J0D01*
G03X-3871155Y345360I-48154J0D01*
G37*
G36*
G01X-3871155Y445319D02*
G03X-3774847Y445319I48154J0D01*
G03X-3871155Y445319I-48154J0D01*
G37*
G36*
G01X-3871155Y245402D02*
G03X-3774847Y245402I48154J0D01*
G03X-3871155Y245402I-48154J0D01*
G37*
G36*
G01X-3870939Y-245300D02*
G03X-3774631Y-245300I48154J0D01*
G03X-3870939Y-245300I-48154J0D01*
G37*
G36*
G01X-3870939Y-345259D02*
G03X-3774631Y-345259I48154J0D01*
G03X-3870939Y-345259I-48154J0D01*
G37*
G36*
G01X-3870939Y-445217D02*
G03X-3774631Y-445217I48154J0D01*
G03X-3870939Y-445217I-48154J0D01*
G37*
G36*
G01X-3778701Y747504D02*
G03X-3682393Y747504I48154J0D01*
G03X-3778701Y747504I-48154J0D01*
G37*
G36*
G01X-3778701Y547504D02*
G03X-3682393Y547504I48154J0D01*
G03X-3778701Y547504I-48154J0D01*
G37*
G36*
G01X-3778701Y-652496D02*
G03X-3682393Y-652496I48154J0D01*
G03X-3778701Y-652496I-48154J0D01*
G37*
G36*
G01X-3778701Y-852496D02*
G03X-3682393Y-852496I48154J0D01*
G03X-3778701Y-852496I-48154J0D01*
G37*
G36*
G01X-3778701Y-1052496D02*
G03X-3682393Y-1052496I48154J0D01*
G03X-3778701Y-1052496I-48154J0D01*
G37*
G36*
G01X-3778701Y-1252497D02*
G03X-3682393Y-1252497I48154J0D01*
G03X-3778701Y-1252497I-48154J0D01*
G37*
G36*
G01X-3778701Y-1652497D02*
G03X-3682393Y-1652497I48154J0D01*
G03X-3778701Y-1652497I-48154J0D01*
G37*
G36*
G01X-3771155Y345360D02*
G03X-3674847Y345360I48154J0D01*
G03X-3771155Y345360I-48154J0D01*
G37*
G36*
G01X-3771155Y445319D02*
G03X-3674847Y445319I48154J0D01*
G03X-3771155Y445319I-48154J0D01*
G37*
G36*
G01X-3771155Y245402D02*
G03X-3674847Y245402I48154J0D01*
G03X-3771155Y245402I-48154J0D01*
G37*
G36*
G01X-3770939Y-345259D02*
G03X-3674631Y-345259I48154J0D01*
G03X-3770939Y-345259I-48154J0D01*
G37*
G36*
G01X-3770939Y-245300D02*
G03X-3674631Y-245300I48154J0D01*
G03X-3770939Y-245300I-48154J0D01*
G37*
G36*
G01X-3770939Y-445217D02*
G03X-3674631Y-445217I48154J0D01*
G03X-3770939Y-445217I-48154J0D01*
G37*
G36*
G01X-3671155Y145444D02*
G03X-3574847Y145444I48154J0D01*
G03X-3671155Y145444I-48154J0D01*
G37*
G36*
G01X-3578701Y947505D02*
G03X-3482393Y947505I48154J0D01*
G03X-3578701Y947505I-48154J0D01*
G37*
G36*
G01X-3578701Y347504D02*
G03X-3482393Y347504I48154J0D01*
G03X-3578701Y347504I-48154J0D01*
G37*
G36*
G01X-3578701Y-252496D02*
G03X-3482393Y-252496I48154J0D01*
G03X-3578701Y-252496I-48154J0D01*
G37*
G36*
G01X-3578701Y547504D02*
G03X-3482393Y547504I48154J0D01*
G03X-3578701Y547504I-48154J0D01*
G37*
G36*
G01X-3578701Y-652496D02*
G03X-3482393Y-652496I48154J0D01*
G03X-3578701Y-652496I-48154J0D01*
G37*
G36*
G01X-3578701Y-852496D02*
G03X-3482393Y-852496I48154J0D01*
G03X-3578701Y-852496I-48154J0D01*
G37*
G36*
G01X-3578701Y-1052496D02*
G03X-3482393Y-1052496I48154J0D01*
G03X-3578701Y-1052496I-48154J0D01*
G37*
G36*
G01X-3578701Y-1852497D02*
G03X-3482393Y-1852497I48154J0D01*
G03X-3578701Y-1852497I-48154J0D01*
G37*
G36*
G01X-3578701Y-1652497D02*
G03X-3482393Y-1652497I48154J0D01*
G03X-3578701Y-1652497I-48154J0D01*
G37*
G36*
G01X-3506203Y227502D02*
G03X-3394895Y227502I55654J0D01*
G03X-3506203Y227502I-55654J0D01*
G37*
G36*
G01X-3503207Y-740000D02*
G03X-3406899Y-740000I48154J0D01*
G03X-3503207Y-740000I-48154J0D01*
G37*
G36*
G01X-3378701Y947505D02*
G03X-3282393Y947505I48154J0D01*
G03X-3378701Y947505I-48154J0D01*
G37*
G36*
G01X-3378701Y1347505D02*
G03X-3282393Y1347505I48154J0D01*
G03X-3378701Y1347505I-48154J0D01*
G37*
G36*
G01X-3378701Y1147505D02*
G03X-3282393Y1147505I48154J0D01*
G03X-3378701Y1147505I-48154J0D01*
G37*
G36*
G01X-3378701Y-252496D02*
G03X-3282393Y-252496I48154J0D01*
G03X-3378701Y-252496I-48154J0D01*
G37*
G36*
G01X-3356068Y506670D02*
G03X-3297330Y582367I25521J40835D01*
G03X-3255027Y668337I16781J45136D01*
G03X-3313766Y592640I-25521J-40835D01*
G03X-3356068Y506670I-16781J-45136D01*
G37*
G36*
G01X-3378701Y-652496D02*
G03X-3282393Y-652496I48154J0D01*
G03X-3378701Y-652496I-48154J0D01*
G37*
G36*
G01X-3378701Y-852496D02*
G03X-3282393Y-852496I48154J0D01*
G03X-3378701Y-852496I-48154J0D01*
G37*
G36*
G01X-3378701Y-1852497D02*
G03X-3282393Y-1852497I48154J0D01*
G03X-3378701Y-1852497I-48154J0D01*
G37*
G36*
G01X-3378701Y-1652497D02*
G03X-3282393Y-1652497I48154J0D01*
G03X-3378701Y-1652497I-48154J0D01*
G37*
G36*
G01X-3071818Y138624D02*
G03X-3119475Y193681I-47657J6903D01*
G03X-3167131Y138624I0J-48154D01*
G03X-3171818Y138624I-2343J-48097D01*
G03X-3219475Y193681I-47657J6903D01*
G03X-3267131Y138624I0J-48154D01*
G03X-3271818Y138624I-2343J-48097D01*
G03X-3351867Y181158I-47657J6903D01*
G03X-3317132Y97430I32392J-35631D01*
G03X-3269475Y42373I47657J-6903D01*
G03X-3221818Y97430I0J48154D01*
G03X-3217131Y97430I2343J48097D01*
G03X-3169475Y42373I47657J-6903D01*
G03X-3121818Y97430I0J48154D01*
G03X-3117131Y97430I2343J48097D01*
G03X-3069475Y42373I47657J-6903D01*
G03X-3021818Y97430I0J48154D01*
G03X-3017131Y97430I2343J48097D01*
G03X-2969475Y42373I47657J-6903D01*
G03X-2921818Y97430I0J48154D01*
G03X-2887083Y181158I2343J48097D01*
G03X-2967131Y138624I-32392J-35631D01*
G03X-2971818Y138624I-2343J-48097D01*
G03X-3019475Y193681I-47657J6903D01*
G03X-3067131Y138624I0J-48154D01*
G03X-3071818Y138624I-2343J-48097D01*
G37*
G36*
G01X-3350707Y-2150001D02*
G03X-3239399Y-2150001I55654J0D01*
G03X-3350707Y-2150001I-55654J0D01*
G37*
G36*
G01X-3338703Y-2312499D02*
G03X-3242395Y-2312499I48154J0D01*
G03X-3338703Y-2312499I-48154J0D01*
G37*
G36*
G01X-3179043Y-2332160D02*
G03X-3082735Y-2332160I48154J0D01*
G03X-3179043Y-2332160I-48154J0D01*
G37*
G36*
G01X-3178701Y-252496D02*
G03X-3082393Y-252496I48154J0D01*
G03X-3178701Y-252496I-48154J0D01*
G37*
G36*
G01X-3178701Y-1252497D02*
G03X-3082393Y-1252497I48154J0D01*
G03X-3178701Y-1252497I-48154J0D01*
G37*
G36*
G01X-3178701Y-452496D02*
G03X-3082393Y-452496I48154J0D01*
G03X-3178701Y-452496I-48154J0D01*
G37*
G36*
G01X-3109044Y770841D02*
G03X-3012736Y770841I48154J0D01*
G03X-3109044Y770841I-48154J0D01*
G37*
G36*
G01X-3094701Y-2393494D02*
G03X-2998393Y-2393494I48154J0D01*
G03X-3094701Y-2393494I-48154J0D01*
G37*
G36*
G01X-3069701Y-146499D02*
G03X-2973393Y-146499I48154J0D01*
G03X-3069701Y-146499I-48154J0D01*
G37*
G36*
G01X-3048703Y277502D02*
G03X-2952394Y277502I48154J0D01*
G03X-3048703Y277502I-48154J0D01*
G37*
G36*
G01X-2887158Y459858D02*
G03X-2942215Y507515I-48154J0D01*
G03X-3025943Y542250I-48097J2343D01*
G03X-2983409Y462201I35631J-32392D01*
G03X-2983409Y457515I48097J-2343D01*
G03X-3025943Y377466I-6903J-47657D01*
G03X-2942215Y412201I35631J32392D01*
G03X-2887158Y459858I6903J47657D01*
G37*
G36*
G01X-2915127Y-1298115D02*
G03X-2915103Y-1206886I-15420J45618D01*
G03X-2970473Y-1134382I-39950J26886D01*
G03X-2970497Y-1225611I15420J-45618D01*
G03X-2915127Y-1298115I39950J-26886D01*
G37*
G36*
G01X-2978701Y-1452497D02*
G03X-2882393Y-1452497I48154J0D01*
G03X-2978701Y-1452497I-48154J0D01*
G37*
G36*
G01X-2978701Y-1852497D02*
G03X-2882393Y-1852497I48154J0D01*
G03X-2978701Y-1852497I-48154J0D01*
G37*
G36*
G01X-2978701Y-1652497D02*
G03X-2882393Y-1652497I48154J0D01*
G03X-2978701Y-1652497I-48154J0D01*
G37*
G36*
G01X-2953207Y-1090001D02*
G03X-2856899Y-1090001I48154J0D01*
G03X-2953207Y-1090001I-48154J0D01*
G37*
G36*
G01X-2944088Y-149142D02*
G03X-2847780Y-149142I48154J0D01*
G03X-2944088Y-149142I-48154J0D01*
G37*
G36*
G01X-2923905Y689152D02*
G03X-2827597Y689152I48154J0D01*
G03X-2923905Y689152I-48154J0D01*
G37*
G36*
G01X-2921701Y-2140495D02*
G03X-2825393Y-2140495I48154J0D01*
G03X-2921701Y-2140495I-48154J0D01*
G37*
G36*
G01X-2721818Y97430D02*
G03X-2695826Y103580I2343J48097D01*
G03X-2673572Y48836I46351J-13053D01*
G03X-2615028Y56879I24097J41691D01*
G03X-2532736Y91060I34138J33962D01*
G03X-2615336Y124489I-48154J-220D01*
G03X-2673123Y132474I-34138J-33962D01*
G03X-2716335Y193579I-46351J13053D01*
G03X-2765958Y273720I-33208J34872D01*
G03X-2752683Y180399I16415J-45270D01*
G03X-2767131Y138624I33208J-34872D01*
G03X-2771818Y138624I-2343J-48097D01*
G03X-2851867Y181158I-47657J6903D01*
G03X-2817132Y97430I32392J-35631D01*
G03X-2790651Y47279I47657J-6903D01*
G03X-2736058Y-24028I41108J-25079D01*
G03X-2728367Y65448I-13485J46227D01*
G03X-2721818Y97430I-41108J25079D01*
G37*
G36*
G01X-2826071Y-1334409D02*
G03X-2767336Y-1258707I25522J40835D01*
G03X-2725028Y-1172739I16786J45133D01*
G03X-2783763Y-1248441I-25522J-40835D01*
G03X-2826071Y-1334409I-16786J-45133D01*
G37*
G36*
G01X-2833206Y-380000D02*
G03X-2736898Y-380000I48154J0D01*
G03X-2833206Y-380000I-48154J0D01*
G37*
G36*
G01X-2828705Y-1441131D02*
G03X-2732397Y-1441131I48154J0D01*
G03X-2828705Y-1441131I-48154J0D01*
G37*
G36*
G01X-2828704Y-863574D02*
G03X-2732396Y-863574I48154J0D01*
G03X-2828704Y-863574I-48154J0D01*
G37*
G36*
G01X-2828704Y-713574D02*
G03X-2732396Y-713574I48154J0D01*
G03X-2828704Y-713574I-48154J0D01*
G37*
G36*
G01X-2828702Y-992498D02*
G03X-2732394Y-992498I48154J0D01*
G03X-2828702Y-992498I-48154J0D01*
G37*
G36*
G01X-2828702Y-1589763D02*
G03X-2732394Y-1589763I48154J0D01*
G03X-2828702Y-1589763I-48154J0D01*
G37*
G36*
G01X-2814082Y-149142D02*
G03X-2717774Y-149142I48154J0D01*
G03X-2814082Y-149142I-48154J0D01*
G37*
G36*
G01X-2798678Y1325969D02*
G03X-2703218Y1318636I48130J1534D01*
G03X-2608418Y1332032I46670J11862D01*
G03X-2703878Y1339365I-48130J-1534D01*
G03X-2798678Y1325969I-46670J-11862D01*
G37*
G36*
G01X-2797712Y1093506D02*
G03X-2701404Y1093506I48154J0D01*
G03X-2797712Y1093506I-48154J0D01*
G37*
G36*
G01X-2796283Y689720D02*
G03X-2699975Y689720I48154J0D01*
G03X-2796283Y689720I-48154J0D01*
G37*
G36*
G01X-2778701Y947505D02*
G03X-2682393Y947505I48154J0D01*
G03X-2778701Y947505I-48154J0D01*
G37*
G36*
G01X-2763207Y-1090001D02*
G03X-2666898Y-1090001I48154J0D01*
G03X-2763207Y-1090001I-48154J0D01*
G37*
G36*
G01X-2750442Y519336D02*
G03X-2654134Y519336I48154J0D01*
G03X-2750442Y519336I-48154J0D01*
G37*
G36*
G01X-2748702Y-2012499D02*
G03X-2652394Y-2012499I48154J0D01*
G03X-2748702Y-2012499I-48154J0D01*
G37*
G36*
G01X-2702701Y257200D02*
G03X-2606393Y257200I48154J0D01*
G03X-2702701Y257200I-48154J0D01*
G37*
G36*
G01X-2701533Y-594920D02*
G03X-2605225Y-594920I48154J0D01*
G03X-2701533Y-594920I-48154J0D01*
G37*
G36*
G01X-2696701Y1098499D02*
G03X-2600393Y1098499I48154J0D01*
G03X-2696701Y1098499I-48154J0D01*
G37*
G36*
G01X-2681886Y-286317D02*
G03X-2585578Y-286317I48154J0D01*
G03X-2681886Y-286317I-48154J0D01*
G37*
G36*
G01X-2655177Y-180973D02*
G03X-2575129Y-138439I32392J35631D01*
G03X-2540393Y-54711I2343J48097D01*
G03X-2620442Y-97245I-32392J-35631D01*
G03X-2655177Y-180973I-2343J-48097D01*
G37*
G36*
G01X-2667794Y720441D02*
G03X-2572712Y724247I47244J9316D01*
G03X-2483302Y756820I42165J23258D01*
G03X-2578384Y753015I-47244J-9316D01*
G03X-2667794Y720441I-42165J-23258D01*
G37*
G36*
G01X-2633206Y-380000D02*
G03X-2536898Y-380000I48154J0D01*
G03X-2633206Y-380000I-48154J0D01*
G37*
G36*
G01X-2578701Y947505D02*
G03X-2482393Y947505I48154J0D01*
G03X-2578701Y947505I-48154J0D01*
G37*
G36*
G01X-2578701Y1147505D02*
G03X-2482393Y1147505I48154J0D01*
G03X-2578701Y1147505I-48154J0D01*
G37*
G36*
G01X-2578701Y1347505D02*
G03X-2482393Y1347505I48154J0D01*
G03X-2578701Y1347505I-48154J0D01*
G37*
G36*
G01X-2578701Y-1852497D02*
G03X-2482393Y-1852497I48154J0D01*
G03X-2578701Y-1852497I-48154J0D01*
G37*
G36*
G01X-2572188Y447874D02*
G03X-2475880Y447874I48154J0D01*
G03X-2572188Y447874I-48154J0D01*
G37*
G36*
G01X-2514920Y108709D02*
G03X-2418612Y108709I48154J0D01*
G03X-2514920Y108709I-48154J0D01*
G37*
G36*
G01X-2513206Y-840000D02*
G03X-2416898Y-840000I48154J0D01*
G03X-2513206Y-840000I-48154J0D01*
G37*
G36*
G01X-2511699Y242708D02*
G03X-2415390Y242708I48154J0D01*
G03X-2511699Y242708I-48154J0D01*
G37*
G36*
G01X-2506613Y-386167D02*
G03X-2410305Y-386167I48154J0D01*
G03X-2506613Y-386167I-48154J0D01*
G37*
G36*
G01X-2438702Y-1722499D02*
G03X-2342394Y-1722499I48154J0D01*
G03X-2438702Y-1722499I-48154J0D01*
G37*
G36*
G01X-2298176Y-67790D02*
G03X-2313102Y19275I-26372J40291D01*
G03X-2386920Y67793I-47446J8227D01*
G03X-2371994Y-19272I26372J-40291D01*
G03X-2298176Y-67790I47446J-8227D01*
G37*
G36*
G01X-2384953Y-603196D02*
G03X-2315889Y-602233I34064J34036D01*
G03X-2232735Y-569160I35000J33073D01*
G03X-2315889Y-536087I-48154J0D01*
G03X-2318556Y-533476I-35000J-33073D01*
G03X-2352084Y-450298I-33044J35027D01*
G03X-2383934Y-534133I484J-48152D01*
G03X-2384953Y-603196I33044J-35027D01*
G37*
G36*
G01X-2068214Y869334D02*
G03X-2144032Y864612I-35826J-35811D01*
G03X-2224029Y864596I-39992J-31090D01*
G03X-2304027Y864612I-40005J-31073D01*
G03X-2379845Y869334I-39992J-31090D01*
G03X-2375092Y793517I35826J-35811D01*
G03X-2394674Y753512I31073J-40005D01*
G03X-2375092Y713507I50655J0D01*
G03X-2379845Y637691I31073J-40005D01*
G03X-2304027Y642413I35826J35811D01*
G03X-2264024Y622847I39992J31090D01*
G03X-2224029Y642429I-10J50655D01*
G03X-2184035Y622847I40005J31073D01*
G03X-2144032Y642413I10J50655D01*
G03X-2068214Y637691I39992J31090D01*
G03X-2072966Y713507I-35826J35811D01*
G03X-2053385Y753512I-31073J40005D01*
G03X-2072966Y793517I-50655J0D01*
G03X-2068214Y869334I-31073J40005D01*
G37*
G36*
G01X-2388702Y-1912499D02*
G03X-2292394Y-1912499I48154J0D01*
G03X-2388702Y-1912499I-48154J0D01*
G37*
G36*
G01X-2248475Y-848267D02*
G03X-2186383Y-784388I17925J44693D01*
G03X-2187127Y-695307I-18670J44388D01*
G03X-2249219Y-759186I-17925J-44693D01*
G03X-2248475Y-848267I18670J-44388D01*
G37*
G36*
G01X-2278702Y-1622499D02*
G03X-2182394Y-1622499I48154J0D01*
G03X-2278702Y-1622499I-48154J0D01*
G37*
G36*
G01X-2222965Y-1172113D02*
G03X-2209173Y-1077329I1927J48116D01*
G03X-2215342Y-981744I-8096J47469D01*
G03X-2229135Y-1076529I-1927J-48116D01*
G03X-2222965Y-1172113I8096J-47469D01*
G37*
G36*
G01X-2265423Y-915560D02*
G03X-2169115Y-915560I48154J0D01*
G03X-2265423Y-915560I-48154J0D01*
G37*
G36*
G01X-2244481Y55450D02*
G03X-2164433Y97984I32392J35631D01*
G03X-2129697Y181712I2343J48097D01*
G03X-2209746Y139178I-32392J-35631D01*
G03X-2244481Y55450I-2343J-48097D01*
G37*
G36*
G01X-1962089Y-194236D02*
G03X-1914432Y-139178I0J48154D01*
G03X-1909745Y-139178I2343J48097D01*
G03X-1883168Y-189377I47657J-6903D01*
G03X-1868436Y-237066I46714J-11690D01*
G03X-1870680Y-330719I10047J-47094D01*
G03X-1826407Y-248161I12291J46559D01*
G03X-1788655Y-206900I-10047J47094D01*
G03X-1815375Y-157771I-47799J5834D01*
G03X-1864432Y-97984I-46714J11690D01*
G03X-1912089Y-42927I-47657J6903D01*
G03X-1959745Y-97984I0J-48154D01*
G03X-1964432Y-97984I-2343J-48097D01*
G03X-2012089Y-42927I-47657J6903D01*
G03X-2059745Y-97984I0J-48154D01*
G03X-2108177Y-132130I-2343J-48097D01*
G03X-2161685Y-96588I-46605J-12115D01*
G03X-2245414Y-61853I-48097J2343D01*
G03X-2202880Y-141902I35631J-32392D01*
G03X-2202880Y-146588I48097J-2343D01*
G03X-2257937Y-194245I-6903J-47657D01*
G03X-2202880Y-241902I48154J0D01*
G03X-2119152Y-276637I48097J-2343D01*
G03X-2161685Y-196588I-35631J32392D01*
G03X-2161685Y-191902I-48097J2343D01*
G03X-2108694Y-158197I6903J47657D01*
G03X-2052565Y-193284I46605J12115D01*
G03X-2014432Y-139178I-9524J47203D01*
G03X-2009746Y-139178I2343J48097D01*
G03X-1962089Y-194236I47657J-6903D01*
G37*
G36*
G01X-2185193Y-1172998D02*
G03X-2088885Y-1172998I48154J0D01*
G03X-2185193Y-1172998I-48154J0D01*
G37*
G36*
G01X-2178700Y-2252497D02*
G03X-2082392Y-2252497I48154J0D01*
G03X-2178700Y-2252497I-48154J0D01*
G37*
G36*
G01X-2175698Y1267502D02*
G03X-2079390Y1267502I48154J0D01*
G03X-2175698Y1267502I-48154J0D01*
G37*
G36*
G01X-2102228Y-1508449D02*
G03X-2095000Y-1413781I-4442J47949D01*
G03X-2119494Y-1322052I-20052J43780D01*
G03X-2126721Y-1416720I4442J-47949D01*
G03X-2102228Y-1508449I20052J-43780D01*
G37*
G36*
G01X-2009049Y-729126D02*
G03X-2054049Y-760139I0J-48154D01*
G03X-2133099Y-743230I-45000J-17141D01*
G03X-2116190Y-822280I34050J-34050D01*
G03X-2116190Y-912280I17141J-45000D01*
G03X-2147203Y-957280I17141J-45000D01*
G03X-2116190Y-1002280I48154J0D01*
G03X-2133099Y-1081330I17141J-45000D01*
G03X-2054049Y-1064421I34050J34050D01*
G03X-2009049Y-1095434I45000J17141D01*
G03X-1964049Y-1064421I0J48154D01*
G03X-1919049Y-1095434I45000J17141D01*
G03X-1874049Y-1064421I-0J48154D01*
G03X-1794999Y-1081330I45000J17141D01*
G03X-1811908Y-1002280I-34050J34050D01*
G03X-1780895Y-957280I-17141J45000D01*
G03X-1811908Y-912280I-48154J0D01*
G03X-1780895Y-867280I-17141J45000D01*
G03X-1811908Y-822280I-48154J0D01*
G03X-1794999Y-743230I-17141J45000D01*
G03X-1874049Y-760139I-34050J-34050D01*
G03X-1919049Y-729126I-45000J-17141D01*
G03X-1964049Y-760139I-0J-48154D01*
G03X-2009049Y-729126I-45000J-17141D01*
G37*
G36*
G01X-2118702Y-1622499D02*
G03X-2022394Y-1622499I48154J0D01*
G03X-2118702Y-1622499I-48154J0D01*
G37*
G36*
G01X-2014432Y139178D02*
G03X-2094481Y181712I-47657J6903D01*
G03X-2059746Y97984I32392J-35631D01*
G03X-2012089Y42927I47657J-6903D01*
G03X-1964432Y97984I0J48154D01*
G03X-1959746Y97984I2343J48097D01*
G03X-1912089Y42927I47657J-6903D01*
G03X-1864432Y97984I0J48154D01*
G03X-1859746Y97984I2343J48097D01*
G03X-1812089Y42927I47657J-6903D01*
G03X-1764433Y97984I0J48154D01*
G03X-1759746Y97984I2343J48097D01*
G03X-1712089Y42927I47657J-6903D01*
G03X-1664433Y97984I0J48154D01*
G03X-1629697Y181712I2343J48097D01*
G03X-1709746Y139178I-32392J-35631D01*
G03X-1714432Y139178I-2343J-48097D01*
G03X-1762089Y194235I-47657J6903D01*
G03X-1809746Y139178I0J-48154D01*
G03X-1814432Y139178I-2343J-48097D01*
G03X-1862089Y194235I-47657J6903D01*
G03X-1909746Y139178I0J-48154D01*
G03X-1914433Y139178I-2343J-48097D01*
G03X-1962089Y194235I-47657J6903D01*
G03X-2009746Y139178I0J-48154D01*
G03X-2014432Y139178I-2343J-48097D01*
G37*
G36*
G01X-1975115Y-397363D02*
G03X-2009850Y-313635I-32392J35631D01*
G03X-2089899Y-271101I-47657J6903D01*
G03X-2055164Y-354829I32392J-35631D01*
G03X-1975115Y-397363I47657J-6903D01*
G37*
G36*
G01X-2099043Y-659160D02*
G03X-2002735Y-659160I48154J0D01*
G03X-2099043Y-659160I-48154J0D01*
G37*
G36*
G01X-2053206Y-1450001D02*
G03X-1956898Y-1450001I48154J0D01*
G03X-2053206Y-1450001I-48154J0D01*
G37*
G36*
G01X-2006343Y-1169560D02*
G03X-1910035Y-1169560I48154J0D01*
G03X-2006343Y-1169560I-48154J0D01*
G37*
G36*
G01X-1999043Y-659160D02*
G03X-1902735Y-659160I48154J0D01*
G03X-1999043Y-659160I-48154J0D01*
G37*
G36*
G01X-1993702Y447874D02*
G03X-1897394Y447874I48154J0D01*
G03X-1993702Y447874I-48154J0D01*
G37*
G36*
G01X-1978700Y1147505D02*
G03X-1882392Y1147505I48154J0D01*
G03X-1978700Y1147505I-48154J0D01*
G37*
G36*
G01X-1978700Y-2452497D02*
G03X-1882392Y-2452497I48154J0D01*
G03X-1978700Y-2452497I-48154J0D01*
G37*
G36*
G01X-1958467Y-1627250D02*
G03X-1863915Y-1634507I47919J4752D01*
G03X-1772630Y-1608822I43366J20933D01*
G03X-1867182Y-1601566I-47919J-4752D01*
G03X-1958467Y-1627250I-43366J-20933D01*
G37*
G36*
G01X-1938702Y817503D02*
G03X-1842394Y817503I48154J0D01*
G03X-1938702Y817503I-48154J0D01*
G37*
G36*
G01X-1899043Y-659160D02*
G03X-1802735Y-659160I48154J0D01*
G03X-1899043Y-659160I-48154J0D01*
G37*
G36*
G01X-1767338Y-1404826D02*
G03X-1838825Y-1344596I-43211J21251D01*
G03X-1803759Y-1431247I28276J-38978D01*
G03X-1765499Y-1500397I43211J-21251D01*
G03X-1713904Y-1440535I4951J47899D01*
G03X-1679720Y-1355505I3356J48037D01*
G03X-1757192Y-1404461I-30828J-36993D01*
G03X-1767338Y-1404826I-3356J-48037D01*
G37*
G36*
G01X-1799043Y-659160D02*
G03X-1702735Y-659160I48154J0D01*
G03X-1799043Y-659160I-48154J0D01*
G37*
G36*
G01X-1778811Y-279740D02*
G03X-1747393Y-358085I37228J-30543D01*
G03X-1708919Y-410740I47848J-5422D01*
G03X-1653253Y-376769I9374J47233D01*
G03X-1570279Y-392276I45746J15037D01*
G03X-1601697Y-313930I-37228J30543D01*
G03X-1640171Y-261275I-47848J5422D01*
G03X-1695837Y-295246I-9374J-47233D01*
G03X-1778811Y-279740I-45746J-15037D01*
G37*
G36*
G01X-1788702Y-2092499D02*
G03X-1692394Y-2092499I48154J0D01*
G03X-1788702Y-2092499I-48154J0D01*
G37*
G36*
G01X-1778700Y1347505D02*
G03X-1682392Y1347505I48154J0D01*
G03X-1778700Y1347505I-48154J0D01*
G37*
G36*
G01X-1778700Y947505D02*
G03X-1682392Y947505I48154J0D01*
G03X-1778700Y947505I-48154J0D01*
G37*
G36*
G01X-1737275Y699823D02*
G03X-1691836Y776146I6729J47682D01*
G03X-1714379Y862063I-29273J38235D01*
G03X-1759819Y785740I-6729J-47682D01*
G03X-1737275Y699823I29273J-38235D01*
G37*
G36*
G01X-1778700Y-2252497D02*
G03X-1682392Y-2252497I48154J0D01*
G03X-1778700Y-2252497I-48154J0D01*
G37*
G36*
G01X-1778700Y-2452497D02*
G03X-1682392Y-2452497I48154J0D01*
G03X-1778700Y-2452497I-48154J0D01*
G37*
G36*
G01X-1768702Y398503D02*
G03X-1672394Y398503I48154J0D01*
G03X-1768702Y398503I-48154J0D01*
G37*
G36*
G01X-1752343Y-811420D02*
G03X-1656035Y-811420I48154J0D01*
G03X-1752343Y-811420I-48154J0D01*
G37*
G36*
G01X-1744723Y-968900D02*
G03X-1648415Y-968900I48154J0D01*
G03X-1744723Y-968900I-48154J0D01*
G37*
G36*
G01X-1740660Y242680D02*
G03X-1644352Y242680I48154J0D01*
G03X-1740660Y242680I-48154J0D01*
G37*
G36*
G01X-1586655Y-187498D02*
G03X-1525638Y-114615I24566J41417D01*
G03X-1606648Y-164337I-36451J-31466D01*
G03X-1667665Y-237220I-24566J-41417D01*
G03X-1586655Y-187498I36451J31466D01*
G37*
G36*
G01X-1513986Y-1231160D02*
G03X-1594608Y-1281928I-36561J-31338D01*
G03X-1657109Y-1353837I-25940J-40570D01*
G03X-1576488Y-1303068I36561J31338D01*
G03X-1513986Y-1231160I25940J40570D01*
G37*
G36*
G01X-1658702Y1257503D02*
G03X-1562394Y1257503I48154J0D01*
G03X-1658702Y1257503I-48154J0D01*
G37*
G36*
G01X-1455163Y-550798D02*
G03X-1459850Y-550798I-2343J-48097D01*
G03X-1507506Y-495741I-47657J6903D01*
G03X-1555163Y-550798I0J-48154D01*
G03X-1559850Y-550798I-2343J-48097D01*
G03X-1639898Y-508264I-47657J6903D01*
G03X-1605163Y-591992I32392J-35631D01*
G03X-1557506Y-647049I47657J-6903D01*
G03X-1509850Y-591992I0J48154D01*
G03X-1505163Y-591992I2343J48097D01*
G03X-1457506Y-647049I47657J-6903D01*
G03X-1409850Y-591992I0J48154D01*
G03X-1405163Y-591992I2343J48097D01*
G03X-1325114Y-634526I47657J-6903D01*
G03X-1359850Y-550798I-32392J35631D01*
G03X-1363163Y-525121I-47657J6903D01*
G03X-1316797Y-479007I-1747J48122D01*
G03X-1359158Y-429190I-48112J2008D01*
G03X-1440463Y-398023I-48017J-3629D01*
G03X-1412927Y-480628I33288J-34796D01*
G03X-1409253Y-495773I48017J3629D01*
G03X-1455163Y-550798I1747J-48122D01*
G37*
G36*
G01X-1588702Y717503D02*
G03X-1492394Y717503I48154J0D01*
G03X-1588702Y717503I-48154J0D01*
G37*
G36*
G01X-1578700Y947505D02*
G03X-1482392Y947505I48154J0D01*
G03X-1578700Y947505I-48154J0D01*
G37*
G36*
G01X-1578700Y347504D02*
G03X-1482392Y347504I48154J0D01*
G03X-1578700Y347504I-48154J0D01*
G37*
G36*
G01X-1578700Y-2452497D02*
G03X-1482392Y-2452497I48154J0D01*
G03X-1578700Y-2452497I-48154J0D01*
G37*
G36*
G01X-1578700Y-2052497D02*
G03X-1482392Y-2052497I48154J0D01*
G03X-1578700Y-2052497I-48154J0D01*
G37*
G36*
G01X-1578700Y-1652497D02*
G03X-1482392Y-1652497I48154J0D01*
G03X-1578700Y-1652497I-48154J0D01*
G37*
G36*
G01X-1575269Y-1104924D02*
G03X-1458961Y-1104924I58154J0D01*
G03X-1575269Y-1104924I-58154J0D01*
G37*
G36*
G01X-1573206Y-1840001D02*
G03X-1476898Y-1840001I48154J0D01*
G03X-1573206Y-1840001I-48154J0D01*
G37*
G36*
G01X-1348857Y81813D02*
G03X-1348684Y134039I-40372J26247D01*
G03X-1396204Y155706I-40545J-25979D01*
G03X-1463439Y171484I-41285J-24786D01*
G03X-1477298Y103827I25950J-40564D01*
G03X-1485643Y76733I39809J-27093D01*
G03X-1477298Y49640I48154J0D01*
G03X-1477298Y-4547I39809J-27093D01*
G03X-1483918Y-18865I39809J-27093D01*
G03X-1551056Y-57538I-19293J-44120D01*
G03X-1494329Y-110313I47845J-5447D01*
G03X-1440731Y-189240I32241J-35768D01*
G03X-1470971Y-98754I-21358J43158D01*
G03X-1456782Y-75760I-32241J35768D01*
G03X-1427434Y-78733I19293J44120D01*
G03X-1361428Y-88738I38205J29313D01*
G03X-1348857Y-23173I-27801J39318D01*
G03X-1348857Y29320I-40372J26247D01*
G03X-1348857Y81813I-40372J26247D01*
G37*
G36*
G01X-1496201Y-1942499D02*
G03X-1384894Y-1942499I55654J0D01*
G03X-1496201Y-1942499I-55654J0D01*
G37*
G36*
G01X-1438702Y527503D02*
G03X-1342394Y527503I48154J0D01*
G03X-1438702Y527503I-48154J0D01*
G37*
G36*
G01X-1428704Y-1441276D02*
G03X-1332396Y-1441276I48154J0D01*
G03X-1428704Y-1441276I-48154J0D01*
G37*
G36*
G01X-1428704Y-1293741D02*
G03X-1332396Y-1293741I48154J0D01*
G03X-1428704Y-1293741I-48154J0D01*
G37*
G36*
G01X-1410243Y-146081D02*
G03X-1313935Y-146081I48154J0D01*
G03X-1410243Y-146081I-48154J0D01*
G37*
G36*
G01X-964432Y-97984D02*
G03X-1012089Y-42927I-47657J6903D01*
G03X-1059745Y-97984I0J-48154D01*
G03X-1064432Y-97984I-2343J-48097D01*
G03X-1112089Y-42927I-47657J6903D01*
G03X-1159745Y-97984I0J-48154D01*
G03X-1164432Y-97984I-2343J-48097D01*
G03X-1212089Y-42927I-47657J6903D01*
G03X-1259745Y-97984I0J-48154D01*
G03X-1294481Y-181713I-2343J-48097D01*
G03X-1214432Y-139178I32392J35631D01*
G03X-1209746Y-139178I2343J48097D01*
G03X-1162089Y-194236I47657J-6903D01*
G03X-1114432Y-139178I0J48154D01*
G03X-1109746Y-139178I2343J48097D01*
G03X-1062089Y-194236I47657J-6903D01*
G03X-1014432Y-139178I0J48154D01*
G03X-1009745Y-139178I2343J48097D01*
G03X-962089Y-194236I47657J-6903D01*
G03X-914432Y-139178I0J48154D01*
G03X-909745Y-139178I2343J48097D01*
G03X-862089Y-194236I47657J-6903D01*
G03X-814432Y-139178I0J48154D01*
G03X-809745Y-139178I2343J48097D01*
G03X-762089Y-194236I47657J-6903D01*
G03X-714432Y-139178I0J48154D01*
G03X-709746Y-139178I2343J48097D01*
G03X-683218Y-189352I47657J-6903D01*
G03X-627340Y-179418I21130J43271D01*
G03X-629693Y-196804I45744J-15043D01*
G03X-665878Y-206233I-6903J-47657D01*
G03X-684406Y-238715I29283J-38227D01*
G03X-742670Y-205893I-46140J-13781D01*
G03X-777552Y-262949I12125J-46603D01*
G03X-805163Y-313635I20045J-43784D01*
G03X-809850Y-313635I-2343J-48097D01*
G03X-831990Y-265895I-47657J6903D01*
G03X-884605Y-266926I-25517J-40838D01*
G03X-928487Y-204386I-45941J14430D01*
G03X-977552Y-262949I-2059J-48110D01*
G03X-1005164Y-313635I20045J-43784D01*
G03X-1009850Y-313635I-2343J-48097D01*
G03X-1031990Y-265895I-47657J6903D01*
G03X-1084605Y-266926I-25517J-40838D01*
G03X-1128487Y-204386I-45941J14430D01*
G03X-1177552Y-262949I-2059J-48110D01*
G03X-1205164Y-313635I20045J-43784D01*
G03X-1209850Y-313635I-2343J-48097D01*
G03X-1231990Y-265895I-47657J6903D01*
G03X-1284605Y-266927I-25516J-40838D01*
G03X-1328487Y-204386I-45941J14431D01*
G03X-1377552Y-262949I-2059J-48110D01*
G03X-1404292Y-318132I20045J-43784D01*
G03X-1355164Y-354829I46785J11400D01*
G03X-1307507Y-409886I47657J-6903D01*
G03X-1259850Y-354829I0J48154D01*
G03X-1255164Y-354829I2343J48097D01*
G03X-1207507Y-409886I47657J-6903D01*
G03X-1159850Y-354829I0J48154D01*
G03X-1155164Y-354829I2343J48097D01*
G03X-1107507Y-409886I47657J-6903D01*
G03X-1059850Y-354829I0J48154D01*
G03X-1055164Y-354829I2343J48097D01*
G03X-1007507Y-409886I47657J-6903D01*
G03X-959850Y-354829I0J48154D01*
G03X-955164Y-354829I2343J48097D01*
G03X-907507Y-409886I47657J-6903D01*
G03X-859850Y-354829I0J48154D01*
G03X-855164Y-354829I2343J48097D01*
G03X-807507Y-409886I47657J-6903D01*
G03X-759850Y-354829I0J48154D01*
G03X-755164Y-354829I2343J48097D01*
G03X-707507Y-409886I47657J-6903D01*
G03X-659850Y-354829I0J48154D01*
G03X-655164Y-354829I2343J48097D01*
G03X-599494Y-409215I47657J-6903D01*
G03X-564754Y-339574I-8012J47483D01*
G03X-534945Y-282520I-16842J45113D01*
G03X-588499Y-246804I-46650J-11940D01*
G03X-588499Y-242118I-48097J2343D01*
G03X-536058Y-178805I6903J47657D01*
G03X-616345Y-161124I-45538J-15656D01*
G03X-664432Y-97984I-45744J15043D01*
G03X-712089Y-42927I-47657J6903D01*
G03X-759745Y-97984I0J-48154D01*
G03X-764432Y-97984I-2343J-48097D01*
G03X-812089Y-42927I-47657J6903D01*
G03X-859746Y-97984I0J-48154D01*
G03X-864432Y-97984I-2343J-48097D01*
G03X-912089Y-42927I-47657J6903D01*
G03X-959746Y-97984I0J-48154D01*
G03X-964432Y-97984I-2343J-48097D01*
G37*
G36*
G01X-1378700Y-2252497D02*
G03X-1282392Y-2252497I48154J0D01*
G03X-1378700Y-2252497I-48154J0D01*
G37*
G36*
G01X-1378700Y-2452497D02*
G03X-1282392Y-2452497I48154J0D01*
G03X-1378700Y-2452497I-48154J0D01*
G37*
G36*
G01X-1378700Y-2052497D02*
G03X-1282392Y-2052497I48154J0D01*
G03X-1378700Y-2052497I-48154J0D01*
G37*
G36*
G01X-1308702Y187502D02*
G03X-1212394Y187502I48154J0D01*
G03X-1308702Y187502I-48154J0D01*
G37*
G36*
G01X-1306201Y1257503D02*
G03X-1174894Y1257503I65654J0D01*
G03X-1306201Y1257503I-65654J0D01*
G37*
G36*
G01X-1301054Y754001D02*
G03X-1281472Y713996I50655J0D01*
G03X-1286225Y638180I31073J-40005D01*
G03X-1210407Y642901I35826J35811D01*
G03X-1170404Y623336I39992J31090D01*
G03X-1130409Y642918I-10J50655D01*
G03X-1050412Y642901I40005J31073D01*
G03X-974594Y638180I39992J31090D01*
G03X-979346Y713996I-35826J35811D01*
G03X-971288Y721835I-31073J40005D01*
G03X-882550Y743601I40742J25669D01*
G03X-966604Y779420I-47996J3904D01*
G03X-979346Y794006I-43816J-25419D01*
G03X-974594Y869822I-31073J40005D01*
G03X-1050412Y865101I-35826J-35811D01*
G03X-1130409Y865084I-39992J-31090D01*
G03X-1210407Y865101I-40005J-31073D01*
G03X-1286225Y869822I-39992J-31090D01*
G03X-1281472Y794006I35826J-35811D01*
G03X-1301054Y754001I31073J-40005D01*
G37*
G36*
G01X-1288702Y-992498D02*
G03X-1192393Y-992498I48154J0D01*
G03X-1288702Y-992498I-48154J0D01*
G37*
G36*
G01X-1288699Y-701276D02*
G03X-1192391Y-701276I48154J0D01*
G03X-1288699Y-701276I-48154J0D01*
G37*
G36*
G01X-1277101Y-1104900D02*
G03X-1180793Y-1104900I48154J0D01*
G03X-1277101Y-1104900I-48154J0D01*
G37*
G36*
G01X-1177677Y-642621D02*
G03X-1128609Y-700611I47131J-9875D01*
G03X-1084361Y-638866I-1937J48115D01*
G03X-1009850Y-591992I26855J39970D01*
G03X-975115Y-508264I2343J48097D01*
G03X-1055163Y-550798I-32392J-35631D01*
G03X-1059850Y-550798I-2343J-48097D01*
G03X-1107506Y-495741I-47657J6903D01*
G03X-1155163Y-550798I0J-48154D01*
G03X-1159850Y-550798I-2343J-48097D01*
G03X-1239898Y-508264I-47657J6903D01*
G03X-1205163Y-591992I32392J-35631D01*
G03X-1177677Y-642621I47657J-6903D01*
G37*
G36*
G01X-1231505Y247907D02*
G03X-1135197Y247907I48154J0D01*
G03X-1231505Y247907I-48154J0D01*
G37*
G36*
G01X-1218568Y559737D02*
G03X-1122260Y559737I48154J0D01*
G03X-1218568Y559737I-48154J0D01*
G37*
G36*
G01X-1178700Y-2052497D02*
G03X-1082392Y-2052497I48154J0D01*
G03X-1178700Y-2052497I-48154J0D01*
G37*
G36*
G01X-1178700Y-2252497D02*
G03X-1082392Y-2252497I48154J0D01*
G03X-1178700Y-2252497I-48154J0D01*
G37*
G36*
G01X-1178700Y-2452497D02*
G03X-1082392Y-2452497I48154J0D01*
G03X-1178700Y-2452497I-48154J0D01*
G37*
G36*
G01X-1114823Y1314868D02*
G03X-1018515Y1314868I48154J0D01*
G03X-1114823Y1314868I-48154J0D01*
G37*
G36*
G01X-1077863Y-1159662D02*
G03X-981555Y-1159662I48154J0D01*
G03X-1077863Y-1159662I-48154J0D01*
G37*
G36*
G01X-912089Y42927D02*
G03X-864433Y97984I0J48154D01*
G03X-859746Y97984I2343J48097D01*
G03X-812089Y42927I47657J-6903D01*
G03X-764433Y97984I0J48154D01*
G03X-759746Y97984I2343J48097D01*
G03X-712089Y42927I47657J-6903D01*
G03X-664433Y97984I0J48154D01*
G03X-659746Y97984I2343J48097D01*
G03X-612089Y42927I47657J-6903D01*
G03X-564432Y97984I0J48154D01*
G03X-529697Y181712I2343J48097D01*
G03X-609746Y139178I-32392J-35631D01*
G03X-614432Y139178I-2343J-48097D01*
G03X-662089Y194235I-47657J6903D01*
G03X-709746Y139178I0J-48154D01*
G03X-714432Y139178I-2343J-48097D01*
G03X-762089Y194235I-47657J6903D01*
G03X-809746Y139178I0J-48154D01*
G03X-814432Y139178I-2343J-48097D01*
G03X-862089Y194235I-47657J6903D01*
G03X-909746Y139178I0J-48154D01*
G03X-914433Y139178I-2343J-48097D01*
G03X-994481Y181712I-47657J6903D01*
G03X-959746Y97984I32392J-35631D01*
G03X-912089Y42927I47657J-6903D01*
G37*
G36*
G01X-1008851Y244788D02*
G03X-912542Y244788I48154J0D01*
G03X-1008851Y244788I-48154J0D01*
G37*
G36*
G01X-983206Y-1060001D02*
G03X-866897Y-1060001I58154J0D01*
G03X-983206Y-1060001I-58154J0D01*
G37*
G36*
G01X-978700Y1147505D02*
G03X-882392Y1147505I48154J0D01*
G03X-978700Y1147505I-48154J0D01*
G37*
G36*
G01X-978700Y-2052497D02*
G03X-882392Y-2052497I48154J0D01*
G03X-978700Y-2052497I-48154J0D01*
G37*
G36*
G01X-978700Y-2452497D02*
G03X-882392Y-2452497I48154J0D01*
G03X-978700Y-2452497I-48154J0D01*
G37*
G36*
G01X-824065Y274524D02*
G03X-763484Y312377I13177J46316D01*
G03X-684843Y362672I32938J35127D01*
G03X-777950Y355967I-45703J-15168D01*
G03X-815787Y368745I-32938J-35127D01*
G03X-889594Y424910I-44760J17758D01*
G03X-855649Y338598I29047J-38407D01*
G03X-824065Y274524I44760J-17758D01*
G37*
G36*
G01X-890259Y-2242160D02*
G03X-793951Y-2242160I48154J0D01*
G03X-890259Y-2242160I-48154J0D01*
G37*
G36*
G01X-888701Y-1852499D02*
G03X-792393Y-1852499I48154J0D01*
G03X-888701Y-1852499I-48154J0D01*
G37*
G36*
G01X-858701Y-972498D02*
G03X-762393Y-972498I48154J0D01*
G03X-858701Y-972498I-48154J0D01*
G37*
G36*
G01X-444609Y-495850D02*
G03X-513672Y-494831I-35027J-33045D01*
G03X-512709Y-563895I34036J-34064D01*
G03X-518571Y-570560I33073J-35000D01*
G03X-559850Y-550798I-38935J-28335D01*
G03X-607506Y-495741I-47657J6903D01*
G03X-655163Y-550798I0J-48154D01*
G03X-659850Y-550798I-2343J-48097D01*
G03X-707506Y-495741I-47657J6903D01*
G03X-755163Y-550798I0J-48154D01*
G03X-804275Y-587428I-2343J-48097D01*
G03X-777676Y-642621I46769J-11467D01*
G03X-728609Y-700611I47131J-9875D01*
G03X-684361Y-638866I-1937J48115D01*
G03X-631865Y-639655I26855J39971D01*
G03X-609850Y-591992I-25641J40760D01*
G03X-605163Y-591992I2343J48097D01*
G03X-577676Y-642621I47657J-6903D01*
G03X-532739Y-700600I47131J-9875D01*
G03X-482712Y-646951I2193J48104D01*
G03X-435482Y-618112I3076J48056D01*
G03X-446563Y-563895I-44153J19217D01*
G03X-443952Y-561229I-33073J35000D01*
G03X-374889Y-562248I35027J33045D01*
G03X-375852Y-493184I-34036J34064D01*
G03X-373241Y-490518I-33073J35000D01*
G03X-304178Y-491537I35027J33044D01*
G03X-305142Y-422474I-34036J34064D01*
G03X-302531Y-419807I-33073J35000D01*
G03X-233467Y-420827I35027J33044D01*
G03X-234431Y-351763I-34036J34064D01*
G03X-267504Y-268609I-33073J35000D01*
G03X-300577Y-351763I0J-48154D01*
G03X-303188Y-354429I33073J-35000D01*
G03X-372251Y-353410I-35027J-33044D01*
G03X-371287Y-422474I34036J-34064D01*
G03X-373898Y-425140I33073J-35000D01*
G03X-442962Y-424120I-35027J-33044D01*
G03X-441998Y-493184I34036J-34064D01*
G03X-444609Y-495850I33073J-35000D01*
G37*
G36*
G01X-778700Y1347505D02*
G03X-682392Y1347505I48154J0D01*
G03X-778700Y1347505I-48154J0D01*
G37*
G36*
G01X-778700Y747504D02*
G03X-682392Y747504I48154J0D01*
G03X-778700Y747504I-48154J0D01*
G37*
G36*
G01X-778700Y1147505D02*
G03X-682392Y1147505I48154J0D01*
G03X-778700Y1147505I-48154J0D01*
G37*
G36*
G01X-778700Y947505D02*
G03X-682392Y947505I48154J0D01*
G03X-778700Y947505I-48154J0D01*
G37*
G36*
G01X-778700Y547504D02*
G03X-682392Y547504I48154J0D01*
G03X-778700Y547504I-48154J0D01*
G37*
G36*
G01X-778700Y-2452497D02*
G03X-682392Y-2452497I48154J0D01*
G03X-778700Y-2452497I-48154J0D01*
G37*
G36*
G01X-778700Y-2052497D02*
G03X-682392Y-2052497I48154J0D01*
G03X-778700Y-2052497I-48154J0D01*
G37*
G36*
G01X-683701Y-1252498D02*
G03X-587393Y-1252498I48154J0D01*
G03X-683701Y-1252498I-48154J0D01*
G37*
G36*
G01X-505547Y-1203153D02*
G03X-505547Y-1041845I0J80654D01*
G03X-505547Y-1203153I0J-80654D01*
G37*
G36*
G01X-505547Y-1683152D02*
G03X-505547Y-1521844I0J80654D01*
G03X-505547Y-1683152I0J-80654D01*
G37*
G36*
G01X-578700Y747504D02*
G03X-482391Y747504I48154J0D01*
G03X-578700Y747504I-48154J0D01*
G37*
G36*
G01X-578700Y947505D02*
G03X-482391Y947505I48154J0D01*
G03X-578700Y947505I-48154J0D01*
G37*
G36*
G01X-578700Y347504D02*
G03X-482391Y347504I48154J0D01*
G03X-578700Y347504I-48154J0D01*
G37*
G36*
G01X-578700Y-1252497D02*
G03X-482391Y-1252497I48154J0D01*
G03X-578700Y-1252497I-48154J0D01*
G37*
G36*
G01X-578700Y-852496D02*
G03X-482391Y-852496I48154J0D01*
G03X-578700Y-852496I-48154J0D01*
G37*
G36*
G01X-578700Y-2452497D02*
G03X-482391Y-2452497I48154J0D01*
G03X-578700Y-2452497I-48154J0D01*
G37*
G36*
G01X-578700Y-2052497D02*
G03X-482391Y-2052497I48154J0D01*
G03X-578700Y-2052497I-48154J0D01*
G37*
G36*
G01X-382259Y-70141D02*
G03X-423717Y13911I-30673J37121D01*
G03X-498446Y70471I-44056J19439D01*
G03X-456988Y-13581I30673J-37121D01*
G03X-382259Y-70141I44056J-19439D01*
G37*
G36*
G01X-508701Y428503D02*
G03X-412393Y428503I48154J0D01*
G03X-508701Y428503I-48154J0D01*
G37*
G36*
G01X-508701Y607503D02*
G03X-412393Y607503I48154J0D01*
G03X-508701Y607503I-48154J0D01*
G37*
G36*
G01X-508701Y-1452498D02*
G03X-412393Y-1452498I48154J0D01*
G03X-508701Y-1452498I-48154J0D01*
G37*
G36*
G01X-259426Y-1092540D02*
G03X-289668Y-877949I-31121J105041D01*
G03X-344225Y-806326I-40878J25452D01*
G03X-350961Y-896109I13679J-46170D01*
G03X-259426Y-1092540I60414J-91391D01*
G37*
G36*
G01X-378700Y747504D02*
G03X-282391Y747504I48154J0D01*
G03X-378700Y747504I-48154J0D01*
G37*
G36*
G01X-346365Y-1897978D02*
G03X-296619Y-1818324I15819J45482D01*
G03X-263920Y-1660942I6072J80826D01*
G03X-335943Y-1804646I-26627J-76555D01*
G03X-346365Y-1897978I5398J-47851D01*
G37*
G36*
G01X-358701Y457503D02*
G03X-262393Y457503I48154J0D01*
G03X-358701Y457503I-48154J0D01*
G37*
G36*
G01X-356201Y-1552499D02*
G03X-244893Y-1552499I55654J0D01*
G03X-356201Y-1552499I-55654J0D01*
G37*
G36*
G01X-338701Y-1322498D02*
G03X-242393Y-1322498I48154J0D01*
G03X-338701Y-1322498I-48154J0D01*
G37*
G36*
G01X-316201Y-1182498D02*
G03X-204893Y-1182498I55654J0D01*
G03X-316201Y-1182498I-55654J0D01*
G37*
G36*
G01X-210243Y445956D02*
G03X-113935Y445956I48154J0D01*
G03X-210243Y445956I-48154J0D01*
G37*
G36*
G01X-210243Y345998D02*
G03X-113935Y345998I48154J0D01*
G03X-210243Y345998I-48154J0D01*
G37*
G36*
G01X-210243Y246040D02*
G03X-113935Y246040I48154J0D01*
G03X-210243Y246040I-48154J0D01*
G37*
G36*
G01X-210243Y-345998D02*
G03X-113934Y-345998I48154J0D01*
G03X-210243Y-345998I-48154J0D01*
G37*
G36*
G01X-210243Y-246040D02*
G03X-113934Y-246040I48154J0D01*
G03X-210243Y-246040I-48154J0D01*
G37*
G36*
G01X-210243Y-445957D02*
G03X-113934Y-445957I48154J0D01*
G03X-210243Y-445957I-48154J0D01*
G37*
G36*
G01X-167258Y-1422565D02*
G03X-93989Y-1370204I26711J40067D01*
G03X-73836Y-1282432I-6558J47705D01*
G03X-147105Y-1334793I-26711J-40067D01*
G03X-167258Y-1422565I6558J-47705D01*
G37*
G36*
G01X-178699Y747504D02*
G03X-82391Y747504I48154J0D01*
G03X-178699Y747504I-48154J0D01*
G37*
G36*
G01X-178699Y547504D02*
G03X-82391Y547504I48154J0D01*
G03X-178699Y547504I-48154J0D01*
G37*
G36*
G01X-178699Y-652496D02*
G03X-82391Y-652496I48154J0D01*
G03X-178699Y-652496I-48154J0D01*
G37*
G36*
G01X-178699Y-852496D02*
G03X-82391Y-852496I48154J0D01*
G03X-178699Y-852496I-48154J0D01*
G37*
G36*
G01X-160295Y-1014631D02*
G03X-151647Y-1095781I29749J-37865D01*
G03X-25720Y-1185920I76100J-26718D01*
G03X-83497Y-1042238I-49827J63421D01*
G03X-160295Y-1014631I-47049J-10259D01*
G37*
G36*
G01X-178699Y-1852497D02*
G03X-82391Y-1852497I48154J0D01*
G03X-178699Y-1852497I-48154J0D01*
G37*
G36*
G01X-75547Y-1683152D02*
G03X-75547Y-1521844I0J80654D01*
G03X-75547Y-1683152I0J-80654D01*
G37*
G36*
G01X-110243Y445956D02*
G03X-13935Y445956I48154J0D01*
G03X-110243Y445956I-48154J0D01*
G37*
G36*
G01X-110243Y345998D02*
G03X-13935Y345998I48154J0D01*
G03X-110243Y345998I-48154J0D01*
G37*
G36*
G01X-110243Y246040D02*
G03X-13935Y246040I48154J0D01*
G03X-110243Y246040I-48154J0D01*
G37*
G36*
G01X-110243Y-345998D02*
G03X-13935Y-345998I48154J0D01*
G03X-110243Y-345998I-48154J0D01*
G37*
G36*
G01X-110243Y-246040D02*
G03X-13935Y-246040I48154J0D01*
G03X-110243Y-246040I-48154J0D01*
G37*
G36*
G01X-110243Y-445957D02*
G03X-13935Y-445957I48154J0D01*
G03X-110243Y-445957I-48154J0D01*
G37*
%LPD*%
G04 PlaneZone End*

G04 Pad Start*
G54D10*
G01X-230889Y-2249160D03*
G01X-3710889Y-2249160D03*
G01X-230889Y1230840D03*
G01X-3710889Y1230840D03*
G54D11*
G01X-505547Y-1602498D03*
G01X-505547Y-1122499D03*
G01X-75547Y-1122499D03*
G01X-75547Y-1602498D03*
G04 Pad End*

G04 Via Start*
G54D12*
G01X-1890548Y817503D03*
G01X-3021547Y-146499D03*
G01X-2654547Y257200D03*
G01X-1720548Y398503D03*
G01X-2463544Y242708D03*
G01X-460547Y428503D03*
G01X-130545Y947505D03*
G01X-130545Y747504D03*
G01X-130545Y547504D03*
G01X-130545Y-652496D03*
G01X-130545Y-852496D03*
G01X-130545Y-1052496D03*
G01X-130545Y-1852497D03*
G01X-330545Y947505D03*
G01X-330545Y747504D03*
G01X-310547Y457503D03*
G01X-330545Y147504D03*
G01X-330545Y-852496D03*
G01X-330545Y-1852497D03*
G01X-530546Y1347505D03*
G01X-530546Y1147505D03*
G01X-530546Y947505D03*
G01X-530546Y747504D03*
G01X-530546Y347504D03*
G01X-530546Y-652496D03*
G01X-530546Y-852496D03*
G01X-530546Y-1252497D03*
G01X-530546Y-2052497D03*
G01X-530546Y-2252497D03*
G01X-530546Y-2452497D03*
G01X-730546Y1347505D03*
G01X-730546Y1147505D03*
G01X-730546Y947505D03*
G01X-730546Y747504D03*
G01X-730546Y547504D03*
G01X-730546Y347504D03*
G01X-730546Y-252496D03*
G01X-730546Y-652496D03*
G01X-730546Y-2052497D03*
G01X-730546Y-2452497D03*
G01X-930546Y1147505D03*
G01X-930546Y747504D03*
G01X-930546Y-252496D03*
G01X-930546Y-2052497D03*
G01X-930546Y-2452497D03*
G01X-1130546Y-252496D03*
G01X-1130546Y-652496D03*
G01X-1130546Y-2052497D03*
G01X-1130546Y-2252497D03*
G01X-1130546Y-2452497D03*
G01X-1330546Y-252496D03*
G01X-1330546Y-2052497D03*
G01X-1330546Y-2252497D03*
G01X-1330546Y-2452497D03*
G01X-1530546Y947505D03*
G01X-1530546Y347504D03*
G01X-1530546Y-1652497D03*
G01X-1530546Y-2052497D03*
G01X-1530546Y-2452497D03*
G01X-1730546Y1347505D03*
G01X-1730546Y947505D03*
G01X-1730546Y747504D03*
G01X-1730546Y-2252497D03*
G01X-1730546Y-2452497D03*
G01X-1930546Y1147505D03*
G01X-1930546Y-2452497D03*
G01X-2130546Y-2252497D03*
G01X-2530547Y1347505D03*
G01X-2530547Y1147505D03*
G01X-2530547Y947505D03*
G01X-2530547Y747504D03*
G01X-2530547Y-1852497D03*
G01X-2730547Y947505D03*
G01X-2930547Y-1252497D03*
G01X-2930547Y-1452497D03*
G01X-2930547Y-1652497D03*
G01X-2930547Y-1852497D03*
G01X-3130547Y-252496D03*
G01X-3130547Y-452496D03*
G01X-3130547Y-1252497D03*
G01X-3330547Y1347505D03*
G01X-3330547Y1147505D03*
G01X-3330547Y947505D03*
G01X-3330547Y547504D03*
G01X-3330547Y-252496D03*
G01X-3330547Y-652496D03*
G01X-3330547Y-852496D03*
G01X-3330547Y-1652497D03*
G01X-3330547Y-1852497D03*
G01X-3530547Y947505D03*
G01X-3530547Y547504D03*
G01X-3530547Y347504D03*
G01X-3530547Y-252496D03*
G01X-3530547Y-652496D03*
G01X-3530547Y-852496D03*
G01X-3530547Y-1052496D03*
G01X-3530547Y-1652497D03*
G01X-3530547Y-1852497D03*
G01X-3730547Y947505D03*
G01X-3730547Y747504D03*
G01X-3730547Y547504D03*
G01X-3730547Y-652496D03*
G01X-3730547Y-852496D03*
G01X-3730547Y-1052496D03*
G01X-3730547Y-1252497D03*
G01X-3730547Y-1652497D03*
G01X-3930547Y947505D03*
G01X-3930547Y747504D03*
G01X-3930547Y547504D03*
G01X-3930547Y-652496D03*
G01X-3930547Y-852496D03*
G01X-3930547Y-1052496D03*
G01X-3930547Y-1252497D03*
G01X-3930547Y-1652497D03*
G01X-3930547Y-1852497D03*
G01X-3930547Y-2052497D03*
G01X-2749558Y1093506D03*
G01X-2993092Y1557503D03*
G01X-2790666Y-2562499D03*
G01X-2990666Y-2562499D03*
G54D13*
G01X-1440548Y-1942499D03*
G54D12*
G01X-2640466Y-1589763D03*
G54D13*
G01X-260547Y-1182498D03*
G01X-300547Y-1552499D03*
G54D12*
G01X-460547Y-1452498D03*
G01X-290547Y-1322498D03*
G01X-100547Y-1322498D03*
G01X-140547Y-1382498D03*
G01X-810547Y-972498D03*
G01X-635547Y-1252498D03*
G01X-1503211Y-62985D03*
G01X-960697Y244788D03*
G01X-1170414Y559737D03*
G01X-1066669Y1314868D03*
G01X-2127544Y1267502D03*
G01X-162089Y-445957D03*
G01X-62089Y-445957D03*
G01X37911Y-445957D03*
G01X37911Y-345998D03*
G01X-62089Y-345998D03*
G01X-162089Y-345998D03*
G01X-162089Y-246040D03*
G01X-62089Y-246040D03*
G01X37911Y-246040D03*
G01X37911Y445956D03*
G01X-62089Y445956D03*
G01X-162089Y445956D03*
G01X-162089Y345998D03*
G01X-62089Y345998D03*
G01X37911Y345998D03*
G01X37911Y246040D03*
G01X-62089Y246040D03*
G01X-162089Y246040D03*
G01X-3922785Y-445217D03*
G01X-3822785Y-445217D03*
G01X-3722785Y-445217D03*
G01X-3722785Y-345259D03*
G01X-3822785Y-345259D03*
G01X-3922785Y-345259D03*
G01X-3922785Y-245300D03*
G01X-3822785Y-245300D03*
G01X-3722785Y-245300D03*
G01X-3923001Y445319D03*
G01X-3823001Y445319D03*
G01X-3723001Y445319D03*
G01X-3923001Y345360D03*
G01X-3823001Y345360D03*
G01X-3723001Y345360D03*
G01X-3723001Y245402D03*
G01X-3823001Y245402D03*
G01X-3923001Y245402D03*
G01X-3723001Y145444D03*
G54D14*
G01X-2343035Y1267504D03*
G54D12*
G01X-1390548Y527503D03*
G01X-2702288Y519336D03*
G01X-3000548Y277502D03*
G01X-3172785Y-90342D03*
G01X-3272785Y-90342D03*
G01X-3322785Y-145342D03*
G01X-3319475Y145527D03*
G01X-3269475Y90527D03*
G01X-60664Y-2522499D03*
G01X29336Y-2462499D03*
G01X76475Y-2370486D03*
G01X89453Y-2032499D03*
G01X89453Y-2132499D03*
G01X89453Y-2242499D03*
G01X49453Y1397503D03*
G01X-10547Y1487503D03*
G01X-190665Y-2562499D03*
G01X-290665Y-2562499D03*
G01X-390665Y-2562499D03*
G01X-490665Y-2562499D03*
G01X-590665Y-2562499D03*
G01X-690665Y-2562499D03*
G01X-790665Y-2562499D03*
G01X-890665Y-2562499D03*
G01X-990665Y-2562499D03*
G01X-1090665Y-2562499D03*
G01X-1190665Y-2562499D03*
G01X-1290665Y-2562499D03*
G01X-1390665Y-2562499D03*
G01X-1490665Y-2562499D03*
G01X-1590665Y-2562499D03*
G01X-1690665Y-2562499D03*
G01X-1790665Y-2562499D03*
G01X-1890666Y-2562499D03*
G01X-1990666Y-2562499D03*
G01X-2090666Y-2562499D03*
G01X-2190666Y-2562499D03*
G01X-2290666Y-2562499D03*
G01X-2390666Y-2562499D03*
G01X-2490666Y-2562499D03*
G01X-2590666Y-2562499D03*
G01X-2690666Y-2562499D03*
G01X-2890666Y-2562499D03*
G01X-3090666Y-2562499D03*
G01X-3190666Y-2562499D03*
G01X-3290666Y-2562499D03*
G01X-3390666Y-2562499D03*
G01X-3490666Y-2562499D03*
G01X-3590666Y-2562499D03*
G01X-3690666Y-2562499D03*
G01X-3790667Y-2562499D03*
G01X-3890549Y-2542499D03*
G01X-3970549Y-2482499D03*
G01X-4014480Y-2378568D03*
G01X-4030549Y-2285224D03*
G01X-4030549Y-2185224D03*
G01X-4030549Y-2085224D03*
G01X-4030549Y-1985224D03*
G01X-4030549Y-1885224D03*
G01X-4030549Y-1785224D03*
G01X-4030549Y-1685224D03*
G01X-4030549Y-1585224D03*
G01X-4030549Y-1485224D03*
G01X-4030549Y-1385224D03*
G01X-4030549Y-1285223D03*
G01X-4030549Y-1185223D03*
G01X-4030549Y-1085223D03*
G01X-4030549Y-985223D03*
G01X-4030549Y-885223D03*
G01X-4030549Y-785223D03*
G01X-4030549Y-685223D03*
G01X-4030549Y-585223D03*
G01X-4030549Y-485223D03*
G01X-4030549Y-385223D03*
G01X-4030549Y-285223D03*
G01X-4030549Y214777D03*
G01X-4030549Y314777D03*
G01X-4030549Y414777D03*
G01X-4030549Y514777D03*
G01X-4030549Y614778D03*
G01X-4030549Y714778D03*
G01X-4030549Y814778D03*
G01X-4030549Y914778D03*
G01X-4030549Y1014778D03*
G01X-4030549Y1114778D03*
G01X-4030549Y1214778D03*
G01X-4007409Y1350643D03*
G01X-3970549Y1447503D03*
G01X-3900549Y1507503D03*
G01X-3793093Y1557503D03*
G01X-3693093Y1557503D03*
G01X-3593093Y1557503D03*
G01X-3493093Y1557503D03*
G01X-3393093Y1557503D03*
G01X-3293092Y1557503D03*
G01X-3193092Y1557503D03*
G01X-3093092Y1557503D03*
G01X-2893092Y1557503D03*
G01X-2793092Y1557503D03*
G01X-2693092Y1557503D03*
G01X-2593092Y1557503D03*
G01X-2493092Y1557503D03*
G01X-2393092Y1557503D03*
G01X-2293092Y1557503D03*
G01X-2193092Y1557503D03*
G01X-2093092Y1557503D03*
G01X-1993092Y1557503D03*
G01X-1893092Y1557503D03*
G01X-1793092Y1557503D03*
G01X-1693092Y1557503D03*
G01X-1593092Y1557503D03*
G01X-1493092Y1557503D03*
G01X-1393091Y1557503D03*
G01X-1293091Y1557503D03*
G01X-1193091Y1557503D03*
G01X-1093091Y1557503D03*
G01X-993091Y1557503D03*
G01X-893091Y1557503D03*
G01X-793091Y1557503D03*
G01X-693091Y1557503D03*
G01X-593091Y1557503D03*
G01X-493091Y1557503D03*
G01X-393091Y1557503D03*
G01X-293091Y1557503D03*
G01X-193091Y1557503D03*
G01X-102560Y1534643D03*
G01X89453Y1267503D03*
G01X89453Y1167503D03*
G01X89453Y1067503D03*
G01X89453Y967503D03*
G01X89453Y867503D03*
G01X89453Y767503D03*
G01X89453Y667503D03*
G01X89453Y567503D03*
G01X89453Y467502D03*
G01X89453Y367502D03*
G01X89453Y267502D03*
G01X89453Y167502D03*
G01X89453Y-232498D03*
G01X89453Y-332498D03*
G01X89453Y-432498D03*
G01X89453Y-532498D03*
G01X89453Y-632498D03*
G01X89453Y-732498D03*
G01X89453Y-832498D03*
G01X89453Y-932498D03*
G01X89453Y-1032498D03*
G01X89453Y-1132498D03*
G01X89453Y-1232498D03*
G01X89453Y-1332498D03*
G01X89453Y-1432499D03*
G01X89453Y-1532499D03*
G01X89453Y-1632499D03*
G01X89453Y-1732499D03*
G01X89453Y-1832499D03*
G01X89453Y-1932499D03*
G01X-2620549Y729757D03*
G01X-2070548Y-1622499D03*
G01X-2230548Y-1622499D03*
G01X-2390548Y-1722499D03*
G01X-2430548Y-2162499D03*
G01X-1380550Y-1441276D03*
G01X-2780548Y-1589763D03*
G01X-1870548Y-1512499D03*
G01X-2050548Y-1512499D03*
G01X-2780551Y-1441131D03*
G01X-2780550Y-713574D03*
G01X-2780550Y-863574D03*
G01X-2780548Y-992498D03*
G54D14*
G01X-1240547Y1257503D03*
G54D13*
G01X-3500549Y827503D03*
G54D12*
G01X-267504Y-316763D03*
G01X-3455053Y-740000D03*
G54D13*
G01X-3295053Y-2150001D03*
G54D12*
G01X-2324548Y-27499D03*
G01X-2360548Y27502D03*
G01X-2749543Y22200D03*
G01X-2572911Y-268673D03*
G01X-1760548Y-1452498D03*
G01X-1710548Y-1392498D03*
G01X-1620548Y-1322498D03*
G01X-1550548Y-1262498D03*
G01X-3046547Y-2393494D03*
G01X-2873547Y-2140495D03*
G01X-3130889Y-2332160D03*
G01X-3290549Y-2312499D03*
G01X-2700548Y-2012499D03*
G01X-2340548Y-1912499D03*
G01X-1740548Y-2092499D03*
G01X-2749543Y228450D03*
G01X-2895934Y-149142D03*
G01X-2765928Y-149142D03*
G01X-3222785Y-145342D03*
G01X-2580889Y90840D03*
G01X-662089Y-146081D03*
G01X-262089Y146081D03*
G01X-762089Y-146081D03*
G01X-1741583Y-310283D03*
G01X-1699545Y-363508D03*
G01X-860547Y386502D03*
G01X-1183351Y247907D03*
G01X-1692506Y242680D03*
G01X-2212089Y91081D03*
G01X-2162089Y146081D03*
G01X-2649475Y90527D03*
G01X-810888Y320840D03*
G01X-1850889Y-659160D03*
G01X-1750889Y-659160D03*
G01X-1950889Y-659160D03*
G01X-2050889Y-659160D03*
G01X-2280889Y-569160D03*
G01X-2633732Y-286317D03*
G01X-2350889Y-569160D03*
G01X-2351600Y-498449D03*
G01X-479636Y-598895D03*
G01X-338214Y-387474D03*
G01X-408925Y-458184D03*
G01X-479636Y-528895D03*
G01X-267504Y-386763D03*
G01X-338214Y-457474D03*
G01X-408925Y-528184D03*
G01X-607506Y-543895D03*
G01X-557506Y-598895D03*
G01X-757506Y-598895D03*
G01X-657506Y-598895D03*
G01X-1607506Y-543895D03*
G01X-1557506Y-598895D03*
G01X-1507506Y-543895D03*
G01X-1457506Y-598895D03*
G01X-1407506Y-543895D03*
G01X-1357506Y-598895D03*
G01X-1207506Y-543895D03*
G01X-1157506Y-598895D03*
G01X-1007506Y-543895D03*
G01X-707506Y-543895D03*
G01X-857507Y-306732D03*
G01X-807507Y-361732D03*
G01X-757507Y-306732D03*
G01X-707507Y-361732D03*
G01X-1007507Y-361732D03*
G01X-712089Y-91081D03*
G01X-607507Y-361732D03*
G01X-657507Y-306732D03*
G01X-907507Y-361732D03*
G01X-957507Y-306732D03*
G01X-1057507Y-306732D03*
G01X-1107507Y-361732D03*
G01X-1157507Y-306732D03*
G01X-1207507Y-361732D03*
G01X-1257507Y-306732D03*
G01X-1307507Y-361732D03*
G01X-1357507Y-306732D03*
G01X-1607507Y-361732D03*
G01X-1649545Y-308508D03*
G01X-1858389Y-284160D03*
G01X-2007507Y-361732D03*
G01X-2057507Y-306732D03*
G01X-2458459Y-386167D03*
G01X-581596Y-294461D03*
G01X-636596Y-244461D03*
G01X-581596Y-194461D03*
G01X-2209782Y-94245D03*
G01X-2154783Y-144245D03*
G01X-2209782Y-194245D03*
G01X-2154783Y-244245D03*
G01X-2990312Y509858D03*
G01X-2935312Y459858D03*
G01X-2990312Y409858D03*
G01X-1762089Y146081D03*
G01X-1712089Y91081D03*
G01X-1662089Y146081D03*
G01X-2466766Y108709D03*
G01X-2919475Y145527D03*
G01X-2819475Y145527D03*
G01X-3219475Y145527D03*
G01X-3119475Y145527D03*
G01X-3019475Y145527D03*
G01X-2012089Y91081D03*
G01X-2062089Y146081D03*
G01X-1812089Y91081D03*
G01X-1862089Y146081D03*
G01X-1962089Y146081D03*
G01X-1912089Y91081D03*
G01X-862089Y146081D03*
G01X-912089Y91081D03*
G01X-962089Y146081D03*
G01X-562089Y146081D03*
G01X-612089Y91081D03*
G01X-662089Y146081D03*
G01X-712089Y91081D03*
G01X-812089Y91081D03*
G01X-762089Y146081D03*
G01X87911Y91081D03*
G01X37911Y146081D03*
G01X-12089Y91081D03*
G01X-62089Y146081D03*
G01X-112089Y91081D03*
G01X-162089Y146081D03*
G01X-212089Y91081D03*
G01X-2769475Y90527D03*
G01X-2969475Y90527D03*
G01X-3069475Y90527D03*
G01X-3169475Y90527D03*
G01X-3773001Y90444D03*
G01X-3873001Y90444D03*
G01X-3973001Y90444D03*
G01X-3623001Y145444D03*
G01X-3823001Y145444D03*
G01X-4023001Y145444D03*
G01X37911Y-146081D03*
G01X-62089Y-146081D03*
G01X-162089Y-146081D03*
G01X87911Y-91081D03*
G01X-12089Y-91081D03*
G01X-112089Y-91081D03*
G01X-212089Y-91081D03*
G01X-862089Y-146081D03*
G01X-962089Y-146081D03*
G01X-1062089Y-146081D03*
G01X-1162089Y-146081D03*
G01X-1262089Y-146081D03*
G01X-1362089Y-146081D03*
G01X-812089Y-91081D03*
G01X-912089Y-91081D03*
G01X-1012089Y-91081D03*
G01X-1112089Y-91081D03*
G01X-1212089Y-91081D03*
G01X-1562089Y-146081D03*
G01X-1862089Y-146081D03*
G01X-1962089Y-146081D03*
G01X-2062089Y-146081D03*
G01X-1912089Y-91081D03*
G01X-2012089Y-91081D03*
G01X-1462089Y-146081D03*
G01X-2622785Y-145342D03*
G01X-2572785Y-90342D03*
G01X-3422785Y-145342D03*
G01X-3522785Y-145342D03*
G01X-3622785Y-145342D03*
G01X-3722785Y-145342D03*
G01X-3822785Y-145342D03*
G01X-3922785Y-145342D03*
G01X-4022785Y-145342D03*
G01X-3372785Y-90342D03*
G01X-3472785Y-90342D03*
G01X-3572785Y-90342D03*
G01X-3672785Y-90342D03*
G01X-3772785Y-90342D03*
G01X-3872785Y-90342D03*
G01X-3972785Y-90342D03*
G01X-2217269Y-1029860D03*
G01X-2217269Y-915560D03*
G01X-1696569Y-968900D03*
G01X-3280549Y627503D03*
G01X-3060890Y770841D03*
G01X-1704189Y-811420D03*
G01X-1721108Y814381D03*
G01X-1389229Y-49420D03*
G01X-1437489Y-31640D03*
G01X-1389229Y3073D03*
G01X-1437489Y22547D03*
G01X-1389229Y55567D03*
G01X-1437489Y76733D03*
G01X-1389229Y108060D03*
G01X-1437489Y130920D03*
G01X-1836454Y-201066D03*
G01X-412932Y-33020D03*
G01X-467773Y33350D03*
G01X-1260548Y187502D03*
G01X-1540548Y717503D03*
G01X-2524034Y447874D03*
G01X-2748129Y689720D03*
G01X-2875751Y689152D03*
G01X-1631214Y-205754D03*
G01X-2230548Y257502D03*
G54D15*
G01X-925051Y-1060001D03*
G01X-1517115Y-1104924D03*
G54D12*
G01X-330547Y257502D03*
G54D15*
G01X-870547Y1307503D03*
G01X-1940548Y1297503D03*
G54D12*
G01X-2370548Y-1552499D03*
G01X-1945548Y447874D03*
G01X-460547Y607503D03*
G01X-2221039Y-1123998D03*
G01X-1610548Y1257503D03*
G01X-2648547Y1098499D03*
G01X-2656547Y1330498D03*
G01X-2750548Y1327503D03*
G54D14*
G01X-3345053Y1250001D03*
G54D13*
G01X-3450549Y227502D03*
G54D12*
G01X-1958189Y-1169560D03*
G01X-2137039Y-1172998D03*
G01X-2115052Y-1370001D03*
G01X-2106669Y-1460500D03*
G01X-1829049Y-777280D03*
G01X-2099049Y-867280D03*
G01X-1829049Y-957280D03*
G01X-2099049Y-1047280D03*
G01X-2009049Y-1047280D03*
G01X-1919049Y-1047280D03*
G01X-1829049Y-1047280D03*
G01X-1919049Y-957280D03*
G01X-2009049Y-957280D03*
G01X-2099049Y-957280D03*
G01X-2009049Y-867280D03*
G01X-1919049Y-777280D03*
G01X-2009049Y-777280D03*
G01X-2099049Y-777280D03*
G01X-1829049Y-867280D03*
G01X-1919049Y-867280D03*
G01X-842105Y-2242160D03*
G01X-840547Y-1852499D03*
G01X-1525052Y-1840001D03*
G01X-1029709Y-1159662D03*
G01X-1228947Y-1104900D03*
G01X-1240547Y-992498D03*
G01X-1380548Y-972498D03*
G01X-1910548Y-1622499D03*
G01X-2150548Y-1612499D03*
G01X-2465052Y-840000D03*
G01X-2230550Y-803574D03*
G01X-2205052Y-740000D03*
G01X-2905053Y-1090001D03*
G01X-3835053Y-1170001D03*
G01X-1820549Y-1613574D03*
G01X-1810549Y-1383574D03*
G01X-2750550Y-1213574D03*
G01X-2800550Y-1293574D03*
G01X-1380550Y-1293741D03*
G01X-1240545Y-701276D03*
G01X-2005052Y-1450001D03*
G01X-2785052Y-380000D03*
G01X-2719475Y145527D03*
G01X-2585052Y-380000D03*
G01X-2653379Y-594920D03*
G01X-2640546Y-861131D03*
G01X-2645052Y-990001D03*
G01X-2805553Y-554920D03*
G01X-2715052Y-1090001D03*
G01X-2955053Y-1180001D03*
G01X-3923001Y145444D03*
G01X-1455469Y-284957D03*
G01X-864536Y-680071D03*
G01X-873771Y-837698D03*
G01X-1107506Y-543895D03*
G01X-1057506Y-598895D03*
G01X-1364909Y-476999D03*
G01X-1407175Y-432818D03*
G01X-230889Y-2039160D03*
G01X-20889Y-2249160D03*
G01X-230889Y-2459160D03*
G01X-440889Y-2249160D03*
G01X-379382Y-2100668D03*
G01X-379382Y-2397653D03*
G01X-82397Y-2397653D03*
G01X-82397Y-2100668D03*
G01X-424903Y-2168795D03*
G01X-311254Y-2443174D03*
G01X-36875Y-2329525D03*
G01X-150524Y-2055146D03*
G01X-424904Y-2329522D03*
G01X-311251Y-2055145D03*
G01X-36874Y-2168798D03*
G01X-150527Y-2443175D03*
G01X-3710889Y-2039160D03*
G01X-3500889Y-2249160D03*
G01X-3710889Y-2459160D03*
G01X-3920889Y-2249160D03*
G01X-3859382Y-2100668D03*
G01X-3859382Y-2397653D03*
G01X-3562397Y-2397653D03*
G01X-3562397Y-2100668D03*
G01X-3904904Y-2168795D03*
G01X-3791254Y-2443174D03*
G01X-3516875Y-2329525D03*
G01X-3630524Y-2055146D03*
G01X-3904905Y-2329522D03*
G01X-3791251Y-2055145D03*
G01X-3516874Y-2168798D03*
G01X-3630527Y-2443175D03*
G01X-230889Y1440840D03*
G01X-20889Y1230840D03*
G01X-230889Y1020840D03*
G01X-440889Y1230840D03*
G01X-379382Y1379333D03*
G01X-379382Y1082348D03*
G01X-82397Y1082348D03*
G01X-82397Y1379333D03*
G01X-424903Y1311205D03*
G01X-311254Y1036826D03*
G01X-36875Y1150475D03*
G01X-150524Y1424854D03*
G01X-424904Y1150478D03*
G01X-311251Y1424855D03*
G01X-36874Y1311202D03*
G01X-150527Y1036825D03*
G01X-3710889Y1440840D03*
G01X-3500889Y1230840D03*
G01X-3710889Y1020840D03*
G01X-3920889Y1230840D03*
G01X-3859382Y1379333D03*
G01X-3859382Y1082348D03*
G01X-3562397Y1082348D03*
G01X-3562397Y1379333D03*
G01X-3904904Y1311205D03*
G01X-3791254Y1036826D03*
G01X-3516875Y1150475D03*
G01X-3630524Y1424854D03*
G01X-3904905Y1150478D03*
G01X-3791251Y1424855D03*
G01X-3516874Y1311202D03*
G01X-3630527Y1036825D03*
G54D17*
G01X-1010420Y834011D03*
G01X-1090404Y834011D03*
G01X-1170414Y834011D03*
G01X-1250399Y834011D03*
G01X-1250399Y754001D03*
G01X-1170414Y754001D03*
G01X-1090404Y754001D03*
G01X-1010420Y754001D03*
G01X-1010420Y673991D03*
G01X-1090404Y673991D03*
G01X-1170414Y673991D03*
G01X-1250399Y673991D03*
G01X-2104040Y833522D03*
G01X-2184024Y833522D03*
G01X-2264034Y833522D03*
G01X-2344019Y833522D03*
G01X-2344019Y753512D03*
G01X-2264034Y753512D03*
G01X-2184024Y753512D03*
G01X-2104040Y753512D03*
G01X-2104040Y673502D03*
G01X-2184024Y673502D03*
G01X-2264034Y673502D03*
G01X-2344019Y673502D03*
G04 Via End*

M02*

