G04 Layer: InnerLayer4*
G04 EasyEDA Pro v2.1.64.d1969c9c.217bcf, 2024-08-30 02:53:31*
G04 Gerber Generator version 0.3*
G04 Scale: 100 percent, Rotated: No, Reflected: No*
G04 Dimensions in millimeters*
G04 Leading zeros omitted, absolute positions, 3 integers and 5 decimals*
%FSLAX35Y35*%
%MOMM*%
%ADD8191C,0.2032*%
%ADD10C,5.2*%
%ADD11C,1.1*%
%ADD12C,0.45*%
%ADD13C,0.50002*%
%ADD14C,0.6*%
%ADD15C,0.55*%
%ADD16C,0.8*%
%ADD17C,0.6550*%
%ADD18C,0.65*%
%ADD19C,0.15*%
%ADD20C,0.4*%
%ADD21C,0.127*%
%ADD22C,0.2*%
G75*


G04 Copper Start*
G36*
G01X-1840340Y-2119772D02*
G02X-2104526Y-1855587I0J264186D01*
G01Y1844414D01*
G02X-1840340Y2108600I264186J0D01*
G01X1859660D01*
G02X2123846Y1844414I0J-264186D01*
G01Y-1855587D01*
G02X1859660Y-2119772I-264186J0D01*
G01X-1840340D01*
G37*
%LPC*%
G36*
G01X-1146687Y-1912221D02*
G03X-1065997Y-1973635I80689J22300D01*
G03X-982283Y-1889921I0J83714D01*
G03X-997283Y-1842104I-83714J0D01*
G01Y-1793386D01*
G01X-954733Y-1750835D01*
G01X-573195D01*
G03X-524607Y-1730709I0J68714D01*
G01X-510589Y-1716691D01*
G03X-449999Y-1742639I60590J57766D01*
G03X-367362Y-1672315I0J83714D01*
G03X-359999Y-1672639I7364J83390D01*
G03X-312182Y-1657639I0J83714D01*
G01X-59999D01*
G03X-11410Y-1637513I0J68714D01*
G01X194778Y-1431325D01*
G03X227818Y-1417639I-14777J82400D01*
G01X451306D01*
G03X448788Y-1438925I88695J-21286D01*
G03X540002Y-1530139I91214J0D01*
G03X631216Y-1438925I0J91214D01*
G03X628697Y-1417639I-91214J0D01*
G01X1092185D01*
G03X1140002Y-1432639I47817J68714D01*
G03X1223716Y-1348925I0J83714D01*
G03X1140002Y-1265211I-83714J0D01*
G03X1092185Y-1280211I0J-83714D01*
G01X255892D01*
G01X461824Y-1074279D01*
G03X481949Y-1025691I-48588J48588D01*
G01Y-824571D01*
G03X513716Y-758925I-51948J65647D01*
G03X481888Y-693230I-83714J0D01*
G03X524352Y-672565I-18454J91879D01*
G01X531496D01*
G03X581852Y-651706I0J71214D01*
G01X615738Y-617820D01*
G01X958224D01*
G03X1051060Y-698741I92837J12794D01*
G03X1076540Y-695210I0J93714D01*
G01X1052762Y-718989D01*
G01X652819D01*
G03X605002Y-703989I-47817J-68714D01*
G03X521288Y-787703I0J-83714D01*
G03X605002Y-871417I83714J0D01*
G03X652819Y-856417I0J83714D01*
G01X1081224D01*
G03X1129812Y-836291I0J68714D01*
G01X1354779Y-611324D01*
G03X1423716Y-528925I-14777J82400D01*
G03X1340002Y-445211I-83714J0D01*
G03X1257603Y-514148I0J-83714D01*
G01X1141244Y-630507D01*
G03X1144774Y-605026I-90184J25480D01*
G03X1058341Y-511596I-93714J0D01*
G01X1042996Y-496251D01*
G03X992640Y-475392I-50356J-50356D01*
G01X683465D01*
G03X683716Y-468925I-83464J6468D01*
G03X624051Y-388739I-83714J0D01*
G01X655152Y-357638D01*
G01X1466323D01*
G03X1514911Y-337513I0J68714D01*
G01X1818249Y-34175D01*
G03X1838375Y14413I-48588J48588D01*
G01Y347369D01*
G03X1818249Y395957I-68714J0D01*
G01X1658716Y555490D01*
G01Y677817D01*
G03X1733716Y761076I-8714J83259D01*
G03X1658716Y844335I-83714J0D01*
G01Y1041076D01*
G03X1638590Y1089664I-68714J0D01*
G01X1602402Y1125853D01*
G03X1520002Y1194790I-82400J-14777D01*
G03X1436288Y1111076I0J-83714D01*
G03X1505225Y1028677I83714J0D01*
G01X1518132Y1015770D01*
G03X1436288Y932076I1870J-83693D01*
G03X1520002Y848362I83714J0D01*
G01X1521288Y848372D01*
G01Y527028D01*
G03X1541414Y478440I68714J0D01*
G01X1700947Y318907D01*
G01Y42876D01*
G01X1437860Y-220211D01*
G01X626689D01*
G03X578101Y-240336I0J-68714D01*
G01X366600Y-451837D01*
G03X283980Y-381612I-82620J-13489D01*
G03X200266Y-465326I0J-83714D01*
G03X270491Y-547947I83714J0D01*
G01X221165Y-597272D01*
G01X70177D01*
G03X22360Y-582272I-47817J-68714D01*
G03X2724Y-584608I0J-83714D01*
G03X-74160Y-534012I-76884J-33119D01*
G03X-101285Y-538529I0J-83714D01*
G01Y171178D01*
G01X-80445Y192018D01*
G03X-60319Y240606I-48588J48588D01*
G01Y644919D01*
G01X178354Y883592D01*
G03X260002Y818362I81648J18484D01*
G03X343716Y902076I0J83714D01*
G03X260002Y985791I-83714J0D01*
G03X209711Y969001I0J-83714D01*
G01Y1533359D01*
G01X210998D01*
G03X259586Y1553484I0J68714D01*
G01X384778Y1678677D01*
G03X453716Y1761076I-14777J82400D01*
G03X370002Y1844791I-83714J0D01*
G03X287602Y1775853I0J-83714D01*
G01X182535Y1670786D01*
G01X140997D01*
G01X-348850D01*
G03X-261272Y1771078I-13635J100291D01*
G03X-362485Y1872292I-101214J0D01*
G03X-463699Y1771078I0J-101214D01*
G03X-376121Y1670786I101214J0D01*
G01X-620181D01*
G03X-667998Y1685787I-47817J-68714D01*
G03X-751712Y1602072I0J-83714D01*
G03X-667998Y1518358I83714J0D01*
G03X-620181Y1533359I0J83714D01*
G01X72283D01*
G01Y993306D01*
G03X1Y1034790I-72282J-42230D01*
G03X-47815Y1019790I0J-83714D01*
G01X-229999D01*
G03X-278587Y999664I0J-68714D01*
G01X-474844Y803407D01*
G03X-482610Y804463I-15155J-82331D01*
G03X-496752Y825005I-62730J-28046D01*
G01X-650572Y978826D01*
G03X-638025Y1022909I-71166J44084D01*
G03X-721739Y1106623I-83714J0D01*
G03X-761285Y1096694I0J-83714D01*
G01Y1651609D01*
G01X-661222Y1751672D01*
G03X-592284Y1834072I-14777J82400D01*
G03X-675998Y1917786I-83714J0D01*
G03X-725204Y1901798I0J-83714D01*
G03X-769999Y1914791I-44795J-70721D01*
G03X-852399Y1845853I0J-83714D01*
G01X-1025608Y1672644D01*
G03X-1045734Y1624056I48588J-48588D01*
G01Y1069994D01*
G03X-1025608Y1021405I68714J0D01*
G01X-789194Y784991D01*
G01Y-498444D01*
G03X-769068Y-547032I68714J0D01*
G01X-310585Y-1005515D01*
G03X-307021Y-1008835I48588J48588D01*
G03X-310271Y-1011881I45338J-51634D01*
G01X-313443Y-1015053D01*
G03X-389999Y-965211I-76556J-33872D01*
G03X-473357Y-1041208I0J-83714D01*
G01X-589314D01*
G03X-659917Y-1002476I-70602J-44981D01*
G03X-743631Y-1086190I0J-83714D01*
G03X-730089Y-1131839I83714J0D01*
G01X-1324776Y-1726526D01*
G03X-1393713Y-1808926I14777J-82400D01*
G03X-1309999Y-1892640I83714J0D01*
G03X-1233006Y-1841790I0J83714D01*
G03X-1150340Y-1912301I82666J13203D01*
G03X-1146687Y-1912221I0J83714D01*
G37*
G36*
G01X-1241445Y-1261031D02*
G03X-1150340Y-1347801I91106J4444D01*
G03X-1059126Y-1256587I0J91214D01*
G03X-1142435Y-1165716I-91214J0D01*
G01Y-838925D01*
G03X-1162224Y-791150I-67564J0D01*
G01X-1371149Y-582225D01*
G03X-1395154Y-566756I-47775J-47775D01*
G03X-1450001Y-546286I-54847J-63245D01*
G03X-1533715Y-630000I0J-83714D01*
G03X-1501120Y-696294I83714J0D01*
G03X-1581507Y-760901I1120J-83707D01*
G03X-1660001Y-706286I-78494J-29099D01*
G03X-1743715Y-790000I0J-83714D01*
G03X-1660001Y-873715I83714J0D01*
G03X-1578495Y-809100I0J83714D01*
G03X-1500001Y-863715I78494J29099D01*
G03X-1423905Y-814893I0J83714D01*
G03X-1386501Y-823714I37404J74893D01*
G03X-1344925Y-812660I0J83714D01*
G03X-1353715Y-850000I74925J-37341D01*
G03X-1277563Y-933372I83714J0D01*
G01Y-1196927D01*
G03X-1257774Y-1244702I67564J0D01*
G01X-1241445Y-1261031D01*
G37*
G36*
G01X1588788Y-1048925D02*
G03X1680002Y-1140139I91214J0D01*
G03X1766791Y-1076990I0J91214D01*
G01X1805129Y-1038652D01*
G03X1828916Y-981225I-57427J57427D01*
G01Y-961902D01*
G03X1840002Y-962639I11086J82977D01*
G03X1922865Y-890833I0J83714D01*
G03X1963716Y-818925I-42863J71908D01*
G03X1880002Y-735211I-83714J0D01*
G03X1828916Y-752606I0J-83714D01*
G01Y-706625D01*
G03X1806816Y-650935I-81214J0D01*
G03X1720002Y-587711I-86813J-27989D01*
G03X1628788Y-678925I0J-91214D01*
G03X1654976Y-742891I91214J0D01*
G03X1606288Y-818925I35026J-76034D01*
G03X1666488Y-899269I83714J0D01*
G01Y-947585D01*
G01X1651937Y-962136D01*
G03X1588788Y-1048925I28065J-86789D01*
G37*
G36*
G01X-820000Y-873715D02*
G03X-736286Y-790000I0J83714D01*
G03X-736353Y-786655I-83714J0D01*
G03X-686286Y-710000I-33647J76655D01*
G03X-770000Y-626286I-83714J0D01*
G03X-853714Y-710000I0J-83714D01*
G03X-853648Y-713346I83714J0D01*
G03X-903715Y-790000I33647J-76655D01*
G03X-820000Y-873715I83714J0D01*
G37*
G36*
G01X740002Y1659863D02*
G03X841216Y1761076I0J101214D01*
G03X740002Y1862290I-101214J0D01*
G03X638788Y1761076I0J-101214D01*
G03X740002Y1659863I101214J0D01*
G37*
G36*
G01X-1101213Y1951077D02*
G03X-999999Y1849863I101214J0D01*
G03X-898785Y1951077I0J101214D01*
G03X-999999Y2052291I-101214J0D01*
G03X-1101213Y1951077I0J-101214D01*
G37*
G36*
G01X1690002Y-578240D02*
G03X1784316Y-483926I0J94314D01*
G03X1690002Y-389612I-94314J0D01*
G03X1595688Y-483926I0J-94314D01*
G03X1690002Y-578240I94314J0D01*
G37*
G36*
G01X1016288Y1811077D02*
G03X1110002Y1717363I93714J0D01*
G03X1203716Y1811077I0J93714D01*
G03X1110002Y1904791I-93714J0D01*
G03X1016288Y1811077I0J-93714D01*
G37*
G36*
G01X-53713Y1801077D02*
G03X40001Y1707363I93714J0D01*
G03X133716Y1801077I0J93714D01*
G03X40001Y1894791I-93714J0D01*
G03X-53713Y1801077I0J-93714D01*
G37*
G36*
G01X-1561213Y731076D02*
G03X-1469999Y639862I91214J0D01*
G03X-1378785Y731076I0J91214D01*
G03X-1469999Y822290I-91214J0D01*
G03X-1561213Y731076I0J-91214D01*
G37*
G36*
G01X-1611213Y1331076D02*
G03X-1519999Y1239862I91214J0D01*
G03X-1428786Y1331076I0J91214D01*
G03X-1519999Y1422290I-91214J0D01*
G03X-1611213Y1331076I0J-91214D01*
G37*
G36*
G01X-1761739Y-1417639D02*
G03X-1673025Y-1328925I0J88714D01*
G03X-1761739Y-1240211I-88714J0D01*
G03X-1850453Y-1328925I0J-88714D01*
G03X-1761739Y-1417639I88714J0D01*
G37*
G36*
G01X1436288Y-948925D02*
G03X1520002Y-1032639I83714J0D01*
G03X1603716Y-948925I0J83714D01*
G03X1520002Y-865211I-83714J0D01*
G03X1436288Y-948925I0J-83714D01*
G37*
G36*
G01X265621Y297820D02*
G03X349335Y214105I83714J0D01*
G03X433049Y297820I0J83714D01*
G03X349335Y381534I-83714J0D01*
G03X265621Y297820I0J-83714D01*
G37*
G36*
G01X1026288Y881076D02*
G03X1110002Y797362I83714J0D01*
G03X1193716Y881076I0J83714D01*
G03X1110002Y964790I-83714J0D01*
G03X1026288Y881076I0J-83714D01*
G37*
G36*
G01X506288Y1031076D02*
G03X590002Y947362I83714J0D01*
G03X673716Y1031076I0J83714D01*
G03X590002Y1114790I-83714J0D01*
G03X506288Y1031076I0J-83714D01*
G37*
G36*
G01X240002Y-1672639D02*
G03X323716Y-1588925I0J83714D01*
G03X240002Y-1505211I-83714J0D01*
G03X156287Y-1588925I0J-83714D01*
G03X240002Y-1672639I83714J0D01*
G37*
G36*
G01X-1103713Y781076D02*
G03X-1019999Y697362I83714J0D01*
G03X-936285Y781076I0J83714D01*
G03X-1019999Y864790I-83714J0D01*
G03X-1103713Y781076I0J-83714D01*
G37*
G36*
G01X-1104539Y-358721D02*
G03X-1020824Y-275007I0J83714D01*
G03X-1104539Y-191292I-83714J0D01*
G03X-1188253Y-275007I0J-83714D01*
G03X-1104539Y-358721I83714J0D01*
G37*
G36*
G01X1624188Y-1233924D02*
G03X1690002Y-1299738I65814J0D01*
G03X1755816Y-1233924I0J65814D01*
G03X1690002Y-1168110I-65814J0D01*
G03X1624188Y-1233924I0J-65814D01*
G37*
%LPD*%
G36*
G01X-898713Y1088863D02*
G01X-908306Y1098456D01*
G01Y1595593D01*
G01X-898713Y1605186D01*
G01Y1088863D01*
G37*
G36*
G01X-383547Y-1237639D02*
G01X-637996Y-1492088D01*
G03X-719114Y-1425216I-82003J-16838D01*
G01X-531537Y-1237639D01*
G01X-383547D01*
G37*
G36*
G01X-651766Y293885D02*
G01X-651766Y785667D01*
G01X-614054Y747955D01*
G01Y569414D01*
G03X-599054Y526560I68714J0D01*
G01Y318347D01*
G03X-651766Y293885I6693J-83446D01*
G37*
G36*
G01X-599054Y151454D02*
G01X-599054Y-305989D01*
G03X-651766Y-274896I-65945J-51568D01*
G01Y175916D01*
G03X-599054Y151454I59405J58984D01*
G37*
G36*
G01X-312717Y-447093D02*
G01X-347577Y-412233D01*
G01Y3D01*
G03X-327807Y48232I-48944J48229D01*
G01Y427598D01*
G03X-347933Y476186I-68714J0D01*
G01X-361285Y489538D01*
G01Y722614D01*
G01X-333082Y750817D01*
G03X-249999Y677362I83083J10259D01*
G03X-192135Y700579I0J83714D01*
G03X-197747Y673381I63102J-27198D01*
G01Y269068D01*
G01X-218587Y248228D01*
G03X-238713Y199640I48588J-48588D01*
G01Y-156741D01*
G03X-313714Y-240000I8713J-83259D01*
G03X-313534Y-245489I83714J0D01*
G03X-333714Y-300000I63534J-54511D01*
G03X-304806Y-363280I83714J0D01*
G03X-320434Y-411986I68086J-48706D01*
G03X-312717Y-447093I83714J0D01*
G37*
G54D8191*
G01X-1840340Y-2119772D02*
G02X-2104526Y-1855587I0J264186D01*
G01Y1844414D01*
G02X-1840340Y2108600I264186J0D01*
G01X1859660D01*
G02X2123846Y1844414I0J-264186D01*
G01Y-1855587D01*
G02X1859660Y-2119772I-264186J0D01*
G01X-1840340D01*
G01X-1146687Y-1912221D02*
G03X-1065997Y-1973635I80689J22300D01*
G03X-982283Y-1889921I0J83714D01*
G03X-997283Y-1842104I-83714J0D01*
G01Y-1793386D01*
G01X-954733Y-1750835D01*
G01X-573195D01*
G03X-524607Y-1730709I0J68714D01*
G01X-510589Y-1716691D01*
G03X-449999Y-1742639I60590J57766D01*
G03X-367362Y-1672315I0J83714D01*
G03X-359999Y-1672639I7364J83390D01*
G03X-312182Y-1657639I0J83714D01*
G01X-59999D01*
G03X-11410Y-1637513I0J68714D01*
G01X194778Y-1431325D01*
G03X227818Y-1417639I-14777J82400D01*
G01X451306D01*
G03X448788Y-1438925I88695J-21286D01*
G03X540002Y-1530139I91214J0D01*
G03X631216Y-1438925I0J91214D01*
G03X628697Y-1417639I-91214J0D01*
G01X1092185D01*
G03X1140002Y-1432639I47817J68714D01*
G03X1223716Y-1348925I0J83714D01*
G03X1140002Y-1265211I-83714J0D01*
G03X1092185Y-1280211I0J-83714D01*
G01X255892D01*
G01X461824Y-1074279D01*
G03X481949Y-1025691I-48588J48588D01*
G01Y-824571D01*
G03X513716Y-758925I-51948J65647D01*
G03X481888Y-693230I-83714J0D01*
G03X524352Y-672565I-18454J91879D01*
G01X531496D01*
G03X581852Y-651706I0J71214D01*
G01X615738Y-617820D01*
G01X958224D01*
G03X1051060Y-698741I92837J12794D01*
G03X1076540Y-695210I0J93714D01*
G01X1052762Y-718989D01*
G01X652819D01*
G03X605002Y-703989I-47817J-68714D01*
G03X521288Y-787703I0J-83714D01*
G03X605002Y-871417I83714J0D01*
G03X652819Y-856417I0J83714D01*
G01X1081224D01*
G03X1129812Y-836291I0J68714D01*
G01X1354779Y-611324D01*
G03X1423716Y-528925I-14777J82400D01*
G03X1340002Y-445211I-83714J0D01*
G03X1257603Y-514148I0J-83714D01*
G01X1141244Y-630507D01*
G03X1144774Y-605026I-90184J25480D01*
G03X1058341Y-511596I-93714J0D01*
G01X1042996Y-496251D01*
G03X992640Y-475392I-50356J-50356D01*
G01X683465D01*
G03X683716Y-468925I-83464J6468D01*
G03X624051Y-388739I-83714J0D01*
G01X655152Y-357638D01*
G01X1466323D01*
G03X1514911Y-337513I0J68714D01*
G01X1818249Y-34175D01*
G03X1838375Y14413I-48588J48588D01*
G01Y347369D01*
G03X1818249Y395957I-68714J0D01*
G01X1658716Y555490D01*
G01Y677817D01*
G03X1733716Y761076I-8714J83259D01*
G03X1658716Y844335I-83714J0D01*
G01Y1041076D01*
G03X1638590Y1089664I-68714J0D01*
G01X1602402Y1125853D01*
G03X1520002Y1194790I-82400J-14777D01*
G03X1436288Y1111076I0J-83714D01*
G03X1505225Y1028677I83714J0D01*
G01X1518132Y1015770D01*
G03X1436288Y932076I1870J-83693D01*
G03X1520002Y848362I83714J0D01*
G01X1521288Y848372D01*
G01Y527028D01*
G03X1541414Y478440I68714J0D01*
G01X1700947Y318907D01*
G01Y42876D01*
G01X1437860Y-220211D01*
G01X626689D01*
G03X578101Y-240336I0J-68714D01*
G01X366600Y-451837D01*
G03X283980Y-381612I-82620J-13489D01*
G03X200266Y-465326I0J-83714D01*
G03X270491Y-547947I83714J0D01*
G01X221165Y-597272D01*
G01X70177D01*
G03X22360Y-582272I-47817J-68714D01*
G03X2724Y-584608I0J-83714D01*
G03X-74160Y-534012I-76884J-33119D01*
G03X-101285Y-538529I0J-83714D01*
G01Y171178D01*
G01X-80445Y192018D01*
G03X-60319Y240606I-48588J48588D01*
G01Y644919D01*
G01X178354Y883592D01*
G03X260002Y818362I81648J18484D01*
G03X343716Y902076I0J83714D01*
G03X260002Y985791I-83714J0D01*
G03X209711Y969001I0J-83714D01*
G01Y1533359D01*
G01X210998D01*
G03X259586Y1553484I0J68714D01*
G01X384778Y1678677D01*
G03X453716Y1761076I-14777J82400D01*
G03X370002Y1844791I-83714J0D01*
G03X287602Y1775853I0J-83714D01*
G01X182535Y1670786D01*
G01X140997D01*
G01X-348850D01*
G03X-261272Y1771078I-13635J100291D01*
G03X-362485Y1872292I-101214J0D01*
G03X-463699Y1771078I0J-101214D01*
G03X-376121Y1670786I101214J0D01*
G01X-620181D01*
G03X-667998Y1685787I-47817J-68714D01*
G03X-751712Y1602072I0J-83714D01*
G03X-667998Y1518358I83714J0D01*
G03X-620181Y1533359I0J83714D01*
G01X72283D01*
G01Y993306D01*
G03X1Y1034790I-72282J-42230D01*
G03X-47815Y1019790I0J-83714D01*
G01X-229999D01*
G03X-278587Y999664I0J-68714D01*
G01X-474844Y803407D01*
G03X-482610Y804463I-15155J-82331D01*
G03X-496752Y825005I-62730J-28046D01*
G01X-650572Y978826D01*
G03X-638025Y1022909I-71166J44084D01*
G03X-721739Y1106623I-83714J0D01*
G03X-761285Y1096694I0J-83714D01*
G01Y1651609D01*
G01X-661222Y1751672D01*
G03X-592284Y1834072I-14777J82400D01*
G03X-675998Y1917786I-83714J0D01*
G03X-725204Y1901798I0J-83714D01*
G03X-769999Y1914791I-44795J-70721D01*
G03X-852399Y1845853I0J-83714D01*
G01X-1025608Y1672644D01*
G03X-1045734Y1624056I48588J-48588D01*
G01Y1069994D01*
G03X-1025608Y1021405I68714J0D01*
G01X-789194Y784991D01*
G01Y-498444D01*
G03X-769068Y-547032I68714J0D01*
G01X-310585Y-1005515D01*
G03X-307021Y-1008835I48588J48588D01*
G03X-310271Y-1011881I45338J-51634D01*
G01X-313443Y-1015053D01*
G03X-389999Y-965211I-76556J-33872D01*
G03X-473357Y-1041208I0J-83714D01*
G01X-589314D01*
G03X-659917Y-1002476I-70602J-44981D01*
G03X-743631Y-1086190I0J-83714D01*
G03X-730089Y-1131839I83714J0D01*
G01X-1324776Y-1726526D01*
G03X-1393713Y-1808926I14777J-82400D01*
G03X-1309999Y-1892640I83714J0D01*
G03X-1233006Y-1841790I0J83714D01*
G03X-1150340Y-1912301I82666J13203D01*
G03X-1146687Y-1912221I0J83714D01*
G01X-1241445Y-1261031D02*
G03X-1150340Y-1347801I91106J4444D01*
G03X-1059126Y-1256587I0J91214D01*
G03X-1142435Y-1165716I-91214J0D01*
G01Y-838925D01*
G03X-1162224Y-791150I-67564J0D01*
G01X-1371149Y-582225D01*
G03X-1395154Y-566756I-47775J-47775D01*
G03X-1450001Y-546286I-54847J-63245D01*
G03X-1533715Y-630000I0J-83714D01*
G03X-1501120Y-696294I83714J0D01*
G03X-1581507Y-760901I1120J-83707D01*
G03X-1660001Y-706286I-78494J-29099D01*
G03X-1743715Y-790000I0J-83714D01*
G03X-1660001Y-873715I83714J0D01*
G03X-1578495Y-809100I0J83714D01*
G03X-1500001Y-863715I78494J29099D01*
G03X-1423905Y-814893I0J83714D01*
G03X-1386501Y-823714I37404J74893D01*
G03X-1344925Y-812660I0J83714D01*
G03X-1353715Y-850000I74925J-37341D01*
G03X-1277563Y-933372I83714J0D01*
G01Y-1196927D01*
G03X-1257774Y-1244702I67564J0D01*
G01X-1241445Y-1261031D01*
G01X1588788Y-1048925D02*
G03X1680002Y-1140139I91214J0D01*
G03X1766791Y-1076990I0J91214D01*
G01X1805129Y-1038652D01*
G03X1828916Y-981225I-57427J57427D01*
G01Y-961902D01*
G03X1840002Y-962639I11086J82977D01*
G03X1922865Y-890833I0J83714D01*
G03X1963716Y-818925I-42863J71908D01*
G03X1880002Y-735211I-83714J0D01*
G03X1828916Y-752606I0J-83714D01*
G01Y-706625D01*
G03X1806816Y-650935I-81214J0D01*
G03X1720002Y-587711I-86813J-27989D01*
G03X1628788Y-678925I0J-91214D01*
G03X1654976Y-742891I91214J0D01*
G03X1606288Y-818925I35026J-76034D01*
G03X1666488Y-899269I83714J0D01*
G01Y-947585D01*
G01X1651937Y-962136D01*
G03X1588788Y-1048925I28065J-86789D01*
G01X-820000Y-873715D02*
G03X-736286Y-790000I0J83714D01*
G03X-736353Y-786655I-83714J0D01*
G03X-686286Y-710000I-33647J76655D01*
G03X-770000Y-626286I-83714J0D01*
G03X-853714Y-710000I0J-83714D01*
G03X-853648Y-713346I83714J0D01*
G03X-903715Y-790000I33647J-76655D01*
G03X-820000Y-873715I83714J0D01*
G01X740002Y1659863D02*
G03X841216Y1761076I0J101214D01*
G03X740002Y1862290I-101214J0D01*
G03X638788Y1761076I0J-101214D01*
G03X740002Y1659863I101214J0D01*
G01X-1101213Y1951077D02*
G03X-999999Y1849863I101214J0D01*
G03X-898785Y1951077I0J101214D01*
G03X-999999Y2052291I-101214J0D01*
G03X-1101213Y1951077I0J-101214D01*
G01X1690002Y-578240D02*
G03X1784316Y-483926I0J94314D01*
G03X1690002Y-389612I-94314J0D01*
G03X1595688Y-483926I0J-94314D01*
G03X1690002Y-578240I94314J0D01*
G01X1016288Y1811077D02*
G03X1110002Y1717363I93714J0D01*
G03X1203716Y1811077I0J93714D01*
G03X1110002Y1904791I-93714J0D01*
G03X1016288Y1811077I0J-93714D01*
G01X-53713Y1801077D02*
G03X40001Y1707363I93714J0D01*
G03X133716Y1801077I0J93714D01*
G03X40001Y1894791I-93714J0D01*
G03X-53713Y1801077I0J-93714D01*
G01X-1561213Y731076D02*
G03X-1469999Y639862I91214J0D01*
G03X-1378785Y731076I0J91214D01*
G03X-1469999Y822290I-91214J0D01*
G03X-1561213Y731076I0J-91214D01*
G01X-1611213Y1331076D02*
G03X-1519999Y1239862I91214J0D01*
G03X-1428786Y1331076I0J91214D01*
G03X-1519999Y1422290I-91214J0D01*
G03X-1611213Y1331076I0J-91214D01*
G01X-1761739Y-1417639D02*
G03X-1673025Y-1328925I0J88714D01*
G03X-1761739Y-1240211I-88714J0D01*
G03X-1850453Y-1328925I0J-88714D01*
G03X-1761739Y-1417639I88714J0D01*
G01X1436288Y-948925D02*
G03X1520002Y-1032639I83714J0D01*
G03X1603716Y-948925I0J83714D01*
G03X1520002Y-865211I-83714J0D01*
G03X1436288Y-948925I0J-83714D01*
G01X265621Y297820D02*
G03X349335Y214105I83714J0D01*
G03X433049Y297820I0J83714D01*
G03X349335Y381534I-83714J0D01*
G03X265621Y297820I0J-83714D01*
G01X1026288Y881076D02*
G03X1110002Y797362I83714J0D01*
G03X1193716Y881076I0J83714D01*
G03X1110002Y964790I-83714J0D01*
G03X1026288Y881076I0J-83714D01*
G01X506288Y1031076D02*
G03X590002Y947362I83714J0D01*
G03X673716Y1031076I0J83714D01*
G03X590002Y1114790I-83714J0D01*
G03X506288Y1031076I0J-83714D01*
G01X240002Y-1672639D02*
G03X323716Y-1588925I0J83714D01*
G03X240002Y-1505211I-83714J0D01*
G03X156287Y-1588925I0J-83714D01*
G03X240002Y-1672639I83714J0D01*
G01X-1103713Y781076D02*
G03X-1019999Y697362I83714J0D01*
G03X-936285Y781076I0J83714D01*
G03X-1019999Y864790I-83714J0D01*
G03X-1103713Y781076I0J-83714D01*
G01X-1104539Y-358721D02*
G03X-1020824Y-275007I0J83714D01*
G03X-1104539Y-191292I-83714J0D01*
G03X-1188253Y-275007I0J-83714D01*
G03X-1104539Y-358721I83714J0D01*
G01X1624188Y-1233924D02*
G03X1690002Y-1299738I65814J0D01*
G03X1755816Y-1233924I0J65814D01*
G03X1690002Y-1168110I-65814J0D01*
G03X1624188Y-1233924I0J-65814D01*
G01X-898713Y1088863D02*
G01X-908306Y1098456D01*
G01Y1595593D01*
G01X-898713Y1605186D01*
G01Y1088863D01*
G01X-383547Y-1237639D02*
G01X-637996Y-1492088D01*
G03X-719114Y-1425216I-82003J-16838D01*
G01X-531537Y-1237639D01*
G01X-383547D01*
G01X-651766Y293885D02*
G01X-651766Y785667D01*
G01X-614054Y747955D01*
G01Y569414D01*
G03X-599054Y526560I68714J0D01*
G01Y318347D01*
G03X-651766Y293885I6693J-83446D01*
G01X-599054Y151454D02*
G01X-599054Y-305989D01*
G03X-651766Y-274896I-65945J-51568D01*
G01Y175916D01*
G03X-599054Y151454I59405J58984D01*
G01X-312717Y-447093D02*
G01X-347577Y-412233D01*
G01Y3D01*
G03X-327807Y48232I-48944J48229D01*
G01Y427598D01*
G03X-347933Y476186I-68714J0D01*
G01X-361285Y489538D01*
G01Y722614D01*
G01X-333082Y750817D01*
G03X-249999Y677362I83083J10259D01*
G03X-192135Y700579I0J83714D01*
G03X-197747Y673381I63102J-27198D01*
G01Y269068D01*
G01X-218587Y248228D01*
G03X-238713Y199640I48588J-48588D01*
G01Y-156741D01*
G03X-313714Y-240000I8713J-83259D01*
G03X-313534Y-245489I83714J0D01*
G03X-333714Y-300000I63534J-54511D01*
G03X-304806Y-363280I83714J0D01*
G03X-320434Y-411986I68086J-48706D01*
G03X-312717Y-447093I83714J0D01*
G04 Copper End*

G04 Pad Start*
G54D10*
G01X1749660Y-1745587D03*
G01X-1730340Y-1745587D03*
G01X1749660Y1734414D03*
G01X-1730340Y1734414D03*
G54D11*
G01X1475003Y-1098924D03*
G01X1475003Y-618925D03*
G01X1905002Y-618925D03*
G01X1905002Y-1098924D03*
G04 Pad End*

G04 Via Start*
G54D12*
G01X1749660Y-1535586D03*
G01X1959660Y-1745587D03*
G01X1749660Y-1955587D03*
G01X1539660Y-1745587D03*
G01X1601168Y-1597094D03*
G01X1601168Y-1894079D03*
G01X1898153Y-1894079D03*
G01X1898153Y-1597094D03*
G01X1555646Y-1665222D03*
G01X1669295Y-1939601D03*
G01X1943675Y-1825951D03*
G01X1830025Y-1551572D03*
G01X1555645Y-1825949D03*
G01X1669298Y-1551571D03*
G01X1943676Y-1665224D03*
G01X1830023Y-1939602D03*
G01X-1730340Y-1535586D03*
G01X-1520340Y-1745587D03*
G01X-1730340Y-1955587D03*
G01X-1940340Y-1745587D03*
G01X-1878832Y-1597094D03*
G01X-1878832Y-1894079D03*
G01X-1581847Y-1894079D03*
G01X-1581847Y-1597094D03*
G01X-1924354Y-1665222D03*
G01X-1810705Y-1939601D03*
G01X-1536326Y-1825951D03*
G01X-1649975Y-1551572D03*
G01X-1924355Y-1825949D03*
G01X-1810702Y-1551571D03*
G01X-1536325Y-1665224D03*
G01X-1649978Y-1939602D03*
G01X1749660Y1944414D03*
G01X1959660Y1734414D03*
G01X1749660Y1524414D03*
G01X1539660Y1734414D03*
G01X1601168Y1882906D03*
G01X1601168Y1585921D03*
G01X1898153Y1585921D03*
G01X1898153Y1882906D03*
G01X1555646Y1814778D03*
G01X1669295Y1540399D03*
G01X1943675Y1654049D03*
G01X1830025Y1928428D03*
G01X1555645Y1654051D03*
G01X1669298Y1928429D03*
G01X1943676Y1814776D03*
G01X1830023Y1540398D03*
G01X-1730340Y1944414D03*
G01X-1520340Y1734414D03*
G01X-1730340Y1524414D03*
G01X-1940340Y1734414D03*
G01X-1878832Y1882906D03*
G01X-1878832Y1585921D03*
G01X-1581847Y1585921D03*
G01X-1581847Y1882906D03*
G01X-1924354Y1814778D03*
G01X-1810705Y1540399D03*
G01X-1536326Y1654049D03*
G01X-1649975Y1928428D03*
G01X-1924355Y1654051D03*
G01X-1810702Y1928429D03*
G01X-1536325Y1814776D03*
G01X-1649978Y1540398D03*
G54D13*
G01X970130Y1337585D03*
G01X890145Y1337585D03*
G01X810135Y1337585D03*
G01X730150Y1337585D03*
G01X730150Y1257575D03*
G01X810135Y1257575D03*
G01X890145Y1257575D03*
G01X970130Y1257575D03*
G01X970130Y1177565D03*
G01X890145Y1177565D03*
G01X810135Y1177565D03*
G01X730150Y1177565D03*
G01X-123490Y1337096D03*
G01X-203475Y1337096D03*
G01X-283485Y1337096D03*
G01X-363470Y1337096D03*
G01X-363470Y1257086D03*
G01X-283485Y1257086D03*
G01X-203475Y1257086D03*
G01X-123490Y1257086D03*
G01X-123490Y1177076D03*
G01X-203475Y1177076D03*
G01X-283485Y1177076D03*
G01X-363470Y1177076D03*
G54D12*
G01X90001Y1321076D03*
G01X-1040997Y357075D03*
G01X-673998Y760774D03*
G01X260002Y902076D03*
G01X-489999Y721076D03*
G01X1520002Y932076D03*
G01X2050004Y1851078D03*
G01X1850004Y1451078D03*
G01X1850004Y1251078D03*
G01X1850004Y1051078D03*
G01X1850004Y-148923D03*
G01X1850004Y-348923D03*
G01X1850004Y-548923D03*
G01X1850004Y-1348923D03*
G01X1650004Y1451078D03*
G01X1650004Y1251078D03*
G01X1670002Y961076D03*
G01X1650004Y651078D03*
G01X1650004Y251077D03*
G01X1650004Y-348923D03*
G01X1650004Y-1348923D03*
G01X1450004Y1851078D03*
G01X1450004Y1651078D03*
G01X1450004Y1451078D03*
G01X1450004Y1251078D03*
G01X1450004Y851078D03*
G01X1450004Y-148923D03*
G01X1450004Y-348923D03*
G01X1450004Y-748923D03*
G01X1450004Y-1548923D03*
G01X1450004Y-1748924D03*
G01X1450004Y-1948924D03*
G01X1250004Y1851078D03*
G01X1250004Y1651078D03*
G01X1250004Y1451078D03*
G01X1250004Y1251078D03*
G01X1250004Y1051078D03*
G01X1250004Y851078D03*
G01X1250004Y251077D03*
G01X1250004Y-148923D03*
G01X1250004Y-1548923D03*
G01X1250004Y-1948924D03*
G01X1050003Y1651078D03*
G01X1050003Y1251078D03*
G01X1050003Y251077D03*
G01X1050003Y-148923D03*
G01X1050003Y-1548923D03*
G01X1050003Y-1948924D03*
G01X850003Y251077D03*
G01X850003Y-148923D03*
G01X850003Y-1548923D03*
G01X850003Y-1748924D03*
G01X850003Y-1948924D03*
G01X650003Y251077D03*
G01X650003Y-148923D03*
G01X650003Y-1548923D03*
G01X650003Y-1748924D03*
G01X650003Y-1948924D03*
G01X450003Y1451078D03*
G01X450003Y851078D03*
G01X450003Y-1148923D03*
G01X450003Y-1548923D03*
G01X450003Y-1948924D03*
G01X250003Y1851078D03*
G01X250003Y1451078D03*
G01X250003Y1251078D03*
G01X250003Y-1748924D03*
G01X250003Y-1948924D03*
G01X50003Y1651078D03*
G01X50003Y-1948924D03*
G01X-149997Y-1748924D03*
G01X-549997Y1851078D03*
G01X-549997Y1651078D03*
G01X-549997Y1451078D03*
G01X-549997Y1251078D03*
G01X-549997Y-1348923D03*
G01X-749997Y1451078D03*
G01X-949998Y51077D03*
G01X-949998Y-548923D03*
G01X-949998Y-748923D03*
G01X-949998Y-948923D03*
G01X-949998Y-1148923D03*
G01X-949998Y-1348923D03*
G01X-1149998Y251077D03*
G01X-1149998Y51077D03*
G01X-1149998Y-548923D03*
G01X-1149998Y-748923D03*
G01X-1349998Y1851078D03*
G01X-1349998Y1651078D03*
G01X-1349998Y1451078D03*
G01X-1349998Y1051078D03*
G01X-1349998Y251077D03*
G01X-1349998Y-148923D03*
G01X-1349998Y-348923D03*
G01X-1349998Y-548923D03*
G01X-1349998Y-1148923D03*
G01X-1349998Y-1348923D03*
G01X-1549998Y1451078D03*
G01X-1549998Y1051078D03*
G01X-1549998Y851078D03*
G01X-1549998Y251077D03*
G01X-1549998Y-148923D03*
G01X-1549998Y-348923D03*
G01X-1549998Y-548923D03*
G01X-1549998Y-1148923D03*
G01X-1549998Y-1348923D03*
G01X-1749998Y1451078D03*
G01X-1749998Y1251078D03*
G01X-1749998Y1051078D03*
G01X-1749998Y-148923D03*
G01X-1749998Y-348923D03*
G01X-1749998Y-548923D03*
G01X-1749998Y-748923D03*
G01X-1749998Y-1148923D03*
G01X-1949998Y2051078D03*
G01X-1949998Y1451078D03*
G01X-1949998Y1251078D03*
G01X-1949998Y1051078D03*
G01X-1949998Y-148923D03*
G01X-1949998Y-348923D03*
G01X-1949998Y-548923D03*
G01X-1949998Y-748923D03*
G01X-1949998Y-1148923D03*
G01X-1949998Y-1348923D03*
G01X-1949998Y-1548923D03*
G01X-1949998Y-1948924D03*
G01X-769009Y1597080D03*
G01X-1012543Y2061077D03*
G01X-810117Y-2058926D03*
G01X-1010117Y-2058926D03*
G54D14*
G01X540002Y-1438925D03*
G54D12*
G01X-659917Y-1086190D03*
G54D14*
G01X1720002Y-678925D03*
G01X1680002Y-1048925D03*
G54D12*
G01X1520002Y-948925D03*
G01X1690002Y-818925D03*
G01X1880002Y-818925D03*
G01X1840002Y-878925D03*
G01X1170002Y-468925D03*
G01X1345002Y-748925D03*
G01X477338Y440588D03*
G01X1019853Y748362D03*
G01X810135Y1063310D03*
G01X913880Y1818442D03*
G01X-146994Y1771075D03*
G01X1818461Y57617D03*
G01X1918460Y57617D03*
G01X2018461Y57617D03*
G01X2018461Y157575D03*
G01X1918460Y157575D03*
G01X1818461Y157575D03*
G01X1818461Y257534D03*
G01X1918460Y257534D03*
G01X2018461Y257534D03*
G01X2018460Y949530D03*
G01X1918460Y949530D03*
G01X1818460Y949530D03*
G01X1818460Y849572D03*
G01X1918460Y849572D03*
G01X2018460Y849572D03*
G01X2018460Y749613D03*
G01X1918460Y749613D03*
G01X1818460Y749613D03*
G01X-1942236Y58357D03*
G01X-1842236Y58357D03*
G01X-1742236Y58357D03*
G01X-1742236Y158315D03*
G01X-1842236Y158315D03*
G01X-1942236Y158315D03*
G01X-1942236Y258273D03*
G01X-1842236Y258273D03*
G01X-1742236Y258273D03*
G01X-1942452Y948892D03*
G01X-1842452Y948892D03*
G01X-1742452Y948892D03*
G01X-1942452Y848934D03*
G01X-1842452Y848934D03*
G01X-1742452Y848934D03*
G01X-1742452Y748976D03*
G01X-1842452Y748976D03*
G01X-1942452Y748976D03*
G01X-1942452Y649017D03*
G01X-1842452Y649017D03*
G01X-1742452Y649017D03*
G54D15*
G01X-1761739Y-1328925D03*
G54D16*
G01X-362485Y1771078D03*
G54D12*
G01X590002Y1031076D03*
G01X-721739Y1022909D03*
G01X-1019999Y781076D03*
G01X-1192236Y413232D03*
G01X-1292236Y413232D03*
G01X-1342236Y358232D03*
G01X-1338925Y649101D03*
G01X-1288926Y594101D03*
G01X1919885Y-2018926D03*
G01X2009885Y-1958925D03*
G01X2057025Y-1866912D03*
G01X2070002Y-1528925D03*
G01X2070002Y-1628925D03*
G01X2070002Y-1738925D03*
G01X2030002Y1901077D03*
G01X1970002Y1991077D03*
G01X1789885Y-2058926D03*
G01X1689885Y-2058926D03*
G01X1589885Y-2058926D03*
G01X1489884Y-2058926D03*
G01X1389884Y-2058926D03*
G01X1289884Y-2058926D03*
G01X1189884Y-2058926D03*
G01X1089884Y-2058926D03*
G01X989884Y-2058926D03*
G01X889884Y-2058926D03*
G01X789884Y-2058926D03*
G01X689884Y-2058926D03*
G01X589884Y-2058926D03*
G01X489884Y-2058926D03*
G01X389884Y-2058926D03*
G01X289884Y-2058926D03*
G01X189884Y-2058926D03*
G01X89884Y-2058926D03*
G01X-10116Y-2058926D03*
G01X-110116Y-2058926D03*
G01X-210116Y-2058926D03*
G01X-310116Y-2058926D03*
G01X-410117Y-2058926D03*
G01X-510117Y-2058926D03*
G01X-610117Y-2058926D03*
G01X-710117Y-2058926D03*
G01X-910117Y-2058926D03*
G01X-1110117Y-2058926D03*
G01X-1210117Y-2058926D03*
G01X-1310117Y-2058926D03*
G01X-1410117Y-2058926D03*
G01X-1510117Y-2058926D03*
G01X-1610117Y-2058926D03*
G01X-1710117Y-2058926D03*
G01X-1810117Y-2058926D03*
G01X-1910000Y-2038926D03*
G01X-1990000Y-1978925D03*
G01X-2033931Y-1874994D03*
G01X-2050000Y-1781650D03*
G01X-2050000Y-1681650D03*
G01X-2050000Y-1581650D03*
G01X-2050000Y-1481650D03*
G01X-2050000Y-1381650D03*
G01X-2050000Y-1281650D03*
G01X-2050000Y-1181650D03*
G01X-2050000Y-1081650D03*
G01X-2050000Y-981650D03*
G01X-2050000Y-881650D03*
G01X-2050000Y-781650D03*
G01X-2050000Y-681650D03*
G01X-2050000Y-581650D03*
G01X-2050000Y-481650D03*
G01X-2050000Y-381650D03*
G01X-2050000Y-281650D03*
G01X-2050000Y-181650D03*
G01X-2050000Y-81650D03*
G01X-2050000Y18350D03*
G01X-2050000Y118351D03*
G01X-2050000Y218351D03*
G01X-2050000Y718351D03*
G01X-2050000Y818351D03*
G01X-2050000Y918351D03*
G01X-2050000Y1018351D03*
G01X-2050000Y1118351D03*
G01X-2050000Y1218351D03*
G01X-2050000Y1318351D03*
G01X-2050000Y1418351D03*
G01X-2050000Y1518351D03*
G01X-2050000Y1618351D03*
G01X-2050000Y1718351D03*
G01X-2026860Y1854217D03*
G01X-1990000Y1951077D03*
G01X-1920000Y2011077D03*
G01X-1812543Y2061077D03*
G01X-1712543Y2061077D03*
G01X-1612543Y2061077D03*
G01X-1512543Y2061077D03*
G01X-1412543Y2061077D03*
G01X-1312543Y2061077D03*
G01X-1212543Y2061077D03*
G01X-1112543Y2061077D03*
G01X-912543Y2061077D03*
G01X-812543Y2061077D03*
G01X-712543Y2061077D03*
G01X-612543Y2061077D03*
G01X-512543Y2061077D03*
G01X-412543Y2061077D03*
G01X-312543Y2061077D03*
G01X-212543Y2061077D03*
G01X-112543Y2061077D03*
G01X-12543Y2061077D03*
G01X87458Y2061077D03*
G01X187458Y2061077D03*
G01X287458Y2061077D03*
G01X387458Y2061077D03*
G01X487458Y2061077D03*
G01X587458Y2061077D03*
G01X687458Y2061077D03*
G01X787458Y2061077D03*
G01X887458Y2061077D03*
G01X987458Y2061077D03*
G01X1087458Y2061077D03*
G01X1187458Y2061077D03*
G01X1287458Y2061077D03*
G01X1387458Y2061077D03*
G01X1487458Y2061077D03*
G01X1587458Y2061077D03*
G01X1687458Y2061077D03*
G01X1787458Y2061077D03*
G01X1877989Y2038216D03*
G01X2070002Y1771076D03*
G01X2070002Y1671076D03*
G01X2070002Y1571076D03*
G01X2070002Y1471076D03*
G01X2070002Y1371076D03*
G01X2070002Y1271076D03*
G01X2070002Y1171076D03*
G01X2070002Y1071076D03*
G01X2070002Y971076D03*
G01X2070002Y871076D03*
G01X2070002Y771076D03*
G01X2070002Y671076D03*
G01X2070002Y271076D03*
G01X2070002Y171076D03*
G01X2070002Y71076D03*
G01X2070002Y-28925D03*
G01X2070002Y-128925D03*
G01X2070002Y-228925D03*
G01X2070002Y-328925D03*
G01X2070002Y-428925D03*
G01X2070002Y-528925D03*
G01X2070002Y-628925D03*
G01X2070002Y-728925D03*
G01X2070002Y-828925D03*
G01X2070002Y-928925D03*
G01X2070002Y-1028925D03*
G01X2070002Y-1128925D03*
G01X2070002Y-1228925D03*
G01X2070002Y-1328925D03*
G01X2070002Y-1428925D03*
G01X-640000Y1233331D03*
G01X-359999Y-1588925D03*
G01X-89999Y-1118925D03*
G01X-249999Y-1118925D03*
G01X-409999Y-1218925D03*
G01X-449999Y-1658925D03*
G01X1340002Y-528925D03*
G01X605002Y-787703D03*
G01X599999Y-937703D03*
G01X-799999Y-1086190D03*
G01X110001Y-1008925D03*
G01X-69999Y-1008925D03*
G01X-800001Y-937557D03*
G01X-800000Y-210000D03*
G01X-800000Y-360000D03*
G01X-799999Y-488925D03*
G54D16*
G01X740002Y1761076D03*
G54D14*
G01X-1519999Y1331076D03*
G54D12*
G01X1713046Y186810D03*
G01X-1450001Y-630000D03*
G54D14*
G01X-1150340Y-1256587D03*
G54D12*
G01X-343999Y476075D03*
G01X-379999Y531076D03*
G01X-768994Y525773D03*
G01X-592361Y234900D03*
G01X220001Y-948925D03*
G01X270001Y-888925D03*
G01X360002Y-818925D03*
G01X430002Y-758925D03*
G01X-1065997Y-1889921D03*
G01X-892998Y-1636921D03*
G01X-1150340Y-1828587D03*
G01X-1309999Y-1808926D03*
G01X-719999Y-1508925D03*
G01X-359999Y-1408925D03*
G01X240002Y-1588925D03*
G01X-768994Y732024D03*
G01X-915385Y354431D03*
G01X-785379Y354431D03*
G01X-1242236Y358232D03*
G01X-600340Y594414D03*
G01X1318460Y357492D03*
G01X1718460Y649655D03*
G01X1218461Y357492D03*
G01X238966Y193291D03*
G01X281004Y140066D03*
G01X1110002Y881076D03*
G01X797199Y751480D03*
G01X288043Y746254D03*
G01X-231540Y594655D03*
G01X-181540Y649655D03*
G01X-668926Y594101D03*
G01X1169661Y824414D03*
G01X129660Y-155587D03*
G01X229660Y-155587D03*
G01X29660Y-155587D03*
G01X-70340Y-155587D03*
G01X-300340Y-65587D03*
G01X-653183Y217256D03*
G01X-582472Y146546D03*
G01X-370340Y-65587D03*
G01X-441761Y75835D03*
G01X-371051Y5124D03*
G01X1500913Y-95322D03*
G01X1642335Y116100D03*
G01X1571624Y45389D03*
G01X1500913Y-25322D03*
G01X1713046Y116811D03*
G01X1642335Y46100D03*
G01X1571624Y-24611D03*
G01X1373043Y-40321D03*
G01X1423043Y-95322D03*
G01X1123043Y-95322D03*
G01X1223043Y-95322D03*
G01X1323043Y-95322D03*
G01X1073043Y-40321D03*
G01X373043Y-40321D03*
G01X423043Y-95322D03*
G01X473043Y-40321D03*
G01X523043Y-95322D03*
G01X573043Y-40321D03*
G01X623043Y-95322D03*
G01X673043Y-40321D03*
G01X723043Y-95322D03*
G01X773043Y-40321D03*
G01X823043Y-95322D03*
G01X873043Y-40321D03*
G01X923043Y-95322D03*
G01X973043Y-40321D03*
G01X1023043Y-95322D03*
G01X1173043Y-40321D03*
G01X1273043Y-40321D03*
G01X1073042Y141841D03*
G01X1123042Y196841D03*
G01X1173042Y141841D03*
G01X1223043Y196841D03*
G01X1323042Y196841D03*
G01X1273042Y141841D03*
G01X973043Y141841D03*
G01X1268461Y412492D03*
G01X1373042Y141841D03*
G01X1323042Y196841D03*
G01X1273042Y141841D03*
G01X1223043Y196841D03*
G01X1173042Y141841D03*
G01X1123042Y196841D03*
G01X1073042Y141841D03*
G01X1023042Y196841D03*
G01X923042Y196841D03*
G01X873042Y141841D03*
G01X823042Y196841D03*
G01X773042Y141841D03*
G01X723042Y196841D03*
G01X673042Y141841D03*
G01X623042Y196841D03*
G01X573042Y141841D03*
G01X523042Y196841D03*
G01X473042Y141841D03*
G01X423042Y196841D03*
G01X373042Y141841D03*
G01X331004Y195066D03*
G01X122160Y219414D03*
G01X-26958Y141841D03*
G01X-76958Y196841D03*
G01X-477910Y117407D03*
G01X1398954Y209113D03*
G01X1343954Y259113D03*
G01X1398954Y309113D03*
G01X-229233Y409329D03*
G01X-174233Y359328D03*
G01X-229233Y309329D03*
G01X-174233Y259328D03*
G01X-1009763Y1013432D03*
G01X-954763Y963432D03*
G01X-1009763Y913432D03*
G01X218460Y649655D03*
G01X268460Y594655D03*
G01X318460Y649655D03*
G01X-486216Y612283D03*
G01X-938925Y649101D03*
G01X-838925Y649101D03*
G01X-1238925Y649101D03*
G01X-1138925Y649101D03*
G01X-1038925Y649101D03*
G01X-31540Y594655D03*
G01X-81540Y649655D03*
G01X168460Y594655D03*
G01X118460Y649655D03*
G01X18460Y649655D03*
G01X68460Y594655D03*
G01X1118460Y649655D03*
G01X1068460Y594655D03*
G01X1018460Y649655D03*
G01X1418460Y649655D03*
G01X1368460Y594655D03*
G01X1318460Y649655D03*
G01X1268460Y594655D03*
G01X1168460Y594655D03*
G01X1218460Y649655D03*
G01X2068460Y594655D03*
G01X2018460Y649655D03*
G01X1968460Y594655D03*
G01X1918460Y649655D03*
G01X1868460Y594655D03*
G01X1818460Y649655D03*
G01X1768460Y594655D03*
G01X-788926Y594101D03*
G01X-888925Y594101D03*
G01X-988925Y594101D03*
G01X-1088925Y594101D03*
G01X-1188925Y594101D03*
G01X-2092452Y594017D03*
G01X-1792452Y594017D03*
G01X-1892452Y594017D03*
G01X-1992452Y594017D03*
G01X-1642452Y649017D03*
G01X-1742452Y649017D03*
G01X-1842452Y649017D03*
G01X-1942452Y649017D03*
G01X-2042452Y649017D03*
G01X2018461Y357492D03*
G01X1918460Y357492D03*
G01X1818460Y357492D03*
G01X2068460Y412492D03*
G01X1968461Y412492D03*
G01X1868461Y412492D03*
G01X1768461Y412492D03*
G01X1118461Y357492D03*
G01X1018460Y357492D03*
G01X918460Y357492D03*
G01X818460Y357492D03*
G01X718461Y357492D03*
G01X618461Y357492D03*
G01X1168460Y412492D03*
G01X1068460Y412492D03*
G01X968461Y412492D03*
G01X868461Y412492D03*
G01X768460Y412492D03*
G01X568460Y412492D03*
G01X418460Y357492D03*
G01X118461Y357492D03*
G01X18460Y357492D03*
G01X-81540Y357492D03*
G01X68461Y412492D03*
G01X-31539Y412492D03*
G01X518460Y357492D03*
G01X-642236Y358232D03*
G01X-592236Y413232D03*
G01X-1442236Y358232D03*
G01X-1542236Y358232D03*
G01X-1642236Y358232D03*
G01X-1742236Y358232D03*
G01X-1842236Y358232D03*
G01X-1942236Y358232D03*
G01X-2042236Y358232D03*
G01X-1392236Y413232D03*
G01X-1492236Y413232D03*
G01X-1592236Y413232D03*
G01X-1692236Y413232D03*
G01X-1792236Y413232D03*
G01X-1892236Y413232D03*
G01X-1992236Y413232D03*
G01X-2092236Y413232D03*
G01X-236720Y-526286D03*
G01X-236720Y-411986D03*
G01X283980Y-465326D03*
G01X-1299999Y1131076D03*
G01X-1089999Y1271076D03*
G01X-1080340Y1274414D03*
G01X276360Y-307846D03*
G01X259441Y1317954D03*
G01X591320Y454154D03*
G01X543060Y471934D03*
G01X543060Y525274D03*
G01X591320Y506647D03*
G01X543060Y526120D03*
G01X591320Y559140D03*
G01X543060Y580307D03*
G01X591320Y611634D03*
G01X543060Y634494D03*
G01X144095Y302507D03*
G01X1567617Y470554D03*
G01X1512776Y536923D03*
G01X720002Y691076D03*
G01X440002Y1221076D03*
G01X-543485Y951447D03*
G01X-767580Y1193294D03*
G01X-895202Y1192726D03*
G01X349335Y297820D03*
G01X-249999Y761076D03*
G01X-74160Y-617726D03*
G54D18*
G01X1051060Y-605026D03*
G01X463434Y-601351D03*
G54D12*
G01X-1104539Y-275007D03*
G01X1650002Y761076D03*
G54D18*
G01X1110002Y1811077D03*
G01X40001Y1801077D03*
G54D12*
G01X-650000Y-490000D03*
G01X-389999Y-1048925D03*
G01X1Y951076D03*
G01X1520002Y1111076D03*
G01X-241800Y-615186D03*
G01X370002Y1761076D03*
G01X-667998Y1602072D03*
G01X-675998Y1834072D03*
G01X-769999Y1831077D03*
G54D16*
G01X-999999Y1951077D03*
G54D14*
G01X-1469999Y731076D03*
G54D12*
G01X22360Y-665986D03*
G01X-89999Y-848925D03*
G01X-154899Y-863324D03*
G01X-126120Y-956926D03*
G01X151500Y-273706D03*
G01X-118500Y-363706D03*
G01X151500Y-453706D03*
G01X-118500Y-543707D03*
G01X-28500Y-543707D03*
G01X61500Y-543707D03*
G01X151500Y-543707D03*
G01X61500Y-453706D03*
G01X-28500Y-453706D03*
G01X-118500Y-453706D03*
G01X-28500Y-363706D03*
G01X61500Y-273706D03*
G01X-28500Y-273706D03*
G01X-118500Y-273706D03*
G01X151500Y-363706D03*
G01X61500Y-363706D03*
G01X1138445Y-1738586D03*
G01X1140002Y-1348925D03*
G01X-19999Y-968925D03*
G01X180001Y-1348925D03*
G01X940680Y-160407D03*
G01X780002Y-388925D03*
G01X1154040Y-339706D03*
G01X950840Y-656089D03*
G01X751603Y-601326D03*
G01X740002Y-488925D03*
G01X600002Y-468925D03*
G01X70001Y-1118925D03*
G01X-169999Y-1108925D03*
G01X-470000Y-340000D03*
G01X-250000Y-300000D03*
G01X-230000Y-240000D03*
G01X-1386501Y-739999D03*
G01X-1270001Y-850000D03*
G01X-1500001Y-780000D03*
G01X-1660001Y-790000D03*
G01X160000Y-1110001D03*
G01X170000Y-880000D03*
G01X-770000Y-710000D03*
G01X-820000Y-790000D03*
G01X-664999Y-357557D03*
G04 Via End*

G04 Track Start*
G54D19*
G01X-429999Y751076D02*
G01X-429999Y461076D01*
G01X-229999Y951076D02*
G01X-429999Y751076D01*
G01X1Y951076D02*
G01X-229999Y951076D01*
G01X1590002Y527028D02*
G01X1769661Y347369D01*
G01X1590002Y1041076D02*
G01X1590002Y527028D01*
G01X1520002Y1111076D02*
G01X1590002Y1041076D01*
G01X165004Y-1223922D02*
G01X360002Y-1028925D01*
G01X-272654Y-1223922D02*
G01X165004Y-1223922D01*
G01X-646916Y-1598184D02*
G01X-272654Y-1223922D01*
G01X-610996Y-1109922D02*
G01X-1309999Y-1808926D01*
G01X-311136Y-1109922D02*
G01X-610996Y-1109922D01*
G01X-261682Y-1060469D02*
G01X-311136Y-1109922D01*
G01X-261997Y-956926D02*
G01X-126120Y-956926D01*
G01X-720480Y-498444D02*
G01X-261997Y-956926D01*
G01X-720480Y813454D02*
G01X-720480Y-498444D01*
G54D20*
G01X1747702Y-706625D02*
G01X1747702Y-981225D01*
G01X1720002Y-678925D02*
G01X1747702Y-706625D01*
G01X1747702Y-981225D02*
G01X1680002Y-1048925D01*
G54D19*
G01X210998Y1602072D02*
G01X140997Y1602072D01*
G01X1769661Y347369D02*
G01X1769661Y14413D01*
G01X626689Y-288924D02*
G01X249627Y-665986D01*
G01X1466323Y-288924D02*
G01X626689Y-288924D01*
G01X1769661Y14413D02*
G01X1466323Y-288924D01*
G01X-530340Y554414D02*
G01X-530340Y-448205D01*
G01X-154899Y-823647D02*
G01X-530340Y-448205D01*
G01X140997Y943412D02*
G01X-129033Y673381D01*
G01X140997Y1602072D02*
G01X140997Y943412D01*
G01X370002Y1761076D02*
G01X210998Y1602072D01*
G01X-667998Y1602072D02*
G01X140997Y1602072D01*
G01X-129033Y673381D02*
G01X-129033Y240606D01*
G01X-169999Y199640D02*
G01X-169999Y-708925D01*
G01X-129033Y240606D02*
G01X-169999Y199640D01*
G01X-416291Y-440695D02*
G01X-241800Y-615186D01*
G01X-416291Y28463D02*
G01X-416291Y-440695D01*
G01X-396521Y48232D02*
G01X-416291Y28463D01*
G01X-396521Y427598D02*
G01X-396521Y48232D01*
G01X-429999Y461076D02*
G01X-396521Y427598D01*
G01X-89999Y-788925D02*
G01X-169999Y-708925D01*
G01X-89999Y-848925D02*
G01X-89999Y-788925D01*
G01X-983195Y-1682121D02*
G01X-573195Y-1682121D01*
G01X-429999Y-1538925D01*
G01X-1065997Y-1764924D02*
G01X-983195Y-1682121D01*
G01X-429999Y-1538925D02*
G01X-99999Y-1538925D01*
G01X413235Y-1025691D01*
G01X-1065997Y-1889921D02*
G01X-1065997Y-1764924D01*
G01X-559999Y-1168925D02*
G01X170001Y-1168925D01*
G01X-1150340Y-1759266D02*
G01X-559999Y-1168925D01*
G01X-1150340Y-1828587D02*
G01X-1150340Y-1759266D01*
G01X-59999Y-1588925D02*
G01X180001Y-1348925D01*
G01X-359999Y-1588925D02*
G01X-59999Y-1588925D01*
G01X-854261Y-1598184D02*
G01X-646916Y-1598184D01*
G01X1081224Y-787703D02*
G01X1340002Y-528925D01*
G01X605002Y-787703D02*
G01X1081224Y-787703D01*
G01X148458Y-1060469D02*
G01X-261682Y-1060469D01*
G01X220001Y-988925D02*
G01X148458Y-1060469D01*
G01X220001Y-948925D02*
G01X220001Y-988925D01*
G01X8020Y-940906D02*
G01X8020Y-783726D01*
G01X-19999Y-968925D02*
G01X8020Y-940906D01*
G01X8020Y-783726D02*
G01X-74160Y-701546D01*
G01X-829999Y1680071D02*
G01X-829999Y1061076D01*
G01X-675998Y1834072D02*
G01X-829999Y1680071D01*
G01X-769999Y1831077D02*
G01X-977020Y1624056D01*
G01Y1069994D01*
G54D21*
G01X-1450001Y-630000D02*
G01X-1418924Y-630000D01*
G01X-1209999Y-838925D01*
G01X-1209999Y-1196927D02*
G01X-1209999Y-838925D01*
G01X-1150340Y-1256587D02*
G01X-1209999Y-1196927D01*
G54D19*
G01X-829999Y1061076D02*
G01X-545340Y776417D01*
G01Y569414D01*
G01X-530340Y554414D01*
G01X270001Y-1068925D02*
G01X270001Y-888925D01*
G01X170001Y-1168925D02*
G01X270001Y-1068925D01*
G01X360002Y-1028925D02*
G01X360002Y-818925D01*
G01X-892998Y-1636921D02*
G01X-854261Y-1598184D01*
G01X413235Y-775691D02*
G01X430002Y-758925D01*
G01X413235Y-1025691D02*
G01X413235Y-775691D01*
G01X249627Y-665986D02*
G01X22360Y-665986D01*
G01X-154899Y-863324D02*
G01X-154899Y-823647D01*
G01X-74160Y-701546D02*
G01X-74160Y-617726D01*
G54D22*
G01X992640Y-546606D02*
G01X1051060Y-605026D01*
G01X586240Y-546606D02*
G01X992640Y-546606D01*
G01X531496Y-601351D02*
G01X586240Y-546606D01*
G01X463434Y-601351D02*
G01X531496Y-601351D01*
G54D19*
G01X-977020Y1069994D02*
G01X-720480Y813454D01*
G01X1127801Y-1348925D02*
G01X1136260Y-1340466D01*
G01X180001Y-1348925D02*
G01X1127801Y-1348925D01*
G04 Track End*

M02*
