G04 Layer: BottomLayer*
G04 EasyEDA Pro v2.1.64.d1969c9c.217bcf, 2024-08-30 02:53:31*
G04 Gerber Generator version 0.3*
G04 Scale: 100 percent, Rotated: No, Reflected: No*
G04 Dimensions in millimeters*
G04 Leading zeros omitted, absolute positions, 3 integers and 5 decimals*
%FSLAX35Y35*%
%MOMM*%
%AMRoundRect*1,1,$1,$2,$3*1,1,$1,$4,$5*1,1,$1,0-$2,0-$3*1,1,$1,0-$4,0-$5*20,1,$1,$2,$3,$4,$5,0*20,1,$1,$4,$5,0-$2,0-$3,0*20,1,$1,0-$2,0-$3,0-$4,0-$5,0*20,1,$1,0-$4,0-$5,$2,$3,0*4,1,4,$2,$3,$4,$5,0-$2,0-$3,0-$4,0-$5,$2,$3,0*%
%AMOval*1,1,$1,$2,$3*1,1,$1,$4,$5*20,1,$1,$2,$3,$4,$5,0*%
%ADD8191C,0.2032*%
%ADD10R,1.41X1.35001*%
%ADD11R,0.86401X0.80648*%
%ADD12R,1.35001X1.41*%
%ADD13C,5.2*%
%ADD14R,0.8X0.9*%
%ADD15R,0.9X0.8*%
%ADD16R,0.8114X0.86401*%
%ADD17R,0.80648X0.86401*%
%ADD18R,0.806X0.86401*%
%ADD19R,0.80648X0.86401*%
%ADD20R,0.806X0.86401*%
%ADD21R,0.86401X0.80648*%
%ADD22R,0.86401X0.806*%
%ADD23R,0.86401X0.806*%
%ADD24RoundRect,0.1X0.05X0.3875X0.05X-0.3875*%
%ADD25RoundRect,0.1X0.3875X0.05X0.3875X-0.05*%
%ADD26RoundRect,0.288X1.456X1.456X1.456X-1.456*%
%ADD27RoundRect,0.3X0.15X0.65X0.15X-0.65*%
%ADD28R,1.2X1.4*%
%ADD29R,0.51999X0.7*%
%ADD30R,1.05001X0.7*%
%ADD31C,1.1*%
%ADD32R,0.51999X0.7*%
%ADD33R,1.05001X0.7*%
%ADD34Oval,0.41999X0.0X-0.30751X0.0X0.30751*%
%ADD35R,2.99999X2.2*%
%ADD36R,2.05999X2.07*%
%ADD37C,0.45*%
%ADD38C,0.50002*%
%ADD39C,0.6*%
%ADD40C,0.55*%
%ADD41C,0.8*%
%ADD42C,0.65*%
%ADD43C,0.4*%
%ADD44C,0.15*%
%ADD45C,0.254*%
%ADD46C,0.2*%
G75*


G04 Copper Start*
G36*
G01X-1840340Y-2119772D02*
G02X-2104526Y-1855587I0J264186D01*
G01Y1844414D01*
G02X-1840340Y2108600I264186J0D01*
G01X1859660D01*
G02X2123846Y1844414I0J-264186D01*
G01Y-1855587D01*
G02X1859660Y-2119772I-264186J0D01*
G01X-1840340D01*
G37*
%LPC*%
G36*
G01X-1067348Y-1989281D02*
G03X-1016992Y-2010139I50356J50356D01*
G01X-920679D01*
G03X-870323Y-1989281I0J71214D01*
G01X-811142Y-1930101D01*
G01X-775010D01*
G03X-768587Y-1937513I55011J41175D01*
G01X-718587Y-1987513D01*
G01Y-1987514D01*
G03X-669999Y-2007639I48588J48588D01*
G01X-109999D01*
G03X-61411Y-1987514I0J68714D01*
G01X254778Y-1671325D01*
G03X323716Y-1588925I-14777J82400D01*
G03X240002Y-1505211I-83714J0D01*
G03X157602Y-1574149I0J-83714D01*
G01X-138461Y-1870212D01*
G01X-365814D01*
G03X-365584Y-1864910I-60984J5301D01*
G01Y-1784263D01*
G03X-366264Y-1775170I-61214J0D01*
G01X28589Y-1380317D01*
G03X48715Y-1331729I-48588J48588D01*
G01Y-1140137D01*
G01X81898D01*
G03X140762Y-1191474I78102J30136D01*
G01X235861Y-1286573D01*
G03X180001Y-1265211I-55860J-62352D01*
G03X96287Y-1348925I0J-83714D01*
G03X180001Y-1432639I83714J0D01*
G03X263716Y-1348925I0J83714D01*
G03X242353Y-1293065I-83714J0D01*
G01X250784Y-1301496D01*
G03X301140Y-1322354I50356J50356D01*
G01X1060617D01*
G03X1056288Y-1348925I79385J-26571D01*
G03X1056365Y-1352513I83714J0D01*
G01X790044D01*
G03X740691Y-1327513I-49353J-36214D01*
G01X635690D01*
G03X623200Y-1328801I0J-61214D01*
G03X610710Y-1327513I-12490J-59926D01*
G01X558712D01*
G03X508870Y-1353188I0J-61214D01*
G03X448788Y-1438925I31131J-85737D01*
G03X540002Y-1530139I91214J0D01*
G03X581912Y-1519941I0J91214D01*
G01X610710D01*
G03X623200Y-1518653I0J61214D01*
G03X635690Y-1519941I12490J59926D01*
G01X740691D01*
G03X790044Y-1494941I0J61214D01*
G01X1305200D01*
G03X1355556Y-1474083I0J71214D01*
G01X1690056Y-1139583D01*
G03X1771216Y-1048925I-10054J90658D01*
G03X1680002Y-957711I-91214J0D01*
G03X1589344Y-1038871I0J-91214D01*
G01X1275703Y-1352513D01*
G01X1223639D01*
G03X1223716Y-1348925I-83637J3588D01*
G03X1219080Y-1321453I-83714J0D01*
G03X1258143Y-1301496I-11293J70313D01*
G01X1527320Y-1032319D01*
G03X1603396Y-956243I-7318J83394D01*
G01X1609500Y-950139D01*
G01X1795995D01*
G03X1840002Y-962639I44007J71214D01*
G03X1922865Y-890833I0J83714D01*
G03X1963716Y-818925I-42863J71908D01*
G03X1880002Y-735211I-83714J0D01*
G03X1835995Y-747711I0J-83714D01*
G01X1779906D01*
G03X1811216Y-678925I-59904J68786D01*
G03X1720002Y-587711I-91214J0D01*
G03X1628788Y-678925I0J-91214D01*
G03X1654976Y-742891I91214J0D01*
G03X1645995Y-747711I35026J-76034D01*
G01X1580002D01*
G03X1529646Y-768569I0J-71214D01*
G01X1298289Y-999926D01*
G01X830392D01*
G03X836052Y-989780I-50388J34759D01*
G03X839812Y-986291I-44828J52077D01*
G01X1008464Y-817639D01*
G01X1053788D01*
G01Y-818924D01*
G03X1115002Y-880138I61214J0D01*
G01X1235002D01*
G03X1296216Y-818924I0J61214D01*
G01Y-678925D01*
G03X1293262Y-660139I-61214J0D01*
G01X1405002D01*
G03X1466216Y-598925I0J61214D01*
G01Y-458925D01*
G03X1405002Y-397711I-61214J0D01*
G01X1373144D01*
G01X1196847Y-221415D01*
G03X1148259Y-201289I-48588J-48588D01*
G01X518923D01*
G03X470335Y-221415I0J-68714D01*
G01X464833Y-226916D01*
G01Y-223287D01*
G03X463112Y-208287I-66214J0D01*
G03X464833Y-193287I-64493J15000D01*
G01Y-183287D01*
G03X463112Y-168287I-66214J0D01*
G03X464833Y-153287I-64493J15000D01*
G01Y-143287D01*
G03X398619Y-77073I-66214J0D01*
G01X347334D01*
G01Y-25787D01*
G03X281120Y40427I-66214J0D01*
G01X271120D01*
G03X256120Y38705I0J-66214D01*
G03X241120Y40427I-15000J-64493D01*
G01X231120D01*
G03X216120Y38705I0J-66214D01*
G03X201120Y40427I-15000J-64493D01*
G01X191120D01*
G03X186394Y40258I0J-66214D01*
G01Y43614D01*
G03X221394Y98931I-26214J55317D01*
G01Y178931D01*
G03X160180Y240145I-61214J0D01*
G01X109269D01*
G01X47863Y301551D01*
G03X-2493Y322409I-50356J-50356D01*
G01X-90062D01*
G03X-140418Y301551I0J-71214D01*
G01X-199284Y242685D01*
G01X-287960D01*
G03X-315138Y236321I0J-61214D01*
G01X-491950D01*
G01X-511253Y255623D01*
G03X-592361Y318615I-81109J-20723D01*
G03X-676075Y234900I0J-83714D01*
G03X-667946Y198914I83714J0D01*
G01X-1496616D01*
G03X-1545204Y178788I0J-68714D01*
G01X-1605461Y118531D01*
G03X-1625501Y121213I-20040J-73532D01*
G01X-1655500D01*
G03X-1731714Y44999I0J-76214D01*
G01Y-85001D01*
G03X-1655500Y-161215I76214J0D01*
G01X-1625501D01*
G03X-1577001Y-143791I0J76214D01*
G03X-1528501Y-161215I48500J58791D01*
G01X-1498501D01*
G03X-1450001Y-143791I0J76214D01*
G03X-1401501Y-161215I48500J58791D01*
G01X-1371501D01*
G03X-1365025Y-160939I0J76214D01*
G01X-1337519Y-188445D01*
G03X-1288930Y-208571I48588J48588D01*
G01X-1155474D01*
G03X-1188253Y-275007I50935J-66435D01*
G03X-1104539Y-358721I83714J0D01*
G03X-1020824Y-275007I0J83714D01*
G03X-1053603Y-208571I-83714J0D01*
G01X-761211D01*
G01Y-252557D01*
G03X-753355Y-282557I61214J0D01*
G03X-761211Y-312557I53359J-30000D01*
G01Y-402557D01*
G03X-753355Y-432557I61214J0D01*
G03X-761211Y-462557I53359J-30000D01*
G01Y-548131D01*
G03X-778676Y-545586I-17466J-58669D01*
G01X-859324D01*
G03X-920538Y-606800I0J-61214D01*
G01Y-693201D01*
G03X-914360Y-720000I61214J0D01*
G03X-920538Y-746800I55036J-26800D01*
G01Y-833201D01*
G03X-859324Y-894415I61214J0D01*
G01X-778676D01*
G03X-761207Y-891869I0J61214D01*
G01X-761211Y-892557D01*
G01Y-982557D01*
G03X-753733Y-1011875I61214J0D01*
G03X-761208Y-1041190I53739J-29314D01*
G01Y-1131190D01*
G03X-699994Y-1192404I61214J0D01*
G01X-619994D01*
G03X-561738Y-1149986I0J61214D01*
G03X-538676Y-1134778I-25526J63797D01*
G01X-499028Y-1095130D01*
G03X-439999Y-1140137I59029J16208D01*
G01X-349999D01*
G03X-319999Y-1132281I0J61214D01*
G03X-289999Y-1140137I30000J53359D01*
G01X-247677D01*
G03X-169999Y-1192639I77678J31212D01*
G03X-92321Y-1140137I0J83714D01*
G01X-88713D01*
G01Y-1303267D01*
G01X-308428Y-1522982D01*
G03X-359999Y-1505211I-51571J-65943D01*
G03X-390262Y-1510873I0J-83714D01*
G01X-474770D01*
G01X-441537Y-1477639D01*
G01X-407815D01*
G03X-359999Y-1492639I47817J68714D01*
G03X-276285Y-1408925I0J83714D01*
G03X-359999Y-1325211I-83714J0D01*
G03X-407815Y-1340211I0J-83714D01*
G01X-469999D01*
G03X-518587Y-1360337I0J-68714D01*
G01X-640611Y-1482361D01*
G03X-719999Y-1425211I-79388J-26564D01*
G03X-767816Y-1440211I0J-83714D01*
G01X-999999D01*
G03X-1048587Y-1460337I0J-68714D01*
G01X-1133299Y-1545049D01*
G01X-1171285D01*
G01Y-1374709D01*
G01X-1144168Y-1347592D01*
G03X-1059126Y-1256587I-6171J91005D01*
G03X-1150340Y-1165373I-91214J0D01*
G03X-1241345Y-1250415I0J-91214D01*
G01X-1288587Y-1297658D01*
G03X-1308713Y-1346246I48588J-48588D01*
G01Y-1545049D01*
G01X-1353200D01*
G03X-1414414Y-1606263I0J-61214D01*
G01Y-1686911D01*
G03X-1387520Y-1737599I61214J0D01*
G03X-1414414Y-1788287I34320J-50688D01*
G01Y-1868887D01*
G03X-1353200Y-1930101I61214J0D01*
G01X-1266799D01*
G03X-1230170Y-1917932I0J61214D01*
G03X-1193540Y-1930101I36629J49045D01*
G01X-1139439D01*
G03X-1085236Y-1971394I73441J40180D01*
G01X-1067348Y-1989281D01*
G37*
G36*
G01X-1644213Y574676D02*
G03X-1582999Y513462I61214J0D01*
G01X-1377000D01*
G03X-1315786Y574676I0J61214D01*
G01Y769862D01*
G01X-1102959D01*
G03X-1019999Y697362I82960J11214D01*
G03X-999693Y699862I0J83714D01*
G01X-831739D01*
G03X-774312Y723649I0J81214D01*
G01X-703099Y794862D01*
G01X-669238D01*
G03X-656748Y796150I0J61214D01*
G03X-644259Y794862I12490J59926D01*
G01X-592260D01*
G03X-552117Y809862I0J61214D01*
G01X-489450D01*
G03X-489179Y804786I61210J713D01*
G01X-489999Y804790D01*
G03X-573713Y721076I0J-83714D01*
G03X-489999Y637362I83714J0D01*
G03X-406285Y721076I0J83714D01*
G03X-411208Y749361I-83714J0D01*
G01X-332889D01*
G03X-249999Y677362I82890J11714D01*
G03X-166285Y761076I0J83714D01*
G03X-232025Y842838I-83714J0D01*
G01Y951576D01*
G03X-232121Y955010I-61214J0D01*
G03X-203475Y949858I28646J77061D01*
G03X-196409Y950162I0J82213D01*
G01Y871557D01*
G03X-135195Y810343I61214J0D01*
G01X-48794D01*
G03X12332Y868275I0J61214D01*
G03X47818Y882362I-12331J82801D01*
G01X127002D01*
G03X155587Y888590I0J68714D01*
G01Y861753D01*
G03X216801Y800539I61214J0D01*
G01X303202D01*
G03X364416Y861753I0J61214D01*
G01Y909314D01*
G01X437663Y982562D01*
G01X473202D01*
G03X513230Y997463I0J61214D01*
G03X532575Y966528I76772J26492D01*
G01X604166Y894936D01*
G01Y810575D01*
G03X665380Y749361I61214J0D01*
G01X800381D01*
G03X861595Y810575I0J61214D01*
G01Y951576D01*
G03X861469Y955510I-61214J0D01*
G03X887285Y950396I28676J77050D01*
G01Y873940D01*
G03X948499Y812726I61214J0D01*
G01X1034900D01*
G03X1056522Y816671I0J61214D01*
G03X1110002Y797362I53480J64404D01*
G03X1193716Y881076I0J83714D01*
G03X1110002Y964790I-83714J0D01*
G03X1095459Y963517I0J-83714D01*
G03X1050188Y1013861I-60559J-8930D01*
G03X1052343Y1032560I-80059J18699D01*
G01Y1094061D01*
G03X970130Y1176274I-82213J0D01*
G03X930137Y1165892I0J-82213D01*
G03X890145Y1176274I-39992J-71831D01*
G03X810148Y1113021I0J-82213D01*
G03X730150Y1176274I-79997J-18960D01*
G03X647937Y1094061I0J-82213D01*
G01Y1091504D01*
G03X590002Y1114790I-57935J-60428D01*
G03X534416Y1093672I0J-83714D01*
G01Y1124376D01*
G03X473202Y1185590I-61214J0D01*
G01X386801D01*
G03X345002Y1169097I0J-61214D01*
G03X303202Y1185590I-41800J-44721D01*
G01X216801D01*
G03X155587Y1124376I0J-61214D01*
G01Y1076838D01*
G01X98539Y1019790D01*
G01X47818D01*
G03X1Y1034790I-47817J-68714D01*
G03X-41708Y1023659I0J-83714D01*
G03X-41277Y1032071I-81782J8412D01*
G01Y1093572D01*
G03X-123490Y1175786I-82213J0D01*
G03X-163483Y1165403I0J-82213D01*
G03X-203475Y1175786I-39992J-71831D01*
G03X-283472Y1112532I0J-82213D01*
G03X-363470Y1175786I-79997J-18960D01*
G03X-445683Y1093572I0J-82213D01*
G01Y1032071D01*
G03X-442937Y1010999I82213J0D01*
G03X-485843Y972290I14697J-59423D01*
G01X-533072D01*
G03X-531046Y987909I-59188J15619D01*
G01Y1057909D01*
G03X-592260Y1119123I-61214J0D01*
G01X-644259D01*
G03X-656748Y1117836I0J-61214D01*
G03X-669238Y1119123I-12490J-59926D01*
G01X-774239D01*
G03X-835453Y1057909I0J-61214D01*
G01Y1027767D01*
G03X-846246Y1018703I46634J-66491D01*
G01X-932660Y932290D01*
G01X-1349999D01*
G03X-1407426Y908503I0J-81214D01*
G01X-1473040Y842890D01*
G01X-1582999D01*
G03X-1644213Y781676I0J-61214D01*
G01Y574676D01*
G37*
G36*
G01X-445683Y1420574D02*
G03X-363470Y1338361I82213J0D01*
G03X-323477Y1348743I0J82213D01*
G03X-283485Y1338361I39992J71831D01*
G03X-243480Y1348750I0J82213D01*
G03X-203475Y1338361I40005J71824D01*
G03X-163483Y1348743I0J82213D01*
G03X-123490Y1338361I39992J71831D01*
G03X-41277Y1420574I0J82213D01*
G01Y1482075D01*
G03X-122479Y1564282I-82213J0D01*
G03X-124673Y1577987I-80996J-5942D01*
G01Y1624277D01*
G03X-185887Y1685491I-61214J0D01*
G01X-225758D01*
G03X-223025Y1703576I-58481J18085D01*
G01Y1838577D01*
G03X-284239Y1899791I-61214J0D01*
G01X-425240D01*
G03X-486454Y1838577I0J-61214D01*
G01Y1739370D01*
G03X-489425Y1717605I78243J-21765D01*
G01Y1669809D01*
G03X-509725Y1624277I40914J-45532D01*
G01Y1537876D01*
G03X-448511Y1476662I61214J0D01*
G01X-445683D01*
G01Y1420574D01*
G37*
G36*
G01X890145Y1338849D02*
G03X930137Y1349232I0J82213D01*
G03X970130Y1338849I39992J71831D01*
G03X1052343Y1421063I0J82213D01*
G01Y1482564D01*
G03X971104Y1564772I-82213J0D01*
G03X968947Y1577987I-80959J-6431D01*
G01Y1624277D01*
G03X907733Y1685491I-61214J0D01*
G01X867862D01*
G03X870595Y1703576I-58481J18085D01*
G01Y1838577D01*
G03X809381Y1899791I-61214J0D01*
G01X668380D01*
G03X607166Y1838577I0J-61214D01*
G01Y1739370D01*
G03X604195Y1717605I78243J-21765D01*
G01Y1669809D01*
G03X583895Y1624277I40914J-45532D01*
G01Y1537876D01*
G03X645109Y1476662I61214J0D01*
G01X647937D01*
G01Y1421063D01*
G03X730150Y1338849I82213J0D01*
G03X770143Y1349232I0J82213D01*
G03X810135Y1338849I39992J71831D01*
G03X850140Y1349239I0J82213D01*
G03X890145Y1338849I40005J71824D01*
G37*
G36*
G01X-1270001Y-933715D02*
G03X-1186398Y-854321I0J83714D01*
G03X-1168287Y-804999I-58103J49321D01*
G01Y-675000D01*
G03X-1244501Y-598786I-76214J0D01*
G01X-1274501D01*
G03X-1323001Y-616209I0J-76214D01*
G03X-1371501Y-598786I-48500J-58791D01*
G01X-1372324D01*
G03X-1450001Y-546286I-77677J-31215D01*
G03X-1527678Y-598786I0J-83714D01*
G01X-1528501D01*
G03X-1577001Y-616209I0J-76214D01*
G03X-1625501Y-598786I-48500J-58791D01*
G01X-1655500D01*
G03X-1731714Y-675000I0J-76214D01*
G01Y-746812D01*
G03X-1743715Y-790000I71714J-43188D01*
G03X-1713656Y-854259I83714J0D01*
G03X-1655500Y-881213I58155J49260D01*
G01X-1625501D01*
G03X-1577001Y-863790I0J76214D01*
G03X-1528501Y-881213I48500J58791D01*
G01X-1498501D01*
G03X-1450001Y-863790I0J76214D01*
G03X-1401501Y-881213I48500J58791D01*
G01X-1371501D01*
G03X-1348963Y-877804I0J76214D01*
G03X-1270001Y-933715I78962J27804D01*
G37*
G36*
G01X1563202Y830539D02*
G03X1624416Y891753I0J61214D01*
G01Y939314D01*
G01X1697664Y1012562D01*
G01X1733203D01*
G03X1794417Y1073776I0J61214D01*
G01Y1154376D01*
G03X1733203Y1215590I-61214J0D01*
G01X1646802D01*
G03X1605002Y1199097I0J-61214D01*
G03X1563202Y1215590I-41800J-44721D01*
G01X1476802D01*
G03X1415588Y1154376I0J-61214D01*
G01Y1073776D01*
G03X1442481Y1023088I61214J0D01*
G03X1415588Y972400I34320J-50688D01*
G01Y891753D01*
G03X1476802Y830539I61214J0D01*
G01X1563202D01*
G37*
G36*
G01X-853713Y1831077D02*
G03X-769999Y1747363I83714J0D01*
G03X-720793Y1763351I0J83714D01*
G03X-675998Y1750358I44795J70721D01*
G03X-592284Y1834072I0J83714D01*
G03X-675998Y1917786I-83714J0D01*
G03X-725204Y1901798I0J-83714D01*
G03X-769999Y1914791I-44795J-70721D01*
G03X-853713Y1831077I0J-83714D01*
G37*
G36*
G01X-999999Y1849863D02*
G03X-898785Y1951077I0J101214D01*
G03X-999999Y2052291I-101214J0D01*
G03X-1101213Y1951077I0J-101214D01*
G03X-999999Y1849863I101214J0D01*
G37*
G36*
G01X1690002Y-578240D02*
G03X1784316Y-483926I0J94314D01*
G03X1690002Y-389612I-94314J0D01*
G03X1595688Y-483926I0J-94314D01*
G03X1690002Y-578240I94314J0D01*
G37*
G36*
G01X1016288Y1811077D02*
G03X1110002Y1717363I93714J0D01*
G03X1203716Y1811077I0J93714D01*
G03X1110002Y1904791I-93714J0D01*
G03X1016288Y1811077I0J-93714D01*
G37*
G36*
G01X40001Y1707363D02*
G03X133716Y1801077I0J93714D01*
G03X40001Y1894791I-93714J0D01*
G03X-53713Y1801077I0J-93714D01*
G03X40001Y1707363I93714J0D01*
G37*
G36*
G01X-1611213Y1331076D02*
G03X-1519999Y1239862I91214J0D01*
G03X-1428786Y1331076I0J91214D01*
G03X-1519999Y1422290I-91214J0D01*
G03X-1611213Y1331076I0J-91214D01*
G37*
G36*
G01X-1761739Y-1417639D02*
G03X-1673025Y-1328925I0J88714D01*
G03X-1761739Y-1240211I-88714J0D01*
G03X-1850453Y-1328925I0J-88714D01*
G03X-1761739Y-1417639I88714J0D01*
G37*
G36*
G01X-667998Y1518358D02*
G03X-584284Y1602072I0J83714D01*
G03X-667998Y1685787I-83714J0D01*
G03X-751712Y1602072I0J-83714D01*
G03X-667998Y1518358I83714J0D01*
G37*
G36*
G01X286287Y1761076D02*
G03X370002Y1677362I83714J0D01*
G03X453716Y1761076I0J83714D01*
G03X370002Y1844791I-83714J0D01*
G03X286287Y1761076I0J-83714D01*
G37*
G36*
G01X349335Y214105D02*
G03X433049Y297820I0J83714D01*
G03X349335Y381534I-83714J0D01*
G03X265621Y297820I0J-83714D01*
G03X349335Y214105I83714J0D01*
G37*
G36*
G01X1650002Y677362D02*
G03X1733716Y761076I0J83714D01*
G03X1650002Y844790I-83714J0D01*
G03X1566288Y761076I0J-83714D01*
G03X1650002Y677362I83714J0D01*
G37*
G36*
G01X1690002Y-1299738D02*
G03X1755816Y-1233924I0J65814D01*
G03X1690002Y-1168110I-65814J0D01*
G03X1624188Y-1233924I0J-65814D01*
G03X1690002Y-1299738I65814J0D01*
G37*
%LPD*%
G36*
G01X-708463Y31286D02*
G01X-605871Y-71306D01*
G03X-610594Y-71143I-4723J-68551D01*
G01X-1260468D01*
G01X-1295287Y-36324D01*
G01Y31286D01*
G01X-708463D01*
G37*
G36*
G01X-363042Y-77073D02*
G01X-535385Y95270D01*
G03X-521448Y93893I13937J69837D01*
G01X-348703D01*
G03X-314174Y46154I60743J7578D01*
G01Y-14791D01*
G03X-315093Y-25787I65295J-10996D01*
G01Y-64537D01*
G01Y-77073D01*
G01X-363042D01*
G37*
G36*
G01X-143880Y38705D02*
G03X-158880Y40427I-15000J-64493D01*
G01X-168880D01*
G03X-171746Y40365I0J-66214D01*
G01Y46154D01*
G03X-136746Y101471I-26214J55317D01*
G01Y103799D01*
G01X-60564Y179981D01*
G01X-31991D01*
G01X8966Y139024D01*
G01Y98931D01*
G03X43966Y43614I61214J0D01*
G01Y40366D01*
G03X41120Y40427I-2846J-66153D01*
G01X31120D01*
G03X16120Y38705I0J-66214D01*
G03X1120Y40427I-15000J-64493D01*
G01X-8880D01*
G03X-23880Y38705I0J-66214D01*
G03X-38880Y40427I-15000J-64493D01*
G01X-48880D01*
G03X-63880Y38705I0J-66214D01*
G03X-78880Y40427I-15000J-64493D01*
G01X-88880D01*
G03X-103880Y38705I0J-66214D01*
G03X-118880Y40427I-15000J-64493D01*
G01X-128880D01*
G03X-143880Y38705I0J-66214D01*
G37*
G36*
G01X231120Y-647072D02*
G03X216120Y-648793I0J-66214D01*
G03X201120Y-647072I-15000J-64493D01*
G01X191120D01*
G03X176120Y-648793I0J-66214D01*
G03X161120Y-647072I-15000J-64493D01*
G01X151120D01*
G03X136120Y-648793I0J-66214D01*
G03X121120Y-647072I-15000J-64493D01*
G01X111120D01*
G03X103998Y-647456I0J-66214D01*
G03X22360Y-582272I-81637J-18530D01*
G03X2724Y-584608I0J-83714D01*
G03X-60982Y-535056I-76884J-33119D01*
G03X-100900Y-522272I-39918J-55930D01*
G01X-112126D01*
G01Y-224026D01*
G03X-132252Y-175438I-68714J0D01*
G01X-138961Y-168729D01*
G03X-128880Y-169501I10081J65442D01*
G01X-118880D01*
G03X-103880Y-167780I0J66214D01*
G03X-88880Y-169501I15000J64493D01*
G01X-78880D01*
G03X-63880Y-167780I0J66214D01*
G03X-48880Y-169501I15000J64493D01*
G01X-38880D01*
G03X-23880Y-167780I0J66214D01*
G03X-8880Y-169501I15000J64493D01*
G01X1120D01*
G03X16120Y-167780I0J66214D01*
G03X31120Y-169501I15000J64493D01*
G01X41120D01*
G03X56120Y-167780I0J66214D01*
G03X71120Y-169501I15000J64493D01*
G01X81120D01*
G03X96120Y-167780I0J66214D01*
G03X111120Y-169501I15000J64493D01*
G01X121120D01*
G03X136120Y-167780I0J66214D01*
G03X151120Y-169501I15000J64493D01*
G01X161120D01*
G03X176120Y-167780I0J66214D01*
G03X191120Y-169501I15000J64493D01*
G01X201120D01*
G03X216120Y-167780I0J66214D01*
G03X231120Y-169501I15000J64493D01*
G01X241120D01*
G03X256120Y-167780I0J66214D01*
G01X256532Y-167874D01*
G01X256627Y-168287D01*
G03X254906Y-183287I64493J-15000D01*
G01Y-193287D01*
G03X256627Y-208287I66214J0D01*
G03X254906Y-223287I64493J-15000D01*
G01Y-233287D01*
G03X256627Y-248287I66214J0D01*
G03X254906Y-263287I64493J-15000D01*
G01Y-273287D01*
G03X264912Y-308287I66214J0D01*
G03X254906Y-343287I56208J-35000D01*
G01Y-353287D01*
G03X256627Y-368287I66214J0D01*
G03X254906Y-383287I64493J-15000D01*
G01Y-386824D01*
G03X200266Y-465326I29075J-78503D01*
G03X254906Y-543829I83714J0D01*
G01Y-553286D01*
G03X256627Y-568286I66214J0D01*
G03X254906Y-583286I64493J-15000D01*
G01Y-593286D01*
G03X256627Y-608286I66214J0D01*
G03X254906Y-623286I64493J-15000D01*
G01Y-633286D01*
G03X256627Y-648286I66214J0D01*
G01X256532Y-648699D01*
G01X256120Y-648793D01*
G03X241120Y-647072I-15000J-64493D01*
G01X231120D01*
G37*
G36*
G01X286386Y-999926D02*
G03X301886Y-966329I-66385J51001D01*
G03X352638Y-902315I-31885J77404D01*
G03X360002Y-902639I7364J83390D01*
G03X440478Y-841981I0J83714D01*
G03X498785Y-806641I-10476J83056D01*
G01Y-832703D01*
G03X559999Y-893917I61214J0D01*
G01X638790D01*
G01Y-965167D01*
G03X649616Y-999926I61214J0D01*
G01X286386D01*
G37*
G36*
G01X1215861Y-1142354D02*
G01X1178289Y-1179927D01*
G01X330638D01*
G01X293066Y-1142354D01*
G01X1215861D01*
G37*
G36*
G01X931414Y-700337D02*
G01X809964Y-821786D01*
G03X780004Y-813954I-29960J-53381D01*
G01X701213D01*
G01Y-742703D01*
G03X693358Y-712703I-61214J0D01*
G03X701213Y-682703I-53359J30000D01*
G01Y-592703D01*
G03X693358Y-562703I-61214J0D01*
G03X701213Y-532703I-53359J30000D01*
G01Y-442703D01*
G03X693358Y-412703I-61214J0D01*
G03X701213Y-382703I-53359J30000D01*
G01Y-338717D01*
G01X1119797D01*
G01X1225525Y-444445D01*
G03X1223788Y-458925I59477J-14480D01*
G01Y-598925D01*
G03X1226742Y-617711I61214J0D01*
G01X1143912D01*
G03X1144774Y-605026I-92852J12684D01*
G03X1051060Y-511312I-93714J0D01*
G03X957346Y-605026I0J-93714D01*
G03X995117Y-680211I93714J0D01*
G01X980002D01*
G03X931414Y-700337I0J-68714D01*
G37*
G54D8191*
G01X-1840340Y-2119772D02*
G02X-2104526Y-1855587I0J264186D01*
G01Y1844414D01*
G02X-1840340Y2108600I264186J0D01*
G01X1859660D01*
G02X2123846Y1844414I0J-264186D01*
G01Y-1855587D01*
G02X1859660Y-2119772I-264186J0D01*
G01X-1840340D01*
G01X-1067348Y-1989281D02*
G03X-1016992Y-2010139I50356J50356D01*
G01X-920679D01*
G03X-870323Y-1989281I0J71214D01*
G01X-811142Y-1930101D01*
G01X-775010D01*
G03X-768587Y-1937513I55011J41175D01*
G01X-718587Y-1987513D01*
G01Y-1987514D01*
G03X-669999Y-2007639I48588J48588D01*
G01X-109999D01*
G03X-61411Y-1987514I0J68714D01*
G01X254778Y-1671325D01*
G03X323716Y-1588925I-14777J82400D01*
G03X240002Y-1505211I-83714J0D01*
G03X157602Y-1574149I0J-83714D01*
G01X-138461Y-1870212D01*
G01X-365814D01*
G03X-365584Y-1864910I-60984J5301D01*
G01Y-1784263D01*
G03X-366264Y-1775170I-61214J0D01*
G01X28589Y-1380317D01*
G03X48715Y-1331729I-48588J48588D01*
G01Y-1140137D01*
G01X81898D01*
G03X140762Y-1191474I78102J30136D01*
G01X235861Y-1286573D01*
G03X180001Y-1265211I-55860J-62352D01*
G03X96287Y-1348925I0J-83714D01*
G03X180001Y-1432639I83714J0D01*
G03X263716Y-1348925I0J83714D01*
G03X242353Y-1293065I-83714J0D01*
G01X250784Y-1301496D01*
G03X301140Y-1322354I50356J50356D01*
G01X1060617D01*
G03X1056288Y-1348925I79385J-26571D01*
G03X1056365Y-1352513I83714J0D01*
G01X790044D01*
G03X740691Y-1327513I-49353J-36214D01*
G01X635690D01*
G03X623200Y-1328801I0J-61214D01*
G03X610710Y-1327513I-12490J-59926D01*
G01X558712D01*
G03X508870Y-1353188I0J-61214D01*
G03X448788Y-1438925I31131J-85737D01*
G03X540002Y-1530139I91214J0D01*
G03X581912Y-1519941I0J91214D01*
G01X610710D01*
G03X623200Y-1518653I0J61214D01*
G03X635690Y-1519941I12490J59926D01*
G01X740691D01*
G03X790044Y-1494941I0J61214D01*
G01X1305200D01*
G03X1355556Y-1474083I0J71214D01*
G01X1690056Y-1139583D01*
G03X1771216Y-1048925I-10054J90658D01*
G03X1680002Y-957711I-91214J0D01*
G03X1589344Y-1038871I0J-91214D01*
G01X1275703Y-1352513D01*
G01X1223639D01*
G03X1223716Y-1348925I-83637J3588D01*
G03X1219080Y-1321453I-83714J0D01*
G03X1258143Y-1301496I-11293J70313D01*
G01X1527320Y-1032319D01*
G03X1603396Y-956243I-7318J83394D01*
G01X1609500Y-950139D01*
G01X1795995D01*
G03X1840002Y-962639I44007J71214D01*
G03X1922865Y-890833I0J83714D01*
G03X1963716Y-818925I-42863J71908D01*
G03X1880002Y-735211I-83714J0D01*
G03X1835995Y-747711I0J-83714D01*
G01X1779906D01*
G03X1811216Y-678925I-59904J68786D01*
G03X1720002Y-587711I-91214J0D01*
G03X1628788Y-678925I0J-91214D01*
G03X1654976Y-742891I91214J0D01*
G03X1645995Y-747711I35026J-76034D01*
G01X1580002D01*
G03X1529646Y-768569I0J-71214D01*
G01X1298289Y-999926D01*
G01X830392D01*
G03X836052Y-989780I-50388J34759D01*
G03X839812Y-986291I-44828J52077D01*
G01X1008464Y-817639D01*
G01X1053788D01*
G01Y-818924D01*
G03X1115002Y-880138I61214J0D01*
G01X1235002D01*
G03X1296216Y-818924I0J61214D01*
G01Y-678925D01*
G03X1293262Y-660139I-61214J0D01*
G01X1405002D01*
G03X1466216Y-598925I0J61214D01*
G01Y-458925D01*
G03X1405002Y-397711I-61214J0D01*
G01X1373144D01*
G01X1196847Y-221415D01*
G03X1148259Y-201289I-48588J-48588D01*
G01X518923D01*
G03X470335Y-221415I0J-68714D01*
G01X464833Y-226916D01*
G01Y-223287D01*
G03X463112Y-208287I-66214J0D01*
G03X464833Y-193287I-64493J15000D01*
G01Y-183287D01*
G03X463112Y-168287I-66214J0D01*
G03X464833Y-153287I-64493J15000D01*
G01Y-143287D01*
G03X398619Y-77073I-66214J0D01*
G01X347334D01*
G01Y-25787D01*
G03X281120Y40427I-66214J0D01*
G01X271120D01*
G03X256120Y38705I0J-66214D01*
G03X241120Y40427I-15000J-64493D01*
G01X231120D01*
G03X216120Y38705I0J-66214D01*
G03X201120Y40427I-15000J-64493D01*
G01X191120D01*
G03X186394Y40258I0J-66214D01*
G01Y43614D01*
G03X221394Y98931I-26214J55317D01*
G01Y178931D01*
G03X160180Y240145I-61214J0D01*
G01X109269D01*
G01X47863Y301551D01*
G03X-2493Y322409I-50356J-50356D01*
G01X-90062D01*
G03X-140418Y301551I0J-71214D01*
G01X-199284Y242685D01*
G01X-287960D01*
G03X-315138Y236321I0J-61214D01*
G01X-491950D01*
G01X-511253Y255623D01*
G03X-592361Y318615I-81109J-20723D01*
G03X-676075Y234900I0J-83714D01*
G03X-667946Y198914I83714J0D01*
G01X-1496616D01*
G03X-1545204Y178788I0J-68714D01*
G01X-1605461Y118531D01*
G03X-1625501Y121213I-20040J-73532D01*
G01X-1655500D01*
G03X-1731714Y44999I0J-76214D01*
G01Y-85001D01*
G03X-1655500Y-161215I76214J0D01*
G01X-1625501D01*
G03X-1577001Y-143791I0J76214D01*
G03X-1528501Y-161215I48500J58791D01*
G01X-1498501D01*
G03X-1450001Y-143791I0J76214D01*
G03X-1401501Y-161215I48500J58791D01*
G01X-1371501D01*
G03X-1365025Y-160939I0J76214D01*
G01X-1337519Y-188445D01*
G03X-1288930Y-208571I48588J48588D01*
G01X-1155474D01*
G03X-1188253Y-275007I50935J-66435D01*
G03X-1104539Y-358721I83714J0D01*
G03X-1020824Y-275007I0J83714D01*
G03X-1053603Y-208571I-83714J0D01*
G01X-761211D01*
G01Y-252557D01*
G03X-753355Y-282557I61214J0D01*
G03X-761211Y-312557I53359J-30000D01*
G01Y-402557D01*
G03X-753355Y-432557I61214J0D01*
G03X-761211Y-462557I53359J-30000D01*
G01Y-548131D01*
G03X-778676Y-545586I-17466J-58669D01*
G01X-859324D01*
G03X-920538Y-606800I0J-61214D01*
G01Y-693201D01*
G03X-914360Y-720000I61214J0D01*
G03X-920538Y-746800I55036J-26800D01*
G01Y-833201D01*
G03X-859324Y-894415I61214J0D01*
G01X-778676D01*
G03X-761207Y-891869I0J61214D01*
G01X-761211Y-892557D01*
G01Y-982557D01*
G03X-753733Y-1011875I61214J0D01*
G03X-761208Y-1041190I53739J-29314D01*
G01Y-1131190D01*
G03X-699994Y-1192404I61214J0D01*
G01X-619994D01*
G03X-561738Y-1149986I0J61214D01*
G03X-538676Y-1134778I-25526J63797D01*
G01X-499028Y-1095130D01*
G03X-439999Y-1140137I59029J16208D01*
G01X-349999D01*
G03X-319999Y-1132281I0J61214D01*
G03X-289999Y-1140137I30000J53359D01*
G01X-247677D01*
G03X-169999Y-1192639I77678J31212D01*
G03X-92321Y-1140137I0J83714D01*
G01X-88713D01*
G01Y-1303267D01*
G01X-308428Y-1522982D01*
G03X-359999Y-1505211I-51571J-65943D01*
G03X-390262Y-1510873I0J-83714D01*
G01X-474770D01*
G01X-441537Y-1477639D01*
G01X-407815D01*
G03X-359999Y-1492639I47817J68714D01*
G03X-276285Y-1408925I0J83714D01*
G03X-359999Y-1325211I-83714J0D01*
G03X-407815Y-1340211I0J-83714D01*
G01X-469999D01*
G03X-518587Y-1360337I0J-68714D01*
G01X-640611Y-1482361D01*
G03X-719999Y-1425211I-79388J-26564D01*
G03X-767816Y-1440211I0J-83714D01*
G01X-999999D01*
G03X-1048587Y-1460337I0J-68714D01*
G01X-1133299Y-1545049D01*
G01X-1171285D01*
G01Y-1374709D01*
G01X-1144168Y-1347592D01*
G03X-1059126Y-1256587I-6171J91005D01*
G03X-1150340Y-1165373I-91214J0D01*
G03X-1241345Y-1250415I0J-91214D01*
G01X-1288587Y-1297658D01*
G03X-1308713Y-1346246I48588J-48588D01*
G01Y-1545049D01*
G01X-1353200D01*
G03X-1414414Y-1606263I0J-61214D01*
G01Y-1686911D01*
G03X-1387520Y-1737599I61214J0D01*
G03X-1414414Y-1788287I34320J-50688D01*
G01Y-1868887D01*
G03X-1353200Y-1930101I61214J0D01*
G01X-1266799D01*
G03X-1230170Y-1917932I0J61214D01*
G03X-1193540Y-1930101I36629J49045D01*
G01X-1139439D01*
G03X-1085236Y-1971394I73441J40180D01*
G01X-1067348Y-1989281D01*
G01X-1644213Y574676D02*
G03X-1582999Y513462I61214J0D01*
G01X-1377000D01*
G03X-1315786Y574676I0J61214D01*
G01Y769862D01*
G01X-1102959D01*
G03X-1019999Y697362I82960J11214D01*
G03X-999693Y699862I0J83714D01*
G01X-831739D01*
G03X-774312Y723649I0J81214D01*
G01X-703099Y794862D01*
G01X-669238D01*
G03X-656748Y796150I0J61214D01*
G03X-644259Y794862I12490J59926D01*
G01X-592260D01*
G03X-552117Y809862I0J61214D01*
G01X-489450D01*
G03X-489179Y804786I61210J713D01*
G01X-489999Y804790D01*
G03X-573713Y721076I0J-83714D01*
G03X-489999Y637362I83714J0D01*
G03X-406285Y721076I0J83714D01*
G03X-411208Y749361I-83714J0D01*
G01X-332889D01*
G03X-249999Y677362I82890J11714D01*
G03X-166285Y761076I0J83714D01*
G03X-232025Y842838I-83714J0D01*
G01Y951576D01*
G03X-232121Y955010I-61214J0D01*
G03X-203475Y949858I28646J77061D01*
G03X-196409Y950162I0J82213D01*
G01Y871557D01*
G03X-135195Y810343I61214J0D01*
G01X-48794D01*
G03X12332Y868275I0J61214D01*
G03X47818Y882362I-12331J82801D01*
G01X127002D01*
G03X155587Y888590I0J68714D01*
G01Y861753D01*
G03X216801Y800539I61214J0D01*
G01X303202D01*
G03X364416Y861753I0J61214D01*
G01Y909314D01*
G01X437663Y982562D01*
G01X473202D01*
G03X513230Y997463I0J61214D01*
G03X532575Y966528I76772J26492D01*
G01X604166Y894936D01*
G01Y810575D01*
G03X665380Y749361I61214J0D01*
G01X800381D01*
G03X861595Y810575I0J61214D01*
G01Y951576D01*
G03X861469Y955510I-61214J0D01*
G03X887285Y950396I28676J77050D01*
G01Y873940D01*
G03X948499Y812726I61214J0D01*
G01X1034900D01*
G03X1056522Y816671I0J61214D01*
G03X1110002Y797362I53480J64404D01*
G03X1193716Y881076I0J83714D01*
G03X1110002Y964790I-83714J0D01*
G03X1095459Y963517I0J-83714D01*
G03X1050188Y1013861I-60559J-8930D01*
G03X1052343Y1032560I-80059J18699D01*
G01Y1094061D01*
G03X970130Y1176274I-82213J0D01*
G03X930137Y1165892I0J-82213D01*
G03X890145Y1176274I-39992J-71831D01*
G03X810148Y1113021I0J-82213D01*
G03X730150Y1176274I-79997J-18960D01*
G03X647937Y1094061I0J-82213D01*
G01Y1091504D01*
G03X590002Y1114790I-57935J-60428D01*
G03X534416Y1093672I0J-83714D01*
G01Y1124376D01*
G03X473202Y1185590I-61214J0D01*
G01X386801D01*
G03X345002Y1169097I0J-61214D01*
G03X303202Y1185590I-41800J-44721D01*
G01X216801D01*
G03X155587Y1124376I0J-61214D01*
G01Y1076838D01*
G01X98539Y1019790D01*
G01X47818D01*
G03X1Y1034790I-47817J-68714D01*
G03X-41708Y1023659I0J-83714D01*
G03X-41277Y1032071I-81782J8412D01*
G01Y1093572D01*
G03X-123490Y1175786I-82213J0D01*
G03X-163483Y1165403I0J-82213D01*
G03X-203475Y1175786I-39992J-71831D01*
G03X-283472Y1112532I0J-82213D01*
G03X-363470Y1175786I-79997J-18960D01*
G03X-445683Y1093572I0J-82213D01*
G01Y1032071D01*
G03X-442937Y1010999I82213J0D01*
G03X-485843Y972290I14697J-59423D01*
G01X-533072D01*
G03X-531046Y987909I-59188J15619D01*
G01Y1057909D01*
G03X-592260Y1119123I-61214J0D01*
G01X-644259D01*
G03X-656748Y1117836I0J-61214D01*
G03X-669238Y1119123I-12490J-59926D01*
G01X-774239D01*
G03X-835453Y1057909I0J-61214D01*
G01Y1027767D01*
G03X-846246Y1018703I46634J-66491D01*
G01X-932660Y932290D01*
G01X-1349999D01*
G03X-1407426Y908503I0J-81214D01*
G01X-1473040Y842890D01*
G01X-1582999D01*
G03X-1644213Y781676I0J-61214D01*
G01Y574676D01*
G01X-445683Y1420574D02*
G03X-363470Y1338361I82213J0D01*
G03X-323477Y1348743I0J82213D01*
G03X-283485Y1338361I39992J71831D01*
G03X-243480Y1348750I0J82213D01*
G03X-203475Y1338361I40005J71824D01*
G03X-163483Y1348743I0J82213D01*
G03X-123490Y1338361I39992J71831D01*
G03X-41277Y1420574I0J82213D01*
G01Y1482075D01*
G03X-122479Y1564282I-82213J0D01*
G03X-124673Y1577987I-80996J-5942D01*
G01Y1624277D01*
G03X-185887Y1685491I-61214J0D01*
G01X-225758D01*
G03X-223025Y1703576I-58481J18085D01*
G01Y1838577D01*
G03X-284239Y1899791I-61214J0D01*
G01X-425240D01*
G03X-486454Y1838577I0J-61214D01*
G01Y1739370D01*
G03X-489425Y1717605I78243J-21765D01*
G01Y1669809D01*
G03X-509725Y1624277I40914J-45532D01*
G01Y1537876D01*
G03X-448511Y1476662I61214J0D01*
G01X-445683D01*
G01Y1420574D01*
G01X890145Y1338849D02*
G03X930137Y1349232I0J82213D01*
G03X970130Y1338849I39992J71831D01*
G03X1052343Y1421063I0J82213D01*
G01Y1482564D01*
G03X971104Y1564772I-82213J0D01*
G03X968947Y1577987I-80959J-6431D01*
G01Y1624277D01*
G03X907733Y1685491I-61214J0D01*
G01X867862D01*
G03X870595Y1703576I-58481J18085D01*
G01Y1838577D01*
G03X809381Y1899791I-61214J0D01*
G01X668380D01*
G03X607166Y1838577I0J-61214D01*
G01Y1739370D01*
G03X604195Y1717605I78243J-21765D01*
G01Y1669809D01*
G03X583895Y1624277I40914J-45532D01*
G01Y1537876D01*
G03X645109Y1476662I61214J0D01*
G01X647937D01*
G01Y1421063D01*
G03X730150Y1338849I82213J0D01*
G03X770143Y1349232I0J82213D01*
G03X810135Y1338849I39992J71831D01*
G03X850140Y1349239I0J82213D01*
G03X890145Y1338849I40005J71824D01*
G01X-1270001Y-933715D02*
G03X-1186398Y-854321I0J83714D01*
G03X-1168287Y-804999I-58103J49321D01*
G01Y-675000D01*
G03X-1244501Y-598786I-76214J0D01*
G01X-1274501D01*
G03X-1323001Y-616209I0J-76214D01*
G03X-1371501Y-598786I-48500J-58791D01*
G01X-1372324D01*
G03X-1450001Y-546286I-77677J-31215D01*
G03X-1527678Y-598786I0J-83714D01*
G01X-1528501D01*
G03X-1577001Y-616209I0J-76214D01*
G03X-1625501Y-598786I-48500J-58791D01*
G01X-1655500D01*
G03X-1731714Y-675000I0J-76214D01*
G01Y-746812D01*
G03X-1743715Y-790000I71714J-43188D01*
G03X-1713656Y-854259I83714J0D01*
G03X-1655500Y-881213I58155J49260D01*
G01X-1625501D01*
G03X-1577001Y-863790I0J76214D01*
G03X-1528501Y-881213I48500J58791D01*
G01X-1498501D01*
G03X-1450001Y-863790I0J76214D01*
G03X-1401501Y-881213I48500J58791D01*
G01X-1371501D01*
G03X-1348963Y-877804I0J76214D01*
G03X-1270001Y-933715I78962J27804D01*
G01X1563202Y830539D02*
G03X1624416Y891753I0J61214D01*
G01Y939314D01*
G01X1697664Y1012562D01*
G01X1733203D01*
G03X1794417Y1073776I0J61214D01*
G01Y1154376D01*
G03X1733203Y1215590I-61214J0D01*
G01X1646802D01*
G03X1605002Y1199097I0J-61214D01*
G03X1563202Y1215590I-41800J-44721D01*
G01X1476802D01*
G03X1415588Y1154376I0J-61214D01*
G01Y1073776D01*
G03X1442481Y1023088I61214J0D01*
G03X1415588Y972400I34320J-50688D01*
G01Y891753D01*
G03X1476802Y830539I61214J0D01*
G01X1563202D01*
G01X-853713Y1831077D02*
G03X-769999Y1747363I83714J0D01*
G03X-720793Y1763351I0J83714D01*
G03X-675998Y1750358I44795J70721D01*
G03X-592284Y1834072I0J83714D01*
G03X-675998Y1917786I-83714J0D01*
G03X-725204Y1901798I0J-83714D01*
G03X-769999Y1914791I-44795J-70721D01*
G03X-853713Y1831077I0J-83714D01*
G01X-999999Y1849863D02*
G03X-898785Y1951077I0J101214D01*
G03X-999999Y2052291I-101214J0D01*
G03X-1101213Y1951077I0J-101214D01*
G03X-999999Y1849863I101214J0D01*
G01X1690002Y-578240D02*
G03X1784316Y-483926I0J94314D01*
G03X1690002Y-389612I-94314J0D01*
G03X1595688Y-483926I0J-94314D01*
G03X1690002Y-578240I94314J0D01*
G01X1016288Y1811077D02*
G03X1110002Y1717363I93714J0D01*
G03X1203716Y1811077I0J93714D01*
G03X1110002Y1904791I-93714J0D01*
G03X1016288Y1811077I0J-93714D01*
G01X40001Y1707363D02*
G03X133716Y1801077I0J93714D01*
G03X40001Y1894791I-93714J0D01*
G03X-53713Y1801077I0J-93714D01*
G03X40001Y1707363I93714J0D01*
G01X-1611213Y1331076D02*
G03X-1519999Y1239862I91214J0D01*
G03X-1428786Y1331076I0J91214D01*
G03X-1519999Y1422290I-91214J0D01*
G03X-1611213Y1331076I0J-91214D01*
G01X-1761739Y-1417639D02*
G03X-1673025Y-1328925I0J88714D01*
G03X-1761739Y-1240211I-88714J0D01*
G03X-1850453Y-1328925I0J-88714D01*
G03X-1761739Y-1417639I88714J0D01*
G01X-667998Y1518358D02*
G03X-584284Y1602072I0J83714D01*
G03X-667998Y1685787I-83714J0D01*
G03X-751712Y1602072I0J-83714D01*
G03X-667998Y1518358I83714J0D01*
G01X286287Y1761076D02*
G03X370002Y1677362I83714J0D01*
G03X453716Y1761076I0J83714D01*
G03X370002Y1844791I-83714J0D01*
G03X286287Y1761076I0J-83714D01*
G01X349335Y214105D02*
G03X433049Y297820I0J83714D01*
G03X349335Y381534I-83714J0D01*
G03X265621Y297820I0J-83714D01*
G03X349335Y214105I83714J0D01*
G01X1650002Y677362D02*
G03X1733716Y761076I0J83714D01*
G03X1650002Y844790I-83714J0D01*
G03X1566288Y761076I0J-83714D01*
G03X1650002Y677362I83714J0D01*
G01X1690002Y-1299738D02*
G03X1755816Y-1233924I0J65814D01*
G03X1690002Y-1168110I-65814J0D01*
G03X1624188Y-1233924I0J-65814D01*
G03X1690002Y-1299738I65814J0D01*
G01X-708463Y31286D02*
G01X-605871Y-71306D01*
G03X-610594Y-71143I-4723J-68551D01*
G01X-1260468D01*
G01X-1295287Y-36324D01*
G01Y31286D01*
G01X-708463D01*
G01X-363042Y-77073D02*
G01X-535385Y95270D01*
G03X-521448Y93893I13937J69837D01*
G01X-348703D01*
G03X-314174Y46154I60743J7578D01*
G01Y-14791D01*
G03X-315093Y-25787I65295J-10996D01*
G01Y-64537D01*
G01Y-77073D01*
G01X-363042D01*
G01X-143880Y38705D02*
G03X-158880Y40427I-15000J-64493D01*
G01X-168880D01*
G03X-171746Y40365I0J-66214D01*
G01Y46154D01*
G03X-136746Y101471I-26214J55317D01*
G01Y103799D01*
G01X-60564Y179981D01*
G01X-31991D01*
G01X8966Y139024D01*
G01Y98931D01*
G03X43966Y43614I61214J0D01*
G01Y40366D01*
G03X41120Y40427I-2846J-66153D01*
G01X31120D01*
G03X16120Y38705I0J-66214D01*
G03X1120Y40427I-15000J-64493D01*
G01X-8880D01*
G03X-23880Y38705I0J-66214D01*
G03X-38880Y40427I-15000J-64493D01*
G01X-48880D01*
G03X-63880Y38705I0J-66214D01*
G03X-78880Y40427I-15000J-64493D01*
G01X-88880D01*
G03X-103880Y38705I0J-66214D01*
G03X-118880Y40427I-15000J-64493D01*
G01X-128880D01*
G03X-143880Y38705I0J-66214D01*
G01X231120Y-647072D02*
G03X216120Y-648793I0J-66214D01*
G03X201120Y-647072I-15000J-64493D01*
G01X191120D01*
G03X176120Y-648793I0J-66214D01*
G03X161120Y-647072I-15000J-64493D01*
G01X151120D01*
G03X136120Y-648793I0J-66214D01*
G03X121120Y-647072I-15000J-64493D01*
G01X111120D01*
G03X103998Y-647456I0J-66214D01*
G03X22360Y-582272I-81637J-18530D01*
G03X2724Y-584608I0J-83714D01*
G03X-60982Y-535056I-76884J-33119D01*
G03X-100900Y-522272I-39918J-55930D01*
G01X-112126D01*
G01Y-224026D01*
G03X-132252Y-175438I-68714J0D01*
G01X-138961Y-168729D01*
G03X-128880Y-169501I10081J65442D01*
G01X-118880D01*
G03X-103880Y-167780I0J66214D01*
G03X-88880Y-169501I15000J64493D01*
G01X-78880D01*
G03X-63880Y-167780I0J66214D01*
G03X-48880Y-169501I15000J64493D01*
G01X-38880D01*
G03X-23880Y-167780I0J66214D01*
G03X-8880Y-169501I15000J64493D01*
G01X1120D01*
G03X16120Y-167780I0J66214D01*
G03X31120Y-169501I15000J64493D01*
G01X41120D01*
G03X56120Y-167780I0J66214D01*
G03X71120Y-169501I15000J64493D01*
G01X81120D01*
G03X96120Y-167780I0J66214D01*
G03X111120Y-169501I15000J64493D01*
G01X121120D01*
G03X136120Y-167780I0J66214D01*
G03X151120Y-169501I15000J64493D01*
G01X161120D01*
G03X176120Y-167780I0J66214D01*
G03X191120Y-169501I15000J64493D01*
G01X201120D01*
G03X216120Y-167780I0J66214D01*
G03X231120Y-169501I15000J64493D01*
G01X241120D01*
G03X256120Y-167780I0J66214D01*
G01X256532Y-167874D01*
G01X256627Y-168287D01*
G03X254906Y-183287I64493J-15000D01*
G01Y-193287D01*
G03X256627Y-208287I66214J0D01*
G03X254906Y-223287I64493J-15000D01*
G01Y-233287D01*
G03X256627Y-248287I66214J0D01*
G03X254906Y-263287I64493J-15000D01*
G01Y-273287D01*
G03X264912Y-308287I66214J0D01*
G03X254906Y-343287I56208J-35000D01*
G01Y-353287D01*
G03X256627Y-368287I66214J0D01*
G03X254906Y-383287I64493J-15000D01*
G01Y-386824D01*
G03X200266Y-465326I29075J-78503D01*
G03X254906Y-543829I83714J0D01*
G01Y-553286D01*
G03X256627Y-568286I66214J0D01*
G03X254906Y-583286I64493J-15000D01*
G01Y-593286D01*
G03X256627Y-608286I66214J0D01*
G03X254906Y-623286I64493J-15000D01*
G01Y-633286D01*
G03X256627Y-648286I66214J0D01*
G01X256532Y-648699D01*
G01X256120Y-648793D01*
G03X241120Y-647072I-15000J-64493D01*
G01X231120D01*
G01X286386Y-999926D02*
G03X301886Y-966329I-66385J51001D01*
G03X352638Y-902315I-31885J77404D01*
G03X360002Y-902639I7364J83390D01*
G03X440478Y-841981I0J83714D01*
G03X498785Y-806641I-10476J83056D01*
G01Y-832703D01*
G03X559999Y-893917I61214J0D01*
G01X638790D01*
G01Y-965167D01*
G03X649616Y-999926I61214J0D01*
G01X286386D01*
G01X1215861Y-1142354D02*
G01X1178289Y-1179927D01*
G01X330638D01*
G01X293066Y-1142354D01*
G01X1215861D01*
G01X931414Y-700337D02*
G01X809964Y-821786D01*
G03X780004Y-813954I-29960J-53381D01*
G01X701213D01*
G01Y-742703D01*
G03X693358Y-712703I-61214J0D01*
G03X701213Y-682703I-53359J30000D01*
G01Y-592703D01*
G03X693358Y-562703I-61214J0D01*
G03X701213Y-532703I-53359J30000D01*
G01Y-442703D01*
G03X693358Y-412703I-61214J0D01*
G03X701213Y-382703I-53359J30000D01*
G01Y-338717D01*
G01X1119797D01*
G01X1225525Y-444445D01*
G03X1223788Y-458925I59477J-14480D01*
G01Y-598925D01*
G03X1226742Y-617711I61214J0D01*
G01X1143912D01*
G03X1144774Y-605026I-92852J12684D01*
G03X1051060Y-511312I-93714J0D01*
G03X957346Y-605026I0J-93714D01*
G03X995117Y-680211I93714J0D01*
G01X980002D01*
G03X931414Y-700337I0J-68714D01*
G04 Copper End*

G04 Pad Start*
G54D10*
G01X-354740Y1771076D03*
G01X-154740Y1771076D03*
G54D11*
G01X991699Y763591D03*
G01X991699Y914263D03*
G54D12*
G01X-360739Y881076D03*
G01X-360739Y681076D03*
G01X732881Y881076D03*
G01X732881Y681076D03*
G54D10*
G01X738880Y1771076D03*
G01X938880Y1771076D03*
G54D11*
G01X-91994Y761208D03*
G01X-91994Y911881D03*
G54D13*
G01X1749660Y-1745587D03*
G01X-1730340Y-1745587D03*
G01X1749660Y1734414D03*
G01X-1730340Y1734414D03*
G54D14*
G01X599999Y-787703D03*
G01X740004Y-787703D03*
G01X599999Y-337703D03*
G01X740004Y-337703D03*
G01X599999Y-487703D03*
G01X740004Y-487703D03*
G01X599999Y-637703D03*
G01X740004Y-637703D03*
G54D15*
G01X55001Y-1178928D03*
G01X55001Y-1038923D03*
G54D14*
G01X-800001Y-357557D03*
G01X-659997Y-357557D03*
G54D15*
G01X115180Y138931D03*
G01X115180Y278936D03*
G01X-242960Y141471D03*
G01X-242960Y281476D03*
G54D14*
G01X-800001Y-507557D03*
G01X-659997Y-507557D03*
G54D15*
G01X-244999Y-1178928D03*
G01X-244999Y-1038923D03*
G01X-94999Y-1178928D03*
G01X-94999Y-1038923D03*
G54D17*
G01X-226211Y1581076D03*
G54D18*
G01X-408211Y1581076D03*
G54D17*
G01X867409Y1581076D03*
G54D18*
G01X685409Y1581076D03*
G54D19*
G01X-819000Y-790000D03*
G54D20*
G01X-637001Y-790000D03*
G54D19*
G01X-819000Y-650000D03*
G54D20*
G01X-637001Y-650000D03*
G54D21*
G01X-469999Y-1824587D03*
G54D22*
G01X-469999Y-1642587D03*
G54D21*
G01X-639999Y-1824587D03*
G54D22*
G01X-639999Y-1642587D03*
G54D11*
G01X-1309999Y-1646587D03*
G54D23*
G01X-1309999Y-1828587D03*
G54D11*
G01X-1150340Y-1646587D03*
G54D23*
G01X-1150340Y-1828587D03*
G54D11*
G01X-980340Y-1646587D03*
G54D23*
G01X-980340Y-1828587D03*
G54D11*
G01X-810340Y-1646587D03*
G54D23*
G01X-810340Y-1828587D03*
G54D15*
G01X-394999Y-1178928D03*
G01X-394999Y-1038923D03*
G54D14*
G01X-799999Y-1086190D03*
G01X-659994Y-1086190D03*
G01X599999Y-920168D03*
G01X740004Y-920168D03*
G54D24*
G01X-243879Y-64537D03*
G01X-203879Y-64537D03*
G01X-163880Y-64537D03*
G01X-123880Y-64537D03*
G01X-83880Y-64537D03*
G01X-43880Y-64537D03*
G01X-3880Y-64537D03*
G01X36120Y-64537D03*
G01X76120Y-64537D03*
G01X116120Y-64537D03*
G01X156120Y-64537D03*
G01X196120Y-64537D03*
G01X236120Y-64537D03*
G01X276120Y-64537D03*
G54D25*
G01X359869Y-148287D03*
G01X359869Y-188287D03*
G01X359869Y-228287D03*
G01X359869Y-268287D03*
G01X359869Y-308287D03*
G01X359869Y-348287D03*
G01X359869Y-388286D03*
G01X359869Y-428286D03*
G01X359869Y-468286D03*
G01X359869Y-508286D03*
G01X359869Y-548286D03*
G01X359869Y-588286D03*
G01X359869Y-628286D03*
G01X359869Y-668286D03*
G54D24*
G01X276120Y-752036D03*
G01X236120Y-752036D03*
G01X196120Y-752036D03*
G01X156120Y-752036D03*
G01X116120Y-752036D03*
G01X76120Y-752036D03*
G01X36120Y-752036D03*
G01X-3880Y-752036D03*
G01X-43880Y-752036D03*
G01X-83880Y-752036D03*
G01X-123880Y-752036D03*
G01X-163880Y-752036D03*
G01X-203879Y-752036D03*
G01X-243879Y-752036D03*
G54D25*
G01X-327629Y-668286D03*
G01X-327629Y-628286D03*
G01X-327629Y-588286D03*
G01X-327629Y-548286D03*
G01X-327629Y-508286D03*
G01X-327629Y-468286D03*
G01X-327629Y-428286D03*
G01X-327629Y-388286D03*
G01X-327629Y-348287D03*
G01X-327629Y-308287D03*
G01X-327629Y-268287D03*
G01X-327629Y-228287D03*
G01X-327629Y-188287D03*
G01X-327629Y-148287D03*
G54D26*
G01X16120Y-408286D03*
G54D27*
G01X-1640501Y-20001D03*
G01X-1513501Y-20001D03*
G01X-1386501Y-20001D03*
G01X-1259501Y-20001D03*
G01X-1259501Y-739999D03*
G01X-1386501Y-739999D03*
G01X-1513501Y-739999D03*
G01X-1640501Y-739999D03*
G54D28*
G01X1345002Y-528925D03*
G01X1345002Y-748925D03*
G01X1175002Y-748925D03*
G01X1175002Y-528925D03*
G54D29*
G01X-618259Y891076D03*
G54D30*
G01X-721739Y891076D03*
G54D29*
G01X-618259Y1022909D03*
G54D30*
G01X-721739Y1022909D03*
G54D31*
G01X1475003Y-1098924D03*
G01X1475003Y-618925D03*
G01X1905002Y-618925D03*
G01X1905002Y-1098924D03*
G54D32*
G01X584711Y-1423727D03*
G54D33*
G01X688191Y-1423727D03*
G54D34*
G01X970130Y1063310D03*
G01X890145Y1063310D03*
G01X810135Y1063310D03*
G01X730150Y1063310D03*
G01X970130Y1451813D03*
G01X890145Y1451813D03*
G01X810135Y1451813D03*
G01X730150Y1451813D03*
G54D35*
G01X850140Y1257575D03*
G54D34*
G01X-123490Y1062822D03*
G01X-203475Y1062822D03*
G01X-283485Y1062822D03*
G01X-363470Y1062822D03*
G01X-123490Y1451325D03*
G01X-203475Y1451325D03*
G01X-283485Y1451325D03*
G01X-363470Y1451325D03*
G54D35*
G01X-243480Y1257086D03*
G54D21*
G01X1520002Y932076D03*
G54D22*
G01X1520002Y1114076D03*
G54D21*
G01X1690002Y932076D03*
G54D22*
G01X1690002Y1114076D03*
G54D21*
G01X260002Y902076D03*
G54D22*
G01X260002Y1084076D03*
G54D21*
G01X430002Y902076D03*
G54D22*
G01X430002Y1084076D03*
G54D36*
G01X-1480000Y678176D03*
G01X-1480000Y1063976D03*
G54D14*
G01X-800001Y-207557D03*
G01X-659997Y-207557D03*
G01X-800001Y-937557D03*
G01X-659997Y-937557D03*
G04 Pad End*

G04 Via Start*
G54D37*
G01X1749660Y-1535586D03*
G01X1959660Y-1745587D03*
G01X1749660Y-1955587D03*
G01X1539660Y-1745587D03*
G01X1601168Y-1597094D03*
G01X1601168Y-1894079D03*
G01X1898153Y-1894079D03*
G01X1898153Y-1597094D03*
G01X1555646Y-1665222D03*
G01X1669295Y-1939601D03*
G01X1943675Y-1825951D03*
G01X1830025Y-1551572D03*
G01X1555645Y-1825949D03*
G01X1669298Y-1551571D03*
G01X1943676Y-1665224D03*
G01X1830023Y-1939602D03*
G01X-1730340Y-1535586D03*
G01X-1520340Y-1745587D03*
G01X-1730340Y-1955587D03*
G01X-1940340Y-1745587D03*
G01X-1878832Y-1597094D03*
G01X-1878832Y-1894079D03*
G01X-1581847Y-1894079D03*
G01X-1581847Y-1597094D03*
G01X-1924354Y-1665222D03*
G01X-1810705Y-1939601D03*
G01X-1536326Y-1825951D03*
G01X-1649975Y-1551572D03*
G01X-1924355Y-1825949D03*
G01X-1810702Y-1551571D03*
G01X-1536325Y-1665224D03*
G01X-1649978Y-1939602D03*
G01X1749660Y1944414D03*
G01X1959660Y1734414D03*
G01X1749660Y1524414D03*
G01X1539660Y1734414D03*
G01X1601168Y1882906D03*
G01X1601168Y1585921D03*
G01X1898153Y1585921D03*
G01X1898153Y1882906D03*
G01X1555646Y1814778D03*
G01X1669295Y1540399D03*
G01X1943675Y1654049D03*
G01X1830025Y1928428D03*
G01X1555645Y1654051D03*
G01X1669298Y1928429D03*
G01X1943676Y1814776D03*
G01X1830023Y1540398D03*
G01X-1730340Y1944414D03*
G01X-1520340Y1734414D03*
G01X-1730340Y1524414D03*
G01X-1940340Y1734414D03*
G01X-1878832Y1882906D03*
G01X-1878832Y1585921D03*
G01X-1581847Y1585921D03*
G01X-1581847Y1882906D03*
G01X-1924354Y1814778D03*
G01X-1810705Y1540399D03*
G01X-1536326Y1654049D03*
G01X-1649975Y1928428D03*
G01X-1924355Y1654051D03*
G01X-1810702Y1928429D03*
G01X-1536325Y1814776D03*
G01X-1649978Y1540398D03*
G54D38*
G01X970130Y1337585D03*
G01X890145Y1337585D03*
G01X810135Y1337585D03*
G01X730150Y1337585D03*
G01X730150Y1257575D03*
G01X810135Y1257575D03*
G01X890145Y1257575D03*
G01X970130Y1257575D03*
G01X970130Y1177565D03*
G01X890145Y1177565D03*
G01X810135Y1177565D03*
G01X730150Y1177565D03*
G01X-123490Y1337096D03*
G01X-203475Y1337096D03*
G01X-283485Y1337096D03*
G01X-363470Y1337096D03*
G01X-363470Y1257086D03*
G01X-283485Y1257086D03*
G01X-203475Y1257086D03*
G01X-123490Y1257086D03*
G01X-123490Y1177076D03*
G01X-203475Y1177076D03*
G01X-283485Y1177076D03*
G01X-363470Y1177076D03*
G54D37*
G01X90001Y1321076D03*
G01X-1040997Y357075D03*
G01X-673998Y760774D03*
G01X260002Y902076D03*
G01X-489999Y721076D03*
G01X1520002Y932076D03*
G01X2050004Y1851078D03*
G01X1850004Y1451078D03*
G01X1850004Y1251078D03*
G01X1850004Y1051078D03*
G01X1850004Y-148923D03*
G01X1850004Y-348923D03*
G01X1850004Y-548923D03*
G01X1850004Y-1348923D03*
G01X1650004Y1451078D03*
G01X1650004Y1251078D03*
G01X1670002Y961076D03*
G01X1650004Y651078D03*
G01X1650004Y251077D03*
G01X1650004Y-348923D03*
G01X1650004Y-1348923D03*
G01X1450004Y1851078D03*
G01X1450004Y1651078D03*
G01X1450004Y1451078D03*
G01X1450004Y1251078D03*
G01X1450004Y851078D03*
G01X1450004Y-148923D03*
G01X1450004Y-348923D03*
G01X1450004Y-748923D03*
G01X1450004Y-1548923D03*
G01X1450004Y-1748924D03*
G01X1450004Y-1948924D03*
G01X1250004Y1851078D03*
G01X1250004Y1651078D03*
G01X1250004Y1451078D03*
G01X1250004Y1251078D03*
G01X1250004Y1051078D03*
G01X1250004Y851078D03*
G01X1250004Y251077D03*
G01X1250004Y-148923D03*
G01X1250004Y-1548923D03*
G01X1250004Y-1948924D03*
G01X1050003Y1651078D03*
G01X1050003Y1251078D03*
G01X1050003Y251077D03*
G01X1050003Y-148923D03*
G01X1050003Y-1548923D03*
G01X1050003Y-1948924D03*
G01X850003Y251077D03*
G01X850003Y-148923D03*
G01X850003Y-1548923D03*
G01X850003Y-1748924D03*
G01X850003Y-1948924D03*
G01X650003Y251077D03*
G01X650003Y-148923D03*
G01X650003Y-1548923D03*
G01X650003Y-1748924D03*
G01X650003Y-1948924D03*
G01X450003Y1451078D03*
G01X450003Y851078D03*
G01X450003Y-1148923D03*
G01X450003Y-1548923D03*
G01X450003Y-1948924D03*
G01X250003Y1851078D03*
G01X250003Y1451078D03*
G01X250003Y1251078D03*
G01X250003Y-1748924D03*
G01X250003Y-1948924D03*
G01X50003Y1651078D03*
G01X50003Y-1948924D03*
G01X-149997Y-1748924D03*
G01X-549997Y1851078D03*
G01X-549997Y1651078D03*
G01X-549997Y1451078D03*
G01X-549997Y1251078D03*
G01X-549997Y-1348923D03*
G01X-749997Y1451078D03*
G01X-949998Y51077D03*
G01X-949998Y-548923D03*
G01X-949998Y-748923D03*
G01X-949998Y-948923D03*
G01X-949998Y-1148923D03*
G01X-949998Y-1348923D03*
G01X-1149998Y251077D03*
G01X-1149998Y51077D03*
G01X-1149998Y-548923D03*
G01X-1149998Y-748923D03*
G01X-1349998Y1851078D03*
G01X-1349998Y1651078D03*
G01X-1349998Y1451078D03*
G01X-1349998Y1051078D03*
G01X-1349998Y251077D03*
G01X-1349998Y-148923D03*
G01X-1349998Y-348923D03*
G01X-1349998Y-548923D03*
G01X-1349998Y-1148923D03*
G01X-1349998Y-1348923D03*
G01X-1549998Y1451078D03*
G01X-1549998Y1051078D03*
G01X-1549998Y851078D03*
G01X-1549998Y251077D03*
G01X-1549998Y-148923D03*
G01X-1549998Y-348923D03*
G01X-1549998Y-548923D03*
G01X-1549998Y-1148923D03*
G01X-1549998Y-1348923D03*
G01X-1749998Y1451078D03*
G01X-1749998Y1251078D03*
G01X-1749998Y1051078D03*
G01X-1749998Y-148923D03*
G01X-1749998Y-348923D03*
G01X-1749998Y-548923D03*
G01X-1749998Y-748923D03*
G01X-1749998Y-1148923D03*
G01X-1949998Y2051078D03*
G01X-1949998Y1451078D03*
G01X-1949998Y1251078D03*
G01X-1949998Y1051078D03*
G01X-1949998Y-148923D03*
G01X-1949998Y-348923D03*
G01X-1949998Y-548923D03*
G01X-1949998Y-748923D03*
G01X-1949998Y-1148923D03*
G01X-1949998Y-1348923D03*
G01X-1949998Y-1548923D03*
G01X-1949998Y-1948924D03*
G01X-769009Y1597080D03*
G01X-1012543Y2061077D03*
G01X-810117Y-2058926D03*
G01X-1010117Y-2058926D03*
G54D39*
G01X540002Y-1438925D03*
G54D37*
G01X-659917Y-1086190D03*
G54D39*
G01X1720002Y-678925D03*
G01X1680002Y-1048925D03*
G54D37*
G01X1520002Y-948925D03*
G01X1690002Y-818925D03*
G01X1880002Y-818925D03*
G01X1840002Y-878925D03*
G01X1170002Y-468925D03*
G01X1345002Y-748925D03*
G01X477338Y440588D03*
G01X1019853Y748362D03*
G01X810135Y1063310D03*
G01X913880Y1818442D03*
G01X-146994Y1771075D03*
G01X1818461Y57617D03*
G01X1918460Y57617D03*
G01X2018461Y57617D03*
G01X2018461Y157575D03*
G01X1918460Y157575D03*
G01X1818461Y157575D03*
G01X1818461Y257534D03*
G01X1918460Y257534D03*
G01X2018461Y257534D03*
G01X2018460Y949530D03*
G01X1918460Y949530D03*
G01X1818460Y949530D03*
G01X1818460Y849572D03*
G01X1918460Y849572D03*
G01X2018460Y849572D03*
G01X2018460Y749613D03*
G01X1918460Y749613D03*
G01X1818460Y749613D03*
G01X-1942236Y58357D03*
G01X-1842236Y58357D03*
G01X-1742236Y58357D03*
G01X-1742236Y158315D03*
G01X-1842236Y158315D03*
G01X-1942236Y158315D03*
G01X-1942236Y258273D03*
G01X-1842236Y258273D03*
G01X-1742236Y258273D03*
G01X-1942452Y948892D03*
G01X-1842452Y948892D03*
G01X-1742452Y948892D03*
G01X-1942452Y848934D03*
G01X-1842452Y848934D03*
G01X-1742452Y848934D03*
G01X-1742452Y748976D03*
G01X-1842452Y748976D03*
G01X-1942452Y748976D03*
G01X-1942452Y649017D03*
G01X-1842452Y649017D03*
G01X-1742452Y649017D03*
G54D40*
G01X-1761739Y-1328925D03*
G54D41*
G01X-362485Y1771078D03*
G54D37*
G01X590002Y1031076D03*
G01X-721739Y1022909D03*
G01X-1019999Y781076D03*
G01X-1192236Y413232D03*
G01X-1292236Y413232D03*
G01X-1342236Y358232D03*
G01X-1338925Y649101D03*
G01X-1288926Y594101D03*
G01X1919885Y-2018926D03*
G01X2009885Y-1958925D03*
G01X2057025Y-1866912D03*
G01X2070002Y-1528925D03*
G01X2070002Y-1628925D03*
G01X2070002Y-1738925D03*
G01X2030002Y1901077D03*
G01X1970002Y1991077D03*
G01X1789885Y-2058926D03*
G01X1689885Y-2058926D03*
G01X1589885Y-2058926D03*
G01X1489884Y-2058926D03*
G01X1389884Y-2058926D03*
G01X1289884Y-2058926D03*
G01X1189884Y-2058926D03*
G01X1089884Y-2058926D03*
G01X989884Y-2058926D03*
G01X889884Y-2058926D03*
G01X789884Y-2058926D03*
G01X689884Y-2058926D03*
G01X589884Y-2058926D03*
G01X489884Y-2058926D03*
G01X389884Y-2058926D03*
G01X289884Y-2058926D03*
G01X189884Y-2058926D03*
G01X89884Y-2058926D03*
G01X-10116Y-2058926D03*
G01X-110116Y-2058926D03*
G01X-210116Y-2058926D03*
G01X-310116Y-2058926D03*
G01X-410117Y-2058926D03*
G01X-510117Y-2058926D03*
G01X-610117Y-2058926D03*
G01X-710117Y-2058926D03*
G01X-910117Y-2058926D03*
G01X-1110117Y-2058926D03*
G01X-1210117Y-2058926D03*
G01X-1310117Y-2058926D03*
G01X-1410117Y-2058926D03*
G01X-1510117Y-2058926D03*
G01X-1610117Y-2058926D03*
G01X-1710117Y-2058926D03*
G01X-1810117Y-2058926D03*
G01X-1910000Y-2038926D03*
G01X-1990000Y-1978925D03*
G01X-2033931Y-1874994D03*
G01X-2050000Y-1781650D03*
G01X-2050000Y-1681650D03*
G01X-2050000Y-1581650D03*
G01X-2050000Y-1481650D03*
G01X-2050000Y-1381650D03*
G01X-2050000Y-1281650D03*
G01X-2050000Y-1181650D03*
G01X-2050000Y-1081650D03*
G01X-2050000Y-981650D03*
G01X-2050000Y-881650D03*
G01X-2050000Y-781650D03*
G01X-2050000Y-681650D03*
G01X-2050000Y-581650D03*
G01X-2050000Y-481650D03*
G01X-2050000Y-381650D03*
G01X-2050000Y-281650D03*
G01X-2050000Y-181650D03*
G01X-2050000Y-81650D03*
G01X-2050000Y18350D03*
G01X-2050000Y118351D03*
G01X-2050000Y218351D03*
G01X-2050000Y718351D03*
G01X-2050000Y818351D03*
G01X-2050000Y918351D03*
G01X-2050000Y1018351D03*
G01X-2050000Y1118351D03*
G01X-2050000Y1218351D03*
G01X-2050000Y1318351D03*
G01X-2050000Y1418351D03*
G01X-2050000Y1518351D03*
G01X-2050000Y1618351D03*
G01X-2050000Y1718351D03*
G01X-2026860Y1854217D03*
G01X-1990000Y1951077D03*
G01X-1920000Y2011077D03*
G01X-1812543Y2061077D03*
G01X-1712543Y2061077D03*
G01X-1612543Y2061077D03*
G01X-1512543Y2061077D03*
G01X-1412543Y2061077D03*
G01X-1312543Y2061077D03*
G01X-1212543Y2061077D03*
G01X-1112543Y2061077D03*
G01X-912543Y2061077D03*
G01X-812543Y2061077D03*
G01X-712543Y2061077D03*
G01X-612543Y2061077D03*
G01X-512543Y2061077D03*
G01X-412543Y2061077D03*
G01X-312543Y2061077D03*
G01X-212543Y2061077D03*
G01X-112543Y2061077D03*
G01X-12543Y2061077D03*
G01X87458Y2061077D03*
G01X187458Y2061077D03*
G01X287458Y2061077D03*
G01X387458Y2061077D03*
G01X487458Y2061077D03*
G01X587458Y2061077D03*
G01X687458Y2061077D03*
G01X787458Y2061077D03*
G01X887458Y2061077D03*
G01X987458Y2061077D03*
G01X1087458Y2061077D03*
G01X1187458Y2061077D03*
G01X1287458Y2061077D03*
G01X1387458Y2061077D03*
G01X1487458Y2061077D03*
G01X1587458Y2061077D03*
G01X1687458Y2061077D03*
G01X1787458Y2061077D03*
G01X1877989Y2038216D03*
G01X2070002Y1771076D03*
G01X2070002Y1671076D03*
G01X2070002Y1571076D03*
G01X2070002Y1471076D03*
G01X2070002Y1371076D03*
G01X2070002Y1271076D03*
G01X2070002Y1171076D03*
G01X2070002Y1071076D03*
G01X2070002Y971076D03*
G01X2070002Y871076D03*
G01X2070002Y771076D03*
G01X2070002Y671076D03*
G01X2070002Y271076D03*
G01X2070002Y171076D03*
G01X2070002Y71076D03*
G01X2070002Y-28925D03*
G01X2070002Y-128925D03*
G01X2070002Y-228925D03*
G01X2070002Y-328925D03*
G01X2070002Y-428925D03*
G01X2070002Y-528925D03*
G01X2070002Y-628925D03*
G01X2070002Y-728925D03*
G01X2070002Y-828925D03*
G01X2070002Y-928925D03*
G01X2070002Y-1028925D03*
G01X2070002Y-1128925D03*
G01X2070002Y-1228925D03*
G01X2070002Y-1328925D03*
G01X2070002Y-1428925D03*
G01X-640000Y1233331D03*
G01X-359999Y-1588925D03*
G01X-89999Y-1118925D03*
G01X-249999Y-1118925D03*
G01X-409999Y-1218925D03*
G01X-449999Y-1658925D03*
G01X1340002Y-528925D03*
G01X605002Y-787703D03*
G01X599999Y-937703D03*
G01X-799999Y-1086190D03*
G01X110001Y-1008925D03*
G01X-69999Y-1008925D03*
G01X-800001Y-937557D03*
G01X-800000Y-210000D03*
G01X-800000Y-360000D03*
G01X-799999Y-488925D03*
G54D41*
G01X740002Y1761076D03*
G54D39*
G01X-1519999Y1331076D03*
G54D37*
G01X1713046Y186810D03*
G01X-1450001Y-630000D03*
G54D39*
G01X-1150340Y-1256587D03*
G54D37*
G01X-343999Y476075D03*
G01X-379999Y531076D03*
G01X-768994Y525773D03*
G01X-592361Y234900D03*
G01X220001Y-948925D03*
G01X270001Y-888925D03*
G01X360002Y-818925D03*
G01X430002Y-758925D03*
G01X-1065997Y-1889921D03*
G01X-892998Y-1636921D03*
G01X-1150340Y-1828587D03*
G01X-1309999Y-1808926D03*
G01X-719999Y-1508925D03*
G01X-359999Y-1408925D03*
G01X240002Y-1588925D03*
G01X-768994Y732024D03*
G01X-915385Y354431D03*
G01X-785379Y354431D03*
G01X-1242236Y358232D03*
G01X-600340Y594414D03*
G01X1318460Y357492D03*
G01X1718460Y649655D03*
G01X1218461Y357492D03*
G01X238966Y193291D03*
G01X281004Y140066D03*
G01X1110002Y881076D03*
G01X797199Y751480D03*
G01X288043Y746254D03*
G01X-231540Y594655D03*
G01X-181540Y649655D03*
G01X-668926Y594101D03*
G01X1169661Y824414D03*
G01X129660Y-155587D03*
G01X229660Y-155587D03*
G01X29660Y-155587D03*
G01X-70340Y-155587D03*
G01X-300340Y-65587D03*
G01X-653183Y217256D03*
G01X-582472Y146546D03*
G01X-370340Y-65587D03*
G01X-441761Y75835D03*
G01X-371051Y5124D03*
G01X1500913Y-95322D03*
G01X1642335Y116100D03*
G01X1571624Y45389D03*
G01X1500913Y-25322D03*
G01X1713046Y116811D03*
G01X1642335Y46100D03*
G01X1571624Y-24611D03*
G01X1373043Y-40321D03*
G01X1423043Y-95322D03*
G01X1123043Y-95322D03*
G01X1223043Y-95322D03*
G01X1323043Y-95322D03*
G01X1073043Y-40321D03*
G01X373043Y-40321D03*
G01X423043Y-95322D03*
G01X473043Y-40321D03*
G01X523043Y-95322D03*
G01X573043Y-40321D03*
G01X623043Y-95322D03*
G01X673043Y-40321D03*
G01X723043Y-95322D03*
G01X773043Y-40321D03*
G01X823043Y-95322D03*
G01X873043Y-40321D03*
G01X923043Y-95322D03*
G01X973043Y-40321D03*
G01X1023043Y-95322D03*
G01X1173043Y-40321D03*
G01X1273043Y-40321D03*
G01X1073042Y141841D03*
G01X1123042Y196841D03*
G01X1173042Y141841D03*
G01X1223043Y196841D03*
G01X1323042Y196841D03*
G01X1273042Y141841D03*
G01X973043Y141841D03*
G01X1268461Y412492D03*
G01X1373042Y141841D03*
G01X1323042Y196841D03*
G01X1273042Y141841D03*
G01X1223043Y196841D03*
G01X1173042Y141841D03*
G01X1123042Y196841D03*
G01X1073042Y141841D03*
G01X1023042Y196841D03*
G01X923042Y196841D03*
G01X873042Y141841D03*
G01X823042Y196841D03*
G01X773042Y141841D03*
G01X723042Y196841D03*
G01X673042Y141841D03*
G01X623042Y196841D03*
G01X573042Y141841D03*
G01X523042Y196841D03*
G01X473042Y141841D03*
G01X423042Y196841D03*
G01X373042Y141841D03*
G01X331004Y195066D03*
G01X122160Y219414D03*
G01X-26958Y141841D03*
G01X-76958Y196841D03*
G01X-477910Y117407D03*
G01X1398954Y209113D03*
G01X1343954Y259113D03*
G01X1398954Y309113D03*
G01X-229233Y409329D03*
G01X-174233Y359328D03*
G01X-229233Y309329D03*
G01X-174233Y259328D03*
G01X-1009763Y1013432D03*
G01X-954763Y963432D03*
G01X-1009763Y913432D03*
G01X218460Y649655D03*
G01X268460Y594655D03*
G01X318460Y649655D03*
G01X-486216Y612283D03*
G01X-938925Y649101D03*
G01X-838925Y649101D03*
G01X-1238925Y649101D03*
G01X-1138925Y649101D03*
G01X-1038925Y649101D03*
G01X-31540Y594655D03*
G01X-81540Y649655D03*
G01X168460Y594655D03*
G01X118460Y649655D03*
G01X18460Y649655D03*
G01X68460Y594655D03*
G01X1118460Y649655D03*
G01X1068460Y594655D03*
G01X1018460Y649655D03*
G01X1418460Y649655D03*
G01X1368460Y594655D03*
G01X1318460Y649655D03*
G01X1268460Y594655D03*
G01X1168460Y594655D03*
G01X1218460Y649655D03*
G01X2068460Y594655D03*
G01X2018460Y649655D03*
G01X1968460Y594655D03*
G01X1918460Y649655D03*
G01X1868460Y594655D03*
G01X1818460Y649655D03*
G01X1768460Y594655D03*
G01X-788926Y594101D03*
G01X-888925Y594101D03*
G01X-988925Y594101D03*
G01X-1088925Y594101D03*
G01X-1188925Y594101D03*
G01X-2092452Y594017D03*
G01X-1792452Y594017D03*
G01X-1892452Y594017D03*
G01X-1992452Y594017D03*
G01X-1642452Y649017D03*
G01X-1742452Y649017D03*
G01X-1842452Y649017D03*
G01X-1942452Y649017D03*
G01X-2042452Y649017D03*
G01X2018461Y357492D03*
G01X1918460Y357492D03*
G01X1818460Y357492D03*
G01X2068460Y412492D03*
G01X1968461Y412492D03*
G01X1868461Y412492D03*
G01X1768461Y412492D03*
G01X1118461Y357492D03*
G01X1018460Y357492D03*
G01X918460Y357492D03*
G01X818460Y357492D03*
G01X718461Y357492D03*
G01X618461Y357492D03*
G01X1168460Y412492D03*
G01X1068460Y412492D03*
G01X968461Y412492D03*
G01X868461Y412492D03*
G01X768460Y412492D03*
G01X568460Y412492D03*
G01X418460Y357492D03*
G01X118461Y357492D03*
G01X18460Y357492D03*
G01X-81540Y357492D03*
G01X68461Y412492D03*
G01X-31539Y412492D03*
G01X518460Y357492D03*
G01X-642236Y358232D03*
G01X-592236Y413232D03*
G01X-1442236Y358232D03*
G01X-1542236Y358232D03*
G01X-1642236Y358232D03*
G01X-1742236Y358232D03*
G01X-1842236Y358232D03*
G01X-1942236Y358232D03*
G01X-2042236Y358232D03*
G01X-1392236Y413232D03*
G01X-1492236Y413232D03*
G01X-1592236Y413232D03*
G01X-1692236Y413232D03*
G01X-1792236Y413232D03*
G01X-1892236Y413232D03*
G01X-1992236Y413232D03*
G01X-2092236Y413232D03*
G01X-236720Y-526286D03*
G01X-236720Y-411986D03*
G01X283980Y-465326D03*
G01X-1299999Y1131076D03*
G01X-1089999Y1271076D03*
G01X-1080340Y1274414D03*
G01X276360Y-307846D03*
G01X259441Y1317954D03*
G01X591320Y454154D03*
G01X543060Y471934D03*
G01X543060Y525274D03*
G01X591320Y506647D03*
G01X543060Y526120D03*
G01X591320Y559140D03*
G01X543060Y580307D03*
G01X591320Y611634D03*
G01X543060Y634494D03*
G01X144095Y302507D03*
G01X1567617Y470554D03*
G01X1512776Y536923D03*
G01X720002Y691076D03*
G01X440002Y1221076D03*
G01X-543485Y951447D03*
G01X-767580Y1193294D03*
G01X-895202Y1192726D03*
G01X349335Y297820D03*
G01X-249999Y761076D03*
G01X-74160Y-617726D03*
G54D42*
G01X1051060Y-605026D03*
G01X463434Y-601351D03*
G54D37*
G01X-1104539Y-275007D03*
G01X1650002Y761076D03*
G54D42*
G01X1110002Y1811077D03*
G01X40001Y1801077D03*
G54D37*
G01X-650000Y-490000D03*
G01X-389999Y-1048925D03*
G01X1Y951076D03*
G01X1520002Y1111076D03*
G01X-241800Y-615186D03*
G01X370002Y1761076D03*
G01X-667998Y1602072D03*
G01X-675998Y1834072D03*
G01X-769999Y1831077D03*
G54D41*
G01X-999999Y1951077D03*
G54D39*
G01X-1469999Y731076D03*
G54D37*
G01X22360Y-665986D03*
G01X-89999Y-848925D03*
G01X-154899Y-863324D03*
G01X-126120Y-956926D03*
G01X151500Y-273706D03*
G01X-118500Y-363706D03*
G01X151500Y-453706D03*
G01X-118500Y-543707D03*
G01X-28500Y-543707D03*
G01X61500Y-543707D03*
G01X151500Y-543707D03*
G01X61500Y-453706D03*
G01X-28500Y-453706D03*
G01X-118500Y-453706D03*
G01X-28500Y-363706D03*
G01X61500Y-273706D03*
G01X-28500Y-273706D03*
G01X-118500Y-273706D03*
G01X151500Y-363706D03*
G01X61500Y-363706D03*
G01X1138445Y-1738586D03*
G01X1140002Y-1348925D03*
G01X-19999Y-968925D03*
G01X180001Y-1348925D03*
G01X940680Y-160407D03*
G01X780002Y-388925D03*
G01X1154040Y-339706D03*
G01X950840Y-656089D03*
G01X751603Y-601326D03*
G01X740002Y-488925D03*
G01X600002Y-468925D03*
G01X70001Y-1118925D03*
G01X-169999Y-1108925D03*
G01X-470000Y-340000D03*
G01X-250000Y-300000D03*
G01X-230000Y-240000D03*
G01X-1386501Y-739999D03*
G01X-1270001Y-850000D03*
G01X-1500001Y-780000D03*
G01X-1660001Y-790000D03*
G01X160000Y-1110001D03*
G01X170000Y-880000D03*
G01X-770000Y-710000D03*
G01X-820000Y-790000D03*
G01X-664999Y-357557D03*
G04 Via End*

G04 Track Start*
G54D43*
G01X590002Y1023955D02*
G01X590002Y1031076D01*
G01X730150Y883806D02*
G01X590002Y1023955D01*
G54D44*
G01X1690002Y1102077D02*
G01X1690002Y1114076D01*
G01X1520002Y932076D02*
G01X1690002Y1102077D01*
G01X430002Y1072077D02*
G01X430002Y1084076D01*
G01X260002Y902076D02*
G01X430002Y1072077D01*
G01X127002Y951076D02*
G01X260002Y1084076D01*
G01X1Y951076D02*
G01X127002Y951076D01*
G54D45*
G01X450370Y-588286D02*
G01X463434Y-601351D01*
G01X359869Y-588286D02*
G01X450370Y-588286D01*
G54D44*
G01X-83880Y-705044D02*
G01X-83880Y-752036D01*
G01X-173737Y-615186D02*
G01X-83880Y-705044D01*
G01X-241800Y-615186D02*
G01X-173737Y-615186D01*
G01X-362362Y-628286D02*
G01X-327629Y-628286D01*
G01X-426999Y-692923D02*
G01X-362362Y-628286D01*
G01X-426999Y-925925D02*
G01X-426999Y-692923D01*
G01X-384040Y-724697D02*
G01X-384040Y-1042888D01*
G01X-327629Y-668286D02*
G01X-384040Y-724697D01*
G01X-587264Y-1086190D02*
G01X-426999Y-925925D01*
G01X-163880Y-854344D02*
G01X-154899Y-863324D01*
G01X-163880Y-752036D02*
G01X-163880Y-854344D01*
G54D46*
G01X569513Y-1438925D02*
G01X540002Y-1438925D01*
G01X584711Y-1423727D02*
G01X569513Y-1438925D01*
G01X1305200Y-1423727D02*
G01X1680002Y-1048925D01*
G01X688191Y-1423727D02*
G01X1305200Y-1423727D01*
G01X1690002Y-818925D02*
G01X1580002Y-818925D01*
G01X1690002Y-818925D02*
G01X1880002Y-818925D01*
G01X1580002Y-818925D02*
G01X1327787Y-1071140D01*
G01X1840002Y-878925D02*
G01X1580002Y-878925D01*
G01X1207787Y-1251140D01*
G54D43*
G01X-203475Y1558340D02*
G01X-226211Y1581076D01*
G01X-203475Y1451325D02*
G01X-203475Y1558340D01*
G01X890145Y1558340D02*
G01X890145Y1451813D01*
G01X867409Y1581076D02*
G01X890145Y1558340D01*
G01X-408211Y1717605D02*
G01X-354740Y1771076D01*
G01X-408211Y1581076D02*
G01X-408211Y1717605D01*
G01X-363470Y1536335D02*
G01X-408211Y1581076D01*
G01X-363470Y1451325D02*
G01X-363470Y1536335D01*
G01X730150Y1536335D02*
G01X685409Y1581076D01*
G01X730150Y1451813D02*
G01X730150Y1536335D01*
G01X685409Y1717605D02*
G01X685409Y1581076D01*
G01X738880Y1771076D02*
G01X685409Y1717605D01*
G01X730150Y883806D02*
G01X730150Y1063310D01*
G01X732881Y881076D02*
G01X730150Y883806D01*
G01X-1349999Y851076D02*
G01X-899020Y851076D01*
G01X-783372Y961276D02*
G01X-721739Y1022909D01*
G01X-788820Y961276D02*
G01X-783372Y961276D01*
G01X-899020Y851076D02*
G01X-788820Y961276D01*
G01X-1469999Y731076D02*
G01X-1349999Y851076D01*
G01X-370739Y891076D02*
G01X-360739Y881076D01*
G01X-618259Y891076D02*
G01X-370739Y891076D01*
G01X-360739Y1060091D02*
G01X-363470Y1062822D01*
G01X-360739Y881076D02*
G01X-360739Y1060091D01*
G01X-618259Y1022909D02*
G01X-618259Y891076D01*
G01X-831739Y781076D02*
G01X-721739Y891076D01*
G01X-1019999Y781076D02*
G01X-831739Y781076D01*
G54D44*
G01X-123490Y943377D02*
G01X-123490Y1062822D01*
G01X-91994Y911881D02*
G01X-123490Y943377D01*
G01X970130Y935833D02*
G01X970130Y1063310D01*
G01X991699Y914263D02*
G01X970130Y935833D01*
G54D46*
G01X-920679Y-1938926D02*
G01X-810340Y-1828587D01*
G01X-1016992Y-1938926D02*
G01X-920679Y-1938926D01*
G01X-1065997Y-1889921D02*
G01X-1016992Y-1938926D01*
G54D44*
G01X-935239Y-1554165D02*
G01X-615239Y-1554165D01*
G01X-980340Y-1599266D02*
G01X-935239Y-1554165D01*
G01X-980340Y-1646587D02*
G01X-980340Y-1599266D01*
G01X-469999Y-1408925D02*
G01X-615239Y-1554165D01*
G01X-999999Y-1508925D02*
G01X-1137661Y-1646587D01*
G01X-719999Y-1508925D02*
G01X-999999Y-1508925D01*
G01X-719999Y-1888925D02*
G01X-719999Y-1736928D01*
G01X-810340Y-1646587D01*
G01X-669999Y-1938926D02*
G01X-719999Y-1888925D01*
G01X-109999Y-1938926D02*
G01X-669999Y-1938926D01*
G01X240002Y-1588925D02*
G01X-109999Y-1938926D01*
G01X-469999Y-1781729D02*
G01X-19999Y-1331729D01*
G01X-469999Y-1781729D02*
G01X-469999Y-1824587D01*
G01X-639999D01*
G01X-369337Y-1579587D02*
G01X-359999Y-1588925D01*
G01X-576999Y-1579587D02*
G01X-369337Y-1579587D01*
G01X-639999Y-1642587D02*
G01X-576999Y-1579587D01*
G01X-244999Y-1123925D02*
G01X-244999Y-1178928D01*
G01X-249999Y-1118925D02*
G01X-244999Y-1123925D01*
G01X-89999Y-1173928D02*
G01X-94999Y-1178928D01*
G01X-89999Y-1118925D02*
G01X-89999Y-1173928D01*
G01X-1239999Y-1346246D02*
G01X-1239999Y-1576587D01*
G01X-1309999Y-1646587D01*
G01X-1150340Y-1256587D02*
G01X-1239999Y-1346246D01*
G01X1174195Y-749732D02*
G01X1175002Y-748925D01*
G01X1091993Y-749732D02*
G01X1174195Y-749732D01*
G01X1091186Y-748925D02*
G01X1091993Y-749732D01*
G01X980002Y-748925D02*
G01X1091186Y-748925D01*
G01X791224Y-937703D02*
G01X980002Y-748925D01*
G01X740004Y-937703D02*
G01X791224Y-937703D01*
G01X518923Y-270003D02*
G01X1148259Y-270003D01*
G01X440640Y-348287D02*
G01X518923Y-270003D01*
G01X359869Y-348287D02*
G01X440640Y-348287D01*
G01X1345002Y-466746D02*
G01X1345002Y-528925D01*
G01X1148259Y-270003D02*
G01X1345002Y-466746D01*
G01X591223Y-337703D02*
G01X599999Y-337703D01*
G01X540640Y-388286D02*
G01X359869Y-388286D01*
G01X591223Y-337703D02*
G01X540640Y-388286D01*
G54D46*
G01X459363Y-468286D02*
G01X359869Y-468286D01*
G01X592403Y-601326D02*
G01X459363Y-468286D01*
G01X611598Y-601326D02*
G01X592403Y-601326D01*
G54D44*
G01X-659994Y-1086190D02*
G01X-587264Y-1086190D01*
G01X-19999Y-968925D02*
G01X-19999Y-1331729D01*
G01X116120Y-977804D02*
G01X55001Y-1038923D01*
G01X116120Y-752036D02*
G01X116120Y-977804D01*
G01X-233239Y-1045685D02*
G01X-244999Y-1045685D01*
G01X-169999Y-1108925D02*
G01X-233239Y-1045685D01*
G54D46*
G01X-242960Y-1043646D02*
G01X-244999Y-1045685D01*
G01X-892998Y-1741244D02*
G01X-980340Y-1828587D01*
G01X-892998Y-1636921D02*
G01X-892998Y-1741244D01*
G01X-521448Y165107D02*
G01X-273533Y165107D01*
G01X-592361Y236020D02*
G01X-521448Y165107D01*
G01X-592361Y234900D02*
G01X-592361Y236020D01*
G01X-273533Y165107D02*
G01X-248240Y139814D01*
G01X-2493Y251195D02*
G01X-90062Y251195D01*
G01X-199786Y141471D01*
G01X-242960Y141471D02*
G01X-199786Y141471D01*
G01X-2493Y251195D02*
G01X86998Y161704D01*
G54D44*
G01X236120Y-822807D02*
G01X236120Y-752036D01*
G01X224801Y-834125D02*
G01X236120Y-822807D01*
G01X224801Y-944125D02*
G01X224801Y-834125D01*
G01X220001Y-948925D02*
G01X224801Y-944125D01*
G01X276120Y-882807D02*
G01X276120Y-752036D01*
G01X270001Y-888925D02*
G01X276120Y-882807D01*
G01X360002Y-818925D02*
G01X360002Y-678925D01*
G01X402793Y-628286D02*
G01X359869Y-628286D01*
G01X430002Y-655494D02*
G01X402793Y-628286D01*
G01X430002Y-758925D02*
G01X430002Y-655494D01*
G01X-1137661Y-1646587D02*
G01X-1150340Y-1646587D01*
G01X-359999Y-1408925D02*
G01X-469999Y-1408925D01*
G01X286940Y-468286D02*
G01X283980Y-465326D01*
G01X359869Y-468286D02*
G01X286940Y-468286D01*
G01X-260420Y-388286D02*
G01X-236720Y-411986D01*
G01X-327629Y-388286D02*
G01X-260420Y-388286D01*
G01X-236720Y-540301D02*
G01X-236720Y-526286D01*
G01X-284705Y-588286D02*
G01X-236720Y-540301D01*
G01X-327629Y-588286D02*
G01X-284705Y-588286D01*
G01X-327629Y-588286D02*
G01X-329130Y-589786D01*
G01X276800Y-308287D02*
G01X276360Y-307846D01*
G01X359869Y-308287D02*
G01X276800Y-308287D01*
G01X-256579Y-148287D02*
G01X-327629Y-148287D01*
G01X-180840Y-224026D02*
G01X-256579Y-148287D01*
G01X-180840Y-554993D02*
G01X-180840Y-224026D01*
G01X-144847Y-590986D02*
G01X-180840Y-554993D01*
G01X-100900Y-590986D02*
G01X-144847Y-590986D01*
G01X-74160Y-617726D02*
G01X-100900Y-590986D01*
G54D46*
G01X-242732Y144628D02*
G01X-242732Y141699D01*
G01X-242960Y141471D01*
G54D44*
G01X-650000Y-490000D02*
G01X-667097Y-507097D01*
G01X-384040Y-1042888D02*
G01X-390076Y-1048925D01*
G01X-43880Y-709055D02*
G01X-43880Y-752036D01*
G01X-811Y-665986D02*
G01X-43880Y-709055D01*
G01X22360Y-665986D02*
G01X-811Y-665986D01*
G01X-89999Y-848925D02*
G01X-119999Y-818925D01*
G01Y-778925D01*
G01X-203879Y-879167D02*
G01X-203879Y-752036D01*
G01X-126120Y-956926D02*
G01X-203879Y-879167D01*
G54D46*
G01X-242960Y-752955D02*
G01X-243879Y-752036D01*
G01X-242960Y-1043646D02*
G01X-242960Y-752955D01*
G01X600002Y-468925D02*
G01X559363Y-428286D01*
G01X359869D01*
G01X115180Y-63597D02*
G01X116120Y-64537D01*
G01X115180Y138931D02*
G01X115180Y-63597D01*
G01X-242960Y-63618D02*
G01X-243879Y-64537D01*
G01X-242960Y141471D02*
G01X-242960Y-63618D01*
G54D44*
G01X-667097Y-507097D02*
G01X-667097Y-517097D01*
G01X-327629Y-468286D02*
G01X-620726Y-468286D01*
G01X-659997Y-507557D01*
G01X-398286Y-588286D02*
G01X-327629Y-588286D01*
G01X-470000Y-660000D02*
G01X-398286Y-588286D01*
G01X-659997Y-937557D02*
G01X-617557Y-937557D01*
G01X-470000Y-790000D01*
G01Y-660000D01*
G01X-327629Y-548286D02*
G01X-401052Y-548286D01*
G01X-637001Y-784235D01*
G01X-495286Y-508286D02*
G01X-327629Y-508286D01*
G01X-637001Y-650000D02*
G01X-570000Y-650000D01*
G01X-327629Y-428286D02*
G01X-589267Y-428286D01*
G01X-659997Y-357557D01*
G01X-659997Y-207557D02*
G01X-659997Y-240398D01*
G01X-512108Y-388286D01*
G01X-327629D01*
G01X-327629Y-348287D02*
G01X-461714Y-348287D01*
G01X-470000Y-340000D01*
G01X-258287Y-308287D02*
G01X-327629Y-308287D01*
G01X-250000Y-300000D02*
G01X-258287Y-308287D01*
G01X-1270001Y-850000D02*
G01X-1259501Y-839501D01*
G01Y-739999D01*
G01X-327629Y-268287D02*
G01X-282209Y-268287D01*
G01X-253923Y-240000D01*
G01X-230000D01*
G01X-327629Y-228287D02*
G01X-522164Y-228287D01*
G01X-610594Y-139857D01*
G01X-1386501Y-42287D02*
G01X-1386501Y-20001D01*
G01X-610594Y-139857D02*
G01X-1288930Y-139857D01*
G01X-1288930Y-139857D02*
G01X-1386501Y-42287D01*
G01X-1504798Y-11298D02*
G01X-1513501Y-20001D01*
G01X-1414713Y100000D02*
G01X-1504798Y9915D01*
G01Y-11298D01*
G01X-680000Y100000D02*
G01X-1414713Y100000D01*
G01X-327629Y-188287D02*
G01X-391713Y-188287D01*
G01X-680000Y100000D01*
G01X-389004Y-148287D02*
G01X-667491Y130200D01*
G01X-1496616Y130200D02*
G01X-1640501Y-13685D01*
G01Y-20001D01*
G01X-667491Y130200D02*
G01X-1496616Y130200D01*
G01X-327629Y-148287D02*
G01X-389004Y-148287D01*
G54D46*
G01X160000Y-1110001D02*
G01X301140Y-1251140D01*
G01X1207787D01*
G01X170000Y-880000D02*
G01X170000Y-990001D01*
G01X251140Y-1071140D01*
G01X1327787D01*
G54D44*
G01X-570000Y-650000D02*
G01X-530000Y-610000D01*
G01Y-543000D01*
G01X-495286Y-508286D01*
G04 Track End*

M02*
