G04 Layer: BottomPasteMaskLayer*
G04 EasyEDA Pro v2.1.64.d1969c9c.217bcf, 2024-08-30 02:53:31*
G04 Gerber Generator version 0.3*
G04 Scale: 100 percent, Rotated: No, Reflected: No*
G04 Dimensions in millimeters*
G04 Leading zeros omitted, absolute positions, 3 integers and 5 decimals*
%FSLAX35Y35*%
%MOMM*%
%AMRoundRect*1,1,$1,$2,$3*1,1,$1,$4,$5*1,1,$1,0-$2,0-$3*1,1,$1,0-$4,0-$5*20,1,$1,$2,$3,$4,$5,0*20,1,$1,$4,$5,0-$2,0-$3,0*20,1,$1,0-$2,0-$3,0-$4,0-$5,0*20,1,$1,0-$4,0-$5,$2,$3,0*4,1,4,$2,$3,$4,$5,0-$2,0-$3,0-$4,0-$5,$2,$3,0*%
%AMOval*1,1,$1,$2,$3*1,1,$1,$4,$5*20,1,$1,$2,$3,$4,$5,0*%
%ADD10R,0.8X0.9*%
%ADD11R,0.9X0.8*%
%ADD12RoundRect,0.1X0.05X0.3875X0.05X-0.3875*%
%ADD13RoundRect,0.1X0.3875X0.05X0.3875X-0.05*%
%ADD14RoundRect,0.288X1.456X1.456X1.456X-1.456*%
%ADD15RoundRect,0.3X0.15X0.65X0.15X-0.65*%
%ADD16R,1.2042X1.4*%
%ADD17R,1.2X1.4*%
%ADD18R,0.51999X0.7*%
%ADD19R,1.05001X0.7*%
%ADD20R,0.51999X0.7*%
%ADD21R,1.05001X0.7*%
%ADD22Oval,0.41999X0.0X-0.30751X0.0X0.30751*%
%ADD23R,2.99999X2.2*%
%ADD24R,2.05999X2.07*%
G75*


G04 PolygonModel Start*
G36*
G01X-84242Y1707076D02*
G01X-84242Y1835074D01*
G01X-89244Y1840076D01*
G01X-204245D01*
G01X-209243Y1835074D01*
G01X-209746Y1794071D01*
G01X-164745D01*
G01Y1749072D01*
G01X-208746D01*
G01X-209243Y1707076D01*
G01X-204245Y1702075D01*
G01X-89244D01*
G01X-84242Y1707076D01*
G37*
G36*
G01X-425237Y1835077D02*
G01X-425237Y1707079D01*
G01X-420236Y1702077D01*
G01X-305235D01*
G01X-300236Y1707079D01*
G01X-299733Y1748082D01*
G01X-344735D01*
G01Y1793080D01*
G01X-300734D01*
G01X-300236Y1835077D01*
G01X-305235Y1840078D01*
G01X-420236D01*
G01X-425237Y1835077D01*
G37*
G36*
G01X946701Y719425D02*
G01X946701Y799425D01*
G01X951702Y804426D01*
G01X974498D01*
G01Y767426D01*
G01X1007498D01*
G01Y804426D01*
G01X1031702D01*
G01X1036700Y799425D01*
G01Y719425D01*
G01X1031702Y714426D01*
G01X951702D01*
G01X946701Y719425D01*
G37*
G36*
G01X1036698Y958429D02*
G01X1036698Y878429D01*
G01X1031697Y873428D01*
G01X1008900D01*
G01Y910428D01*
G01X975901D01*
G01Y873428D01*
G01X951697D01*
G01X946698Y878429D01*
G01Y958429D01*
G01X951697Y963428D01*
G01X1031697D01*
G01X1036698Y958429D01*
G37*
G36*
G01X-424740Y610578D02*
G01X-296741Y610578D01*
G01X-291740Y615580D01*
G01Y730581D01*
G01X-296741Y735579D01*
G01X-337745Y736082D01*
G01Y691081D01*
G01X-382743D01*
G01Y735082D01*
G01X-424740Y735579D01*
G01X-429741Y730581D01*
G01Y615580D01*
G01X-424740Y610578D01*
G37*
G36*
G01X-296739Y951573D02*
G01X-424737Y951573D01*
G01X-429738Y946572D01*
G01Y831571D01*
G01X-424737Y826572D01*
G01X-383734Y826069D01*
G01Y871071D01*
G01X-338735D01*
G01Y827070D01*
G01X-296739Y826572D01*
G01X-291738Y831571D01*
G01Y946572D01*
G01X-296739Y951573D01*
G37*
G36*
G01X668881Y610578D02*
G01X796879Y610578D01*
G01X801880Y615580D01*
G01Y730581D01*
G01X796879Y735579D01*
G01X755876Y736082D01*
G01Y691081D01*
G01X710877D01*
G01Y735082D01*
G01X668881Y735579D01*
G01X663879Y730581D01*
G01Y615580D01*
G01X668881Y610578D01*
G37*
G36*
G01X796881Y951573D02*
G01X668883Y951573D01*
G01X663882Y946572D01*
G01Y831571D01*
G01X668883Y826572D01*
G01X709886Y826069D01*
G01Y871071D01*
G01X754885D01*
G01Y827070D01*
G01X796881Y826572D01*
G01X801883Y831571D01*
G01Y946572D01*
G01X796881Y951573D01*
G37*
G36*
G01X1009378Y1707076D02*
G01X1009378Y1835074D01*
G01X1004376Y1840076D01*
G01X889375D01*
G01X884377Y1835074D01*
G01X883874Y1794071D01*
G01X928875D01*
G01Y1749072D01*
G01X884875D01*
G01X884377Y1707076D01*
G01X889375Y1702075D01*
G01X1004376D01*
G01X1009378Y1707076D01*
G37*
G36*
G01X668383Y1835077D02*
G01X668383Y1707079D01*
G01X673384Y1702077D01*
G01X788385D01*
G01X793384Y1707079D01*
G01X793887Y1748082D01*
G01X748885D01*
G01Y1793080D01*
G01X792886D01*
G01X793384Y1835077D01*
G01X788385Y1840078D01*
G01X673384D01*
G01X668383Y1835077D01*
G37*
G36*
G01X-136993Y717043D02*
G01X-136993Y797042D01*
G01X-131992Y802044D01*
G01X-109195D01*
G01Y765043D01*
G01X-76195D01*
G01Y802044D01*
G01X-51992D01*
G01X-46993Y797042D01*
G01Y717043D01*
G01X-51992Y712044D01*
G01X-131992D01*
G01X-136993Y717043D01*
G37*
G36*
G01X-46996Y956046D02*
G01X-46996Y876047D01*
G01X-51997Y871045D01*
G01X-74793D01*
G01Y908045D01*
G01X-107793D01*
G01Y871045D01*
G01X-131997D01*
G01X-136995Y876047D01*
G01Y956046D01*
G01X-131997Y961045D01*
G01X-51997D01*
G01X-46996Y956046D01*
G37*
G36*
G01X-195709Y1536078D02*
G01X-275709Y1536078D01*
G01X-280710Y1541079D01*
G01Y1563875D01*
G01X-243710D01*
G01Y1596875D01*
G01X-280710D01*
G01Y1621079D01*
G01X-275709Y1626078D01*
G01X-195709D01*
G01X-190710Y1621079D01*
G01Y1541079D01*
G01X-195709Y1536078D01*
G37*
G36*
G01X-434713Y1626075D02*
G01X-354713Y1626075D01*
G01X-349712Y1621074D01*
G01Y1598277D01*
G01X-386712D01*
G01Y1565278D01*
G01X-349712D01*
G01Y1541074D01*
G01X-354713Y1536075D01*
G01X-434713D01*
G01X-439712Y1541074D01*
G01Y1621074D01*
G01X-434713Y1626075D01*
G37*
G36*
G01X897911Y1536078D02*
G01X817911Y1536078D01*
G01X812910Y1541079D01*
G01Y1563875D01*
G01X849910D01*
G01Y1596875D01*
G01X812910D01*
G01Y1621079D01*
G01X817911Y1626078D01*
G01X897911D01*
G01X902910Y1621079D01*
G01Y1541079D01*
G01X897911Y1536078D01*
G37*
G36*
G01X658907Y1626075D02*
G01X738907Y1626075D01*
G01X743908Y1621074D01*
G01Y1598277D01*
G01X706908D01*
G01Y1565278D01*
G01X743908D01*
G01Y1541074D01*
G01X738907Y1536075D01*
G01X658907D01*
G01X653909Y1541074D01*
G01Y1621074D01*
G01X658907Y1626075D01*
G37*
G36*
G01X-849502Y-745002D02*
G01X-769502Y-745002D01*
G01X-764501Y-750003D01*
G01Y-772800D01*
G01X-801501D01*
G01Y-805799D01*
G01X-764501D01*
G01Y-830003D01*
G01X-769502Y-835002D01*
G01X-849502D01*
G01X-854501Y-830003D01*
G01Y-750003D01*
G01X-849502Y-745002D01*
G37*
G36*
G01X-610498Y-834999D02*
G01X-690498Y-834999D01*
G01X-695500Y-829998D01*
G01Y-807201D01*
G01X-658499D01*
G01Y-774202D01*
G01X-695500D01*
G01Y-749998D01*
G01X-690498Y-744999D01*
G01X-610498D01*
G01X-605500Y-749998D01*
G01Y-829998D01*
G01X-610498Y-834999D01*
G37*
G36*
G01X-849502Y-605002D02*
G01X-769502Y-605002D01*
G01X-764501Y-610003D01*
G01Y-632799D01*
G01X-801501D01*
G01Y-665799D01*
G01X-764501D01*
G01Y-690003D01*
G01X-769502Y-695002D01*
G01X-849502D01*
G01X-854501Y-690003D01*
G01Y-610003D01*
G01X-849502Y-605002D01*
G37*
G36*
G01X-610498Y-694999D02*
G01X-690498Y-694999D01*
G01X-695500Y-689998D01*
G01Y-667201D01*
G01X-658499D01*
G01Y-634202D01*
G01X-695500D01*
G01Y-609998D01*
G01X-690498Y-604999D01*
G01X-610498D01*
G01X-605500Y-609998D01*
G01Y-689998D01*
G01X-610498Y-694999D01*
G37*
G36*
G01X-514997Y-1855089D02*
G01X-514997Y-1775089D01*
G01X-509996Y-1770088D01*
G01X-487200D01*
G01Y-1807088D01*
G01X-454200D01*
G01Y-1770088D01*
G01X-429996D01*
G01X-424998Y-1775089D01*
G01Y-1855089D01*
G01X-429996Y-1860087D01*
G01X-509996D01*
G01X-514997Y-1855089D01*
G37*
G36*
G01X-425000Y-1616085D02*
G01X-425000Y-1696085D01*
G01X-430001Y-1701086D01*
G01X-452798D01*
G01Y-1664086D01*
G01X-485798D01*
G01Y-1701086D01*
G01X-510001D01*
G01X-515000Y-1696085D01*
G01Y-1616085D01*
G01X-510001Y-1611086D01*
G01X-430001D01*
G01X-425000Y-1616085D01*
G37*
G36*
G01X-684998Y-1855089D02*
G01X-684998Y-1775089D01*
G01X-679996Y-1770088D01*
G01X-657200D01*
G01Y-1807088D01*
G01X-624200D01*
G01Y-1770088D01*
G01X-599997D01*
G01X-594998Y-1775089D01*
G01Y-1855089D01*
G01X-599997Y-1860087D01*
G01X-679996D01*
G01X-684998Y-1855089D01*
G37*
G36*
G01X-595000Y-1616085D02*
G01X-595000Y-1696085D01*
G01X-600002Y-1701086D01*
G01X-622798D01*
G01Y-1664086D01*
G01X-655798D01*
G01Y-1701086D01*
G01X-680001D01*
G01X-685000Y-1696085D01*
G01Y-1616085D01*
G01X-680001Y-1611086D01*
G01X-600002D01*
G01X-595000Y-1616085D01*
G37*
G36*
G01X-1265001Y-1616085D02*
G01X-1265001Y-1696085D01*
G01X-1270002Y-1701086D01*
G01X-1292799D01*
G01Y-1664086D01*
G01X-1325798D01*
G01Y-1701086D01*
G01X-1350002D01*
G01X-1355001Y-1696085D01*
G01Y-1616085D01*
G01X-1350002Y-1611086D01*
G01X-1270002D01*
G01X-1265001Y-1616085D01*
G37*
G36*
G01X-1354998Y-1855089D02*
G01X-1354998Y-1775089D01*
G01X-1349997Y-1770088D01*
G01X-1327200D01*
G01Y-1807088D01*
G01X-1294201D01*
G01Y-1770088D01*
G01X-1269997D01*
G01X-1264998Y-1775089D01*
G01Y-1855089D01*
G01X-1269997Y-1860087D01*
G01X-1349997D01*
G01X-1354998Y-1855089D01*
G37*
G36*
G01X-1105341Y-1616085D02*
G01X-1105341Y-1696085D01*
G01X-1110342Y-1701086D01*
G01X-1133139D01*
G01Y-1664086D01*
G01X-1166139D01*
G01Y-1701086D01*
G01X-1190342D01*
G01X-1195341Y-1696085D01*
G01Y-1616085D01*
G01X-1190342Y-1611086D01*
G01X-1110342D01*
G01X-1105341Y-1616085D01*
G37*
G36*
G01X-1195338Y-1855089D02*
G01X-1195338Y-1775089D01*
G01X-1190337Y-1770088D01*
G01X-1167541D01*
G01Y-1807088D01*
G01X-1134541D01*
G01Y-1770088D01*
G01X-1110337D01*
G01X-1105339Y-1775089D01*
G01Y-1855089D01*
G01X-1110337Y-1860087D01*
G01X-1190337D01*
G01X-1195338Y-1855089D01*
G37*
G36*
G01X-935341Y-1616085D02*
G01X-935341Y-1696085D01*
G01X-940343Y-1701086D01*
G01X-963139D01*
G01Y-1664086D01*
G01X-996139D01*
G01Y-1701086D01*
G01X-1020342D01*
G01X-1025341Y-1696085D01*
G01Y-1616085D01*
G01X-1020342Y-1611086D01*
G01X-940343D01*
G01X-935341Y-1616085D01*
G37*
G36*
G01X-1025339Y-1855089D02*
G01X-1025339Y-1775089D01*
G01X-1020337Y-1770088D01*
G01X-997541D01*
G01Y-1807088D01*
G01X-964541D01*
G01Y-1770088D01*
G01X-940337D01*
G01X-935339Y-1775089D01*
G01Y-1855089D01*
G01X-940337Y-1860087D01*
G01X-1020337D01*
G01X-1025339Y-1855089D01*
G37*
G36*
G01X-765341Y-1616085D02*
G01X-765341Y-1696085D01*
G01X-770343Y-1701086D01*
G01X-793139D01*
G01Y-1664086D01*
G01X-826139D01*
G01Y-1701086D01*
G01X-850342D01*
G01X-855341Y-1696085D01*
G01Y-1616085D01*
G01X-850342Y-1611086D01*
G01X-770343D01*
G01X-765341Y-1616085D01*
G37*
G36*
G01X-855339Y-1855089D02*
G01X-855339Y-1775089D01*
G01X-850337Y-1770088D01*
G01X-827541D01*
G01Y-1807088D01*
G01X-794541D01*
G01Y-1770088D01*
G01X-770338D01*
G01X-765339Y-1775089D01*
G01Y-1855089D01*
G01X-770338Y-1860087D01*
G01X-850337D01*
G01X-855339Y-1855089D01*
G37*
G36*
G01X1475003Y901574D02*
G01X1475003Y981574D01*
G01X1480005Y986575D01*
G01X1502801D01*
G01Y949575D01*
G01X1535801D01*
G01Y986575D01*
G01X1560005D01*
G01X1565003Y981574D01*
G01Y901574D01*
G01X1560005Y896576D01*
G01X1480005D01*
G01X1475003Y901574D01*
G37*
G36*
G01X1565001Y1140578D02*
G01X1565001Y1060578D01*
G01X1559999Y1055577D01*
G01X1537203D01*
G01Y1092577D01*
G01X1504203D01*
G01Y1055577D01*
G01X1480000D01*
G01X1475001Y1060578D01*
G01Y1140578D01*
G01X1480000Y1145577D01*
G01X1559999D01*
G01X1565001Y1140578D01*
G37*
G36*
G01X1645004Y901574D02*
G01X1645004Y981574D01*
G01X1650005Y986575D01*
G01X1672801D01*
G01Y949575D01*
G01X1705801D01*
G01Y986575D01*
G01X1730005D01*
G01X1735003Y981574D01*
G01Y901574D01*
G01X1730005Y896576D01*
G01X1650005D01*
G01X1645004Y901574D01*
G37*
G36*
G01X1735001Y1140578D02*
G01X1735001Y1060578D01*
G01X1730000Y1055577D01*
G01X1707203D01*
G01Y1092577D01*
G01X1674203D01*
G01Y1055577D01*
G01X1650000D01*
G01X1645001Y1060578D01*
G01Y1140578D01*
G01X1650000Y1145577D01*
G01X1730000D01*
G01X1735001Y1140578D01*
G37*
G36*
G01X215003Y871574D02*
G01X215003Y951574D01*
G01X220004Y956575D01*
G01X242801D01*
G01Y919575D01*
G01X275800D01*
G01Y956575D01*
G01X300004D01*
G01X305003Y951574D01*
G01Y871574D01*
G01X300004Y866576D01*
G01X220004D01*
G01X215003Y871574D01*
G37*
G36*
G01X305000Y1110578D02*
G01X305000Y1030578D01*
G01X299999Y1025577D01*
G01X277202D01*
G01Y1062577D01*
G01X244203D01*
G01Y1025577D01*
G01X219999D01*
G01X215000Y1030578D01*
G01Y1110578D01*
G01X219999Y1115577D01*
G01X299999D01*
G01X305000Y1110578D01*
G37*
G36*
G01X385003Y871574D02*
G01X385003Y951574D01*
G01X390004Y956575D01*
G01X412801D01*
G01Y919575D01*
G01X445800D01*
G01Y956575D01*
G01X470004D01*
G01X475003Y951574D01*
G01Y871574D01*
G01X470004Y866576D01*
G01X390004D01*
G01X385003Y871574D01*
G37*
G36*
G01X475000Y1110578D02*
G01X475000Y1030578D01*
G01X469999Y1025577D01*
G01X447203D01*
G01Y1062577D01*
G01X414203D01*
G01Y1025577D01*
G01X389999D01*
G01X385001Y1030578D01*
G01Y1110578D01*
G01X389999Y1115577D01*
G01X469999D01*
G01X475000Y1110578D01*
G37*
G04 PolygonModel End*

G04 Pad Start*
G54D10*
G01X599999Y-787703D03*
G01X740004Y-787703D03*
G01X599999Y-337703D03*
G01X740004Y-337703D03*
G01X599999Y-487703D03*
G01X740004Y-487703D03*
G01X599999Y-637703D03*
G01X740004Y-637703D03*
G54D11*
G01X55001Y-1178928D03*
G01X55001Y-1038923D03*
G54D10*
G01X-800001Y-357557D03*
G01X-659997Y-357557D03*
G54D11*
G01X115180Y138931D03*
G01X115180Y278936D03*
G01X-242960Y141471D03*
G01X-242960Y281476D03*
G54D10*
G01X-800001Y-507557D03*
G01X-659997Y-507557D03*
G54D11*
G01X-244999Y-1178928D03*
G01X-244999Y-1038923D03*
G01X-94999Y-1178928D03*
G01X-94999Y-1038923D03*
G01X-394999Y-1178928D03*
G01X-394999Y-1038923D03*
G54D10*
G01X-799999Y-1086190D03*
G01X-659994Y-1086190D03*
G01X599999Y-920168D03*
G01X740004Y-920168D03*
G54D12*
G01X-243879Y-64537D03*
G01X-203879Y-64537D03*
G01X-163880Y-64537D03*
G01X-123880Y-64537D03*
G01X-83880Y-64537D03*
G01X-43880Y-64537D03*
G01X-3880Y-64537D03*
G01X36120Y-64537D03*
G01X76120Y-64537D03*
G01X116120Y-64537D03*
G01X156120Y-64537D03*
G01X196120Y-64537D03*
G01X236120Y-64537D03*
G01X276120Y-64537D03*
G54D13*
G01X359869Y-148287D03*
G01X359869Y-188287D03*
G01X359869Y-228287D03*
G01X359869Y-268287D03*
G01X359869Y-308287D03*
G01X359869Y-348287D03*
G01X359869Y-388286D03*
G01X359869Y-428286D03*
G01X359869Y-468286D03*
G01X359869Y-508286D03*
G01X359869Y-548286D03*
G01X359869Y-588286D03*
G01X359869Y-628286D03*
G01X359869Y-668286D03*
G54D12*
G01X276120Y-752036D03*
G01X236120Y-752036D03*
G01X196120Y-752036D03*
G01X156120Y-752036D03*
G01X116120Y-752036D03*
G01X76120Y-752036D03*
G01X36120Y-752036D03*
G01X-3880Y-752036D03*
G01X-43880Y-752036D03*
G01X-83880Y-752036D03*
G01X-123880Y-752036D03*
G01X-163880Y-752036D03*
G01X-203879Y-752036D03*
G01X-243879Y-752036D03*
G54D13*
G01X-327629Y-668286D03*
G01X-327629Y-628286D03*
G01X-327629Y-588286D03*
G01X-327629Y-548286D03*
G01X-327629Y-508286D03*
G01X-327629Y-468286D03*
G01X-327629Y-428286D03*
G01X-327629Y-388286D03*
G01X-327629Y-348287D03*
G01X-327629Y-308287D03*
G01X-327629Y-268287D03*
G01X-327629Y-228287D03*
G01X-327629Y-188287D03*
G01X-327629Y-148287D03*
G54D14*
G01X16120Y-408286D03*
G54D15*
G01X-1640501Y-20001D03*
G01X-1513501Y-20001D03*
G01X-1386501Y-20001D03*
G01X-1259501Y-20001D03*
G01X-1259501Y-739999D03*
G01X-1386501Y-739999D03*
G01X-1513501Y-739999D03*
G01X-1640501Y-739999D03*
G54D17*
G01X1345002Y-528925D03*
G01X1345002Y-748925D03*
G01X1175002Y-748925D03*
G01X1175002Y-528925D03*
G54D18*
G01X-618259Y891076D03*
G54D19*
G01X-721739Y891076D03*
G54D18*
G01X-618259Y1022909D03*
G54D19*
G01X-721739Y1022909D03*
G54D20*
G01X584711Y-1423727D03*
G54D21*
G01X688191Y-1423727D03*
G54D22*
G01X970130Y1063310D03*
G01X890145Y1063310D03*
G01X810135Y1063310D03*
G01X730150Y1063310D03*
G01X970130Y1451813D03*
G01X890145Y1451813D03*
G01X810135Y1451813D03*
G01X730150Y1451813D03*
G54D23*
G01X850140Y1257575D03*
G54D22*
G01X-123490Y1062822D03*
G01X-203475Y1062822D03*
G01X-283485Y1062822D03*
G01X-363470Y1062822D03*
G01X-123490Y1451325D03*
G01X-203475Y1451325D03*
G01X-283485Y1451325D03*
G01X-363470Y1451325D03*
G54D23*
G01X-243480Y1257086D03*
G54D24*
G01X-1480000Y678176D03*
G01X-1480000Y1063976D03*
G54D10*
G01X-800001Y-207557D03*
G01X-659997Y-207557D03*
G01X-800001Y-937557D03*
G01X-659997Y-937557D03*
G04 Pad End*

M02*
