G04 Layer: InnerLayer3*
G04 EasyEDA Pro v2.2.27.1, 2024-09-01 06:15:27*
G04 Gerber Generator version 0.3*
G04 Scale: 100 percent, Rotated: No, Reflected: No*
G04 Dimensions in millimeters*
G04 Leading zeros omitted, absolute positions, 3 integers and 5 decimals*
%FSLAX35Y35*%
%MOMM*%
%ADD10C,0.2032*%
%ADD11C,5.2*%
%ADD12C,1.1*%
%ADD13C,0.45*%
%ADD14C,0.6*%
%ADD15C,0.8*%
%ADD16C,0.6515*%
%ADD17C,0.65*%
%ADD18C,0.50002*%
%ADD19C,1.0*%
%ADD20C,0.2*%
%ADD21C,0.15*%
G75*


G04 Copper Start*
G36*
G01X-4059675Y-70194D02*
G01X-4059675Y70190D01*
G03X-4053506Y67485I36674J75253D01*
G03X-3923001Y23302I80504J22959D01*
G03X-3823001Y23302I50000J67142D01*
G03X-3746156Y11151I50000J67142D01*
G03X-3692497Y67485I-26845J79293D01*
G03X-3673001Y78302I-30504J77958D01*
G03X-3541123Y128006I50000J67142D01*
G03X-3641305Y227132I-81878J17437D01*
G03X-3655844Y295381I-81696J18270D01*
G03X-3655844Y395340I-67157J49979D01*
G03X-3660747Y501288I-67157J49979D01*
G03X-3715827Y629914I-69800J46217D01*
G03X-3812031Y528311I-14721J-82410D01*
G03X-3850043Y524545I-10970J-82992D01*
G03X-3869420Y604701I-80504J22959D01*
G03X-3948114Y629355I-61127J-57197D01*
G03X-3963407Y664778I-82435J-14577D01*
G03X-3960295Y669254I-67142J50000D01*
G03X-3847075Y741154I29747J78250D01*
G03X-3948114Y829355I-83473J6351D01*
G03X-3963407Y864778I-82435J-14577D01*
G03X-3960295Y869254I-67142J50000D01*
G03X-3886172Y876519I29747J78250D01*
G03X-3847173Y939970I-44375J70985D01*
G03X-3811386Y925752I136284J290870D01*
G03X-3736342Y863991I80838J21753D01*
G03X-3653487Y914797I5794J83513D01*
G03X-3611305Y925453I-57402J316043D01*
G03X-3553248Y866927I80757J22052D01*
G03X-3484588Y763654I52699J-39424D01*
G03X-3472600Y887088I-15961J63849D01*
G03X-3476380Y1011332I-57947J60417D01*
G03X-3409512Y1119709I-234509J219508D01*
G03X-3281841Y1079418I78965J27796D01*
G03X-3278736Y1213260I-48706J68087D01*
G03X-3276910Y1283231I-66316J36741D01*
G03X-3292345Y1421994I-53637J64274D01*
G03X-3414042Y1353560I-38202J-74489D01*
G03X-3501218Y1474184I-296847J-122720D01*
G03X-3443093Y1490361I8125J83319D01*
G03X-3343093Y1490361I50000J67142D01*
G03X-3243092Y1490361I50000J67142D01*
G03X-3143092Y1490361I50000J67142D01*
G03X-3043092Y1490361I50000J67142D01*
G03X-2943092Y1490361I50000J67142D01*
G03X-2843092Y1490361I50000J67142D01*
G03X-2743092Y1490361I50000J67142D01*
G03X-2643092Y1490361I50000J67142D01*
G03X-2543092Y1490361I50000J67142D01*
G03X-2443092Y1490361I50000J67142D01*
G03X-2343092Y1490361I50000J67142D01*
G03X-2243092Y1490361I50000J67142D01*
G03X-2143092Y1490361I50000J67142D01*
G03X-2043092Y1490361I50000J67142D01*
G03X-1943092Y1490361I50000J67142D01*
G03X-1843092Y1490361I50000J67142D01*
G03X-1743092Y1490361I50000J67142D01*
G03X-1643092Y1490361I50000J67142D01*
G03X-1543092Y1490361I50000J67142D01*
G03X-1443091Y1490361I50000J67142D01*
G03X-1343091Y1490361I50000J67142D01*
G03X-1243091Y1490361I50000J67142D01*
G03X-1143091Y1490361I50000J67142D01*
G03X-1043091Y1490361I50000J67142D01*
G03X-943091Y1490361I50000J67142D01*
G03X-843091Y1490361I50000J67142D01*
G03X-743091Y1490361I50000J67142D01*
G03X-643091Y1490361I50000J67142D01*
G03X-543091Y1490361I50000J67142D01*
G03X-443091Y1490361I50000J67142D01*
G03X-430415Y1482570I50000J67142D01*
G03X-489967Y1420727I199526J-251730D01*
G03X-608556Y1377876I-40578J-73222D01*
G03X-550160Y1266121I78010J-30372D01*
G03X-551682Y1247288I319271J-35281D01*
G03X-552094Y1228398I320793J-16448D01*
G03X-611199Y1125075I21548J-80893D01*
G03X-507237Y1067101I80653J22430D01*
G03X-412253Y965726I276348J163739D01*
G03X-358322Y868533I81707J-18221D01*
G03X-255422Y910564I27776J78972D01*
G03X-205694Y910616I24533J320276D01*
G03X-102599Y868593I75148J36889D01*
G03X-48930Y966134I-27947J78912D01*
G03X16663Y1026154I-181959J264706D01*
G03X22311Y1017503I72790J41348D01*
G03X22311Y917503I67142J-50000D01*
G03X22311Y817503I67142J-50000D01*
G03X22311Y717503I67142J-50000D01*
G03X22311Y617503I67142J-50000D01*
G03X16284Y526829I67142J-50000D01*
G03X-12089Y513099I21626J-80872D01*
G03X-48985Y528638I-50000J-67142D01*
G03X-137221Y630952I-81561J18866D01*
G03X-208070Y515913I6675J-83448D01*
G03X-233351Y489887I45980J-69956D01*
G03X-394009Y463994I-77196J-32384D01*
G03X-239286Y413572I83462J-6491D01*
G03X-229247Y395977I77196J32384D01*
G03X-229247Y296019I67157J-49979D01*
G03X-243785Y227770I67157J-49979D01*
G03X-280381Y227773I-18304J-81689D01*
G03X-336034Y315558I-50166J29730D01*
G03X-374256Y218901I5487J-58055D01*
G03X-404994Y109223I43710J-71397D01*
G03X-297905Y70416I74449J38281D01*
G03X-292594Y68123I35816J75666D01*
G03X-162089Y23939I80504J22959D01*
G03X-62089Y23939I50000J67142D01*
G03X37911Y23939I50000J67142D01*
G03X117897Y12922I50000J67142D01*
G01X117897Y-12922D01*
G03X37911Y-23939I-29986J-78159D01*
G03X-62089Y-23939I-50000J-67142D01*
G03X-162089Y-23939I-50000J-67142D01*
G03X-285291Y-50467I-50000J-67142D01*
G03X-242593Y-169040I73202J-40614D01*
G03X-229246Y-196061I80504J22958D01*
G03X-245207Y-236073I67158J-49979D01*
G03X-350336Y-304642I-22296J-80690D01*
G03X-397409Y-328279I12121J-82832D01*
G03X-421046Y-375352I59195J-59195D01*
G03X-491757Y-446063I12121J-82832D01*
G03X-549806Y-483242I12121J-82832D01*
G03X-657506Y-476753I-57700J-60653D01*
G03X-788011Y-520937I-50000J-67142D01*
G03X-834235Y-565417I30504J-77959D01*
G03X-835404Y-629556I76728J-33478D01*
G03X-916749Y-706041I-29133J-50516D01*
G03X-806674Y-687317I52212J25969D01*
G03X-652375Y-682452I76128J34821D01*
G03X-612516Y-669492I-5132J83557D01*
G03X-534642Y-736110I81971J16996D01*
G03X-450629Y-677423I4096J83614D01*
G03X-396804Y-611016I-29007J78528D01*
G03X-326093Y-540305I-12121J82832D01*
G03X-279020Y-516668I-12121J82832D01*
G03X-255383Y-469595I-59195J59195D01*
G03X-243152Y-466857I-12121J82832D01*
G03X-189942Y-524901I81063J20900D01*
G03X-112089Y-513099I27853J78945D01*
G03X-12089Y-513099I50000J67142D01*
G03X6230Y-523444I50000J67142D01*
G03X22311Y-582498I83223J-9054D01*
G03X22311Y-682498I67142J-50000D01*
G03X22311Y-782498I67142J-50000D01*
G03X22311Y-882498I67142J-50000D01*
G03X22311Y-982498I67142J-50000D01*
G03X6054Y-1039753I67142J-50000D01*
G03X-60067Y-1007321I-81602J-82746D01*
G03X-171116Y-979271I-70478J-45176D01*
G03X-249886Y-874902I-119431J-8229D01*
G03X-354326Y-772231I-80660J22406D01*
G03X-385982Y-915225I23781J-80265D01*
G03X-371652Y-1075553I95435J-72274D01*
G03X-210689Y-1076685I81105J88053D01*
G03X-191117Y-1110281I80143J24188D01*
G03X13630Y-1197018I115570J-12218D01*
G03X22311Y-1282498I75823J-35481D01*
G03X22311Y-1382499I67142J-50000D01*
G03X22311Y-1482499I67142J-50000D01*
G03X6629Y-1520323I67142J-50000D01*
G03X-191523Y-1609943I-82177J-82175D01*
G03X16462Y-1673490I115975J7445D01*
G03X22311Y-1682499I72991J40992D01*
G03X22311Y-1782499I67142J-50000D01*
G03X22311Y-1882499I67142J-50000D01*
G03X22311Y-1982499I67142J-50000D01*
G03X5741Y-2031940I67142J-50000D01*
G03X-454164Y-2018234I-236630J-217220D01*
G03X-600533Y-2006565I-76381J-34263D01*
G03X-531587Y-2136205I69988J-45932D01*
G03X-542090Y-2169583I300698J-112955D01*
G03X-614254Y-2253429I11544J-82914D01*
G03X-540240Y-2335648I83709J932D01*
G03X-528992Y-2368798I309351J86488D01*
G03X-598596Y-2403741I-1554J-83700D01*
G03X-609299Y-2480885I68051J-48756D01*
G03X-640665Y-2495357I18635J-81614D01*
G03X-654313Y-2487090I-50000J-67142D01*
G03X-727197Y-2368850I-76233J34592D01*
G03X-809299Y-2480885I-3348J-83647D01*
G03X-840665Y-2495357I18635J-81614D01*
G03X-854313Y-2487090I-50000J-67142D01*
G03X-927197Y-2368850I-76233J34592D01*
G03X-1009300Y-2480885I-3348J-83647D01*
G03X-1040665Y-2495357I18635J-81614D01*
G03X-1054313Y-2487090I-50000J-67142D01*
G03X-1127197Y-2368850I-76233J34592D01*
G03X-1209300Y-2480885I-3348J-83647D01*
G03X-1240665Y-2495357I18635J-81614D01*
G03X-1254313Y-2487090I-50000J-67142D01*
G03X-1327198Y-2368850I-76233J34592D01*
G03X-1409300Y-2480885I-3348J-83647D01*
G03X-1440665Y-2495357I18635J-81614D01*
G03X-1454313Y-2487090I-50000J-67142D01*
G03X-1527198Y-2368850I-76233J34592D01*
G03X-1609300Y-2480885I-3348J-83647D01*
G03X-1640665Y-2495357I18635J-81614D01*
G03X-1654314Y-2487090I-50000J-67142D01*
G03X-1727198Y-2368850I-76233J34592D01*
G03X-1809300Y-2480885I-3348J-83647D01*
G03X-1840665Y-2495357I18635J-81614D01*
G03X-1854314Y-2487090I-50000J-67142D01*
G03X-1927198Y-2368850I-76233J34592D01*
G03X-2009300Y-2480885I-3348J-83647D01*
G03X-2040666Y-2495357I18635J-81614D01*
G03X-2140666Y-2495357I-50000J-67142D01*
G03X-2240666Y-2495357I-50000J-67142D01*
G03X-2340666Y-2495357I-50000J-67142D01*
G03X-2440666Y-2495357I-50000J-67142D01*
G03X-2540666Y-2495357I-50000J-67142D01*
G03X-2640666Y-2495357I-50000J-67142D01*
G03X-2740666Y-2495357I-50000J-67142D01*
G03X-2840666Y-2495357I-50000J-67142D01*
G03X-2940666Y-2495357I-50000J-67142D01*
G03X-3040666Y-2495357I-50000J-67142D01*
G03X-3140666Y-2495357I-50000J-67142D01*
G03X-3240666Y-2495357I-50000J-67142D01*
G03X-3340666Y-2495357I-50000J-67142D01*
G03X-3440666Y-2495357I-50000J-67142D01*
G03X-3486388Y-2478894I-50000J-67142D01*
G03X-3460675Y-2047737I-224501J229734D01*
G03X-3887375Y-1980774I-250215J-201423D01*
G03X-3948114Y-1970647I-43172J-71723D01*
G03X-3963407Y-1935224I-82435J-14577D01*
G03X-3960295Y-1930747I-67142J50000D01*
G03X-3847075Y-1858848I29747J78250D01*
G03X-3948114Y-1770647I-83473J6351D01*
G03X-3963407Y-1735224I-82435J-14577D01*
G03X-3960295Y-1730747I-67142J50000D01*
G03X-3847075Y-1658848I29747J78250D01*
G03X-3948114Y-1570647I-83473J6351D01*
G03X-3963407Y-1535224I-82435J-14577D01*
G03X-3963407Y-1435224I-67142J50000D01*
G03X-3963407Y-1335224I-67142J50000D01*
G03X-3960295Y-1330747I-67142J50000D01*
G03X-3872608Y-1312920I29747J78250D01*
G03X-3851118Y-1226058I-57940J60424D01*
G03X-3808471Y-1221904I16065J56058D01*
G03X-3664839Y-1304366I77924J-30593D01*
G03X-3778396Y-1183805I-65708J51870D01*
G03X-3831973Y-1111768I-56657J13805D01*
G03X-3892850Y-1177751I-3080J-58233D01*
G03X-3948114Y-1170646I-37698J-74746D01*
G03X-3963407Y-1135223I-82435J-14577D01*
G03X-3960295Y-1130747I-67142J50000D01*
G03X-3847075Y-1058847I29747J78250D01*
G03X-3948114Y-970646I-83473J6351D01*
G03X-3963407Y-935223I-82435J-14577D01*
G03X-3960295Y-930747I-67142J50000D01*
G03X-3847075Y-858847I29747J78250D01*
G03X-3948114Y-770646I-83473J6351D01*
G03X-3963407Y-735223I-82435J-14577D01*
G03X-3960295Y-730747I-67142J50000D01*
G03X-3847075Y-658847I29747J78250D01*
G03X-3948114Y-570646I-83473J6351D01*
G03X-3963407Y-535223I-82435J-14577D01*
G03X-3955484Y-522281I-67142J50000D01*
G03X-3872785Y-512359I32699J77064D01*
G03X-3772785Y-512359I50000J67142D01*
G03X-3663600Y-504421I50000J67142D01*
G03X-3655628Y-395238I-59186J59204D01*
G03X-3655628Y-295279I-67157J49979D01*
G03X-3641089Y-227030I-67157J49979D01*
G03X-3610649Y-228172I18304J81689D01*
G03X-3528260Y-336179I80102J-24324D01*
G03X-3451893Y-223833I-2287J83683D01*
G03X-3410649Y-228172I29108J78491D01*
G03X-3328260Y-336179I80102J-24324D01*
G03X-3251893Y-223833I-2287J83683D01*
G03X-3210649Y-228172I29108J78491D01*
G03X-3128683Y-336189I80102J-24324D01*
G03X-3051607Y-224629I-1864J83693D01*
G03X-2959905Y-203141I30060J78131D01*
G03X-2830931Y-201893I63971J53998D01*
G03X-2693205Y-190609I65003J52751D01*
G03X-2672953Y-212359I70420J45267D01*
G03X-2715912Y-302273I39220J-73958D01*
G03X-2642427Y-369578I82179J15956D01*
G03X-2628366Y-419044I57375J-10422D01*
G01X-2628366Y-508652D01*
G01X-2656398Y-536684D01*
G03X-2694613Y-636155I3019J-58236D01*
G03X-2595143Y-597940I41234J41234D01*
G01X-2554425Y-557221D01*
G03X-2541738Y-526594I-30628J30628D01*
G01X-2541738Y-419044D01*
G03X-2537498Y-413751I-43314J39044D01*
G03X-2427954Y-464125I79039J27585D01*
G03X-2427122Y-534567I76354J-34325D01*
G03X-2409926Y-628513I76232J-34593D01*
G03X-2315889Y-645206I59036J59353D01*
G03X-2200631Y-592964I35000J76046D01*
G03X-2268768Y-486328I-80259J23804D01*
G03X-2382106Y-420491I-82832J-12121D01*
G03X-2423729Y-309997I-76354J34325D01*
G03X-2534443Y-351031I-34731J-76170D01*
G03X-2560601Y-327060I-50609J-28970D01*
G01X-2559744Y-325481D01*
G03X-2514833Y-263429I-13166J56808D01*
G03X-2570134Y-210425I-58078J-5244D01*
G03X-2542281Y-168301I-52652J65083D01*
G03X-2516473Y-28399I-30504J77959D01*
G03X-2653290Y-67383I-56312J-61943D01*
G03X-2695508Y-103875I30504J-77959D01*
G03X-2830931Y-96392I-70420J-45267D01*
G03X-2957576Y-92500I-65003J-52751D01*
G03X-3089372Y-97429I-63971J-53998D01*
G03X-3132084Y-17188I-83414J7087D01*
G03X-3222785Y-23200I-40701J-73154D01*
G03X-3322785Y-23200I-50000J-67142D01*
G03X-3372785Y-6628I-50000J-67142D01*
G03X-3422785Y-23200I0J-83714D01*
G03X-3522785Y-23200I-50000J-67142D01*
G03X-3622785Y-23200I-50000J-67142D01*
G03X-3672785Y-6628I-50000J-67142D01*
G03X-3722785Y-23200I0J-83714D01*
G03X-3822785Y-23200I-50000J-67142D01*
G03X-3922785Y-23200I-50000J-67142D01*
G03X-4053290Y-67383I-50000J-67142D01*
G03X-4059675Y-70194I30504J-77959D01*
G37*
%LPC*%
G36*
G01X-3814261Y747504D02*
G03X-3646833Y747504I83714J0D01*
G03X-3814261Y747504I-83714J0D01*
G37*
G36*
G01X-3814261Y-1052496D02*
G03X-3646833Y-1052496I83714J0D01*
G03X-3814261Y-1052496I-83714J0D01*
G37*
G36*
G01X-3814261Y-852496D02*
G03X-3646833Y-852496I83714J0D01*
G03X-3814261Y-852496I-83714J0D01*
G37*
G36*
G01X-3814261Y-1652497D02*
G03X-3646833Y-1652497I83714J0D01*
G03X-3814261Y-1652497I-83714J0D01*
G37*
G36*
G01X-3814261Y-652496D02*
G03X-3646833Y-652496I83714J0D01*
G03X-3814261Y-652496I-83714J0D01*
G37*
G36*
G01X-3414042Y172741D02*
G03X-3469104Y290646I-36506J54761D01*
G03X-3576982Y417159I-61443J56858D01*
G03X-3501697Y268918I46435J-69655D01*
G03X-3414042Y172741I51149J-41416D01*
G37*
G36*
G01X-3614261Y547504D02*
G03X-3446833Y547504I83714J0D01*
G03X-3614261Y547504I-83714J0D01*
G37*
G36*
G01X-3614261Y-1052496D02*
G03X-3446833Y-1052496I83714J0D01*
G03X-3614261Y-1052496I-83714J0D01*
G37*
G36*
G01X-3614261Y-1852497D02*
G03X-3446833Y-1852497I83714J0D01*
G03X-3614261Y-1852497I-83714J0D01*
G37*
G36*
G01X-3614261Y-1652497D02*
G03X-3446833Y-1652497I83714J0D01*
G03X-3614261Y-1652497I-83714J0D01*
G37*
G36*
G01X-3577196Y-922009D02*
G03X-3467996Y-796860I46649J69512D01*
G03X-3397286Y-747971I12944J56859D01*
G03X-3452115Y-681760I-57767J7971D01*
G03X-3585232Y-589112I-78433J29264D01*
G03X-3513095Y-734371I54685J-63384D01*
G03X-3502766Y-773527I58042J-5629D01*
G03X-3577196Y-922009I-27781J-78970D01*
G37*
G36*
G01X-3414261Y947505D02*
G03X-3246833Y947505I83714J0D01*
G03X-3414261Y947505I-83714J0D01*
G37*
G36*
G01X-3374915Y476515D02*
G03X-3246900Y550849I44368J70990D01*
G03X-3236181Y698492I-33649J76654D01*
G03X-3364196Y624158I-44368J-70990D01*
G03X-3374915Y476515I33649J-76654D01*
G37*
G36*
G01X-3414261Y-852496D02*
G03X-3246833Y-852496I83714J0D01*
G03X-3414261Y-852496I-83714J0D01*
G37*
G36*
G01X-3414261Y-1852497D02*
G03X-3246833Y-1852497I83714J0D01*
G03X-3414261Y-1852497I-83714J0D01*
G37*
G36*
G01X-3414261Y-1652497D02*
G03X-3246833Y-1652497I83714J0D01*
G03X-3414261Y-1652497I-83714J0D01*
G37*
G36*
G01X-3414261Y-652496D02*
G03X-3246833Y-652496I83714J0D01*
G03X-3414261Y-652496I-83714J0D01*
G37*
G36*
G01X-2560361Y621388D02*
G03X-2610593Y605150I0J-85814D01*
G01X-2702288Y605150D01*
G03X-2702288Y433522I0J-85814D01*
G01X-2606509Y433522D01*
G03X-2515893Y364556I82475J14352D01*
G03X-2440341Y449760I-8142J83317D01*
G01X-2003832Y449760D01*
G03X-2003804Y445281I58284J-1886D01*
G03X-2003434Y440817I58256J2593D01*
G01X-2308750Y440817D01*
G03X-2339377Y428130I0J-43314D01*
G01X-2466564Y300944D01*
G03X-2487883Y189716I3019J-58236D01*
G03X-2533202Y159644I21118J-81007D01*
G03X-2615531Y167051I-47688J-68803D01*
G03X-2640671Y173777I-33944J-76524D01*
G01X-2640969Y174595D01*
G03X-2582990Y300647I-13578J82606D01*
G03X-2721575Y307354I-71557J-43446D01*
G03X-2797991Y296720I-27969J-78904D01*
G03X-2833256Y228099I48448J-68270D01*
G03X-2869475Y212669I13782J-82572D01*
G03X-2969475Y212669I-50000J-67142D01*
G03X-3069475Y212669I-50000J-67142D01*
G03X-3119475Y229241I-50000J-67142D01*
G03X-3169475Y212669I0J-83714D01*
G03X-3269475Y212669I-50000J-67142D01*
G03X-3392677Y186141I-50000J-67142D01*
G03X-3349979Y67569I73202J-40614D01*
G03X-3296320Y11234I80504J22959D01*
G03X-3219475Y23385I26845J79293D01*
G03X-3119475Y23385I50000J67142D01*
G03X-3019475Y23385I50000J67142D01*
G03X-2942629Y11234I50000J67142D01*
G03X-2888970Y67569I-26845J79293D01*
G03X-2869475Y78385I-30504J77958D01*
G03X-2849979Y67569I50000J67142D01*
G03X-2832250Y35144I80504J22959D01*
G03X-2762789Y-60460I82707J-12945D01*
G03X-2666932Y8654I13245J82660D01*
G03X-2614833Y14317I17458J81874D01*
G03X-2514454Y39906I33944J76524D01*
G03X-2444260Y28077I47688J68803D01*
G03X-2406968Y-42163I83712J-575D01*
G03X-2292808Y-104962I82420J14664D01*
G03X-2276924Y-144245I83025J10717D01*
G03X-2289075Y-221090I67142J-50000D01*
G03X-2232741Y-274749I79293J26845D01*
G03X-2138870Y-326433I77959J30504D01*
G03X-2088011Y-384691I81363J19701D01*
G03X-1951194Y-423676I80504J22959D01*
G03X-1977003Y-283774I-56312J61943D01*
G03X-2036342Y-225738I-80504J-22959D01*
G03X-2012089Y-213223I-25747J79656D01*
G03X-1918526Y-217568I50000J67142D01*
G03X-1916886Y-224276I82072J16501D01*
G03X-1923742Y-336476I58497J-59884D01*
G03X-1812762Y-354347I65353J52316D01*
G03X-1780627Y-384334I71179J44064D01*
G03X-1728954Y-441886I81082J20827D01*
G03X-1652177Y-432532I29409J78378D01*
G03X-1535027Y-403621I44671J70800D01*
G03X-1568463Y-287681I-72480J41889D01*
G03X-1696913Y-239483I-81082J-20827D01*
G03X-1757204Y-228039I-44671J-70800D01*
G03X-1778554Y-140605I-79250J26973D01*
G03X-1831584Y-68123I-83535J-5477D01*
G03X-1885243Y-11788I-80504J-22958D01*
G03X-1962089Y-23939I-26845J-79293D01*
G03X-2092593Y-68123I-50000J-67142D01*
G03X-2107055Y-75469I30504J-77959D01*
G03X-2131824Y-63741I-47728J-68776D01*
G03X-2241523Y-16781I-77959J-30504D01*
G03X-2255118Y19272I-83025J-10717D01*
G03X-2131585Y68123I43029J71809D01*
G03X-2112089Y78939I-30504J77959D01*
G03X-2092594Y68123I50000J67142D01*
G03X-1962089Y23939I80504J22959D01*
G03X-1862089Y23939I50000J67142D01*
G03X-1762089Y23939I50000J67142D01*
G03X-1685244Y11788I50000J67142D01*
G03X-1631585Y68123I-26845J79293D01*
G03X-1613713Y214402I-30504J77959D01*
G03X-1685073Y326063I-78794J28278D01*
G03X-1775059Y228785I-7433J-83383D01*
G03X-1812089Y213223I12970J-82703D01*
G03X-1912089Y213223I-50000J-67142D01*
G03X-2012089Y213223I-50000J-67142D01*
G03X-2112089Y213223I-50000J-67142D01*
G03X-2180382Y227772I-50000J-67142D01*
G03X-2261075Y307188I-50166J29730D01*
G03X-2226697Y199316I30527J-49685D01*
G03X-2242593Y169040I64608J-53234D01*
G03X-2295011Y79588I30504J-77959D01*
G03X-2383054Y108135I-65538J-52085D01*
G03X-2441780Y188608I-83712J575D01*
G03X-2405309Y239689I-21764J54100D01*
G01X-2290809Y354189D01*
G01X-1758453Y354189D01*
G03X-1672496Y365464I37905J44314D01*
G03X-1692740Y449760I-48051J33039D01*
G01X-1426881Y449760D01*
G03X-1329868Y588182I36333J77743D01*
G01X-1337939Y596253D01*
G03X-1398619Y621388I-60680J-60680D01*
G01X-2035358Y621388D01*
G03X-2027668Y713507I-68681J52115D01*
G03X-2027668Y793517I-76372J40005D01*
G03X-2043071Y894481I-76372J40005D01*
G03X-2144032Y909901I-60968J-60958D01*
G03X-2224029Y909894I-39992J-76379D01*
G03X-2304027Y909901I-40005J-76372D01*
G03X-2404987Y894481I-39992J-76379D01*
G03X-2420391Y793517I60968J-60958D01*
G03X-2420391Y713507I76372J-40005D01*
G03X-2412700Y621388I76372J-40005D01*
G01X-2560361Y621388D01*
G37*
G36*
G01X-3360867Y-2150001D02*
G03X-3229239Y-2150001I65814J0D01*
G03X-3360867Y-2150001I-65814J0D01*
G37*
G36*
G01X-3348863Y-2312499D02*
G03X-3232235Y-2312499I58314J0D01*
G03X-3348863Y-2312499I-58314J0D01*
G37*
G36*
G01X-3214261Y-1252497D02*
G03X-3046833Y-1252497I83714J0D01*
G03X-3214261Y-1252497I-83714J0D01*
G37*
G36*
G01X-3214261Y-452496D02*
G03X-3046833Y-452496I83714J0D01*
G03X-3214261Y-452496I-83714J0D01*
G37*
G36*
G01X-2999384Y-2427791D02*
G03X-3073363Y-2341711I-47162J34296D01*
G03X-3178051Y-2297864I-57527J9551D01*
G03X-3104073Y-2383943I47162J-34296D01*
G03X-2999384Y-2427791I57527J-9551D01*
G37*
G36*
G01X-3144604Y770841D02*
G03X-2977176Y770841I83714J0D01*
G03X-3144604Y770841I-83714J0D01*
G37*
G36*
G01X-3030926Y336656D02*
G03X-2912354Y379354I40614J73202D01*
G03X-2851598Y459858I-22959J80504D01*
G03X-2912354Y540362I-83714J0D01*
G03X-3030926Y583060I-77958J-30504D01*
G03X-3057454Y459858I40614J-73202D01*
G03X-3030926Y336656I67142J-50000D01*
G37*
G36*
G01X-3014261Y-1852497D02*
G03X-2846833Y-1852497I83714J0D01*
G03X-3014261Y-1852497I-83714J0D01*
G37*
G36*
G01X-2863258Y-1602695D02*
G03X-3007778Y-1684797I-67289J-49802D01*
G03X-2847838Y-1639565I77232J32301D01*
G03X-2697631Y-1601284I67289J49802D01*
G03X-2582152Y-1589763I57165J11521D01*
G03X-2697631Y-1578242I-58314J0D01*
G03X-2742012Y-1515446I-82918J-11521D01*
G03X-2724372Y-1379066I-38539J74316D01*
G03X-2858326Y-1410162I-56179J-62064D01*
G03X-3014022Y-1458822I-72221J-42334D01*
G03X-2852772Y-1483465I83475J6325D01*
G03X-2819087Y-1515448I72221J42334D01*
G03X-2863258Y-1602695I38539J-74316D01*
G37*
G36*
G01X-2282403Y-1688219D02*
G03X-2161466Y-1669782I51855J65720D01*
G03X-2139630Y-1669782I10918J57283D01*
G03X-1990548Y-1647157I69082J47283D01*
G03X-1922264Y-1705389I80000J24658D01*
G03X-1840516Y-1668363I11716J82890D01*
G03X-1763823Y-1627090I19967J54789D01*
G03X-1813665Y-1555668I-56726J13516D01*
G01X-1823031Y-1546302D01*
G03X-1855332Y-1456205I-47517J33803D01*
G03X-1928624Y-1517760I-15216J-56294D01*
G01X-1992472Y-1517760D01*
G03X-1992499Y-1506947I-58076J5262D01*
G03X-1960213Y-1412718I-12554J56947D01*
G03X-2058752Y-1427266I-44839J-37283D01*
G03X-2074473Y-1411880I-47917J-33234D01*
G03X-2056961Y-1375089I-40579J41879D01*
G03X-2067810Y-1335815I-58092J5089D01*
G01X-1923099Y-1335815D01*
G01X-1868455Y-1390459D01*
G03X-1817803Y-1441435I57906J6884D01*
G03X-1764971Y-1510645I57255J-11063D01*
G03X-1702278Y-1450223I4423J58146D01*
G03X-1658015Y-1367183I-8270J57725D01*
G03X-1562305Y-1319615I37467J44685D01*
G03X-1506272Y-1224548I11757J57117D01*
G03X-1608790Y-1265382I-44275J-37950D01*
G03X-1673080Y-1347814I-11757J-57117D01*
G03X-1757911Y-1358480I-37467J-44685D01*
G03X-1803665Y-1325668I-52638J-25095D01*
G01X-1837909Y-1291423D01*
G01X-1704430Y-1291423D01*
G03X-1679105Y-1280934I0J35814D01*
G01X-1595223Y-1197052D01*
G03X-1584734Y-1171727I-25324J25324D01*
G01X-1584734Y-1114645D01*
G03X-1448801Y-1104924I67619J9721D01*
G03X-1584734Y-1095203I-68314J0D01*
G01X-1584734Y-912498D01*
G03X-1595223Y-887174I-35814J0D01*
G01X-1595862Y-886536D01*
G03X-1621186Y-876046I-25324J-25324D01*
G01X-1650977Y-876046D01*
G03X-1625167Y-783787I-53212J64626D01*
G03X-1702847Y-727717I-79022J-27633D01*
G03X-1683033Y-610134I-48042J68556D01*
G03X-1800889Y-592018I-67856J-49026D01*
G03X-1900889Y-592018I-50000J-67142D01*
G03X-2000889Y-592018I-50000J-67142D01*
G03X-2105131Y-595396I-50000J-67142D01*
G03X-2125179Y-697748I54242J-63764D01*
G03X-2153157Y-713402I26130J-79532D01*
G03X-2225593Y-685424I-51895J-26598D01*
G03X-2261607Y-754218I20540J-54577D01*
G03X-2281528Y-775260I31057J-49356D01*
G01X-2328259Y-775260D01*
G03X-2358887Y-787946I0J-43314D01*
G01X-2406880Y-835939D01*
G03X-2485545Y-785406I-58173J-4061D01*
G03X-2511528Y-875221I20493J-54595D01*
G01X-2595525Y-959218D01*
G03X-2651118Y-932003I-49527J-30783D01*
G03X-2699877Y-970132I6066J-57998D01*
G03X-2727139Y-928035I-80671J-22366D01*
G03X-2697464Y-873813I-53411J64462D01*
G03X-2582241Y-860113I56918J12682D01*
G03X-2697872Y-850442I-58305J-1017D01*
G03X-2743361Y-788574I-82678J-13132D01*
G03X-2780550Y-629860I-37189J75000D01*
G03X-2817739Y-788574I0J-83714D01*
G03X-2863703Y-853902I37189J-75000D01*
G03X-2833960Y-928037I83154J-9671D01*
G03X-2857669Y-1025063I53411J-64462D01*
G03X-2771594Y-1075732I77121J32565D01*
G03X-2773336Y-1091887I56541J-14269D01*
G01X-2841911Y-1091887D01*
G01X-2846817Y-1086981D01*
G03X-2923021Y-1034524I-58236J-3020D01*
G03X-2954001Y-1121696I17968J-55477D01*
G03X-3003809Y-1211991I-1052J-58305D01*
G03X-2972395Y-1325000I73262J-40506D01*
G03X-2858826Y-1295673I41848J72504D01*
G03X-2764472Y-1339388I58276J2099D01*
G01X-2519526Y-1339388D01*
G01X-2364405Y-1494509D01*
G03X-2411783Y-1593733I-6143J-57990D01*
G03X-2312559Y-1546356I41234J41234D01*
G01X-2292604Y-1566310D01*
G03X-2282403Y-1688219I62056J-56188D01*
G37*
G36*
G01X-2959464Y688780D02*
G03X-2811699Y635251I83713J372D01*
G03X-2669254Y661670I63570J54469D01*
G03X-2562000Y669924I48705J68087D01*
G03X-2448414Y763700I31453J77580D01*
G03X-2589096Y807338I-82133J-16195D01*
G03X-2699424Y757807I-31453J-77580D01*
G03X-2812181Y743622I-48705J-68087D01*
G03X-2959464Y688780I-63570J-54469D01*
G37*
G36*
G01X-2931861Y-2140495D02*
G03X-2815233Y-2140495I58314J0D01*
G03X-2931861Y-2140495I-58314J0D01*
G37*
G36*
G01X-2863867Y-554920D02*
G03X-2747239Y-554920I58314J0D01*
G03X-2863867Y-554920I-58314J0D01*
G37*
G36*
G01X-2843366Y-380000D02*
G03X-2726738Y-380000I58314J0D01*
G03X-2843366Y-380000I-58314J0D01*
G37*
G36*
G01X-2683622Y1145086D02*
G03X-2816862Y1143288I-65937J-51579D01*
G03X-2779576Y1015359I67304J-49782D01*
G03X-2719737Y864491I49029J-67854D01*
G03X-2700529Y1025652I-10810J83013D01*
G03X-2678857Y1048681I-49029J67854D01*
G03X-2590929Y1089521I30309J49818D01*
G03X-2453235Y1179612I60382J57983D01*
G03X-2614240Y1145653I-77312J-32108D01*
G03X-2683622Y1145086I-34307J-47155D01*
G37*
G36*
G01X-2808833Y1325646D02*
G03X-2702449Y1294533I58284J1857D01*
G03X-2603458Y1306372I45902J35966D01*
G03X-2447585Y1358702I72912J41133D01*
G03X-2611754Y1367836I-82962J-11197D01*
G03X-2704646Y1363469I-44793J-37338D01*
G03X-2808833Y1325646I-45902J-35966D01*
G37*
G36*
G01X-2758862Y-2012499D02*
G03X-2642234Y-2012499I58314J0D01*
G03X-2758862Y-2012499I-58314J0D01*
G37*
G36*
G01X-2614261Y947505D02*
G03X-2446833Y947505I83714J0D01*
G03X-2614261Y947505I-83714J0D01*
G37*
G36*
G01X-2614261Y-1852497D02*
G03X-2446833Y-1852497I83714J0D01*
G03X-2614261Y-1852497I-83714J0D01*
G37*
G36*
G01X-2488862Y-2162499D02*
G03X-2372234Y-2162499I58314J0D01*
G03X-2488862Y-2162499I-58314J0D01*
G37*
G36*
G01X-2474262Y-1722499D02*
G03X-2306834Y-1722499I83714J0D01*
G03X-2474262Y-1722499I-83714J0D01*
G37*
G36*
G01X-2418849Y1267504D02*
G03X-2267221Y1267504I75814J0D01*
G03X-2418849Y1267504I-75814J0D01*
G37*
G36*
G01X-2398862Y-1912499D02*
G03X-2282234Y-1912499I58314J0D01*
G03X-2398862Y-1912499I-58314J0D01*
G37*
G36*
G01X-2214260Y-2252497D02*
G03X-2046832Y-2252497I83714J0D01*
G03X-2214260Y-2252497I-83714J0D01*
G37*
G36*
G01X-2211258Y1267502D02*
G03X-2043830Y1267502I83714J0D01*
G03X-2211258Y1267502I-83714J0D01*
G37*
G36*
G01X-1924977Y1063976D02*
G03X-1924825Y1231023I-5569J83529D01*
G03X-1945093Y1365666I-15723J66480D01*
G03X-1947305Y1229524I4545J-68163D01*
G03X-1924977Y1063976I16759J-82019D01*
G37*
G36*
G01X-1974262Y817503D02*
G03X-1806834Y817503I83714J0D01*
G03X-1974262Y817503I-83714J0D01*
G37*
G36*
G01X-1801676Y791647D02*
G03X-1742244Y664612I71130J-44142D01*
G03X-1649978Y770239I11698J82893D01*
G03X-1675404Y884518I-71130J44142D01*
G03X-1736466Y1031009I-55142J62987D01*
G03X-1776251Y877368I5920J-83504D01*
G03X-1801676Y791647I55142J-62987D01*
G37*
G36*
G01X-1814260Y1347505D02*
G03X-1646832Y1347505I83714J0D01*
G03X-1814260Y1347505I-83714J0D01*
G37*
G36*
G01X-1814260Y-2252497D02*
G03X-1646832Y-2252497I83714J0D01*
G03X-1814260Y-2252497I-83714J0D01*
G37*
G36*
G01X-1798862Y-2092499D02*
G03X-1682234Y-2092499I58314J0D01*
G03X-1798862Y-2092499I-58314J0D01*
G37*
G36*
G01X-1557506Y-476753D02*
G03X-1680708Y-503281I-50000J-67142D01*
G03X-1638011Y-621853I73202J-40614D01*
G03X-1507506Y-666037I80504J22958D01*
G03X-1407506Y-666037I50000J67142D01*
G03X-1319514Y-673492I50000J67142D01*
G03X-1268849Y-780060I78969J-27784D01*
G03X-1161949Y-730097I28303J78784D01*
G03X-1097164Y-729267I31403J77601D01*
G03X-1052375Y-682452I-33382J76771D01*
G03X-977002Y-621853I-5132J83557D01*
G03X-934304Y-503281I-30505J77958D01*
G03X-1057506Y-476753I-73202J-40614D01*
G03X-1157506Y-476753I-50000J-67142D01*
G03X-1291125Y-547889I-50000J-67142D01*
G03X-1304045Y-534475I-66381J-51006D01*
G03X-1288314Y-443217I-60865J57476D01*
G03X-1272175Y-437625I-19193J81484D01*
G03X-1257507Y-428874I-35332J75893D01*
G03X-1157507Y-428874I50000J67142D01*
G03X-1107507Y-445446I50000J67142D01*
G03X-1057507Y-428874I0J83714D01*
G03X-957507Y-428874I50000J67142D01*
G03X-857507Y-428874I50000J67142D01*
G03X-757507Y-428874I50000J67142D01*
G03X-707507Y-445446I50000J67142D01*
G03X-657507Y-428874I0J83714D01*
G03X-567072Y-435034I50000J67142D01*
G03X-524044Y-355254I-40434J73302D01*
G03X-498194Y-301680I-57552J60793D01*
G03X-514454Y-244461I-83402J7219D01*
G03X-507831Y-154878I-67142J50000D01*
G03X-586140Y-110870I-73765J-39583D01*
G03X-631584Y-68123I-75949J-35211D01*
G03X-685243Y-11788I-80504J-22958D01*
G03X-762089Y-23939I-26845J-79293D01*
G03X-862089Y-23939I-50000J-67142D01*
G03X-962089Y-23939I-50000J-67142D01*
G03X-1062089Y-23939I-50000J-67142D01*
G03X-1162089Y-23939I-50000J-67142D01*
G03X-1292593Y-68123I-50000J-67142D01*
G03X-1310456Y-77754I30505J-77958D01*
G03X-1309736Y-23173I-78773J28334D01*
G03X-1309736Y29320I-79493J26247D01*
G03X-1309736Y81813I-79493J26247D01*
G03X-1306017Y117213I-79493J26247D01*
G03X-1180126Y164255I45469J70289D01*
G03X-1117421Y299495I-3224J83652D01*
G03X-1263772Y271154I-65930J-51588D01*
G03X-1343760Y178349I3224J-83652D01*
G03X-1379394Y191194I-45469J-70289D01*
G03X-1482430Y201548I-58095J-60274D01*
G03X-1516698Y103827I44941J-70628D01*
G03X-1516698Y49640I79209J-27093D01*
G03X-1521119Y18791I79209J-27093D01*
G03X-1586867Y-66118I17908J-81776D01*
G03X-1636715Y-184016I24778J-79963D01*
G03X-1512089Y-213223I74626J37934D01*
G03X-1472407Y-229157I50000J67142D01*
G03X-1510627Y-303881I16938J-55800D01*
G03X-1434583Y-339403I55158J18924D01*
G03X-1428082Y-351757I77076J32670D01*
G03X-1481683Y-394652I20906J-81061D01*
G03X-1485176Y-463214I74507J-38167D01*
G03X-1557506Y-476753I-22330J-80681D01*
G37*
G36*
G01X-1668862Y1257503D02*
G03X-1552234Y1257503I58314J0D01*
G03X-1668862Y1257503I-58314J0D01*
G37*
G36*
G01X-1624262Y717503D02*
G03X-1456834Y717503I83714J0D01*
G03X-1624262Y717503I-83714J0D01*
G37*
G36*
G01X-1614260Y947505D02*
G03X-1446832Y947505I83714J0D01*
G03X-1614260Y947505I-83714J0D01*
G37*
G36*
G01X-1614260Y347504D02*
G03X-1446832Y347504I83714J0D01*
G03X-1614260Y347504I-83714J0D01*
G37*
G36*
G01X-1614260Y-2052497D02*
G03X-1446832Y-2052497I83714J0D01*
G03X-1614260Y-2052497I-83714J0D01*
G37*
G36*
G01X-1614260Y-1652497D02*
G03X-1446832Y-1652497I83714J0D01*
G03X-1614260Y-1652497I-83714J0D01*
G37*
G36*
G01X-1583366Y-1840001D02*
G03X-1466738Y-1840001I58314J0D01*
G03X-1583366Y-1840001I-58314J0D01*
G37*
G36*
G01X-1380550Y-1524990D02*
G03X-1340972Y-1367509I0J83714D01*
G03X-1380550Y-1210027I-39578J73768D01*
G03X-1420128Y-1367509I0J-83714D01*
G03X-1380550Y-1524990I39578J-73768D01*
G37*
G36*
G01X-1220352Y-1188172D02*
G03X-1173301Y-1042357I-8594J83272D01*
G03X-1205763Y-916353I-67247J49859D01*
G03X-1322262Y-974310I-34784J-76145D01*
G03X-1438276Y-964251I-58286J1811D01*
G03X-1324086Y-987079I57728J-8247D01*
G03X-1296193Y-1055041I83539J-5419D01*
G03X-1220352Y-1188172I67247J-49859D01*
G37*
G36*
G01X-1414260Y-2252497D02*
G03X-1246832Y-2252497I83714J0D01*
G03X-1414260Y-2252497I-83714J0D01*
G37*
G36*
G01X-1414260Y-2052497D02*
G03X-1246832Y-2052497I83714J0D01*
G03X-1414260Y-2052497I-83714J0D01*
G37*
G36*
G01X-1170414Y476023D02*
G03X-1091538Y587783I-0J83714D01*
G03X-1050412Y597613I1134J86208D01*
G03X-924787Y663989I39992J76379D01*
G03X-846832Y747239I-5759J83516D01*
G03X-924258Y830982I-83714J265D01*
G03X-964493Y906975I-86162J3029D01*
G03X-1050412Y910390I-45927J-72964D01*
G03X-1130409Y910383I-39992J-76379D01*
G03X-1210407Y910390I-40005J-76372D01*
G03X-1311367Y894969I-39992J-76379D01*
G03X-1326771Y794006I60968J-60958D01*
G03X-1326771Y713996I76372J-40005D01*
G03X-1323874Y628886I76372J-40005D01*
G03X-1249290Y587783I73475J45105D01*
G03X-1170414Y476023I78876J-28046D01*
G37*
G36*
G01X-1214260Y-2052497D02*
G03X-1046832Y-2052497I83714J0D01*
G03X-1214260Y-2052497I-83714J0D01*
G37*
G36*
G01X-1214260Y-2252497D02*
G03X-1046832Y-2252497I83714J0D01*
G03X-1214260Y-2252497I-83714J0D01*
G37*
G36*
G01X-1150383Y1314868D02*
G03X-982955Y1314868I83714J0D01*
G03X-1150383Y1314868I-83714J0D01*
G37*
G36*
G01X-744032Y-921668D02*
G03X-888870Y-1002055I-66516J-50830D01*
G03X-987693Y-1087256I-36182J-57946D01*
G03X-1090333Y-1217393I-42016J-72406D01*
G03X-955336Y-1121235I60624J57730D01*
G03X-859637Y-1040308I30284J61235D01*
G03X-744032Y-921668I49090J67810D01*
G37*
G36*
G01X-812089Y7367D02*
G03X-762089Y23939I0J83714D01*
G03X-662089Y23939I50000J67142D01*
G03X-551487Y33328I50000J67142D01*
G03X-495700Y-45569I83714J22D01*
G03X-359608Y-97554I82768J12549D01*
G03X-385005Y45898I-53324J64534D01*
G03X-484185Y115440I-82768J-12549D01*
G03X-511246Y212587I-77905J30642D01*
G03X-612089Y213223I-50844J-66505D01*
G03X-712089Y213223I-50000J-67142D01*
G03X-812089Y213223I-50000J-67142D01*
G03X-878655Y228140I-50000J-67142D01*
G03X-977994Y326696I-82042J16648D01*
G03X-1029001Y196389I17298J-81907D01*
G03X-1042622Y123223I66912J-50307D01*
G03X-992594Y68123I80533J22859D01*
G03X-862089Y23939I80504J22959D01*
G03X-812089Y7367I50000J67142D01*
G37*
G36*
G01X-1014260Y1147505D02*
G03X-846832Y1147505I83714J0D01*
G03X-1014260Y1147505I-83714J0D01*
G37*
G36*
G01X-1014260Y-2052497D02*
G03X-846832Y-2052497I83714J0D01*
G03X-1014260Y-2052497I-83714J0D01*
G37*
G36*
G01X-936233Y1288735D02*
G03X-802304Y1304392I65685J18768D01*
G03X-650053Y1370503I71759J43113D01*
G03X-814250Y1346199I-80493J-22999D01*
G03X-936233Y1288735I-56298J-38696D01*
G37*
G36*
G01X-932085Y-837698D02*
G03X-815457Y-837698I58314J0D01*
G03X-932085Y-837698I-58314J0D01*
G37*
G36*
G01X-925819Y-2242160D02*
G03X-758391Y-2242160I83714J0D01*
G03X-925819Y-2242160I-83714J0D01*
G37*
G36*
G01X-898861Y-1852499D02*
G03X-782233Y-1852499I58314J0D01*
G03X-898861Y-1852499I-58314J0D01*
G37*
G36*
G01X-890341Y294472D02*
G03X-747967Y265623I79453J26369D01*
G03X-651093Y373873I17421J81881D01*
G03X-793467Y402722I-79453J-26369D01*
G03X-890341Y294472I-17421J-81881D01*
G37*
G36*
G01X-814260Y747504D02*
G03X-646832Y747504I83714J0D01*
G03X-814260Y747504I-83714J0D01*
G37*
G36*
G01X-814260Y1147505D02*
G03X-646832Y1147505I83714J0D01*
G03X-814260Y1147505I-83714J0D01*
G37*
G36*
G01X-814260Y947505D02*
G03X-646832Y947505I83714J0D01*
G03X-814260Y947505I-83714J0D01*
G37*
G36*
G01X-814260Y547504D02*
G03X-646832Y547504I83714J0D01*
G03X-814260Y547504I-83714J0D01*
G37*
G36*
G01X-814260Y-2052497D02*
G03X-646832Y-2052497I83714J0D01*
G03X-814260Y-2052497I-83714J0D01*
G37*
G36*
G01X-717813Y-1268001D02*
G03X-583046Y-1317702I82266J15503D01*
G03X-482463Y-1321025I52500J65206D01*
G03X-451368Y-1225311I-48083J68528D01*
G03X-469015Y-1012176I-54178J102812D01*
G03X-610379Y-1172657I-36532J-110323D01*
G03X-717813Y-1268001I-25168J-79841D01*
G37*
G36*
G01X-538940Y-1713811D02*
G03X-439495Y-1506880I33394J111313D01*
G03X-443791Y-1396644I-21052J54381D01*
G03X-508058Y-1486311I-16756J-55855D01*
G03X-538940Y-1713811I2511J-116187D01*
G37*
G36*
G01X-614260Y747504D02*
G03X-446831Y747504I83714J0D01*
G03X-614260Y747504I-83714J0D01*
G37*
G36*
G01X-614260Y947505D02*
G03X-446831Y947505I83714J0D01*
G03X-614260Y947505I-83714J0D01*
G37*
G36*
G01X-585283Y284165D02*
G03X-450228Y371109I54737J63339D01*
G03X-422418Y472624I-10319J57394D01*
G03X-518831Y430395I-38129J-44121D01*
G03X-585283Y284165I-11715J-82890D01*
G37*
G36*
G01X-614260Y-852496D02*
G03X-446831Y-852496I83714J0D01*
G03X-614260Y-852496I-83714J0D01*
G37*
G36*
G01X-518861Y607503D02*
G03X-402233Y607503I58314J0D01*
G03X-518861Y607503I-58314J0D01*
G37*
G36*
G01X-414260Y747504D02*
G03X-246831Y747504I83714J0D01*
G03X-414260Y747504I-83714J0D01*
G37*
G36*
G01X-358046Y-1931565D02*
G03X-253115Y-1820677I27501J79068D01*
G03X-260582Y-1651346I-37432J83179D01*
G03X-371518Y-1779495I-29965J-86152D01*
G03X-358046Y-1931565I40972J-73002D01*
G37*
G36*
G01X-366361Y-1552499D02*
G03X-234733Y-1552499I65814J0D01*
G03X-366361Y-1552499I-65814J0D01*
G37*
G36*
G01X-348861Y-1322498D02*
G03X-232233Y-1322498I58314J0D01*
G03X-348861Y-1322498I-58314J0D01*
G37*
G36*
G01X-326361Y-1182498D02*
G03X-194733Y-1182498I65814J0D01*
G03X-326361Y-1182498I-65814J0D01*
G37*
G36*
G01X-214259Y747504D02*
G03X-46831Y747504I83714J0D01*
G03X-214259Y747504I-83714J0D01*
G37*
G36*
G01X-214259Y-852496D02*
G03X-46831Y-852496I83714J0D01*
G03X-214259Y-852496I-83714J0D01*
G37*
G36*
G01X-214259Y-1852497D02*
G03X-46831Y-1852497I83714J0D01*
G03X-214259Y-1852497I-83714J0D01*
G37*
G36*
G01X-214259Y-652496D02*
G03X-46831Y-652496I83714J0D01*
G03X-214259Y-652496I-83714J0D01*
G37*
G36*
G01X-172894Y-1431019D02*
G03X-82413Y-1377921I32347J48520D01*
G03X-68200Y-1273978I-18134J55423D01*
G03X-158681Y-1327076I-32347J-48520D01*
G03X-172894Y-1431019I18134J-55423D01*
G37*
%LPD*%
G54D10*
G01X-4059675Y-70194D02*
G01X-4059675Y70190D01*
G03X-4053506Y67485I36674J75253D01*
G03X-3923001Y23302I80504J22959D01*
G03X-3823001Y23302I50000J67142D01*
G03X-3746156Y11151I50000J67142D01*
G03X-3692497Y67485I-26845J79293D01*
G03X-3673001Y78302I-30504J77958D01*
G03X-3541123Y128006I50000J67142D01*
G03X-3641305Y227132I-81878J17437D01*
G03X-3655844Y295381I-81696J18270D01*
G03X-3655844Y395340I-67157J49979D01*
G03X-3660747Y501288I-67157J49979D01*
G03X-3715827Y629914I-69800J46217D01*
G03X-3812031Y528311I-14721J-82410D01*
G03X-3850043Y524545I-10970J-82992D01*
G03X-3869420Y604701I-80504J22959D01*
G03X-3948114Y629355I-61127J-57197D01*
G03X-3963407Y664778I-82435J-14577D01*
G03X-3960295Y669254I-67142J50000D01*
G03X-3847075Y741154I29747J78250D01*
G03X-3948114Y829355I-83473J6351D01*
G03X-3963407Y864778I-82435J-14577D01*
G03X-3960295Y869254I-67142J50000D01*
G03X-3886172Y876519I29747J78250D01*
G03X-3847173Y939970I-44375J70985D01*
G03X-3811386Y925752I136284J290870D01*
G03X-3736342Y863991I80838J21753D01*
G03X-3653487Y914797I5794J83513D01*
G03X-3611305Y925453I-57402J316043D01*
G03X-3553248Y866927I80757J22052D01*
G03X-3484588Y763654I52699J-39424D01*
G03X-3472600Y887088I-15961J63849D01*
G03X-3476380Y1011332I-57947J60417D01*
G03X-3409512Y1119709I-234509J219508D01*
G03X-3281841Y1079418I78965J27796D01*
G03X-3278736Y1213260I-48706J68087D01*
G03X-3276910Y1283231I-66316J36741D01*
G03X-3292345Y1421994I-53637J64274D01*
G03X-3414042Y1353560I-38202J-74489D01*
G03X-3501218Y1474184I-296847J-122720D01*
G03X-3443093Y1490361I8125J83319D01*
G03X-3343093Y1490361I50000J67142D01*
G03X-3243092Y1490361I50000J67142D01*
G03X-3143092Y1490361I50000J67142D01*
G03X-3043092Y1490361I50000J67142D01*
G03X-2943092Y1490361I50000J67142D01*
G03X-2843092Y1490361I50000J67142D01*
G03X-2743092Y1490361I50000J67142D01*
G03X-2643092Y1490361I50000J67142D01*
G03X-2543092Y1490361I50000J67142D01*
G03X-2443092Y1490361I50000J67142D01*
G03X-2343092Y1490361I50000J67142D01*
G03X-2243092Y1490361I50000J67142D01*
G03X-2143092Y1490361I50000J67142D01*
G03X-2043092Y1490361I50000J67142D01*
G03X-1943092Y1490361I50000J67142D01*
G03X-1843092Y1490361I50000J67142D01*
G03X-1743092Y1490361I50000J67142D01*
G03X-1643092Y1490361I50000J67142D01*
G03X-1543092Y1490361I50000J67142D01*
G03X-1443091Y1490361I50000J67142D01*
G03X-1343091Y1490361I50000J67142D01*
G03X-1243091Y1490361I50000J67142D01*
G03X-1143091Y1490361I50000J67142D01*
G03X-1043091Y1490361I50000J67142D01*
G03X-943091Y1490361I50000J67142D01*
G03X-843091Y1490361I50000J67142D01*
G03X-743091Y1490361I50000J67142D01*
G03X-643091Y1490361I50000J67142D01*
G03X-543091Y1490361I50000J67142D01*
G03X-443091Y1490361I50000J67142D01*
G03X-430415Y1482570I50000J67142D01*
G03X-489967Y1420727I199526J-251730D01*
G03X-608556Y1377876I-40578J-73222D01*
G03X-550160Y1266121I78010J-30372D01*
G03X-551682Y1247288I319271J-35281D01*
G03X-552094Y1228398I320793J-16448D01*
G03X-611199Y1125075I21548J-80893D01*
G03X-507237Y1067101I80653J22430D01*
G03X-412253Y965726I276348J163739D01*
G03X-358322Y868533I81707J-18221D01*
G03X-255422Y910564I27776J78972D01*
G03X-205694Y910616I24533J320276D01*
G03X-102599Y868593I75148J36889D01*
G03X-48930Y966134I-27947J78912D01*
G03X16663Y1026154I-181959J264706D01*
G03X22311Y1017503I72790J41348D01*
G03X22311Y917503I67142J-50000D01*
G03X22311Y817503I67142J-50000D01*
G03X22311Y717503I67142J-50000D01*
G03X22311Y617503I67142J-50000D01*
G03X16284Y526829I67142J-50000D01*
G03X-12089Y513099I21626J-80872D01*
G03X-48985Y528638I-50000J-67142D01*
G03X-137221Y630952I-81561J18866D01*
G03X-208070Y515913I6675J-83448D01*
G03X-233351Y489887I45980J-69956D01*
G03X-394009Y463994I-77196J-32384D01*
G03X-239286Y413572I83462J-6491D01*
G03X-229247Y395977I77196J32384D01*
G03X-229247Y296019I67157J-49979D01*
G03X-243785Y227770I67157J-49979D01*
G03X-280381Y227773I-18304J-81689D01*
G03X-336034Y315558I-50166J29730D01*
G03X-374256Y218901I5487J-58055D01*
G03X-404994Y109223I43710J-71397D01*
G03X-297905Y70416I74449J38281D01*
G03X-292594Y68123I35816J75666D01*
G03X-162089Y23939I80504J22959D01*
G03X-62089Y23939I50000J67142D01*
G03X37911Y23939I50000J67142D01*
G03X117897Y12922I50000J67142D01*
G01X117897Y-12922D01*
G03X37911Y-23939I-29986J-78159D01*
G03X-62089Y-23939I-50000J-67142D01*
G03X-162089Y-23939I-50000J-67142D01*
G03X-285291Y-50467I-50000J-67142D01*
G03X-242593Y-169040I73202J-40614D01*
G03X-229246Y-196061I80504J22958D01*
G03X-245207Y-236073I67158J-49979D01*
G03X-350336Y-304642I-22296J-80690D01*
G03X-397409Y-328279I12121J-82832D01*
G03X-421046Y-375352I59195J-59195D01*
G03X-491757Y-446063I12121J-82832D01*
G03X-549806Y-483242I12121J-82832D01*
G03X-657506Y-476753I-57700J-60653D01*
G03X-788011Y-520937I-50000J-67142D01*
G03X-834235Y-565417I30504J-77959D01*
G03X-835404Y-629556I76728J-33478D01*
G03X-916749Y-706041I-29133J-50516D01*
G03X-806674Y-687317I52212J25969D01*
G03X-652375Y-682452I76128J34821D01*
G03X-612516Y-669492I-5132J83557D01*
G03X-534642Y-736110I81971J16996D01*
G03X-450629Y-677423I4096J83614D01*
G03X-396804Y-611016I-29007J78528D01*
G03X-326093Y-540305I-12121J82832D01*
G03X-279020Y-516668I-12121J82832D01*
G03X-255383Y-469595I-59195J59195D01*
G03X-243152Y-466857I-12121J82832D01*
G03X-189942Y-524901I81063J20900D01*
G03X-112089Y-513099I27853J78945D01*
G03X-12089Y-513099I50000J67142D01*
G03X6230Y-523444I50000J67142D01*
G03X22311Y-582498I83223J-9054D01*
G03X22311Y-682498I67142J-50000D01*
G03X22311Y-782498I67142J-50000D01*
G03X22311Y-882498I67142J-50000D01*
G03X22311Y-982498I67142J-50000D01*
G03X6054Y-1039753I67142J-50000D01*
G03X-60067Y-1007321I-81602J-82746D01*
G03X-171116Y-979271I-70478J-45176D01*
G03X-249886Y-874902I-119431J-8229D01*
G03X-354326Y-772231I-80660J22406D01*
G03X-385982Y-915225I23781J-80265D01*
G03X-371652Y-1075553I95435J-72274D01*
G03X-210689Y-1076685I81105J88053D01*
G03X-191117Y-1110281I80143J24188D01*
G03X13630Y-1197018I115570J-12218D01*
G03X22311Y-1282498I75823J-35481D01*
G03X22311Y-1382499I67142J-50000D01*
G03X22311Y-1482499I67142J-50000D01*
G03X6629Y-1520323I67142J-50000D01*
G03X-191523Y-1609943I-82177J-82175D01*
G03X16462Y-1673490I115975J7445D01*
G03X22311Y-1682499I72991J40992D01*
G03X22311Y-1782499I67142J-50000D01*
G03X22311Y-1882499I67142J-50000D01*
G03X22311Y-1982499I67142J-50000D01*
G03X5741Y-2031940I67142J-50000D01*
G03X-454164Y-2018234I-236630J-217220D01*
G03X-600533Y-2006565I-76381J-34263D01*
G03X-531587Y-2136205I69988J-45932D01*
G03X-542090Y-2169583I300698J-112955D01*
G03X-614254Y-2253429I11544J-82914D01*
G03X-540240Y-2335648I83709J932D01*
G03X-528992Y-2368798I309351J86488D01*
G03X-598596Y-2403741I-1554J-83700D01*
G03X-609299Y-2480885I68051J-48756D01*
G03X-640665Y-2495357I18635J-81614D01*
G03X-654313Y-2487090I-50000J-67142D01*
G03X-727197Y-2368850I-76233J34592D01*
G03X-809299Y-2480885I-3348J-83647D01*
G03X-840665Y-2495357I18635J-81614D01*
G03X-854313Y-2487090I-50000J-67142D01*
G03X-927197Y-2368850I-76233J34592D01*
G03X-1009300Y-2480885I-3348J-83647D01*
G03X-1040665Y-2495357I18635J-81614D01*
G03X-1054313Y-2487090I-50000J-67142D01*
G03X-1127197Y-2368850I-76233J34592D01*
G03X-1209300Y-2480885I-3348J-83647D01*
G03X-1240665Y-2495357I18635J-81614D01*
G03X-1254313Y-2487090I-50000J-67142D01*
G03X-1327198Y-2368850I-76233J34592D01*
G03X-1409300Y-2480885I-3348J-83647D01*
G03X-1440665Y-2495357I18635J-81614D01*
G03X-1454313Y-2487090I-50000J-67142D01*
G03X-1527198Y-2368850I-76233J34592D01*
G03X-1609300Y-2480885I-3348J-83647D01*
G03X-1640665Y-2495357I18635J-81614D01*
G03X-1654314Y-2487090I-50000J-67142D01*
G03X-1727198Y-2368850I-76233J34592D01*
G03X-1809300Y-2480885I-3348J-83647D01*
G03X-1840665Y-2495357I18635J-81614D01*
G03X-1854314Y-2487090I-50000J-67142D01*
G03X-1927198Y-2368850I-76233J34592D01*
G03X-2009300Y-2480885I-3348J-83647D01*
G03X-2040666Y-2495357I18635J-81614D01*
G03X-2140666Y-2495357I-50000J-67142D01*
G03X-2240666Y-2495357I-50000J-67142D01*
G03X-2340666Y-2495357I-50000J-67142D01*
G03X-2440666Y-2495357I-50000J-67142D01*
G03X-2540666Y-2495357I-50000J-67142D01*
G03X-2640666Y-2495357I-50000J-67142D01*
G03X-2740666Y-2495357I-50000J-67142D01*
G03X-2840666Y-2495357I-50000J-67142D01*
G03X-2940666Y-2495357I-50000J-67142D01*
G03X-3040666Y-2495357I-50000J-67142D01*
G03X-3140666Y-2495357I-50000J-67142D01*
G03X-3240666Y-2495357I-50000J-67142D01*
G03X-3340666Y-2495357I-50000J-67142D01*
G03X-3440666Y-2495357I-50000J-67142D01*
G03X-3486388Y-2478894I-50000J-67142D01*
G03X-3460675Y-2047737I-224501J229734D01*
G03X-3887375Y-1980774I-250215J-201423D01*
G03X-3948114Y-1970647I-43172J-71723D01*
G03X-3963407Y-1935224I-82435J-14577D01*
G03X-3960295Y-1930747I-67142J50000D01*
G03X-3847075Y-1858848I29747J78250D01*
G03X-3948114Y-1770647I-83473J6351D01*
G03X-3963407Y-1735224I-82435J-14577D01*
G03X-3960295Y-1730747I-67142J50000D01*
G03X-3847075Y-1658848I29747J78250D01*
G03X-3948114Y-1570647I-83473J6351D01*
G03X-3963407Y-1535224I-82435J-14577D01*
G03X-3963407Y-1435224I-67142J50000D01*
G03X-3963407Y-1335224I-67142J50000D01*
G03X-3960295Y-1330747I-67142J50000D01*
G03X-3872608Y-1312920I29747J78250D01*
G03X-3851118Y-1226058I-57940J60424D01*
G03X-3808471Y-1221904I16065J56058D01*
G03X-3664839Y-1304366I77924J-30593D01*
G03X-3778396Y-1183805I-65708J51870D01*
G03X-3831973Y-1111768I-56657J13805D01*
G03X-3892850Y-1177751I-3080J-58233D01*
G03X-3948114Y-1170646I-37698J-74746D01*
G03X-3963407Y-1135223I-82435J-14577D01*
G03X-3960295Y-1130747I-67142J50000D01*
G03X-3847075Y-1058847I29747J78250D01*
G03X-3948114Y-970646I-83473J6351D01*
G03X-3963407Y-935223I-82435J-14577D01*
G03X-3960295Y-930747I-67142J50000D01*
G03X-3847075Y-858847I29747J78250D01*
G03X-3948114Y-770646I-83473J6351D01*
G03X-3963407Y-735223I-82435J-14577D01*
G03X-3960295Y-730747I-67142J50000D01*
G03X-3847075Y-658847I29747J78250D01*
G03X-3948114Y-570646I-83473J6351D01*
G03X-3963407Y-535223I-82435J-14577D01*
G03X-3955484Y-522281I-67142J50000D01*
G03X-3872785Y-512359I32699J77064D01*
G03X-3772785Y-512359I50000J67142D01*
G03X-3663600Y-504421I50000J67142D01*
G03X-3655628Y-395238I-59186J59204D01*
G03X-3655628Y-295279I-67157J49979D01*
G03X-3641089Y-227030I-67157J49979D01*
G03X-3610649Y-228172I18304J81689D01*
G03X-3528260Y-336179I80102J-24324D01*
G03X-3451893Y-223833I-2287J83683D01*
G03X-3410649Y-228172I29108J78491D01*
G03X-3328260Y-336179I80102J-24324D01*
G03X-3251893Y-223833I-2287J83683D01*
G03X-3210649Y-228172I29108J78491D01*
G03X-3128683Y-336189I80102J-24324D01*
G03X-3051607Y-224629I-1864J83693D01*
G03X-2959905Y-203141I30060J78131D01*
G03X-2830931Y-201893I63971J53998D01*
G03X-2693205Y-190609I65003J52751D01*
G03X-2672953Y-212359I70420J45267D01*
G03X-2715912Y-302273I39220J-73958D01*
G03X-2642427Y-369578I82179J15956D01*
G03X-2628366Y-419044I57375J-10422D01*
G01X-2628366Y-508652D01*
G01X-2656398Y-536684D01*
G03X-2694613Y-636155I3019J-58236D01*
G03X-2595143Y-597940I41234J41234D01*
G01X-2554425Y-557221D01*
G03X-2541738Y-526594I-30628J30628D01*
G01X-2541738Y-419044D01*
G03X-2537498Y-413751I-43314J39044D01*
G03X-2427954Y-464125I79039J27585D01*
G03X-2427122Y-534567I76354J-34325D01*
G03X-2409926Y-628513I76232J-34593D01*
G03X-2315889Y-645206I59036J59353D01*
G03X-2200631Y-592964I35000J76046D01*
G03X-2268768Y-486328I-80259J23804D01*
G03X-2382106Y-420491I-82832J-12121D01*
G03X-2423729Y-309997I-76354J34325D01*
G03X-2534443Y-351031I-34731J-76170D01*
G03X-2560601Y-327060I-50609J-28970D01*
G01X-2559744Y-325481D01*
G03X-2514833Y-263429I-13166J56808D01*
G03X-2570134Y-210425I-58078J-5244D01*
G03X-2542281Y-168301I-52652J65083D01*
G03X-2516473Y-28399I-30504J77959D01*
G03X-2653290Y-67383I-56312J-61943D01*
G03X-2695508Y-103875I30504J-77959D01*
G03X-2830931Y-96392I-70420J-45267D01*
G03X-2957576Y-92500I-65003J-52751D01*
G03X-3089372Y-97429I-63971J-53998D01*
G03X-3132084Y-17188I-83414J7087D01*
G03X-3222785Y-23200I-40701J-73154D01*
G03X-3322785Y-23200I-50000J-67142D01*
G03X-3372785Y-6628I-50000J-67142D01*
G03X-3422785Y-23200I0J-83714D01*
G03X-3522785Y-23200I-50000J-67142D01*
G03X-3622785Y-23200I-50000J-67142D01*
G03X-3672785Y-6628I-50000J-67142D01*
G03X-3722785Y-23200I0J-83714D01*
G03X-3822785Y-23200I-50000J-67142D01*
G03X-3922785Y-23200I-50000J-67142D01*
G03X-4053290Y-67383I-50000J-67142D01*
G03X-4059675Y-70194I30504J-77959D01*
G01X-3814261Y747504D02*
G03X-3646833Y747504I83714J0D01*
G03X-3814261Y747504I-83714J0D01*
G01X-3814261Y-1052496D02*
G03X-3646833Y-1052496I83714J0D01*
G03X-3814261Y-1052496I-83714J0D01*
G01X-3814261Y-852496D02*
G03X-3646833Y-852496I83714J0D01*
G03X-3814261Y-852496I-83714J0D01*
G01X-3814261Y-1652497D02*
G03X-3646833Y-1652497I83714J0D01*
G03X-3814261Y-1652497I-83714J0D01*
G01X-3814261Y-652496D02*
G03X-3646833Y-652496I83714J0D01*
G03X-3814261Y-652496I-83714J0D01*
G01X-3414042Y172741D02*
G03X-3469104Y290646I-36506J54761D01*
G03X-3576982Y417159I-61443J56858D01*
G03X-3501697Y268918I46435J-69655D01*
G03X-3414042Y172741I51149J-41416D01*
G01X-3614261Y547504D02*
G03X-3446833Y547504I83714J0D01*
G03X-3614261Y547504I-83714J0D01*
G01X-3614261Y-1052496D02*
G03X-3446833Y-1052496I83714J0D01*
G03X-3614261Y-1052496I-83714J0D01*
G01X-3614261Y-1852497D02*
G03X-3446833Y-1852497I83714J0D01*
G03X-3614261Y-1852497I-83714J0D01*
G01X-3614261Y-1652497D02*
G03X-3446833Y-1652497I83714J0D01*
G03X-3614261Y-1652497I-83714J0D01*
G01X-3577196Y-922009D02*
G03X-3467996Y-796860I46649J69512D01*
G03X-3397286Y-747971I12944J56859D01*
G03X-3452115Y-681760I-57767J7971D01*
G03X-3585232Y-589112I-78433J29264D01*
G03X-3513095Y-734371I54685J-63384D01*
G03X-3502766Y-773527I58042J-5629D01*
G03X-3577196Y-922009I-27781J-78970D01*
G01X-3414261Y947505D02*
G03X-3246833Y947505I83714J0D01*
G03X-3414261Y947505I-83714J0D01*
G01X-3374915Y476515D02*
G03X-3246900Y550849I44368J70990D01*
G03X-3236181Y698492I-33649J76654D01*
G03X-3364196Y624158I-44368J-70990D01*
G03X-3374915Y476515I33649J-76654D01*
G01X-3414261Y-852496D02*
G03X-3246833Y-852496I83714J0D01*
G03X-3414261Y-852496I-83714J0D01*
G01X-3414261Y-1852497D02*
G03X-3246833Y-1852497I83714J0D01*
G03X-3414261Y-1852497I-83714J0D01*
G01X-3414261Y-1652497D02*
G03X-3246833Y-1652497I83714J0D01*
G03X-3414261Y-1652497I-83714J0D01*
G01X-3414261Y-652496D02*
G03X-3246833Y-652496I83714J0D01*
G03X-3414261Y-652496I-83714J0D01*
G01X-2560361Y621388D02*
G03X-2610593Y605150I0J-85814D01*
G01X-2702288Y605150D01*
G03X-2702288Y433522I0J-85814D01*
G01X-2606509Y433522D01*
G03X-2515893Y364556I82475J14352D01*
G03X-2440341Y449760I-8142J83317D01*
G01X-2003832Y449760D01*
G03X-2003804Y445281I58284J-1886D01*
G03X-2003434Y440817I58256J2593D01*
G01X-2308750Y440817D01*
G03X-2339377Y428130I0J-43314D01*
G01X-2466564Y300944D01*
G03X-2487883Y189716I3019J-58236D01*
G03X-2533202Y159644I21118J-81007D01*
G03X-2615531Y167051I-47688J-68803D01*
G03X-2640671Y173777I-33944J-76524D01*
G01X-2640969Y174595D01*
G03X-2582990Y300647I-13578J82606D01*
G03X-2721575Y307354I-71557J-43446D01*
G03X-2797991Y296720I-27969J-78904D01*
G03X-2833256Y228099I48448J-68270D01*
G03X-2869475Y212669I13782J-82572D01*
G03X-2969475Y212669I-50000J-67142D01*
G03X-3069475Y212669I-50000J-67142D01*
G03X-3119475Y229241I-50000J-67142D01*
G03X-3169475Y212669I0J-83714D01*
G03X-3269475Y212669I-50000J-67142D01*
G03X-3392677Y186141I-50000J-67142D01*
G03X-3349979Y67569I73202J-40614D01*
G03X-3296320Y11234I80504J22959D01*
G03X-3219475Y23385I26845J79293D01*
G03X-3119475Y23385I50000J67142D01*
G03X-3019475Y23385I50000J67142D01*
G03X-2942629Y11234I50000J67142D01*
G03X-2888970Y67569I-26845J79293D01*
G03X-2869475Y78385I-30504J77958D01*
G03X-2849979Y67569I50000J67142D01*
G03X-2832250Y35144I80504J22959D01*
G03X-2762789Y-60460I82707J-12945D01*
G03X-2666932Y8654I13245J82660D01*
G03X-2614833Y14317I17458J81874D01*
G03X-2514454Y39906I33944J76524D01*
G03X-2444260Y28077I47688J68803D01*
G03X-2406968Y-42163I83712J-575D01*
G03X-2292808Y-104962I82420J14664D01*
G03X-2276924Y-144245I83025J10717D01*
G03X-2289075Y-221090I67142J-50000D01*
G03X-2232741Y-274749I79293J26845D01*
G03X-2138870Y-326433I77959J30504D01*
G03X-2088011Y-384691I81363J19701D01*
G03X-1951194Y-423676I80504J22959D01*
G03X-1977003Y-283774I-56312J61943D01*
G03X-2036342Y-225738I-80504J-22959D01*
G03X-2012089Y-213223I-25747J79656D01*
G03X-1918526Y-217568I50000J67142D01*
G03X-1916886Y-224276I82072J16501D01*
G03X-1923742Y-336476I58497J-59884D01*
G03X-1812762Y-354347I65353J52316D01*
G03X-1780627Y-384334I71179J44064D01*
G03X-1728954Y-441886I81082J20827D01*
G03X-1652177Y-432532I29409J78378D01*
G03X-1535027Y-403621I44671J70800D01*
G03X-1568463Y-287681I-72480J41889D01*
G03X-1696913Y-239483I-81082J-20827D01*
G03X-1757204Y-228039I-44671J-70800D01*
G03X-1778554Y-140605I-79250J26973D01*
G03X-1831584Y-68123I-83535J-5477D01*
G03X-1885243Y-11788I-80504J-22958D01*
G03X-1962089Y-23939I-26845J-79293D01*
G03X-2092593Y-68123I-50000J-67142D01*
G03X-2107055Y-75469I30504J-77959D01*
G03X-2131824Y-63741I-47728J-68776D01*
G03X-2241523Y-16781I-77959J-30504D01*
G03X-2255118Y19272I-83025J-10717D01*
G03X-2131585Y68123I43029J71809D01*
G03X-2112089Y78939I-30504J77959D01*
G03X-2092594Y68123I50000J67142D01*
G03X-1962089Y23939I80504J22959D01*
G03X-1862089Y23939I50000J67142D01*
G03X-1762089Y23939I50000J67142D01*
G03X-1685244Y11788I50000J67142D01*
G03X-1631585Y68123I-26845J79293D01*
G03X-1613713Y214402I-30504J77959D01*
G03X-1685073Y326063I-78794J28278D01*
G03X-1775059Y228785I-7433J-83383D01*
G03X-1812089Y213223I12970J-82703D01*
G03X-1912089Y213223I-50000J-67142D01*
G03X-2012089Y213223I-50000J-67142D01*
G03X-2112089Y213223I-50000J-67142D01*
G03X-2180382Y227772I-50000J-67142D01*
G03X-2261075Y307188I-50166J29730D01*
G03X-2226697Y199316I30527J-49685D01*
G03X-2242593Y169040I64608J-53234D01*
G03X-2295011Y79588I30504J-77959D01*
G03X-2383054Y108135I-65538J-52085D01*
G03X-2441780Y188608I-83712J575D01*
G03X-2405309Y239689I-21764J54100D01*
G01X-2290809Y354189D01*
G01X-1758453Y354189D01*
G03X-1672496Y365464I37905J44314D01*
G03X-1692740Y449760I-48051J33039D01*
G01X-1426881Y449760D01*
G03X-1329868Y588182I36333J77743D01*
G01X-1337939Y596253D01*
G03X-1398619Y621388I-60680J-60680D01*
G01X-2035358Y621388D01*
G03X-2027668Y713507I-68681J52115D01*
G03X-2027668Y793517I-76372J40005D01*
G03X-2043071Y894481I-76372J40005D01*
G03X-2144032Y909901I-60968J-60958D01*
G03X-2224029Y909894I-39992J-76379D01*
G03X-2304027Y909901I-40005J-76372D01*
G03X-2404987Y894481I-39992J-76379D01*
G03X-2420391Y793517I60968J-60958D01*
G03X-2420391Y713507I76372J-40005D01*
G03X-2412700Y621388I76372J-40005D01*
G01X-2560361Y621388D01*
G01X-3360867Y-2150001D02*
G03X-3229239Y-2150001I65814J0D01*
G03X-3360867Y-2150001I-65814J0D01*
G01X-3348863Y-2312499D02*
G03X-3232235Y-2312499I58314J0D01*
G03X-3348863Y-2312499I-58314J0D01*
G01X-3214261Y-1252497D02*
G03X-3046833Y-1252497I83714J0D01*
G03X-3214261Y-1252497I-83714J0D01*
G01X-3214261Y-452496D02*
G03X-3046833Y-452496I83714J0D01*
G03X-3214261Y-452496I-83714J0D01*
G01X-2999384Y-2427791D02*
G03X-3073363Y-2341711I-47162J34296D01*
G03X-3178051Y-2297864I-57527J9551D01*
G03X-3104073Y-2383943I47162J-34296D01*
G03X-2999384Y-2427791I57527J-9551D01*
G01X-3144604Y770841D02*
G03X-2977176Y770841I83714J0D01*
G03X-3144604Y770841I-83714J0D01*
G01X-3030926Y336656D02*
G03X-2912354Y379354I40614J73202D01*
G03X-2851598Y459858I-22959J80504D01*
G03X-2912354Y540362I-83714J0D01*
G03X-3030926Y583060I-77958J-30504D01*
G03X-3057454Y459858I40614J-73202D01*
G03X-3030926Y336656I67142J-50000D01*
G01X-3014261Y-1852497D02*
G03X-2846833Y-1852497I83714J0D01*
G03X-3014261Y-1852497I-83714J0D01*
G01X-2863258Y-1602695D02*
G03X-3007778Y-1684797I-67289J-49802D01*
G03X-2847838Y-1639565I77232J32301D01*
G03X-2697631Y-1601284I67289J49802D01*
G03X-2582152Y-1589763I57165J11521D01*
G03X-2697631Y-1578242I-58314J0D01*
G03X-2742012Y-1515446I-82918J-11521D01*
G03X-2724372Y-1379066I-38539J74316D01*
G03X-2858326Y-1410162I-56179J-62064D01*
G03X-3014022Y-1458822I-72221J-42334D01*
G03X-2852772Y-1483465I83475J6325D01*
G03X-2819087Y-1515448I72221J42334D01*
G03X-2863258Y-1602695I38539J-74316D01*
G01X-2282403Y-1688219D02*
G03X-2161466Y-1669782I51855J65720D01*
G03X-2139630Y-1669782I10918J57283D01*
G03X-1990548Y-1647157I69082J47283D01*
G03X-1922264Y-1705389I80000J24658D01*
G03X-1840516Y-1668363I11716J82890D01*
G03X-1763823Y-1627090I19967J54789D01*
G03X-1813665Y-1555668I-56726J13516D01*
G01X-1823031Y-1546302D01*
G03X-1855332Y-1456205I-47517J33803D01*
G03X-1928624Y-1517760I-15216J-56294D01*
G01X-1992472Y-1517760D01*
G03X-1992499Y-1506947I-58076J5262D01*
G03X-1960213Y-1412718I-12554J56947D01*
G03X-2058752Y-1427266I-44839J-37283D01*
G03X-2074473Y-1411880I-47917J-33234D01*
G03X-2056961Y-1375089I-40579J41879D01*
G03X-2067810Y-1335815I-58092J5089D01*
G01X-1923099Y-1335815D01*
G01X-1868455Y-1390459D01*
G03X-1817803Y-1441435I57906J6884D01*
G03X-1764971Y-1510645I57255J-11063D01*
G03X-1702278Y-1450223I4423J58146D01*
G03X-1658015Y-1367183I-8270J57725D01*
G03X-1562305Y-1319615I37467J44685D01*
G03X-1506272Y-1224548I11757J57117D01*
G03X-1608790Y-1265382I-44275J-37950D01*
G03X-1673080Y-1347814I-11757J-57117D01*
G03X-1757911Y-1358480I-37467J-44685D01*
G03X-1803665Y-1325668I-52638J-25095D01*
G01X-1837909Y-1291423D01*
G01X-1704430Y-1291423D01*
G03X-1679105Y-1280934I0J35814D01*
G01X-1595223Y-1197052D01*
G03X-1584734Y-1171727I-25324J25324D01*
G01X-1584734Y-1114645D01*
G03X-1448801Y-1104924I67619J9721D01*
G03X-1584734Y-1095203I-68314J0D01*
G01X-1584734Y-912498D01*
G03X-1595223Y-887174I-35814J0D01*
G01X-1595862Y-886536D01*
G03X-1621186Y-876046I-25324J-25324D01*
G01X-1650977Y-876046D01*
G03X-1625167Y-783787I-53212J64626D01*
G03X-1702847Y-727717I-79022J-27633D01*
G03X-1683033Y-610134I-48042J68556D01*
G03X-1800889Y-592018I-67856J-49026D01*
G03X-1900889Y-592018I-50000J-67142D01*
G03X-2000889Y-592018I-50000J-67142D01*
G03X-2105131Y-595396I-50000J-67142D01*
G03X-2125179Y-697748I54242J-63764D01*
G03X-2153157Y-713402I26130J-79532D01*
G03X-2225593Y-685424I-51895J-26598D01*
G03X-2261607Y-754218I20540J-54577D01*
G03X-2281528Y-775260I31057J-49356D01*
G01X-2328259Y-775260D01*
G03X-2358887Y-787946I0J-43314D01*
G01X-2406880Y-835939D01*
G03X-2485545Y-785406I-58173J-4061D01*
G03X-2511528Y-875221I20493J-54595D01*
G01X-2595525Y-959218D01*
G03X-2651118Y-932003I-49527J-30783D01*
G03X-2699877Y-970132I6066J-57998D01*
G03X-2727139Y-928035I-80671J-22366D01*
G03X-2697464Y-873813I-53411J64462D01*
G03X-2582241Y-860113I56918J12682D01*
G03X-2697872Y-850442I-58305J-1017D01*
G03X-2743361Y-788574I-82678J-13132D01*
G03X-2780550Y-629860I-37189J75000D01*
G03X-2817739Y-788574I0J-83714D01*
G03X-2863703Y-853902I37189J-75000D01*
G03X-2833960Y-928037I83154J-9671D01*
G03X-2857669Y-1025063I53411J-64462D01*
G03X-2771594Y-1075732I77121J32565D01*
G03X-2773336Y-1091887I56541J-14269D01*
G01X-2841911Y-1091887D01*
G01X-2846817Y-1086981D01*
G03X-2923021Y-1034524I-58236J-3020D01*
G03X-2954001Y-1121696I17968J-55477D01*
G03X-3003809Y-1211991I-1052J-58305D01*
G03X-2972395Y-1325000I73262J-40506D01*
G03X-2858826Y-1295673I41848J72504D01*
G03X-2764472Y-1339388I58276J2099D01*
G01X-2519526Y-1339388D01*
G01X-2364405Y-1494509D01*
G03X-2411783Y-1593733I-6143J-57990D01*
G03X-2312559Y-1546356I41234J41234D01*
G01X-2292604Y-1566310D01*
G03X-2282403Y-1688219I62056J-56188D01*
G01X-2959464Y688780D02*
G03X-2811699Y635251I83713J372D01*
G03X-2669254Y661670I63570J54469D01*
G03X-2562000Y669924I48705J68087D01*
G03X-2448414Y763700I31453J77580D01*
G03X-2589096Y807338I-82133J-16195D01*
G03X-2699424Y757807I-31453J-77580D01*
G03X-2812181Y743622I-48705J-68087D01*
G03X-2959464Y688780I-63570J-54469D01*
G01X-2931861Y-2140495D02*
G03X-2815233Y-2140495I58314J0D01*
G03X-2931861Y-2140495I-58314J0D01*
G01X-2863867Y-554920D02*
G03X-2747239Y-554920I58314J0D01*
G03X-2863867Y-554920I-58314J0D01*
G01X-2843366Y-380000D02*
G03X-2726738Y-380000I58314J0D01*
G03X-2843366Y-380000I-58314J0D01*
G01X-2683622Y1145086D02*
G03X-2816862Y1143288I-65937J-51579D01*
G03X-2779576Y1015359I67304J-49782D01*
G03X-2719737Y864491I49029J-67854D01*
G03X-2700529Y1025652I-10810J83013D01*
G03X-2678857Y1048681I-49029J67854D01*
G03X-2590929Y1089521I30309J49818D01*
G03X-2453235Y1179612I60382J57983D01*
G03X-2614240Y1145653I-77312J-32108D01*
G03X-2683622Y1145086I-34307J-47155D01*
G01X-2808833Y1325646D02*
G03X-2702449Y1294533I58284J1857D01*
G03X-2603458Y1306372I45902J35966D01*
G03X-2447585Y1358702I72912J41133D01*
G03X-2611754Y1367836I-82962J-11197D01*
G03X-2704646Y1363469I-44793J-37338D01*
G03X-2808833Y1325646I-45902J-35966D01*
G01X-2758862Y-2012499D02*
G03X-2642234Y-2012499I58314J0D01*
G03X-2758862Y-2012499I-58314J0D01*
G01X-2614261Y947505D02*
G03X-2446833Y947505I83714J0D01*
G03X-2614261Y947505I-83714J0D01*
G01X-2614261Y-1852497D02*
G03X-2446833Y-1852497I83714J0D01*
G03X-2614261Y-1852497I-83714J0D01*
G01X-2488862Y-2162499D02*
G03X-2372234Y-2162499I58314J0D01*
G03X-2488862Y-2162499I-58314J0D01*
G01X-2474262Y-1722499D02*
G03X-2306834Y-1722499I83714J0D01*
G03X-2474262Y-1722499I-83714J0D01*
G01X-2418849Y1267504D02*
G03X-2267221Y1267504I75814J0D01*
G03X-2418849Y1267504I-75814J0D01*
G01X-2398862Y-1912499D02*
G03X-2282234Y-1912499I58314J0D01*
G03X-2398862Y-1912499I-58314J0D01*
G01X-2214260Y-2252497D02*
G03X-2046832Y-2252497I83714J0D01*
G03X-2214260Y-2252497I-83714J0D01*
G01X-2211258Y1267502D02*
G03X-2043830Y1267502I83714J0D01*
G03X-2211258Y1267502I-83714J0D01*
G01X-1924977Y1063976D02*
G03X-1924825Y1231023I-5569J83529D01*
G03X-1945093Y1365666I-15723J66480D01*
G03X-1947305Y1229524I4545J-68163D01*
G03X-1924977Y1063976I16759J-82019D01*
G01X-1974262Y817503D02*
G03X-1806834Y817503I83714J0D01*
G03X-1974262Y817503I-83714J0D01*
G01X-1801676Y791647D02*
G03X-1742244Y664612I71130J-44142D01*
G03X-1649978Y770239I11698J82893D01*
G03X-1675404Y884518I-71130J44142D01*
G03X-1736466Y1031009I-55142J62987D01*
G03X-1776251Y877368I5920J-83504D01*
G03X-1801676Y791647I55142J-62987D01*
G01X-1814260Y1347505D02*
G03X-1646832Y1347505I83714J0D01*
G03X-1814260Y1347505I-83714J0D01*
G01X-1814260Y-2252497D02*
G03X-1646832Y-2252497I83714J0D01*
G03X-1814260Y-2252497I-83714J0D01*
G01X-1798862Y-2092499D02*
G03X-1682234Y-2092499I58314J0D01*
G03X-1798862Y-2092499I-58314J0D01*
G01X-1557506Y-476753D02*
G03X-1680708Y-503281I-50000J-67142D01*
G03X-1638011Y-621853I73202J-40614D01*
G03X-1507506Y-666037I80504J22958D01*
G03X-1407506Y-666037I50000J67142D01*
G03X-1319514Y-673492I50000J67142D01*
G03X-1268849Y-780060I78969J-27784D01*
G03X-1161949Y-730097I28303J78784D01*
G03X-1097164Y-729267I31403J77601D01*
G03X-1052375Y-682452I-33382J76771D01*
G03X-977002Y-621853I-5132J83557D01*
G03X-934304Y-503281I-30505J77958D01*
G03X-1057506Y-476753I-73202J-40614D01*
G03X-1157506Y-476753I-50000J-67142D01*
G03X-1291125Y-547889I-50000J-67142D01*
G03X-1304045Y-534475I-66381J-51006D01*
G03X-1288314Y-443217I-60865J57476D01*
G03X-1272175Y-437625I-19193J81484D01*
G03X-1257507Y-428874I-35332J75893D01*
G03X-1157507Y-428874I50000J67142D01*
G03X-1107507Y-445446I50000J67142D01*
G03X-1057507Y-428874I0J83714D01*
G03X-957507Y-428874I50000J67142D01*
G03X-857507Y-428874I50000J67142D01*
G03X-757507Y-428874I50000J67142D01*
G03X-707507Y-445446I50000J67142D01*
G03X-657507Y-428874I0J83714D01*
G03X-567072Y-435034I50000J67142D01*
G03X-524044Y-355254I-40434J73302D01*
G03X-498194Y-301680I-57552J60793D01*
G03X-514454Y-244461I-83402J7219D01*
G03X-507831Y-154878I-67142J50000D01*
G03X-586140Y-110870I-73765J-39583D01*
G03X-631584Y-68123I-75949J-35211D01*
G03X-685243Y-11788I-80504J-22958D01*
G03X-762089Y-23939I-26845J-79293D01*
G03X-862089Y-23939I-50000J-67142D01*
G03X-962089Y-23939I-50000J-67142D01*
G03X-1062089Y-23939I-50000J-67142D01*
G03X-1162089Y-23939I-50000J-67142D01*
G03X-1292593Y-68123I-50000J-67142D01*
G03X-1310456Y-77754I30505J-77958D01*
G03X-1309736Y-23173I-78773J28334D01*
G03X-1309736Y29320I-79493J26247D01*
G03X-1309736Y81813I-79493J26247D01*
G03X-1306017Y117213I-79493J26247D01*
G03X-1180126Y164255I45469J70289D01*
G03X-1117421Y299495I-3224J83652D01*
G03X-1263772Y271154I-65930J-51588D01*
G03X-1343760Y178349I3224J-83652D01*
G03X-1379394Y191194I-45469J-70289D01*
G03X-1482430Y201548I-58095J-60274D01*
G03X-1516698Y103827I44941J-70628D01*
G03X-1516698Y49640I79209J-27093D01*
G03X-1521119Y18791I79209J-27093D01*
G03X-1586867Y-66118I17908J-81776D01*
G03X-1636715Y-184016I24778J-79963D01*
G03X-1512089Y-213223I74626J37934D01*
G03X-1472407Y-229157I50000J67142D01*
G03X-1510627Y-303881I16938J-55800D01*
G03X-1434583Y-339403I55158J18924D01*
G03X-1428082Y-351757I77076J32670D01*
G03X-1481683Y-394652I20906J-81061D01*
G03X-1485176Y-463214I74507J-38167D01*
G03X-1557506Y-476753I-22330J-80681D01*
G01X-1668862Y1257503D02*
G03X-1552234Y1257503I58314J0D01*
G03X-1668862Y1257503I-58314J0D01*
G01X-1624262Y717503D02*
G03X-1456834Y717503I83714J0D01*
G03X-1624262Y717503I-83714J0D01*
G01X-1614260Y947505D02*
G03X-1446832Y947505I83714J0D01*
G03X-1614260Y947505I-83714J0D01*
G01X-1614260Y347504D02*
G03X-1446832Y347504I83714J0D01*
G03X-1614260Y347504I-83714J0D01*
G01X-1614260Y-2052497D02*
G03X-1446832Y-2052497I83714J0D01*
G03X-1614260Y-2052497I-83714J0D01*
G01X-1614260Y-1652497D02*
G03X-1446832Y-1652497I83714J0D01*
G03X-1614260Y-1652497I-83714J0D01*
G01X-1583366Y-1840001D02*
G03X-1466738Y-1840001I58314J0D01*
G03X-1583366Y-1840001I-58314J0D01*
G01X-1380550Y-1524990D02*
G03X-1340972Y-1367509I0J83714D01*
G03X-1380550Y-1210027I-39578J73768D01*
G03X-1420128Y-1367509I0J-83714D01*
G03X-1380550Y-1524990I39578J-73768D01*
G01X-1220352Y-1188172D02*
G03X-1173301Y-1042357I-8594J83272D01*
G03X-1205763Y-916353I-67247J49859D01*
G03X-1322262Y-974310I-34784J-76145D01*
G03X-1438276Y-964251I-58286J1811D01*
G03X-1324086Y-987079I57728J-8247D01*
G03X-1296193Y-1055041I83539J-5419D01*
G03X-1220352Y-1188172I67247J-49859D01*
G01X-1414260Y-2252497D02*
G03X-1246832Y-2252497I83714J0D01*
G03X-1414260Y-2252497I-83714J0D01*
G01X-1414260Y-2052497D02*
G03X-1246832Y-2052497I83714J0D01*
G03X-1414260Y-2052497I-83714J0D01*
G01X-1170414Y476023D02*
G03X-1091538Y587783I-0J83714D01*
G03X-1050412Y597613I1134J86208D01*
G03X-924787Y663989I39992J76379D01*
G03X-846832Y747239I-5759J83516D01*
G03X-924258Y830982I-83714J265D01*
G03X-964493Y906975I-86162J3029D01*
G03X-1050412Y910390I-45927J-72964D01*
G03X-1130409Y910383I-39992J-76379D01*
G03X-1210407Y910390I-40005J-76372D01*
G03X-1311367Y894969I-39992J-76379D01*
G03X-1326771Y794006I60968J-60958D01*
G03X-1326771Y713996I76372J-40005D01*
G03X-1323874Y628886I76372J-40005D01*
G03X-1249290Y587783I73475J45105D01*
G03X-1170414Y476023I78876J-28046D01*
G01X-1214260Y-2052497D02*
G03X-1046832Y-2052497I83714J0D01*
G03X-1214260Y-2052497I-83714J0D01*
G01X-1214260Y-2252497D02*
G03X-1046832Y-2252497I83714J0D01*
G03X-1214260Y-2252497I-83714J0D01*
G01X-1150383Y1314868D02*
G03X-982955Y1314868I83714J0D01*
G03X-1150383Y1314868I-83714J0D01*
G01X-744032Y-921668D02*
G03X-888870Y-1002055I-66516J-50830D01*
G03X-987693Y-1087256I-36182J-57946D01*
G03X-1090333Y-1217393I-42016J-72406D01*
G03X-955336Y-1121235I60624J57730D01*
G03X-859637Y-1040308I30284J61235D01*
G03X-744032Y-921668I49090J67810D01*
G01X-812089Y7367D02*
G03X-762089Y23939I0J83714D01*
G03X-662089Y23939I50000J67142D01*
G03X-551487Y33328I50000J67142D01*
G03X-495700Y-45569I83714J22D01*
G03X-359608Y-97554I82768J12549D01*
G03X-385005Y45898I-53324J64534D01*
G03X-484185Y115440I-82768J-12549D01*
G03X-511246Y212587I-77905J30642D01*
G03X-612089Y213223I-50844J-66505D01*
G03X-712089Y213223I-50000J-67142D01*
G03X-812089Y213223I-50000J-67142D01*
G03X-878655Y228140I-50000J-67142D01*
G03X-977994Y326696I-82042J16648D01*
G03X-1029001Y196389I17298J-81907D01*
G03X-1042622Y123223I66912J-50307D01*
G03X-992594Y68123I80533J22859D01*
G03X-862089Y23939I80504J22959D01*
G03X-812089Y7367I50000J67142D01*
G01X-1014260Y1147505D02*
G03X-846832Y1147505I83714J0D01*
G03X-1014260Y1147505I-83714J0D01*
G01X-1014260Y-2052497D02*
G03X-846832Y-2052497I83714J0D01*
G03X-1014260Y-2052497I-83714J0D01*
G01X-936233Y1288735D02*
G03X-802304Y1304392I65685J18768D01*
G03X-650053Y1370503I71759J43113D01*
G03X-814250Y1346199I-80493J-22999D01*
G03X-936233Y1288735I-56298J-38696D01*
G01X-932085Y-837698D02*
G03X-815457Y-837698I58314J0D01*
G03X-932085Y-837698I-58314J0D01*
G01X-925819Y-2242160D02*
G03X-758391Y-2242160I83714J0D01*
G03X-925819Y-2242160I-83714J0D01*
G01X-898861Y-1852499D02*
G03X-782233Y-1852499I58314J0D01*
G03X-898861Y-1852499I-58314J0D01*
G01X-890341Y294472D02*
G03X-747967Y265623I79453J26369D01*
G03X-651093Y373873I17421J81881D01*
G03X-793467Y402722I-79453J-26369D01*
G03X-890341Y294472I-17421J-81881D01*
G01X-814260Y747504D02*
G03X-646832Y747504I83714J0D01*
G03X-814260Y747504I-83714J0D01*
G01X-814260Y1147505D02*
G03X-646832Y1147505I83714J0D01*
G03X-814260Y1147505I-83714J0D01*
G01X-814260Y947505D02*
G03X-646832Y947505I83714J0D01*
G03X-814260Y947505I-83714J0D01*
G01X-814260Y547504D02*
G03X-646832Y547504I83714J0D01*
G03X-814260Y547504I-83714J0D01*
G01X-814260Y-2052497D02*
G03X-646832Y-2052497I83714J0D01*
G03X-814260Y-2052497I-83714J0D01*
G01X-717813Y-1268001D02*
G03X-583046Y-1317702I82266J15503D01*
G03X-482463Y-1321025I52500J65206D01*
G03X-451368Y-1225311I-48083J68528D01*
G03X-469015Y-1012176I-54178J102812D01*
G03X-610379Y-1172657I-36532J-110323D01*
G03X-717813Y-1268001I-25168J-79841D01*
G01X-538940Y-1713811D02*
G03X-439495Y-1506880I33394J111313D01*
G03X-443791Y-1396644I-21052J54381D01*
G03X-508058Y-1486311I-16756J-55855D01*
G03X-538940Y-1713811I2511J-116187D01*
G01X-614260Y747504D02*
G03X-446831Y747504I83714J0D01*
G03X-614260Y747504I-83714J0D01*
G01X-614260Y947505D02*
G03X-446831Y947505I83714J0D01*
G03X-614260Y947505I-83714J0D01*
G01X-585283Y284165D02*
G03X-450228Y371109I54737J63339D01*
G03X-422418Y472624I-10319J57394D01*
G03X-518831Y430395I-38129J-44121D01*
G03X-585283Y284165I-11715J-82890D01*
G01X-614260Y-852496D02*
G03X-446831Y-852496I83714J0D01*
G03X-614260Y-852496I-83714J0D01*
G01X-518861Y607503D02*
G03X-402233Y607503I58314J0D01*
G03X-518861Y607503I-58314J0D01*
G01X-414260Y747504D02*
G03X-246831Y747504I83714J0D01*
G03X-414260Y747504I-83714J0D01*
G01X-358046Y-1931565D02*
G03X-253115Y-1820677I27501J79068D01*
G03X-260582Y-1651346I-37432J83179D01*
G03X-371518Y-1779495I-29965J-86152D01*
G03X-358046Y-1931565I40972J-73002D01*
G01X-366361Y-1552499D02*
G03X-234733Y-1552499I65814J0D01*
G03X-366361Y-1552499I-65814J0D01*
G01X-348861Y-1322498D02*
G03X-232233Y-1322498I58314J0D01*
G03X-348861Y-1322498I-58314J0D01*
G01X-326361Y-1182498D02*
G03X-194733Y-1182498I65814J0D01*
G03X-326361Y-1182498I-65814J0D01*
G01X-214259Y747504D02*
G03X-46831Y747504I83714J0D01*
G03X-214259Y747504I-83714J0D01*
G01X-214259Y-852496D02*
G03X-46831Y-852496I83714J0D01*
G03X-214259Y-852496I-83714J0D01*
G01X-214259Y-1852497D02*
G03X-46831Y-1852497I83714J0D01*
G03X-214259Y-1852497I-83714J0D01*
G01X-214259Y-652496D02*
G03X-46831Y-652496I83714J0D01*
G03X-214259Y-652496I-83714J0D01*
G01X-172894Y-1431019D02*
G03X-82413Y-1377921I32347J48520D01*
G03X-68200Y-1273978I-18134J55423D01*
G03X-158681Y-1327076I-32347J-48520D01*
G03X-172894Y-1431019I18134J-55423D01*
G04 Copper End*

G04 PolygonModel Start*
G36*
G01X-2250548Y-892498D02*
G01X-2164621Y-892498D01*
G01X-2164621Y-1038448D01*
G01X-1982901Y-1215120D01*
G01X-1833170Y-1215120D01*
G01X-1750548Y-1132498D01*
G01X-1750548Y-911860D01*
G01X-1621186Y-911860D01*
G01X-1620548Y-912498D01*
G01X-1620548Y-1171727D01*
G01X-1704430Y-1255609D01*
G01X-2000059Y-1255609D01*
G01X-2250548Y-1005120D01*
G01X-2250548Y-892498D01*
G37*

G04 Pad Start*
G54D11*
G01X-230889Y-2249160D03*
G01X-3710889Y-2249160D03*
G01X-230889Y1230840D03*
G01X-3710889Y1230840D03*
G54D12*
G01X-505547Y-1602498D03*
G01X-505547Y-1122499D03*
G01X-75547Y-1122499D03*
G01X-75547Y-1602498D03*
G04 Pad End*

G04 Via Start*
G54D13*
G01X-1890548Y817503D03*
G01X-3021547Y-146499D03*
G01X-2654547Y257200D03*
G01X-1720548Y398503D03*
G01X-2463544Y242708D03*
G01X-460547Y428503D03*
G01X-130545Y947505D03*
G01X-130545Y747504D03*
G01X-130545Y547504D03*
G01X-130545Y-652496D03*
G01X-130545Y-852496D03*
G01X-130545Y-1052496D03*
G01X-130545Y-1852497D03*
G01X-330545Y947505D03*
G01X-330545Y747504D03*
G01X-310547Y457503D03*
G01X-330545Y147504D03*
G01X-330545Y-852496D03*
G01X-330545Y-1852497D03*
G01X-530546Y1347505D03*
G01X-530546Y1147505D03*
G01X-530546Y947505D03*
G01X-530546Y747504D03*
G01X-530546Y347504D03*
G01X-530546Y-652496D03*
G01X-530546Y-852496D03*
G01X-530546Y-1252497D03*
G01X-530546Y-2052497D03*
G01X-530546Y-2252497D03*
G01X-530546Y-2452497D03*
G01X-730546Y1347505D03*
G01X-730546Y1147505D03*
G01X-730546Y947505D03*
G01X-730546Y747504D03*
G01X-730546Y547504D03*
G01X-730546Y347504D03*
G01X-730546Y-252496D03*
G01X-730546Y-652496D03*
G01X-730546Y-2052497D03*
G01X-730546Y-2452497D03*
G01X-930546Y1147505D03*
G01X-930546Y747504D03*
G01X-930546Y-252496D03*
G01X-930546Y-2052497D03*
G01X-930546Y-2452497D03*
G01X-1130546Y-252496D03*
G01X-1130546Y-652496D03*
G01X-1130546Y-2052497D03*
G01X-1130546Y-2252497D03*
G01X-1130546Y-2452497D03*
G01X-1330546Y-252496D03*
G01X-1330546Y-2052497D03*
G01X-1330546Y-2252497D03*
G01X-1330546Y-2452497D03*
G01X-1530546Y947505D03*
G01X-1530546Y347504D03*
G01X-1530546Y-1652497D03*
G01X-1530546Y-2052497D03*
G01X-1530546Y-2452497D03*
G01X-1730546Y1347505D03*
G01X-1730546Y947505D03*
G01X-1730546Y747504D03*
G01X-1730546Y-2252497D03*
G01X-1730546Y-2452497D03*
G01X-1930546Y1147505D03*
G01X-1930546Y-2452497D03*
G01X-2130546Y-2252497D03*
G01X-2530547Y1347505D03*
G01X-2530547Y1147505D03*
G01X-2530547Y947505D03*
G01X-2530547Y747504D03*
G01X-2530547Y-1852497D03*
G01X-2730547Y947505D03*
G01X-2930547Y-1252497D03*
G01X-2930547Y-1452497D03*
G01X-2930547Y-1652497D03*
G01X-2930547Y-1852497D03*
G01X-3130547Y-252496D03*
G01X-3130547Y-452496D03*
G01X-3130547Y-1252497D03*
G01X-3330547Y1347505D03*
G01X-3330547Y1147505D03*
G01X-3330547Y947505D03*
G01X-3330547Y547504D03*
G01X-3330547Y-252496D03*
G01X-3330547Y-652496D03*
G01X-3330547Y-852496D03*
G01X-3330547Y-1652497D03*
G01X-3330547Y-1852497D03*
G01X-3530547Y947505D03*
G01X-3530547Y547504D03*
G01X-3530547Y347504D03*
G01X-3530547Y-252496D03*
G01X-3530547Y-652496D03*
G01X-3530547Y-852496D03*
G01X-3530547Y-1052496D03*
G01X-3530547Y-1652497D03*
G01X-3530547Y-1852497D03*
G01X-3730547Y947505D03*
G01X-3730547Y747504D03*
G01X-3730547Y547504D03*
G01X-3730547Y-652496D03*
G01X-3730547Y-852496D03*
G01X-3730547Y-1052496D03*
G01X-3730547Y-1252497D03*
G01X-3730547Y-1652497D03*
G01X-3930547Y947505D03*
G01X-3930547Y747504D03*
G01X-3930547Y547504D03*
G01X-3930547Y-652496D03*
G01X-3930547Y-852496D03*
G01X-3930547Y-1052496D03*
G01X-3930547Y-1252497D03*
G01X-3930547Y-1652497D03*
G01X-3930547Y-1852497D03*
G01X-3930547Y-2052497D03*
G01X-2749558Y1093506D03*
G01X-2993092Y1557503D03*
G01X-2790666Y-2562499D03*
G01X-2990666Y-2562499D03*
G54D14*
G01X-1440548Y-1942499D03*
G54D13*
G01X-2640466Y-1589763D03*
G54D14*
G01X-260547Y-1182498D03*
G01X-300547Y-1552499D03*
G54D13*
G01X-460547Y-1452498D03*
G01X-290547Y-1322498D03*
G01X-100547Y-1322498D03*
G01X-140547Y-1382498D03*
G01X-810547Y-972498D03*
G01X-635547Y-1252498D03*
G01X-1503211Y-62985D03*
G01X-960697Y244788D03*
G01X-1170414Y559737D03*
G01X-1066669Y1314868D03*
G01X-2127544Y1267502D03*
G01X-162089Y-445957D03*
G01X-62089Y-445957D03*
G01X37911Y-445957D03*
G01X37911Y-345998D03*
G01X-62089Y-345998D03*
G01X-162089Y-345998D03*
G01X-162089Y-246040D03*
G01X-62089Y-246040D03*
G01X37911Y-246040D03*
G01X37911Y445956D03*
G01X-62089Y445956D03*
G01X-162089Y445956D03*
G01X-162089Y345998D03*
G01X-62089Y345998D03*
G01X37911Y345998D03*
G01X37911Y246040D03*
G01X-62089Y246040D03*
G01X-162089Y246040D03*
G01X-3922785Y-445217D03*
G01X-3822785Y-445217D03*
G01X-3722785Y-445217D03*
G01X-3722785Y-345259D03*
G01X-3822785Y-345259D03*
G01X-3922785Y-345259D03*
G01X-3922785Y-245300D03*
G01X-3822785Y-245300D03*
G01X-3722785Y-245300D03*
G01X-3923001Y445319D03*
G01X-3823001Y445319D03*
G01X-3723001Y445319D03*
G01X-3923001Y345360D03*
G01X-3823001Y345360D03*
G01X-3723001Y345360D03*
G01X-3723001Y245402D03*
G01X-3823001Y245402D03*
G01X-3923001Y245402D03*
G01X-3723001Y145444D03*
G54D15*
G01X-2343035Y1267504D03*
G54D13*
G01X-1390548Y527503D03*
G01X-2702288Y519336D03*
G01X-3000548Y277502D03*
G01X-3172785Y-90342D03*
G01X-3272785Y-90342D03*
G01X-3322785Y-145342D03*
G01X-3319475Y145527D03*
G01X-3269475Y90527D03*
G01X-60664Y-2522499D03*
G01X29336Y-2462499D03*
G01X76475Y-2370486D03*
G01X89453Y-2032499D03*
G01X89453Y-2132499D03*
G01X89453Y-2242499D03*
G01X49453Y1397503D03*
G01X-10547Y1487503D03*
G01X-190665Y-2562499D03*
G01X-290665Y-2562499D03*
G01X-390665Y-2562499D03*
G01X-490665Y-2562499D03*
G01X-590665Y-2562499D03*
G01X-690665Y-2562499D03*
G01X-790665Y-2562499D03*
G01X-890665Y-2562499D03*
G01X-990665Y-2562499D03*
G01X-1090665Y-2562499D03*
G01X-1190665Y-2562499D03*
G01X-1290665Y-2562499D03*
G01X-1390665Y-2562499D03*
G01X-1490665Y-2562499D03*
G01X-1590665Y-2562499D03*
G01X-1690665Y-2562499D03*
G01X-1790665Y-2562499D03*
G01X-1890666Y-2562499D03*
G01X-1990666Y-2562499D03*
G01X-2090666Y-2562499D03*
G01X-2190666Y-2562499D03*
G01X-2290666Y-2562499D03*
G01X-2390666Y-2562499D03*
G01X-2490666Y-2562499D03*
G01X-2590666Y-2562499D03*
G01X-2690666Y-2562499D03*
G01X-2890666Y-2562499D03*
G01X-3090666Y-2562499D03*
G01X-3190666Y-2562499D03*
G01X-3290666Y-2562499D03*
G01X-3390666Y-2562499D03*
G01X-3490666Y-2562499D03*
G01X-3590666Y-2562499D03*
G01X-3690666Y-2562499D03*
G01X-3790667Y-2562499D03*
G01X-3890549Y-2542499D03*
G01X-3970549Y-2482499D03*
G01X-4014480Y-2378568D03*
G01X-4030549Y-2285224D03*
G01X-4030549Y-2185224D03*
G01X-4030549Y-2085224D03*
G01X-4030549Y-1985224D03*
G01X-4030549Y-1885224D03*
G01X-4030549Y-1785224D03*
G01X-4030549Y-1685224D03*
G01X-4030549Y-1585224D03*
G01X-4030549Y-1485224D03*
G01X-4030549Y-1385224D03*
G01X-4030549Y-1285223D03*
G01X-4030549Y-1185223D03*
G01X-4030549Y-1085223D03*
G01X-4030549Y-985223D03*
G01X-4030549Y-885223D03*
G01X-4030549Y-785223D03*
G01X-4030549Y-685223D03*
G01X-4030549Y-585223D03*
G01X-4030549Y-485223D03*
G01X-4030549Y-385223D03*
G01X-4030549Y-285223D03*
G01X-4030549Y214777D03*
G01X-4030549Y314777D03*
G01X-4030549Y414777D03*
G01X-4030549Y514777D03*
G01X-4030549Y614778D03*
G01X-4030549Y714778D03*
G01X-4030549Y814778D03*
G01X-4030549Y914778D03*
G01X-4030549Y1014778D03*
G01X-4030549Y1114778D03*
G01X-4030549Y1214778D03*
G01X-4007409Y1350643D03*
G01X-3970549Y1447503D03*
G01X-3900549Y1507503D03*
G01X-3793093Y1557503D03*
G01X-3693093Y1557503D03*
G01X-3593093Y1557503D03*
G01X-3493093Y1557503D03*
G01X-3393093Y1557503D03*
G01X-3293092Y1557503D03*
G01X-3193092Y1557503D03*
G01X-3093092Y1557503D03*
G01X-2893092Y1557503D03*
G01X-2793092Y1557503D03*
G01X-2693092Y1557503D03*
G01X-2593092Y1557503D03*
G01X-2493092Y1557503D03*
G01X-2393092Y1557503D03*
G01X-2293092Y1557503D03*
G01X-2193092Y1557503D03*
G01X-2093092Y1557503D03*
G01X-1993092Y1557503D03*
G01X-1893092Y1557503D03*
G01X-1793092Y1557503D03*
G01X-1693092Y1557503D03*
G01X-1593092Y1557503D03*
G01X-1493092Y1557503D03*
G01X-1393091Y1557503D03*
G01X-1293091Y1557503D03*
G01X-1193091Y1557503D03*
G01X-1093091Y1557503D03*
G01X-993091Y1557503D03*
G01X-893091Y1557503D03*
G01X-793091Y1557503D03*
G01X-693091Y1557503D03*
G01X-593091Y1557503D03*
G01X-493091Y1557503D03*
G01X-393091Y1557503D03*
G01X-293091Y1557503D03*
G01X-193091Y1557503D03*
G01X-102560Y1534643D03*
G01X89453Y1267503D03*
G01X89453Y1167503D03*
G01X89453Y1067503D03*
G01X89453Y967503D03*
G01X89453Y867503D03*
G01X89453Y767503D03*
G01X89453Y667503D03*
G01X89453Y567503D03*
G01X89453Y467502D03*
G01X89453Y367502D03*
G01X89453Y267502D03*
G01X89453Y167502D03*
G01X89453Y-232498D03*
G01X89453Y-332498D03*
G01X89453Y-432498D03*
G01X89453Y-532498D03*
G01X89453Y-632498D03*
G01X89453Y-732498D03*
G01X89453Y-832498D03*
G01X89453Y-932498D03*
G01X89453Y-1032498D03*
G01X89453Y-1132498D03*
G01X89453Y-1232498D03*
G01X89453Y-1332498D03*
G01X89453Y-1432499D03*
G01X89453Y-1532499D03*
G01X89453Y-1632499D03*
G01X89453Y-1732499D03*
G01X89453Y-1832499D03*
G01X89453Y-1932499D03*
G01X-2620549Y729757D03*
G01X-2070548Y-1622499D03*
G01X-2230548Y-1622499D03*
G01X-2390548Y-1722499D03*
G01X-2430548Y-2162499D03*
G01X-1380550Y-1441276D03*
G01X-2780548Y-1589763D03*
G01X-1870548Y-1512499D03*
G01X-2050548Y-1512499D03*
G01X-2780551Y-1441131D03*
G01X-2780550Y-713574D03*
G01X-2780550Y-863574D03*
G01X-2780548Y-992498D03*
G54D15*
G01X-1240547Y1257503D03*
G54D14*
G01X-3500549Y827503D03*
G54D13*
G01X-267504Y-316763D03*
G01X-3455053Y-740000D03*
G54D14*
G01X-3295053Y-2150001D03*
G54D13*
G01X-2324548Y-27499D03*
G01X-2360548Y27502D03*
G01X-2749543Y22200D03*
G01X-2572911Y-268673D03*
G01X-1760548Y-1452498D03*
G01X-1710548Y-1392498D03*
G01X-1620548Y-1322498D03*
G01X-1550548Y-1262498D03*
G01X-3046547Y-2393494D03*
G01X-2873547Y-2140495D03*
G01X-3130889Y-2332160D03*
G01X-3290549Y-2312499D03*
G01X-2700548Y-2012499D03*
G01X-2340548Y-1912499D03*
G01X-1740548Y-2092499D03*
G01X-2749543Y228450D03*
G01X-2895934Y-149142D03*
G01X-2765928Y-149142D03*
G01X-3222785Y-145342D03*
G01X-2580889Y90840D03*
G01X-662089Y-146081D03*
G01X-262089Y146081D03*
G01X-762089Y-146081D03*
G01X-1741583Y-310283D03*
G01X-1699545Y-363508D03*
G01X-860547Y386502D03*
G01X-1183351Y247907D03*
G01X-1692506Y242680D03*
G01X-2212089Y91081D03*
G01X-2162089Y146081D03*
G01X-2649475Y90527D03*
G01X-810888Y320840D03*
G01X-1850889Y-659160D03*
G01X-1750889Y-659160D03*
G01X-1950889Y-659160D03*
G01X-2050889Y-659160D03*
G01X-2280889Y-569160D03*
G01X-2633732Y-286317D03*
G01X-2350889Y-569160D03*
G01X-2351600Y-498449D03*
G01X-479636Y-598895D03*
G01X-338214Y-387474D03*
G01X-408925Y-458184D03*
G01X-479636Y-528895D03*
G01X-267504Y-386763D03*
G01X-338214Y-457474D03*
G01X-408925Y-528184D03*
G01X-607506Y-543895D03*
G01X-557506Y-598895D03*
G01X-757506Y-598895D03*
G01X-657506Y-598895D03*
G01X-1607506Y-543895D03*
G01X-1557506Y-598895D03*
G01X-1507506Y-543895D03*
G01X-1457506Y-598895D03*
G01X-1407506Y-543895D03*
G01X-1357506Y-598895D03*
G01X-1207506Y-543895D03*
G01X-1157506Y-598895D03*
G01X-1007506Y-543895D03*
G01X-707506Y-543895D03*
G01X-857507Y-306732D03*
G01X-807507Y-361732D03*
G01X-757507Y-306732D03*
G01X-707507Y-361732D03*
G01X-1007507Y-361732D03*
G01X-712089Y-91081D03*
G01X-607507Y-361732D03*
G01X-657507Y-306732D03*
G01X-907507Y-361732D03*
G01X-957507Y-306732D03*
G01X-1057507Y-306732D03*
G01X-1107507Y-361732D03*
G01X-1157507Y-306732D03*
G01X-1207507Y-361732D03*
G01X-1257507Y-306732D03*
G01X-1307507Y-361732D03*
G01X-1357507Y-306732D03*
G01X-1607507Y-361732D03*
G01X-1649545Y-308508D03*
G01X-1858389Y-284160D03*
G01X-2007507Y-361732D03*
G01X-2057507Y-306732D03*
G01X-2458459Y-386167D03*
G01X-581596Y-294461D03*
G01X-636596Y-244461D03*
G01X-581596Y-194461D03*
G01X-2209782Y-94245D03*
G01X-2154783Y-144245D03*
G01X-2209782Y-194245D03*
G01X-2154783Y-244245D03*
G01X-2990312Y509858D03*
G01X-2935312Y459858D03*
G01X-2990312Y409858D03*
G01X-1762089Y146081D03*
G01X-1712089Y91081D03*
G01X-1662089Y146081D03*
G01X-2466766Y108709D03*
G01X-2919475Y145527D03*
G01X-2819475Y145527D03*
G01X-3219475Y145527D03*
G01X-3119475Y145527D03*
G01X-3019475Y145527D03*
G01X-2012089Y91081D03*
G01X-2062089Y146081D03*
G01X-1812089Y91081D03*
G01X-1862089Y146081D03*
G01X-1962089Y146081D03*
G01X-1912089Y91081D03*
G01X-862089Y146081D03*
G01X-912089Y91081D03*
G01X-962089Y146081D03*
G01X-562089Y146081D03*
G01X-612089Y91081D03*
G01X-662089Y146081D03*
G01X-712089Y91081D03*
G01X-812089Y91081D03*
G01X-762089Y146081D03*
G01X87911Y91081D03*
G01X37911Y146081D03*
G01X-12089Y91081D03*
G01X-62089Y146081D03*
G01X-112089Y91081D03*
G01X-162089Y146081D03*
G01X-212089Y91081D03*
G01X-2769475Y90527D03*
G01X-2969475Y90527D03*
G01X-3069475Y90527D03*
G01X-3169475Y90527D03*
G01X-3773001Y90444D03*
G01X-3873001Y90444D03*
G01X-3973001Y90444D03*
G01X-3623001Y145444D03*
G01X-3823001Y145444D03*
G01X-4023001Y145444D03*
G01X37911Y-146081D03*
G01X-62089Y-146081D03*
G01X-162089Y-146081D03*
G01X87911Y-91081D03*
G01X-12089Y-91081D03*
G01X-112089Y-91081D03*
G01X-212089Y-91081D03*
G01X-862089Y-146081D03*
G01X-962089Y-146081D03*
G01X-1062089Y-146081D03*
G01X-1162089Y-146081D03*
G01X-1262089Y-146081D03*
G01X-1362089Y-146081D03*
G01X-812089Y-91081D03*
G01X-912089Y-91081D03*
G01X-1012089Y-91081D03*
G01X-1112089Y-91081D03*
G01X-1212089Y-91081D03*
G01X-1562089Y-146081D03*
G01X-1862089Y-146081D03*
G01X-1962089Y-146081D03*
G01X-2062089Y-146081D03*
G01X-1912089Y-91081D03*
G01X-2012089Y-91081D03*
G01X-1462089Y-146081D03*
G01X-2622785Y-145342D03*
G01X-2572785Y-90342D03*
G01X-3422785Y-145342D03*
G01X-3522785Y-145342D03*
G01X-3622785Y-145342D03*
G01X-3722785Y-145342D03*
G01X-3822785Y-145342D03*
G01X-3922785Y-145342D03*
G01X-4022785Y-145342D03*
G01X-3372785Y-90342D03*
G01X-3472785Y-90342D03*
G01X-3572785Y-90342D03*
G01X-3672785Y-90342D03*
G01X-3772785Y-90342D03*
G01X-3872785Y-90342D03*
G01X-3972785Y-90342D03*
G01X-2217269Y-1029860D03*
G01X-2217269Y-915560D03*
G01X-1696569Y-968900D03*
G01X-3280549Y627503D03*
G01X-3060890Y770841D03*
G01X-1704189Y-811420D03*
G01X-1721108Y814381D03*
G01X-1389229Y-49420D03*
G01X-1437489Y-31640D03*
G01X-1389229Y3073D03*
G01X-1437489Y22547D03*
G01X-1389229Y55567D03*
G01X-1437489Y76733D03*
G01X-1389229Y108060D03*
G01X-1437489Y130920D03*
G01X-1836454Y-201066D03*
G01X-412932Y-33020D03*
G01X-467773Y33350D03*
G01X-1260548Y187502D03*
G01X-1540548Y717503D03*
G01X-2524034Y447874D03*
G01X-2748129Y689720D03*
G01X-2875751Y689152D03*
G01X-1631214Y-205754D03*
G01X-2230548Y257502D03*
G54D17*
G01X-925051Y-1060001D03*
G01X-1517115Y-1104924D03*
G54D13*
G01X-330547Y257502D03*
G54D17*
G01X-870547Y1307503D03*
G01X-1940548Y1297503D03*
G54D13*
G01X-2370548Y-1552499D03*
G01X-1945548Y447874D03*
G01X-460547Y607503D03*
G01X-2221039Y-1123998D03*
G01X-1610548Y1257503D03*
G01X-2648547Y1098499D03*
G01X-2656547Y1330498D03*
G01X-2750548Y1327503D03*
G54D15*
G01X-3345053Y1250001D03*
G54D14*
G01X-3450549Y227502D03*
G54D13*
G01X-1958189Y-1169560D03*
G01X-2137039Y-1172998D03*
G01X-2115052Y-1370001D03*
G01X-2106669Y-1460500D03*
G01X-1829049Y-777280D03*
G01X-2099049Y-867280D03*
G01X-1829049Y-957280D03*
G01X-2099049Y-1047280D03*
G01X-2009049Y-1047280D03*
G01X-1919049Y-1047280D03*
G01X-1829049Y-1047280D03*
G01X-1919049Y-957280D03*
G01X-2009049Y-957280D03*
G01X-2099049Y-957280D03*
G01X-2009049Y-867280D03*
G01X-1919049Y-777280D03*
G01X-2009049Y-777280D03*
G01X-2099049Y-777280D03*
G01X-1829049Y-867280D03*
G01X-1919049Y-867280D03*
G01X-842105Y-2242160D03*
G01X-840547Y-1852499D03*
G01X-1525052Y-1840001D03*
G01X-1029709Y-1159662D03*
G01X-1228947Y-1104900D03*
G01X-1240547Y-992498D03*
G01X-1380548Y-972498D03*
G01X-1910548Y-1622499D03*
G01X-2150548Y-1612499D03*
G01X-2465052Y-840000D03*
G01X-2230550Y-803574D03*
G01X-2205052Y-740000D03*
G01X-2905053Y-1090001D03*
G01X-3835053Y-1170001D03*
G01X-1820549Y-1613574D03*
G01X-1810549Y-1383574D03*
G01X-2750550Y-1213574D03*
G01X-2800550Y-1293574D03*
G01X-1380550Y-1293741D03*
G01X-1240545Y-701276D03*
G01X-2005052Y-1450001D03*
G01X-2785052Y-380000D03*
G01X-2719475Y145527D03*
G01X-2585052Y-380000D03*
G01X-2653379Y-594920D03*
G01X-2640546Y-861131D03*
G01X-2645052Y-990001D03*
G01X-2805553Y-554920D03*
G01X-2715052Y-1090001D03*
G01X-2955053Y-1180001D03*
G01X-3923001Y145444D03*
G01X-1455469Y-284957D03*
G01X-864536Y-680071D03*
G01X-873771Y-837698D03*
G01X-1107506Y-543895D03*
G01X-1057506Y-598895D03*
G01X-1364909Y-476999D03*
G01X-1407175Y-432818D03*
G01X-230889Y-2039160D03*
G01X-20889Y-2249160D03*
G01X-230889Y-2459160D03*
G01X-440889Y-2249160D03*
G01X-379382Y-2100668D03*
G01X-379382Y-2397653D03*
G01X-82397Y-2397653D03*
G01X-82397Y-2100668D03*
G01X-424903Y-2168795D03*
G01X-311254Y-2443174D03*
G01X-36875Y-2329525D03*
G01X-150524Y-2055146D03*
G01X-424904Y-2329522D03*
G01X-311251Y-2055145D03*
G01X-36874Y-2168798D03*
G01X-150527Y-2443175D03*
G01X-3710889Y-2039160D03*
G01X-3500889Y-2249160D03*
G01X-3710889Y-2459160D03*
G01X-3920889Y-2249160D03*
G01X-3859382Y-2100668D03*
G01X-3859382Y-2397653D03*
G01X-3562397Y-2397653D03*
G01X-3562397Y-2100668D03*
G01X-3904904Y-2168795D03*
G01X-3791254Y-2443174D03*
G01X-3516875Y-2329525D03*
G01X-3630524Y-2055146D03*
G01X-3904905Y-2329522D03*
G01X-3791251Y-2055145D03*
G01X-3516874Y-2168798D03*
G01X-3630527Y-2443175D03*
G01X-230889Y1440840D03*
G01X-20889Y1230840D03*
G01X-230889Y1020840D03*
G01X-440889Y1230840D03*
G01X-379382Y1379333D03*
G01X-379382Y1082348D03*
G01X-82397Y1082348D03*
G01X-82397Y1379333D03*
G01X-424903Y1311205D03*
G01X-311254Y1036826D03*
G01X-36875Y1150475D03*
G01X-150524Y1424854D03*
G01X-424904Y1150478D03*
G01X-311251Y1424855D03*
G01X-36874Y1311202D03*
G01X-150527Y1036825D03*
G01X-3710889Y1440840D03*
G01X-3500889Y1230840D03*
G01X-3710889Y1020840D03*
G01X-3920889Y1230840D03*
G01X-3859382Y1379333D03*
G01X-3859382Y1082348D03*
G01X-3562397Y1082348D03*
G01X-3562397Y1379333D03*
G01X-3904904Y1311205D03*
G01X-3791254Y1036826D03*
G01X-3516875Y1150475D03*
G01X-3630524Y1424854D03*
G01X-3904905Y1150478D03*
G01X-3791251Y1424855D03*
G01X-3516874Y1311202D03*
G01X-3630527Y1036825D03*
G54D18*
G01X-1010420Y834011D03*
G01X-1090404Y834011D03*
G01X-1170414Y834011D03*
G01X-1250399Y834011D03*
G01X-1250399Y754001D03*
G01X-1170414Y754001D03*
G01X-1090404Y754001D03*
G01X-1010420Y754001D03*
G01X-1010420Y673991D03*
G01X-1090404Y673991D03*
G01X-1170414Y673991D03*
G01X-1250399Y673991D03*
G01X-2104040Y833522D03*
G01X-2184024Y833522D03*
G01X-2264034Y833522D03*
G01X-2344019Y833522D03*
G01X-2344019Y753512D03*
G01X-2264034Y753512D03*
G01X-2184024Y753512D03*
G01X-2104040Y753512D03*
G01X-2104040Y673502D03*
G01X-2184024Y673502D03*
G01X-2264034Y673502D03*
G01X-2344019Y673502D03*
G04 Via End*

G04 Track Start*
G54D19*
G01X-1390548Y527503D02*
G01X-1398619Y535574D01*
G01X-2560361Y535574D01*
G01X-2576599Y519336D01*
G01X-2702288Y519336D01*
G54D20*
G01X-1820549Y-1613574D02*
G01X-1870549Y-1563574D01*
G01X-2230549Y-1563574D02*
G01X-2500549Y-1293574D01*
G01X-2800550Y-1293574D01*
G01X-1870549Y-1563574D02*
G01X-2230549Y-1563574D01*
G54D21*
G01X-2653379Y-594920D02*
G01X-2585052Y-526594D01*
G01X-2585052Y-380000D01*
G54D20*
G01X-2461479Y-1213574D02*
G01X-2750550Y-1213574D01*
G01X-2215052Y-1340001D02*
G01X-2335052Y-1340001D01*
G01X-2461479Y-1213574D01*
G01X-1810549Y-1383574D02*
G01X-1904122Y-1290001D01*
G01X-2165052Y-1290001D01*
G01X-2215052Y-1340001D01*
G54D21*
G01X-2715052Y-1090001D02*
G01X-2665052Y-1090001D01*
G01X-2465052Y-890001D01*
G01X-2465052Y-840000D01*
G01X-2230550Y-803574D02*
G01X-2245549Y-818574D01*
G01X-2328259Y-818574D01*
G01X-2859852Y-1135201D02*
G01X-2905053Y-1090001D01*
G01X-2328259Y-818574D02*
G01X-2644886Y-1135201D01*
G01X-2859852Y-1135201D01*
G01X-2205052Y-740000D02*
G01X-2205052Y-765148D01*
G01X-2185349Y-784851D01*
G01X-2185349Y-829703D01*
G01X-2185052Y-830000D01*
G01X-2224850Y-869798D01*
G01X-2259951Y-869798D01*
G01X-2558527Y-1168374D01*
G01X-2943426Y-1168374D01*
G01X-2955053Y-1180001D01*
G01X-2463544Y242708D02*
G01X-2308750Y397503D01*
G01X-1730548Y397503D01*
G04 Track End*

M02*

