;TYPE=PLATED
;Layer: PTH_Through_Via
;EasyEDA Pro v2.2.27.1, 2024-09-01 09:43:49
;Gerber Generator version 0.3
M48
METRIC,LZ,000.00000
;Hole size 1 = 0.20000 METRIC
T01C0.20000
;Hole size 2 = 0.30002 METRIC
T02C0.30002
;Hole size 3 = 0.40000 METRIC
T03C0.40000
;Hole size 4 = 0.50000 METRIC
T04C0.50000
%
G05
G90
T01
X-18.90548Y8.17503
X-30.21547Y-1.46499
X-26.54547Y2.572
X-17.20548Y3.98503
X-24.63544Y2.42708
X-4.60547Y4.28503
X-1.30545Y9.47505
X-1.30545Y7.47504
X-1.30545Y5.47504
X-1.30545Y-6.52496
X-1.30545Y-8.52496
X-1.30545Y-10.52496
X-1.30545Y-18.52497
X-3.30545Y9.47505
X-3.30545Y7.47504
X-3.10547Y4.57503
X-3.30545Y1.47504
X-3.30545Y-8.52496
X-3.30545Y-18.52497
X-5.30546Y13.47505
X-5.30546Y11.47505
X-5.30546Y9.47505
X-5.30546Y7.47504
X-5.30546Y3.47504
X-5.30546Y-6.52496
X-5.30546Y-8.52496
X-5.30546Y-12.52497
X-5.30546Y-20.52497
X-5.30546Y-22.52497
X-5.30546Y-24.52497
X-7.30546Y13.47505
X-7.30546Y11.47505
X-7.30546Y9.47505
X-7.30546Y7.47504
X-7.30546Y5.47504
X-7.30546Y3.47504
X-7.30546Y-2.52496
X-7.30546Y-6.52496
X-7.30546Y-20.52497
X-7.30546Y-24.52497
X-9.30546Y11.47505
X-9.30546Y7.47504
X-9.30546Y-2.52496
X-9.30546Y-20.52497
X-9.30546Y-24.52497
X-11.30546Y-2.52496
X-11.30546Y-6.52496
X-11.30546Y-20.52497
X-11.30546Y-22.52497
X-11.30546Y-24.52497
X-13.30546Y-2.52496
X-13.30546Y-20.52497
X-13.30546Y-22.52497
X-13.30546Y-24.52497
X-15.30546Y9.47505
X-15.30546Y3.47504
X-15.30546Y-16.52497
X-15.30546Y-20.52497
X-15.30546Y-24.52497
X-17.30546Y13.47505
X-17.30546Y9.47505
X-17.30546Y7.47504
X-17.30546Y-22.52497
X-17.30546Y-24.52497
X-19.30546Y11.47505
X-19.30546Y-24.52497
X-21.30546Y-22.52497
X-25.30547Y13.47505
X-25.30547Y11.47505
X-25.30547Y9.47505
X-25.30547Y7.47504
X-25.30547Y-18.52497
X-27.30547Y9.47505
X-29.30547Y-12.52497
X-29.30547Y-14.52497
X-29.30547Y-16.52497
X-29.30547Y-18.52497
X-31.30547Y-2.52496
X-31.30547Y-4.52496
X-31.30547Y-12.52497
X-33.30547Y13.47505
X-33.30547Y11.47505
X-33.30547Y9.47505
X-33.30547Y5.47504
X-33.30547Y-2.52496
X-33.30547Y-6.52496
X-33.30547Y-8.52496
X-33.30547Y-16.52497
X-33.30547Y-18.52497
X-35.30547Y9.47505
X-35.30547Y5.47504
X-35.30547Y3.47504
X-35.30547Y-2.52496
X-35.30547Y-6.52496
X-35.30547Y-8.52496
X-35.30547Y-10.52496
X-35.30547Y-16.52497
X-35.30547Y-18.52497
X-37.30547Y9.47505
X-37.30547Y7.47504
X-37.30547Y5.47504
X-37.30547Y-6.52496
X-37.30547Y-8.52496
X-37.30547Y-10.52496
X-37.30547Y-12.52497
X-37.30547Y-16.52497
X-39.30547Y9.47505
X-39.30547Y7.47504
X-39.30547Y5.47504
X-39.30547Y-6.52496
X-39.30547Y-8.52496
X-39.30547Y-10.52496
X-39.30547Y-12.52497
X-39.30547Y-16.52497
X-39.30547Y-18.52497
X-39.30547Y-20.52497
X-27.49558Y10.93506
X-29.93092Y15.57503
X-27.90666Y-25.62499
X-29.90666Y-25.62499
X-26.40466Y-15.89763
X-4.60547Y-14.52498
X-2.90547Y-13.22498
X-1.00547Y-13.22498
X-1.40547Y-13.82498
X-8.10547Y-9.72498
X-6.35547Y-12.52498
X-15.03211Y-0.62985
X-9.60697Y2.44788
X-11.70414Y5.59737
X-10.66669Y13.14868
X-21.27544Y12.67502
X-1.62089Y-4.45957
X-0.62089Y-4.45957
X0.37911Y-4.45957
X0.37911Y-3.45998
X-0.62089Y-3.45998
X-1.62089Y-3.45998
X-1.62089Y-2.4604
X-0.62089Y-2.4604
X0.37911Y-2.4604
X0.37911Y4.45956
X-0.62089Y4.45956
X-1.62089Y4.45956
X-1.62089Y3.45998
X-0.62089Y3.45998
X0.37911Y3.45998
X0.37911Y2.4604
X-0.62089Y2.4604
X-1.62089Y2.4604
X-39.22785Y-4.45217
X-38.22785Y-4.45217
X-37.22785Y-4.45217
X-37.22785Y-3.45259
X-38.22785Y-3.45259
X-39.22785Y-3.45259
X-39.22785Y-2.453
X-38.22785Y-2.453
X-37.22785Y-2.453
X-39.23001Y4.45319
X-38.23001Y4.45319
X-37.23001Y4.45319
X-39.23001Y3.4536
X-38.23001Y3.4536
X-37.23001Y3.4536
X-37.23001Y2.45402
X-38.23001Y2.45402
X-39.23001Y2.45402
X-37.23001Y1.45444
X-13.90548Y5.27503
X-27.02288Y5.19336
X-30.00548Y2.77502
X-31.72785Y-0.90342
X-32.72785Y-0.90342
X-33.22785Y-1.45342
X-33.19475Y1.45527
X-32.69475Y0.90527
X-0.60664Y-25.22499
X0.29336Y-24.62499
X0.76475Y-23.70486
X0.89453Y-20.32499
X0.89453Y-21.32499
X0.89453Y-22.42499
X0.49453Y13.97503
X-0.10547Y14.87503
X-1.90665Y-25.62499
X-2.90665Y-25.62499
X-3.90665Y-25.62499
X-4.90665Y-25.62499
X-5.90665Y-25.62499
X-6.90665Y-25.62499
X-7.90665Y-25.62499
X-8.90665Y-25.62499
X-9.90665Y-25.62499
X-10.90665Y-25.62499
X-11.90665Y-25.62499
X-12.90665Y-25.62499
X-13.90665Y-25.62499
X-14.90665Y-25.62499
X-15.90665Y-25.62499
X-16.90665Y-25.62499
X-17.90665Y-25.62499
X-18.90666Y-25.62499
X-19.90666Y-25.62499
X-20.90666Y-25.62499
X-21.90666Y-25.62499
X-22.90666Y-25.62499
X-23.90666Y-25.62499
X-24.90666Y-25.62499
X-25.90666Y-25.62499
X-26.90666Y-25.62499
X-28.90666Y-25.62499
X-30.90666Y-25.62499
X-31.90666Y-25.62499
X-32.90666Y-25.62499
X-33.90666Y-25.62499
X-34.90666Y-25.62499
X-35.90666Y-25.62499
X-36.90666Y-25.62499
X-37.90667Y-25.62499
X-38.90549Y-25.42499
X-39.70549Y-24.82499
X-40.1448Y-23.78568
X-40.30549Y-22.85224
X-40.30549Y-21.85224
X-40.30549Y-20.85224
X-40.30549Y-19.85224
X-40.30549Y-18.85224
X-40.30549Y-17.85224
X-40.30549Y-16.85224
X-40.30549Y-15.85224
X-40.30549Y-14.85224
X-40.30549Y-13.85224
X-40.30549Y-12.85223
X-40.30549Y-11.85223
X-40.30549Y-10.85223
X-40.30549Y-9.85223
X-40.30549Y-8.85223
X-40.30549Y-7.85223
X-40.30549Y-6.85223
X-40.30549Y-5.85223
X-40.30549Y-4.85223
X-40.30549Y-3.85223
X-40.30549Y-2.85223
X-40.30549Y2.14777
X-40.30549Y3.14777
X-40.30549Y4.14777
X-40.30549Y5.14777
X-40.30549Y6.14778
X-40.30549Y7.14778
X-40.30549Y8.14778
X-40.30549Y9.14778
X-40.30549Y10.14778
X-40.30549Y11.14778
X-40.30549Y12.14778
X-40.07409Y13.50643
X-39.70549Y14.47503
X-39.00549Y15.07503
X-37.93093Y15.57503
X-36.93093Y15.57503
X-35.93093Y15.57503
X-34.93093Y15.57503
X-33.93093Y15.57503
X-32.93092Y15.57503
X-31.93092Y15.57503
X-30.93092Y15.57503
X-28.93092Y15.57503
X-27.93092Y15.57503
X-26.93092Y15.57503
X-25.93092Y15.57503
X-24.93092Y15.57503
X-23.93092Y15.57503
X-22.93092Y15.57503
X-21.93092Y15.57503
X-20.93092Y15.57503
X-19.93092Y15.57503
X-18.93092Y15.57503
X-17.93092Y15.57503
X-16.93092Y15.57503
X-15.93092Y15.57503
X-14.93092Y15.57503
X-13.93091Y15.57503
X-12.93091Y15.57503
X-11.93091Y15.57503
X-10.93091Y15.57503
X-9.93091Y15.57503
X-8.93091Y15.57503
X-7.93091Y15.57503
X-6.93091Y15.57503
X-5.93091Y15.57503
X-4.93091Y15.57503
X-3.93091Y15.57503
X-2.93091Y15.57503
X-1.93091Y15.57503
X-1.0256Y15.34643
X0.89453Y12.67503
X0.89453Y11.67503
X0.89453Y10.67503
X0.89453Y9.67503
X0.89453Y8.67503
X0.89453Y7.67503
X0.89453Y6.67503
X0.89453Y5.67503
X0.89453Y4.67502
X0.89453Y3.67502
X0.89453Y2.67502
X0.89453Y1.67502
X0.89453Y-2.32498
X0.89453Y-3.32498
X0.89453Y-4.32498
X0.89453Y-5.32498
X0.89453Y-6.32498
X0.89453Y-7.32498
X0.89453Y-8.32498
X0.89453Y-9.32498
X0.89453Y-10.32498
X0.89453Y-11.32498
X0.89453Y-12.32498
X0.89453Y-13.32498
X0.89453Y-14.32499
X0.89453Y-15.32499
X0.89453Y-16.32499
X0.89453Y-17.32499
X0.89453Y-18.32499
X0.89453Y-19.32499
X-26.20549Y7.29757
X-20.70548Y-16.22499
X-22.30548Y-16.22499
X-23.90548Y-17.22499
X-24.30548Y-21.62499
X-13.8055Y-14.41276
X-27.80548Y-15.89763
X-18.70548Y-15.12499
X-20.50548Y-15.12499
X-27.80551Y-14.41131
X-27.8055Y-7.13574
X-27.8055Y-8.63574
X-27.80548Y-9.92498
X-2.67504Y-3.16763
X-34.55053Y-7.4
X-23.24548Y-0.27499
X-23.60548Y0.27502
X-27.49543Y0.222
X-25.72911Y-2.68673
X-17.60548Y-14.52498
X-17.10548Y-13.92498
X-16.20548Y-13.22498
X-15.50548Y-12.62498
X-30.46547Y-23.93494
X-28.73547Y-21.40495
X-31.30889Y-23.3216
X-32.90549Y-23.12499
X-27.00548Y-20.12499
X-23.40548Y-19.12499
X-17.40548Y-20.92499
X-27.49543Y2.2845
X-28.95934Y-1.49142
X-27.65928Y-1.49142
X-32.22785Y-1.45342
X-25.80889Y0.9084
X-6.62089Y-1.46081
X-2.62089Y1.46081
X-7.62089Y-1.46081
X-17.41583Y-3.10283
X-16.99545Y-3.63508
X-8.60547Y3.86502
X-11.83351Y2.47907
X-16.92506Y2.4268
X-22.12089Y0.91081
X-21.62089Y1.46081
X-26.49475Y0.90527
X-8.10888Y3.2084
X-18.50889Y-6.5916
X-17.50889Y-6.5916
X-19.50889Y-6.5916
X-20.50889Y-6.5916
X-22.80889Y-5.6916
X-26.33732Y-2.86317
X-23.50889Y-5.6916
X-23.516Y-4.98449
X-4.79636Y-5.98895
X-3.38214Y-3.87474
X-4.08925Y-4.58184
X-4.79636Y-5.28895
X-2.67504Y-3.86763
X-3.38214Y-4.57474
X-4.08925Y-5.28184
X-6.07506Y-5.43895
X-5.57506Y-5.98895
X-7.57506Y-5.98895
X-6.57506Y-5.98895
X-16.07506Y-5.43895
X-15.57506Y-5.98895
X-15.07506Y-5.43895
X-14.57506Y-5.98895
X-14.07506Y-5.43895
X-13.57506Y-5.98895
X-11.57506Y-5.98895
X-10.07506Y-5.43895
X-7.07506Y-5.43895
X-8.57507Y-3.06732
X-8.07507Y-3.61732
X-7.57507Y-3.06732
X-7.07507Y-3.61732
X-10.07507Y-3.61732
X-7.12089Y-0.91081
X-6.07507Y-3.61732
X-6.57507Y-3.06732
X-9.07507Y-3.61732
X-9.57507Y-3.06732
X-10.57507Y-3.06732
X-11.07507Y-3.61732
X-11.57507Y-3.06732
X-12.07507Y-3.61732
X-12.57507Y-3.06732
X-13.07507Y-3.61732
X-13.57507Y-3.06732
X-16.07507Y-3.61732
X-16.49545Y-3.08508
X-18.58389Y-2.8416
X-20.07507Y-3.61732
X-20.57507Y-3.06732
X-24.58459Y-3.86167
X-5.81596Y-2.94461
X-6.36596Y-2.44461
X-5.81596Y-1.94461
X-22.09782Y-0.94245
X-21.54783Y-1.44245
X-22.09782Y-1.94245
X-21.54783Y-2.44245
X-29.35312Y4.59858
X-29.90312Y4.09858
X-17.62089Y1.46081
X-17.12089Y0.91081
X-16.62089Y1.46081
X-24.66766Y1.08709
X-29.19475Y1.45527
X-28.19475Y1.45527
X-32.19475Y1.45527
X-31.19475Y1.45527
X-30.19475Y1.45527
X-20.12089Y0.91081
X-20.62089Y1.46081
X-18.12089Y0.91081
X-18.62089Y1.46081
X-19.62089Y1.46081
X-19.12089Y0.91081
X-8.62089Y1.46081
X-9.12089Y0.91081
X-9.62089Y1.46081
X-5.62089Y1.46081
X-6.12089Y0.91081
X-6.62089Y1.46081
X-7.12089Y0.91081
X-8.12089Y0.91081
X-7.62089Y1.46081
X0.87911Y0.91081
X0.37911Y1.46081
X-0.12089Y0.91081
X-0.62089Y1.46081
X-1.12089Y0.91081
X-1.62089Y1.46081
X-2.12089Y0.91081
X-27.69475Y0.90527
X-29.69475Y0.90527
X-30.69475Y0.90527
X-31.69475Y0.90527
X-37.73001Y0.90444
X-38.73001Y0.90444
X-39.73001Y0.90444
X-36.23001Y1.45444
X-38.23001Y1.45444
X-40.23001Y1.45444
X0.37911Y-1.46081
X-0.62089Y-1.46081
X-1.62089Y-1.46081
X0.87911Y-0.91081
X-0.12089Y-0.91081
X-1.12089Y-0.91081
X-2.12089Y-0.91081
X-8.62089Y-1.46081
X-9.62089Y-1.46081
X-10.62089Y-1.46081
X-11.62089Y-1.46081
X-12.62089Y-1.46081
X-13.62089Y-1.46081
X-8.12089Y-0.91081
X-9.12089Y-0.91081
X-10.12089Y-0.91081
X-11.12089Y-0.91081
X-12.12089Y-0.91081
X-18.62089Y-1.46081
X-19.62089Y-1.46081
X-20.62089Y-1.46081
X-19.12089Y-0.91081
X-20.12089Y-0.91081
X-14.62089Y-1.46081
X-26.22785Y-1.45342
X-25.72785Y-0.90342
X-34.22785Y-1.45342
X-35.22785Y-1.45342
X-36.22785Y-1.45342
X-37.22785Y-1.45342
X-38.22785Y-1.45342
X-39.22785Y-1.45342
X-40.22785Y-1.45342
X-33.72785Y-0.90342
X-34.72785Y-0.90342
X-35.72785Y-0.90342
X-36.72785Y-0.90342
X-37.72785Y-0.90342
X-38.72785Y-0.90342
X-39.72785Y-0.90342
X-22.17269Y-10.2986
X-22.17269Y-9.1556
X-16.96569Y-9.689
X-33.90548Y5.83503
X-30.3289Y7.21841
X-17.04189Y-8.1142
X-17.21108Y8.14381
X-13.89229Y-0.4942
X-14.37489Y-0.3164
X-13.89229Y0.03073
X-14.37489Y0.22547
X-13.89229Y0.55567
X-14.37489Y0.76733
X-13.89229Y1.0806
X-14.37489Y1.3092
X-18.36454Y-2.01066
X-4.12932Y-0.3302
X-4.67773Y0.3335
X-12.60548Y1.87502
X-15.40548Y7.17503
X-25.24034Y4.47874
X-27.48129Y6.8972
X-28.75751Y6.89152
X-16.31214Y-2.05754
X-22.30548Y2.57502
X-3.30547Y2.57502
X-23.70548Y-15.52499
X-19.45548Y4.47874
X-4.60547Y6.07503
X-22.21039Y-11.23998
X-16.10548Y12.57503
X-26.48547Y10.98499
X-26.56547Y13.30498
X-27.50548Y13.27503
X-19.58189Y-11.6956
X-21.37039Y-11.72998
X-21.15052Y-13.70001
X-21.06669Y-14.605
X-18.29049Y-7.7728
X-20.99049Y-8.6728
X-18.29049Y-9.5728
X-20.99049Y-10.4728
X-20.09049Y-10.4728
X-19.19049Y-10.4728
X-18.29049Y-10.4728
X-19.19049Y-9.5728
X-20.09049Y-9.5728
X-20.99049Y-9.5728
X-20.09049Y-8.6728
X-19.19049Y-7.7728
X-20.09049Y-7.7728
X-20.99049Y-7.7728
X-18.29049Y-8.6728
X-19.19049Y-8.6728
X-8.42105Y-22.4216
X-8.40547Y-18.52499
X-15.25052Y-18.40001
X-10.29709Y-11.59662
X-12.28947Y-11.049
X-12.40547Y-9.92498
X-13.80548Y-9.72498
X-19.10548Y-16.22499
X-21.50548Y-16.12499
X-24.65052Y-8.4
X-22.3055Y-8.03574
X-22.05052Y-7.4
X-29.05053Y-10.90001
X-38.35053Y-11.70001
X-18.20549Y-16.13574
X-18.10549Y-13.83574
X-27.5055Y-12.13574
X-28.0055Y-12.93574
X-13.8055Y-12.93741
X-12.40545Y-7.01276
X-20.05052Y-14.50001
X-27.85052Y-3.8
X-27.19475Y1.45527
X-25.85052Y-3.8
X-26.53379Y-5.9492
X-26.40546Y-8.61131
X-26.45052Y-9.90001
X-28.05553Y-5.5492
X-27.15052Y-10.90001
X-29.55053Y-11.80001
X-39.23001Y1.45444
X-14.55469Y-2.84957
X-8.64536Y-6.80071
X-8.73771Y-8.37698
X-11.07506Y-5.43895
X-10.57506Y-5.98895
X-13.64909Y-4.76999
X-14.07175Y-4.32818
X-2.30889Y-20.3916
X-0.20889Y-22.4916
X-2.30889Y-24.5916
X-4.40889Y-22.4916
X-3.79382Y-21.00668
X-3.79382Y-23.97653
X-0.82397Y-23.97653
X-0.82397Y-21.00668
X-4.24903Y-21.68795
X-3.11254Y-24.43174
X-0.36875Y-23.29525
X-1.50524Y-20.55146
X-4.24904Y-23.29522
X-3.11251Y-20.55145
X-0.36874Y-21.68798
X-1.50527Y-24.43175
X-37.10889Y-20.3916
X-35.00889Y-22.4916
X-37.10889Y-24.5916
X-39.20889Y-22.4916
X-38.59382Y-21.00668
X-38.59382Y-23.97653
X-35.62397Y-23.97653
X-35.62397Y-21.00668
X-39.04904Y-21.68795
X-37.91254Y-24.43174
X-35.16875Y-23.29525
X-36.30524Y-20.55146
X-39.04905Y-23.29522
X-37.91251Y-20.55145
X-35.16874Y-21.68798
X-36.30527Y-24.43175
X-2.30889Y14.4084
X-0.20889Y12.3084
X-2.30889Y10.2084
X-4.40889Y12.3084
X-3.79382Y13.79333
X-3.79382Y10.82348
X-0.82397Y10.82348
X-0.82397Y13.79333
X-4.24903Y13.11205
X-3.11254Y10.36826
X-0.36875Y11.50475
X-1.50524Y14.24854
X-4.24904Y11.50478
X-3.11251Y14.24855
X-0.36874Y13.11202
X-1.50527Y10.36825
X-37.10889Y14.4084
X-35.00889Y12.3084
X-37.10889Y10.2084
X-39.20889Y12.3084
X-38.59382Y13.79333
X-38.59382Y10.82348
X-35.62397Y10.82348
X-35.62397Y13.79333
X-39.04904Y13.11205
X-37.91254Y10.36826
X-35.16875Y11.50475
X-36.30524Y14.24854
X-39.04905Y11.50478
X-37.91251Y14.24855
X-35.16874Y13.11202
X-36.30527Y10.36825
X-15.62089Y-1.46081
X-12.07506Y-5.43895
X-31.74994Y7.09996
T02
X-10.1042Y8.34011
X-10.90404Y8.34011
X-11.70414Y8.34011
X-12.50399Y8.34011
X-12.50399Y7.54001
X-11.70414Y7.54001
X-10.90404Y7.54001
X-10.1042Y7.54001
X-10.1042Y6.73991
X-10.90404Y6.73991
X-11.70414Y6.73991
X-12.50399Y6.73991
X-21.0404Y8.33522
X-21.84024Y8.33522
X-22.64034Y8.33522
X-23.44019Y8.33522
X-23.44019Y7.53512
X-22.64034Y7.53512
X-21.84024Y7.53512
X-21.0404Y7.53512
X-21.0404Y6.73502
X-21.84024Y6.73502
X-22.64034Y6.73502
X-23.44019Y6.73502
T03
X-14.40548Y-19.42499
X-2.60547Y-11.82498
X-3.00547Y-15.52499
X-32.95053Y-21.50001
X-9.25051Y-10.60001
X-15.17115Y-11.04924
X-8.70547Y13.07503
X-19.40548Y12.97503
X-34.50549Y2.27502
X-31.70549Y13.22503
X-33.26993Y7.14001
T04
X-23.43035Y12.67504
X-12.40547Y12.57503
M30