G04 Layer: InnerLayer4*
G04 EasyEDA Pro v2.2.27.1, 2024-09-01 09:43:49*
G04 Gerber Generator version 0.3*
G04 Scale: 100 percent, Rotated: No, Reflected: No*
G04 Dimensions in millimeters*
G04 Leading zeros omitted, absolute positions, 3 integers and 5 decimals*
%FSLAX35Y35*%
%MOMM*%
%ADD10C,0.2032*%
%ADD11C,5.2*%
%ADD12C,1.1*%
%ADD13C,0.45*%
%ADD14C,0.6*%
%ADD15C,0.8*%
%ADD16C,0.6536*%
%ADD17C,0.65*%
%ADD18C,0.50002*%
%ADD19C,0.15*%
%ADD20C,0.4*%
%ADD21C,0.127*%
%ADD22C,0.2*%
G75*


G04 Copper Start*
G36*
G01X-4059675Y1340840D02*
G02X-3820889Y1579626I238786J0D01*
G01X-120889Y1579626D01*
G02X117897Y1340840I0J-238786D01*
G01X117897Y-2359160D01*
G02X-120889Y-2597946I-238786J0D01*
G01X-3820889Y-2597946D01*
G02X-4059675Y-2359160I0J238786D01*
G01X-4059675Y1340840D01*
G37*
%LPC*%
G36*
G01X-3893367Y-1170001D02*
G03X-3776739Y-1170001I58314J0D01*
G03X-3893367Y-1170001I-58314J0D01*
G37*
G36*
G01X-3516363Y227502D02*
G03X-3384735Y227502I65814J0D01*
G03X-3516363Y227502I-65814J0D01*
G37*
G36*
G01X-3232713Y-2028032D02*
G01X-3289134Y-2084454D01*
G03X-3341590Y-2196539I-5918J-65547D01*
G03X-3229505Y-2144083I46537J46537D01*
G01X-3160734Y-2075312D01*
G03X-3148385Y-2045497I-29814J29814D01*
G01X-3148385Y-1342498D01*
G03X-3160734Y-1312684I-42164J0D01*
G01X-3412889Y-1060529D01*
G01X-3412889Y-780283D01*
G03X-3455053Y-681686I-42164J40283D01*
G03X-3497217Y-780283I0J-58314D01*
G01X-3497217Y-1077994D01*
G03X-3484867Y-1107809I42164J0D01*
G01X-3232713Y-1359963D01*
G01X-3232713Y-2028032D01*
G37*
G36*
G01X-3392807Y714001D02*
G03X-3261179Y714001I65814J0D01*
G03X-3392807Y714001I-65814J0D01*
G37*
G36*
G01X-2747617Y-568691D02*
G01X-2747617Y-998743D01*
G03X-2734931Y-1029371I43314J0D01*
G01X-2730525Y-1033777D01*
G03X-2756287Y-1131235I15473J-56224D01*
G03X-2658829Y-1105473I41234J41234D01*
G01X-2273174Y-1491128D01*
G03X-2242546Y-1503814I30628J30628D01*
G01X-2145713Y-1503814D01*
G03X-2108522Y-1518785I39044J43314D01*
G01X-2108278Y-1520728D01*
G01X-2242232Y-1520728D01*
G03X-2272859Y-1533415I0J-43314D01*
G01X-2309626Y-1570182D01*
G01X-2314980Y-1570182D01*
G03X-2370548Y-1494184I-55568J17683D01*
G03X-2426117Y-1570182I0J-58314D01*
G01X-2585538Y-1570182D01*
G03X-2674975Y-1542756I-54928J-19581D01*
G03X-2675606Y-1636301I34508J-47007D01*
G01X-3293568Y-2254263D01*
G03X-3331783Y-2353733I3019J-58236D01*
G03X-3232313Y-2315518I41234J41234D01*
G01X-3173810Y-2257015D01*
G03X-3174203Y-2262840I42921J-5824D01*
G01X-3174203Y-2293116D01*
G03X-3177045Y-2367799I43314J-39044D01*
G03X-3104073Y-2383943I46156J35639D01*
G03X-3030177Y-2449464I57527J-9551D01*
G03X-3003233Y-2354450I-16369J55969D01*
G01X-3003233Y-2286438D01*
G01X-2945803Y-2229009D01*
G01X-2553744Y-2229009D01*
G03X-2523117Y-2216322I0J43314D01*
G01X-2486321Y-2179527D01*
G03X-2389314Y-2203733I55773J17028D01*
G03X-2413520Y-2106726I-41234J41234D01*
G01X-2392607Y-2085813D01*
G01X-2080548Y-2085813D01*
G03X-2049920Y-2073126I0J43314D01*
G01X-1536686Y-1559892D01*
G03X-1524000Y-1529265I-30628J30628D01*
G01X-1524000Y-1314419D01*
G03X-1521353Y-1212018I-26548J51921D01*
G03X-1608790Y-1265382I-29194J-50480D01*
G03X-1673080Y-1347814I-11757J-57117D01*
G03X-1717822Y-1334640I-37467J-44685D01*
G03X-1757911Y-1358480I7275J-57859D01*
G03X-1857829Y-1349439I-52638J-25095D01*
G03X-1817803Y-1441435I47279J-34135D01*
G03X-1811017Y-1481712I57255J-11063D01*
G01X-1817527Y-1488223D01*
G03X-1886970Y-1456545I-53021J-24276D01*
G03X-1928278Y-1520728I16422J-55954D01*
G01X-1992817Y-1520728D01*
G03X-1992499Y-1506947I-57730J8229D01*
G03X-1946937Y-1445190I-12554J56947D01*
G03X-2002033Y-1391765I-58115J-4810D01*
G01X-2009224Y-1384573D01*
G03X-2039852Y-1371887I-30628J-30628D01*
G01X-2056769Y-1371887D01*
G03X-2071738Y-1330957I-58284J1886D01*
G01X-2071738Y-1310001D01*
G03X-2084425Y-1279373I-43314J0D01*
G01X-2132651Y-1231146D01*
G03X-2079739Y-1183824I-4388J58149D01*
G03X-2111738Y-1120458I-57300J10826D01*
G01X-2111738Y-326379D01*
G01X-2078955Y-293595D01*
G03X-2066268Y-262968I-30628J30628D01*
G01X-2066268Y151867D01*
G01X-1808924Y409211D01*
G03X-1796238Y439839I-30628J30628D01*
G01X-1796238Y1055185D01*
G01X-1769552Y1055185D01*
G03X-1738924Y1067871I0J43314D01*
G01X-1607528Y1199267D01*
G03X-1569313Y1298737I-3019J58236D01*
G03X-1668784Y1260522I-41234J-41234D01*
G01X-1787493Y1141813D01*
G01X-2609503Y1141813D01*
G03X-2706861Y1098499I-39044J-43314D01*
G03X-2609503Y1055185I58314J0D01*
G01X-1882866Y1055185D01*
G01X-1882866Y457780D01*
G01X-1887475Y453171D01*
G03X-1984592Y491188I-58073J-5297D01*
G01X-2210177Y491188D01*
G03X-2240805Y478501I0J-43314D01*
G01X-2429357Y289949D01*
G03X-2487614Y295823I-34188J-47241D01*
G01X-2665710Y473920D01*
G03X-2661054Y560570I-36578J45416D01*
G03X-2747704Y555913I-41234J-41234D01*
G01X-2767234Y575444D01*
G01X-2767234Y1158556D01*
G01X-2653528Y1272263D01*
G03X-2605678Y1359009I-3019J58236D01*
G03X-2704646Y1363469I-50869J-28511D01*
G03X-2768138Y1383101I-45902J-35966D01*
G03X-2808784Y1330522I17590J-55598D01*
G01X-2988197Y1151110D01*
G03X-3000883Y1120482I30628J-30628D01*
G01X-3000883Y566420D01*
G03X-2988197Y535792I43314J0D01*
G01X-2917588Y465184D01*
G01X-2917588Y139746D01*
G01X-2995680Y61654D01*
G03X-3008366Y31027I30628J-30628D01*
G01X-3008366Y-290000D01*
G03X-2995680Y-320628I43314J0D01*
G01X-2818293Y-498015D01*
G03X-2846787Y-596155I12740J-56905D01*
G03X-2748648Y-567660I41234J41234D01*
G01X-2747617Y-568691D01*
G37*
G36*
G01X-3236363Y1322503D02*
G03X-3104735Y1322503I65814J0D01*
G03X-3236363Y1322503I-65814J0D01*
G37*
G36*
G01X-3058863Y277502D02*
G03X-2942234Y277502I58314J0D01*
G03X-3058863Y277502I-58314J0D01*
G37*
G36*
G01X-2983372Y-1230976D02*
G03X-2906104Y-1148305I28320J50976D01*
G03X-2876733Y-1039025I1052J58305D01*
G03X-2954001Y-1121696I-28320J-50976D01*
G03X-2983372Y-1230976I-1052J-58305D01*
G37*
G36*
G01X-2831456Y-1343024D02*
G03X-2746475Y-1271745I30906J49450D01*
G03X-2719643Y-1164124I-4075J58172D01*
G03X-2804624Y-1235402I-30906J-49450D01*
G03X-2831456Y-1343024I4075J-58172D01*
G37*
G36*
G01X-2418849Y1267504D02*
G03X-2267221Y1267504I75814J0D01*
G03X-2418849Y1267504I-75814J0D01*
G37*
G36*
G01X-532168Y-749184D02*
G01X-1353860Y-749184D01*
G03X-1384487Y-761870I0J-43314D01*
G01X-1748863Y-1126246D01*
G01X-1919145Y-1126246D01*
G03X-2016503Y-1169560I-39044J-43314D01*
G03X-1919145Y-1212874I58314J0D01*
G01X-1730922Y-1212874D01*
G03X-1700294Y-1200188I0J43314D01*
G01X-1581100Y-1080994D01*
G03X-1552616Y-1163289I63986J-23930D01*
G03X-1466440Y-1150738I35502J58365D01*
G01X-1449053Y-1150738D01*
G03X-1416658Y-1137320I0J45814D01*
G01X-1375332Y-1095994D01*
G01X-983114Y-1095994D01*
G03X-858077Y-1073464I58063J35993D01*
G03X-964695Y-1004366I-66974J13463D01*
G01X-1331711Y-1004366D01*
G03X-1386493Y-914488I-48836J31868D01*
G03X-1421905Y-1013609I5945J-58010D01*
G03X-1426704Y-1017785I27596J-36571D01*
G01X-1467202Y-1058282D01*
G03X-1541045Y-1040939I-49913J-46642D01*
G01X-1335919Y-835812D01*
G01X-932055Y-835812D01*
G03X-873771Y-896012I58284J-1886D01*
G03X-815488Y-835812I0J58314D01*
G01X-514227Y-835812D01*
G03X-483599Y-823126I0J43314D01*
G01X-180260Y-519788D01*
G03X-167574Y-489160I-30628J30628D01*
G01X-167574Y-156205D01*
G03X-180260Y-125577I-43314J0D01*
G01X-347233Y41396D01*
G01X-347233Y201627D01*
G03X-272233Y257502I16686J55876D01*
G03X-347233Y313378I-58314J0D01*
G01X-347233Y537503D01*
G03X-359919Y568130I-43314J0D01*
G01X-402311Y610522D01*
G03X-501781Y648737I-58236J-3019D01*
G03X-463567Y549267I41234J-41234D01*
G01X-433861Y519561D01*
G01X-433861Y480352D01*
G03X-518861Y428503I-26686J-51850D01*
G03X-433861Y376653I58314J0D01*
G01X-433861Y23454D01*
G03X-421175Y-7173I43314J0D01*
G01X-254202Y-174146D01*
G01X-254202Y-471219D01*
G01X-532168Y-749184D01*
G37*
G36*
G01X-2008862Y1297503D02*
G03X-1872234Y1297503I68314J0D01*
G03X-2008862Y1297503I-68314J0D01*
G37*
G36*
G01X-1798862Y-2092499D02*
G03X-1682234Y-2092499I58314J0D01*
G03X-1798862Y-2092499I-58314J0D01*
G37*
G36*
G01X-1778862Y398503D02*
G03X-1662234Y398503I58314J0D01*
G03X-1778862Y398503I-58314J0D01*
G37*
G36*
G01X-1754883Y-968900D02*
G03X-1638255Y-968900I58314J0D01*
G03X-1754883Y-968900I-58314J0D01*
G37*
G36*
G01X-1689528Y-205754D02*
G03X-1572900Y-205754I58314J0D01*
G03X-1689528Y-205754I-58314J0D01*
G37*
G36*
G01X-1583366Y-1840001D02*
G03X-1466738Y-1840001I58314J0D01*
G03X-1583366Y-1840001I-58314J0D01*
G37*
G36*
G01X-1513783Y-284957D02*
G03X-1397155Y-284957I58314J0D01*
G03X-1513783Y-284957I-58314J0D01*
G37*
G36*
G01X-1506361Y-1942499D02*
G03X-1374734Y-1942499I65814J0D01*
G03X-1506361Y-1942499I-65814J0D01*
G37*
G36*
G01X-1448862Y527503D02*
G03X-1332234Y527503I58314J0D01*
G03X-1448862Y527503I-58314J0D01*
G37*
G36*
G01X-1316361Y1257503D02*
G03X-1164734Y1257503I75814J0D01*
G03X-1316361Y1257503I-75814J0D01*
G37*
G36*
G01X-938861Y1307503D02*
G03X-802233Y1307503I68314J0D01*
G03X-938861Y1307503I-68314J0D01*
G37*
G36*
G01X-922850Y-680071D02*
G03X-806222Y-680071I58314J0D01*
G03X-922850Y-680071I-58314J0D01*
G37*
G36*
G01X-918862Y386502D02*
G03X-802233Y386502I58314J0D01*
G03X-918862Y386502I-58314J0D01*
G37*
G36*
G01X-898861Y-1852499D02*
G03X-782233Y-1852499I58314J0D01*
G03X-898861Y-1852499I-58314J0D01*
G37*
G36*
G01X-518861Y-1452498D02*
G03X-402233Y-1452498I58314J0D01*
G03X-518861Y-1452498I-58314J0D01*
G37*
G36*
G01X-170833Y-987499D02*
G03X-410261Y-987499I-119714J0D01*
G03X-170833Y-987499I119714J0D01*
G37*
G36*
G01X-199333Y-1737498D02*
G03X-381761Y-1737498I-91214J0D01*
G03X-199333Y-1737498I91214J0D01*
G37*
G36*
G01X-315353Y-1488372D02*
G03X-347085Y-1599036I14806J-64127D01*
G03X-236420Y-1567305I46537J46537D01*
G01X-193380Y-1524265D01*
G03X-177033Y-1484798I-39466J39466D01*
G01X-177033Y-1427988D01*
G03X-113274Y-1434042I36486J45490D01*
G03X-82413Y-1377921I-27273J51543D01*
G03X-68200Y-1273978I-18134J55423D01*
G03X-158681Y-1327076I-32347J-48520D01*
G03X-177033Y-1337009I18134J-55423D01*
G01X-177033Y-1210198D01*
G03X-193380Y-1170732I-55814J0D01*
G01X-196420Y-1167692D01*
G03X-301837Y-1131248I-64127J-14806D01*
G03X-288661Y-1242005I41290J-51251D01*
G01X-288661Y-1264215D01*
G03X-348861Y-1322498I-1886J-58284D01*
G03X-288661Y-1380782I58314J0D01*
G01X-288661Y-1461680D01*
G01X-315353Y-1488372D01*
G37*
%LPD*%
G36*
G01X-2914255Y584361D02*
G01X-2914255Y1102541D01*
G01X-2853862Y1162934D01*
G01X-2853862Y557503D01*
G03X-2841176Y526875I43314J0D01*
G01X-2559102Y244801D01*
G01X-2559102Y-212017D01*
G03X-2628349Y-250586I-13808J-56656D01*
G03X-2595172Y-322571I55438J-18087D01*
G03X-2640446Y-398222I10119J-57429D01*
G03X-2559102Y-432222I55394J18222D01*
G01X-2559102Y-544695D01*
G01X-2726816Y-376981D01*
G03X-2774109Y-322722I-58236J-3019D01*
G03X-2838073Y-355724I-10943J-57278D01*
G01X-2921739Y-272059D01*
G01X-2921739Y13085D01*
G01X-2843647Y91177D01*
G03X-2830960Y121804I-30628J30628D01*
G01X-2830960Y483126D01*
G03X-2843647Y513753I-43314J0D01*
G01X-2914255Y584361D01*
G37*
G36*
G01X-2522607Y-1715813D02*
G01X-2302775Y-1715813D01*
G01X-2645407Y-2058444D01*
G01X-2664637Y-2058444D01*
G03X-2700548Y-1954185I-35911J45945D01*
G03X-2736459Y-2058444I0J-58314D01*
G01X-2834810Y-2058444D01*
G03X-2865438Y-2071130I0J-43314D01*
G01X-2876566Y-2082259D01*
G03X-2891957Y-2085163I3019J-58236D01*
G01X-2522607Y-1715813D01*
G37*
G36*
G01X-2472474Y185082D02*
G03X-2456573Y184812I8930J57626D01*
G01X-2456573Y-394348D01*
G03X-2458366Y-406682I41521J-12334D01*
G01X-2458366Y-782071D01*
G03X-2472474Y-782161I-6686J-57930D01*
G01X-2472474Y185082D01*
G37*
G36*
G01X-2369945Y-404889D02*
G01X-2369945Y226850D01*
G01X-2192236Y404560D01*
G01X-1984592Y404560D01*
G03X-1950845Y389801I39044J43314D01*
G01X-2140210Y200435D01*
G03X-2152896Y169808I30628J-30628D01*
G01X-2152896Y-245026D01*
G01X-2185680Y-277810D01*
G03X-2198366Y-308437I30628J-30628D01*
G01X-2198366Y-682071D01*
G03X-2248904Y-701562I-6686J-57930D01*
G03X-2261607Y-754218I43852J-38439D01*
G03X-2238679Y-861318I31057J-49356D01*
G03X-2228863Y-972710I21410J-54242D01*
G03X-2272533Y-1011248I11594J-57150D01*
G01X-2371738Y-912043D01*
G01X-2371738Y-417223D01*
G03X-2369945Y-404889I-41521J12334D01*
G37*
%LPC*%
G36*
G01X-2288862Y257502D02*
G03X-2172234Y257502I58314J0D01*
G03X-2288862Y257502I-58314J0D01*
G37*
%LPD*%
G36*
G01X-2224290Y-1607356D02*
G01X-2208635Y-1607356D01*
G03X-2206424Y-1629185I58087J-5143D01*
G01X-2246119Y-1629185D01*
G01X-2224290Y-1607356D01*
G37*
G36*
G01X-2094672Y-1629185D02*
G03X-2092461Y-1607356I-55876J16686D01*
G01X-1878531Y-1607356D01*
G03X-1876735Y-1629185I57982J-6218D01*
G01X-2094672Y-1629185D01*
G37*
G54D10*
G01X-4059675Y1340840D02*
G02X-3820889Y1579626I238786J0D01*
G01X-120889Y1579626D01*
G02X117897Y1340840I0J-238786D01*
G01X117897Y-2359160D01*
G02X-120889Y-2597946I-238786J0D01*
G01X-3820889Y-2597946D01*
G02X-4059675Y-2359160I0J238786D01*
G01X-4059675Y1340840D01*
G01X-3893367Y-1170001D02*
G03X-3776739Y-1170001I58314J0D01*
G03X-3893367Y-1170001I-58314J0D01*
G01X-3516363Y227502D02*
G03X-3384735Y227502I65814J0D01*
G03X-3516363Y227502I-65814J0D01*
G01X-3232713Y-2028032D02*
G01X-3289134Y-2084454D01*
G03X-3341590Y-2196539I-5918J-65547D01*
G03X-3229505Y-2144083I46537J46537D01*
G01X-3160734Y-2075312D01*
G03X-3148385Y-2045497I-29814J29814D01*
G01X-3148385Y-1342498D01*
G03X-3160734Y-1312684I-42164J0D01*
G01X-3412889Y-1060529D01*
G01X-3412889Y-780283D01*
G03X-3455053Y-681686I-42164J40283D01*
G03X-3497217Y-780283I0J-58314D01*
G01X-3497217Y-1077994D01*
G03X-3484867Y-1107809I42164J0D01*
G01X-3232713Y-1359963D01*
G01X-3232713Y-2028032D01*
G01X-3392807Y714001D02*
G03X-3261179Y714001I65814J0D01*
G03X-3392807Y714001I-65814J0D01*
G01X-2747617Y-568691D02*
G01X-2747617Y-998743D01*
G03X-2734931Y-1029371I43314J0D01*
G01X-2730525Y-1033777D01*
G03X-2756287Y-1131235I15473J-56224D01*
G03X-2658829Y-1105473I41234J41234D01*
G01X-2273174Y-1491128D01*
G03X-2242546Y-1503814I30628J30628D01*
G01X-2145713Y-1503814D01*
G03X-2108522Y-1518785I39044J43314D01*
G01X-2108278Y-1520728D01*
G01X-2242232Y-1520728D01*
G03X-2272859Y-1533415I0J-43314D01*
G01X-2309626Y-1570182D01*
G01X-2314980Y-1570182D01*
G03X-2370548Y-1494184I-55568J17683D01*
G03X-2426117Y-1570182I0J-58314D01*
G01X-2585538Y-1570182D01*
G03X-2674975Y-1542756I-54928J-19581D01*
G03X-2675606Y-1636301I34508J-47007D01*
G01X-3293568Y-2254263D01*
G03X-3331783Y-2353733I3019J-58236D01*
G03X-3232313Y-2315518I41234J41234D01*
G01X-3173810Y-2257015D01*
G03X-3174203Y-2262840I42921J-5824D01*
G01X-3174203Y-2293116D01*
G03X-3177045Y-2367799I43314J-39044D01*
G03X-3104073Y-2383943I46156J35639D01*
G03X-3030177Y-2449464I57527J-9551D01*
G03X-3003233Y-2354450I-16369J55969D01*
G01X-3003233Y-2286438D01*
G01X-2945803Y-2229009D01*
G01X-2553744Y-2229009D01*
G03X-2523117Y-2216322I0J43314D01*
G01X-2486321Y-2179527D01*
G03X-2389314Y-2203733I55773J17028D01*
G03X-2413520Y-2106726I-41234J41234D01*
G01X-2392607Y-2085813D01*
G01X-2080548Y-2085813D01*
G03X-2049920Y-2073126I0J43314D01*
G01X-1536686Y-1559892D01*
G03X-1524000Y-1529265I-30628J30628D01*
G01X-1524000Y-1314419D01*
G03X-1521353Y-1212018I-26548J51921D01*
G03X-1608790Y-1265382I-29194J-50480D01*
G03X-1673080Y-1347814I-11757J-57117D01*
G03X-1717822Y-1334640I-37467J-44685D01*
G03X-1757911Y-1358480I7275J-57859D01*
G03X-1857829Y-1349439I-52638J-25095D01*
G03X-1817803Y-1441435I47279J-34135D01*
G03X-1811017Y-1481712I57255J-11063D01*
G01X-1817527Y-1488223D01*
G03X-1886970Y-1456545I-53021J-24276D01*
G03X-1928278Y-1520728I16422J-55954D01*
G01X-1992817Y-1520728D01*
G03X-1992499Y-1506947I-57730J8229D01*
G03X-1946937Y-1445190I-12554J56947D01*
G03X-2002033Y-1391765I-58115J-4810D01*
G01X-2009224Y-1384573D01*
G03X-2039852Y-1371887I-30628J-30628D01*
G01X-2056769Y-1371887D01*
G03X-2071738Y-1330957I-58284J1886D01*
G01X-2071738Y-1310001D01*
G03X-2084425Y-1279373I-43314J0D01*
G01X-2132651Y-1231146D01*
G03X-2079739Y-1183824I-4388J58149D01*
G03X-2111738Y-1120458I-57300J10826D01*
G01X-2111738Y-326379D01*
G01X-2078955Y-293595D01*
G03X-2066268Y-262968I-30628J30628D01*
G01X-2066268Y151867D01*
G01X-1808924Y409211D01*
G03X-1796238Y439839I-30628J30628D01*
G01X-1796238Y1055185D01*
G01X-1769552Y1055185D01*
G03X-1738924Y1067871I0J43314D01*
G01X-1607528Y1199267D01*
G03X-1569313Y1298737I-3019J58236D01*
G03X-1668784Y1260522I-41234J-41234D01*
G01X-1787493Y1141813D01*
G01X-2609503Y1141813D01*
G03X-2706861Y1098499I-39044J-43314D01*
G03X-2609503Y1055185I58314J0D01*
G01X-1882866Y1055185D01*
G01X-1882866Y457780D01*
G01X-1887475Y453171D01*
G03X-1984592Y491188I-58073J-5297D01*
G01X-2210177Y491188D01*
G03X-2240805Y478501I0J-43314D01*
G01X-2429357Y289949D01*
G03X-2487614Y295823I-34188J-47241D01*
G01X-2665710Y473920D01*
G03X-2661054Y560570I-36578J45416D01*
G03X-2747704Y555913I-41234J-41234D01*
G01X-2767234Y575444D01*
G01X-2767234Y1158556D01*
G01X-2653528Y1272263D01*
G03X-2605678Y1359009I-3019J58236D01*
G03X-2704646Y1363469I-50869J-28511D01*
G03X-2768138Y1383101I-45902J-35966D01*
G03X-2808784Y1330522I17590J-55598D01*
G01X-2988197Y1151110D01*
G03X-3000883Y1120482I30628J-30628D01*
G01X-3000883Y566420D01*
G03X-2988197Y535792I43314J0D01*
G01X-2917588Y465184D01*
G01X-2917588Y139746D01*
G01X-2995680Y61654D01*
G03X-3008366Y31027I30628J-30628D01*
G01X-3008366Y-290000D01*
G03X-2995680Y-320628I43314J0D01*
G01X-2818293Y-498015D01*
G03X-2846787Y-596155I12740J-56905D01*
G03X-2748648Y-567660I41234J41234D01*
G01X-2747617Y-568691D01*
G01X-3236363Y1322503D02*
G03X-3104735Y1322503I65814J0D01*
G03X-3236363Y1322503I-65814J0D01*
G01X-3058863Y277502D02*
G03X-2942234Y277502I58314J0D01*
G03X-3058863Y277502I-58314J0D01*
G01X-2983372Y-1230976D02*
G03X-2906104Y-1148305I28320J50976D01*
G03X-2876733Y-1039025I1052J58305D01*
G03X-2954001Y-1121696I-28320J-50976D01*
G03X-2983372Y-1230976I-1052J-58305D01*
G01X-2831456Y-1343024D02*
G03X-2746475Y-1271745I30906J49450D01*
G03X-2719643Y-1164124I-4075J58172D01*
G03X-2804624Y-1235402I-30906J-49450D01*
G03X-2831456Y-1343024I4075J-58172D01*
G01X-2418849Y1267504D02*
G03X-2267221Y1267504I75814J0D01*
G03X-2418849Y1267504I-75814J0D01*
G01X-532168Y-749184D02*
G01X-1353860Y-749184D01*
G03X-1384487Y-761870I0J-43314D01*
G01X-1748863Y-1126246D01*
G01X-1919145Y-1126246D01*
G03X-2016503Y-1169560I-39044J-43314D01*
G03X-1919145Y-1212874I58314J0D01*
G01X-1730922Y-1212874D01*
G03X-1700294Y-1200188I0J43314D01*
G01X-1581100Y-1080994D01*
G03X-1552616Y-1163289I63986J-23930D01*
G03X-1466440Y-1150738I35502J58365D01*
G01X-1449053Y-1150738D01*
G03X-1416658Y-1137320I0J45814D01*
G01X-1375332Y-1095994D01*
G01X-983114Y-1095994D01*
G03X-858077Y-1073464I58063J35993D01*
G03X-964695Y-1004366I-66974J13463D01*
G01X-1331711Y-1004366D01*
G03X-1386493Y-914488I-48836J31868D01*
G03X-1421905Y-1013609I5945J-58010D01*
G03X-1426704Y-1017785I27596J-36571D01*
G01X-1467202Y-1058282D01*
G03X-1541045Y-1040939I-49913J-46642D01*
G01X-1335919Y-835812D01*
G01X-932055Y-835812D01*
G03X-873771Y-896012I58284J-1886D01*
G03X-815488Y-835812I0J58314D01*
G01X-514227Y-835812D01*
G03X-483599Y-823126I0J43314D01*
G01X-180260Y-519788D01*
G03X-167574Y-489160I-30628J30628D01*
G01X-167574Y-156205D01*
G03X-180260Y-125577I-43314J0D01*
G01X-347233Y41396D01*
G01X-347233Y201627D01*
G03X-272233Y257502I16686J55876D01*
G03X-347233Y313378I-58314J0D01*
G01X-347233Y537503D01*
G03X-359919Y568130I-43314J0D01*
G01X-402311Y610522D01*
G03X-501781Y648737I-58236J-3019D01*
G03X-463567Y549267I41234J-41234D01*
G01X-433861Y519561D01*
G01X-433861Y480352D01*
G03X-518861Y428503I-26686J-51850D01*
G03X-433861Y376653I58314J0D01*
G01X-433861Y23454D01*
G03X-421175Y-7173I43314J0D01*
G01X-254202Y-174146D01*
G01X-254202Y-471219D01*
G01X-532168Y-749184D01*
G01X-2008862Y1297503D02*
G03X-1872234Y1297503I68314J0D01*
G03X-2008862Y1297503I-68314J0D01*
G01X-1798862Y-2092499D02*
G03X-1682234Y-2092499I58314J0D01*
G03X-1798862Y-2092499I-58314J0D01*
G01X-1778862Y398503D02*
G03X-1662234Y398503I58314J0D01*
G03X-1778862Y398503I-58314J0D01*
G01X-1754883Y-968900D02*
G03X-1638255Y-968900I58314J0D01*
G03X-1754883Y-968900I-58314J0D01*
G01X-1689528Y-205754D02*
G03X-1572900Y-205754I58314J0D01*
G03X-1689528Y-205754I-58314J0D01*
G01X-1583366Y-1840001D02*
G03X-1466738Y-1840001I58314J0D01*
G03X-1583366Y-1840001I-58314J0D01*
G01X-1513783Y-284957D02*
G03X-1397155Y-284957I58314J0D01*
G03X-1513783Y-284957I-58314J0D01*
G01X-1506361Y-1942499D02*
G03X-1374734Y-1942499I65814J0D01*
G03X-1506361Y-1942499I-65814J0D01*
G01X-1448862Y527503D02*
G03X-1332234Y527503I58314J0D01*
G03X-1448862Y527503I-58314J0D01*
G01X-1316361Y1257503D02*
G03X-1164734Y1257503I75814J0D01*
G03X-1316361Y1257503I-75814J0D01*
G01X-938861Y1307503D02*
G03X-802233Y1307503I68314J0D01*
G03X-938861Y1307503I-68314J0D01*
G01X-922850Y-680071D02*
G03X-806222Y-680071I58314J0D01*
G03X-922850Y-680071I-58314J0D01*
G01X-918862Y386502D02*
G03X-802233Y386502I58314J0D01*
G03X-918862Y386502I-58314J0D01*
G01X-898861Y-1852499D02*
G03X-782233Y-1852499I58314J0D01*
G03X-898861Y-1852499I-58314J0D01*
G01X-518861Y-1452498D02*
G03X-402233Y-1452498I58314J0D01*
G03X-518861Y-1452498I-58314J0D01*
G01X-170833Y-987499D02*
G03X-410261Y-987499I-119714J0D01*
G03X-170833Y-987499I119714J0D01*
G01X-199333Y-1737498D02*
G03X-381761Y-1737498I-91214J0D01*
G03X-199333Y-1737498I91214J0D01*
G01X-315353Y-1488372D02*
G03X-347085Y-1599036I14806J-64127D01*
G03X-236420Y-1567305I46537J46537D01*
G01X-193380Y-1524265D01*
G03X-177033Y-1484798I-39466J39466D01*
G01X-177033Y-1427988D01*
G03X-113274Y-1434042I36486J45490D01*
G03X-82413Y-1377921I-27273J51543D01*
G03X-68200Y-1273978I-18134J55423D01*
G03X-158681Y-1327076I-32347J-48520D01*
G03X-177033Y-1337009I18134J-55423D01*
G01X-177033Y-1210198D01*
G03X-193380Y-1170732I-55814J0D01*
G01X-196420Y-1167692D01*
G03X-301837Y-1131248I-64127J-14806D01*
G03X-288661Y-1242005I41290J-51251D01*
G01X-288661Y-1264215D01*
G03X-348861Y-1322498I-1886J-58284D01*
G03X-288661Y-1380782I58314J0D01*
G01X-288661Y-1461680D01*
G01X-315353Y-1488372D01*
G01X-2914255Y584361D02*
G01X-2914255Y1102541D01*
G01X-2853862Y1162934D01*
G01X-2853862Y557503D01*
G03X-2841176Y526875I43314J0D01*
G01X-2559102Y244801D01*
G01X-2559102Y-212017D01*
G03X-2628349Y-250586I-13808J-56656D01*
G03X-2595172Y-322571I55438J-18087D01*
G03X-2640446Y-398222I10119J-57429D01*
G03X-2559102Y-432222I55394J18222D01*
G01X-2559102Y-544695D01*
G01X-2726816Y-376981D01*
G03X-2774109Y-322722I-58236J-3019D01*
G03X-2838073Y-355724I-10943J-57278D01*
G01X-2921739Y-272059D01*
G01X-2921739Y13085D01*
G01X-2843647Y91177D01*
G03X-2830960Y121804I-30628J30628D01*
G01X-2830960Y483126D01*
G03X-2843647Y513753I-43314J0D01*
G01X-2914255Y584361D01*
G01X-2522607Y-1715813D02*
G01X-2302775Y-1715813D01*
G01X-2645407Y-2058444D01*
G01X-2664637Y-2058444D01*
G03X-2700548Y-1954185I-35911J45945D01*
G03X-2736459Y-2058444I0J-58314D01*
G01X-2834810Y-2058444D01*
G03X-2865438Y-2071130I0J-43314D01*
G01X-2876566Y-2082259D01*
G03X-2891957Y-2085163I3019J-58236D01*
G01X-2522607Y-1715813D01*
G01X-2472474Y185082D02*
G03X-2456573Y184812I8930J57626D01*
G01X-2456573Y-394348D01*
G03X-2458366Y-406682I41521J-12334D01*
G01X-2458366Y-782071D01*
G03X-2472474Y-782161I-6686J-57930D01*
G01X-2472474Y185082D01*
G01X-2369945Y-404889D02*
G01X-2369945Y226850D01*
G01X-2192236Y404560D01*
G01X-1984592Y404560D01*
G03X-1950845Y389801I39044J43314D01*
G01X-2140210Y200435D01*
G03X-2152896Y169808I30628J-30628D01*
G01X-2152896Y-245026D01*
G01X-2185680Y-277810D01*
G03X-2198366Y-308437I30628J-30628D01*
G01X-2198366Y-682071D01*
G03X-2248904Y-701562I-6686J-57930D01*
G03X-2261607Y-754218I43852J-38439D01*
G03X-2238679Y-861318I31057J-49356D01*
G03X-2228863Y-972710I21410J-54242D01*
G03X-2272533Y-1011248I11594J-57150D01*
G01X-2371738Y-912043D01*
G01X-2371738Y-417223D01*
G03X-2369945Y-404889I-41521J12334D01*
G01X-2288862Y257502D02*
G03X-2172234Y257502I58314J0D01*
G03X-2288862Y257502I-58314J0D01*
G01X-2224290Y-1607356D02*
G01X-2208635Y-1607356D01*
G03X-2206424Y-1629185I58087J-5143D01*
G01X-2246119Y-1629185D01*
G01X-2224290Y-1607356D01*
G01X-2094672Y-1629185D02*
G03X-2092461Y-1607356I-55876J16686D01*
G01X-1878531Y-1607356D01*
G03X-1876735Y-1629185I57982J-6218D01*
G01X-2094672Y-1629185D01*
G04 Copper End*

G04 Pad Start*
G54D11*
G01X-230889Y-2249160D03*
G01X-3710889Y-2249160D03*
G01X-230889Y1230840D03*
G01X-3710889Y1230840D03*
G54D12*
G01X-505547Y-1602498D03*
G01X-505547Y-1122499D03*
G01X-75547Y-1122499D03*
G01X-75547Y-1602498D03*
G04 Pad End*

G04 Via Start*
G54D13*
G01X-1890548Y817503D03*
G01X-3021547Y-146499D03*
G01X-2654547Y257200D03*
G01X-1720548Y398503D03*
G01X-2463544Y242708D03*
G01X-460547Y428503D03*
G01X-130545Y947505D03*
G01X-130545Y747504D03*
G01X-130545Y547504D03*
G01X-130545Y-652496D03*
G01X-130545Y-852496D03*
G01X-130545Y-1052496D03*
G01X-130545Y-1852497D03*
G01X-330545Y947505D03*
G01X-330545Y747504D03*
G01X-310547Y457503D03*
G01X-330545Y147504D03*
G01X-330545Y-852496D03*
G01X-330545Y-1852497D03*
G01X-530546Y1347505D03*
G01X-530546Y1147505D03*
G01X-530546Y947505D03*
G01X-530546Y747504D03*
G01X-530546Y347504D03*
G01X-530546Y-652496D03*
G01X-530546Y-852496D03*
G01X-530546Y-1252497D03*
G01X-530546Y-2052497D03*
G01X-530546Y-2252497D03*
G01X-530546Y-2452497D03*
G01X-730546Y1347505D03*
G01X-730546Y1147505D03*
G01X-730546Y947505D03*
G01X-730546Y747504D03*
G01X-730546Y547504D03*
G01X-730546Y347504D03*
G01X-730546Y-252496D03*
G01X-730546Y-652496D03*
G01X-730546Y-2052497D03*
G01X-730546Y-2452497D03*
G01X-930546Y1147505D03*
G01X-930546Y747504D03*
G01X-930546Y-252496D03*
G01X-930546Y-2052497D03*
G01X-930546Y-2452497D03*
G01X-1130546Y-252496D03*
G01X-1130546Y-652496D03*
G01X-1130546Y-2052497D03*
G01X-1130546Y-2252497D03*
G01X-1130546Y-2452497D03*
G01X-1330546Y-252496D03*
G01X-1330546Y-2052497D03*
G01X-1330546Y-2252497D03*
G01X-1330546Y-2452497D03*
G01X-1530546Y947505D03*
G01X-1530546Y347504D03*
G01X-1530546Y-1652497D03*
G01X-1530546Y-2052497D03*
G01X-1530546Y-2452497D03*
G01X-1730546Y1347505D03*
G01X-1730546Y947505D03*
G01X-1730546Y747504D03*
G01X-1730546Y-2252497D03*
G01X-1730546Y-2452497D03*
G01X-1930546Y1147505D03*
G01X-1930546Y-2452497D03*
G01X-2130546Y-2252497D03*
G01X-2530547Y1347505D03*
G01X-2530547Y1147505D03*
G01X-2530547Y947505D03*
G01X-2530547Y747504D03*
G01X-2530547Y-1852497D03*
G01X-2730547Y947505D03*
G01X-2930547Y-1252497D03*
G01X-2930547Y-1452497D03*
G01X-2930547Y-1652497D03*
G01X-2930547Y-1852497D03*
G01X-3130547Y-252496D03*
G01X-3130547Y-452496D03*
G01X-3130547Y-1252497D03*
G01X-3330547Y1347505D03*
G01X-3330547Y1147505D03*
G01X-3330547Y947505D03*
G01X-3330547Y547504D03*
G01X-3330547Y-252496D03*
G01X-3330547Y-652496D03*
G01X-3330547Y-852496D03*
G01X-3330547Y-1652497D03*
G01X-3330547Y-1852497D03*
G01X-3530547Y947505D03*
G01X-3530547Y547504D03*
G01X-3530547Y347504D03*
G01X-3530547Y-252496D03*
G01X-3530547Y-652496D03*
G01X-3530547Y-852496D03*
G01X-3530547Y-1052496D03*
G01X-3530547Y-1652497D03*
G01X-3530547Y-1852497D03*
G01X-3730547Y947505D03*
G01X-3730547Y747504D03*
G01X-3730547Y547504D03*
G01X-3730547Y-652496D03*
G01X-3730547Y-852496D03*
G01X-3730547Y-1052496D03*
G01X-3730547Y-1252497D03*
G01X-3730547Y-1652497D03*
G01X-3930547Y947505D03*
G01X-3930547Y747504D03*
G01X-3930547Y547504D03*
G01X-3930547Y-652496D03*
G01X-3930547Y-852496D03*
G01X-3930547Y-1052496D03*
G01X-3930547Y-1252497D03*
G01X-3930547Y-1652497D03*
G01X-3930547Y-1852497D03*
G01X-3930547Y-2052497D03*
G01X-2749558Y1093506D03*
G01X-2993092Y1557503D03*
G01X-2790666Y-2562499D03*
G01X-2990666Y-2562499D03*
G54D14*
G01X-1440548Y-1942499D03*
G54D13*
G01X-2640466Y-1589763D03*
G54D14*
G01X-260547Y-1182498D03*
G01X-300547Y-1552499D03*
G54D13*
G01X-460547Y-1452498D03*
G01X-290547Y-1322498D03*
G01X-100547Y-1322498D03*
G01X-140547Y-1382498D03*
G01X-810547Y-972498D03*
G01X-635547Y-1252498D03*
G01X-1503211Y-62985D03*
G01X-960697Y244788D03*
G01X-1170414Y559737D03*
G01X-1066669Y1314868D03*
G01X-2127544Y1267502D03*
G01X-162089Y-445957D03*
G01X-62089Y-445957D03*
G01X37911Y-445957D03*
G01X37911Y-345998D03*
G01X-62089Y-345998D03*
G01X-162089Y-345998D03*
G01X-162089Y-246040D03*
G01X-62089Y-246040D03*
G01X37911Y-246040D03*
G01X37911Y445956D03*
G01X-62089Y445956D03*
G01X-162089Y445956D03*
G01X-162089Y345998D03*
G01X-62089Y345998D03*
G01X37911Y345998D03*
G01X37911Y246040D03*
G01X-62089Y246040D03*
G01X-162089Y246040D03*
G01X-3922785Y-445217D03*
G01X-3822785Y-445217D03*
G01X-3722785Y-445217D03*
G01X-3722785Y-345259D03*
G01X-3822785Y-345259D03*
G01X-3922785Y-345259D03*
G01X-3922785Y-245300D03*
G01X-3822785Y-245300D03*
G01X-3722785Y-245300D03*
G01X-3923001Y445319D03*
G01X-3823001Y445319D03*
G01X-3723001Y445319D03*
G01X-3923001Y345360D03*
G01X-3823001Y345360D03*
G01X-3723001Y345360D03*
G01X-3723001Y245402D03*
G01X-3823001Y245402D03*
G01X-3923001Y245402D03*
G01X-3723001Y145444D03*
G54D15*
G01X-2343035Y1267504D03*
G54D13*
G01X-1390548Y527503D03*
G01X-2702288Y519336D03*
G01X-3000548Y277502D03*
G01X-3172785Y-90342D03*
G01X-3272785Y-90342D03*
G01X-3322785Y-145342D03*
G01X-3319475Y145527D03*
G01X-3269475Y90527D03*
G01X-60664Y-2522499D03*
G01X29336Y-2462499D03*
G01X76475Y-2370486D03*
G01X89453Y-2032499D03*
G01X89453Y-2132499D03*
G01X89453Y-2242499D03*
G01X49453Y1397503D03*
G01X-10547Y1487503D03*
G01X-190665Y-2562499D03*
G01X-290665Y-2562499D03*
G01X-390665Y-2562499D03*
G01X-490665Y-2562499D03*
G01X-590665Y-2562499D03*
G01X-690665Y-2562499D03*
G01X-790665Y-2562499D03*
G01X-890665Y-2562499D03*
G01X-990665Y-2562499D03*
G01X-1090665Y-2562499D03*
G01X-1190665Y-2562499D03*
G01X-1290665Y-2562499D03*
G01X-1390665Y-2562499D03*
G01X-1490665Y-2562499D03*
G01X-1590665Y-2562499D03*
G01X-1690665Y-2562499D03*
G01X-1790665Y-2562499D03*
G01X-1890666Y-2562499D03*
G01X-1990666Y-2562499D03*
G01X-2090666Y-2562499D03*
G01X-2190666Y-2562499D03*
G01X-2290666Y-2562499D03*
G01X-2390666Y-2562499D03*
G01X-2490666Y-2562499D03*
G01X-2590666Y-2562499D03*
G01X-2690666Y-2562499D03*
G01X-2890666Y-2562499D03*
G01X-3090666Y-2562499D03*
G01X-3190666Y-2562499D03*
G01X-3290666Y-2562499D03*
G01X-3390666Y-2562499D03*
G01X-3490666Y-2562499D03*
G01X-3590666Y-2562499D03*
G01X-3690666Y-2562499D03*
G01X-3790667Y-2562499D03*
G01X-3890549Y-2542499D03*
G01X-3970549Y-2482499D03*
G01X-4014480Y-2378568D03*
G01X-4030549Y-2285224D03*
G01X-4030549Y-2185224D03*
G01X-4030549Y-2085224D03*
G01X-4030549Y-1985224D03*
G01X-4030549Y-1885224D03*
G01X-4030549Y-1785224D03*
G01X-4030549Y-1685224D03*
G01X-4030549Y-1585224D03*
G01X-4030549Y-1485224D03*
G01X-4030549Y-1385224D03*
G01X-4030549Y-1285223D03*
G01X-4030549Y-1185223D03*
G01X-4030549Y-1085223D03*
G01X-4030549Y-985223D03*
G01X-4030549Y-885223D03*
G01X-4030549Y-785223D03*
G01X-4030549Y-685223D03*
G01X-4030549Y-585223D03*
G01X-4030549Y-485223D03*
G01X-4030549Y-385223D03*
G01X-4030549Y-285223D03*
G01X-4030549Y214777D03*
G01X-4030549Y314777D03*
G01X-4030549Y414777D03*
G01X-4030549Y514777D03*
G01X-4030549Y614778D03*
G01X-4030549Y714778D03*
G01X-4030549Y814778D03*
G01X-4030549Y914778D03*
G01X-4030549Y1014778D03*
G01X-4030549Y1114778D03*
G01X-4030549Y1214778D03*
G01X-4007409Y1350643D03*
G01X-3970549Y1447503D03*
G01X-3900549Y1507503D03*
G01X-3793093Y1557503D03*
G01X-3693093Y1557503D03*
G01X-3593093Y1557503D03*
G01X-3493093Y1557503D03*
G01X-3393093Y1557503D03*
G01X-3293092Y1557503D03*
G01X-3193092Y1557503D03*
G01X-3093092Y1557503D03*
G01X-2893092Y1557503D03*
G01X-2793092Y1557503D03*
G01X-2693092Y1557503D03*
G01X-2593092Y1557503D03*
G01X-2493092Y1557503D03*
G01X-2393092Y1557503D03*
G01X-2293092Y1557503D03*
G01X-2193092Y1557503D03*
G01X-2093092Y1557503D03*
G01X-1993092Y1557503D03*
G01X-1893092Y1557503D03*
G01X-1793092Y1557503D03*
G01X-1693092Y1557503D03*
G01X-1593092Y1557503D03*
G01X-1493092Y1557503D03*
G01X-1393091Y1557503D03*
G01X-1293091Y1557503D03*
G01X-1193091Y1557503D03*
G01X-1093091Y1557503D03*
G01X-993091Y1557503D03*
G01X-893091Y1557503D03*
G01X-793091Y1557503D03*
G01X-693091Y1557503D03*
G01X-593091Y1557503D03*
G01X-493091Y1557503D03*
G01X-393091Y1557503D03*
G01X-293091Y1557503D03*
G01X-193091Y1557503D03*
G01X-102560Y1534643D03*
G01X89453Y1267503D03*
G01X89453Y1167503D03*
G01X89453Y1067503D03*
G01X89453Y967503D03*
G01X89453Y867503D03*
G01X89453Y767503D03*
G01X89453Y667503D03*
G01X89453Y567503D03*
G01X89453Y467502D03*
G01X89453Y367502D03*
G01X89453Y267502D03*
G01X89453Y167502D03*
G01X89453Y-232498D03*
G01X89453Y-332498D03*
G01X89453Y-432498D03*
G01X89453Y-532498D03*
G01X89453Y-632498D03*
G01X89453Y-732498D03*
G01X89453Y-832498D03*
G01X89453Y-932498D03*
G01X89453Y-1032498D03*
G01X89453Y-1132498D03*
G01X89453Y-1232498D03*
G01X89453Y-1332498D03*
G01X89453Y-1432499D03*
G01X89453Y-1532499D03*
G01X89453Y-1632499D03*
G01X89453Y-1732499D03*
G01X89453Y-1832499D03*
G01X89453Y-1932499D03*
G01X-2620549Y729757D03*
G01X-2070548Y-1622499D03*
G01X-2230548Y-1622499D03*
G01X-2390548Y-1722499D03*
G01X-2430548Y-2162499D03*
G01X-1380550Y-1441276D03*
G01X-2780548Y-1589763D03*
G01X-1870548Y-1512499D03*
G01X-2050548Y-1512499D03*
G01X-2780551Y-1441131D03*
G01X-2780550Y-713574D03*
G01X-2780550Y-863574D03*
G01X-2780548Y-992498D03*
G54D15*
G01X-1240547Y1257503D03*
G54D13*
G01X-267504Y-316763D03*
G01X-3455053Y-740000D03*
G54D14*
G01X-3295053Y-2150001D03*
G54D13*
G01X-2324548Y-27499D03*
G01X-2360548Y27502D03*
G01X-2749543Y22200D03*
G01X-2572911Y-268673D03*
G01X-1760548Y-1452498D03*
G01X-1710548Y-1392498D03*
G01X-1620548Y-1322498D03*
G01X-1550548Y-1262498D03*
G01X-3046547Y-2393494D03*
G01X-2873547Y-2140495D03*
G01X-3130889Y-2332160D03*
G01X-3290549Y-2312499D03*
G01X-2700548Y-2012499D03*
G01X-2340548Y-1912499D03*
G01X-1740548Y-2092499D03*
G01X-2749543Y228450D03*
G01X-2895934Y-149142D03*
G01X-2765928Y-149142D03*
G01X-3222785Y-145342D03*
G01X-2580889Y90840D03*
G01X-662089Y-146081D03*
G01X-262089Y146081D03*
G01X-762089Y-146081D03*
G01X-1741583Y-310283D03*
G01X-1699545Y-363508D03*
G01X-860547Y386502D03*
G01X-1183351Y247907D03*
G01X-1692506Y242680D03*
G01X-2212089Y91081D03*
G01X-2162089Y146081D03*
G01X-2649475Y90527D03*
G01X-810888Y320840D03*
G01X-1850889Y-659160D03*
G01X-1750889Y-659160D03*
G01X-1950889Y-659160D03*
G01X-2050889Y-659160D03*
G01X-2280889Y-569160D03*
G01X-2633732Y-286317D03*
G01X-2350889Y-569160D03*
G01X-2351600Y-498449D03*
G01X-479636Y-598895D03*
G01X-338214Y-387474D03*
G01X-408925Y-458184D03*
G01X-479636Y-528895D03*
G01X-267504Y-386763D03*
G01X-338214Y-457474D03*
G01X-408925Y-528184D03*
G01X-607506Y-543895D03*
G01X-557506Y-598895D03*
G01X-757506Y-598895D03*
G01X-657506Y-598895D03*
G01X-1607506Y-543895D03*
G01X-1557506Y-598895D03*
G01X-1507506Y-543895D03*
G01X-1457506Y-598895D03*
G01X-1407506Y-543895D03*
G01X-1357506Y-598895D03*
G01X-1157506Y-598895D03*
G01X-1007506Y-543895D03*
G01X-707506Y-543895D03*
G01X-857507Y-306732D03*
G01X-807507Y-361732D03*
G01X-757507Y-306732D03*
G01X-707507Y-361732D03*
G01X-1007507Y-361732D03*
G01X-712089Y-91081D03*
G01X-607507Y-361732D03*
G01X-657507Y-306732D03*
G01X-907507Y-361732D03*
G01X-957507Y-306732D03*
G01X-1057507Y-306732D03*
G01X-1107507Y-361732D03*
G01X-1157507Y-306732D03*
G01X-1207507Y-361732D03*
G01X-1257507Y-306732D03*
G01X-1307507Y-361732D03*
G01X-1357507Y-306732D03*
G01X-1607507Y-361732D03*
G01X-1649545Y-308508D03*
G01X-1858389Y-284160D03*
G01X-2007507Y-361732D03*
G01X-2057507Y-306732D03*
G01X-2458459Y-386167D03*
G01X-581596Y-294461D03*
G01X-636596Y-244461D03*
G01X-581596Y-194461D03*
G01X-2209782Y-94245D03*
G01X-2154783Y-144245D03*
G01X-2209782Y-194245D03*
G01X-2154783Y-244245D03*
G01X-2935312Y459858D03*
G01X-2990312Y409858D03*
G01X-1762089Y146081D03*
G01X-1712089Y91081D03*
G01X-1662089Y146081D03*
G01X-2466766Y108709D03*
G01X-2919475Y145527D03*
G01X-2819475Y145527D03*
G01X-3219475Y145527D03*
G01X-3119475Y145527D03*
G01X-3019475Y145527D03*
G01X-2012089Y91081D03*
G01X-2062089Y146081D03*
G01X-1812089Y91081D03*
G01X-1862089Y146081D03*
G01X-1962089Y146081D03*
G01X-1912089Y91081D03*
G01X-862089Y146081D03*
G01X-912089Y91081D03*
G01X-962089Y146081D03*
G01X-562089Y146081D03*
G01X-612089Y91081D03*
G01X-662089Y146081D03*
G01X-712089Y91081D03*
G01X-812089Y91081D03*
G01X-762089Y146081D03*
G01X87911Y91081D03*
G01X37911Y146081D03*
G01X-12089Y91081D03*
G01X-62089Y146081D03*
G01X-112089Y91081D03*
G01X-162089Y146081D03*
G01X-212089Y91081D03*
G01X-2769475Y90527D03*
G01X-2969475Y90527D03*
G01X-3069475Y90527D03*
G01X-3169475Y90527D03*
G01X-3773001Y90444D03*
G01X-3873001Y90444D03*
G01X-3973001Y90444D03*
G01X-3623001Y145444D03*
G01X-3823001Y145444D03*
G01X-4023001Y145444D03*
G01X37911Y-146081D03*
G01X-62089Y-146081D03*
G01X-162089Y-146081D03*
G01X87911Y-91081D03*
G01X-12089Y-91081D03*
G01X-112089Y-91081D03*
G01X-212089Y-91081D03*
G01X-862089Y-146081D03*
G01X-962089Y-146081D03*
G01X-1062089Y-146081D03*
G01X-1162089Y-146081D03*
G01X-1262089Y-146081D03*
G01X-1362089Y-146081D03*
G01X-812089Y-91081D03*
G01X-912089Y-91081D03*
G01X-1012089Y-91081D03*
G01X-1112089Y-91081D03*
G01X-1212089Y-91081D03*
G01X-1862089Y-146081D03*
G01X-1962089Y-146081D03*
G01X-2062089Y-146081D03*
G01X-1912089Y-91081D03*
G01X-2012089Y-91081D03*
G01X-1462089Y-146081D03*
G01X-2622785Y-145342D03*
G01X-2572785Y-90342D03*
G01X-3422785Y-145342D03*
G01X-3522785Y-145342D03*
G01X-3622785Y-145342D03*
G01X-3722785Y-145342D03*
G01X-3822785Y-145342D03*
G01X-3922785Y-145342D03*
G01X-4022785Y-145342D03*
G01X-3372785Y-90342D03*
G01X-3472785Y-90342D03*
G01X-3572785Y-90342D03*
G01X-3672785Y-90342D03*
G01X-3772785Y-90342D03*
G01X-3872785Y-90342D03*
G01X-3972785Y-90342D03*
G01X-2217269Y-1029860D03*
G01X-2217269Y-915560D03*
G01X-1696569Y-968900D03*
G01X-3390548Y583503D03*
G01X-3032890Y721841D03*
G01X-1704189Y-811420D03*
G01X-1721108Y814381D03*
G01X-1389229Y-49420D03*
G01X-1437489Y-31640D03*
G01X-1389229Y3073D03*
G01X-1437489Y22547D03*
G01X-1389229Y55567D03*
G01X-1437489Y76733D03*
G01X-1389229Y108060D03*
G01X-1437489Y130920D03*
G01X-1836454Y-201066D03*
G01X-412932Y-33020D03*
G01X-467773Y33350D03*
G01X-1260548Y187502D03*
G01X-1540548Y717503D03*
G01X-2524034Y447874D03*
G01X-2748129Y689720D03*
G01X-2875751Y689152D03*
G01X-1631214Y-205754D03*
G01X-2230548Y257502D03*
G54D17*
G01X-925051Y-1060001D03*
G01X-1517115Y-1104924D03*
G54D13*
G01X-330547Y257502D03*
G54D17*
G01X-870547Y1307503D03*
G01X-1940548Y1297503D03*
G54D13*
G01X-2370548Y-1552499D03*
G01X-1945548Y447874D03*
G01X-460547Y607503D03*
G01X-2221039Y-1123998D03*
G01X-1610548Y1257503D03*
G01X-2648547Y1098499D03*
G01X-2656547Y1330498D03*
G01X-2750548Y1327503D03*
G54D14*
G01X-3450549Y227502D03*
G54D13*
G01X-1958189Y-1169560D03*
G01X-2137039Y-1172998D03*
G01X-2115052Y-1370001D03*
G01X-2106669Y-1460500D03*
G01X-1829049Y-777280D03*
G01X-2099049Y-867280D03*
G01X-1829049Y-957280D03*
G01X-2099049Y-1047280D03*
G01X-2009049Y-1047280D03*
G01X-1919049Y-1047280D03*
G01X-1829049Y-1047280D03*
G01X-1919049Y-957280D03*
G01X-2009049Y-957280D03*
G01X-2099049Y-957280D03*
G01X-2009049Y-867280D03*
G01X-1919049Y-777280D03*
G01X-2009049Y-777280D03*
G01X-2099049Y-777280D03*
G01X-1829049Y-867280D03*
G01X-1919049Y-867280D03*
G01X-842105Y-2242160D03*
G01X-840547Y-1852499D03*
G01X-1525052Y-1840001D03*
G01X-1029709Y-1159662D03*
G01X-1228947Y-1104900D03*
G01X-1240547Y-992498D03*
G01X-1380548Y-972498D03*
G01X-1910548Y-1622499D03*
G01X-2150548Y-1612499D03*
G01X-2465052Y-840000D03*
G01X-2230550Y-803574D03*
G01X-2205052Y-740000D03*
G01X-2905053Y-1090001D03*
G01X-3835053Y-1170001D03*
G01X-1820549Y-1613574D03*
G01X-1810549Y-1383574D03*
G01X-2750550Y-1213574D03*
G01X-2800550Y-1293574D03*
G01X-1380550Y-1293741D03*
G01X-1240545Y-701276D03*
G01X-2005052Y-1450001D03*
G01X-2785052Y-380000D03*
G01X-2719475Y145527D03*
G01X-2585052Y-380000D03*
G01X-2653379Y-594920D03*
G01X-2640546Y-861131D03*
G01X-2645052Y-990001D03*
G01X-2805553Y-554920D03*
G01X-2715052Y-1090001D03*
G01X-2955053Y-1180001D03*
G01X-3923001Y145444D03*
G01X-1455469Y-284957D03*
G01X-864536Y-680071D03*
G01X-873771Y-837698D03*
G01X-1107506Y-543895D03*
G01X-1057506Y-598895D03*
G01X-1364909Y-476999D03*
G01X-1407175Y-432818D03*
G01X-230889Y-2039160D03*
G01X-20889Y-2249160D03*
G01X-230889Y-2459160D03*
G01X-440889Y-2249160D03*
G01X-379382Y-2100668D03*
G01X-379382Y-2397653D03*
G01X-82397Y-2397653D03*
G01X-82397Y-2100668D03*
G01X-424903Y-2168795D03*
G01X-311254Y-2443174D03*
G01X-36875Y-2329525D03*
G01X-150524Y-2055146D03*
G01X-424904Y-2329522D03*
G01X-311251Y-2055145D03*
G01X-36874Y-2168798D03*
G01X-150527Y-2443175D03*
G01X-3710889Y-2039160D03*
G01X-3500889Y-2249160D03*
G01X-3710889Y-2459160D03*
G01X-3920889Y-2249160D03*
G01X-3859382Y-2100668D03*
G01X-3859382Y-2397653D03*
G01X-3562397Y-2397653D03*
G01X-3562397Y-2100668D03*
G01X-3904904Y-2168795D03*
G01X-3791254Y-2443174D03*
G01X-3516875Y-2329525D03*
G01X-3630524Y-2055146D03*
G01X-3904905Y-2329522D03*
G01X-3791251Y-2055145D03*
G01X-3516874Y-2168798D03*
G01X-3630527Y-2443175D03*
G01X-230889Y1440840D03*
G01X-20889Y1230840D03*
G01X-230889Y1020840D03*
G01X-440889Y1230840D03*
G01X-379382Y1379333D03*
G01X-379382Y1082348D03*
G01X-82397Y1082348D03*
G01X-82397Y1379333D03*
G01X-424903Y1311205D03*
G01X-311254Y1036826D03*
G01X-36875Y1150475D03*
G01X-150524Y1424854D03*
G01X-424904Y1150478D03*
G01X-311251Y1424855D03*
G01X-36874Y1311202D03*
G01X-150527Y1036825D03*
G01X-3710889Y1440840D03*
G01X-3500889Y1230840D03*
G01X-3710889Y1020840D03*
G01X-3920889Y1230840D03*
G01X-3859382Y1379333D03*
G01X-3859382Y1082348D03*
G01X-3562397Y1082348D03*
G01X-3562397Y1379333D03*
G01X-3904904Y1311205D03*
G01X-3791254Y1036826D03*
G01X-3516875Y1150475D03*
G01X-3630524Y1424854D03*
G01X-3904905Y1150478D03*
G01X-3791251Y1424855D03*
G01X-3516874Y1311202D03*
G01X-3630527Y1036825D03*
G54D18*
G01X-1010420Y834011D03*
G01X-1090404Y834011D03*
G01X-1170414Y834011D03*
G01X-1250399Y834011D03*
G01X-1250399Y754001D03*
G01X-1170414Y754001D03*
G01X-1090404Y754001D03*
G01X-1010420Y754001D03*
G01X-1010420Y673991D03*
G01X-1090404Y673991D03*
G01X-1170414Y673991D03*
G01X-1250399Y673991D03*
G01X-2104040Y833522D03*
G01X-2184024Y833522D03*
G01X-2264034Y833522D03*
G01X-2344019Y833522D03*
G01X-2344019Y753512D03*
G01X-2264034Y753512D03*
G01X-2184024Y753512D03*
G01X-2104040Y753512D03*
G01X-2104040Y673502D03*
G01X-2184024Y673502D03*
G01X-2264034Y673502D03*
G01X-2344019Y673502D03*
G54D14*
G01X-3170549Y1322503D03*
G01X-3326993Y714001D03*
G54D13*
G01X-1562089Y-146081D03*
G01X-1207506Y-543895D03*
G01X-3174994Y709996D03*
G04 Via End*

G04 Track Start*
G54D19*
G01X-390547Y23454D02*
G01X-210888Y-156205D01*
G01X-390547Y537503D02*
G01X-390547Y23454D01*
G01X-460547Y607503D02*
G01X-390547Y537503D01*
G01X-1815545Y-1727495D02*
G01X-1620548Y-1532499D01*
G01X-2253203Y-1727495D02*
G01X-1815545Y-1727495D01*
G01X-2627465Y-2101758D02*
G01X-2253203Y-1727495D01*
G01X-2591545Y-1613496D02*
G01X-3290549Y-2312499D01*
G01X-2291685Y-1613496D02*
G01X-2591545Y-1613496D01*
G01X-2242232Y-1564042D02*
G01X-2291685Y-1613496D01*
G01X-2106669Y-1460500D02*
G01X-2242546Y-1460500D01*
G54D20*
G01X-232847Y-1210198D02*
G01X-232847Y-1484798D01*
G01X-260547Y-1182498D02*
G01X-232847Y-1210198D01*
G01X-232847Y-1484798D02*
G01X-300547Y-1552499D01*
G54D19*
G01X-1769552Y1098499D02*
G01X-1839552Y1098499D01*
G01X-210888Y-156205D02*
G01X-210888Y-489160D01*
G01X-1353860Y-792498D02*
G01X-1730922Y-1169560D01*
G01X-514227Y-792498D02*
G01X-1353860Y-792498D01*
G01X-210888Y-489160D02*
G01X-514227Y-792498D01*
G01X-1839552Y439839D02*
G01X-2109582Y169808D01*
G01X-1839552Y1098499D02*
G01X-1839552Y439839D01*
G01X-1610548Y1257503D02*
G01X-1769552Y1098499D01*
G01X-2648547Y1098499D02*
G01X-1839552Y1098499D01*
G01X-2109582Y169808D02*
G01X-2109582Y-262968D01*
G01X-2963744Y-2185695D02*
G01X-2553744Y-2185695D01*
G01X-2410548Y-2042499D01*
G01X-3046547Y-2268497D02*
G01X-2963744Y-2185695D01*
G01X-2410548Y-2042499D02*
G01X-2080548Y-2042499D01*
G01X-1567314Y-1529265D01*
G01X-3046547Y-2393494D02*
G01X-3046547Y-2268497D01*
G01X-2540549Y-1672499D02*
G01X-1810548Y-1672499D01*
G01X-3130889Y-2262840D02*
G01X-2540549Y-1672499D01*
G01X-3130889Y-2332160D02*
G01X-3130889Y-2262840D01*
G01X-2834810Y-2101758D02*
G01X-2627465Y-2101758D01*
G01X-1832091Y-1564042D02*
G01X-2242232Y-1564042D01*
G01X-1760548Y-1492498D02*
G01X-1832091Y-1564042D01*
G01X-1760548Y-1452498D02*
G01X-1760548Y-1492498D01*
G01X-2810548Y1176498D02*
G01X-2810548Y557503D01*
G01X-2656547Y1330498D02*
G01X-2810548Y1176498D01*
G01X-2957569Y1120482D02*
G01X-2750548Y1327503D01*
G01X-2957569Y566420D02*
G01X-2957569Y1120482D01*
G54D21*
G01X-3455053Y-740000D02*
G01X-3455053Y-1077994D01*
G01X-3190549Y-1342498D01*
G01X-3190549Y-2045497D02*
G01X-3190549Y-1342498D01*
G01X-3295053Y-2150001D02*
G01X-3190549Y-2045497D01*
G54D19*
G01X-1710548Y-1572499D02*
G01X-1710548Y-1392498D01*
G01X-1810548Y-1672499D02*
G01X-1710548Y-1572499D01*
G01X-1620548Y-1532499D02*
G01X-1620548Y-1322498D01*
G01X-2873547Y-2140495D02*
G01X-2834810Y-2101758D01*
G01X-1567314Y-1279264D02*
G01X-1550548Y-1262498D01*
G01X-1567314Y-1529265D02*
G01X-1567314Y-1279264D01*
G01X-1730922Y-1169560D02*
G01X-1958189Y-1169560D01*
G54D22*
G01X-925051Y-1060001D02*
G01X-934872Y-1050180D01*
G01X-1394309Y-1050180D01*
G01X-1449053Y-1104924D02*
G01X-1394309Y-1050180D01*
G01X-1517115Y-1104924D02*
G01X-1449053Y-1104924D01*
G54D19*
G01X-2115052Y-1310001D02*
G01X-2115052Y-1370001D01*
G01X-2039852Y-1415201D02*
G01X-2005052Y-1450001D01*
G01X-2133774Y-1415201D02*
G01X-2039852Y-1415201D01*
G01X-2242546Y-1460500D02*
G01X-2704303Y-998743D01*
G01X-2704303Y-550750D01*
G01X-2965052Y-290000D01*
G01X-2965052Y31027D01*
G01X-2874274Y483126D02*
G01X-2957569Y566420D01*
G01X-2874274Y121804D02*
G01X-2874274Y483126D01*
G01X-2965052Y31027D02*
G01X-2874274Y121804D01*
G01X-2155052Y-1154984D02*
G01X-2137039Y-1172998D01*
G01X-2155052Y-308437D02*
G01X-2155052Y-1154984D01*
G01X-2109582Y-262968D02*
G01X-2155052Y-308437D01*
G01X-2415036Y-930000D02*
G01X-2221039Y-1123998D01*
G01X-2785052Y-380000D02*
G01X-2555052Y-610000D01*
G01X-2555052Y-993923D01*
G01X-2133774Y-1415201D01*
G01X-2810548Y557503D02*
G01X-2515788Y262743D01*
G01X-2515788Y-909264D01*
G01X-2115052Y-1310001D01*
G01X-2413259Y-404889D02*
G01X-2415052Y-406682D01*
G01X-2413259Y244791D02*
G01X-2413259Y-404889D01*
G01X-2415052Y-406682D02*
G01X-2415052Y-930000D01*
G01X-1945548Y447874D02*
G01X-2210177Y447874D01*
G01X-2413259Y244791D01*
G04 Track End*

M02*

