G04 Layer: DrillDrawingLayer*
G04 EasyEDA Pro v2.2.27.1, 2024-09-01 09:43:49*
G04 Gerber Generator version 0.3*
G04 Scale: 100 percent, Rotated: No, Reflected: No*
G04 Dimensions in millimeters*
G04 Leading zeros omitted, absolute positions, 3 integers and 5 decimals*
%FSLAX35Y35*%
%MOMM*%
%AMIconRect*4,1,4,0.2,-0.2,-0.2,-0.2,-0.2,0.2,0.2,0.2,0.2,-0.2,0*4,0,4,0.166667,-0.166667,0.166667,0.166667,-0.166667,0.166667,-0.166667,-0.166667,0.166667,-0.166667,0*%
%AMIconTriangle*4,1,3,-0.242567,0.171767,0.242567,0.171767,0,-0.2706,-0.242567,0.171767,0*4,0,3,-0.189767,0.1386,0,-0.1953,0.190167,0.1386,-0.189767,0.1386,0*%
%AMIconStar6*4,1,12,0.0862,0.1492,0.213233,0.123367,0.172367,0,0.213233,-0.1229,0.0862,-0.148733,0,-0.245767,-0.085767,-0.148733,-0.213267,-0.1229,-0.171933,0,-0.213267,0.1229,-0.085767,0.1492,0,0.245767,0.0862,0.1492,0*4,0,12,-0.000333,0.195333,-0.064333,0.122667,-0.169667,0.097667,-0.138333,-0.005333,-0.169667,-0.098,-0.064333,-0.122667,-0.000333,-0.195667,0.064333,-0.122667,0.169667,-0.098,0.138667,0.005,0.169667,0.098,0.064333,0.122333,-0.000333,0.195333,0*%
%AMIconStar4*4,1,8,-0.222667,0.222667,0,0.144667,0.222667,0.222667,0.144667,0,0.222667,-0.222667,0,-0.144667,-0.217433,-0.222667,-0.144667,0,-0.222667,0.222667,0*4,0,8,0.166667,-0.166667,0.108,0,0.166667,0.166667,0,0.108,-0.166667,0.166667,-0.108,0,-0.166667,-0.166667,0,-0.108,0.166667,-0.166667,0*%
%AMIconPlus*4,1,12,0.124,-0.2,-0.124,-0.2,-0.124,-0.124,-0.2,-0.124,-0.2,0.124,-0.124,0.124,-0.124,0.2,0.124,0.2,0.124,0.124,0.2,0.124,0.2,-0.124,0.124,-0.124,0.124,-0.2,0*4,0,12,0.090667,-0.166667,0.090667,-0.090667,0.166667,-0.090667,0.166667,0.090667,0.090667,0.090667,0.090667,0.166667,-0.090667,0.166667,-0.090667,0.090667,-0.166667,0.090667,-0.166667,-0.090667,-0.090667,-0.090667,-0.090667,-0.166667,0.090667,-0.166667,0*%
%ADD10IconRect*%
%ADD11C,0.44X0.373333*%
%ADD12IconTriangle*%
%ADD13IconStar6*%
%ADD14IconStar4*%
%ADD15IconPlus*%
G75*


G04 Drill Drawing Start*
G54D10*
G01X-2343035Y1267504D03*
G01X-1240547Y1257503D03*
G54D11*
G01X-3710889Y-2249160D03*
G01X-3710889Y1230840D03*
G01X-230889Y-2249160D03*
G01X-230889Y1230840D03*
G54D12*
G01X-505547Y-1602498D03*
G01X-505547Y-1122499D03*
G01X-75547Y-1602498D03*
G01X-75547Y-1122499D03*
G54D13*
G01X-3450549Y227502D03*
G01X-3326993Y714001D03*
G01X-3295053Y-2150001D03*
G01X-3170549Y1322503D03*
G01X-1940548Y1297503D03*
G01X-1517115Y-1104924D03*
G01X-1440548Y-1942499D03*
G01X-925051Y-1060001D03*
G01X-870547Y1307503D03*
G01X-300547Y-1552499D03*
G01X-260547Y-1182498D03*
G54D14*
G01X-2344019Y673502D03*
G01X-2344019Y753512D03*
G01X-2344019Y833522D03*
G01X-2264034Y673502D03*
G01X-2264034Y753512D03*
G01X-2264034Y833522D03*
G01X-2184024Y673502D03*
G01X-2184024Y753512D03*
G01X-2184024Y833522D03*
G01X-2104040Y673502D03*
G01X-2104040Y753512D03*
G01X-2104040Y833522D03*
G01X-1250399Y673991D03*
G01X-1250399Y754001D03*
G01X-1250399Y834011D03*
G01X-1170414Y673991D03*
G01X-1170414Y754001D03*
G01X-1170414Y834011D03*
G01X-1090404Y673991D03*
G01X-1090404Y754001D03*
G01X-1090404Y834011D03*
G01X-1010420Y673991D03*
G01X-1010420Y754001D03*
G01X-1010420Y834011D03*
G54D15*
G01X-4030549Y-2285224D03*
G01X-4030549Y-2185224D03*
G01X-4030549Y-2085224D03*
G01X-4030549Y-1985224D03*
G01X-4030549Y-1885224D03*
G01X-4030549Y-1785224D03*
G01X-4030549Y-1685224D03*
G01X-4030549Y-1585224D03*
G01X-4030549Y-1485224D03*
G01X-4030549Y-1385224D03*
G01X-4030549Y-1285223D03*
G01X-4030549Y-1185223D03*
G01X-4030549Y-1085223D03*
G01X-4030549Y-985223D03*
G01X-4030549Y-885223D03*
G01X-4030549Y-785223D03*
G01X-4030549Y-685223D03*
G01X-4030549Y-585223D03*
G01X-4030549Y-485223D03*
G01X-4030549Y-385223D03*
G01X-4030549Y-285223D03*
G01X-4030549Y214777D03*
G01X-4030549Y314777D03*
G01X-4030549Y414777D03*
G01X-4030549Y514777D03*
G01X-4030549Y614778D03*
G01X-4030549Y714778D03*
G01X-4030549Y814778D03*
G01X-4030549Y914778D03*
G01X-4030549Y1014778D03*
G01X-4030549Y1114778D03*
G01X-4030549Y1214778D03*
G01X-4023001Y145444D03*
G01X-4022785Y-145342D03*
G01X-4014480Y-2378568D03*
G01X-4007409Y1350643D03*
G01X-3973001Y90444D03*
G01X-3972785Y-90342D03*
G01X-3970549Y-2482499D03*
G01X-3970549Y1447503D03*
G01X-3930547Y-2052497D03*
G01X-3930547Y-1852497D03*
G01X-3930547Y-1652497D03*
G01X-3930547Y-1252497D03*
G01X-3930547Y-1052496D03*
G01X-3930547Y-852496D03*
G01X-3930547Y-652496D03*
G01X-3930547Y547504D03*
G01X-3930547Y747504D03*
G01X-3930547Y947505D03*
G01X-3923001Y145444D03*
G01X-3923001Y245402D03*
G01X-3923001Y345360D03*
G01X-3923001Y445319D03*
G01X-3922785Y-145342D03*
G01X-3922785Y-445217D03*
G01X-3922785Y-345259D03*
G01X-3922785Y-245300D03*
G01X-3920889Y-2249160D03*
G01X-3920889Y1230840D03*
G01X-3904905Y-2329522D03*
G01X-3904905Y1150478D03*
G01X-3904904Y-2168795D03*
G01X-3904904Y1311205D03*
G01X-3900549Y1507503D03*
G01X-3890549Y-2542499D03*
G01X-3873001Y90444D03*
G01X-3872785Y-90342D03*
G01X-3859382Y-2397653D03*
G01X-3859382Y-2100668D03*
G01X-3859382Y1082348D03*
G01X-3859382Y1379333D03*
G01X-3835053Y-1170001D03*
G01X-3823001Y145444D03*
G01X-3823001Y245402D03*
G01X-3823001Y345360D03*
G01X-3823001Y445319D03*
G01X-3822785Y-445217D03*
G01X-3822785Y-345259D03*
G01X-3822785Y-245300D03*
G01X-3822785Y-145342D03*
G01X-3793093Y1557503D03*
G01X-3791254Y-2443174D03*
G01X-3791254Y1036826D03*
G01X-3791251Y-2055145D03*
G01X-3791251Y1424855D03*
G01X-3790667Y-2562499D03*
G01X-3773001Y90444D03*
G01X-3772785Y-90342D03*
G01X-3730547Y-1652497D03*
G01X-3730547Y-1252497D03*
G01X-3730547Y-1052496D03*
G01X-3730547Y-852496D03*
G01X-3730547Y-652496D03*
G01X-3730547Y547504D03*
G01X-3730547Y747504D03*
G01X-3730547Y947505D03*
G01X-3723001Y145444D03*
G01X-3723001Y245402D03*
G01X-3723001Y345360D03*
G01X-3723001Y445319D03*
G01X-3722785Y-445217D03*
G01X-3722785Y-345259D03*
G01X-3722785Y-245300D03*
G01X-3722785Y-145342D03*
G01X-3710889Y-2459160D03*
G01X-3710889Y-2039160D03*
G01X-3710889Y1020840D03*
G01X-3710889Y1440840D03*
G01X-3693093Y1557503D03*
G01X-3690666Y-2562499D03*
G01X-3672785Y-90342D03*
G01X-3630527Y-2443175D03*
G01X-3630527Y1036825D03*
G01X-3630524Y-2055146D03*
G01X-3630524Y1424854D03*
G01X-3623001Y145444D03*
G01X-3622785Y-145342D03*
G01X-3593093Y1557503D03*
G01X-3590666Y-2562499D03*
G01X-3572785Y-90342D03*
G01X-3562397Y-2397653D03*
G01X-3562397Y-2100668D03*
G01X-3562397Y1082348D03*
G01X-3562397Y1379333D03*
G01X-3530547Y-1852497D03*
G01X-3530547Y-1652497D03*
G01X-3530547Y-1052496D03*
G01X-3530547Y-852496D03*
G01X-3530547Y-652496D03*
G01X-3530547Y-252496D03*
G01X-3530547Y347504D03*
G01X-3530547Y547504D03*
G01X-3530547Y947505D03*
G01X-3522785Y-145342D03*
G01X-3516875Y-2329525D03*
G01X-3516875Y1150475D03*
G01X-3516874Y-2168798D03*
G01X-3516874Y1311202D03*
G01X-3500889Y-2249160D03*
G01X-3500889Y1230840D03*
G01X-3493093Y1557503D03*
G01X-3490666Y-2562499D03*
G01X-3472785Y-90342D03*
G01X-3455053Y-740000D03*
G01X-3422785Y-145342D03*
G01X-3393093Y1557503D03*
G01X-3390666Y-2562499D03*
G01X-3390548Y583503D03*
G01X-3372785Y-90342D03*
G01X-3330547Y-1852497D03*
G01X-3330547Y-1652497D03*
G01X-3330547Y-852496D03*
G01X-3330547Y-652496D03*
G01X-3330547Y-252496D03*
G01X-3330547Y547504D03*
G01X-3330547Y947505D03*
G01X-3330547Y1147505D03*
G01X-3330547Y1347505D03*
G01X-3322785Y-145342D03*
G01X-3319475Y145527D03*
G01X-3293092Y1557503D03*
G01X-3290666Y-2562499D03*
G01X-3290549Y-2312499D03*
G01X-3272785Y-90342D03*
G01X-3269475Y90527D03*
G01X-3222785Y-145342D03*
G01X-3219475Y145527D03*
G01X-3193092Y1557503D03*
G01X-3190666Y-2562499D03*
G01X-3174994Y709996D03*
G01X-3172785Y-90342D03*
G01X-3169475Y90527D03*
G01X-3130889Y-2332160D03*
G01X-3130547Y-1252497D03*
G01X-3130547Y-452496D03*
G01X-3130547Y-252496D03*
G01X-3119475Y145527D03*
G01X-3093092Y1557503D03*
G01X-3090666Y-2562499D03*
G01X-3069475Y90527D03*
G01X-3046547Y-2393494D03*
G01X-3032890Y721841D03*
G01X-3021547Y-146499D03*
G01X-3019475Y145527D03*
G01X-3000548Y277502D03*
G01X-2993092Y1557503D03*
G01X-2990666Y-2562499D03*
G01X-2990312Y409858D03*
G01X-2969475Y90527D03*
G01X-2955053Y-1180001D03*
G01X-2935312Y459858D03*
G01X-2930547Y-1852497D03*
G01X-2930547Y-1652497D03*
G01X-2930547Y-1452497D03*
G01X-2930547Y-1252497D03*
G01X-2919475Y145527D03*
G01X-2905053Y-1090001D03*
G01X-2895934Y-149142D03*
G01X-2893092Y1557503D03*
G01X-2890666Y-2562499D03*
G01X-2875751Y689152D03*
G01X-2873547Y-2140495D03*
G01X-2819475Y145527D03*
G01X-2805553Y-554920D03*
G01X-2800550Y-1293574D03*
G01X-2793092Y1557503D03*
G01X-2790666Y-2562499D03*
G01X-2785052Y-380000D03*
G01X-2780551Y-1441131D03*
G01X-2780550Y-863574D03*
G01X-2780550Y-713574D03*
G01X-2780548Y-1589763D03*
G01X-2780548Y-992498D03*
G01X-2769475Y90527D03*
G01X-2765928Y-149142D03*
G01X-2750550Y-1213574D03*
G01X-2750548Y1327503D03*
G01X-2749558Y1093506D03*
G01X-2749543Y22200D03*
G01X-2749543Y228450D03*
G01X-2748129Y689720D03*
G01X-2730547Y947505D03*
G01X-2719475Y145527D03*
G01X-2715052Y-1090001D03*
G01X-2702288Y519336D03*
G01X-2700548Y-2012499D03*
G01X-2693092Y1557503D03*
G01X-2690666Y-2562499D03*
G01X-2656547Y1330498D03*
G01X-2654547Y257200D03*
G01X-2653379Y-594920D03*
G01X-2649475Y90527D03*
G01X-2648547Y1098499D03*
G01X-2645052Y-990001D03*
G01X-2640546Y-861131D03*
G01X-2640466Y-1589763D03*
G01X-2633732Y-286317D03*
G01X-2622785Y-145342D03*
G01X-2620549Y729757D03*
G01X-2593092Y1557503D03*
G01X-2590666Y-2562499D03*
G01X-2585052Y-380000D03*
G01X-2580889Y90840D03*
G01X-2572911Y-268673D03*
G01X-2572785Y-90342D03*
G01X-2530547Y-1852497D03*
G01X-2530547Y747504D03*
G01X-2530547Y947505D03*
G01X-2530547Y1147505D03*
G01X-2530547Y1347505D03*
G01X-2524034Y447874D03*
G01X-2493092Y1557503D03*
G01X-2490666Y-2562499D03*
G01X-2466766Y108709D03*
G01X-2465052Y-840000D03*
G01X-2463544Y242708D03*
G01X-2458459Y-386167D03*
G01X-2430548Y-2162499D03*
G01X-2393092Y1557503D03*
G01X-2390666Y-2562499D03*
G01X-2390548Y-1722499D03*
G01X-2370548Y-1552499D03*
G01X-2360548Y27502D03*
G01X-2351600Y-498449D03*
G01X-2350889Y-569160D03*
G01X-2340548Y-1912499D03*
G01X-2324548Y-27499D03*
G01X-2293092Y1557503D03*
G01X-2290666Y-2562499D03*
G01X-2280889Y-569160D03*
G01X-2230550Y-803574D03*
G01X-2230548Y-1622499D03*
G01X-2230548Y257502D03*
G01X-2221039Y-1123998D03*
G01X-2217269Y-1029860D03*
G01X-2217269Y-915560D03*
G01X-2212089Y91081D03*
G01X-2209782Y-194245D03*
G01X-2209782Y-94245D03*
G01X-2205052Y-740000D03*
G01X-2193092Y1557503D03*
G01X-2190666Y-2562499D03*
G01X-2162089Y146081D03*
G01X-2154783Y-244245D03*
G01X-2154783Y-144245D03*
G01X-2150548Y-1612499D03*
G01X-2137039Y-1172998D03*
G01X-2130546Y-2252497D03*
G01X-2127544Y1267502D03*
G01X-2115052Y-1370001D03*
G01X-2106669Y-1460500D03*
G01X-2099049Y-1047280D03*
G01X-2099049Y-957280D03*
G01X-2099049Y-867280D03*
G01X-2099049Y-777280D03*
G01X-2093092Y1557503D03*
G01X-2090666Y-2562499D03*
G01X-2070548Y-1622499D03*
G01X-2062089Y146081D03*
G01X-2062089Y-146081D03*
G01X-2057507Y-306732D03*
G01X-2050889Y-659160D03*
G01X-2050548Y-1512499D03*
G01X-2012089Y91081D03*
G01X-2012089Y-91081D03*
G01X-2009049Y-1047280D03*
G01X-2009049Y-957280D03*
G01X-2009049Y-867280D03*
G01X-2009049Y-777280D03*
G01X-2007507Y-361732D03*
G01X-2005052Y-1450001D03*
G01X-1993092Y1557503D03*
G01X-1990666Y-2562499D03*
G01X-1962089Y146081D03*
G01X-1962089Y-146081D03*
G01X-1958189Y-1169560D03*
G01X-1950889Y-659160D03*
G01X-1945548Y447874D03*
G01X-1930546Y-2452497D03*
G01X-1930546Y1147505D03*
G01X-1919049Y-1047280D03*
G01X-1919049Y-957280D03*
G01X-1919049Y-867280D03*
G01X-1919049Y-777280D03*
G01X-1912089Y91081D03*
G01X-1912089Y-91081D03*
G01X-1910548Y-1622499D03*
G01X-1893092Y1557503D03*
G01X-1890666Y-2562499D03*
G01X-1890548Y817503D03*
G01X-1870548Y-1512499D03*
G01X-1862089Y146081D03*
G01X-1862089Y-146081D03*
G01X-1858389Y-284160D03*
G01X-1850889Y-659160D03*
G01X-1836454Y-201066D03*
G01X-1829049Y-1047280D03*
G01X-1829049Y-957280D03*
G01X-1829049Y-867280D03*
G01X-1829049Y-777280D03*
G01X-1820549Y-1613574D03*
G01X-1812089Y91081D03*
G01X-1810549Y-1383574D03*
G01X-1793092Y1557503D03*
G01X-1790665Y-2562499D03*
G01X-1762089Y146081D03*
G01X-1760548Y-1452498D03*
G01X-1750889Y-659160D03*
G01X-1741583Y-310283D03*
G01X-1740548Y-2092499D03*
G01X-1730546Y-2452497D03*
G01X-1730546Y-2252497D03*
G01X-1730546Y747504D03*
G01X-1730546Y947505D03*
G01X-1730546Y1347505D03*
G01X-1721108Y814381D03*
G01X-1720548Y398503D03*
G01X-1712089Y91081D03*
G01X-1710548Y-1392498D03*
G01X-1704189Y-811420D03*
G01X-1699545Y-363508D03*
G01X-1696569Y-968900D03*
G01X-1693092Y1557503D03*
G01X-1692506Y242680D03*
G01X-1690665Y-2562499D03*
G01X-1662089Y146081D03*
G01X-1649545Y-308508D03*
G01X-1631214Y-205754D03*
G01X-1620548Y-1322498D03*
G01X-1610548Y1257503D03*
G01X-1607507Y-361732D03*
G01X-1607506Y-543895D03*
G01X-1593092Y1557503D03*
G01X-1590665Y-2562499D03*
G01X-1562089Y-146081D03*
G01X-1557506Y-598895D03*
G01X-1550548Y-1262498D03*
G01X-1540548Y717503D03*
G01X-1530546Y-2452497D03*
G01X-1530546Y-2052497D03*
G01X-1530546Y-1652497D03*
G01X-1530546Y347504D03*
G01X-1530546Y947505D03*
G01X-1525052Y-1840001D03*
G01X-1507506Y-543895D03*
G01X-1503211Y-62985D03*
G01X-1493092Y1557503D03*
G01X-1490665Y-2562499D03*
G01X-1462089Y-146081D03*
G01X-1457506Y-598895D03*
G01X-1455469Y-284957D03*
G01X-1437489Y-31640D03*
G01X-1437489Y22547D03*
G01X-1437489Y76733D03*
G01X-1437489Y130920D03*
G01X-1407506Y-543895D03*
G01X-1407175Y-432818D03*
G01X-1393091Y1557503D03*
G01X-1390665Y-2562499D03*
G01X-1390548Y527503D03*
G01X-1389229Y-49420D03*
G01X-1389229Y3073D03*
G01X-1389229Y55567D03*
G01X-1389229Y108060D03*
G01X-1380550Y-1441276D03*
G01X-1380550Y-1293741D03*
G01X-1380548Y-972498D03*
G01X-1364909Y-476999D03*
G01X-1362089Y-146081D03*
G01X-1357507Y-306732D03*
G01X-1357506Y-598895D03*
G01X-1330546Y-2452497D03*
G01X-1330546Y-2252497D03*
G01X-1330546Y-2052497D03*
G01X-1330546Y-252496D03*
G01X-1307507Y-361732D03*
G01X-1293091Y1557503D03*
G01X-1290665Y-2562499D03*
G01X-1262089Y-146081D03*
G01X-1260548Y187502D03*
G01X-1257507Y-306732D03*
G01X-1240547Y-992498D03*
G01X-1240545Y-701276D03*
G01X-1228947Y-1104900D03*
G01X-1212089Y-91081D03*
G01X-1207507Y-361732D03*
G01X-1207506Y-543895D03*
G01X-1193091Y1557503D03*
G01X-1190665Y-2562499D03*
G01X-1183351Y247907D03*
G01X-1170414Y559737D03*
G01X-1162089Y-146081D03*
G01X-1157507Y-306732D03*
G01X-1157506Y-598895D03*
G01X-1130546Y-2452497D03*
G01X-1130546Y-2252497D03*
G01X-1130546Y-2052497D03*
G01X-1130546Y-652496D03*
G01X-1130546Y-252496D03*
G01X-1112089Y-91081D03*
G01X-1107507Y-361732D03*
G01X-1107506Y-543895D03*
G01X-1093091Y1557503D03*
G01X-1090665Y-2562499D03*
G01X-1066669Y1314868D03*
G01X-1062089Y-146081D03*
G01X-1057507Y-306732D03*
G01X-1057506Y-598895D03*
G01X-1029709Y-1159662D03*
G01X-1012089Y-91081D03*
G01X-1007507Y-361732D03*
G01X-1007506Y-543895D03*
G01X-993091Y1557503D03*
G01X-990665Y-2562499D03*
G01X-962089Y146081D03*
G01X-962089Y-146081D03*
G01X-960697Y244788D03*
G01X-957507Y-306732D03*
G01X-930546Y-2452497D03*
G01X-930546Y-2052497D03*
G01X-930546Y-252496D03*
G01X-930546Y747504D03*
G01X-930546Y1147505D03*
G01X-912089Y91081D03*
G01X-912089Y-91081D03*
G01X-907507Y-361732D03*
G01X-893091Y1557503D03*
G01X-890665Y-2562499D03*
G01X-873771Y-837698D03*
G01X-864536Y-680071D03*
G01X-862089Y146081D03*
G01X-862089Y-146081D03*
G01X-860547Y386502D03*
G01X-857507Y-306732D03*
G01X-842105Y-2242160D03*
G01X-840547Y-1852499D03*
G01X-812089Y91081D03*
G01X-812089Y-91081D03*
G01X-810888Y320840D03*
G01X-810547Y-972498D03*
G01X-807507Y-361732D03*
G01X-793091Y1557503D03*
G01X-790665Y-2562499D03*
G01X-762089Y146081D03*
G01X-762089Y-146081D03*
G01X-757507Y-306732D03*
G01X-757506Y-598895D03*
G01X-730546Y-2452497D03*
G01X-730546Y-2052497D03*
G01X-730546Y-652496D03*
G01X-730546Y-252496D03*
G01X-730546Y347504D03*
G01X-730546Y547504D03*
G01X-730546Y747504D03*
G01X-730546Y947505D03*
G01X-730546Y1147505D03*
G01X-730546Y1347505D03*
G01X-712089Y91081D03*
G01X-712089Y-91081D03*
G01X-707507Y-361732D03*
G01X-707506Y-543895D03*
G01X-693091Y1557503D03*
G01X-690665Y-2562499D03*
G01X-662089Y146081D03*
G01X-662089Y-146081D03*
G01X-657507Y-306732D03*
G01X-657506Y-598895D03*
G01X-636596Y-244461D03*
G01X-635547Y-1252498D03*
G01X-612089Y91081D03*
G01X-607507Y-361732D03*
G01X-607506Y-543895D03*
G01X-593091Y1557503D03*
G01X-590665Y-2562499D03*
G01X-581596Y-294461D03*
G01X-581596Y-194461D03*
G01X-562089Y146081D03*
G01X-557506Y-598895D03*
G01X-530546Y-2452497D03*
G01X-530546Y-2252497D03*
G01X-530546Y-2052497D03*
G01X-530546Y-1252497D03*
G01X-530546Y-852496D03*
G01X-530546Y-652496D03*
G01X-530546Y347504D03*
G01X-530546Y747504D03*
G01X-530546Y947505D03*
G01X-530546Y1147505D03*
G01X-530546Y1347505D03*
G01X-493091Y1557503D03*
G01X-490665Y-2562499D03*
G01X-479636Y-598895D03*
G01X-479636Y-528895D03*
G01X-467773Y33350D03*
G01X-460547Y-1452498D03*
G01X-460547Y428503D03*
G01X-460547Y607503D03*
G01X-440889Y-2249160D03*
G01X-440889Y1230840D03*
G01X-424904Y-2329522D03*
G01X-424904Y1150478D03*
G01X-424903Y-2168795D03*
G01X-424903Y1311205D03*
G01X-412932Y-33020D03*
G01X-408925Y-528184D03*
G01X-408925Y-458184D03*
G01X-393091Y1557503D03*
G01X-390665Y-2562499D03*
G01X-379382Y-2397653D03*
G01X-379382Y-2100668D03*
G01X-379382Y1082348D03*
G01X-379382Y1379333D03*
G01X-338214Y-457474D03*
G01X-338214Y-387474D03*
G01X-330547Y257502D03*
G01X-330545Y-1852497D03*
G01X-330545Y-852496D03*
G01X-330545Y147504D03*
G01X-330545Y747504D03*
G01X-330545Y947505D03*
G01X-311254Y-2443174D03*
G01X-311254Y1036826D03*
G01X-311251Y-2055145D03*
G01X-311251Y1424855D03*
G01X-310547Y457503D03*
G01X-293091Y1557503D03*
G01X-290665Y-2562499D03*
G01X-290547Y-1322498D03*
G01X-267504Y-386763D03*
G01X-267504Y-316763D03*
G01X-262089Y146081D03*
G01X-230889Y-2459160D03*
G01X-230889Y-2039160D03*
G01X-230889Y1020840D03*
G01X-230889Y1440840D03*
G01X-212089Y91081D03*
G01X-212089Y-91081D03*
G01X-193091Y1557503D03*
G01X-190665Y-2562499D03*
G01X-162089Y146081D03*
G01X-162089Y246040D03*
G01X-162089Y345998D03*
G01X-162089Y445956D03*
G01X-162089Y-146081D03*
G01X-162089Y-445957D03*
G01X-162089Y-345998D03*
G01X-162089Y-246040D03*
G01X-150527Y-2443175D03*
G01X-150527Y1036825D03*
G01X-150524Y-2055146D03*
G01X-150524Y1424854D03*
G01X-140547Y-1382498D03*
G01X-130545Y-1852497D03*
G01X-130545Y-1052496D03*
G01X-130545Y-852496D03*
G01X-130545Y-652496D03*
G01X-130545Y547504D03*
G01X-130545Y747504D03*
G01X-130545Y947505D03*
G01X-112089Y91081D03*
G01X-112089Y-91081D03*
G01X-102560Y1534643D03*
G01X-100547Y-1322498D03*
G01X-82397Y-2397653D03*
G01X-82397Y-2100668D03*
G01X-82397Y1082348D03*
G01X-82397Y1379333D03*
G01X-62089Y146081D03*
G01X-62089Y246040D03*
G01X-62089Y345998D03*
G01X-62089Y445956D03*
G01X-62089Y-445957D03*
G01X-62089Y-345998D03*
G01X-62089Y-246040D03*
G01X-62089Y-146081D03*
G01X-60664Y-2522499D03*
G01X-36875Y-2329525D03*
G01X-36875Y1150475D03*
G01X-36874Y-2168798D03*
G01X-36874Y1311202D03*
G01X-20889Y-2249160D03*
G01X-20889Y1230840D03*
G01X-12089Y91081D03*
G01X-12089Y-91081D03*
G01X-10547Y1487503D03*
G01X29336Y-2462499D03*
G01X37911Y246040D03*
G01X37911Y345998D03*
G01X37911Y445956D03*
G01X37911Y146081D03*
G01X37911Y-445957D03*
G01X37911Y-345998D03*
G01X37911Y-246040D03*
G01X37911Y-146081D03*
G01X49453Y1397503D03*
G01X76475Y-2370486D03*
G01X87911Y91081D03*
G01X87911Y-91081D03*
G01X89453Y-2242499D03*
G01X89453Y-2132499D03*
G01X89453Y-2032499D03*
G01X89453Y-1932499D03*
G01X89453Y-1832499D03*
G01X89453Y-1732499D03*
G01X89453Y-1632499D03*
G01X89453Y-1532499D03*
G01X89453Y-1432499D03*
G01X89453Y-1332498D03*
G01X89453Y-1232498D03*
G01X89453Y-1132498D03*
G01X89453Y-1032498D03*
G01X89453Y-932498D03*
G01X89453Y-832498D03*
G01X89453Y-732498D03*
G01X89453Y-632498D03*
G01X89453Y-532498D03*
G01X89453Y-432498D03*
G01X89453Y-332498D03*
G01X89453Y-232498D03*
G01X89453Y167502D03*
G01X89453Y267502D03*
G01X89453Y367502D03*
G01X89453Y467502D03*
G01X89453Y567503D03*
G01X89453Y667503D03*
G01X89453Y767503D03*
G01X89453Y867503D03*
G01X89453Y967503D03*
G01X89453Y1067503D03*
G01X89453Y1167503D03*
G01X89453Y1267503D03*
G04 Drill Drawing End*

M02*

