G04 Layer: TopSolderMaskLayer*
G04 EasyEDA Pro v2.2.27.1, 2024-09-01 09:43:49*
G04 Gerber Generator version 0.3*
G04 Scale: 100 percent, Rotated: No, Reflected: No*
G04 Dimensions in millimeters*
G04 Leading zeros omitted, absolute positions, 3 integers and 5 decimals*
%FSLAX35Y35*%
%MOMM*%
%AMRoundRect*1,1,$1,$2,$3*1,1,$1,$4,$5*1,1,$1,0-$2,0-$3*1,1,$1,0-$4,0-$5*20,1,$1,$2,$3,$4,$5,0*20,1,$1,$4,$5,0-$2,0-$3,0*20,1,$1,0-$2,0-$3,0-$4,0-$5,0*20,1,$1,0-$4,0-$5,$2,$3,0*4,1,4,$2,$3,$4,$5,0-$2,0-$3,0-$4,0-$5,$2,$3,0*%
%ADD10C,0.3*%
%ADD11C,3.0*%
%ADD12C,0.3424*%
%ADD13C,1.4*%
%ADD14RoundRect,0.09336X0.50432X1.50432X0.50432X-1.50432*%
%ADD15C,5.302*%
%ADD16RoundRect,0.09302X-1.60429X0.50429X1.60429X0.50429*%
%ADD17RoundRect,0.09131X-0.40514X0.45514X0.40514X0.45514*%
%ADD18RoundRect,0.0909X-0.45514X-0.40514X-0.45514X0.40514*%
%ADD19RoundRect,0.09131X-0.45514X-0.40514X-0.45514X0.40514*%
%ADD20RoundRect,0.09138X0.43712X0.40835X0.43712X-0.40835*%
%ADD21RoundRect,0.09137X0.43712X0.40811X0.43712X-0.40811*%
%ADD22RoundRect,0.09164X-0.40518X-0.40518X-0.40518X0.40518*%
%ADD23RoundRect,0.0882X-0.28191X0.6069X0.28191X0.6069*%
%ADD24RoundRect,0.08295X-0.18053X0.60953X0.18053X0.60953*%
%ADD25RoundRect,0.08906X0.30647X-0.55647X-0.30647X-0.55647*%
%ADD26RoundRect,0.08295X0.18053X-0.55953X-0.18053X-0.55953*%
%ADD27RoundRect,0.08906X0.30647X-0.35647X-0.30647X-0.35647*%
%ADD28RoundRect,0.09302X0.50429X-0.50429X-0.50429X-0.50429*%
%ADD29RoundRect,0.08109X0.26426X-0.16026X-0.26426X-0.16026*%
%ADD30RoundRect,0.08267X0.26347X-0.18047X-0.26347X-0.18047*%
%ADD31RoundRect,0.08267X0.18047X-0.26347X-0.18047X-0.26347*%
%ADD32RoundRect,0.08109X0.16026X-0.26426X-0.16026X-0.26426*%
%ADD33RoundRect,0.08109X0.34526X-0.16026X-0.34526X-0.16026*%
%ADD34RoundRect,0.08267X0.34447X-0.18047X-0.34447X-0.18047*%
%ADD35RoundRect,0.09131X-0.40514X0.80514X0.40514X0.80514*%
%ADD36R,0.85X0.3*%
%ADD37C,1.1*%
%ADD38RoundRect,0.08267X0.18047X0.4127X0.18047X-0.4127*%
%ADD39RoundRect,0.08267X0.18047X0.41247X0.18047X-0.41247*%
%ADD40RoundRect,0.08109X-0.16026X0.18126X0.16026X0.18126*%
%ADD41RoundRect,0.08267X-0.30947X0.18047X0.30947X0.18047*%
%ADD42RoundRect,0.08875X0.30643X0.30643X0.30643X-0.30643*%
%ADD43RoundRect,0.08109X0.16026X0.16026X0.16026X-0.16026*%
%ADD44RoundRect,0.08875X-0.30643X-0.30643X-0.30643X0.30643*%
%ADD45RoundRect,0.08875X0.30643X-0.30643X-0.30643X-0.30643*%
%ADD46RoundRect,0.08109X-0.18126X-0.16026X-0.18126X0.16026*%
%ADD47RoundRect,0.08692X-0.25734X-0.25734X-0.25734X0.25734*%
%ADD48RoundRect,0.09131X0.40515X0.40514X0.40515X-0.40514*%
%ADD49RoundRect,0.08267X0.20947X0.18047X0.20947X-0.18047*%
%ADD50RoundRect,0.08267X-0.18047X-0.18047X-0.18047X0.18047*%
%ADD51RoundRect,0.08267X-0.18047X-0.30947X-0.18047X0.30947*%
%ADD52RoundRect,0.08875X-0.30643X0.30643X0.30643X0.30643*%
%ADD53RoundRect,0.08109X-0.16026X0.16026X0.16026X0.16026*%
%ADD54RoundRect,0.076X-0.1628X-0.1128X-0.1628X0.1128*%
%ADD55RoundRect,0.07778X-0.13612X-0.27161X-0.13612X0.27161*%
%ADD56RoundRect,0.08155X-0.18023X-0.26973X-0.18023X0.26973*%
%ADD57RoundRect,0.09091X-0.80454X-0.45454X-0.80454X0.45454*%
%ADD58RoundRect,0.08109X-0.16026X-0.16026X-0.16026X0.16026*%
%ADD59RoundRect,0.09131X0.40514X-0.45514X-0.40514X-0.45514*%
%ADD60RoundRect,0.08449X0.40856X-0.20856X-0.40856X-0.20856*%
%ADD61RoundRect,0.07143X-0.27479X0.08929X0.27479X0.08929*%
%ADD62RoundRect,0.08155X-0.26973X0.18023X0.26973X0.18023*%
%ADD63RoundRect,0.07778X-0.27161X0.13612X0.27161X0.13612*%
%ADD64RoundRect,0.09091X-0.45454X0.80454X0.45454X0.80454*%
G75*


G04 Image Start*
G36*
G01X-3835053Y-1330412D02*
G01X-3835053Y-1330824D01*
G01X-3809340Y-1375281D01*
G01X-3783626Y-1419739D01*
G01X-3767494Y-1447711D01*
G01X-3751362Y-1475683D01*
G01X-3650089Y-1475683D01*
G01X-3548816Y-1475683D01*
G01X-3472221Y-1608350D01*
G01X-3395626Y-1741017D01*
G01X-3395339Y-1741007D01*
G01X-3395053Y-1740997D01*
G01X-3332273Y-1632202D01*
G01X-3269492Y-1523407D01*
G01X-3255781Y-1499567D01*
G01X-3242069Y-1475727D01*
G01X-3140274Y-1475591D01*
G01X-3038480Y-1475455D01*
G01X-3023198Y-1448967D01*
G01X-3007916Y-1422479D01*
G01X-2981484Y-1376714D01*
G01X-2955053Y-1330948D01*
G01X-2955053Y-1330474D01*
G01X-2955053Y-1330001D01*
G01X-3395053Y-1330001D01*
G01X-3835053Y-1330001D01*
G01X-3835053Y-1330412D01*
G37*
G36*
G01X-3702162Y-1560397D02*
G01X-3702162Y-1560627D01*
G01X-3549366Y-1825389D01*
G01X-3396569Y-2090152D01*
G01X-3395796Y-2091395D01*
G01X-3395023Y-2092637D01*
G01X-3358530Y-2029514D01*
G01X-3322036Y-1966391D01*
G01X-3288270Y-1907935D01*
G01X-3254503Y-1849480D01*
G01X-3171633Y-1705852D01*
G01X-3088764Y-1562225D01*
G01X-3088115Y-1561197D01*
G01X-3087465Y-1560170D01*
G01X-3151794Y-1560170D01*
G01X-3216122Y-1560170D01*
G01X-3305290Y-1715785D01*
G01X-3394458Y-1871400D01*
G01X-3394797Y-1871762D01*
G01X-3395136Y-1872123D01*
G01X-3484424Y-1716260D01*
G01X-3573712Y-1560398D01*
G01X-3637937Y-1560282D01*
G01X-3702162Y-1560167D01*
G01X-3702162Y-1560397D01*
G37*
G04 Image End*

G04 Text Start*
G36*
G01X-3092860Y-1060790D02*
G01X-3108996Y-1061131D01*
G01X-3132178Y-1060677D01*
G01X-3134905Y-1059313D01*
G01X-3138087Y-1056131D01*
G01X-3140814Y-1052495D01*
G01X-3143087Y-1050222D01*
G01X-3147633Y-1044768D01*
G01X-3150814Y-1041586D01*
G01X-3153542Y-1037949D01*
G01X-3155814Y-1035677D01*
G01X-3160360Y-1030222D01*
G01X-3163542Y-1027040D01*
G01X-3166269Y-1023404D01*
G01X-3168542Y-1021131D01*
G01X-3173996Y-1014767D01*
G01X-3177178Y-1011585D01*
G01X-3179905Y-1007949D01*
G01X-3182178Y-1005676D01*
G01X-3186724Y-1000222D01*
G01X-3189905Y-997040D01*
G01X-3192633Y-993404D01*
G01X-3194905Y-991131D01*
G01X-3200360Y-984767D01*
G01X-3202633Y-982495D01*
G01X-3195019Y-981472D01*
G01X-3170360Y-981131D01*
G01X-3137178Y-981131D01*
G01X-3137178Y-950222D01*
G01X-3208996Y-950222D01*
G01X-3208996Y-1061131D01*
G01X-3248996Y-1061131D01*
G01X-3248996Y-931131D01*
G01X-3098087Y-931131D01*
G01X-3098087Y-1000222D01*
G01X-3117178Y-1000222D01*
G01X-3137633Y-1000676D01*
G01X-3138315Y-1001472D01*
G01X-3137633Y-1002949D01*
G01X-3135360Y-1006131D01*
G01X-3133087Y-1008404D01*
G01X-3127633Y-1014767D01*
G01X-3124451Y-1017949D01*
G01X-3121723Y-1021586D01*
G01X-3119451Y-1023858D01*
G01X-3114905Y-1029313D01*
G01X-3111724Y-1032495D01*
G01X-3108996Y-1036131D01*
G01X-3106724Y-1038404D01*
G01X-3102178Y-1043858D01*
G01X-3098996Y-1047040D01*
G01X-3096269Y-1050677D01*
G01X-3093996Y-1052949D01*
G01X-3090360Y-1057495D01*
G01X-3088087Y-1059768D01*
G01X-3092860Y-1060790D01*
G37*
G36*
G01X-3902633Y-1061131D02*
G01X-3941723Y-1061131D01*
G01X-3941723Y-972949D01*
G01X-3902633Y-972949D01*
G01X-3902178Y-996131D01*
G01X-3868996Y-996586D01*
G01X-3836269Y-996586D01*
G01X-3836269Y-950222D01*
G01X-3902633Y-950222D01*
G01X-3902633Y-972949D01*
G01X-3902633Y-972949D01*
G01X-3941723Y-972949D01*
G01X-3941723Y-931131D01*
G01X-3797178Y-931131D01*
G01X-3797178Y-1015676D01*
G01X-3902633Y-1015676D01*
G01X-3902633Y-1061131D01*
G37*
G36*
G01X-3271269Y-1056586D02*
G01X-3268996Y-1059313D01*
G01X-3268087Y-1061131D01*
G01X-3413542Y-1061131D01*
G01X-3413542Y-931131D01*
G01X-3266269Y-931131D01*
G01X-3268087Y-932949D01*
G01X-3270814Y-936131D01*
G01X-3273087Y-938404D01*
G01X-3281269Y-947949D01*
G01X-3282632Y-950222D01*
G01X-3373542Y-950222D01*
G01X-3373542Y-986586D01*
G01X-3275360Y-986586D01*
G01X-3275360Y-1005676D01*
G01X-3373542Y-1005676D01*
G01X-3373542Y-1042040D01*
G01X-3330360Y-1042040D01*
G01X-3284905Y-1042495D01*
G01X-3282974Y-1043290D01*
G01X-3279451Y-1047495D01*
G01X-3276269Y-1050677D01*
G01X-3273542Y-1054313D01*
G01X-3271269Y-1056586D01*
G37*
G36*
G01X-3624451Y-1061131D02*
G01X-3683087Y-1061131D01*
G01X-3742633Y-1060222D01*
G01X-3745360Y-1057040D01*
G01X-3748087Y-1053404D01*
G01X-3752633Y-1048858D01*
G01X-3756269Y-1044313D01*
G01X-3758542Y-1042040D01*
G01X-3763087Y-1036586D01*
G01X-3766269Y-1033404D01*
G01X-3768996Y-1029767D01*
G01X-3771269Y-1027495D01*
G01X-3772292Y-1014881D01*
G01X-3772633Y-978858D01*
G01X-3772633Y-950222D01*
G01X-3733542Y-950222D01*
G01X-3733542Y-982495D01*
G01X-3733087Y-1016131D01*
G01X-3731723Y-1019313D01*
G01X-3729451Y-1022040D01*
G01X-3726269Y-1025222D01*
G01X-3723541Y-1028858D01*
G01X-3718996Y-1033404D01*
G01X-3715360Y-1037949D01*
G01X-3713087Y-1040222D01*
G01X-3713087Y-1040222D01*
G01X-3711269Y-1041586D01*
G01X-3687178Y-1042040D01*
G01X-3663542Y-1042040D01*
G01X-3663542Y-950222D01*
G01X-3733542Y-950222D01*
G01X-3772633Y-950222D01*
G01X-3772633Y-931131D01*
G01X-3624451Y-931131D01*
G01X-3624451Y-1061131D01*
G37*
G36*
G01X-3438087Y-996131D02*
G01X-3438314Y-1044768D01*
G01X-3438996Y-1060677D01*
G01X-3442178Y-1058858D01*
G01X-3450360Y-1053404D01*
G01X-3457633Y-1048858D01*
G01X-3465814Y-1043404D01*
G01X-3470360Y-1040677D01*
G01X-3482633Y-1032495D01*
G01X-3489905Y-1027949D01*
G01X-3498087Y-1022495D01*
G01X-3505360Y-1017949D01*
G01X-3513542Y-1012495D01*
G01X-3517178Y-1010222D01*
G01X-3520360Y-1010222D01*
G01X-3523996Y-1012495D01*
G01X-3528087Y-1015222D01*
G01X-3535360Y-1019767D01*
G01X-3543542Y-1025222D01*
G01X-3550814Y-1029767D01*
G01X-3563087Y-1037949D01*
G01X-3570360Y-1042495D01*
G01X-3578541Y-1047949D01*
G01X-3583087Y-1050677D01*
G01X-3595360Y-1058858D01*
G01X-3598542Y-1060677D01*
G01X-3599564Y-1044768D01*
G01X-3599905Y-996131D01*
G01X-3599905Y-931131D01*
G01X-3560814Y-931131D01*
G01X-3560814Y-966586D01*
G01X-3560360Y-1003404D01*
G01X-3559564Y-1004086D01*
G01X-3558087Y-1003404D01*
G01X-3553996Y-1000676D01*
G01X-3549451Y-997949D01*
G01X-3545360Y-995222D01*
G01X-3530814Y-986131D01*
G01X-3526723Y-983404D01*
G01X-3523087Y-981131D01*
G01X-3518087Y-981131D01*
G01X-3512633Y-982949D01*
G01X-3501724Y-989767D01*
G01X-3497633Y-992495D01*
G01X-3490360Y-997040D01*
G01X-3485814Y-999767D01*
G01X-3481724Y-1002495D01*
G01X-3478542Y-1004313D01*
G01X-3477519Y-995449D01*
G01X-3477178Y-967949D01*
G01X-3477178Y-931131D01*
G01X-3438087Y-931131D01*
G01X-3438087Y-996131D01*
G37*
G36*
G01X-2906003Y-2320681D02*
G01X-2906003Y-2376135D01*
G01X-2866003Y-2376135D01*
G01X-2866003Y-2265226D01*
G01X-2841912Y-2265226D01*
G01X-2823617Y-2264885D01*
G01X-2816912Y-2263863D01*
G01X-2813276Y-2259317D01*
G01X-2811003Y-2257045D01*
G01X-2806458Y-2251590D01*
G01X-2803730Y-2248408D01*
G01X-2802367Y-2246135D01*
G01X-2969639Y-2246135D01*
G01X-2969185Y-2247954D01*
G01X-2967367Y-2250681D01*
G01X-2965094Y-2252954D01*
G01X-2962367Y-2256590D01*
G01X-2959185Y-2259772D01*
G01X-2957367Y-2262044D01*
G01X-2955094Y-2264317D01*
G01X-2929640Y-2265226D01*
G01X-2906003Y-2265226D01*
G01X-2906003Y-2320681D01*
G37*
G36*
G01X-2794640Y-2375681D02*
G01X-2789980Y-2376703D01*
G01X-2773276Y-2377044D01*
G01X-2756003Y-2376703D01*
G01X-2749639Y-2375681D01*
G01X-2747367Y-2373408D01*
G01X-2741912Y-2367044D01*
G01X-2739639Y-2364772D01*
G01X-2736003Y-2360226D01*
G01X-2731458Y-2355681D01*
G01X-2728730Y-2352044D01*
G01X-2725549Y-2348862D01*
G01X-2721003Y-2343408D01*
G01X-2718730Y-2341135D01*
G01X-2716003Y-2339317D01*
G01X-2714299Y-2339544D01*
G01X-2712821Y-2341135D01*
G01X-2710094Y-2344317D01*
G01X-2707821Y-2346590D01*
G01X-2705094Y-2350226D01*
G01X-2701912Y-2353408D01*
G01X-2696458Y-2359772D01*
G01X-2694185Y-2362044D01*
G01X-2690549Y-2366590D01*
G01X-2688276Y-2368862D01*
G01X-2682821Y-2375226D01*
G01X-2680094Y-2376590D01*
G01X-2657367Y-2377044D01*
G01X-2636003Y-2377044D01*
G01X-2637367Y-2374772D01*
G01X-2640094Y-2371590D01*
G01X-2644640Y-2367044D01*
G01X-2648276Y-2362499D01*
G01X-2650549Y-2360226D01*
G01X-2654185Y-2355681D01*
G01X-2658731Y-2351135D01*
G01X-2662367Y-2346590D01*
G01X-2666912Y-2342044D01*
G01X-2669640Y-2338408D01*
G01X-2672821Y-2335226D01*
G01X-2678276Y-2328862D01*
G01X-2682821Y-2324317D01*
G01X-2686458Y-2319772D01*
G01X-2688730Y-2317499D01*
G01X-2690549Y-2315226D01*
G01X-2691912Y-2312499D01*
G01X-2691912Y-2310908D01*
G01X-2691003Y-2309772D01*
G01X-2688730Y-2307499D01*
G01X-2685094Y-2302953D01*
G01X-2682821Y-2300681D01*
G01X-2677367Y-2294317D01*
G01X-2675094Y-2292044D01*
G01X-2672367Y-2288408D01*
G01X-2669185Y-2285226D01*
G01X-2663731Y-2278863D01*
G01X-2661458Y-2276590D01*
G01X-2658731Y-2272954D01*
G01X-2655549Y-2269772D01*
G01X-2650094Y-2263408D01*
G01X-2647821Y-2261135D01*
G01X-2645094Y-2257499D01*
G01X-2641912Y-2254317D01*
G01X-2635776Y-2247158D01*
G01X-2636458Y-2246590D01*
G01X-2659185Y-2246135D01*
G01X-2675435Y-2246476D01*
G01X-2681458Y-2247499D01*
G01X-2683730Y-2249772D01*
G01X-2687367Y-2254317D01*
G01X-2689640Y-2256590D01*
G01X-2693276Y-2261135D01*
G01X-2695549Y-2263408D01*
G01X-2701003Y-2269772D01*
G01X-2703276Y-2272044D01*
G01X-2706912Y-2276590D01*
G01X-2709185Y-2278863D01*
G01X-2711912Y-2282044D01*
G01X-2715094Y-2285226D01*
G01X-2716571Y-2285567D01*
G01X-2717367Y-2284772D01*
G01X-2719185Y-2282499D01*
G01X-2721458Y-2280226D01*
G01X-2725094Y-2275681D01*
G01X-2729639Y-2271135D01*
G01X-2732367Y-2267499D01*
G01X-2735549Y-2264317D01*
G01X-2740094Y-2258863D01*
G01X-2742367Y-2256590D01*
G01X-2746003Y-2252045D01*
G01X-2750549Y-2247499D01*
G01X-2756912Y-2246476D01*
G01X-2774185Y-2246135D01*
G01X-2791003Y-2246476D01*
G01X-2796003Y-2247499D01*
G01X-2793731Y-2249772D01*
G01X-2788276Y-2256135D01*
G01X-2786003Y-2258408D01*
G01X-2782367Y-2262954D01*
G01X-2780094Y-2265226D01*
G01X-2774640Y-2271590D01*
G01X-2772367Y-2273863D01*
G01X-2769640Y-2277499D01*
G01X-2766458Y-2280681D01*
G01X-2761912Y-2286135D01*
G01X-2759640Y-2288408D01*
G01X-2756912Y-2292044D01*
G01X-2753730Y-2295226D01*
G01X-2749185Y-2300681D01*
G01X-2746912Y-2302953D01*
G01X-2744185Y-2306590D01*
G01X-2741003Y-2309772D01*
G01X-2739639Y-2312499D01*
G01X-2741003Y-2315226D01*
G01X-2745548Y-2319772D01*
G01X-2749185Y-2324317D01*
G01X-2751458Y-2326590D01*
G01X-2754185Y-2330226D01*
G01X-2757367Y-2333408D01*
G01X-2762821Y-2339772D01*
G01X-2765094Y-2342044D01*
G01X-2768730Y-2346590D01*
G01X-2771003Y-2348862D01*
G01X-2776458Y-2355226D01*
G01X-2778731Y-2357499D01*
G01X-2782367Y-2362044D01*
G01X-2784640Y-2364317D01*
G01X-2790094Y-2370681D01*
G01X-2792367Y-2372953D01*
G01X-2794640Y-2375681D01*
G37*
G36*
G01X-2332794Y-2375681D02*
G01X-2328135Y-2376703D01*
G01X-2311431Y-2377044D01*
G01X-2294158Y-2376703D01*
G01X-2287795Y-2375681D01*
G01X-2285522Y-2373408D01*
G01X-2280067Y-2367044D01*
G01X-2277795Y-2364772D01*
G01X-2274158Y-2360226D01*
G01X-2269613Y-2355681D01*
G01X-2266885Y-2352044D01*
G01X-2263704Y-2348862D01*
G01X-2259158Y-2343408D01*
G01X-2256886Y-2341135D01*
G01X-2254158Y-2339317D01*
G01X-2252453Y-2339544D01*
G01X-2250976Y-2341135D01*
G01X-2248249Y-2344317D01*
G01X-2245976Y-2346590D01*
G01X-2243249Y-2350226D01*
G01X-2240067Y-2353408D01*
G01X-2234613Y-2359772D01*
G01X-2232340Y-2362044D01*
G01X-2228704Y-2366590D01*
G01X-2226431Y-2368862D01*
G01X-2220976Y-2375226D01*
G01X-2218249Y-2376590D01*
G01X-2195522Y-2377044D01*
G01X-2174158Y-2377044D01*
G01X-2175522Y-2374772D01*
G01X-2178249Y-2371590D01*
G01X-2182794Y-2367044D01*
G01X-2186431Y-2362499D01*
G01X-2188704Y-2360226D01*
G01X-2192340Y-2355681D01*
G01X-2196885Y-2351135D01*
G01X-2200522Y-2346590D01*
G01X-2205067Y-2342044D01*
G01X-2207794Y-2338408D01*
G01X-2210976Y-2335226D01*
G01X-2216431Y-2328862D01*
G01X-2220976Y-2324317D01*
G01X-2224613Y-2319772D01*
G01X-2226885Y-2317499D01*
G01X-2228704Y-2315226D01*
G01X-2230067Y-2312499D01*
G01X-2230067Y-2310908D01*
G01X-2229158Y-2309772D01*
G01X-2226885Y-2307499D01*
G01X-2223249Y-2302953D01*
G01X-2220976Y-2300681D01*
G01X-2215522Y-2294317D01*
G01X-2213249Y-2292044D01*
G01X-2210522Y-2288408D01*
G01X-2207340Y-2285226D01*
G01X-2201885Y-2278863D01*
G01X-2199613Y-2276590D01*
G01X-2196885Y-2272954D01*
G01X-2193704Y-2269772D01*
G01X-2188249Y-2263408D01*
G01X-2185976Y-2261135D01*
G01X-2183249Y-2257499D01*
G01X-2180067Y-2254317D01*
G01X-2173931Y-2247158D01*
G01X-2174613Y-2246590D01*
G01X-2197340Y-2246135D01*
G01X-2213590Y-2246476D01*
G01X-2219613Y-2247499D01*
G01X-2221885Y-2249772D01*
G01X-2225522Y-2254317D01*
G01X-2227794Y-2256590D01*
G01X-2231431Y-2261135D01*
G01X-2233704Y-2263408D01*
G01X-2239158Y-2269772D01*
G01X-2241431Y-2272044D01*
G01X-2245067Y-2276590D01*
G01X-2247340Y-2278863D01*
G01X-2250067Y-2282044D01*
G01X-2253249Y-2285226D01*
G01X-2254726Y-2285567D01*
G01X-2255522Y-2284772D01*
G01X-2257340Y-2282499D01*
G01X-2259613Y-2280226D01*
G01X-2263249Y-2275681D01*
G01X-2267795Y-2271135D01*
G01X-2270522Y-2267499D01*
G01X-2273704Y-2264317D01*
G01X-2278249Y-2258863D01*
G01X-2280522Y-2256590D01*
G01X-2284158Y-2252045D01*
G01X-2288704Y-2247499D01*
G01X-2295067Y-2246476D01*
G01X-2312340Y-2246135D01*
G01X-2329158Y-2246476D01*
G01X-2334158Y-2247499D01*
G01X-2331885Y-2249772D01*
G01X-2326431Y-2256135D01*
G01X-2324158Y-2258408D01*
G01X-2320522Y-2262954D01*
G01X-2318249Y-2265226D01*
G01X-2312794Y-2271590D01*
G01X-2310522Y-2273863D01*
G01X-2307794Y-2277499D01*
G01X-2304613Y-2280681D01*
G01X-2300067Y-2286135D01*
G01X-2297794Y-2288408D01*
G01X-2295067Y-2292044D01*
G01X-2291885Y-2295226D01*
G01X-2287340Y-2300681D01*
G01X-2285067Y-2302953D01*
G01X-2282340Y-2306590D01*
G01X-2279158Y-2309772D01*
G01X-2277795Y-2312499D01*
G01X-2279158Y-2315226D01*
G01X-2283704Y-2319772D01*
G01X-2287340Y-2324317D01*
G01X-2289613Y-2326590D01*
G01X-2292340Y-2330226D01*
G01X-2295522Y-2333408D01*
G01X-2300976Y-2339772D01*
G01X-2303249Y-2342044D01*
G01X-2306885Y-2346590D01*
G01X-2309158Y-2348862D01*
G01X-2314613Y-2355226D01*
G01X-2316885Y-2357499D01*
G01X-2320522Y-2362044D01*
G01X-2322794Y-2364317D01*
G01X-2328249Y-2370681D01*
G01X-2330522Y-2372953D01*
G01X-2332794Y-2375681D01*
G37*
G36*
G01X-2502340Y-2311135D02*
G01X-2502340Y-2376135D01*
G01X-2462340Y-2376135D01*
G01X-2462340Y-2265226D01*
G01X-2390522Y-2265226D01*
G01X-2390522Y-2296135D01*
G01X-2423704Y-2296135D01*
G01X-2448363Y-2296476D01*
G01X-2455976Y-2297499D01*
G01X-2453703Y-2299772D01*
G01X-2450067Y-2304317D01*
G01X-2447794Y-2306590D01*
G01X-2445067Y-2310226D01*
G01X-2441885Y-2313408D01*
G01X-2437340Y-2318863D01*
G01X-2435067Y-2321135D01*
G01X-2432340Y-2324772D01*
G01X-2429158Y-2327953D01*
G01X-2424613Y-2333408D01*
G01X-2422340Y-2335681D01*
G01X-2419613Y-2339317D01*
G01X-2416431Y-2342499D01*
G01X-2411885Y-2347953D01*
G01X-2409613Y-2350226D01*
G01X-2406885Y-2353862D01*
G01X-2403704Y-2357044D01*
G01X-2399158Y-2362499D01*
G01X-2396885Y-2364772D01*
G01X-2394158Y-2368408D01*
G01X-2390976Y-2371590D01*
G01X-2388704Y-2374317D01*
G01X-2382113Y-2375681D01*
G01X-2364158Y-2376135D01*
G01X-2346658Y-2375794D01*
G01X-2341431Y-2374772D01*
G01X-2343703Y-2372499D01*
G01X-2349158Y-2366135D01*
G01X-2351431Y-2363862D01*
G01X-2355067Y-2359317D01*
G01X-2357340Y-2357044D01*
G01X-2362794Y-2350681D01*
G01X-2365067Y-2348408D01*
G01X-2367794Y-2344772D01*
G01X-2370976Y-2341590D01*
G01X-2375522Y-2336135D01*
G01X-2377794Y-2333862D01*
G01X-2380522Y-2330226D01*
G01X-2383704Y-2327044D01*
G01X-2388249Y-2321590D01*
G01X-2390522Y-2319317D01*
G01X-2391885Y-2316590D01*
G01X-2387226Y-2315567D01*
G01X-2372340Y-2315226D01*
G01X-2352340Y-2315226D01*
G01X-2352340Y-2246135D01*
G01X-2502340Y-2246135D01*
G01X-2502340Y-2311135D01*
G37*
G36*
G01X-1735548Y-2370681D02*
G01X-1738275Y-2373863D01*
G01X-1739639Y-2376135D01*
G01X-1871457Y-2376135D01*
G01X-1871457Y-2246135D01*
G01X-1797821Y-2246135D01*
G01X-1742821Y-2246476D01*
G01X-1725093Y-2247499D01*
G01X-1727366Y-2249772D01*
G01X-1732821Y-2256135D01*
G01X-1737366Y-2261590D01*
G01X-1739639Y-2263863D01*
G01X-1751571Y-2264885D01*
G01X-1785548Y-2265226D01*
G01X-1830548Y-2265226D01*
G01X-1830548Y-2357044D01*
G01X-1724184Y-2357044D01*
G01X-1725093Y-2358862D01*
G01X-1727366Y-2361590D01*
G01X-1730548Y-2364772D01*
G01X-1733275Y-2368408D01*
G01X-1735548Y-2370681D01*
G37*
G36*
G01X-1906912Y-2296135D02*
G01X-1895093Y-2296135D01*
G01X-1895093Y-2376135D01*
G01X-2038730Y-2376135D01*
G01X-2038730Y-2315226D01*
G01X-1999639Y-2315226D01*
G01X-1999639Y-2335681D01*
G01X-1999184Y-2356590D01*
G01X-1966911Y-2357044D01*
G01X-1966911Y-2357044D01*
G01X-1935093Y-2357044D01*
G01X-1935093Y-2315226D01*
G01X-1999639Y-2315226D01*
G01X-2038730Y-2315226D01*
G01X-2038730Y-2280226D01*
G01X-1999639Y-2280226D01*
G01X-1999184Y-2295681D01*
G01X-1966911Y-2296135D01*
G01X-1935093Y-2296135D01*
G01X-1935093Y-2265226D01*
G01X-1999639Y-2265226D01*
G01X-1999639Y-2280226D01*
G01X-1999639Y-2280226D01*
G01X-2038730Y-2280226D01*
G01X-2038730Y-2246135D01*
G01X-1906912Y-2246135D01*
G01X-1906912Y-2296135D01*
G37*
G04 Text End*

G04 PolygonModel Start*
G54D10*
G01X-2453724Y-297D02*
G01X-2453427Y0D01*
G01X-633786Y-406D02*
G01X-633380Y0D01*
G54D11*
G01X-4120889Y-2159160D02*
G03X-3620889Y-2659160I500000J0D01*
G01X-3620889Y-2659160D02*
G01X-320889Y-2659160D01*
G01X-320889Y-2659160D02*
G03X179111Y-2159160I0J500000D01*
G01X179111Y1140840D02*
G03X-320889Y1640840I-500000J0D01*
G01X-3620889Y1640840D02*
G03X-4120889Y1140840I0J-500000D01*
G01X179111Y-2159160D02*
G01X179111Y-823491D01*
G01X-285831Y1640840D02*
G01X-3585831Y1640840D01*
G54D10*
G01X-2264831Y-452198D02*
G01X-2264531Y-452498D01*
G54D12*
G01X-544886Y-406D02*
G01X-544480Y0D01*
G01X-2453724Y-297D02*
G01X-2453427Y0D01*
G54D13*
G01X-2555124Y-322D02*
G01X-3466546Y-322D01*
G01X-2300548Y-402498D02*
G01X-2300548Y-214604D01*
G01X-491576Y-200681D02*
G01X-491576Y-406660D01*
G01X-1624361Y-406D02*
G01X-2138169Y-406D01*
G01X-661570Y0D02*
G01X-1201879Y0D01*
G54D12*
G01X-3432485Y-322D02*
G01X-4085329Y-322D01*
G01X-338697Y0D02*
G01X129112Y0D01*
G54D13*
G01X-1600228Y-452498D02*
G01X-2322716Y-452498D01*
G36*
G01X-481667Y-429362D02*
G01X-322240Y-385477D01*
G01X-322240Y-475928D01*
G01X-467298Y-620921D01*
G01X-481667Y-620921D01*
G01X-481667Y-429362D01*
G37*
G36*
G01X-322240Y-475928D02*
G01X-300552Y-454240D01*
G01X-300552Y-450498D01*
G01X-321552Y-450498D01*
G01X-322552Y-451498D01*
G01X-322552Y-475928D01*
G01X-322240Y-475928D01*
G37*
G36*
G01X-2310363Y-460014D02*
G01X-2469790Y-416130D01*
G01X-2469790Y-476022D01*
G01X-2324732Y-621014D01*
G01X-2310363Y-621014D01*
G01X-2310363Y-460014D01*
G37*
G36*
G01X-2469790Y-476022D02*
G01X-2491478Y-454334D01*
G01X-2491478Y-450591D01*
G01X-2470478Y-450591D01*
G01X-2469478Y-451591D01*
G01X-2469478Y-476022D01*
G01X-2469790Y-476022D01*
G37*
G36*
G01X-2243517Y-435398D02*
G01X-2243517Y-469353D01*
G01X-2277354Y-469353D01*
G01X-2317354Y-429353D01*
G01X-2317548Y-429353D01*
G01X-2317548Y-384770D01*
G01X-2284132Y-384770D01*
G01X-2283548Y-385354D01*
G01X-2283548Y-435398D01*
G01X-2243517Y-435398D01*
G37*
G36*
G01X-508507Y-395467D02*
G01X-474552Y-395467D01*
G01X-474552Y-429304D01*
G01X-514552Y-469304D01*
G01X-514552Y-469498D01*
G01X-559135Y-469498D01*
G01X-559135Y-436082D01*
G01X-558552Y-435498D01*
G01X-508507Y-435498D01*
G01X-508507Y-395467D01*
G37*
G36*
G01X-1630840Y-620921D02*
G01X-2313347Y-620921D01*
G01X-2313347Y-520489D01*
G01X-2270594Y-520489D01*
G01X-2270594Y-383843D01*
G01X-2148779Y-383843D01*
G01X-2148779Y-286114D01*
G01X-1630840Y-286114D01*
G01X-1630840Y-620921D01*
G37*
G36*
G01X-1553435Y-168650D02*
G01X-1553435Y-241000D01*
G01X-1487632Y-241000D01*
G01X-1487632Y-168650D01*
G01X-1553435Y-168650D01*
G37*

G04 Rect Start*
G36*
G01X-4270749Y409788D02*
G01X-4270749Y1135148D01*
G01X-3971029Y1135148D01*
G01X-3971029Y409788D01*
G01X-4270749Y409788D01*
G37*
G36*
G01X-4270749Y-2185864D02*
G01X-4270749Y-411964D01*
G01X-3971029Y-411964D01*
G01X-3971029Y-2185864D01*
G01X-4270749Y-2185864D01*
G37*
G36*
G01X-3560548Y67502D02*
G01X-3560548Y167502D01*
G01X-2470548Y167502D01*
G01X-2470548Y67502D01*
G01X-3560548Y67502D01*
G37*
G36*
G01X-3758238Y-168678D02*
G01X-3758238Y-68688D01*
G01X-2468888Y-68688D01*
G01X-2468888Y-168678D01*
G01X-3758238Y-168678D01*
G37*
G36*
G01X-2234548Y67502D02*
G01X-2234548Y167502D01*
G01X-1680548Y167502D01*
G01X-1680548Y67502D01*
G01X-2234548Y67502D01*
G37*
G36*
G01X-990548Y68502D02*
G01X-990548Y167502D01*
G01X-557108Y167502D01*
G01X-557108Y68502D01*
G01X-990548Y68502D01*
G37*
G36*
G01X-2232438Y-384491D02*
G01X-2232438Y-68218D01*
G01X-2132518Y-68218D01*
G01X-2132518Y-384491D01*
G01X-2232438Y-384491D01*
G37*
G36*
G01X-2190150Y-168218D02*
G01X-2190150Y-68218D01*
G01X-1817226Y-68218D01*
G01X-1817226Y-168218D01*
G01X-2190150Y-168218D01*
G37*
G36*
G01X-559844Y-68650D02*
G01X-559844Y-168650D01*
G01X-1553435Y-168650D01*
G01X-1553435Y-68650D01*
G01X-559844Y-68650D01*
G37*
G36*
G01X-322969Y-452173D02*
G01X-422969Y-452173D01*
G01X-422969Y-337728D01*
G01X-322969Y-337728D01*
G01X-322969Y-452173D01*
G37*
G36*
G01X-658845Y-68650D02*
G01X-559844Y-68650D01*
G01X-559844Y-383468D01*
G01X-658845Y-383468D01*
G01X-658845Y-68650D01*
G37*
G36*
G01X-2564748Y-68688D02*
G01X-2564748Y67502D01*
G01X-2478918Y67502D01*
G01X-2478918Y-68688D01*
G01X-2564748Y-68688D01*
G37*
G36*
G01X-2136323Y68688D02*
G01X-2136323Y-68503D01*
G01X-2222153Y-68503D01*
G01X-2222153Y68688D01*
G01X-2136323Y68688D01*
G37*
G36*
G01X-2281847Y-214213D02*
G01X-2418037Y-214213D01*
G01X-2418037Y-128383D01*
G01X-2281847Y-128383D01*
G01X-2281847Y-214213D01*
G37*
G36*
G01X-2232144Y-333916D02*
G01X-2468334Y-333916D01*
G01X-2468334Y-128086D01*
G01X-2232144Y-128086D01*
G01X-2232144Y-333916D01*
G37*
G36*
G01X-2490548Y-352498D02*
G01X-2490548Y-158658D01*
G01X-2468338Y-158658D01*
G01X-2468338Y-352498D01*
G01X-2490548Y-352498D01*
G37*
G36*
G01X-2366708Y-352498D02*
G01X-2490548Y-352498D01*
G01X-2490548Y-330288D01*
G01X-2366708Y-330288D01*
G01X-2366708Y-352498D01*
G37*
G36*
G01X-656207Y-69094D02*
G01X-656207Y68097D01*
G01X-570378Y68097D01*
G01X-570378Y-69094D01*
G01X-656207Y-69094D01*
G37*
G36*
G01X-322900Y-334213D02*
G01X-560091Y-334213D01*
G01X-560091Y-128383D01*
G01X-322900Y-128383D01*
G01X-322900Y-334213D01*
G37*
G36*
G01X-1621983Y-68688D02*
G01X-1621983Y68503D01*
G01X-1536153Y68503D01*
G01X-1536153Y-68688D01*
G01X-1621983Y-68688D01*
G37*
G36*
G01X-1199341Y68688D02*
G01X-1199341Y-68503D01*
G01X-1285171Y-68503D01*
G01X-1285171Y68688D01*
G01X-1199341Y68688D01*
G37*
G36*
G01X-322917Y-453498D02*
G01X-322917Y-158658D01*
G01X-300707Y-158658D01*
G01X-300707Y-453498D01*
G01X-322917Y-453498D01*
G37*
G36*
G01X-424547Y-330288D02*
G01X-300707Y-330288D01*
G01X-300707Y-352498D01*
G01X-424547Y-352498D01*
G01X-424547Y-330288D01*
G37*
G36*
G01X-2469061Y-337822D02*
G01X-2369061Y-337822D01*
G01X-2369061Y-452266D01*
G01X-2469061Y-452266D01*
G01X-2469061Y-337822D01*
G37*
G36*
G01X-2491323Y-453591D02*
G01X-2491323Y-168751D01*
G01X-2469113Y-168751D01*
G01X-2469113Y-453591D01*
G01X-2491323Y-453591D01*
G37*
G36*
G01X-3557318Y-68688D02*
G01X-3557318Y68502D01*
G01X-3419698Y68502D01*
G01X-3419698Y-68688D01*
G01X-3557318Y-68688D01*
G37*
G36*
G01X-3557089Y168034D02*
G01X-3557089Y68044D01*
G01X-3713438Y68044D01*
G01X-3713438Y168034D01*
G01X-3557089Y168034D01*
G37*
G36*
G01X-3703195Y-69146D02*
G01X-3703195Y-468146D01*
G01X-3762195Y-468146D01*
G01X-3762195Y-69146D01*
G01X-3703195Y-69146D01*
G37*
G36*
G01X-4122195Y-409146D02*
G01X-3703195Y-409146D01*
G01X-3703195Y-468146D01*
G01X-4122195Y-468146D01*
G01X-4122195Y-409146D01*
G37*
G36*
G01X-3762318Y68044D02*
G01X-3762318Y467045D01*
G01X-3703318Y467045D01*
G01X-3703318Y68044D01*
G01X-3762318Y68044D01*
G37*
G36*
G01X-4122318Y467045D02*
G01X-3703318Y467045D01*
G01X-3703318Y408045D01*
G01X-4122318Y408045D01*
G01X-4122318Y467045D01*
G37*
G36*
G01X165978Y408824D02*
G01X-253022Y408824D01*
G01X-253022Y467824D01*
G01X165978Y467824D01*
G01X165978Y408824D01*
G37*
G36*
G01X-253022Y68824D02*
G01X-253022Y467824D01*
G01X-194022Y467824D01*
G01X-194022Y68824D01*
G01X-253022Y68824D01*
G37*
G36*
G01X-193899Y-68366D02*
G01X-193899Y-467366D01*
G01X-252899Y-467366D01*
G01X-252899Y-68366D01*
G01X-193899Y-68366D01*
G37*
G36*
G01X328526Y-414109D02*
G01X328526Y-1134469D01*
G01X28806Y-1134469D01*
G01X28806Y-414109D01*
G01X328526Y-414109D01*
G37*
G36*
G01X329532Y1148542D02*
G01X329532Y414642D01*
G01X29812Y414642D01*
G01X29812Y1148542D01*
G01X329532Y1148542D01*
G37*
G36*
G01X-323248Y-168356D02*
G01X-323248Y-68366D01*
G01X-241399Y-68366D01*
G01X-241399Y-168356D01*
G01X-323248Y-168356D01*
G37*
G36*
G01X-196599Y168356D02*
G01X-196599Y68366D01*
G01X-320948Y68366D01*
G01X-320948Y168356D01*
G01X-196599Y168356D01*
G37*
G36*
G01X-1262834Y-521661D02*
G01X-1262834Y-283471D01*
G01X-472373Y-283471D01*
G01X-472373Y-521661D01*
G01X-1262834Y-521661D01*
G37*
G36*
G01X-1638889Y-621033D02*
G01X-1638889Y-519043D01*
G01X-1371888Y-519043D01*
G01X-1371888Y-621033D01*
G01X-1638889Y-621033D01*
G37*
G36*
G01X-1631997Y-383999D02*
G01X-1631997Y-285999D01*
G01X-1568996Y-285999D01*
G01X-1568996Y-383999D01*
G01X-1631997Y-383999D01*
G37*
G36*
G01X-1382498Y-390853D02*
G01X-1382498Y-283518D01*
G01X-1259844Y-283518D01*
G01X-1259844Y-390853D01*
G01X-1382498Y-390853D01*
G37*
G36*
G01X-1216320Y-621010D02*
G01X-1216320Y-521010D01*
G01X-957864Y-521010D01*
G01X-957864Y-621010D01*
G01X-1216320Y-621010D01*
G37*
G36*
G01X-1594665Y-521166D02*
G01X-1594665Y-383975D01*
G01X-1508835Y-383975D01*
G01X-1508835Y-521166D01*
G01X-1594665Y-521166D01*
G37*
G36*
G01X-1183219Y-383337D02*
G01X-1183219Y-521642D01*
G01X-1265941Y-521642D01*
G01X-1265941Y-383337D01*
G01X-1183219Y-383337D01*
G37*
G36*
G01X-1373440Y-620993D02*
G01X-1373440Y-615570D01*
G01X-1210060Y-615570D01*
G01X-1210060Y-620993D01*
G01X-1373440Y-620993D01*
G37*
G36*
G01X328526Y-467366D02*
G01X-252899Y-467366D01*
G01X-252899Y-408366D01*
G01X328526Y-408366D01*
G01X328526Y-467366D01*
G37*
G36*
G01X-472674Y-521789D02*
G01X-472674Y-620789D01*
G01X-772130Y-620789D01*
G01X-772130Y-521789D01*
G01X-472674Y-521789D01*
G37*
G04 Rect End*

G04 Pad Start*
G54D14*
G01X-1353108Y814381D03*
G01X-1607108Y1264367D03*
G01X-1861108Y814381D03*
G54D15*
G01X-230889Y-2249160D03*
G01X-3710889Y-2249160D03*
G01X-230889Y1230840D03*
G01X-3710889Y1230840D03*
G54D16*
G01X-842105Y-2242160D03*
G01X-1522114Y-2242160D03*
G01X-842105Y-1842160D03*
G01X-1522114Y-1842160D03*
G01X-842105Y-1467460D03*
G01X-1522114Y-1467460D03*
G01X-842105Y-1067460D03*
G01X-1522114Y-1067460D03*
G54D17*
G01X-3191991Y386999D03*
G01X-3331996Y386999D03*
G54D19*
G01X-3170549Y1327505D03*
G01X-3170549Y1187501D03*
G01X-3023121Y1328268D03*
G01X-3023121Y1188263D03*
G54D20*
G01X-970547Y1068503D03*
G54D21*
G01X-970547Y1250503D03*
G54D22*
G01X-3614492Y-729834D03*
G01X-3454599Y-729148D03*
G01X-2880495Y-2022837D03*
G01X-2720602Y-2022151D03*
G01X-2425495Y-2022837D03*
G01X-2265602Y-2022151D03*
G01X-1970494Y-2022837D03*
G01X-1810601Y-2022151D03*
G54D23*
G01X-2844554Y1333511D03*
G01X-2654562Y1333511D03*
G01X-2654562Y1093506D03*
G01X-2749558Y1093506D03*
G54D24*
G01X-2844554Y1093506D03*
G54D23*
G01X-2749558Y1333511D03*
G54D25*
G01X-2654555Y279712D03*
G01X-2749551Y279712D03*
G54D26*
G01X-2844547Y279712D03*
G54D27*
G01X-2844547Y17900D03*
G01X-2749543Y17900D03*
G01X-2654555Y17900D03*
G54D28*
G01X-2350535Y0D03*
G54D29*
G01X-2247644Y49987D03*
G54D30*
G01X-2247644Y0D03*
G54D29*
G01X-2247644Y-49987D03*
G54D31*
G01X-2300548Y-102892D03*
G54D32*
G01X-2350535Y-102892D03*
G54D31*
G01X-2400523Y-102892D03*
G54D29*
G01X-2453427Y-49987D03*
G54D30*
G01X-2453427Y0D03*
G54D29*
G01X-2453427Y49987D03*
G54D32*
G01X-2400523Y102892D03*
G01X-2350535Y102892D03*
G01X-2300548Y102892D03*
G54D33*
G01X-1310662Y-50013D03*
G54D34*
G01X-1310662Y0D03*
G54D33*
G01X-1310662Y49987D03*
G01X-1310662Y100000D03*
G01X-1510661Y100000D03*
G01X-1510661Y49987D03*
G54D34*
G01X-1510661Y0D03*
G54D33*
G01X-1510661Y-50013D03*
G54D35*
G01X-1410662Y24994D03*
G54D28*
G01X-441588Y0D03*
G54D29*
G01X-338697Y49987D03*
G54D30*
G01X-338697Y0D03*
G54D29*
G01X-338697Y-49987D03*
G54D31*
G01X-391601Y-102892D03*
G54D32*
G01X-441588Y-102892D03*
G54D31*
G01X-491576Y-102892D03*
G54D29*
G01X-544480Y-49987D03*
G54D30*
G01X-544480Y0D03*
G54D29*
G01X-544480Y49987D03*
G54D32*
G01X-491576Y102892D03*
G01X-441588Y102892D03*
G01X-391601Y102892D03*
G54D36*
G01X-374047Y-1637498D03*
G01X-374047Y-1487498D03*
G01X-374047Y-1437498D03*
G01X-374047Y-1387498D03*
G01X-374047Y-1337498D03*
G01X-374047Y-1287499D03*
G01X-374047Y-1237499D03*
G01X-374047Y-1087499D03*
G01X-207047Y-1087499D03*
G01X-207047Y-1237499D03*
G01X-207047Y-1287499D03*
G01X-207047Y-1337498D03*
G01X-207047Y-1387498D03*
G01X-207047Y-1437498D03*
G01X-207047Y-1487498D03*
G01X-207047Y-1637498D03*
G54D37*
G01X-505547Y-1602498D03*
G01X-505547Y-1122499D03*
G01X-75547Y-1122499D03*
G01X-75547Y-1602498D03*
G54D38*
G01X-2400548Y-421498D03*
G54D39*
G01X-2400548Y-239498D03*
G54D38*
G01X-391601Y-421498D03*
G54D39*
G01X-391601Y-239498D03*
G54D40*
G01X-822791Y-406D03*
G01X-713571Y-406D03*
G01X-1010922Y-406D03*
G54D41*
G01X-895922Y-406D03*
G54D42*
G01X-1072009Y101600D03*
G54D43*
G01X-1072009Y0D03*
G54D44*
G01X-1065891Y227538D03*
G01X-1065891Y318978D03*
G01X-1183351Y133374D03*
G01X-1183351Y248374D03*
G54D45*
G01X-810548Y317503D03*
G01X-925547Y317503D03*
G54D43*
G01X-1634748Y519D03*
G54D42*
G01X-1634748Y-108701D03*
G54D40*
G01X-1941265Y-406D03*
G54D41*
G01X-1826265Y-406D03*
G54D46*
G01X-2030889Y840D03*
G54D47*
G01X-2030889Y115840D03*
G54D48*
G01X-3454152Y139658D03*
G54D49*
G01X-3454152Y-322D03*
G54D40*
G01X-3328027Y-322D03*
G54D41*
G01X-3213027Y-322D03*
G54D50*
G01X-2844554Y405989D03*
G54D51*
G01X-2844554Y520989D03*
G54D46*
G01X-2844548Y927459D03*
G54D51*
G01X-2844548Y1042459D03*
G54D52*
G01X-2946148Y887426D03*
G54D53*
G01X-2844548Y887426D03*
G54D44*
G01X-1730877Y-110177D03*
G54D54*
G01X-1730877Y-3497D03*
G54D52*
G01X-1850889Y-205955D03*
G01X-1735889Y-205955D03*
G54D45*
G01X-1518057Y-205955D03*
G01X-1633056Y-205955D03*
G54D42*
G01X-1592429Y302680D03*
G01X-1592429Y187680D03*
G54D46*
G01X-2136323Y-406D03*
G54D47*
G01X-2136323Y114593D03*
G54D55*
G01X-2894561Y594156D03*
G54D56*
G01X-2844548Y594156D03*
G54D55*
G01X-2794561Y594156D03*
G01X-2744548Y594156D03*
G01X-2744548Y784148D03*
G01X-2794561Y784148D03*
G54D56*
G01X-2844548Y784148D03*
G54D55*
G01X-2894561Y784148D03*
G54D57*
G01X-2819554Y689152D03*
G54D40*
G01X-1715228Y-452498D03*
G54D41*
G01X-1600228Y-452498D03*
G54D40*
G01X-808982Y-452198D03*
G54D41*
G01X-693982Y-452198D03*
G54D44*
G01X-875998Y-553799D03*
G54D58*
G01X-875998Y-452199D03*
G54D59*
G01X-1477953Y-312576D03*
G54D60*
G01X-1337948Y-312576D03*
G54D61*
G01X-1483692Y-401993D03*
G54D62*
G01X-1483692Y-452005D03*
G54D61*
G01X-1483692Y-501993D03*
G54D63*
G01X-1483692Y-552005D03*
G01X-1293700Y-552005D03*
G54D61*
G01X-1293700Y-501993D03*
G54D62*
G01X-1293700Y-452005D03*
G54D61*
G01X-1293700Y-401993D03*
G54D64*
G01X-1388696Y-476999D03*
G54D59*
G01X-864536Y-680071D03*
G01X-724531Y-680071D03*
G01X-863774Y-827499D03*
G01X-723769Y-827499D03*
G54D19*
G01X-3174994Y850001D03*
G01X-3174994Y709996D03*
G01X-3032994Y850001D03*
G01X-3032994Y709996D03*
G01X-3328993Y851844D03*
G01X-3328993Y711839D03*
G04 Pad End*

M02*

