G04 Layer: TopPasteMaskLayer*
G04 EasyEDA Pro v2.2.27.1, 2024-09-01 09:43:49*
G04 Gerber Generator version 0.3*
G04 Scale: 100 percent, Rotated: No, Reflected: No*
G04 Dimensions in millimeters*
G04 Leading zeros omitted, absolute positions, 3 integers and 5 decimals*
%FSLAX35Y35*%
%MOMM*%
%ADD10R,1.0X2.99999*%
%ADD11R,3.19999X1.0*%
%ADD12R,0.8X0.9*%
%ADD13R,0.9X0.8*%
%ADD14R,0.8X0.8*%
%ADD15R,0.5587X1.2*%
%ADD16R,0.55001X1.2*%
%ADD17R,0.342X1.2*%
%ADD18R,0.6X1.1*%
%ADD19R,0.342X1.1*%
%ADD20R,0.6X0.7*%
%ADD21R,1.0X1.0*%
%ADD22R,0.508X0.3*%
%ADD23R,0.508X0.342*%
%ADD24R,0.342X0.508*%
%ADD25R,0.3X0.508*%
%ADD26R,0.67X0.3*%
%ADD27R,0.67X0.342*%
%ADD28R,0.8X1.6*%
%ADD29R,0.85X0.3*%
%ADD30R,0.25001X0.521*%
%ADD31R,0.342X0.521*%
%ADD32R,1.6X0.9*%
%ADD33R,0.8X0.9*%
%ADD34R,0.8X0.4*%
%ADD35R,0.521X0.15*%
%ADD36R,0.521X0.342*%
%ADD37R,0.521X0.25001*%
%ADD38R,0.9X1.6*%
G75*


G04 PolygonModel Start*
G36*
G01X-925549Y1038001D02*
G01X-925549Y1118001D01*
G01X-930550Y1123002D01*
G01X-953347Y1123002D01*
G01X-953347Y1086002D01*
G01X-986346Y1086002D01*
G01X-986346Y1123002D01*
G01X-1010550Y1123002D01*
G01X-1015549Y1118001D01*
G01X-1015549Y1038001D01*
G01X-1010550Y1033002D01*
G01X-930550Y1033002D01*
G01X-925549Y1038001D01*
G37*
G36*
G01X-1015546Y1277005D02*
G01X-1015546Y1197005D01*
G01X-1010545Y1192004D01*
G01X-987748Y1192004D01*
G01X-987748Y1229004D01*
G01X-954749Y1229004D01*
G01X-954749Y1192004D01*
G01X-930545Y1192004D01*
G01X-925546Y1197005D01*
G01X-925546Y1277005D01*
G01X-930545Y1282004D01*
G01X-1010545Y1282004D01*
G01X-1015546Y1277005D01*
G37*
G36*
G01X-2420546Y-197997D02*
G01X-2420546Y-280997D01*
G01X-2380546Y-280997D01*
G01X-2380546Y-197997D01*
G01X-2420546Y-197997D01*
G37*
G36*
G01X-2383347Y-456999D02*
G01X-2383347Y-383999D01*
G01X-2416347Y-383999D01*
G01X-2416347Y-456999D01*
G01X-2383347Y-456999D01*
G37*
G36*
G01X-374604Y-460999D02*
G01X-374604Y-380999D01*
G01X-409604Y-380999D01*
G01X-409604Y-460999D01*
G01X-374604Y-460999D01*
G37*
G36*
G01X-408802Y-198997D02*
G01X-408802Y-279997D01*
G01X-375802Y-279997D01*
G01X-375802Y-198997D01*
G01X-408802Y-198997D01*
G37*
G36*
G01X-805491Y-23406D02*
G01X-805491Y22593D01*
G01X-863556Y22593D01*
G01X-863556Y-23406D01*
G01X-805491Y-23406D01*
G37*
G36*
G01X-734491Y-23406D02*
G01X-734491Y22593D01*
G01X-680427Y22593D01*
G01X-680427Y-23406D01*
G01X-734491Y-23406D01*
G37*
G36*
G01X-996922Y-15906D02*
G01X-996922Y15093D01*
G01X-1044986Y15093D01*
G01X-1044986Y-15906D01*
G01X-996922Y-15906D01*
G37*
G36*
G01X-925921Y-15906D02*
G01X-925921Y15093D01*
G01X-876857Y15093D01*
G01X-876857Y-15906D01*
G01X-925921Y-15906D01*
G37*
G36*
G01X-1106309Y71001D02*
G01X-1037709Y71001D01*
G01X-1037709Y128364D01*
G01X-1106309Y128364D01*
G01X-1106309Y71001D01*
G37*
G36*
G01X-1096309Y-18682D02*
G01X-1047709Y-18682D01*
G01X-1047709Y18682D01*
G01X-1096309Y18682D01*
G01X-1096309Y-18682D01*
G37*
G36*
G01X-1040511Y252138D02*
G01X-1091271Y252138D01*
G01X-1091271Y201694D01*
G01X-1040511Y201694D01*
G01X-1040511Y252138D01*
G37*
G36*
G01X-1040511Y293268D02*
G01X-1091271Y293268D01*
G01X-1091271Y343393D01*
G01X-1040511Y343393D01*
G01X-1040511Y293268D01*
G37*
G36*
G01X-1152611Y162614D02*
G01X-1214091Y162614D01*
G01X-1214091Y104070D01*
G01X-1152611Y104070D01*
G01X-1152611Y162614D01*
G37*
G36*
G01X-1155151Y218375D02*
G01X-1214091Y218375D01*
G01X-1214091Y277439D01*
G01X-1155151Y277439D01*
G01X-1155151Y218375D01*
G37*
G36*
G01X-844547Y343002D02*
G01X-844547Y292003D01*
G01X-776483Y292003D01*
G01X-776483Y343002D01*
G01X-844547Y343002D01*
G37*
G36*
G01X-895548Y343002D02*
G01X-895548Y292003D01*
G01X-954612Y292003D01*
G01X-954612Y343002D01*
G01X-895548Y343002D01*
G37*
G36*
G01X-1661749Y-15000D02*
G01X-1607748Y-15000D01*
G01X-1607748Y17283D01*
G01X-1611749Y21284D01*
G01X-1657748Y21284D01*
G01X-1661749Y17283D01*
G01X-1661749Y-15000D01*
G37*
G36*
G01X-1657748Y-79021D02*
G01X-1611749Y-79021D01*
G01X-1607748Y-83021D01*
G01X-1607748Y-133085D01*
G01X-1611749Y-137085D01*
G01X-1657748Y-137085D01*
G01X-1661749Y-133085D01*
G01X-1661749Y-83021D01*
G01X-1657748Y-79021D01*
G37*
G36*
G01X-1927265Y-15906D02*
G01X-1927265Y15093D01*
G01X-1985330Y15093D01*
G01X-1985330Y-15906D01*
G01X-1927265Y-15906D01*
G37*
G36*
G01X-1856265Y-15906D02*
G01X-1856265Y15093D01*
G01X-1797201Y15093D01*
G01X-1797201Y-15906D01*
G01X-1856265Y-15906D01*
G37*
G36*
G01X-2005389Y14840D02*
G01X-2056389Y14840D01*
G01X-2056389Y-13224D01*
G01X-2005389Y-13224D01*
G01X-2005389Y14840D01*
G37*
G36*
G01X-2005389Y85841D02*
G01X-2056389Y85841D01*
G01X-2056389Y144905D01*
G01X-2005389Y144905D01*
G01X-2005389Y85841D01*
G37*
G36*
G01X-3498824Y20088D02*
G01X-3412424Y20088D01*
G01X-3412424Y-20240D01*
G01X-3498824Y-20240D01*
G01X-3498824Y20088D01*
G37*
G36*
G01X-3469574Y96071D02*
G01X-3441924Y96071D01*
G01X-3412549Y123490D01*
G01X-3412549Y173818D01*
G01X-3418950Y180219D01*
G01X-3492549Y180219D01*
G01X-3498950Y173818D01*
G01X-3498950Y123490D01*
G01X-3469574Y96071D01*
G37*
G36*
G01X-3314027Y-15822D02*
G01X-3314027Y15178D01*
G01X-3382091Y15178D01*
G01X-3382091Y-15822D01*
G01X-3314027Y-15822D01*
G37*
G36*
G01X-3243026Y-15822D02*
G01X-3243026Y15178D01*
G01X-3183962Y15178D01*
G01X-3183962Y-15822D01*
G01X-3243026Y-15822D01*
G37*
G36*
G01X-2829055Y419989D02*
G01X-2860054Y419989D01*
G01X-2860054Y361924D01*
G01X-2829055Y361924D01*
G01X-2829055Y419989D01*
G37*
G36*
G01X-2829055Y490989D02*
G01X-2860054Y490989D01*
G01X-2860054Y550053D01*
G01X-2829055Y550053D01*
G01X-2829055Y490989D01*
G37*
G36*
G01X-2829048Y941459D02*
G01X-2860048Y941459D01*
G01X-2860048Y883394D01*
G01X-2829048Y883394D01*
G01X-2829048Y941459D01*
G37*
G36*
G01X-2829048Y1012459D02*
G01X-2860048Y1012459D01*
G01X-2860048Y1071523D01*
G01X-2829048Y1071523D01*
G01X-2829048Y1012459D01*
G37*
G36*
G01X-2908848Y864427D02*
G01X-2908848Y910426D01*
G01X-2912849Y914427D01*
G01X-2962912Y914427D01*
G01X-2966913Y910426D01*
G01X-2966913Y864427D01*
G01X-2962912Y860426D01*
G01X-2912849Y860426D01*
G01X-2908848Y864427D01*
G37*
G36*
G01X-2860067Y856807D02*
G01X-2860067Y918046D01*
G01X-2828864Y918046D01*
G01X-2828864Y856807D01*
G01X-2860067Y856807D01*
G37*
G36*
G01X-1705498Y-80337D02*
G01X-1756257Y-80337D01*
G01X-1756257Y-140782D01*
G01X-1705498Y-140782D01*
G01X-1705498Y-80337D01*
G37*
G36*
G01X-1695498Y-19207D02*
G01X-1766257Y-19207D01*
G01X-1766257Y10917D01*
G01X-1695498Y10917D01*
G01X-1695498Y-19207D01*
G37*
G36*
G01X-1821649Y-234155D02*
G01X-1821649Y-175215D01*
G01X-1880194Y-175215D01*
G01X-1880194Y-234155D01*
G01X-1821649Y-234155D01*
G37*
G36*
G01X-1765888Y-236695D02*
G01X-1765888Y-177755D01*
G01X-1706825Y-177755D01*
G01X-1706825Y-236695D01*
G01X-1765888Y-236695D01*
G37*
G36*
G01X-1547297Y-175215D02*
G01X-1547297Y-236695D01*
G01X-1488752Y-236695D01*
G01X-1488752Y-175215D01*
G01X-1547297Y-175215D01*
G37*
G36*
G01X-1603057Y-177755D02*
G01X-1603057Y-236695D01*
G01X-1662121Y-236695D01*
G01X-1662121Y-177755D01*
G01X-1603057Y-177755D01*
G37*
G36*
G01X-1623169Y273440D02*
G01X-1561689Y273440D01*
G01X-1561689Y331985D01*
G01X-1623169Y331985D01*
G01X-1623169Y273440D01*
G37*
G36*
G01X-1620629Y217679D02*
G01X-1561689Y217679D01*
G01X-1561689Y158616D01*
G01X-1620629Y158616D01*
G01X-1620629Y217679D01*
G37*
G36*
G01X-2110823Y13594D02*
G01X-2161822Y13594D01*
G01X-2161822Y-14471D01*
G01X-2110823Y-14471D01*
G01X-2110823Y13594D01*
G37*
G36*
G01X-2110823Y84594D02*
G01X-2161822Y84594D01*
G01X-2161822Y143658D01*
G01X-2110823Y143658D01*
G01X-2110823Y84594D01*
G37*
G36*
G01X-1701228Y-467998D02*
G01X-1701228Y-436998D01*
G01X-1759293Y-436998D01*
G01X-1759293Y-467998D01*
G01X-1701228Y-467998D01*
G37*
G36*
G01X-1630228Y-467998D02*
G01X-1630228Y-436998D01*
G01X-1571164Y-436998D01*
G01X-1571164Y-467998D01*
G01X-1630228Y-467998D01*
G37*
G36*
G01X-794982Y-467698D02*
G01X-794982Y-436698D01*
G01X-853047Y-436698D01*
G01X-853047Y-467698D01*
G01X-794982Y-467698D01*
G37*
G36*
G01X-723982Y-467698D02*
G01X-723982Y-436698D01*
G01X-664918Y-436698D01*
G01X-664918Y-467698D01*
G01X-723982Y-467698D01*
G37*
G36*
G01X-852999Y-516499D02*
G01X-898998Y-516499D01*
G01X-902998Y-520500D01*
G01X-902998Y-570563D01*
G01X-898998Y-574563D01*
G01X-852999Y-574563D01*
G01X-848998Y-570563D01*
G01X-848998Y-520500D01*
G01X-852999Y-516499D01*
G37*
G36*
G01X-845379Y-467718D02*
G01X-906618Y-467718D01*
G01X-906618Y-436514D01*
G01X-845379Y-436514D01*
G01X-845379Y-467718D01*
G37*
G36*
G01X-3373992Y901343D02*
G01X-3373992Y821343D01*
G01X-3368991Y816342D01*
G01X-3346194Y816342D01*
G01X-3346194Y853342D01*
G01X-3313195Y853342D01*
G01X-3313195Y816342D01*
G01X-3288991Y816342D01*
G01X-3283992Y821343D01*
G01X-3283992Y901343D01*
G01X-3288991Y906342D01*
G01X-3368991Y906342D01*
G01X-3373992Y901343D01*
G37*
G36*
G01X-3283995Y662339D02*
G01X-3283995Y742339D01*
G01X-3288996Y747340D01*
G01X-3311792Y747340D01*
G01X-3311792Y710340D01*
G01X-3344792Y710340D01*
G01X-3344792Y747340D01*
G01X-3368996Y747340D01*
G01X-3373995Y742339D01*
G01X-3373995Y662339D01*
G01X-3368996Y657341D01*
G01X-3288996Y657341D01*
G01X-3283995Y662339D01*
G37*

G04 Pad Start*
G54D10*
G01X-1353108Y814381D03*
G01X-1607108Y1264367D03*
G01X-1861108Y814381D03*
G54D11*
G01X-842105Y-2242160D03*
G01X-1522114Y-2242160D03*
G01X-842105Y-1842160D03*
G01X-1522114Y-1842160D03*
G01X-842105Y-1467460D03*
G01X-1522114Y-1467460D03*
G01X-842105Y-1067460D03*
G01X-1522114Y-1067460D03*
G54D12*
G01X-3191991Y386999D03*
G01X-3331996Y386999D03*
G54D13*
G01X-3170549Y1327505D03*
G01X-3170549Y1187501D03*
G01X-3023121Y1328268D03*
G01X-3023121Y1188263D03*
G54D14*
G01X-3614492Y-729834D03*
G01X-3454599Y-729148D03*
G01X-2880495Y-2022837D03*
G01X-2720602Y-2022151D03*
G01X-2425495Y-2022837D03*
G01X-2265602Y-2022151D03*
G01X-1970494Y-2022837D03*
G01X-1810601Y-2022151D03*
G54D16*
G01X-2844554Y1333511D03*
G01X-2654562Y1333511D03*
G01X-2654562Y1093506D03*
G01X-2749558Y1093506D03*
G54D17*
G01X-2844554Y1093506D03*
G54D16*
G01X-2749558Y1333511D03*
G54D18*
G01X-2654555Y279712D03*
G01X-2749551Y279712D03*
G54D19*
G01X-2844547Y279712D03*
G54D20*
G01X-2844547Y17900D03*
G01X-2749543Y17900D03*
G01X-2654555Y17900D03*
G54D21*
G01X-2350535Y0D03*
G54D22*
G01X-2247644Y49987D03*
G54D23*
G01X-2247644Y0D03*
G54D22*
G01X-2247644Y-49987D03*
G54D24*
G01X-2300548Y-102892D03*
G54D25*
G01X-2350535Y-102892D03*
G54D24*
G01X-2400523Y-102892D03*
G54D22*
G01X-2453427Y-49987D03*
G54D23*
G01X-2453427Y0D03*
G54D22*
G01X-2453427Y49987D03*
G54D25*
G01X-2400523Y102892D03*
G01X-2350535Y102892D03*
G01X-2300548Y102892D03*
G54D26*
G01X-1310662Y-50013D03*
G54D27*
G01X-1310662Y0D03*
G54D26*
G01X-1310662Y49987D03*
G01X-1310662Y100000D03*
G01X-1510661Y100000D03*
G01X-1510661Y49987D03*
G54D27*
G01X-1510661Y0D03*
G54D26*
G01X-1510661Y-50013D03*
G54D28*
G01X-1410662Y24994D03*
G54D21*
G01X-441588Y0D03*
G54D22*
G01X-338697Y49987D03*
G54D23*
G01X-338697Y0D03*
G54D22*
G01X-338697Y-49987D03*
G54D24*
G01X-391601Y-102892D03*
G54D25*
G01X-441588Y-102892D03*
G54D24*
G01X-491576Y-102892D03*
G54D22*
G01X-544480Y-49987D03*
G54D23*
G01X-544480Y0D03*
G54D22*
G01X-544480Y49987D03*
G54D25*
G01X-491576Y102892D03*
G01X-441588Y102892D03*
G01X-391601Y102892D03*
G54D29*
G01X-374047Y-1637498D03*
G01X-374047Y-1487498D03*
G01X-374047Y-1437498D03*
G01X-374047Y-1387498D03*
G01X-374047Y-1337498D03*
G01X-374047Y-1287499D03*
G01X-374047Y-1237499D03*
G01X-374047Y-1087499D03*
G01X-207047Y-1087499D03*
G01X-207047Y-1237499D03*
G01X-207047Y-1287499D03*
G01X-207047Y-1337498D03*
G01X-207047Y-1387498D03*
G01X-207047Y-1437498D03*
G01X-207047Y-1487498D03*
G01X-207047Y-1637498D03*
G54D30*
G01X-2894561Y594156D03*
G54D31*
G01X-2844548Y594156D03*
G54D30*
G01X-2794561Y594156D03*
G01X-2744548Y594156D03*
G01X-2744548Y784148D03*
G01X-2794561Y784148D03*
G54D31*
G01X-2844548Y784148D03*
G54D30*
G01X-2894561Y784148D03*
G54D32*
G01X-2819554Y689152D03*
G54D33*
G01X-1477953Y-312576D03*
G54D34*
G01X-1337948Y-312576D03*
G54D35*
G01X-1483692Y-401993D03*
G54D36*
G01X-1483692Y-452005D03*
G54D35*
G01X-1483692Y-501993D03*
G54D37*
G01X-1483692Y-552005D03*
G01X-1293700Y-552005D03*
G54D35*
G01X-1293700Y-501993D03*
G54D36*
G01X-1293700Y-452005D03*
G54D35*
G01X-1293700Y-401993D03*
G54D38*
G01X-1388696Y-476999D03*
G54D33*
G01X-864536Y-680071D03*
G01X-724531Y-680071D03*
G01X-863774Y-827499D03*
G01X-723769Y-827499D03*
G54D13*
G01X-3174994Y850001D03*
G01X-3174994Y709996D03*
G01X-3032994Y850001D03*
G01X-3032994Y709996D03*
G01X-3328993Y851844D03*
G01X-3328993Y711839D03*
G04 Pad End*

M02*

