;TYPE=PLATED
;Layer: PTH_Through_Via
;EasyEDA Pro v2.2.28.1, 2024-10-13 15:23:25
;Gerber Generator version 0.3
M48
METRIC,LZ,000.00000
;Hole size 1 = 0.20000 METRIC
T01C0.20000
;Hole size 2 = 0.30000 METRIC
T02C0.30000
;Hole size 3 = 0.40000 METRIC
T03C0.40000
;Hole size 4 = 0.50000 METRIC
T04C0.50000
%
G05
G90
T01
X-17.61926Y6.92775
X-18.09122Y3.38004
X-24.76118Y2.42209
X-3.96227Y3.161
X-26.5304Y-15.90262
X-2.88421Y-13.22997
X-1.20121Y-13.89997
X-7.47373Y-8.97249
X-6.39199Y-12.23997
X-9.73271Y2.4429
X-10.77988Y5.39238
X-15.82121Y9.02868
X-20.83122Y-16.45617
X-22.43122Y-16.22998
X-24.03122Y-17.22998
X-27.93122Y-15.90262
X-18.81597Y-15.11473
X-27.93125Y-14.4163
X-27.93124Y-7.14072
X-27.93124Y-8.64073
X-27.93122Y-9.92997
X-8.23462Y3.95341
X-22.29843Y-10.30359
X-22.29843Y-9.16059
X-33.52616Y6.92013
X-17.07297Y-8.02453
X-16.09803Y-0.55919
X-16.58063Y-0.38139
X-16.09803Y-0.03425
X-16.58063Y0.16048
X-16.09803Y0.49068
X-16.58063Y0.70235
X-16.09803Y1.01561
X-16.58063Y1.24421
X-18.49028Y-2.01565
X-24.76118Y1.62022
X-23.88793Y-15.58668
X-6.67298Y2.72005
X-21.18613Y-11.68497
X-8.54679Y-22.42658
X-15.67726Y-18.62321
X-10.53283Y-11.60161
X-12.48109Y-11.05399
X-12.53121Y-9.92997
X-14.16989Y-9.77997
X-19.02507Y-16.20695
X-21.63122Y-16.12998
X-24.77626Y-8.40499
X-22.53124Y-8.14073
X-22.37626Y-7.40499
X-29.17627Y-10.90499
X-39.07026Y-13.03153
X-27.36349Y-12.14073
X-28.13124Y-12.94073
X-13.93124Y-12.9424
X-20.23423Y-14.50815
X-27.97626Y-3.80499
X-26.66427Y-5.75621
X-26.5312Y-8.61629
X-26.57626Y-9.90499
X-28.33127Y-5.70419
X-27.26677Y-10.75835
X-29.67627Y-11.805
X-30.36568Y8.71497
X-14.78025Y6.97978
X-24.95107Y7.47224
X-24.91973Y8.77218
X-23.77536Y9.94058
X-37.56955Y-6.10272
X-37.57227Y-8.83657
X-37.61026Y-11.71299
X-38.02904Y-15.60818
X-38.77904Y-14.95818
X-30.33678Y-17.08817
X-19.07908Y7.79178
X-28.92529Y5.87878
X-22.49212Y10.93108
X-20.9691Y-7.04819
X-20.37003Y-7.14659
X-22.11846Y-6.69609
X-20.76956Y-2.37031
X-19.65643Y-2.31887
X-18.50608Y13.45297
X-5.2791Y5.74178
X-6.67913Y5.59178
X-26.92828Y-16.79143
X-24.96677Y-19.21187
X-29.56982Y-21.39815
X-23.88392Y-21.69659
X-22.38393Y-21.69659
X-17.98393Y-20.39662
X-17.03393Y-20.80596
X-20.44498Y-13.65818
X-19.80575Y-13.65818
X-19.20375Y-13.70818
X-17.78195Y-13.63488
X-25.77906Y-17.70817
X-23.42907Y-18.90817
X-19.24099Y-20.49213
X-20.48939Y-18.24471
X-26.92863Y-20.35469
X-12.3987Y-14.42301
X-13.8299Y-16.24697
X-12.31184Y-16.18658
X-10.92503Y-16.15613
X-9.19877Y-16.24417
X-14.10971Y-17.2493
X-9.4103Y-17.48865
X-12.32179Y-19.10129
X-7.79218Y-20.66353
X-10.82179Y-20.45131
X-12.32179Y-20.50133
X-13.82179Y-20.50396
X-8.1909Y-11.30933
X-9.73239Y-11.83015
X-9.28039Y-13.50933
X-7.25887Y-14.42717
X-7.92709Y-15.24723
X-8.54704Y-16.75491
X-5.21531Y-17.01979
X-6.5061Y-15.53275
X-6.39199Y-11.30933
X-5.79715Y-9.83233
X-9.99631Y-16.83791
X-8.51692Y-19.75971
X-5.6791Y-13.19716
X-15.58117Y-7.03359
X-17.05951Y-7.32174
X-15.59385Y-7.70419
X-19.91803Y-6.74723
X-18.28935Y-7.14659
X-17.70151Y-7.48251
X-15.27708Y-11.05423
X-9.82425Y-10.42803
X-4.55121Y-13.84997
X-18.97991Y-11.74658
X-9.32909Y-20.50817
X-21.27907Y-13.65762
X-28.97611Y6.58579
X-25.9089Y7.04013
X-30.97012Y5.89939
X-27.55402Y-2.79401
X-25.77425Y-3.61856
X-39.85359Y-0.91841
X-39.35359Y-1.46841
X-38.35359Y-1.46841
X-38.85359Y-0.91841
X-37.85359Y-0.91841
X-37.35359Y-1.46841
X-37.01359Y-0.91841
X-35.71359Y-0.90841
X-35.35359Y-1.46841
X-34.85359Y-0.91841
X-34.35359Y-1.46841
X-33.85359Y-0.91841
X-33.35359Y-1.46841
X-32.85359Y-0.91841
X-32.35359Y-1.46841
X-31.85359Y-0.91841
X-31.35359Y-1.46841
X-30.35359Y-1.46841
X-30.85359Y-0.91841
X-29.85359Y-0.91841
X-29.35359Y-1.46841
X-27.85359Y-0.91841
X-27.35359Y-1.46841
X-26.85359Y-0.91841
X-23.85359Y-0.91841
X-23.35359Y-1.46841
X-22.35359Y-1.46841
X-22.85359Y-0.91841
X-21.85359Y-0.91841
X-20.35359Y-1.46841
X-19.85359Y-0.91841
X-19.35359Y-1.46841
X-18.85359Y-0.91841
X-18.35359Y-1.46841
X-17.85359Y-0.91841
X-14.79359Y-0.99841
X-13.85359Y-0.91841
X-12.35359Y-1.46841
X-11.85359Y-0.91841
X-11.35359Y-1.46841
X-10.85359Y-0.91841
X-10.35359Y-1.46841
X-9.85359Y-0.91841
X-9.35359Y-1.46841
X-8.85359Y-0.91841
X-8.35359Y-1.46841
X-4.61215Y-1.09144
X-3.85359Y-0.91841
X-3.35359Y-1.46841
X-2.85359Y-0.91841
X-2.35359Y-1.46841
X-1.85359Y-0.91841
X-1.35359Y-1.46841
X-0.85358Y-0.91841
X-0.35359Y-1.46841
X0.14642Y-0.91841
X0.64641Y-1.46841
X1.14642Y-0.91841
X-23.74608Y8.77724
X-23.09608Y8.77724
X-22.44608Y8.77724
X-21.79608Y8.77724
X-21.14608Y8.77724
X-21.14608Y6.17724
X-21.79608Y6.82724
X-22.44608Y6.82724
X-23.09608Y6.82724
X-23.74608Y6.82724
X-22.44608Y7.47724
X-23.09608Y7.47724
X-23.74608Y7.47724
X-21.14608Y7.47724
X-21.79608Y7.47724
X-21.14608Y8.12724
X-21.79608Y8.12724
X-21.14608Y6.82724
X-23.74608Y6.17724
X-23.09608Y6.17724
X-22.44608Y8.12724
X-21.79608Y6.17724
X-22.44608Y6.17724
X-23.74608Y8.12724
X-23.09608Y8.12724
X-12.6861Y8.77724
X-12.6861Y8.12724
X-12.6861Y7.47724
X-12.6861Y6.82724
X-12.6861Y6.17724
X-12.0361Y6.17724
X-12.0361Y6.82724
X-12.0361Y7.47724
X-12.0361Y8.12724
X-12.0361Y8.77724
X-11.3861Y8.77724
X-11.3861Y8.12724
X-11.3861Y7.47724
X-11.3861Y6.82724
X-11.3861Y6.17724
X-10.7361Y6.17724
X-10.7361Y6.82724
X-10.7361Y7.47724
X-10.7361Y8.12724
X-10.7361Y8.77724
X-10.0861Y8.77724
X-10.0861Y8.12724
X-10.0861Y7.47724
X-10.0861Y6.82724
X-10.0861Y6.17724
X-20.81501Y-8.01856
X-20.26501Y-8.01856
X-19.71501Y-8.01856
X-19.16501Y-8.01856
X-18.61501Y-8.01856
X-20.81501Y-8.56856
X-20.26501Y-8.56856
X-19.71501Y-8.56856
X-19.16501Y-8.56856
X-18.61501Y-8.56856
X-20.81501Y-9.11856
X-20.26501Y-9.11856
X-19.71501Y-9.11856
X-19.16501Y-9.11856
X-18.61501Y-9.11856
X-20.81501Y-9.66856
X-20.26501Y-9.66856
X-19.71501Y-9.66856
X-19.16501Y-9.66856
X-18.61501Y-9.66856
X-20.81501Y-10.21856
X-20.26501Y-10.21856
X-19.71501Y-10.21856
X-19.16501Y-10.21856
X-18.61501Y-10.21856
X-30.78393Y3.67003
X-30.78393Y2.67004
X-29.07306Y4.17936
X-28.46501Y3.67003
X-28.46501Y2.67004
X-28.46501Y1.67003
X-26.7121Y2.14425
X-27.85696Y2.14425
X-27.85696Y3.14425
X-26.14609Y2.64425
X-27.76136Y4.73014
X-24.21995Y4.08594
X-19.85796Y-11.72998
X-20.31996Y-11.18998
X-22.00996Y-11.52998
X-17.23308Y-9.69399
X-35.75493Y4.94999
X-6.19723Y1.60877
X-40.35359Y1.45199
X-39.85359Y0.91199
X-39.35359Y1.45199
X-38.85359Y0.91199
X-38.35359Y1.45199
X-37.85359Y0.91199
X-37.35359Y1.45199
X-36.85359Y0.91199
X-36.78359Y1.77199
X-33.35359Y1.45199
X-32.85359Y0.91199
X-32.35359Y1.45199
X-31.85359Y0.91199
X-31.35359Y1.45199
X-30.85359Y0.91199
X-30.35359Y1.45199
X-23.85359Y0.91199
X-23.35359Y1.45199
X-22.85359Y0.91199
X-22.35359Y1.45199
X-21.85359Y0.91199
X-14.65359Y0.98199
X-14.35359Y1.46199
X-13.85359Y0.91199
X-13.35359Y1.46199
X-12.85359Y0.91199
X-12.35359Y1.46199
X-11.85359Y0.91199
X-11.35359Y1.46199
X-10.85359Y0.91199
X-10.35359Y1.46199
X-9.85358Y0.91199
X-9.35359Y1.46199
X-8.85358Y0.91199
X-8.35359Y1.46199
X-4.35359Y1.43199
X-3.85358Y0.91199
X-3.35358Y1.43199
X-2.85358Y0.91199
X-2.35358Y1.43199
X-1.85358Y0.91199
X-1.35358Y1.43199
X-0.85358Y0.91199
X-0.35358Y1.43199
X0.14642Y0.91199
X0.64642Y1.43199
X1.14642Y0.91199
X1.14642Y1.99199
X0.14642Y1.99199
X-0.85358Y1.99199
X-1.85359Y1.99199
X0.64641Y2.54199
X-0.35359Y2.54199
X-1.35359Y2.54199
X-2.35359Y2.54199
X1.14641Y3.09199
X0.14641Y3.09199
X-0.85359Y3.09199
X-1.85359Y3.09199
X0.64641Y3.64199
X-0.35359Y3.64199
X-1.35359Y3.64199
X-2.35359Y3.64199
X1.14641Y4.19199
X0.14641Y4.19199
X-0.85359Y4.19199
X-1.85359Y4.19199
X0.64641Y4.74199
X-0.35359Y4.74199
X-1.35359Y4.74199
X-2.35359Y4.74199
X1.14641Y5.29199
X0.14641Y5.29199
X-0.85359Y5.29199
X-1.85359Y5.29199
X-1.85359Y-2.00841
X-0.85358Y-2.00841
X0.14642Y-2.00841
X1.14642Y-2.00841
X0.64642Y-2.5584
X-0.35358Y-2.5584
X-1.35358Y-2.5584
X-2.35358Y-2.5584
X1.14642Y-3.1084
X0.14642Y-3.1084
X-0.85358Y-3.1084
X-1.85358Y-3.1084
X0.64642Y-3.6584
X-0.35358Y-3.6584
X-1.35358Y-3.6584
X-2.35358Y-3.6584
X1.14642Y-4.2084
X0.14642Y-4.2084
X-0.85358Y-4.2084
X-1.85358Y-4.2084
X0.64642Y-4.7584
X-0.35358Y-4.7584
X-1.35358Y-4.7584
X-2.35358Y-4.7584
X1.14642Y-5.3084
X0.14642Y-5.3084
X-0.85358Y-5.3084
X-1.85358Y-5.3084
X-37.85359Y-2.00841
X-38.85359Y-2.00841
X-39.85359Y-2.00841
X-40.85359Y-2.00841
X-37.35359Y-2.5584
X-38.35359Y-2.5584
X-39.35359Y-2.5584
X-40.35359Y-2.5584
X-37.85359Y-3.1084
X-38.85359Y-3.1084
X-39.85359Y-3.1084
X-40.85359Y-3.1084
X-37.35359Y-3.6584
X-38.35359Y-3.6584
X-39.35359Y-3.6584
X-40.35359Y-3.6584
X-37.85359Y-4.2084
X-38.85359Y-4.2084
X-39.85359Y-4.2084
X-40.85359Y-4.2084
X-37.35359Y-4.7584
X-38.35359Y-4.7584
X-39.35359Y-4.7584
X-40.35359Y-4.7584
X-37.85358Y-5.3084
X-38.85358Y-5.3084
X-39.85359Y-5.3084
X-40.85359Y-5.3084
X-40.8536Y1.99199
X-39.8536Y1.99199
X-38.8536Y1.99199
X-37.85359Y1.99199
X-40.3536Y2.54199
X-39.3536Y2.54199
X-38.3536Y2.54199
X-37.3536Y2.54199
X-40.8536Y3.09199
X-39.8536Y3.09199
X-38.8536Y3.09199
X-37.8536Y3.09199
X-40.3536Y3.64199
X-39.3536Y3.64199
X-38.3536Y3.64199
X-37.3536Y3.64199
X-40.8536Y4.19199
X-39.8536Y4.19199
X-38.8536Y4.19199
X-37.8536Y4.19199
X-40.33603Y4.68927
X-39.33603Y4.68927
X-38.33603Y4.68927
X-37.33603Y4.68927
X-40.83603Y5.23927
X-39.83603Y5.23927
X-38.83603Y5.23927
X-37.83603Y5.23927
X-40.8536Y-0.91841
X-40.85359Y0.91199
X-23.30359Y-3.40841
X-23.85359Y-2.90841
X-23.30359Y-2.40841
X-23.85359Y-1.90841
X-21.19324Y-3.61977
X-20.69324Y-3.07977
X-20.19324Y-3.61977
X-16.19324Y-3.62977
X-15.69324Y-3.07977
X-14.19324Y-3.60977
X-11.69324Y-3.05977
X-11.19324Y-3.60977
X-10.69323Y-3.05977
X-10.19324Y-3.60977
X-9.69323Y-3.05977
X-9.19324Y-3.60977
X-8.69323Y-3.05977
X-8.19323Y-3.60977
X-18.92104Y-6.5006
X-16.18103Y-5.43017
X-15.83317Y-5.98017
X-14.18103Y-5.44017
X-11.68103Y-5.99017
X-11.18103Y-5.44017
X-10.02091Y-6.70717
X-10.18103Y-5.44017
X-9.68103Y-5.99017
X-9.18103Y-5.44017
X-8.68103Y-5.99017
X-8.18103Y-5.44017
X-7.68103Y-5.99017
X-7.18103Y-5.43017
X-7.99998Y-2.62999
X-8.53998Y-1.96
X-6.50999Y-4.93999
X-6.51999Y-5.53999
X-6.09677Y-4.21498
X-5.08999Y-2.17
X-26.72995Y-2.68999
X-25.18739Y-6.44237
X-6.83298Y-0.25406
X-6.40432Y0.1816
X-25.56204Y0.24596
X-25.36704Y-0.25904
X-28.68994Y5.28999
X-36.02904Y-9.05971
X-35.85993Y-10.11998
X-34.42892Y-10.11998
X-33.00993Y-10.11998
X-35.87993Y-7.62998
X-34.44892Y-7.62998
X-33.02993Y-7.62998
X-32.52404Y-5.03822
X-9.023Y-9.86932
X-12.43122Y-7.10622
X-22.36083Y-2.22596
X-16.27897Y3.55408
X-12.69109Y4.39359
X-10.09888Y4.61358
X-6.9624Y6.7505
X-18.17507Y8.97577
X-22.06587Y11.96207
X-29.29355Y8.79208
X-32.74993Y8.77998
X-39.32193Y6.7851
X-37.32193Y6.7851
X-37.32193Y8.78511
X-33.32193Y8.78511
X-33.32193Y12.78511
X-31.32193Y2.7851
X-21.32192Y12.78511
X-19.00423Y12.50798
X-17.32192Y8.78511
X-15.32192Y2.7851
X-15.32192Y4.7851
X-13.32192Y2.7851
X-13.32192Y4.7851
X-11.32192Y2.7851
X-11.32192Y12.78511
X-9.32191Y2.7851
X-9.32191Y4.7851
X-9.32191Y10.78511
X-9.32191Y12.78511
X-7.32191Y8.78511
X-5.32191Y12.78511
X-3.32191Y2.7851
X-3.32191Y4.7851
X-3.32191Y6.7851
X-3.32191Y8.78511
X-1.32191Y6.7851
X-1.32191Y8.78511
X-39.32193Y-18.58388
X-39.32193Y-16.58388
X-39.32193Y-8.58388
X-39.32193Y-6.58388
X-37.32193Y-18.58388
X-37.32193Y-16.58388
X-37.02193Y-13.78388
X-37.32193Y-10.58388
X-35.22234Y-14.68347
X-35.32193Y-6.58388
X-35.32193Y-2.58388
X-33.32193Y-24.58389
X-33.32193Y-22.58389
X-33.32193Y-20.58389
X-33.32193Y-16.58388
X-33.32193Y-14.58388
X-33.32193Y-6.58388
X-33.32193Y-2.58388
X-31.32193Y-24.58389
X-31.32193Y-20.58389
X-31.32193Y-16.58388
X-31.32193Y-12.58388
X-31.32193Y-8.58388
X-31.32193Y-4.58388
X-31.32193Y-2.58388
X-29.32193Y-24.58389
X-29.32193Y-16.58388
X-29.32193Y-14.58388
X-29.32193Y-12.58388
X-29.32193Y-8.58388
X-29.32193Y-2.58388
X-27.32192Y-24.58389
X-27.32192Y-22.58389
X-25.32192Y-24.58389
X-25.32192Y-22.58389
X-25.32192Y-16.58388
X-25.32314Y-14.78266
X-23.32192Y-24.58389
X-23.32192Y-22.58389
X-21.32192Y-24.58389
X-21.32192Y-22.58389
X-19.32192Y-24.58389
X-19.32192Y-22.58389
X-17.32192Y-24.58389
X-17.32192Y-22.58389
X-15.32192Y-24.58389
X-15.32192Y-22.58389
X-13.32192Y-24.58389
X-11.32192Y-24.58389
X-11.32192Y-22.58389
X-11.32192Y-6.58388
X-9.32191Y-24.58389
X-7.32191Y-24.58389
X-7.32191Y-22.58389
X-7.32191Y-6.58388
X-5.32191Y-22.58389
X-5.32191Y-20.58389
X-5.32191Y-8.58388
X-5.32191Y-6.58388
X-5.32191Y-4.58388
X-3.32191Y-18.58388
X-3.32191Y-8.58388
X-3.32191Y-6.58388
X-3.32191Y-2.58388
X-1.32191Y-18.58388
X-1.32191Y-8.58388
X-1.32191Y-6.58388
X-40.19983Y13.45052
X-39.83123Y14.41912
X-39.13123Y15.01912
X-38.05667Y15.51912
X-37.05667Y15.51912
X-36.05667Y15.51912
X-35.05667Y15.51912
X-34.05667Y15.51912
X-33.05666Y15.51912
X-32.05666Y15.51912
X-31.05666Y15.51912
X0.76879Y8.61912
X-2.03239Y-25.6809
X-3.03239Y-25.6809
X-4.03239Y-25.6809
X-5.03239Y-25.6809
X-6.03239Y-25.6809
X-7.03239Y-25.6809
X-8.03239Y-25.6809
X-9.03239Y-25.6809
X-10.03239Y-25.6809
X-11.03239Y-25.6809
X0.76879Y11.61912
X0.76879Y10.61912
X0.76879Y9.61912
X-40.43123Y12.09187
X-40.43123Y11.09187
X-40.43123Y-6.90814
X-40.43123Y-5.90814
X-40.43123Y6.09186
X-40.43123Y7.09187
X-40.43123Y8.09187
X-40.43123Y9.09187
X-40.43123Y10.09187
X-31.0324Y-25.6809
X-39.83123Y-24.8809
X-32.0324Y-25.6809
X-33.0324Y-25.6809
X-34.0324Y-25.6809
X-35.0324Y-25.6809
X-36.0324Y-25.6809
X-37.0324Y-25.6809
X-38.03241Y-25.6809
X-39.03123Y-25.4809
X-40.27054Y-23.84159
X-40.43123Y-22.90815
X-40.43123Y-21.90815
X-40.43123Y-20.90815
X-40.43123Y-19.90815
X-40.43123Y-18.90815
X-40.43123Y-17.90815
X-40.43123Y-16.90815
X-40.43123Y-15.90815
X-40.43123Y-14.90815
X-40.43123Y-13.90815
X-40.43123Y-12.90815
X-40.43123Y-11.90814
X-40.43123Y-10.90814
X-40.43123Y-9.90814
X-40.43123Y-8.90814
X-40.43123Y-7.90814
X-30.0324Y-25.6809
X-28.0324Y-25.6809
X-12.03239Y-25.6809
X-13.03239Y-25.6809
X-14.03239Y-25.6809
X-15.03239Y-25.6809
X-16.03239Y-25.6809
X-17.03239Y-25.6809
X-18.03239Y-25.6809
X-19.0324Y-25.6809
X-20.0324Y-25.6809
X-21.0324Y-25.6809
X-22.0324Y-25.6809
X-23.0324Y-25.6809
X-24.0324Y-25.6809
X-25.0324Y-25.6809
X-26.0324Y-25.6809
X-27.0324Y-25.6809
X-29.0324Y-25.6809
X-1.15134Y15.29052
X-26.05666Y15.51912
X-25.05666Y15.51912
X-24.05666Y15.51912
X-23.05666Y15.51912
X-22.05666Y15.51912
X-21.05666Y15.51912
X-20.05666Y15.51912
X-19.05666Y15.51912
X-18.05666Y15.51912
X-17.05666Y15.51912
X-16.05666Y15.51912
X-15.05666Y15.51912
X-14.05665Y15.51912
X-13.05665Y15.51912
X-12.05665Y15.51912
X-11.05665Y15.51912
X-10.05665Y15.51912
X-9.05665Y15.51912
X-8.05665Y15.51912
X-7.05665Y15.51912
X-6.05665Y15.51912
X-0.23121Y14.81912
X0.36879Y13.91912
X-5.05665Y15.51912
X-4.05665Y15.51912
X-3.05665Y15.51912
X-2.05665Y15.51912
X0.76879Y12.61912
X-30.05666Y15.51912
X-29.05666Y15.51912
X-28.05666Y15.51912
X-27.05666Y15.51912
X0.76879Y7.61912
X0.63901Y-23.76077
X0.76879Y-20.3809
X0.76879Y-21.3809
X0.76879Y-22.4809
X0.76879Y6.61912
X0.76879Y5.61912
X0.76879Y-6.38089
X0.76879Y-7.38089
X0.76879Y-8.38089
X0.76879Y-9.38089
X0.76879Y-10.38089
X0.76879Y-11.38089
X0.76879Y-12.38089
X0.76879Y-13.3809
X0.76879Y-14.3809
X0.76879Y-15.3809
X0.76879Y-16.3809
X0.76879Y-17.3809
X0.76879Y-18.3809
X0.76879Y-19.3809
X0.16762Y-24.6809
X-0.73238Y-25.2809
X-40.35359Y-1.46841
X-23.13995Y-13.52997
X-17.83074Y2.3069
X-14.74117Y-6.58159
X-16.68103Y-5.98017
X-13.19997Y-2.89001
X-16.56413Y-4.77498
X-16.13411Y-4.12795
X-14.58997Y2.17
X-16.35359Y-1.45841
X-23.30359Y-5.43699
X-24.81364Y-6.81285
X-23.41374Y-5.98907
X-10.68103Y-5.99017
X-16.50997Y8.29998
X-22.4211Y5.55007
X-24.76118Y5.81224
X-24.35995Y6.74999
X-0.98999Y-14.8937
X-1.96964Y-11.93962
X-4.50821Y-12.62997
X-3.09999Y-15.77997
X-1.96621Y-16.37997
X-3.69621Y-16.37997
X-2.88164Y-10.79283
X-6.4791Y-19.88305
X-6.37338Y-18.59168
X-7.25664Y-17.63241
X-6.2791Y-17.65616
X-6.02207Y-16.39788
X-6.47632Y-13.09516
X-9.6929Y-22.1657
X-16.49289Y-22.40984
X-28.79862Y-20.79395
X-27.26677Y-18.0409
X-35.95993Y-11.26099
X-35.75904Y-6.16972
X-32.37897Y4.85022
X-17.49197Y-0.55706
X-18.02996Y4.81999
X-15.14797Y-0.57237
X-15.14797Y0.69096
X-15.14797Y1.43402
X-15.26997Y-21.29996
X-31.09994Y13.06997
X-38.85993Y-10.73997
X-26.5101Y1.50998
X-4.2Y-2.2
X-36.51104Y-15.15617
X-25.23105Y-12.79382
X-30.23393Y3.17003
X-30.23393Y2.17003
X-29.07306Y3.17003
X-29.07306Y2.17003
X-16.57995Y-17.10001
X-16.50001Y-16.05697
X-15.50001Y-17.10001
X-22.84703Y-12.34702
X-25.02035Y-11.93548
X-33.70002Y-11.66116
X-35.06624Y-11.54995
X-39.82193Y-20.58389
X-39.82193Y-19.08389
X-39.82193Y-17.58389
X-39.82193Y-16.08389
X-39.82193Y-14.58389
X-39.82193Y-13.08389
X-39.82193Y-11.58389
X-39.82193Y-10.08389
X-39.82193Y-8.58389
X-39.82193Y-7.08389
X-39.82193Y6.4161
X-39.82193Y7.9161
X-39.82193Y9.4161
X-39.82193Y10.9161
X-39.82193Y13.9161
X-39.82193Y15.4161
X-38.32193Y-19.08389
X-38.32193Y-17.58389
X-38.32193Y-5.5839
X-38.32193Y6.4161
X-38.32193Y7.9161
X-38.32193Y9.4161
X-36.82193Y-19.08389
X-36.82193Y-16.08389
X-36.82193Y-10.08389
X-36.82193Y-8.58389
X-36.82193Y-7.08389
X-36.82193Y-4.0839
X-36.82193Y-2.5839
X-36.82193Y3.4161
X-36.82193Y4.9161
X-36.82193Y6.4161
X-36.82193Y7.9161
X-36.82193Y9.4161
X-35.32193Y-25.08389
X-35.32193Y-19.08389
X-35.32193Y-17.58389
X-35.32193Y3.4161
X-35.32193Y6.4161
X-35.32193Y7.9161
X-35.32193Y9.4161
X-33.82193Y-25.08389
X-33.82193Y-23.58389
X-33.82193Y-22.08389
X-33.82193Y-20.58389
X-33.82193Y-19.08389
X-33.82193Y-16.08389
X-33.82193Y-14.58389
X-33.82193Y-2.5839
X-33.82193Y7.9161
X-33.82193Y9.4161
X-33.82193Y10.9161
X-33.82193Y12.4161
X-33.82193Y13.9161
X-32.32193Y-25.08389
X-32.32193Y-23.58389
X-32.32193Y-17.58389
X-32.32193Y-16.08389
X-32.32193Y-14.58389
X-32.32193Y-2.5839
X-32.32193Y3.4161
X-32.32193Y10.9161
X-32.32193Y12.4161
X-32.32193Y13.9161
X-30.82193Y-25.08389
X-30.82193Y-23.58389
X-30.82193Y-20.58389
X-30.82193Y-16.08389
X-30.82193Y-10.08389
X-30.82193Y-8.58389
X-30.82193Y-7.08389
X-30.82193Y-5.5839
X-30.82193Y-2.5839
X-30.82193Y1.9161
X-30.82193Y10.9161
X-30.82193Y12.4161
X-30.82193Y13.9161
X-29.32194Y-25.08389
X-29.32194Y-23.58389
X-29.32194Y-16.08389
X-29.32194Y-7.08389
X-29.32194Y-5.5839
X-29.32194Y-4.0839
X-29.32194Y10.9161
X-29.32194Y12.4161
X-29.32194Y13.9161
X-27.82194Y-25.08389
X-27.82194Y-23.58389
X-27.82194Y9.4161
X-27.82194Y10.9161
X-27.82194Y12.4161
X-27.82194Y13.9161
X-26.32194Y-25.08389
X-26.32194Y-23.58389
X-26.32194Y-22.08389
X-26.32194Y3.4161
X-26.32194Y4.9161
X-26.32194Y12.4161
X-26.32194Y13.9161
X-24.82194Y-25.08389
X-24.82194Y-23.58389
X-24.82194Y-22.08389
X-24.82194Y-17.58389
X-24.82194Y-16.08389
X-24.82194Y13.9161
X-23.32194Y-25.08389
X-23.32194Y-17.58389
X-23.32194Y13.9161
X-21.82194Y-25.08389
X-21.82194Y-23.58389
X-21.82194Y-19.08389
X-21.82194Y-17.58389
X-21.82194Y1.9161
X-21.82194Y13.9161
X-20.32194Y-25.08389
X-20.32194Y-23.58389
X-20.32194Y9.4161
X-18.82194Y-25.08389
X-18.82194Y-23.58389
X-19.22194Y-19.56957
X-18.82194Y10.9161
X-17.32194Y-25.08389
X-17.32194Y-23.58389
X-17.32194Y-22.08389
X-17.32194Y6.4161
X-17.32194Y9.4161
X-15.82194Y-25.08389
X-15.82194Y-23.58389
X-15.82194Y-16.08389
X-15.82194Y4.9161
X-15.82194Y10.9161
X-15.82194Y12.4161
X-14.32194Y-25.08389
X-14.32194Y-23.58389
X-14.32194Y-22.08389
X-14.32194Y3.4161
X-14.32194Y4.9161
X-14.32194Y9.4161
X-14.32194Y10.9161
X-14.32194Y12.4161
X-12.82194Y-25.08389
X-12.82194Y-23.58389
X-12.82194Y-22.08389
X-12.82194Y3.4161
X-12.82194Y13.9161
X-11.32194Y-25.08389
X-11.32194Y-23.58389
X-11.32194Y-22.08389
X-11.32194Y-11.58389
X-11.32194Y-7.08389
X-11.32194Y-2.5839
X-11.32194Y10.9161
X-11.32194Y13.9161
X-9.82194Y-25.08389
X-9.82194Y-23.58389
X-9.82194Y1.9161
X-9.82194Y13.9161
X-8.32194Y-25.08389
X-8.32194Y-23.58389
X-8.32194Y-8.58389
X-8.32194Y-7.08389
X-8.32194Y3.4161
X-8.32194Y10.9161
X-8.32194Y12.4161
X-8.32194Y13.9161
X-6.82194Y-25.08389
X-6.82194Y-23.58389
X-6.82194Y-22.08389
X-6.82194Y-20.58389
X-6.82194Y-8.58389
X-6.82194Y-7.08389
X-6.82194Y12.4161
X-6.82194Y13.9161
X-5.32194Y-25.08389
X-5.32194Y-23.58389
X-5.32194Y-22.08389
X-5.32194Y-19.08389
X-5.32194Y-17.58389
X-5.32194Y-10.08389
X-5.32194Y-7.08389
X-5.32194Y-5.5839
X-5.32194Y-4.0839
X-5.32194Y7.9161
X-5.32194Y9.4161
X-5.32194Y10.9161
X-5.32194Y13.9161
X-3.82194Y-25.08389
X-3.82194Y-19.08389
X-3.82194Y-17.58389
X-3.82194Y-7.08389
X-3.82194Y-5.5839
X-3.82194Y-4.0839
X-3.82194Y1.9161
X-3.82194Y4.9161
X-3.82194Y6.4161
X-3.82194Y7.9161
X-3.82194Y9.4161
X-2.32194Y-19.08389
X-2.32194Y-8.58389
X-2.32194Y-7.08389
X-2.32194Y-5.5839
X-2.32194Y6.4161
X-2.32194Y7.9161
X-2.32194Y9.4161
X-0.82194Y-19.08389
X-0.82194Y-17.58389
X-0.82194Y-13.08389
X-0.82194Y-10.08389
X-0.82194Y-8.58389
X-0.82194Y-7.08389
X-0.82194Y6.4161
X-0.82194Y7.9161
X-0.82194Y9.4161
X0.67806Y-25.08389
X0.67806Y-5.5839
X-23.10001Y-14.30001
X-23.09544Y-14.83
X-2.43463Y-20.39659
X-0.33463Y-22.49659
X-2.43463Y-24.59659
X-4.53463Y-22.49659
X-3.91956Y-21.01166
X-3.91956Y-23.98151
X-0.94971Y-23.98151
X-0.94971Y-21.01166
X-4.37477Y-21.69294
X-3.23828Y-24.43673
X-0.49449Y-23.30024
X-1.63098Y-20.55645
X-4.37478Y-23.30021
X-3.23825Y-20.55644
X-0.49448Y-21.69297
X-1.63101Y-24.43674
X-37.23463Y-20.39659
X-35.13463Y-22.49659
X-37.23463Y-24.59659
X-39.33463Y-22.49659
X-38.71956Y-21.01166
X-38.71956Y-23.98151
X-35.74971Y-23.98151
X-35.74971Y-21.01166
X-39.17478Y-21.69294
X-38.03828Y-24.43673
X-35.29449Y-23.30024
X-36.43098Y-20.55645
X-39.17479Y-23.30021
X-38.03826Y-20.55644
X-35.29448Y-21.69297
X-36.43101Y-24.43674
X-2.43463Y14.40341
X-0.33463Y12.30341
X-2.43463Y10.20341
X-4.53463Y12.30341
X-3.91956Y13.78834
X-3.91956Y10.81849
X-0.94971Y10.81849
X-0.94971Y13.78834
X-4.37477Y13.10706
X-3.23828Y10.36327
X-0.49449Y11.49976
X-1.63098Y14.24356
X-4.37478Y11.49979
X-3.23825Y14.24357
X-0.49448Y13.10704
X-1.63101Y10.36326
X-37.23463Y14.40341
X-35.13463Y12.30341
X-37.23463Y10.20341
X-39.33463Y12.30341
X-38.71956Y13.78834
X-38.71956Y10.81849
X-35.74971Y10.81849
X-35.74971Y13.78834
X-39.17478Y13.10706
X-38.03828Y10.36327
X-35.29449Y11.49976
X-36.43098Y14.24356
X-39.17479Y11.49979
X-38.03826Y14.24357
X-35.29448Y13.10704
X-36.43101Y10.36326
T02
X-26.52356Y8.67209
X-23.73123Y11.96408
X-10.71236Y11.88497
X-13.13125Y11.61408
X-12.86782Y10.3888
X-30.32994Y-22.56995
X-32.38994Y-21.26996
X-19.51033Y1.25025
X-13.07962Y-5.90605
T03
X-34.69856Y1.54435
X-33.76035Y4.72309
X-32.37897Y5.83258
X-33.75555Y5.83258
X-32.40259Y7.75854
X-30.96177Y7.79326
T04
X-6.57736Y10.23156
X-19.95623Y11.65626
M30