G04 Layer: BottomSolderMaskLayer*
G04 EasyEDA Pro v2.2.28.1, 2024-10-10 19:46:05*
G04 Gerber Generator version 0.3*
G04 Scale: 100 percent, Rotated: No, Reflected: No*
G04 Dimensions in millimeters*
G04 Leading zeros omitted, absolute positions, 3 integers and 5 decimals*
%FSLAX35Y35*%
%MOMM*%
%AMRoundRect*1,1,$1,$2,$3*1,1,$1,$4,$5*1,1,$1,0-$2,0-$3*1,1,$1,0-$4,0-$5*20,1,$1,$2,$3,$4,$5,0*20,1,$1,$4,$5,0-$2,0-$3,0*20,1,$1,0-$2,0-$3,0-$4,0-$5,0*20,1,$1,0-$4,0-$5,$2,$3,0*4,1,4,$2,$3,$4,$5,0-$2,0-$3,0-$4,0-$5,$2,$3,0*%
%ADD10C,3.0*%
%ADD11C,0.3*%
%ADD12C,1.602*%
%ADD13C,5.302*%
%ADD14RoundRect,0.0956X-1.03721X1.03221X1.03721X1.03221*%
%ADD15R,1.05X1.6*%
%ADD16R,1.6X1.05*%
%ADD17R,1.05X1.6*%
%ADD18O,1.1928X0.46561*%
%ADD19O,1.18859X0.46561*%
%ADD20O,0.46561X1.18859*%
%ADD21RoundRect,0.09852X1.57654X-1.57654X-1.57654X-1.57654*%
%ADD22RoundRect,0.08875X-0.30643X0.60642X0.30643X0.60642*%
%ADD23RoundRect,0.09874X2.15143X1.70143X2.15143X-1.70143*%
%ADD24RoundRect,0.09091X0.40535X-0.38635X-0.40535X-0.38635*%
%ADD25RoundRect,0.09091X0.38635X0.40535X0.38635X-0.40535*%
%ADD26RoundRect,0.09091X-0.38635X-0.40535X-0.38635X0.40535*%
%ADD27RoundRect,0.09091X-0.40535X0.38635X0.40535X0.38635*%
%ADD28RoundRect,0.09131X0.40514X-0.45514X-0.40514X-0.45514*%
%ADD29RoundRect,0.09131X-0.40514X0.45514X0.40514X0.45514*%
%ADD30RoundRect,0.09131X-0.45514X-0.40514X-0.45514X0.40514*%
%ADD31RoundRect,0.09131X0.45514X0.40514X0.45514X-0.40514*%
%ADD32RoundRect,0.0858X0.2329X-0.2579X-0.2329X-0.2579*%
%ADD33RoundRect,0.0858X-0.2329X0.2579X0.2329X0.2579*%
%ADD34RoundRect,0.09138X-0.40835X0.43712X0.40835X0.43712*%
%ADD35R,1.2X1.4*%
%ADD36RoundRect,0.09131X0.40519X0.52965X0.40519X-0.52965*%
%ADD37RoundRect,0.0895X0.4061X0.33117X0.4061X-0.33117*%
%ADD38RoundRect,0.09131X0.40519X0.52965X0.40519X-0.52965*%
%ADD39RoundRect,0.0895X0.4061X0.33117X0.4061X-0.33117*%
%ADD40RoundRect,0.09424X-0.60368X0.70368X0.60368X0.70368*%
%ADD41C,1.46*%
%ADD42RoundRect,0.1X0.05X0.3875X0.05X-0.3875*%
%ADD43RoundRect,0.1X0.3875X0.05X0.3875X-0.05*%
%ADD44RoundRect,0.288X1.456X1.456X1.456X-1.456*%
G75*


G04 Text Start*
G36*
G01X-3899447Y-899363D02*
G01X-3900674Y-899363D01*
G01X-3900674Y-838817D01*
G01X-3881038Y-838817D01*
G01X-3881038Y-872363D01*
G01X-3880219Y-872158D01*
G01X-3878788Y-871545D01*
G01X-3877151Y-870726D01*
G01X-3875719Y-869908D01*
G01X-3872856Y-867863D01*
G01X-3869788Y-865408D01*
G01X-3868765Y-864386D01*
G01X-3866719Y-862749D01*
G01X-3856492Y-852522D01*
G01X-3853629Y-850067D01*
G01X-3852606Y-849045D01*
G01X-3850969Y-847817D01*
G01X-3849128Y-846386D01*
G01X-3845447Y-843931D01*
G01X-3843606Y-842908D01*
G01X-3841969Y-842090D01*
G01X-3840128Y-841272D01*
G01X-3838083Y-840454D01*
G01X-3836038Y-839840D01*
G01X-3834197Y-839431D01*
G01X-3831742Y-839022D01*
G01X-3828060Y-838613D01*
G01X-3825197Y-838408D01*
G01X-3823560Y-838613D01*
G01X-3819879Y-839022D01*
G01X-3817833Y-839636D01*
G01X-3815174Y-840454D01*
G01X-3812924Y-841272D01*
G01X-3811083Y-842295D01*
G01X-3809242Y-843522D01*
G01X-3807810Y-844749D01*
G01X-3804742Y-847817D01*
G01X-3803924Y-848840D01*
G01X-3803106Y-850272D01*
G01X-3802083Y-852113D01*
G01X-3801265Y-853749D01*
G01X-3800651Y-855386D01*
G01X-3800038Y-857226D01*
G01X-3799424Y-859886D01*
G01X-3799015Y-862340D01*
G01X-3798810Y-868067D01*
G01X-3799015Y-873795D01*
G01X-3799424Y-876045D01*
G01X-3800038Y-878499D01*
G01X-3801265Y-881772D01*
G01X-3802083Y-883613D01*
G01X-3802901Y-885045D01*
G01X-3803924Y-886477D01*
G01X-3805151Y-887908D01*
G01X-3808219Y-890976D01*
G01X-3809447Y-891999D01*
G01X-3811083Y-893022D01*
G01X-3812924Y-894045D01*
G01X-3814560Y-894863D01*
G01X-3815992Y-895476D01*
G01X-3817629Y-896090D01*
G01X-3819674Y-896704D01*
G01X-3821515Y-897113D01*
G01X-3823560Y-897522D01*
G01X-3826015Y-897931D01*
G01X-3829287Y-898136D01*
G01X-3832151Y-898340D01*
G01X-3833788Y-898545D01*
G01X-3834810Y-898545D01*
G01X-3834810Y-877272D01*
G01X-3831333Y-877272D01*
G01X-3827242Y-877067D01*
G01X-3824378Y-876658D01*
G01X-3822742Y-876249D01*
G01X-3821106Y-875636D01*
G01X-3819879Y-875022D01*
G01X-3818856Y-874408D01*
G01X-3817629Y-872976D01*
G01X-3816606Y-870726D01*
G01X-3816197Y-868885D01*
G01X-3815992Y-867454D01*
G01X-3816401Y-865817D01*
G01X-3817219Y-864181D01*
G01X-3818651Y-862749D01*
G01X-3820697Y-861726D01*
G01X-3823560Y-861113D01*
G01X-3827242Y-860908D01*
G01X-3829697Y-861113D01*
G01X-3833992Y-862545D01*
G01X-3835833Y-863363D01*
G01X-3838697Y-864999D01*
G01X-3839924Y-865817D01*
G01X-3842788Y-867863D01*
G01X-3844424Y-869090D01*
G01X-3845856Y-870317D01*
G01X-3846879Y-871135D01*
G01X-3851992Y-876249D01*
G01X-3854038Y-877885D01*
G01X-3857106Y-880954D01*
G01X-3858742Y-882181D01*
G01X-3862833Y-885454D01*
G01X-3864674Y-886885D01*
G01X-3870197Y-890567D01*
G01X-3873878Y-892408D01*
G01X-3875310Y-893227D01*
G01X-3876947Y-894045D01*
G01X-3878992Y-894863D01*
G01X-3880833Y-895681D01*
G01X-3882470Y-896295D01*
G01X-3884106Y-896704D01*
G01X-3885947Y-897317D01*
G01X-3888606Y-897931D01*
G01X-3890651Y-898340D01*
G01X-3893106Y-898749D01*
G01X-3895969Y-898954D01*
G01X-3897606Y-899158D01*
G01X-3899447Y-899363D01*
G37*
G36*
G01X-3834606Y-825931D02*
G01X-3851583Y-826136D01*
G01X-3868560Y-825931D01*
G01X-3875106Y-825522D01*
G01X-3878788Y-825113D01*
G01X-3883288Y-824295D01*
G01X-3885333Y-823681D01*
G01X-3887787Y-822863D01*
G01X-3889424Y-822045D01*
G01X-3891060Y-821022D01*
G01X-3892492Y-819999D01*
G01X-3893515Y-819181D01*
G01X-3895560Y-817136D01*
G01X-3896379Y-816113D01*
G01X-3896992Y-815090D01*
G01X-3898015Y-813658D01*
G01X-3899242Y-811613D01*
G01X-3900060Y-809772D01*
G01X-3900674Y-808340D01*
G01X-3901288Y-806499D01*
G01X-3901697Y-804658D01*
G01X-3902515Y-801385D01*
G01X-3902712Y-795863D01*
G01X-3884719Y-795863D01*
G01X-3884515Y-797704D01*
G01X-3884106Y-798726D01*
G01X-3883288Y-799954D01*
G01X-3881856Y-800977D01*
G01X-3879606Y-801999D01*
G01X-3876333Y-802613D01*
G01X-3872651Y-803022D01*
G01X-3867742Y-803226D01*
G01X-3867742Y-803226D01*
G01X-3864060Y-803431D01*
G01X-3850151Y-803635D01*
G01X-3836242Y-803431D01*
G01X-3827651Y-803022D01*
G01X-3823969Y-802613D01*
G01X-3822128Y-802204D01*
G01X-3820288Y-801590D01*
G01X-3819060Y-800772D01*
G01X-3818038Y-799749D01*
G01X-3817219Y-798317D01*
G01X-3816810Y-795249D01*
G01X-3817219Y-792386D01*
G01X-3818038Y-791158D01*
G01X-3819469Y-790136D01*
G01X-3821106Y-789317D01*
G01X-3823356Y-788704D01*
G01X-3825606Y-788295D01*
G01X-3829697Y-787886D01*
G01X-3851174Y-787681D01*
G01X-3872651Y-787886D01*
G01X-3876742Y-788295D01*
G01X-3878788Y-788704D01*
G01X-3880833Y-789317D01*
G01X-3882060Y-790136D01*
G01X-3883288Y-791363D01*
G01X-3884310Y-793204D01*
G01X-3884719Y-795863D01*
G01X-3902712Y-795863D01*
G01X-3902719Y-795658D01*
G01X-3902515Y-789931D01*
G01X-3902106Y-787681D01*
G01X-3901492Y-785227D01*
G01X-3900265Y-781545D01*
G01X-3899447Y-779908D01*
G01X-3897810Y-777045D01*
G01X-3896583Y-775204D01*
G01X-3894947Y-773158D01*
G01X-3893310Y-771726D01*
G01X-3892083Y-770908D01*
G01X-3891060Y-770090D01*
G01X-3889833Y-769272D01*
G01X-3887992Y-768454D01*
G01X-3885947Y-767635D01*
G01X-3883492Y-767022D01*
G01X-3881242Y-766613D01*
G01X-3878788Y-766204D01*
G01X-3875924Y-765795D01*
G01X-3873470Y-765590D01*
G01X-3871424Y-765386D01*
G01X-3863651Y-764976D01*
G01X-3848720Y-764772D01*
G01X-3833788Y-764976D01*
G01X-3827242Y-765386D01*
G01X-3823560Y-765795D01*
G01X-3819060Y-766613D01*
G01X-3817015Y-767227D01*
G01X-3814765Y-768045D01*
G01X-3812924Y-768863D01*
G01X-3811083Y-769885D01*
G01X-3809242Y-771113D01*
G01X-3807810Y-772340D01*
G01X-3806788Y-773363D01*
G01X-3805560Y-774795D01*
G01X-3803515Y-777658D01*
G01X-3802288Y-779704D01*
G01X-3801469Y-781545D01*
G01X-3800856Y-783181D01*
G01X-3800242Y-785227D01*
G01X-3799833Y-787067D01*
G01X-3799424Y-789113D01*
G01X-3799015Y-791567D01*
G01X-3798810Y-796272D01*
G01X-3799015Y-800567D01*
G01X-3799424Y-803431D01*
G01X-3800242Y-806704D01*
G01X-3800856Y-808340D01*
G01X-3801674Y-810385D01*
G01X-3802697Y-812226D01*
G01X-3803719Y-813863D01*
G01X-3804538Y-815090D01*
G01X-3805356Y-816113D01*
G01X-3808424Y-819181D01*
G01X-3810060Y-820408D01*
G01X-3812106Y-821636D01*
G01X-3813742Y-822454D01*
G01X-3815378Y-823067D01*
G01X-3817219Y-823681D01*
G01X-3819674Y-824295D01*
G01X-3821924Y-824704D01*
G01X-3824378Y-825113D01*
G01X-3828060Y-825522D01*
G01X-3831947Y-825727D01*
G01X-3834606Y-825931D01*
G37*
G36*
G01X-3894947Y-754136D02*
G01X-3896787Y-754340D01*
G01X-3899038Y-754545D01*
G01X-3900674Y-754545D01*
G01X-3900674Y-693999D01*
G01X-3881038Y-693999D01*
G01X-3881038Y-727545D01*
G01X-3880015Y-727340D01*
G01X-3878174Y-726522D01*
G01X-3874901Y-724477D01*
G01X-3873470Y-723454D01*
G01X-3870197Y-720999D01*
G01X-3869174Y-719976D01*
G01X-3867128Y-718340D01*
G01X-3856901Y-708113D01*
G01X-3854447Y-706067D01*
G01X-3853424Y-705045D01*
G01X-3849333Y-701772D01*
G01X-3847901Y-700749D01*
G01X-3846060Y-699522D01*
G01X-3844015Y-698295D01*
G01X-3841969Y-697272D01*
G01X-3839924Y-696454D01*
G01X-3837674Y-695636D01*
G01X-3835015Y-694817D01*
G01X-3832765Y-694408D01*
G01X-3831333Y-694204D01*
G01X-3826833Y-693795D01*
G01X-3825197Y-693795D01*
G01X-3822538Y-693999D01*
G01X-3820288Y-694204D01*
G01X-3818447Y-694613D01*
G01X-3816401Y-695226D01*
G01X-3814765Y-695840D01*
G01X-3812924Y-696658D01*
G01X-3810879Y-697681D01*
G01X-3809447Y-698704D01*
G01X-3807401Y-700340D01*
G01X-3805356Y-702385D01*
G01X-3804538Y-703408D01*
G01X-3803515Y-704840D01*
G01X-3802492Y-706476D01*
G01X-3801674Y-708113D01*
G01X-3800856Y-709954D01*
G01X-3800242Y-711795D01*
G01X-3799833Y-713431D01*
G01X-3799015Y-717522D01*
G01X-3798810Y-723249D01*
G01X-3799015Y-728976D01*
G01X-3799424Y-731226D01*
G01X-3800038Y-733681D01*
G01X-3800651Y-735522D01*
G01X-3801265Y-737158D01*
G01X-3802083Y-738795D01*
G01X-3802901Y-740226D01*
G01X-3803924Y-741658D01*
G01X-3805151Y-743090D01*
G01X-3806788Y-745136D01*
G01X-3808424Y-746363D01*
G01X-3810265Y-747795D01*
G01X-3812106Y-748817D01*
G01X-3815378Y-750454D01*
G01X-3817424Y-751272D01*
G01X-3819674Y-751885D01*
G01X-3821515Y-752295D01*
G01X-3823151Y-752704D01*
G01X-3825606Y-753113D01*
G01X-3828265Y-753317D01*
G01X-3830106Y-753522D01*
G01X-3832765Y-753726D01*
G01X-3834810Y-753726D01*
G01X-3834810Y-732454D01*
G01X-3831128Y-732454D01*
G01X-3826833Y-732249D01*
G01X-3823969Y-731840D01*
G01X-3822128Y-731226D01*
G01X-3820083Y-730408D01*
G01X-3818447Y-729181D01*
G01X-3817219Y-727545D01*
G01X-3816401Y-725295D01*
G01X-3815992Y-723045D01*
G01X-3816197Y-721613D01*
G01X-3816810Y-719976D01*
G01X-3817833Y-718545D01*
G01X-3819060Y-717727D01*
G01X-3820901Y-716908D01*
G01X-3823969Y-716295D01*
G01X-3827242Y-716090D01*
G01X-3829287Y-716295D01*
G01X-3830924Y-716704D01*
G01X-3832765Y-717317D01*
G01X-3836447Y-718954D01*
G01X-3837879Y-719772D01*
G01X-3839515Y-720795D01*
G01X-3841356Y-722022D01*
G01X-3842788Y-723045D01*
G01X-3844833Y-724681D01*
G01X-3845856Y-725704D01*
G01X-3847901Y-727340D01*
G01X-3851992Y-731431D01*
G01X-3854856Y-733886D01*
G01X-3856901Y-735931D01*
G01X-3859765Y-738386D01*
G01X-3864878Y-742477D01*
G01X-3866106Y-743090D01*
G01X-3867742Y-744113D01*
G01X-3869583Y-745340D01*
G01X-3871424Y-746363D01*
G01X-3874288Y-747999D01*
G01X-3875924Y-748817D01*
G01X-3877765Y-749636D01*
G01X-3881856Y-751272D01*
G01X-3884310Y-752090D01*
G01X-3886560Y-752704D01*
G01X-3888197Y-753113D01*
G01X-3890242Y-753522D01*
G01X-3892697Y-753931D01*
G01X-3894947Y-754136D01*
G37*
G36*
G01X-3872447Y-682954D02*
G01X-3881447Y-682954D01*
G01X-3881447Y-649408D01*
G01X-3900674Y-649408D01*
G01X-3900674Y-646545D01*
G01X-3863856Y-646545D01*
G01X-3863856Y-655545D01*
G01X-3863651Y-664749D01*
G01X-3862629Y-664749D01*
G01X-3861197Y-664136D01*
G01X-3857515Y-662499D01*
G01X-3855878Y-661681D01*
G01X-3853833Y-660863D01*
G01X-3852197Y-660045D01*
G01X-3848515Y-658408D01*
G01X-3846879Y-657590D01*
G01X-3844833Y-656772D01*
G01X-3843197Y-655954D01*
G01X-3839515Y-654317D01*
G01X-3837879Y-653499D01*
G01X-3835833Y-652681D01*
G01X-3834197Y-651863D01*
G01X-3831333Y-650635D01*
G01X-3829697Y-649817D01*
G01X-3827651Y-648999D01*
G01X-3826015Y-648181D01*
G01X-3824583Y-647363D01*
G01X-3824123Y-647005D01*
G01X-3824378Y-646749D01*
G01X-3844424Y-646545D01*
G01X-3863856Y-646545D01*
G01X-3863856Y-646545D01*
G01X-3900674Y-646545D01*
G01X-3900674Y-627726D01*
G01X-3881447Y-627726D01*
G01X-3881447Y-619136D01*
G01X-3880424Y-618931D01*
G01X-3871629Y-618726D01*
G01X-3863856Y-618726D01*
G01X-3863856Y-627726D01*
G01X-3800447Y-627726D01*
G01X-3800447Y-650635D01*
G01X-3801469Y-651045D01*
G01X-3808015Y-654317D01*
G01X-3811697Y-656363D01*
G01X-3818242Y-659635D01*
G01X-3821106Y-661272D01*
G01X-3827651Y-664545D01*
G01X-3831333Y-666590D01*
G01X-3837879Y-669863D01*
G01X-3841560Y-671908D01*
G01X-3848106Y-675181D01*
G01X-3851788Y-677226D01*
G01X-3858333Y-680499D01*
G01X-3860174Y-681522D01*
G01X-3862219Y-682545D01*
G01X-3872447Y-682954D01*
G37*
G36*
G01X-3852401Y-572499D02*
G01X-3872856Y-572499D01*
G01X-3872856Y-531590D01*
G01X-3852401Y-531590D01*
G01X-3852401Y-572499D01*
G37*
G36*
G01X-3799219Y-481272D02*
G01X-3900674Y-481272D01*
G01X-3900674Y-463477D01*
G01X-3900588Y-455704D01*
G01X-3882470Y-455704D01*
G01X-3882060Y-457135D01*
G01X-3849947Y-457545D01*
G01X-3818038Y-457545D01*
G01X-3818038Y-454681D01*
G01X-3818242Y-451204D01*
G01X-3818651Y-449158D01*
G01X-3819265Y-447113D01*
G01X-3820288Y-445476D01*
G01X-3821719Y-444045D01*
G01X-3823151Y-443226D01*
G01X-3825197Y-442408D01*
G01X-3827447Y-441999D01*
G01X-3828879Y-441795D01*
G01X-3837060Y-441386D01*
G01X-3849742Y-441181D01*
G01X-3862424Y-441386D01*
G01X-3871833Y-441795D01*
G01X-3875106Y-442204D01*
G01X-3876742Y-442818D01*
G01X-3878788Y-444045D01*
G01X-3880424Y-445886D01*
G01X-3881447Y-447931D01*
G01X-3882060Y-450386D01*
G01X-3882470Y-453249D01*
G01X-3882470Y-455704D01*
G01X-3882470Y-455704D01*
G01X-3900588Y-455704D01*
G01X-3900469Y-445067D01*
G01X-3900060Y-441386D01*
G01X-3899651Y-438522D01*
G01X-3898833Y-435249D01*
G01X-3898220Y-433613D01*
G01X-3897401Y-431772D01*
G01X-3896379Y-429931D01*
G01X-3894947Y-427886D01*
G01X-3893310Y-425840D01*
G01X-3891878Y-424613D01*
G01X-3889833Y-422977D01*
G01X-3885333Y-420727D01*
G01X-3883697Y-420113D01*
G01X-3881856Y-419499D01*
G01X-3880219Y-419090D01*
G01X-3878788Y-418886D01*
G01X-3877151Y-418476D01*
G01X-3875310Y-418272D01*
G01X-3873878Y-418067D01*
G01X-3869379Y-417658D01*
G01X-3859151Y-417249D01*
G01X-3849538Y-417045D01*
G01X-3839924Y-417249D01*
G01X-3829697Y-417658D01*
G01X-3824788Y-418067D01*
G01X-3821924Y-418476D01*
G01X-3820288Y-418886D01*
G01X-3818038Y-419499D01*
G01X-3815583Y-420317D01*
G01X-3813742Y-421136D01*
G01X-3812106Y-421954D01*
G01X-3810060Y-423181D01*
G01X-3808015Y-424817D01*
G01X-3806583Y-426249D01*
G01X-3805356Y-427886D01*
G01X-3803924Y-429931D01*
G01X-3802901Y-431977D01*
G01X-3802083Y-433818D01*
G01X-3801469Y-435863D01*
G01X-3801060Y-437704D01*
G01X-3800651Y-439340D01*
G01X-3800242Y-441795D01*
G01X-3800038Y-444045D01*
G01X-3799833Y-445476D01*
G01X-3799424Y-453249D01*
G01X-3799219Y-467568D01*
G01X-3799219Y-481272D01*
G37*
G36*
G01X-3799424Y-348522D02*
G01X-3799219Y-376136D01*
G01X-3799219Y-402726D01*
G01X-3900674Y-402726D01*
G01X-3900674Y-347499D01*
G01X-3880219Y-347499D01*
G01X-3880219Y-378999D01*
G01X-3858128Y-378999D01*
G01X-3858128Y-349954D01*
G01X-3837674Y-349954D01*
G01X-3837674Y-378999D01*
G01X-3818856Y-378999D01*
G01X-3818856Y-347499D01*
G01X-3799628Y-347499D01*
G01X-3799424Y-348522D01*
G37*
G36*
G01X-3867333Y-335840D02*
G01X-3872651Y-336045D01*
G01X-3877560Y-335840D01*
G01X-3880424Y-335431D01*
G01X-3882470Y-335022D01*
G01X-3884719Y-334408D01*
G01X-3886560Y-333795D01*
G01X-3888197Y-333181D01*
G01X-3889833Y-332363D01*
G01X-3891265Y-331545D01*
G01X-3892697Y-330522D01*
G01X-3894129Y-329295D01*
G01X-3895151Y-328477D01*
G01X-3895969Y-327658D01*
G01X-3896787Y-326636D01*
G01X-3897810Y-325408D01*
G01X-3898628Y-323976D01*
G01X-3899651Y-322340D01*
G01X-3900469Y-320499D01*
G01X-3901083Y-318863D01*
G01X-3901697Y-316818D01*
G01X-3902106Y-314977D01*
G01X-3902719Y-312727D01*
G01X-3903129Y-305363D01*
G01X-3902924Y-299022D01*
G01X-3902515Y-296772D01*
G01X-3901901Y-294317D01*
G01X-3901288Y-292476D01*
G01X-3900674Y-290840D01*
G01X-3899856Y-289204D01*
G01X-3898833Y-287363D01*
G01X-3897810Y-285931D01*
G01X-3896583Y-284295D01*
G01X-3895151Y-282863D01*
G01X-3893106Y-281227D01*
G01X-3891469Y-279999D01*
G01X-3889424Y-278772D01*
G01X-3887787Y-277954D01*
G01X-3886356Y-277340D01*
G01X-3884719Y-276726D01*
G01X-3882470Y-276113D01*
G01X-3878379Y-275295D01*
G01X-3876128Y-275090D01*
G01X-3874697Y-274886D01*
G01X-3871219Y-274681D01*
G01X-3867742Y-274886D01*
G01X-3864470Y-275295D01*
G01X-3862629Y-275704D01*
G01X-3860583Y-276317D01*
G01X-3858742Y-276931D01*
G01X-3857106Y-277545D01*
G01X-3855469Y-278363D01*
G01X-3853424Y-279590D01*
G01X-3851788Y-280817D01*
G01X-3849742Y-282863D01*
G01X-3846674Y-286545D01*
G01X-3845856Y-287772D01*
G01X-3845038Y-288795D01*
G01X-3844015Y-290226D01*
G01X-3840333Y-295749D01*
G01X-3839106Y-297795D01*
G01X-3835424Y-303317D01*
G01X-3834401Y-304749D01*
G01X-3833174Y-306386D01*
G01X-3830720Y-308840D01*
G01X-3829287Y-310067D01*
G01X-3827651Y-311090D01*
G01X-3826015Y-311908D01*
G01X-3824174Y-312317D01*
G01X-3822947Y-312522D01*
G01X-3821924Y-312522D01*
G01X-3820492Y-312317D01*
G01X-3818856Y-311908D01*
G01X-3817424Y-311090D01*
G01X-3816401Y-310067D01*
G01X-3815583Y-309045D01*
G01X-3814765Y-307204D01*
G01X-3814356Y-304749D01*
G01X-3814560Y-303113D01*
G01X-3815174Y-301681D01*
G01X-3816197Y-300454D01*
G01X-3817219Y-299431D01*
G01X-3818447Y-298613D01*
G01X-3820083Y-297999D01*
G01X-3821719Y-297590D01*
G01X-3823151Y-297385D01*
G01X-3827242Y-296977D01*
G01X-3828469Y-296567D01*
G01X-3828930Y-293857D01*
G01X-3829083Y-286136D01*
G01X-3829083Y-275908D01*
G01X-3828060Y-275704D01*
G01X-3824788Y-275499D01*
G01X-3821924Y-275704D01*
G01X-3818242Y-276113D01*
G01X-3814970Y-276931D01*
G01X-3813333Y-277545D01*
G01X-3811288Y-278363D01*
G01X-3809651Y-279181D01*
G01X-3808015Y-280204D01*
G01X-3806583Y-281431D01*
G01X-3804538Y-283068D01*
G01X-3803310Y-284704D01*
G01X-3801879Y-286545D01*
G01X-3800856Y-288386D01*
G01X-3800038Y-290022D01*
G01X-3799219Y-291863D01*
G01X-3798401Y-294522D01*
G01X-3797788Y-297385D01*
G01X-3797378Y-299840D01*
G01X-3797174Y-306181D01*
G01X-3797378Y-312113D01*
G01X-3798197Y-315795D01*
G01X-3798810Y-317636D01*
G01X-3799628Y-319681D01*
G01X-3800651Y-321522D01*
G01X-3801879Y-323567D01*
G01X-3802901Y-324999D01*
G01X-3803719Y-326022D01*
G01X-3805765Y-328067D01*
G01X-3806788Y-328886D01*
G01X-3807810Y-329499D01*
G01X-3809242Y-330522D01*
G01X-3812924Y-332363D01*
G01X-3814765Y-332976D01*
G01X-3816606Y-333386D01*
G01X-3818242Y-333795D01*
G01X-3820288Y-334204D01*
G01X-3822947Y-334408D01*
G01X-3824992Y-334613D01*
G01X-3826015Y-334613D01*
G01X-3831333Y-334204D01*
G01X-3833378Y-333795D01*
G01X-3835629Y-333181D01*
G01X-3839310Y-331954D01*
G01X-3842992Y-329908D01*
G01X-3844219Y-329090D01*
G01X-3845242Y-328272D01*
G01X-3847288Y-326226D01*
G01X-3850356Y-322545D01*
G01X-3851174Y-321317D01*
G01X-3851992Y-320295D01*
G01X-3854447Y-317022D01*
G01X-3855469Y-315590D01*
G01X-3859151Y-310067D01*
G01X-3862015Y-305977D01*
G01X-3863037Y-304545D01*
G01X-3863856Y-303522D01*
G01X-3865901Y-301476D01*
G01X-3867333Y-300249D01*
G01X-3868969Y-299226D01*
G01X-3870606Y-298408D01*
G01X-3872242Y-297795D01*
G01X-3874492Y-297385D01*
G01X-3876742Y-297385D01*
G01X-3878583Y-297795D01*
G01X-3880833Y-298613D01*
G01X-3882470Y-299636D01*
G01X-3883492Y-301067D01*
G01X-3884310Y-302908D01*
G01X-3884719Y-305567D01*
G01X-3884310Y-308226D01*
G01X-3883697Y-309658D01*
G01X-3882878Y-310681D01*
G01X-3881856Y-311704D01*
G01X-3880424Y-312522D01*
G01X-3877151Y-313340D01*
G01X-3875106Y-313749D01*
G01X-3870197Y-313954D01*
G01X-3866310Y-313954D01*
G01X-3866310Y-335636D01*
G01X-3867333Y-335840D01*
G37*
G36*
G01X-3799219Y-261999D02*
G01X-3900674Y-261999D01*
G01X-3900674Y-238272D01*
G01X-3799219Y-238272D01*
G01X-3799219Y-261999D01*
G37*
G36*
G01X-3835424Y-223340D02*
G01X-3850151Y-223545D01*
G01X-3864878Y-223340D01*
G01X-3871015Y-222931D01*
G01X-3874697Y-222522D01*
G01X-3877560Y-222113D01*
G01X-3881242Y-221295D01*
G01X-3883083Y-220681D01*
G01X-3885333Y-219863D01*
G01X-3887379Y-219045D01*
G01X-3889219Y-218022D01*
G01X-3890856Y-216999D01*
G01X-3892083Y-216181D01*
G01X-3893106Y-215363D01*
G01X-3896174Y-212295D01*
G01X-3897197Y-210863D01*
G01X-3898424Y-209022D01*
G01X-3899447Y-207386D01*
G01X-3900265Y-205545D01*
G01X-3901083Y-203499D01*
G01X-3901697Y-201249D01*
G01X-3902106Y-199204D01*
G01X-3902515Y-197568D01*
G01X-3902719Y-194295D01*
G01X-3902515Y-191431D01*
G01X-3902310Y-189999D01*
G01X-3901901Y-188363D01*
G01X-3901288Y-186522D01*
G01X-3900674Y-184886D01*
G01X-3899856Y-183249D01*
G01X-3899038Y-181818D01*
G01X-3896583Y-178749D01*
G01X-3895765Y-177317D01*
G01X-3895356Y-176499D01*
G01X-3897197Y-176295D01*
G01X-3899651Y-175886D01*
G01X-3900469Y-175067D01*
G01X-3900674Y-166886D01*
G01X-3900674Y-159317D01*
G01X-3845447Y-159317D01*
G01X-3845447Y-191636D01*
G01X-3863037Y-191636D01*
G01X-3863037Y-182226D01*
G01X-3868356Y-182226D01*
G01X-3874288Y-182431D01*
G01X-3877151Y-182840D01*
G01X-3878992Y-183454D01*
G01X-3881038Y-184477D01*
G01X-3882470Y-185499D01*
G01X-3883288Y-186522D01*
G01X-3883901Y-187954D01*
G01X-3884310Y-189590D01*
G01X-3884515Y-191022D01*
G01X-3884515Y-192249D01*
G01X-3884106Y-193886D01*
G01X-3883083Y-195931D01*
G01X-3881447Y-197158D01*
G01X-3880015Y-197772D01*
G01X-3877969Y-198386D01*
G01X-3875924Y-198795D01*
G01X-3872242Y-199204D01*
G01X-3864470Y-199613D01*
G01X-3849538Y-199817D01*
G01X-3834606Y-199613D01*
G01X-3826833Y-199204D01*
G01X-3823151Y-198795D01*
G01X-3821515Y-198386D01*
G01X-3819879Y-197772D01*
G01X-3818447Y-196954D01*
G01X-3817015Y-195522D01*
G01X-3815992Y-193272D01*
G01X-3815583Y-190408D01*
G01X-3815992Y-188158D01*
G01X-3816810Y-186727D01*
G01X-3818038Y-185499D01*
G01X-3819674Y-184681D01*
G01X-3821924Y-183863D01*
G01X-3824378Y-183454D01*
G01X-3826015Y-183249D01*
G01X-3829901Y-183045D01*
G01X-3833174Y-183045D01*
G01X-3833174Y-160545D01*
G01X-3831947Y-160545D01*
G01X-3828265Y-160136D01*
G01X-3826424Y-160340D01*
G01X-3821106Y-160749D01*
G01X-3817015Y-161567D01*
G01X-3812719Y-162999D01*
G01X-3810879Y-163818D01*
G01X-3809447Y-164636D01*
G01X-3807810Y-165658D01*
G01X-3806378Y-166681D01*
G01X-3803310Y-169749D01*
G01X-3802288Y-171181D01*
G01X-3801060Y-173022D01*
G01X-3800038Y-175067D01*
G01X-3799219Y-176908D01*
G01X-3798606Y-178749D01*
G01X-3798197Y-180386D01*
G01X-3797788Y-182431D01*
G01X-3797378Y-184886D01*
G01X-3797174Y-191022D01*
G01X-3797378Y-196749D01*
G01X-3797788Y-199613D01*
G01X-3798401Y-201454D01*
G01X-3799015Y-203499D01*
G01X-3799628Y-205136D01*
G01X-3800447Y-206976D01*
G01X-3801469Y-208817D01*
G01X-3802492Y-210454D01*
G01X-3803515Y-211681D01*
G01X-3805151Y-213727D01*
G01X-3806174Y-214749D01*
G01X-3807401Y-215772D01*
G01X-3808628Y-216590D01*
G01X-3809651Y-217408D01*
G01X-3810879Y-218227D01*
G01X-3812515Y-219045D01*
G01X-3814560Y-219863D01*
G01X-3817015Y-220681D01*
G01X-3819469Y-221295D01*
G01X-3821515Y-221704D01*
G01X-3826424Y-222522D01*
G01X-3828469Y-222727D01*
G01X-3830106Y-222931D01*
G01X-3835424Y-223340D01*
G37*
G36*
G01X-3799219Y-143772D02*
G01X-3900674Y-143772D01*
G01X-3900674Y-122499D01*
G01X-3887992Y-122499D01*
G01X-3874697Y-122704D01*
G01X-3863651Y-123113D01*
G01X-3856697Y-123522D01*
G01X-3850969Y-123931D01*
G01X-3846060Y-124340D01*
G01X-3841560Y-124749D01*
G01X-3840128Y-124954D01*
G01X-3839566Y-124851D01*
G01X-3839515Y-124545D01*
G01X-3840742Y-123931D01*
G01X-3842583Y-123318D01*
G01X-3850765Y-120863D01*
G01X-3852606Y-120249D01*
G01X-3854242Y-119840D01*
G01X-3858538Y-118408D01*
G01X-3860788Y-117795D01*
G01X-3862629Y-117181D01*
G01X-3866719Y-115954D01*
G01X-3868560Y-115340D01*
G01X-3870197Y-114931D01*
G01X-3872038Y-114318D01*
G01X-3898628Y-106136D01*
G01X-3900265Y-105318D01*
G01X-3900674Y-92840D01*
G01X-3900674Y-80772D01*
G01X-3799219Y-80772D01*
G01X-3799219Y-101636D01*
G01X-3814356Y-101636D01*
G01X-3830106Y-101431D01*
G01X-3838697Y-101022D01*
G01X-3845651Y-100613D01*
G01X-3857924Y-99795D01*
G01X-3859356Y-99590D01*
G01X-3859918Y-99692D01*
G01X-3859969Y-99999D01*
G01X-3858538Y-100613D01*
G01X-3856492Y-101227D01*
G01X-3854651Y-101840D01*
G01X-3853015Y-102249D01*
G01X-3846265Y-104499D01*
G01X-3844015Y-105113D01*
G01X-3840333Y-106340D01*
G01X-3838697Y-106749D01*
G01X-3831947Y-108999D01*
G01X-3829697Y-109613D01*
G01X-3824174Y-111454D01*
G01X-3820083Y-112681D01*
G01X-3818242Y-113295D01*
G01X-3816606Y-113704D01*
G01X-3809856Y-115954D01*
G01X-3807606Y-116567D01*
G01X-3802083Y-118408D01*
G01X-3800447Y-119022D01*
G01X-3799782Y-119431D01*
G01X-3799424Y-120249D01*
G01X-3799219Y-132522D01*
G01X-3799219Y-143772D01*
G37*
G36*
G01X-3799424Y-9795D02*
G01X-3799219Y-37408D01*
G01X-3799219Y-63999D01*
G01X-3900674Y-63999D01*
G01X-3900674Y-8772D01*
G01X-3880219Y-8772D01*
G01X-3880219Y-40272D01*
G01X-3858128Y-40272D01*
G01X-3858128Y-11227D01*
G01X-3837674Y-11227D01*
G01X-3837674Y-40272D01*
G01X-3818856Y-40272D01*
G01X-3818856Y-8772D01*
G01X-3799628Y-8772D01*
G01X-3799424Y-9795D01*
G37*
G36*
G01X-3799219Y5955D02*
G01X-3900674Y5955D01*
G01X-3900674Y23955D01*
G01X-3900593Y31319D01*
G01X-3882470Y31319D01*
G01X-3882060Y30092D01*
G01X-3849947Y29682D01*
G01X-3818038Y29682D01*
G01X-3818038Y32546D01*
G01X-3818242Y36024D01*
G01X-3818651Y38069D01*
G01X-3819265Y40114D01*
G01X-3820083Y41546D01*
G01X-3821106Y42773D01*
G01X-3822128Y43592D01*
G01X-3823560Y44410D01*
G01X-3826015Y45024D01*
G01X-3828060Y45432D01*
G01X-3833378Y45842D01*
G01X-3849947Y46046D01*
G01X-3866515Y45842D01*
G01X-3872651Y45432D01*
G01X-3875515Y45024D01*
G01X-3877151Y44410D01*
G01X-3878583Y43387D01*
G01X-3879606Y42364D01*
G01X-3880629Y40933D01*
G01X-3881447Y39296D01*
G01X-3882060Y37251D01*
G01X-3882470Y33978D01*
G01X-3882470Y31319D01*
G01X-3882470Y31319D01*
G01X-3900593Y31319D01*
G01X-3900469Y42569D01*
G01X-3900060Y46251D01*
G01X-3899242Y50751D01*
G01X-3898628Y52592D01*
G01X-3897810Y54637D01*
G01X-3896992Y56478D01*
G01X-3896174Y57910D01*
G01X-3895356Y58933D01*
G01X-3894129Y60569D01*
G01X-3892697Y62001D01*
G01X-3889424Y64455D01*
G01X-3887787Y65478D01*
G01X-3885538Y66501D01*
G01X-3883492Y67319D01*
G01X-3881242Y67933D01*
G01X-3879197Y68341D01*
G01X-3877560Y68751D01*
G01X-3875106Y69160D01*
G01X-3872447Y69364D01*
G01X-3870606Y69569D01*
G01X-3862833Y69978D01*
G01X-3849538Y70182D01*
G01X-3836242Y69978D01*
G01X-3828060Y69569D01*
G01X-3823969Y69160D01*
G01X-3819469Y68341D01*
G01X-3817629Y67728D01*
G01X-3815378Y66910D01*
G01X-3813333Y66092D01*
G01X-3811492Y65069D01*
G01X-3810060Y64046D01*
G01X-3808424Y62819D01*
G01X-3805970Y60364D01*
G01X-3804947Y58933D01*
G01X-3803310Y56069D01*
G01X-3802492Y54432D01*
G01X-3801879Y52796D01*
G01X-3801265Y50955D01*
G01X-3800856Y49319D01*
G01X-3800651Y47887D01*
G01X-3800242Y45432D01*
G01X-3799833Y41751D01*
G01X-3799628Y37455D01*
G01X-3799424Y34387D01*
G01X-3799219Y19864D01*
G01X-3799219Y5955D01*
G37*
G36*
G01X-3900674Y144637D02*
G01X-3799219Y144637D01*
G01X-3799219Y120910D01*
G01X-3900674Y120910D01*
G01X-3900674Y144637D01*
G37*
G36*
G01X-3799219Y161001D02*
G01X-3900674Y161001D01*
G01X-3900674Y182273D01*
G01X-3885333Y182273D01*
G01X-3869379Y182069D01*
G01X-3860379Y181660D01*
G01X-3854242Y181251D01*
G01X-3848515Y180842D01*
G01X-3844015Y180432D01*
G01X-3841969Y180228D01*
G01X-3840538Y180637D01*
G01X-3841560Y181251D01*
G01X-3843401Y181864D01*
G01X-3851583Y184319D01*
G01X-3853424Y184933D01*
G01X-3855060Y185342D01*
G01X-3859356Y186773D01*
G01X-3861606Y187387D01*
G01X-3863447Y188001D01*
G01X-3867538Y189228D01*
G01X-3869379Y189842D01*
G01X-3871015Y190251D01*
G01X-3875310Y191683D01*
G01X-3877560Y192296D01*
G01X-3879401Y192910D01*
G01X-3883492Y194137D01*
G01X-3885333Y194751D01*
G01X-3886969Y195160D01*
G01X-3891265Y196592D01*
G01X-3893515Y197205D01*
G01X-3895356Y197819D01*
G01X-3899447Y199046D01*
G01X-3900469Y200069D01*
G01X-3900674Y212546D01*
G01X-3900674Y224410D01*
G01X-3799628Y224410D01*
G01X-3799424Y223387D01*
G01X-3799219Y212751D01*
G01X-3799219Y203137D01*
G01X-3811901Y203137D01*
G01X-3825197Y203341D01*
G01X-3835424Y203751D01*
G01X-3842788Y204160D01*
G01X-3849333Y204569D01*
G01X-3855469Y204978D01*
G01X-3857719Y205182D01*
G01X-3858896Y205080D01*
G01X-3859151Y204774D01*
G01X-3857924Y204160D01*
G01X-3856083Y203546D01*
G01X-3851992Y202319D01*
G01X-3848310Y201092D01*
G01X-3844219Y199864D01*
G01X-3840538Y198637D01*
G01X-3836447Y197410D01*
G01X-3832765Y196182D01*
G01X-3828674Y194955D01*
G01X-3826833Y194341D01*
G01X-3825197Y193933D01*
G01X-3818447Y191683D01*
G01X-3816197Y191069D01*
G01X-3810674Y189228D01*
G01X-3806583Y188001D01*
G01X-3804742Y187387D01*
G01X-3803106Y186978D01*
G01X-3801265Y186364D01*
G01X-3799628Y185546D01*
G01X-3799219Y173069D01*
G01X-3799219Y161001D01*
G37*
G36*
G01X-3838288Y275342D02*
G01X-3850356Y275137D01*
G01X-3862424Y275342D01*
G01X-3869379Y275751D01*
G01X-3873878Y276160D01*
G01X-3876742Y276569D01*
G01X-3880833Y277387D01*
G01X-3885129Y278819D01*
G01X-3887379Y279842D01*
G01X-3889424Y280864D01*
G01X-3890856Y281682D01*
G01X-3893924Y284137D01*
G01X-3894947Y285160D01*
G01X-3897401Y288228D01*
G01X-3898424Y289660D01*
G01X-3900265Y293342D01*
G01X-3900878Y294773D01*
G01X-3901288Y296205D01*
G01X-3901901Y298251D01*
G01X-3902515Y301933D01*
G01X-3902719Y304387D01*
G01X-3902515Y307251D01*
G01X-3902106Y310114D01*
G01X-3901492Y311955D01*
G01X-3900674Y314001D01*
G01X-3899651Y315842D01*
G01X-3898628Y317478D01*
G01X-3897401Y319114D01*
G01X-3895969Y320546D01*
G01X-3895151Y321569D01*
G01X-3895458Y322080D01*
G01X-3896787Y322387D01*
G01X-3899242Y322796D01*
G01X-3900265Y323205D01*
G01X-3900674Y331387D01*
G01X-3900674Y339364D01*
G01X-3845447Y339364D01*
G01X-3845447Y307455D01*
G01X-3863037Y307455D01*
G01X-3863037Y311955D01*
G01X-3863242Y315330D01*
G01X-3863856Y316455D01*
G01X-3865288Y316660D01*
G01X-3867538Y316864D01*
G01X-3869788Y316660D01*
G01X-3875515Y316251D01*
G01X-3877356Y315842D01*
G01X-3879197Y315228D01*
G01X-3880424Y314614D01*
G01X-3882060Y313592D01*
G01X-3883492Y311751D01*
G01X-3884106Y310114D01*
G01X-3884515Y308273D01*
G01X-3884515Y306432D01*
G01X-3884106Y304796D01*
G01X-3883288Y303364D01*
G01X-3882265Y302342D01*
G01X-3880833Y301319D01*
G01X-3878583Y300501D01*
G01X-3876538Y300092D01*
G01X-3875106Y299887D01*
G01X-3871015Y299478D01*
G01X-3849742Y299273D01*
G01X-3828469Y299478D01*
G01X-3823969Y299887D01*
G01X-3822128Y300296D01*
G01X-3820083Y300910D01*
G01X-3818242Y301933D01*
G01X-3817015Y303160D01*
G01X-3816401Y304387D01*
G01X-3815788Y306432D01*
G01X-3815583Y308887D01*
G01X-3815992Y310728D01*
G01X-3816810Y312160D01*
G01X-3818242Y313387D01*
G01X-3820492Y314410D01*
G01X-3822742Y315024D01*
G01X-3824788Y315432D01*
G01X-3827651Y315637D01*
G01X-3830106Y315842D01*
G01X-3831947Y316046D01*
G01X-3833174Y316046D01*
G01X-3833174Y338546D01*
G01X-3828879Y338546D01*
G01X-3823969Y338341D01*
G01X-3820697Y337933D01*
G01X-3816606Y337114D01*
G01X-3814765Y336501D01*
G01X-3812515Y335683D01*
G01X-3809651Y334251D01*
G01X-3808219Y333432D01*
G01X-3806788Y332410D01*
G01X-3805765Y331592D01*
G01X-3804947Y330774D01*
G01X-3804129Y329751D01*
G01X-3803106Y328728D01*
G01X-3802083Y327501D01*
G01X-3801265Y326069D01*
G01X-3799628Y322796D01*
G01X-3798810Y320751D01*
G01X-3798197Y318296D01*
G01X-3797378Y314205D01*
G01X-3797174Y311137D01*
G01X-3796970Y308682D01*
G01X-3796970Y307660D01*
G01X-3797378Y301933D01*
G01X-3798197Y297842D01*
G01X-3798810Y296001D01*
G01X-3799628Y293751D01*
G01X-3800447Y291705D01*
G01X-3801265Y290273D01*
G01X-3803310Y287205D01*
G01X-3804947Y285364D01*
G01X-3806378Y284137D01*
G01X-3807401Y283114D01*
G01X-3808628Y282092D01*
G01X-3809856Y281274D01*
G01X-3811288Y280455D01*
G01X-3812924Y279637D01*
G01X-3814765Y278819D01*
G01X-3817424Y278001D01*
G01X-3820288Y277387D01*
G01X-3824378Y276569D01*
G01X-3827651Y276160D01*
G01X-3830310Y275955D01*
G01X-3831742Y275751D01*
G01X-3838288Y275342D01*
G37*
G36*
G01X-3799424Y409114D02*
G01X-3799219Y381501D01*
G01X-3799219Y354910D01*
G01X-3900674Y354910D01*
G01X-3900674Y410137D01*
G01X-3880219Y410137D01*
G01X-3880219Y378637D01*
G01X-3858128Y378637D01*
G01X-3858128Y407682D01*
G01X-3837674Y407682D01*
G01X-3837674Y378637D01*
G01X-3818856Y378637D01*
G01X-3818856Y410137D01*
G01X-3799628Y410137D01*
G01X-3799424Y409114D01*
G37*
G36*
G01X-3799219Y424864D02*
G01X-3900674Y424864D01*
G01X-3900674Y448182D01*
G01X-3860174Y448182D01*
G01X-3860174Y450842D01*
G01X-3841765Y450842D01*
G01X-3841560Y448387D01*
G01X-3829083Y448182D01*
G01X-3816810Y448182D01*
G01X-3816810Y451660D01*
G01X-3817015Y455751D01*
G01X-3817424Y457592D01*
G01X-3818038Y459432D01*
G01X-3818856Y460864D01*
G01X-3819879Y462092D01*
G01X-3821106Y462910D01*
G01X-3822742Y463728D01*
G01X-3825197Y464341D01*
G01X-3828469Y464751D01*
G01X-3830924Y464751D01*
G01X-3834197Y464341D01*
G01X-3836038Y463728D01*
G01X-3837674Y462705D01*
G01X-3839310Y461069D01*
G01X-3840128Y459842D01*
G01X-3840742Y458205D01*
G01X-3841151Y456569D01*
G01X-3841560Y454523D01*
G01X-3841765Y450842D01*
G01X-3841765Y450842D01*
G01X-3860174Y450842D01*
G01X-3860174Y451660D01*
G01X-3860379Y455751D01*
G01X-3860788Y457592D01*
G01X-3861606Y459637D01*
G01X-3862629Y461069D01*
G01X-3864060Y462092D01*
G01X-3865697Y462910D01*
G01X-3867947Y463523D01*
G01X-3870197Y463933D01*
G01X-3875106Y464341D01*
G01X-3877765Y464546D01*
G01X-3880424Y464341D01*
G01X-3886356Y464137D01*
G01X-3892288Y464341D01*
G01X-3895969Y464751D01*
G01X-3898015Y465160D01*
G01X-3900060Y465774D01*
G01X-3900521Y469455D01*
G01X-3900674Y479683D01*
G01X-3900521Y489705D01*
G01X-3900060Y492773D01*
G01X-3898628Y491751D01*
G01X-3896787Y490728D01*
G01X-3894538Y489910D01*
G01X-3892083Y489296D01*
G01X-3890242Y488887D01*
G01X-3887379Y488478D01*
G01X-3882060Y488069D01*
G01X-3870606Y487660D01*
G01X-3866924Y487251D01*
G01X-3863242Y486433D01*
G01X-3861401Y485819D01*
G01X-3859560Y485001D01*
G01X-3857924Y484182D01*
G01X-3856492Y483364D01*
G01X-3855469Y482546D01*
G01X-3853424Y480501D01*
G01X-3852197Y479069D01*
G01X-3850969Y477228D01*
G01X-3850407Y476717D01*
G01X-3849947Y476819D01*
G01X-3848924Y478251D01*
G01X-3847697Y479683D01*
G01X-3846674Y480910D01*
G01X-3845242Y482342D01*
G01X-3843810Y483569D01*
G01X-3842788Y484387D01*
G01X-3838288Y486637D01*
G01X-3836447Y487251D01*
G01X-3834606Y487660D01*
G01X-3832969Y488069D01*
G01X-3830515Y488478D01*
G01X-3824992Y488683D01*
G01X-3820288Y488478D01*
G01X-3818242Y488069D01*
G01X-3815992Y487455D01*
G01X-3814151Y486842D01*
G01X-3812515Y486228D01*
G01X-3811083Y485410D01*
G01X-3809447Y484387D01*
G01X-3808015Y483364D01*
G01X-3805970Y481319D01*
G01X-3804742Y479887D01*
G01X-3802697Y476614D01*
G01X-3801879Y474569D01*
G01X-3801469Y472933D01*
G01X-3800856Y470887D01*
G01X-3800242Y467614D01*
G01X-3799833Y463933D01*
G01X-3799628Y458614D01*
G01X-3799424Y454523D01*
G01X-3799219Y439387D01*
G01X-3799219Y424864D01*
G37*
G36*
G01X-3799219Y504228D02*
G01X-3800242Y504023D01*
G01X-3850969Y503819D01*
G01X-3900674Y503819D01*
G01X-3900674Y526319D01*
G01X-3896787Y526319D01*
G01X-3892288Y526114D01*
G01X-3876742Y525705D01*
G01X-3860788Y525296D01*
G01X-3829697Y524478D01*
G01X-3827038Y524273D01*
G01X-3825555Y524376D01*
G01X-3825197Y524682D01*
G01X-3826219Y525092D01*
G01X-3827651Y525296D01*
G01X-3835833Y526932D01*
G01X-3839515Y527751D01*
G01X-3851788Y530205D01*
G01X-3855469Y531023D01*
G01X-3867742Y533478D01*
G01X-3871424Y534296D01*
G01X-3883697Y536751D01*
G01X-3887379Y537569D01*
G01X-3899651Y540023D01*
G01X-3900469Y540841D01*
G01X-3900674Y550046D01*
G01X-3900674Y558637D01*
G01X-3899651Y558637D01*
G01X-3898015Y558842D01*
G01X-3893924Y559660D01*
G01X-3892288Y560069D01*
G01X-3877969Y562933D01*
G01X-3875515Y563546D01*
G01X-3872447Y564160D01*
G01X-3870197Y564569D01*
G01X-3862015Y566205D01*
G01X-3858333Y567024D01*
G01X-3846060Y569478D01*
G01X-3842378Y570296D01*
G01X-3830106Y572751D01*
G01X-3826424Y573569D01*
G01X-3825401Y573978D01*
G01X-3825248Y574182D01*
G01X-3825606Y574387D01*
G01X-3827856Y574591D01*
G01X-3830106Y574387D01*
G01X-3846060Y573978D01*
G01X-3877151Y573160D01*
G01X-3893106Y572751D01*
G01X-3897197Y572546D01*
G01X-3900674Y572546D01*
G01X-3900674Y595046D01*
G01X-3799628Y595046D01*
G01X-3799424Y594023D01*
G01X-3799219Y577660D01*
G01X-3799219Y562319D01*
G01X-3800651Y561910D01*
G01X-3803719Y561296D01*
G01X-3805970Y560887D01*
G01X-3809651Y560069D01*
G01X-3813742Y559251D01*
G01X-3817424Y558432D01*
G01X-3825606Y556796D01*
G01X-3827242Y556387D01*
G01X-3831333Y555569D01*
G01X-3833788Y554955D01*
G01X-3836856Y554342D01*
G01X-3839106Y553933D01*
G01X-3845242Y552705D01*
G01X-3850969Y551887D01*
G01X-3853424Y551478D01*
G01X-3862015Y550251D01*
G01X-3863344Y549944D01*
G01X-3863651Y549432D01*
G01X-3863191Y548972D01*
G01X-3862219Y548819D01*
G01X-3860379Y548614D01*
G01X-3857106Y548205D01*
G01X-3851379Y547387D01*
G01X-3848106Y546978D01*
G01X-3845242Y546569D01*
G01X-3841969Y546160D01*
G01X-3840333Y545751D01*
G01X-3834197Y544523D01*
G01X-3831742Y543910D01*
G01X-3828674Y543296D01*
G01X-3826424Y542887D01*
G01X-3822742Y542069D01*
G01X-3814560Y540432D01*
G01X-3812924Y540023D01*
G01X-3808833Y539205D01*
G01X-3806378Y538592D01*
G01X-3803310Y537978D01*
G01X-3801060Y537569D01*
G01X-3799833Y537160D01*
G01X-3799373Y532915D01*
G01X-3799219Y520592D01*
G01X-3799219Y504228D01*
G37*
G36*
G01X-3898424Y605069D02*
G01X-3899856Y604660D01*
G01X-3900674Y604455D01*
G01X-3900674Y628182D01*
G01X-3896379Y628796D01*
G01X-3893924Y629205D01*
G01X-3888197Y630023D01*
G01X-3885742Y630433D01*
G01X-3881447Y631046D01*
G01X-3881447Y647410D01*
G01X-3863037Y647410D01*
G01X-3863037Y640864D01*
G01X-3862833Y634114D01*
G01X-3862833Y634114D01*
G01X-3861197Y633910D01*
G01X-3859151Y634114D01*
G01X-3856697Y634523D01*
G01X-3853833Y634932D01*
G01X-3851379Y635342D01*
G01X-3848515Y635751D01*
G01X-3846060Y636160D01*
G01X-3843197Y636569D01*
G01X-3838288Y637387D01*
G01X-3835424Y637796D01*
G01X-3832969Y638205D01*
G01X-3830106Y638614D01*
G01X-3827651Y639023D01*
G01X-3824788Y639433D01*
G01X-3822333Y639841D01*
G01X-3820901Y640046D01*
G01X-3820339Y640148D01*
G01X-3820288Y640455D01*
G01X-3821310Y640864D01*
G01X-3825606Y641478D01*
G01X-3828060Y641887D01*
G01X-3830924Y642296D01*
G01X-3833378Y642705D01*
G01X-3836242Y643114D01*
G01X-3838697Y643523D01*
G01X-3841560Y643932D01*
G01X-3844015Y644342D01*
G01X-3846879Y644751D01*
G01X-3849333Y645160D01*
G01X-3852197Y645569D01*
G01X-3854651Y645978D01*
G01X-3857515Y646387D01*
G01X-3859969Y646796D01*
G01X-3863037Y647410D01*
G01X-3881447Y647410D01*
G01X-3881447Y649864D01*
G01X-3888606Y650887D01*
G01X-3891060Y651296D01*
G01X-3893924Y651705D01*
G01X-3896379Y652114D01*
G01X-3899242Y652523D01*
G01X-3900265Y652932D01*
G01X-3900674Y664796D01*
G01X-3900674Y676455D01*
G01X-3899038Y676251D01*
G01X-3896787Y675841D01*
G01X-3892697Y674819D01*
G01X-3889628Y674205D01*
G01X-3887379Y673796D01*
G01X-3885742Y673387D01*
G01X-3883697Y672978D01*
G01X-3881242Y672364D01*
G01X-3878174Y671751D01*
G01X-3875924Y671342D01*
G01X-3874288Y670932D01*
G01X-3872242Y670523D01*
G01X-3869788Y669910D01*
G01X-3866924Y669296D01*
G01X-3860788Y668069D01*
G01X-3856697Y667046D01*
G01X-3853833Y666433D01*
G01X-3847697Y665205D01*
G01X-3846060Y664796D01*
G01X-3844015Y664387D01*
G01X-3841560Y663773D01*
G01X-3838697Y663160D01*
G01X-3832560Y661932D01*
G01X-3830924Y661523D01*
G01X-3828879Y661114D01*
G01X-3826424Y660501D01*
G01X-3823356Y659887D01*
G01X-3821106Y659478D01*
G01X-3817015Y658455D01*
G01X-3813947Y657841D01*
G01X-3811697Y657433D01*
G01X-3810060Y657023D01*
G01X-3808015Y656614D01*
G01X-3805560Y656001D01*
G01X-3802492Y655387D01*
G01X-3800038Y654569D01*
G01X-3799424Y650682D01*
G01X-3799219Y640251D01*
G01X-3799219Y626546D01*
G01X-3800856Y626342D01*
G01X-3803106Y625932D01*
G01X-3807197Y624910D01*
G01X-3810265Y624296D01*
G01X-3812515Y623887D01*
G01X-3816606Y622864D01*
G01X-3819674Y622251D01*
G01X-3821924Y621842D01*
G01X-3826015Y620819D01*
G01X-3828879Y620205D01*
G01X-3835015Y618978D01*
G01X-3839106Y617955D01*
G01X-3842174Y617342D01*
G01X-3844424Y616932D01*
G01X-3848515Y615910D01*
G01X-3851379Y615296D01*
G01X-3857515Y614069D01*
G01X-3861606Y613046D01*
G01X-3864674Y612432D01*
G01X-3866924Y612023D01*
G01X-3871015Y611001D01*
G01X-3873878Y610387D01*
G01X-3880015Y609160D01*
G01X-3884106Y608137D01*
G01X-3887174Y607523D01*
G01X-3889424Y607114D01*
G01X-3893515Y606091D01*
G01X-3896379Y605478D01*
G01X-3898424Y605069D01*
G37*
G36*
G01X-3799424Y709796D02*
G01X-3799219Y697319D01*
G01X-3799219Y685864D01*
G01X-3900674Y685864D01*
G01X-3900674Y707137D01*
G01X-3885333Y707137D01*
G01X-3869379Y706933D01*
G01X-3860379Y706523D01*
G01X-3854242Y706114D01*
G01X-3848515Y705705D01*
G01X-3844015Y705296D01*
G01X-3841969Y705092D01*
G01X-3840538Y705501D01*
G01X-3841560Y706114D01*
G01X-3843197Y706523D01*
G01X-3847492Y707955D01*
G01X-3849742Y708569D01*
G01X-3851583Y709182D01*
G01X-3855674Y710410D01*
G01X-3859356Y711637D01*
G01X-3871629Y715319D01*
G01X-3873470Y715933D01*
G01X-3875106Y716341D01*
G01X-3879401Y717773D01*
G01X-3881651Y718387D01*
G01X-3883492Y719001D01*
G01X-3891674Y721455D01*
G01X-3893515Y722069D01*
G01X-3895151Y722478D01*
G01X-3900674Y724319D01*
G01X-3900674Y749273D01*
G01X-3799219Y749273D01*
G01X-3799219Y728001D01*
G01X-3812515Y728001D01*
G01X-3826424Y728205D01*
G01X-3836242Y728614D01*
G01X-3843606Y729023D01*
G01X-3850151Y729432D01*
G01X-3856288Y729842D01*
G01X-3858128Y730046D01*
G01X-3858998Y729944D01*
G01X-3859151Y729637D01*
G01X-3857924Y729023D01*
G01X-3856288Y728614D01*
G01X-3849538Y726364D01*
G01X-3847288Y725751D01*
G01X-3843606Y724523D01*
G01X-3841969Y724114D01*
G01X-3835219Y721864D01*
G01X-3832969Y721251D01*
G01X-3829287Y720023D01*
G01X-3827651Y719614D01*
G01X-3820901Y717364D01*
G01X-3818651Y716751D01*
G01X-3814970Y715523D01*
G01X-3813333Y715114D01*
G01X-3806583Y712864D01*
G01X-3804333Y712251D01*
G01X-3800651Y711023D01*
G01X-3799833Y710614D01*
G01X-3799424Y709796D01*
G37*
G36*
G01X-3799219Y768501D02*
G01X-3799219Y756637D01*
G01X-3800038Y756842D01*
G01X-3801674Y757455D01*
G01X-3828265Y768091D01*
G01X-3830106Y768910D01*
G01X-3833378Y770137D01*
G01X-3834810Y770751D01*
G01X-3836447Y771364D01*
G01X-3856901Y779546D01*
G01X-3879197Y779955D01*
G01X-3900674Y779955D01*
G01X-3900674Y804092D01*
G01X-3879197Y804092D01*
G01X-3856901Y804501D01*
G01X-3832356Y814319D01*
G01X-3830720Y814932D01*
G01X-3827856Y816160D01*
G01X-3826219Y816773D01*
G01X-3801674Y826591D01*
G01X-3800038Y827205D01*
G01X-3799219Y827410D01*
G01X-3799219Y802046D01*
G01X-3802901Y800819D01*
G01X-3826833Y793455D01*
G01X-3829287Y792637D01*
G01X-3830004Y792228D01*
G01X-3830106Y791819D01*
G01X-3828879Y791205D01*
G01X-3827038Y790592D01*
G01X-3814765Y786910D01*
G01X-3812924Y786296D01*
G01X-3811288Y785887D01*
G01X-3806992Y784455D01*
G01X-3804742Y783841D01*
G01X-3802901Y783228D01*
G01X-3800856Y782614D01*
G01X-3799884Y782205D01*
G01X-3799424Y781387D01*
G01X-3799219Y768501D01*
G37*
G36*
G01X-3639373Y-383295D02*
G01X-3639219Y-392704D01*
G01X-3639219Y-405181D01*
G01X-3640447Y-404977D01*
G01X-3671742Y-398022D01*
G01X-3675833Y-396999D01*
G01X-3678697Y-396386D01*
G01X-3680742Y-395976D01*
G01X-3710197Y-389431D01*
G01X-3714288Y-388408D01*
G01X-3717151Y-387795D01*
G01X-3719197Y-387386D01*
G01X-3739447Y-382885D01*
G01X-3740674Y-382681D01*
G01X-3740674Y-354863D01*
G01X-3739447Y-354658D01*
G01X-3737606Y-354249D01*
G01X-3733515Y-353226D01*
G01X-3730651Y-352613D01*
G01X-3728606Y-352204D01*
G01X-3724515Y-351181D01*
G01X-3721651Y-350567D01*
G01X-3719606Y-350158D01*
G01X-3715515Y-349135D01*
G01X-3712651Y-348522D01*
G01X-3710606Y-348113D01*
G01X-3706515Y-347090D01*
G01X-3703651Y-346477D01*
G01X-3701606Y-346067D01*
G01X-3697515Y-345045D01*
G01X-3694651Y-344431D01*
G01X-3692606Y-344022D01*
G01X-3688515Y-342999D01*
G01X-3685651Y-342386D01*
G01X-3683606Y-341976D01*
G01X-3679515Y-340954D01*
G01X-3676651Y-340340D01*
G01X-3674606Y-339931D01*
G01X-3670515Y-338908D01*
G01X-3667651Y-338295D01*
G01X-3665606Y-337886D01*
G01X-3661515Y-336863D01*
G01X-3658651Y-336249D01*
G01X-3656606Y-335840D01*
G01X-3652515Y-334817D01*
G01X-3649651Y-334204D01*
G01X-3647606Y-333795D01*
G01X-3643515Y-332772D01*
G01X-3640651Y-332158D01*
G01X-3639219Y-331954D01*
G01X-3639219Y-356499D01*
G01X-3640242Y-356704D01*
G01X-3657424Y-359567D01*
G01X-3659469Y-359976D01*
G01X-3693833Y-365704D01*
G01X-3696697Y-366113D01*
G01X-3703242Y-366931D01*
G01X-3706924Y-367340D01*
G01X-3710197Y-367749D01*
G01X-3712907Y-368056D01*
G01X-3713060Y-368363D01*
G01X-3711629Y-368772D01*
G01X-3706106Y-369386D01*
G01X-3699560Y-370204D01*
G01X-3693833Y-371022D01*
G01X-3671742Y-374704D01*
G01X-3668879Y-375113D01*
G01X-3641879Y-379613D01*
G01X-3639833Y-380022D01*
G01X-3639373Y-383295D01*
G37*
G36*
G01X-3713878Y-330113D02*
G01X-3716333Y-330727D01*
G01X-3721447Y-331135D01*
G01X-3725742Y-330931D01*
G01X-3727788Y-330522D01*
G01X-3730038Y-329908D01*
G01X-3731878Y-329090D01*
G01X-3733515Y-328272D01*
G01X-3734742Y-327454D01*
G01X-3736379Y-326226D01*
G01X-3737810Y-324795D01*
G01X-3738833Y-323363D01*
G01X-3740060Y-321522D01*
G01X-3741083Y-319272D01*
G01X-3741901Y-316613D01*
G01X-3742310Y-311908D01*
G01X-3742106Y-308022D01*
G01X-3741697Y-305977D01*
G01X-3741083Y-303727D01*
G01X-3741001Y-303522D01*
G01X-3726356Y-303522D01*
G01X-3726151Y-305158D01*
G01X-3725742Y-306181D01*
G01X-3724924Y-307408D01*
G01X-3723901Y-308226D01*
G01X-3722470Y-309045D01*
G01X-3722470Y-309045D01*
G01X-3720424Y-309658D01*
G01X-3717560Y-309863D01*
G01X-3714901Y-309454D01*
G01X-3713265Y-308840D01*
G01X-3712038Y-308226D01*
G01X-3711015Y-307408D01*
G01X-3709992Y-306385D01*
G01X-3708765Y-304749D01*
G01X-3707538Y-302704D01*
G01X-3706719Y-301067D01*
G01X-3705901Y-299226D01*
G01X-3705083Y-297181D01*
G01X-3704470Y-295136D01*
G01X-3704265Y-293908D01*
G01X-3709379Y-293908D01*
G01X-3715106Y-294113D01*
G01X-3719606Y-294522D01*
G01X-3721447Y-295136D01*
G01X-3723697Y-296363D01*
G01X-3725129Y-297999D01*
G01X-3725742Y-299431D01*
G01X-3726151Y-301067D01*
G01X-3726356Y-303522D01*
G01X-3741001Y-303522D01*
G01X-3740265Y-301681D01*
G01X-3739447Y-299840D01*
G01X-3738424Y-298204D01*
G01X-3737401Y-296772D01*
G01X-3736583Y-295749D01*
G01X-3735560Y-294726D01*
G01X-3734742Y-293295D01*
G01X-3734538Y-292272D01*
G01X-3735765Y-292272D01*
G01X-3737606Y-292067D01*
G01X-3739447Y-291658D01*
G01X-3740674Y-291454D01*
G01X-3740674Y-269363D01*
G01X-3739856Y-269567D01*
G01X-3738220Y-270181D01*
G01X-3736583Y-270590D01*
G01X-3735151Y-270795D01*
G01X-3732697Y-271204D01*
G01X-3729629Y-271408D01*
G01X-3727788Y-271613D01*
G01X-3683197Y-272022D01*
G01X-3679106Y-272431D01*
G01X-3677060Y-272840D01*
G01X-3675015Y-273454D01*
G01X-3673378Y-274272D01*
G01X-3671947Y-275090D01*
G01X-3670924Y-275908D01*
G01X-3668879Y-277954D01*
G01X-3667856Y-279181D01*
G01X-3666833Y-280817D01*
G01X-3665810Y-282658D01*
G01X-3664992Y-284908D01*
G01X-3664378Y-286749D01*
G01X-3663765Y-288795D01*
G01X-3663151Y-292067D01*
G01X-3662742Y-295340D01*
G01X-3662538Y-301272D01*
G01X-3662742Y-306385D01*
G01X-3663151Y-309658D01*
G01X-3663560Y-311499D01*
G01X-3664174Y-313545D01*
G01X-3665401Y-316818D01*
G01X-3666219Y-318454D01*
G01X-3667242Y-320090D01*
G01X-3668265Y-321522D01*
G01X-3670310Y-323567D01*
G01X-3671538Y-324590D01*
G01X-3673174Y-325613D01*
G01X-3675015Y-326636D01*
G01X-3677060Y-327454D01*
G01X-3679310Y-328067D01*
G01X-3681151Y-328476D01*
G01X-3683197Y-328886D01*
G01X-3686265Y-329090D01*
G01X-3687901Y-329090D01*
G01X-3687901Y-307817D01*
G01X-3685651Y-307817D01*
G01X-3682583Y-307408D01*
G01X-3681151Y-306795D01*
G01X-3679720Y-305772D01*
G01X-3678492Y-303931D01*
G01X-3678083Y-302090D01*
G01X-3677879Y-300658D01*
G01X-3677879Y-299022D01*
G01X-3678492Y-296977D01*
G01X-3679515Y-295545D01*
G01X-3680742Y-294726D01*
G01X-3682378Y-294113D01*
G01X-3684424Y-293704D01*
G01X-3686060Y-293704D01*
G01X-3687492Y-294317D01*
G01X-3688720Y-295340D01*
G01X-3689742Y-296363D01*
G01X-3690560Y-297385D01*
G01X-3691379Y-298817D01*
G01X-3692401Y-300658D01*
G01X-3693219Y-302295D01*
G01X-3693833Y-303727D01*
G01X-3696901Y-311908D01*
G01X-3697720Y-313749D01*
G01X-3698538Y-315795D01*
G01X-3700583Y-319476D01*
G01X-3701606Y-320908D01*
G01X-3702424Y-321931D01*
G01X-3703038Y-322954D01*
G01X-3703856Y-323976D01*
G01X-3705901Y-326022D01*
G01X-3706924Y-326840D01*
G01X-3708356Y-327658D01*
G01X-3710197Y-328681D01*
G01X-3712038Y-329499D01*
G01X-3713878Y-330113D01*
G37*
G36*
G01X-3740674Y-236636D02*
G01X-3639219Y-236636D01*
G01X-3639219Y-257908D01*
G01X-3740674Y-257908D01*
G01X-3740674Y-236636D01*
G37*
G36*
G01X-3693424Y-223749D02*
G01X-3703856Y-223954D01*
G01X-3714288Y-223749D01*
G01X-3719606Y-223340D01*
G01X-3722878Y-222931D01*
G01X-3726560Y-222113D01*
G01X-3728401Y-221499D01*
G01X-3730651Y-220477D01*
G01X-3732697Y-219454D01*
G01X-3734129Y-218431D01*
G01X-3736174Y-216795D01*
G01X-3737401Y-215158D01*
G01X-3738628Y-213317D01*
G01X-3739447Y-211886D01*
G01X-3740265Y-210045D01*
G01X-3741492Y-206363D01*
G01X-3742106Y-203499D01*
G01X-3742515Y-201658D01*
G01X-3742719Y-195931D01*
G01X-3742515Y-189795D01*
G01X-3741697Y-185295D01*
G01X-3741083Y-183454D01*
G01X-3740265Y-181408D01*
G01X-3739447Y-179772D01*
G01X-3738424Y-178136D01*
G01X-3737401Y-176704D01*
G01X-3734333Y-173636D01*
G01X-3732901Y-172613D01*
G01X-3731060Y-171590D01*
G01X-3729424Y-170772D01*
G01X-3727583Y-169954D01*
G01X-3725129Y-169340D01*
G01X-3723288Y-168931D01*
G01X-3721242Y-168522D01*
G01X-3716947Y-168317D01*
G01X-3714083Y-168317D01*
G01X-3714083Y-187954D01*
G01X-3717969Y-187954D01*
G01X-3722470Y-188158D01*
G01X-3723901Y-188772D01*
G01X-3725538Y-189999D01*
G01X-3726765Y-191840D01*
G01X-3727379Y-193886D01*
G01X-3727583Y-195931D01*
G01X-3727174Y-197772D01*
G01X-3726356Y-199408D01*
G01X-3725333Y-200431D01*
G01X-3724106Y-201045D01*
G01X-3722060Y-201863D01*
G01X-3719606Y-202272D01*
G01X-3717969Y-202477D01*
G01X-3711833Y-202681D01*
G01X-3707589Y-202528D01*
G01X-3705901Y-202067D01*
G01X-3705728Y-194704D01*
G01X-3692401Y-194704D01*
G01X-3692197Y-201658D01*
G01X-3687697Y-201863D01*
G01X-3682788Y-201658D01*
G01X-3680947Y-201045D01*
G01X-3678901Y-199817D01*
G01X-3677674Y-197976D01*
G01X-3677060Y-195522D01*
G01X-3677265Y-192658D01*
G01X-3678492Y-190204D01*
G01X-3680333Y-188772D01*
G01X-3682583Y-187954D01*
G01X-3685038Y-187545D01*
G01X-3688720Y-187136D01*
G01X-3690560Y-187340D01*
G01X-3691788Y-187749D01*
G01X-3692248Y-189590D01*
G01X-3692401Y-194704D01*
G01X-3692401Y-194704D01*
G01X-3705728Y-194704D01*
G01X-3705492Y-184681D01*
G01X-3705492Y-167908D01*
G01X-3695674Y-167908D01*
G01X-3685242Y-168113D01*
G01X-3681560Y-168522D01*
G01X-3679720Y-168931D01*
G01X-3677674Y-169545D01*
G01X-3675629Y-170363D01*
G01X-3673992Y-171181D01*
G01X-3671538Y-172817D01*
G01X-3670515Y-173636D01*
G01X-3669492Y-174658D01*
G01X-3667038Y-177931D01*
G01X-3666015Y-179567D01*
G01X-3665197Y-181408D01*
G01X-3664583Y-183045D01*
G01X-3663970Y-185090D01*
G01X-3663560Y-186931D01*
G01X-3663151Y-188977D01*
G01X-3662742Y-192249D01*
G01X-3662538Y-196340D01*
G01X-3662742Y-199204D01*
G01X-3663151Y-202886D01*
G01X-3663560Y-204727D01*
G01X-3664174Y-206772D01*
G01X-3665401Y-210045D01*
G01X-3666424Y-211886D01*
G01X-3667447Y-213522D01*
G01X-3668674Y-215158D01*
G01X-3671128Y-217613D01*
G01X-3672151Y-218431D01*
G01X-3673583Y-219249D01*
G01X-3675424Y-220272D01*
G01X-3677469Y-221090D01*
G01X-3679720Y-221908D01*
G01X-3682378Y-222522D01*
G01X-3684424Y-222931D01*
G01X-3687697Y-223340D01*
G01X-3693424Y-223749D01*
G37*
G36*
G01X-3664583Y-154408D02*
G01X-3665606Y-154613D01*
G01X-3703651Y-154817D01*
G01X-3740674Y-154817D01*
G01X-3740674Y-133545D01*
G01X-3715515Y-133545D01*
G01X-3689742Y-133340D01*
G01X-3686879Y-132931D01*
G01X-3685038Y-132317D01*
G01X-3682788Y-131090D01*
G01X-3681151Y-129249D01*
G01X-3680333Y-127204D01*
G01X-3680128Y-125158D01*
G01X-3680538Y-123522D01*
G01X-3681356Y-122295D01*
G01X-3682788Y-121477D01*
G01X-3684424Y-121067D01*
G01X-3687697Y-120658D01*
G01X-3714492Y-120454D01*
G01X-3740674Y-120454D01*
G01X-3740674Y-99181D01*
G01X-3712651Y-99181D01*
G01X-3684015Y-99386D01*
G01X-3679515Y-99795D01*
G01X-3677265Y-100204D01*
G01X-3674810Y-100817D01*
G01X-3672969Y-101431D01*
G01X-3671333Y-102045D01*
G01X-3669697Y-103067D01*
G01X-3667651Y-104499D01*
G01X-3666219Y-106136D01*
G01X-3665401Y-107567D01*
G01X-3664583Y-109204D01*
G01X-3663765Y-111658D01*
G01X-3663356Y-114522D01*
G01X-3663151Y-116363D01*
G01X-3663151Y-117386D01*
G01X-3663560Y-121067D01*
G01X-3663970Y-122704D01*
G01X-3664583Y-124545D01*
G01X-3665401Y-126181D01*
G01X-3666424Y-127817D01*
G01X-3667447Y-129249D01*
G01X-3670515Y-132317D01*
G01X-3671947Y-133340D01*
G01X-3672969Y-134363D01*
G01X-3672049Y-134670D01*
G01X-3668879Y-134772D01*
G01X-3664583Y-134772D01*
G01X-3664583Y-154408D01*
G37*
G36*
G01X-3643719Y-82408D02*
G01X-3664583Y-82408D01*
G01X-3664583Y-90590D01*
G01X-3680128Y-90590D01*
G01X-3680333Y-89568D01*
G01X-3680538Y-85477D01*
G01X-3680538Y-82408D01*
G01X-3700992Y-82408D01*
G01X-3722060Y-82204D01*
G01X-3727379Y-81795D01*
G01X-3729424Y-81386D01*
G01X-3731674Y-80772D01*
G01X-3733515Y-79954D01*
G01X-3735560Y-78727D01*
G01X-3736992Y-77499D01*
G01X-3738628Y-75454D01*
G01X-3739447Y-74022D01*
G01X-3740265Y-72181D01*
G01X-3740878Y-70135D01*
G01X-3741288Y-68295D01*
G01X-3741697Y-67272D01*
G01X-3741901Y-62363D01*
G01X-3741697Y-57249D01*
G01X-3741288Y-54386D01*
G01X-3740878Y-52340D01*
G01X-3740674Y-50908D01*
G01X-3725947Y-50908D01*
G01X-3725947Y-53772D01*
G01X-3725538Y-57249D01*
G01X-3724719Y-58476D01*
G01X-3723492Y-59499D01*
G01X-3721651Y-60113D01*
G01X-3719197Y-60522D01*
G01X-3715719Y-60727D01*
G01X-3713060Y-60931D01*
G01X-3696492Y-61136D01*
G01X-3680538Y-61136D01*
G01X-3680538Y-50908D01*
G01X-3664583Y-50908D01*
G01X-3664583Y-61136D01*
G01X-3643719Y-61136D01*
G01X-3643719Y-82408D01*
G37*
G36*
G01X-3656810Y-19408D02*
G01X-3638401Y-19408D01*
G01X-3638401Y-40272D01*
G01X-3656810Y-40272D01*
G01X-3656810Y-19408D01*
G37*
G36*
G01X-3740674Y-19408D02*
G01X-3664583Y-19408D01*
G01X-3664583Y-40272D01*
G01X-3740674Y-40272D01*
G01X-3740674Y-19408D01*
G37*
G36*
G01X-3664583Y-4681D02*
G01X-3740674Y-4681D01*
G01X-3740674Y16592D01*
G01X-3715106Y16592D01*
G01X-3688924Y16796D01*
G01X-3686879Y17205D01*
G01X-3684833Y17819D01*
G01X-3683401Y18637D01*
G01X-3681765Y20069D01*
G01X-3680538Y21910D01*
G01X-3680128Y24364D01*
G01X-3680538Y26614D01*
G01X-3681356Y27637D01*
G01X-3682788Y28455D01*
G01X-3685242Y29069D01*
G01X-3687697Y29274D01*
G01X-3689333Y29478D01*
G01X-3715310Y29683D01*
G01X-3740674Y29683D01*
G01X-3740674Y50546D01*
G01X-3710810Y50546D01*
G01X-3680333Y50342D01*
G01X-3677469Y49933D01*
G01X-3675833Y49523D01*
G01X-3673992Y48910D01*
G01X-3672356Y48296D01*
G01X-3670924Y47683D01*
G01X-3669492Y46864D01*
G01X-3668265Y46046D01*
G01X-3665810Y43183D01*
G01X-3664992Y41751D01*
G01X-3664174Y39910D01*
G01X-3663560Y37251D01*
G01X-3663151Y34387D01*
G01X-3663151Y32751D01*
G01X-3663560Y28660D01*
G01X-3664174Y26819D01*
G01X-3664992Y24569D01*
G01X-3666015Y22728D01*
G01X-3667038Y21296D01*
G01X-3670720Y17614D01*
G01X-3671947Y16592D01*
G01X-3672560Y15773D01*
G01X-3668469Y15364D01*
G01X-3664583Y15364D01*
G01X-3664583Y-4681D01*
G37*
G36*
G01X-3650060Y95546D02*
G01X-3658856Y95546D01*
G01X-3658856Y114773D01*
G01X-3740674Y114773D01*
G01X-3740674Y138501D01*
G01X-3658856Y138501D01*
G01X-3658856Y158546D01*
G01X-3639628Y158546D01*
G01X-3639424Y157523D01*
G01X-3639219Y126228D01*
G01X-3639219Y95955D01*
G01X-3640242Y95751D01*
G01X-3650060Y95546D01*
G37*
G36*
G01X-3716333Y154046D02*
G01X-3721651Y153637D01*
G01X-3726151Y153842D01*
G01X-3727992Y154251D01*
G01X-3730038Y154864D01*
G01X-3731878Y155682D01*
G01X-3733515Y156501D01*
G01X-3734742Y157319D01*
G01X-3736379Y158546D01*
G01X-3737810Y159978D01*
G01X-3738833Y161410D01*
G01X-3740060Y163251D01*
G01X-3741083Y165501D01*
G01X-3741901Y168160D01*
G01X-3742310Y172864D01*
G01X-3742106Y176751D01*
G01X-3741697Y178796D01*
G01X-3741083Y181046D01*
G01X-3740756Y181864D01*
G01X-3726356Y181864D01*
G01X-3726151Y179614D01*
G01X-3725742Y178592D01*
G01X-3724924Y177364D01*
G01X-3723901Y176342D01*
G01X-3722265Y175523D01*
G01X-3720424Y175114D01*
G01X-3720424Y175114D01*
G01X-3717765Y174910D01*
G01X-3714901Y175319D01*
G01X-3713265Y175933D01*
G01X-3712038Y176546D01*
G01X-3711015Y177364D01*
G01X-3709992Y178387D01*
G01X-3708765Y180024D01*
G01X-3707538Y182069D01*
G01X-3706719Y183705D01*
G01X-3705901Y185546D01*
G01X-3705083Y187592D01*
G01X-3704470Y189637D01*
G01X-3704265Y190864D01*
G01X-3709379Y190864D01*
G01X-3715106Y190660D01*
G01X-3719606Y190251D01*
G01X-3721447Y189637D01*
G01X-3723697Y188410D01*
G01X-3725129Y186569D01*
G01X-3725947Y184728D01*
G01X-3726356Y181864D01*
G01X-3740756Y181864D01*
G01X-3740265Y183092D01*
G01X-3739447Y184933D01*
G01X-3738424Y186569D01*
G01X-3737401Y188001D01*
G01X-3736583Y189023D01*
G01X-3735560Y190046D01*
G01X-3734538Y191273D01*
G01X-3734487Y191938D01*
G01X-3735151Y192296D01*
G01X-3737606Y192705D01*
G01X-3739651Y193114D01*
G01X-3740469Y193933D01*
G01X-3740674Y204978D01*
G01X-3740674Y215410D01*
G01X-3739856Y215205D01*
G01X-3738220Y214592D01*
G01X-3736583Y214182D01*
G01X-3735151Y213978D01*
G01X-3732697Y213569D01*
G01X-3729833Y213364D01*
G01X-3728197Y213160D01*
G01X-3683197Y212751D01*
G01X-3679106Y212342D01*
G01X-3677265Y211933D01*
G01X-3675219Y211319D01*
G01X-3673378Y210501D01*
G01X-3671947Y209683D01*
G01X-3670924Y208864D01*
G01X-3668879Y206819D01*
G01X-3667856Y205592D01*
G01X-3666833Y203955D01*
G01X-3665810Y201910D01*
G01X-3664992Y199864D01*
G01X-3664174Y197614D01*
G01X-3663560Y194751D01*
G01X-3663151Y192705D01*
G01X-3662742Y189432D01*
G01X-3662538Y183910D01*
G01X-3662742Y178387D01*
G01X-3663151Y175114D01*
G01X-3663560Y173273D01*
G01X-3664174Y171228D01*
G01X-3664788Y169387D01*
G01X-3665401Y167751D01*
G01X-3666219Y166319D01*
G01X-3667242Y164683D01*
G01X-3668265Y163251D01*
G01X-3670310Y161205D01*
G01X-3671538Y160183D01*
G01X-3673174Y159160D01*
G01X-3675015Y158137D01*
G01X-3677060Y157319D01*
G01X-3679106Y156705D01*
G01X-3680742Y156296D01*
G01X-3682788Y155887D01*
G01X-3686060Y155682D01*
G01X-3687901Y155682D01*
G01X-3687901Y176546D01*
G01X-3686469Y176751D01*
G01X-3684219Y176955D01*
G01X-3682583Y177364D01*
G01X-3681151Y177978D01*
G01X-3679720Y179001D01*
G01X-3678492Y180842D01*
G01X-3678083Y182683D01*
G01X-3677879Y184114D01*
G01X-3677879Y185751D01*
G01X-3678492Y187796D01*
G01X-3679515Y189228D01*
G01X-3680742Y190046D01*
G01X-3682378Y190660D01*
G01X-3684424Y191069D01*
G01X-3686060Y191069D01*
G01X-3687492Y190455D01*
G01X-3688720Y189432D01*
G01X-3689742Y188410D01*
G01X-3690560Y187387D01*
G01X-3691379Y185955D01*
G01X-3692401Y184114D01*
G01X-3693219Y182478D01*
G01X-3693833Y181046D01*
G01X-3696901Y172864D01*
G01X-3697720Y171024D01*
G01X-3698538Y168978D01*
G01X-3700583Y165296D01*
G01X-3701401Y163864D01*
G01X-3703856Y160796D01*
G01X-3705901Y158751D01*
G01X-3707333Y157728D01*
G01X-3710197Y156092D01*
G01X-3712038Y155274D01*
G01X-3713878Y154660D01*
G01X-3716333Y154046D01*
G37*
G36*
G01X-3668265Y246910D02*
G01X-3664583Y246910D01*
G01X-3664583Y227273D01*
G01X-3740674Y227273D01*
G01X-3740674Y248546D01*
G01X-3714697Y248546D01*
G01X-3688106Y248751D01*
G01X-3686265Y249160D01*
G01X-3684424Y249773D01*
G01X-3682788Y250796D01*
G01X-3681151Y252433D01*
G01X-3680333Y254478D01*
G01X-3680128Y256728D01*
G01X-3680333Y257904D01*
G01X-3680947Y258978D01*
G01X-3682992Y260410D01*
G01X-3686060Y261023D01*
G01X-3690356Y261228D01*
G01X-3693424Y261433D01*
G01X-3717356Y261637D01*
G01X-3740674Y261637D01*
G01X-3740674Y282501D01*
G01X-3711424Y282501D01*
G01X-3681560Y282296D01*
G01X-3678288Y281887D01*
G01X-3674606Y281069D01*
G01X-3672969Y280455D01*
G01X-3670924Y279637D01*
G01X-3669492Y278819D01*
G01X-3668469Y278001D01*
G01X-3666424Y275955D01*
G01X-3665606Y274933D01*
G01X-3664992Y273705D01*
G01X-3664378Y272274D01*
G01X-3663970Y270842D01*
G01X-3663560Y269205D01*
G01X-3663356Y267160D01*
G01X-3663151Y265728D01*
G01X-3663151Y264705D01*
G01X-3663560Y260614D01*
G01X-3664174Y258569D01*
G01X-3664992Y256523D01*
G01X-3665810Y255092D01*
G01X-3667038Y253251D01*
G01X-3668265Y251614D01*
G01X-3669288Y250592D01*
G01X-3670924Y249364D01*
G01X-3672560Y247932D01*
G01X-3672867Y247421D01*
G01X-3672560Y247114D01*
G01X-3668265Y246910D01*
G37*
G36*
G01X-3703651Y296819D02*
G01X-3740674Y296819D01*
G01X-3740674Y318092D01*
G01X-3715924Y318092D01*
G01X-3690560Y318296D01*
G01X-3688720Y318501D01*
G01X-3686674Y318910D01*
G01X-3684833Y319523D01*
G01X-3683401Y320137D01*
G01X-3682378Y320955D01*
G01X-3681151Y322387D01*
G01X-3680333Y324432D01*
G01X-3680128Y326478D01*
G01X-3680742Y328523D01*
G01X-3682378Y329955D01*
G01X-3684424Y330569D01*
G01X-3687288Y330978D01*
G01X-3714901Y331182D01*
G01X-3740674Y331182D01*
G01X-3740674Y352455D01*
G01X-3712447Y352455D01*
G01X-3683606Y352251D01*
G01X-3679106Y351842D01*
G01X-3677060Y351433D01*
G01X-3674810Y350819D01*
G01X-3672969Y350205D01*
G01X-3671333Y349592D01*
G01X-3669901Y348773D01*
G01X-3668674Y347955D01*
G01X-3667651Y347137D01*
G01X-3666424Y345705D01*
G01X-3665401Y344069D01*
G01X-3664583Y342433D01*
G01X-3663765Y339978D01*
G01X-3663356Y337114D01*
G01X-3663151Y335273D01*
G01X-3663151Y334251D01*
G01X-3663560Y330569D01*
G01X-3663970Y328933D01*
G01X-3664583Y327296D01*
G01X-3665197Y325864D01*
G01X-3665810Y324637D01*
G01X-3666833Y323205D01*
G01X-3668060Y321774D01*
G01X-3670106Y319728D01*
G01X-3671742Y318501D01*
G01X-3672969Y317273D01*
G01X-3672049Y316967D01*
G01X-3668879Y316864D01*
G01X-3664583Y316864D01*
G01X-3664583Y297228D01*
G01X-3665606Y297024D01*
G01X-3703651Y296819D01*
G37*
G36*
G01X-3694242Y364932D02*
G01X-3703856Y364728D01*
G01X-3713470Y364932D01*
G01X-3719606Y365342D01*
G01X-3722470Y365751D01*
G01X-3724515Y366160D01*
G01X-3726765Y366773D01*
G01X-3728606Y367387D01*
G01X-3730242Y368001D01*
G01X-3731878Y368819D01*
G01X-3733310Y369637D01*
G01X-3734333Y370455D01*
G01X-3735560Y371478D01*
G01X-3736583Y372705D01*
G01X-3737401Y373728D01*
G01X-3738424Y375160D01*
G01X-3739447Y376796D01*
G01X-3740674Y379660D01*
G01X-3741288Y381501D01*
G01X-3741697Y383342D01*
G01X-3742310Y385592D01*
G01X-3742719Y392955D01*
G01X-3742515Y399296D01*
G01X-3741697Y403387D01*
G01X-3741083Y405228D01*
G01X-3740265Y407274D01*
G01X-3739447Y408910D01*
G01X-3738424Y410546D01*
G01X-3737401Y411978D01*
G01X-3734333Y415046D01*
G01X-3732901Y416069D01*
G01X-3731265Y417092D01*
G01X-3729629Y417910D01*
G01X-3727583Y418728D01*
G01X-3724924Y419546D01*
G01X-3722674Y419955D01*
G01X-3721242Y420160D01*
G01X-3715515Y420569D01*
G01X-3714492Y420364D01*
G01X-3714083Y410342D01*
G01X-3714083Y400728D01*
G01X-3718174Y400728D01*
G01X-3723083Y400319D01*
G01X-3724924Y399296D01*
G01X-3726356Y397660D01*
G01X-3727174Y395819D01*
G01X-3727583Y393364D01*
G01X-3727174Y390910D01*
G01X-3726151Y389274D01*
G01X-3724515Y387842D01*
G01X-3722470Y387023D01*
G01X-3720424Y386614D01*
G01X-3717560Y386205D01*
G01X-3711219Y386001D01*
G01X-3706106Y386410D01*
G01X-3705646Y390961D01*
G01X-3705610Y393978D01*
G01X-3692401Y393978D01*
G01X-3692197Y387023D01*
G01X-3687697Y386819D01*
G01X-3682788Y387023D01*
G01X-3680947Y387637D01*
G01X-3678901Y388864D01*
G01X-3677674Y390705D01*
G01X-3677060Y393160D01*
G01X-3677265Y396023D01*
G01X-3678083Y398069D01*
G01X-3679106Y399092D01*
G01X-3680333Y399910D01*
G01X-3682378Y400728D01*
G01X-3684629Y401137D01*
G01X-3686060Y401342D01*
G01X-3688515Y401546D01*
G01X-3690969Y401342D01*
G01X-3691992Y400933D01*
G01X-3692401Y393978D01*
G01X-3692401Y393978D01*
G01X-3705610Y393978D01*
G01X-3705492Y403796D01*
G01X-3705492Y420773D01*
G01X-3695469Y420773D01*
G01X-3684833Y420569D01*
G01X-3681560Y420160D01*
G01X-3679720Y419751D01*
G01X-3677674Y419137D01*
G01X-3675629Y418319D01*
G01X-3673583Y417296D01*
G01X-3672151Y416273D01*
G01X-3670515Y415046D01*
G01X-3669083Y413614D01*
G01X-3667856Y411978D01*
G01X-3666629Y410137D01*
G01X-3665810Y408705D01*
G01X-3664992Y406864D01*
G01X-3664174Y404410D01*
G01X-3663560Y401955D01*
G01X-3663151Y400114D01*
G01X-3662742Y396433D01*
G01X-3662538Y392955D01*
G01X-3662742Y389478D01*
G01X-3663151Y385796D01*
G01X-3663560Y383955D01*
G01X-3664174Y381910D01*
G01X-3664788Y380274D01*
G01X-3665606Y378433D01*
G01X-3666629Y376387D01*
G01X-3667651Y374955D01*
G01X-3669288Y372910D01*
G01X-3670310Y371887D01*
G01X-3671538Y370864D01*
G01X-3673992Y369228D01*
G01X-3675424Y368410D01*
G01X-3676856Y367796D01*
G01X-3678492Y367183D01*
G01X-3680538Y366569D01*
G01X-3682378Y366160D01*
G01X-3684833Y365751D01*
G01X-3688106Y365342D01*
G01X-3691583Y365137D01*
G01X-3694242Y364932D01*
G37*
G36*
G01X-3664583Y434273D02*
G01X-3665606Y434069D01*
G01X-3703651Y433864D01*
G01X-3740674Y433864D01*
G01X-3740674Y455137D01*
G01X-3715719Y455137D01*
G01X-3690151Y455342D01*
G01X-3688515Y455546D01*
G01X-3686674Y455955D01*
G01X-3684833Y456569D01*
G01X-3683401Y457182D01*
G01X-3682378Y458001D01*
G01X-3681151Y459432D01*
G01X-3680333Y461478D01*
G01X-3680128Y463523D01*
G01X-3680742Y465569D01*
G01X-3682378Y467001D01*
G01X-3684424Y467614D01*
G01X-3687288Y468023D01*
G01X-3714901Y468228D01*
G01X-3740674Y468228D01*
G01X-3740674Y489501D01*
G01X-3712447Y489501D01*
G01X-3683606Y489296D01*
G01X-3679106Y488887D01*
G01X-3677060Y488478D01*
G01X-3674810Y487864D01*
G01X-3672969Y487251D01*
G01X-3671333Y486637D01*
G01X-3669901Y485819D01*
G01X-3668674Y485001D01*
G01X-3667651Y484182D01*
G01X-3666424Y482751D01*
G01X-3665401Y481114D01*
G01X-3664583Y479478D01*
G01X-3663765Y477023D01*
G01X-3663356Y474160D01*
G01X-3663151Y472319D01*
G01X-3663151Y471296D01*
G01X-3663560Y467614D01*
G01X-3663970Y465978D01*
G01X-3664583Y464342D01*
G01X-3665197Y462910D01*
G01X-3665810Y461683D01*
G01X-3666833Y460251D01*
G01X-3668060Y458819D01*
G01X-3670106Y456774D01*
G01X-3671742Y455546D01*
G01X-3672969Y454319D01*
G01X-3672049Y454012D01*
G01X-3668879Y453910D01*
G01X-3664583Y453910D01*
G01X-3664583Y434273D01*
G37*
G36*
G01X-3740674Y524682D02*
G01X-3639219Y524682D01*
G01X-3639219Y503819D01*
G01X-3740674Y503819D01*
G01X-3740674Y524682D01*
G37*
G36*
G01X-3715106Y537160D02*
G01X-3717151Y536751D01*
G01X-3722060Y536546D01*
G01X-3726560Y536751D01*
G01X-3728401Y537160D01*
G01X-3730242Y537773D01*
G01X-3733106Y539001D01*
G01X-3734742Y540023D01*
G01X-3736174Y541251D01*
G01X-3738220Y543296D01*
G01X-3739242Y544728D01*
G01X-3740265Y546569D01*
G01X-3741083Y548410D01*
G01X-3741901Y550660D01*
G01X-3742310Y555569D01*
G01X-3742106Y559660D01*
G01X-3741288Y563342D01*
G01X-3740827Y564569D01*
G01X-3726356Y564569D01*
G01X-3726151Y562523D01*
G01X-3725742Y561501D01*
G01X-3725129Y560273D01*
G01X-3723901Y559251D01*
G01X-3722060Y558228D01*
G01X-3722060Y558228D01*
G01X-3718174Y557819D01*
G01X-3714492Y558228D01*
G01X-3712651Y559046D01*
G01X-3711219Y560069D01*
G01X-3710197Y561092D01*
G01X-3708969Y562523D01*
G01X-3706924Y565796D01*
G01X-3706106Y567637D01*
G01X-3705492Y569273D01*
G01X-3704878Y571114D01*
G01X-3704470Y572751D01*
G01X-3706055Y573211D01*
G01X-3711219Y573364D01*
G01X-3718788Y573160D01*
G01X-3720424Y572751D01*
G01X-3722060Y572137D01*
G01X-3723492Y571319D01*
G01X-3724924Y569887D01*
G01X-3725947Y567637D01*
G01X-3726356Y564569D01*
G01X-3740827Y564569D01*
G01X-3740674Y564978D01*
G01X-3739651Y567024D01*
G01X-3738628Y568864D01*
G01X-3737401Y570705D01*
G01X-3736174Y572342D01*
G01X-3735151Y573364D01*
G01X-3734333Y574387D01*
G01X-3734589Y574899D01*
G01X-3735765Y575205D01*
G01X-3738015Y575614D01*
G01X-3739651Y576023D01*
G01X-3740674Y576228D01*
G01X-3740674Y598319D01*
G01X-3739651Y597910D01*
G01X-3737197Y597092D01*
G01X-3734947Y596683D01*
G01X-3733515Y596478D01*
G01X-3730242Y596069D01*
G01X-3686060Y595660D01*
G01X-3679924Y595251D01*
G01X-3677879Y594842D01*
G01X-3675629Y594228D01*
G01X-3673992Y593614D01*
G01X-3672151Y592592D01*
G01X-3670515Y591364D01*
G01X-3669492Y590342D01*
G01X-3667856Y588296D01*
G01X-3667038Y587069D01*
G01X-3665401Y583796D01*
G01X-3664788Y582160D01*
G01X-3664174Y580319D01*
G01X-3663560Y577864D01*
G01X-3663151Y575614D01*
G01X-3662742Y572342D01*
G01X-3662538Y566819D01*
G01X-3662742Y561296D01*
G01X-3663151Y558024D01*
G01X-3663560Y556183D01*
G01X-3664174Y554137D01*
G01X-3664788Y552296D01*
G01X-3665401Y550660D01*
G01X-3666219Y549024D01*
G01X-3667038Y547591D01*
G01X-3667856Y546569D01*
G01X-3670924Y543501D01*
G01X-3672356Y542478D01*
G01X-3674197Y541455D01*
G01X-3675833Y540637D01*
G01X-3677879Y539819D01*
G01X-3680333Y539205D01*
G01X-3682378Y538796D01*
G01X-3685242Y538387D01*
G01X-3687492Y538387D01*
G01X-3687901Y549024D01*
G01X-3687901Y559455D01*
G01X-3686469Y559455D01*
G01X-3684424Y559660D01*
G01X-3682788Y560069D01*
G01X-3681151Y560682D01*
G01X-3679924Y561501D01*
G01X-3678901Y562933D01*
G01X-3678288Y564569D01*
G01X-3677879Y566410D01*
G01X-3677879Y568251D01*
G01X-3678288Y569887D01*
G01X-3679310Y571933D01*
G01X-3681151Y573160D01*
G01X-3682788Y573569D01*
G01X-3685038Y573773D01*
G01X-3687492Y573160D01*
G01X-3688924Y572137D01*
G01X-3690151Y570705D01*
G01X-3692197Y567432D01*
G01X-3693219Y565183D01*
G01X-3694856Y561092D01*
G01X-3696492Y556592D01*
G01X-3697310Y554546D01*
G01X-3698128Y552705D01*
G01X-3698947Y551069D01*
G01X-3701401Y546773D01*
G01X-3702424Y545546D01*
G01X-3704060Y543501D01*
G01X-3706106Y541455D01*
G01X-3707538Y540432D01*
G01X-3709379Y539205D01*
G01X-3711629Y538183D01*
G01X-3713470Y537569D01*
G01X-3715106Y537160D01*
G37*
G36*
G01X-3638606Y564569D02*
G01X-3638401Y556592D01*
G01X-3638401Y549637D01*
G01X-3655992Y549637D01*
G01X-3655992Y565183D01*
G01X-3654970Y565387D01*
G01X-3646378Y565592D01*
G01X-3638810Y565592D01*
G01X-3638606Y564569D01*
G37*
G36*
G01X-3638606Y587887D02*
G01X-3638401Y579910D01*
G01X-3638401Y572955D01*
G01X-3655992Y572955D01*
G01X-3655992Y588501D01*
G01X-3654970Y588705D01*
G01X-3646378Y588910D01*
G01X-3638810Y588910D01*
G01X-3638606Y587887D01*
G37*
G36*
G01X-3690765Y630637D02*
G01X-3664583Y630637D01*
G01X-3664583Y609364D01*
G01X-3693833Y609364D01*
G01X-3723697Y609569D01*
G01X-3727379Y609978D01*
G01X-3729219Y610387D01*
G01X-3731265Y611001D01*
G01X-3732901Y611614D01*
G01X-3734333Y612228D01*
G01X-3735765Y613046D01*
G01X-3736992Y613864D01*
G01X-3738015Y614683D01*
G01X-3739038Y615910D01*
G01X-3739856Y617137D01*
G01X-3740674Y618569D01*
G01X-3741492Y620819D01*
G01X-3742106Y622660D01*
G01X-3742310Y626342D01*
G01X-3742106Y630023D01*
G01X-3741697Y631864D01*
G01X-3741083Y633910D01*
G01X-3740265Y635751D01*
G01X-3739242Y637592D01*
G01X-3738220Y639023D01*
G01X-3734538Y642705D01*
G01X-3733515Y643523D01*
G01X-3732697Y644342D01*
G01X-3733566Y644802D01*
G01X-3736583Y644955D01*
G01X-3740674Y644955D01*
G01X-3740674Y665001D01*
G01X-3664992Y665001D01*
G01X-3664788Y663978D01*
G01X-3664583Y653342D01*
G01X-3664583Y643728D01*
G01X-3690151Y643728D01*
G01X-3716333Y643523D01*
G01X-3717765Y643319D01*
G01X-3719401Y642910D01*
G01X-3721242Y642092D01*
G01X-3723288Y640864D01*
G01X-3724515Y639228D01*
G01X-3725333Y636364D01*
G01X-3725333Y634932D01*
G01X-3724924Y633705D01*
G01X-3723901Y632478D01*
G01X-3721856Y631455D01*
G01X-3719401Y631046D01*
G01X-3717560Y630842D01*
G01X-3690765Y630637D01*
G37*
G36*
G01X-3664583Y674410D02*
G01X-3680538Y674410D01*
G01X-3680742Y675432D01*
G01X-3680947Y679933D01*
G01X-3680947Y683410D01*
G01X-3740674Y683410D01*
G01X-3740674Y704683D01*
G01X-3680947Y704683D01*
G01X-3680947Y713683D01*
G01X-3664583Y713683D01*
G01X-3664583Y704683D01*
G01X-3663560Y704478D01*
G01X-3661106Y704273D01*
G01X-3659060Y704478D01*
G01X-3657424Y705092D01*
G01X-3655788Y706523D01*
G01X-3654970Y708569D01*
G01X-3654765Y711637D01*
G01X-3654765Y713683D01*
G01X-3639219Y713683D01*
G01X-3639219Y710001D01*
G01X-3639015Y705705D01*
G01X-3639015Y704478D01*
G01X-3639424Y698751D01*
G01X-3639833Y696705D01*
G01X-3640447Y694455D01*
G01X-3641060Y692819D01*
G01X-3641879Y691183D01*
G01X-3643106Y689342D01*
G01X-3644333Y687910D01*
G01X-3645765Y686887D01*
G01X-3647606Y685864D01*
G01X-3649242Y685046D01*
G01X-3651083Y684432D01*
G01X-3652924Y684024D01*
G01X-3654970Y683614D01*
G01X-3657219Y683410D01*
G01X-3658651Y683205D01*
G01X-3661106Y683001D01*
G01X-3663560Y683205D01*
G01X-3664072Y683205D01*
G01X-3664378Y682796D01*
G01X-3664583Y678296D01*
G01X-3664583Y674410D01*
G37*
G36*
G01X-3698742Y722069D02*
G01X-3704060Y721864D01*
G01X-3709379Y722069D01*
G01X-3717969Y722478D01*
G01X-3721651Y722887D01*
G01X-3723901Y723296D01*
G01X-3726356Y723910D01*
G01X-3730038Y725137D01*
G01X-3731878Y726160D01*
G01X-3733924Y727387D01*
G01X-3735356Y728614D01*
G01X-3736379Y729637D01*
G01X-3737606Y731069D01*
G01X-3738628Y732705D01*
G01X-3740265Y735978D01*
G01X-3740878Y737614D01*
G01X-3741492Y739455D01*
G01X-3741901Y741091D01*
G01X-3742106Y742523D01*
G01X-3742515Y743751D01*
G01X-3742719Y750091D01*
G01X-3742515Y756433D01*
G01X-3741697Y760523D01*
G01X-3741083Y762364D01*
G01X-3740265Y764614D01*
G01X-3739447Y766251D01*
G01X-3738424Y767887D01*
G01X-3737401Y769319D01*
G01X-3736583Y770342D01*
G01X-3735560Y771364D01*
G01X-3733924Y772592D01*
G01X-3731878Y774023D01*
G01X-3729833Y775046D01*
G01X-3727992Y775864D01*
G01X-3725947Y776478D01*
G01X-3724106Y776887D01*
G01X-3722060Y777296D01*
G01X-3718788Y777705D01*
G01X-3715515Y777910D01*
G01X-3714083Y777910D01*
G01X-3714083Y767887D01*
G01X-3714288Y760370D01*
G01X-3714901Y757864D01*
G01X-3716333Y758069D01*
G01X-3718788Y758273D01*
G01X-3721242Y758069D01*
G01X-3722878Y757660D01*
G01X-3724310Y757046D01*
G01X-3725333Y756228D01*
G01X-3726356Y755001D01*
G01X-3726969Y753569D01*
G01X-3727379Y751932D01*
G01X-3727583Y750091D01*
G01X-3727379Y748660D01*
G01X-3726765Y747228D01*
G01X-3725742Y746001D01*
G01X-3724719Y745182D01*
G01X-3723492Y744569D01*
G01X-3722060Y744160D01*
G01X-3720015Y743751D01*
G01X-3717560Y743546D01*
G01X-3715924Y743342D01*
G01X-3712447Y743137D01*
G01X-3708969Y743342D01*
G01X-3706924Y743546D01*
G01X-3705492Y743546D01*
G01X-3705492Y751524D01*
G01X-3692401Y751524D01*
G01X-3692197Y744160D01*
G01X-3688310Y743955D01*
G01X-3684015Y744160D01*
G01X-3682174Y744569D01*
G01X-3680333Y745182D01*
G01X-3679106Y746001D01*
G01X-3677879Y747433D01*
G01X-3677265Y749273D01*
G01X-3677060Y750705D01*
G01X-3677060Y752751D01*
G01X-3677879Y755001D01*
G01X-3678901Y756228D01*
G01X-3680333Y757251D01*
G01X-3682992Y758069D01*
G01X-3685242Y758478D01*
G01X-3689128Y758683D01*
G01X-3692401Y758683D01*
G01X-3692401Y751524D01*
G01X-3692401Y751524D01*
G01X-3705492Y751524D01*
G01X-3705492Y778319D01*
G01X-3697515Y778319D01*
G01X-3688924Y778114D01*
G01X-3683606Y777705D01*
G01X-3680742Y777296D01*
G01X-3679106Y776887D01*
G01X-3677265Y776273D01*
G01X-3675424Y775455D01*
G01X-3673788Y774637D01*
G01X-3672151Y773614D01*
G01X-3670720Y772387D01*
G01X-3668674Y770342D01*
G01X-3667651Y768910D01*
G01X-3666424Y767069D01*
G01X-3665401Y765023D01*
G01X-3664583Y763182D01*
G01X-3663970Y761137D01*
G01X-3663560Y759296D01*
G01X-3663151Y757251D01*
G01X-3662742Y753978D01*
G01X-3662538Y749683D01*
G01X-3662742Y746614D01*
G01X-3663151Y743342D01*
G01X-3663970Y739660D01*
G01X-3664583Y738023D01*
G01X-3665401Y735978D01*
G01X-3666219Y734342D01*
G01X-3667242Y732705D01*
G01X-3668265Y731273D01*
G01X-3669083Y730251D01*
G01X-3670106Y729228D01*
G01X-3671742Y728001D01*
G01X-3673788Y726569D01*
G01X-3675833Y725546D01*
G01X-3677879Y724728D01*
G01X-3680333Y723910D01*
G01X-3683197Y723296D01*
G01X-3685651Y722887D01*
G01X-3687901Y722683D01*
G01X-3689742Y722478D01*
G01X-3698742Y722069D01*
G37*
G36*
G01X-3668879Y810228D02*
G01X-3664583Y810228D01*
G01X-3664583Y790592D01*
G01X-3740674Y790592D01*
G01X-3740674Y811864D01*
G01X-3719401Y811864D01*
G01X-3697515Y812069D01*
G01X-3693833Y812478D01*
G01X-3692197Y812887D01*
G01X-3690560Y813501D01*
G01X-3689333Y814319D01*
G01X-3688310Y815342D01*
G01X-3687492Y816569D01*
G01X-3686879Y818614D01*
G01X-3686674Y822705D01*
G01X-3686879Y825978D01*
G01X-3686879Y827001D01*
G01X-3675015Y827410D01*
G01X-3663356Y827410D01*
G01X-3663356Y826182D01*
G01X-3663765Y824137D01*
G01X-3664378Y822296D01*
G01X-3664992Y820660D01*
G01X-3666015Y819024D01*
G01X-3667447Y816978D01*
G01X-3670924Y813501D01*
G01X-3672560Y812273D01*
G01X-3673992Y811046D01*
G01X-3674146Y810688D01*
G01X-3673788Y810432D01*
G01X-3668879Y810228D01*
G37*
G04 Text End*

G04 PolygonModel Start*
G54D10*
G01X166537Y1140341D02*
G03X-333463Y1640341I-500000J0D01*
G01X166537Y-2159659D02*
G01X166537Y1092313D01*
G01X-333463Y-2659659D02*
G03X166537Y-2159659I0J500000D01*
G01X-3633463Y-2659659D02*
G01X-333463Y-2659659D01*
G01X-4133463Y-2159659D02*
G03X-3633463Y-2659659I500000J0D01*
G01X-3633463Y1640341D02*
G03X-4133463Y1140341I0J-500000D01*
G01X-298405Y1640341D02*
G01X-3598405Y1640341D01*
G54D11*
G01X-493391Y1230341D02*
G03X-769548Y1506498I-276157J0D01*
G01X-779021Y1506498D01*
G01X-243463Y979744D02*
G01X-232776Y979744D01*
G02X31830Y699352I-26072J-289654D01*
G01X-243463Y-1999731D02*
G03X32694Y-1723574I0J276157D01*
G01X32694Y-1714101D01*
G01X-494061Y-2249659D02*
G01X-494061Y-2260346D01*
G02X-774453Y-2524952I-289654J26072D01*
G01X-3473535Y-2249659D02*
G03X-3197378Y-2525816I276157J0D01*
G01X-3187905Y-2525816D01*
G01X-3723463Y-1999061D02*
G01X-3734150Y-1999061D01*
G02X-3998756Y-1718669I26072J289654D01*
G01X-3472866Y1230341D02*
G01X-3472866Y1241028D01*
G02X-3192474Y1505634I289654J-26072D01*
G01X-3723463Y980413D02*
G03X-3999620Y704256I0J-276157D01*
G01X-3999620Y694783D01*
G36*
G01X-3999273Y693321D02*
G01X-3987261Y785046D01*
G01X-3952318Y862575D01*
G01X-3856226Y949932D01*
G01X-3802720Y971771D01*
G01X-3765593Y992519D01*
G01X-3836570Y1044933D01*
G01X-3916284Y1109359D01*
G01X-3962146Y1175969D01*
G01X-3981802Y1226199D01*
G01X-4111745Y1201084D01*
G01X-4120481Y905162D01*
G01X-3999273Y693321D01*
G37*
G36*
G01X-3274209Y1492638D02*
G01X-3377582Y1436584D01*
G01X-3444555Y1355051D01*
G01X-3470763Y1280069D01*
G01X-3504977Y1281525D01*
G01X-3545016Y1371066D01*
G01X-3614902Y1430032D01*
G01X-3687699Y1457695D01*
G01X-3719730Y1477351D01*
G01X-3695707Y1519573D01*
G01X-3290953Y1506470D01*
G01X-3274209Y1492638D01*
G37*
G36*
G01X-3985760Y-1800405D02*
G01X-3929706Y-1903777D01*
G01X-3848173Y-1970751D01*
G01X-3773191Y-1996958D01*
G01X-3774647Y-2031173D01*
G01X-3864188Y-2071212D01*
G01X-3923154Y-2141098D01*
G01X-3950817Y-2213895D01*
G01X-3970473Y-2245926D01*
G01X-4012695Y-2221903D01*
G01X-3999592Y-1817148D01*
G01X-3985760Y-1800405D01*
G37*
G36*
G01X-3186443Y-2525469D02*
G01X-3278168Y-2513457D01*
G01X-3355697Y-2478514D01*
G01X-3443054Y-2382421D01*
G01X-3464894Y-2328915D01*
G01X-3485641Y-2291788D01*
G01X-3538055Y-2362766D01*
G01X-3602481Y-2442479D01*
G01X-3669091Y-2488342D01*
G01X-3719321Y-2507997D01*
G01X-3694206Y-2637941D01*
G01X-3398284Y-2646677D01*
G01X-3186443Y-2525469D01*
G37*
G36*
G01X-692717Y-2511956D02*
G01X-589345Y-2455902D01*
G01X-522371Y-2374368D01*
G01X-496164Y-2299387D01*
G01X-461949Y-2300843D01*
G01X-421910Y-2390384D01*
G01X-352024Y-2449350D01*
G01X-279227Y-2477013D01*
G01X-247196Y-2496668D01*
G01X-271219Y-2538891D01*
G01X-675974Y-2525787D01*
G01X-692717Y-2511956D01*
G37*
G36*
G01X32347Y-1712638D02*
G01X20335Y-1804363D01*
G01X-14608Y-1881893D01*
G01X-110701Y-1969250D01*
G01X-164207Y-1991089D01*
G01X-201334Y-2011836D01*
G01X-130356Y-2064251D01*
G01X-50643Y-2128677D01*
G01X-4780Y-2195286D01*
G01X14875Y-2245517D01*
G01X144819Y-2220402D01*
G01X153555Y-1924480D01*
G01X32347Y-1712638D01*
G37*
G36*
G01X18834Y781087D02*
G01X-37220Y884460D01*
G01X-118754Y951433D01*
G01X-193735Y977641D01*
G01X-192279Y1011855D01*
G01X-102738Y1051894D01*
G01X-43772Y1121780D01*
G01X-16109Y1194577D01*
G01X3546Y1226608D01*
G01X45769Y1202585D01*
G01X32665Y797831D01*
G01X18834Y781087D01*
G37*
G36*
G01X-780484Y1506151D02*
G01X-688759Y1494139D01*
G01X-611229Y1459196D01*
G01X-523872Y1363104D01*
G01X-502033Y1309598D01*
G01X-481286Y1272471D01*
G01X-428871Y1343448D01*
G01X-364445Y1423162D01*
G01X-297836Y1469024D01*
G01X-247605Y1488680D01*
G01X-272720Y1618623D01*
G01X-568642Y1627359D01*
G01X-780484Y1506151D01*
G37*

G04 Rect Start*
G36*
G01X-4283323Y-2156363D02*
G01X-4283323Y1132937D01*
G01X-3983603Y1132937D01*
G01X-3983603Y-2156363D01*
G01X-4283323Y-2156363D01*
G37*
G04 Rect End*

G04 Pad Start*
G54D12*
G01X-3238994Y-2126996D03*
G01X-3034994Y-2253995D03*
G54D13*
G01X-243463Y-2249659D03*
G01X-3723463Y-2249659D03*
G01X-243463Y1230341D03*
G01X-3723463Y1230341D03*
G54D14*
G01X-3479275Y63746D03*
G01X-3093474Y63746D03*
G54D15*
G01X-1695624Y1161207D03*
G01X-1990623Y1161207D03*
G54D16*
G01X-688126Y701164D03*
G01X-688126Y996163D03*
G54D17*
G01X-1845623Y886208D03*
G01X-1550624Y886208D03*
G01X-2929355Y886208D03*
G01X-2634356Y886208D03*
G54D19*
G01X-1998273Y877218D03*
G01X-1998273Y812220D03*
G01X-1998273Y747221D03*
G01X-1998273Y682222D03*
G01X-1998273Y617224D03*
G54D20*
G01X-2115113Y500358D03*
G01X-2180111Y500358D03*
G01X-2245110Y500358D03*
G01X-2310109Y500358D03*
G01X-2375107Y500358D03*
G54D19*
G01X-2491973Y617224D03*
G01X-2491973Y682222D03*
G01X-2491973Y747221D03*
G01X-2491973Y812220D03*
G01X-2491973Y877218D03*
G54D20*
G01X-2375107Y994058D03*
G01X-2310109Y994058D03*
G01X-2245110Y994058D03*
G01X-2180111Y994058D03*
G01X-2115113Y994058D03*
G54D21*
G01X-2245110Y747221D03*
G54D19*
G01X-892275Y877218D03*
G01X-892275Y812220D03*
G01X-892275Y747221D03*
G01X-892275Y682222D03*
G01X-892275Y617224D03*
G54D20*
G01X-1009115Y500358D03*
G01X-1074114Y500358D03*
G01X-1139112Y500358D03*
G01X-1204111Y500358D03*
G01X-1269109Y500358D03*
G54D19*
G01X-1385975Y617224D03*
G01X-1385975Y682222D03*
G01X-1385975Y747221D03*
G01X-1385975Y812220D03*
G01X-1385975Y877218D03*
G54D20*
G01X-1269109Y994058D03*
G01X-1204111Y994058D03*
G01X-1139112Y994058D03*
G01X-1074114Y994058D03*
G01X-1009115Y994058D03*
G54D21*
G01X-1139112Y747221D03*
G54D22*
G01X-3379404Y-1263816D03*
G01X-3252404Y-1263816D03*
G01X-3633404Y-1263816D03*
G01X-3506404Y-1263816D03*
G01X-3506404Y-503848D03*
G01X-3379404Y-503848D03*
G01X-3252404Y-503822D03*
G01X-3633404Y-503822D03*
G54D23*
G01X-3442879Y-883857D03*
G54D24*
G01X-1393124Y-710622D03*
G01X-1253119Y-710622D03*
G01X-1393124Y-1006700D03*
G01X-1253119Y-1006700D03*
G01X-1393124Y-1154739D03*
G01X-1253119Y-1154739D03*
G01X-2796679Y-848334D03*
G01X-2656674Y-848334D03*
G54D25*
G01X-1877943Y-365141D03*
G01X-1877943Y-225136D03*
G01X-2236083Y-362601D03*
G01X-2236083Y-222596D03*
G54D24*
G01X-2796679Y-996241D03*
G01X-2656674Y-996241D03*
G54D25*
G01X-2238122Y-1683000D03*
G01X-2238122Y-1542995D03*
G01X-3096447Y779246D03*
G01X-3096447Y919251D03*
G01X-3240667Y776212D03*
G01X-3240667Y916217D03*
G01X-2388122Y-1683000D03*
G01X-2388122Y-1542995D03*
G54D24*
G01X-2796679Y-1587869D03*
G01X-2656674Y-1587869D03*
G01X-1393124Y-1302779D03*
G01X-1253119Y-1302779D03*
G01X-2796679Y-700427D03*
G01X-2656674Y-700427D03*
G01X-2796679Y-1439962D03*
G01X-2656674Y-1439962D03*
G54D26*
G01X-3096988Y606942D03*
G01X-3096988Y466937D03*
G54D25*
G01X-1938679Y-1683000D03*
G01X-1938679Y-1542995D03*
G54D26*
G01X-2021996Y127002D03*
G01X-2021996Y-13003D03*
G01X-1878484Y127002D03*
G01X-1878484Y-13003D03*
G54D27*
G01X-1251570Y-414003D03*
G01X-1391575Y-414003D03*
G01X-1251570Y-562042D03*
G01X-1391575Y-562042D03*
G54D26*
G01X-2646995Y127002D03*
G01X-2646995Y-13003D03*
G01X-2502774Y127002D03*
G01X-2502774Y-13003D03*
G54D24*
G01X-667298Y116700D03*
G01X-527294Y116700D03*
G54D27*
G01X-527294Y-27521D03*
G01X-667298Y-27521D03*
G54D28*
G01X-2796679Y-1292055D03*
G01X-2656674Y-1292055D03*
G01X-2796679Y-1144148D03*
G01X-2656674Y-1144148D03*
G54D29*
G01X-527908Y559178D03*
G01X-667913Y559178D03*
G54D28*
G01X-2796679Y-2031590D03*
G01X-2656674Y-2031590D03*
G54D30*
G01X-2388392Y-2034657D03*
G01X-2388392Y-2174662D03*
G01X-2238393Y-2034657D03*
G01X-2238393Y-2174662D03*
G01X-2088393Y-2034657D03*
G01X-2088393Y-2174662D03*
G54D29*
G01X-528124Y255892D03*
G01X-668128Y255892D03*
G01X-528124Y405815D03*
G01X-668128Y405815D03*
G01X-1668001Y481892D03*
G01X-1808006Y481892D03*
G01X-1668001Y337209D03*
G01X-1808006Y337209D03*
G01X-1253121Y-858120D03*
G01X-1393126Y-858120D03*
G01X-2655125Y-551979D03*
G01X-2795130Y-551979D03*
G01X-2655125Y-404072D03*
G01X-2795130Y-404072D03*
G54D28*
G01X-2796679Y-1883683D03*
G01X-2656674Y-1883683D03*
G01X-2796679Y-1735776D03*
G01X-2656674Y-1735776D03*
G01X-1387911Y-1450818D03*
G01X-1247906Y-1450818D03*
G54D30*
G01X-1938392Y-2034657D03*
G01X-1938392Y-2174662D03*
G01X-1381184Y-1613656D03*
G01X-1381184Y-1753660D03*
G01X-1231184Y-1613656D03*
G01X-1231184Y-1753660D03*
G01X-1081184Y-1613656D03*
G01X-1081184Y-1753660D03*
G01X-931184Y-1613656D03*
G01X-931184Y-1753660D03*
G01X-778223Y-1613656D03*
G01X-778223Y-1753660D03*
G01X-1382179Y-1910129D03*
G01X-1382179Y-2050133D03*
G01X-1232179Y-1910129D03*
G01X-1232179Y-2050133D03*
G01X-1082179Y-1910129D03*
G01X-1082179Y-2050133D03*
G01X-932179Y-1910129D03*
G01X-932179Y-2050133D03*
G01X-779218Y-1910129D03*
G01X-779218Y-2050133D03*
G54D31*
G01X-2088400Y-1683000D03*
G01X-2088400Y-1542995D03*
G54D32*
G01X-1735997Y98000D03*
G01X-1645997Y98000D03*
G54D33*
G01X-1322158Y-285999D03*
G01X-1412157Y-285999D03*
G01X-1322158Y-184000D03*
G01X-1412157Y-184000D03*
G54D34*
G01X-2819587Y708769D03*
G01X-2668914Y708769D03*
G01X-1735856Y708769D03*
G01X-1585183Y708769D03*
G54D35*
G01X-677415Y-1023233D03*
G01X-677415Y-1243232D03*
G01X-847415Y-1243232D03*
G01X-847415Y-1023233D03*
G54D36*
G01X-3237897Y601862D03*
G54D37*
G01X-3237897Y485022D03*
G54D38*
G01X-3375555Y601862D03*
G54D39*
G01X-3375555Y485022D03*
G54D40*
G01X-1313126Y1196207D03*
G01X-1043124Y1196207D03*
G01X-2418124Y1196207D03*
G01X-2148122Y1196207D03*
G54D32*
G01X-1730727Y207998D03*
G01X-1640727Y207998D03*
G54D41*
G01X-498121Y-1602997D03*
G01X-498121Y-1122998D03*
G01X-68122Y-1122998D03*
G01X-68122Y-1602997D03*
G54D42*
G01X-2237003Y-568609D03*
G01X-2197003Y-568609D03*
G01X-2157003Y-568609D03*
G01X-2117003Y-568609D03*
G01X-2077003Y-568609D03*
G01X-2037003Y-568609D03*
G01X-1997003Y-568609D03*
G01X-1957003Y-568609D03*
G01X-1917003Y-568609D03*
G01X-1877003Y-568609D03*
G01X-1837003Y-568609D03*
G01X-1797004Y-568609D03*
G01X-1757004Y-568609D03*
G01X-1717004Y-568609D03*
G54D43*
G01X-1633254Y-652359D03*
G01X-1633254Y-692359D03*
G01X-1633254Y-732359D03*
G01X-1633254Y-772359D03*
G01X-1633254Y-812359D03*
G01X-1633254Y-852359D03*
G01X-1633254Y-892359D03*
G01X-1633254Y-932359D03*
G01X-1633254Y-972359D03*
G01X-1633254Y-1012359D03*
G01X-1633254Y-1052359D03*
G01X-1633254Y-1092358D03*
G01X-1633254Y-1132358D03*
G01X-1633254Y-1172358D03*
G54D42*
G01X-1717004Y-1256108D03*
G01X-1757004Y-1256108D03*
G01X-1797004Y-1256108D03*
G01X-1837003Y-1256108D03*
G01X-1877003Y-1256108D03*
G01X-1917003Y-1256108D03*
G01X-1957003Y-1256108D03*
G01X-1997003Y-1256108D03*
G01X-2037003Y-1256108D03*
G01X-2077003Y-1256108D03*
G01X-2117003Y-1256108D03*
G01X-2157003Y-1256108D03*
G01X-2197003Y-1256108D03*
G01X-2237003Y-1256108D03*
G54D43*
G01X-2320753Y-1172358D03*
G01X-2320753Y-1132358D03*
G01X-2320753Y-1092358D03*
G01X-2320753Y-1052359D03*
G01X-2320753Y-1012359D03*
G01X-2320753Y-972359D03*
G01X-2320753Y-932359D03*
G01X-2320753Y-892359D03*
G01X-2320753Y-852359D03*
G01X-2320753Y-812359D03*
G01X-2320753Y-772359D03*
G01X-2320753Y-732359D03*
G01X-2320753Y-692359D03*
G01X-2320753Y-652359D03*
G54D44*
G01X-1977003Y-912359D03*
G04 Pad End*

M02*

