G04 Layer: BottomPasteMaskLayer*
G04 EasyEDA Pro v2.2.28.1, 2024-10-10 19:46:05*
G04 Gerber Generator version 0.3*
G04 Scale: 100 percent, Rotated: No, Reflected: No*
G04 Dimensions in millimeters*
G04 Leading zeros omitted, absolute positions, 3 integers and 5 decimals*
%FSLAX35Y35*%
%MOMM*%
%AMRoundRect*1,1,$1,$2,$3*1,1,$1,$4,$5*1,1,$1,0-$2,0-$3*1,1,$1,0-$4,0-$5*20,1,$1,$2,$3,$4,$5,0*20,1,$1,$4,$5,0-$2,0-$3,0*20,1,$1,0-$2,0-$3,0-$4,0-$5,0*20,1,$1,0-$4,0-$5,$2,$3,0*4,1,4,$2,$3,$4,$5,0-$2,0-$3,0-$4,0-$5,$2,$3,0*%
%ADD10R,2.07X2.05999*%
%ADD11R,1.05X1.6*%
%ADD12R,1.6X1.05*%
%ADD13R,1.05X1.6*%
%ADD14R,0.6X1.2*%
%ADD15R,4.3084X3.39999*%
%ADD16R,4.29999X3.39999*%
%ADD17R,0.8X0.762*%
%ADD18R,0.762X0.8*%
%ADD19R,0.762X0.8*%
%ADD20R,0.8X0.762*%
%ADD21R,0.8X0.9*%
%ADD22R,0.8X0.9*%
%ADD23R,0.9X0.8*%
%ADD24R,0.9X0.8*%
%ADD25R,1.2X1.4*%
%ADD26R,0.8001X1.04902*%
%ADD27R,0.8001X0.65024*%
%ADD28R,0.8001X1.04902*%
%ADD29R,0.8001X0.65024*%
%ADD30R,1.2X1.4*%
%ADD31RoundRect,0.1X0.05X0.3875X0.05X-0.3875*%
%ADD32RoundRect,0.1X0.3875X0.05X0.3875X-0.05*%
%ADD33RoundRect,0.288X1.456X1.456X1.456X-1.456*%
G75*


G04 PolygonModel Start*
G36*
G01X-2119108Y873223D02*
G01X-2371109Y873223D01*
G01X-2371109Y621222D01*
G01X-2119108Y621222D01*
G01X-2119108Y873223D01*
G37*
G36*
G01X-1962124Y859017D02*
G03X-1962124Y895420I0J18202D01*
G01X-2034422Y895420D01*
G03X-2034422Y859017I0J-18202D01*
G01X-1962124Y859017D01*
G37*
G36*
G01X-1962124Y794018D02*
G03X-1962124Y830421I0J18202D01*
G01X-2034422Y830421D01*
G03X-2034422Y794018I0J-18202D01*
G01X-1962124Y794018D01*
G37*
G36*
G01X-1962124Y729019D02*
G03X-1962124Y765423I0J18202D01*
G01X-2034422Y765423D01*
G03X-2034422Y729019I0J-18202D01*
G01X-1962124Y729019D01*
G37*
G36*
G01X-1962124Y664021D02*
G03X-1962124Y700424I0J18202D01*
G01X-2034422Y700424D01*
G03X-2034422Y664021I0J-18202D01*
G01X-1962124Y664021D01*
G37*
G36*
G01X-1962124Y599022D02*
G03X-1962124Y635425I0J18202D01*
G01X-2034422Y635425D01*
G03X-2034422Y599022I0J-18202D01*
G01X-1962124Y599022D01*
G37*
G36*
G01X-2096911Y536508D02*
G03X-2133315Y536508I-18202J0D01*
G01X-2133315Y464209D01*
G03X-2096911Y464209I18202J0D01*
G01X-2096911Y536508D01*
G37*
G36*
G01X-2161910Y536508D02*
G03X-2198313Y536508I-18202J0D01*
G01X-2198313Y464209D01*
G03X-2161910Y464209I18202J0D01*
G01X-2161910Y536508D01*
G37*
G36*
G01X-2226908Y536508D02*
G03X-2263312Y536508I-18202J0D01*
G01X-2263312Y464209D01*
G03X-2226908Y464209I18202J0D01*
G01X-2226908Y536508D01*
G37*
G36*
G01X-2291907Y536508D02*
G03X-2328310Y536508I-18202J0D01*
G01X-2328310Y464209D01*
G03X-2291907Y464209I18202J0D01*
G01X-2291907Y536508D01*
G37*
G36*
G01X-2356906Y536508D02*
G03X-2393309Y536508I-18202J0D01*
G01X-2393309Y464209D01*
G03X-2356906Y464209I18202J0D01*
G01X-2356906Y536508D01*
G37*
G36*
G01X-2455823Y599022D02*
G03X-2455823Y635425I0J18202D01*
G01X-2528122Y635425D01*
G03X-2528122Y599022I0J-18202D01*
G01X-2455823Y599022D01*
G37*
G36*
G01X-2455823Y664021D02*
G03X-2455823Y700424I0J18202D01*
G01X-2528122Y700424D01*
G03X-2528122Y664021I0J-18202D01*
G01X-2455823Y664021D01*
G37*
G36*
G01X-2455823Y729019D02*
G03X-2455823Y765423I0J18202D01*
G01X-2528122Y765423D01*
G03X-2528122Y729019I0J-18202D01*
G01X-2455823Y729019D01*
G37*
G36*
G01X-2455823Y794018D02*
G03X-2455823Y830421I0J18202D01*
G01X-2528122Y830421D01*
G03X-2528122Y794018I0J-18202D01*
G01X-2455823Y794018D01*
G37*
G36*
G01X-2455823Y859017D02*
G03X-2455823Y895420I0J18202D01*
G01X-2528122Y895420D01*
G03X-2528122Y859017I0J-18202D01*
G01X-2455823Y859017D01*
G37*
G36*
G01X-2356906Y1030207D02*
G03X-2393309Y1030207I-18202J0D01*
G01X-2393309Y957909D01*
G03X-2356906Y957909I18202J0D01*
G01X-2356906Y1030207D01*
G37*
G36*
G01X-2291907Y1030207D02*
G03X-2328310Y1030207I-18202J0D01*
G01X-2328310Y957909D01*
G03X-2291907Y957909I18202J0D01*
G01X-2291907Y1030207D01*
G37*
G36*
G01X-2226908Y1030207D02*
G03X-2263312Y1030207I-18202J0D01*
G01X-2263312Y957909D01*
G03X-2226908Y957909I18202J0D01*
G01X-2226908Y1030207D01*
G37*
G36*
G01X-2161910Y1030207D02*
G03X-2198313Y1030207I-18202J0D01*
G01X-2198313Y957909D01*
G03X-2161910Y957909I18202J0D01*
G01X-2161910Y1030207D01*
G37*
G36*
G01X-2096911Y1030207D02*
G03X-2133315Y1030207I-18202J0D01*
G01X-2133315Y957909D01*
G03X-2096911Y957909I18202J0D01*
G01X-2096911Y1030207D01*
G37*
G36*
G01X-1013110Y873223D02*
G01X-1265112Y873223D01*
G01X-1265112Y621222D01*
G01X-1013110Y621222D01*
G01X-1013110Y873223D01*
G37*
G36*
G01X-856126Y859017D02*
G03X-856126Y895420I0J18202D01*
G01X-928424Y895420D01*
G03X-928424Y859017I0J-18202D01*
G01X-856126Y859017D01*
G37*
G36*
G01X-856126Y794018D02*
G03X-856126Y830421I0J18202D01*
G01X-928424Y830421D01*
G03X-928424Y794018I0J-18202D01*
G01X-856126Y794018D01*
G37*
G36*
G01X-856126Y729019D02*
G03X-856126Y765423I0J18202D01*
G01X-928424Y765423D01*
G03X-928424Y729019I0J-18202D01*
G01X-856126Y729019D01*
G37*
G36*
G01X-856126Y664021D02*
G03X-856126Y700424I0J18202D01*
G01X-928424Y700424D01*
G03X-928424Y664021I0J-18202D01*
G01X-856126Y664021D01*
G37*
G36*
G01X-856126Y599022D02*
G03X-856126Y635425I0J18202D01*
G01X-928424Y635425D01*
G03X-928424Y599022I0J-18202D01*
G01X-856126Y599022D01*
G37*
G36*
G01X-990913Y536508D02*
G03X-1027317Y536508I-18202J0D01*
G01X-1027317Y464209D01*
G03X-990913Y464209I18202J0D01*
G01X-990913Y536508D01*
G37*
G36*
G01X-1055912Y536508D02*
G03X-1092315Y536508I-18202J0D01*
G01X-1092315Y464209D01*
G03X-1055912Y464209I18202J0D01*
G01X-1055912Y536508D01*
G37*
G36*
G01X-1120911Y536508D02*
G03X-1157314Y536508I-18202J0D01*
G01X-1157314Y464209D01*
G03X-1120911Y464209I18202J0D01*
G01X-1120911Y536508D01*
G37*
G36*
G01X-1185909Y536508D02*
G03X-1222313Y536508I-18202J0D01*
G01X-1222313Y464209D01*
G03X-1185909Y464209I18202J0D01*
G01X-1185909Y536508D01*
G37*
G36*
G01X-1250908Y536508D02*
G03X-1287311Y536508I-18202J0D01*
G01X-1287311Y464209D01*
G03X-1250908Y464209I18202J0D01*
G01X-1250908Y536508D01*
G37*
G36*
G01X-1349826Y599022D02*
G03X-1349826Y635425I0J18202D01*
G01X-1422124Y635425D01*
G03X-1422124Y599022I0J-18202D01*
G01X-1349826Y599022D01*
G37*
G36*
G01X-1349826Y664021D02*
G03X-1349826Y700424I0J18202D01*
G01X-1422124Y700424D01*
G03X-1422124Y664021I0J-18202D01*
G01X-1349826Y664021D01*
G37*
G36*
G01X-1349826Y729019D02*
G03X-1349826Y765423I0J18202D01*
G01X-1422124Y765423D01*
G03X-1422124Y729019I0J-18202D01*
G01X-1349826Y729019D01*
G37*
G36*
G01X-1349826Y794018D02*
G03X-1349826Y830421I0J18202D01*
G01X-1422124Y830421D01*
G03X-1422124Y794018I0J-18202D01*
G01X-1349826Y794018D01*
G37*
G36*
G01X-1349826Y859017D02*
G03X-1349826Y895420I0J18202D01*
G01X-1422124Y895420D01*
G03X-1422124Y859017I0J-18202D01*
G01X-1349826Y859017D01*
G37*
G36*
G01X-1250908Y1030207D02*
G03X-1287311Y1030207I-18202J0D01*
G01X-1287311Y957909D01*
G03X-1250908Y957909I18202J0D01*
G01X-1250908Y1030207D01*
G37*
G36*
G01X-1185909Y1030207D02*
G03X-1222313Y1030207I-18202J0D01*
G01X-1222313Y957909D01*
G03X-1185909Y957909I18202J0D01*
G01X-1185909Y1030207D01*
G37*
G36*
G01X-1120911Y1030207D02*
G03X-1157314Y1030207I-18202J0D01*
G01X-1157314Y957909D01*
G03X-1120911Y957909I18202J0D01*
G01X-1120911Y1030207D01*
G37*
G36*
G01X-1055912Y1030207D02*
G03X-1092315Y1030207I-18202J0D01*
G01X-1092315Y957909D01*
G03X-1055912Y957909I18202J0D01*
G01X-1055912Y1030207D01*
G37*
G36*
G01X-990913Y1030207D02*
G03X-1027317Y1030207I-18202J0D01*
G01X-1027317Y957909D01*
G03X-990913Y957909I18202J0D01*
G01X-990913Y1030207D01*
G37*
G36*
G01X-1666067Y82620D02*
G01X-1666067Y113380D01*
G01X-1615622Y113380D01*
G01X-1615622Y82620D01*
G01X-1666067Y82620D01*
G37*
G36*
G01X-1717197Y82620D02*
G01X-1717197Y113380D01*
G01X-1747321Y113380D01*
G01X-1747321Y82620D01*
G01X-1717197Y82620D01*
G37*
G36*
G01X-1392088Y-270620D02*
G01X-1392088Y-301379D01*
G01X-1442532Y-301379D01*
G01X-1442532Y-270620D01*
G01X-1392088Y-270620D01*
G37*
G36*
G01X-1340957Y-270620D02*
G01X-1340957Y-301379D01*
G01X-1310833Y-301379D01*
G01X-1310833Y-270620D01*
G01X-1340957Y-270620D01*
G37*
G36*
G01X-1392088Y-168620D02*
G01X-1392088Y-199379D01*
G01X-1442532Y-199379D01*
G01X-1442532Y-168620D01*
G01X-1392088Y-168620D01*
G37*
G36*
G01X-1340957Y-168620D02*
G01X-1340957Y-199379D01*
G01X-1310833Y-199379D01*
G01X-1310833Y-168620D01*
G01X-1340957Y-168620D01*
G37*
G36*
G01X-2863753Y753767D02*
G01X-2783753Y753767D01*
G01X-2778752Y748766D01*
G01X-2778752Y725970D01*
G01X-2815752Y725970D01*
G01X-2815752Y692970D01*
G01X-2778752Y692970D01*
G01X-2778752Y668766D01*
G01X-2783753Y663768D01*
G01X-2863753Y663768D01*
G01X-2868751Y668766D01*
G01X-2868751Y748766D01*
G01X-2863753Y753767D01*
G37*
G36*
G01X-2624749Y663770D02*
G01X-2704749Y663770D01*
G01X-2709750Y668771D01*
G01X-2709750Y691568D01*
G01X-2672750Y691568D01*
G01X-2672750Y724568D01*
G01X-2709750Y724568D01*
G01X-2709750Y748771D01*
G01X-2704749Y753770D01*
G01X-2624749Y753770D01*
G01X-2619750Y748771D01*
G01X-2619750Y668771D01*
G01X-2624749Y663770D01*
G37*
G36*
G01X-1780021Y753767D02*
G01X-1700021Y753767D01*
G01X-1695020Y748766D01*
G01X-1695020Y725970D01*
G01X-1732020Y725970D01*
G01X-1732020Y692970D01*
G01X-1695020Y692970D01*
G01X-1695020Y668766D01*
G01X-1700021Y663768D01*
G01X-1780021Y663768D01*
G01X-1785020Y668766D01*
G01X-1785020Y748766D01*
G01X-1780021Y753767D01*
G37*
G36*
G01X-1541017Y663770D02*
G01X-1621017Y663770D01*
G01X-1626018Y668771D01*
G01X-1626018Y691568D01*
G01X-1589018Y691568D01*
G01X-1589018Y724568D01*
G01X-1626018Y724568D01*
G01X-1626018Y748771D01*
G01X-1621017Y753770D01*
G01X-1541017Y753770D01*
G01X-1536019Y748771D01*
G01X-1536019Y668771D01*
G01X-1541017Y663770D01*
G37*
G36*
G01X-1660797Y192619D02*
G01X-1660797Y223378D01*
G01X-1610352Y223378D01*
G01X-1610352Y192619D01*
G01X-1660797Y192619D01*
G37*
G36*
G01X-1711927Y192619D02*
G01X-1711927Y223378D01*
G01X-1742051Y223378D01*
G01X-1742051Y192619D01*
G01X-1711927Y192619D01*
G37*

G04 Pad Start*
G54D10*
G01X-3479275Y63746D03*
G01X-3093474Y63746D03*
G54D11*
G01X-1695624Y1161207D03*
G01X-1990623Y1161207D03*
G54D12*
G01X-688126Y701164D03*
G01X-688126Y996163D03*
G54D13*
G01X-1845623Y886208D03*
G01X-1550624Y886208D03*
G01X-2929355Y886208D03*
G01X-2634356Y886208D03*
G54D14*
G01X-3379404Y-1263816D03*
G01X-3252404Y-1263816D03*
G01X-3633404Y-1263816D03*
G01X-3506404Y-1263816D03*
G01X-3506404Y-503848D03*
G01X-3379404Y-503848D03*
G01X-3252404Y-503822D03*
G01X-3633404Y-503822D03*
G54D16*
G01X-3442879Y-883857D03*
G54D17*
G01X-1393124Y-710622D03*
G01X-1253119Y-710622D03*
G01X-1393124Y-1006700D03*
G01X-1253119Y-1006700D03*
G01X-1393124Y-1154739D03*
G01X-1253119Y-1154739D03*
G01X-2796679Y-848334D03*
G01X-2656674Y-848334D03*
G54D18*
G01X-1877943Y-365141D03*
G01X-1877943Y-225136D03*
G01X-2236083Y-362601D03*
G01X-2236083Y-222596D03*
G54D17*
G01X-2796679Y-996241D03*
G01X-2656674Y-996241D03*
G54D18*
G01X-2238122Y-1683000D03*
G01X-2238122Y-1542995D03*
G01X-3096447Y779246D03*
G01X-3096447Y919251D03*
G01X-3240667Y776212D03*
G01X-3240667Y916217D03*
G01X-2388122Y-1683000D03*
G01X-2388122Y-1542995D03*
G54D17*
G01X-2796679Y-1587869D03*
G01X-2656674Y-1587869D03*
G01X-1393124Y-1302779D03*
G01X-1253119Y-1302779D03*
G01X-2796679Y-700427D03*
G01X-2656674Y-700427D03*
G01X-2796679Y-1439962D03*
G01X-2656674Y-1439962D03*
G54D19*
G01X-3096988Y606942D03*
G01X-3096988Y466937D03*
G54D18*
G01X-1938679Y-1683000D03*
G01X-1938679Y-1542995D03*
G54D19*
G01X-2021996Y127002D03*
G01X-2021996Y-13003D03*
G01X-1878484Y127002D03*
G01X-1878484Y-13003D03*
G54D20*
G01X-1251570Y-414003D03*
G01X-1391575Y-414003D03*
G01X-1251570Y-562042D03*
G01X-1391575Y-562042D03*
G54D19*
G01X-2646995Y127002D03*
G01X-2646995Y-13003D03*
G01X-2502774Y127002D03*
G01X-2502774Y-13003D03*
G54D17*
G01X-667298Y116700D03*
G01X-527294Y116700D03*
G54D20*
G01X-527294Y-27521D03*
G01X-667298Y-27521D03*
G54D21*
G01X-2796679Y-1292055D03*
G01X-2656674Y-1292055D03*
G01X-2796679Y-1144148D03*
G01X-2656674Y-1144148D03*
G54D22*
G01X-527908Y559178D03*
G01X-667913Y559178D03*
G54D21*
G01X-2796679Y-2031590D03*
G01X-2656674Y-2031590D03*
G54D23*
G01X-2388392Y-2034657D03*
G01X-2388392Y-2174662D03*
G01X-2238393Y-2034657D03*
G01X-2238393Y-2174662D03*
G01X-2088393Y-2034657D03*
G01X-2088393Y-2174662D03*
G54D22*
G01X-528124Y255892D03*
G01X-668128Y255892D03*
G01X-528124Y405815D03*
G01X-668128Y405815D03*
G01X-1668001Y481892D03*
G01X-1808006Y481892D03*
G01X-1668001Y337209D03*
G01X-1808006Y337209D03*
G01X-1253121Y-858120D03*
G01X-1393126Y-858120D03*
G01X-2655125Y-551979D03*
G01X-2795130Y-551979D03*
G01X-2655125Y-404072D03*
G01X-2795130Y-404072D03*
G54D21*
G01X-2796679Y-1883683D03*
G01X-2656674Y-1883683D03*
G01X-2796679Y-1735776D03*
G01X-2656674Y-1735776D03*
G01X-1387911Y-1450818D03*
G01X-1247906Y-1450818D03*
G54D23*
G01X-1938392Y-2034657D03*
G01X-1938392Y-2174662D03*
G01X-1381184Y-1613656D03*
G01X-1381184Y-1753660D03*
G01X-1231184Y-1613656D03*
G01X-1231184Y-1753660D03*
G01X-1081184Y-1613656D03*
G01X-1081184Y-1753660D03*
G01X-931184Y-1613656D03*
G01X-931184Y-1753660D03*
G01X-778223Y-1613656D03*
G01X-778223Y-1753660D03*
G01X-1382179Y-1910129D03*
G01X-1382179Y-2050133D03*
G01X-1232179Y-1910129D03*
G01X-1232179Y-2050133D03*
G01X-1082179Y-1910129D03*
G01X-1082179Y-2050133D03*
G01X-932179Y-1910129D03*
G01X-932179Y-2050133D03*
G01X-779218Y-1910129D03*
G01X-779218Y-2050133D03*
G54D24*
G01X-2088400Y-1683000D03*
G01X-2088400Y-1542995D03*
G54D25*
G01X-677415Y-1023233D03*
G01X-677415Y-1243232D03*
G01X-847415Y-1243232D03*
G01X-847415Y-1023233D03*
G54D26*
G01X-3237897Y601862D03*
G54D27*
G01X-3237897Y485022D03*
G54D28*
G01X-3375555Y601862D03*
G54D29*
G01X-3375555Y485022D03*
G54D30*
G01X-1313126Y1196207D03*
G01X-1043124Y1196207D03*
G01X-2418124Y1196207D03*
G01X-2148122Y1196207D03*
G54D31*
G01X-2237003Y-568609D03*
G01X-2197003Y-568609D03*
G01X-2157003Y-568609D03*
G01X-2117003Y-568609D03*
G01X-2077003Y-568609D03*
G01X-2037003Y-568609D03*
G01X-1997003Y-568609D03*
G01X-1957003Y-568609D03*
G01X-1917003Y-568609D03*
G01X-1877003Y-568609D03*
G01X-1837003Y-568609D03*
G01X-1797004Y-568609D03*
G01X-1757004Y-568609D03*
G01X-1717004Y-568609D03*
G54D32*
G01X-1633254Y-652359D03*
G01X-1633254Y-692359D03*
G01X-1633254Y-732359D03*
G01X-1633254Y-772359D03*
G01X-1633254Y-812359D03*
G01X-1633254Y-852359D03*
G01X-1633254Y-892359D03*
G01X-1633254Y-932359D03*
G01X-1633254Y-972359D03*
G01X-1633254Y-1012359D03*
G01X-1633254Y-1052359D03*
G01X-1633254Y-1092358D03*
G01X-1633254Y-1132358D03*
G01X-1633254Y-1172358D03*
G54D31*
G01X-1717004Y-1256108D03*
G01X-1757004Y-1256108D03*
G01X-1797004Y-1256108D03*
G01X-1837003Y-1256108D03*
G01X-1877003Y-1256108D03*
G01X-1917003Y-1256108D03*
G01X-1957003Y-1256108D03*
G01X-1997003Y-1256108D03*
G01X-2037003Y-1256108D03*
G01X-2077003Y-1256108D03*
G01X-2117003Y-1256108D03*
G01X-2157003Y-1256108D03*
G01X-2197003Y-1256108D03*
G01X-2237003Y-1256108D03*
G54D32*
G01X-2320753Y-1172358D03*
G01X-2320753Y-1132358D03*
G01X-2320753Y-1092358D03*
G01X-2320753Y-1052359D03*
G01X-2320753Y-1012359D03*
G01X-2320753Y-972359D03*
G01X-2320753Y-932359D03*
G01X-2320753Y-892359D03*
G01X-2320753Y-852359D03*
G01X-2320753Y-812359D03*
G01X-2320753Y-772359D03*
G01X-2320753Y-732359D03*
G01X-2320753Y-692359D03*
G01X-2320753Y-652359D03*
G54D33*
G01X-1977003Y-912359D03*
G04 Pad End*

M02*

