G04 Layer: BottomLayer*
G04 EasyEDA Pro v2.2.28.1, 2024-10-09 18:22:48*
G04 Gerber Generator version 0.3*
G04 Scale: 100 percent, Rotated: No, Reflected: No*
G04 Dimensions in millimeters*
G04 Leading zeros omitted, absolute positions, 3 integers and 5 decimals*
%FSLAX35Y35*%
%MOMM*%
%AMRoundRect*1,1,$1,$2,$3*1,1,$1,$4,$5*1,1,$1,0-$2,0-$3*1,1,$1,0-$4,0-$5*20,1,$1,$2,$3,$4,$5,0*20,1,$1,$4,$5,0-$2,0-$3,0*20,1,$1,0-$2,0-$3,0-$4,0-$5,0*20,1,$1,0-$4,0-$5,$2,$3,0*4,1,4,$2,$3,$4,$5,0-$2,0-$3,0-$4,0-$5,$2,$3,0*%
%ADD10C,0.2032*%
%ADD11C,1.5*%
%ADD12C,5.2*%
%ADD13RoundRect,0.1X0.05X0.3875X0.05X-0.3875*%
%ADD14RoundRect,0.1X0.3875X0.05X0.3875X-0.05*%
%ADD15RoundRect,0.288X1.456X1.456X1.456X-1.456*%
%ADD16R,2.0776X2.05999*%
%ADD17R,2.07X2.05999*%
%ADD18R,1.05X1.6*%
%ADD19R,1.6X1.05*%
%ADD20R,1.05X1.6*%
%ADD21O,1.08699X0.36401*%
%ADD22O,0.36401X1.08699*%
%ADD23R,3.15001X3.15001*%
%ADD24R,0.6X1.2*%
%ADD25R,4.29999X3.39999*%
%ADD26R,0.8X0.762*%
%ADD27R,0.762X0.8*%
%ADD28R,0.762X0.8*%
%ADD29R,0.8X0.762*%
%ADD30R,0.8X0.9*%
%ADD31R,0.8X0.9*%
%ADD32R,0.9X0.8*%
%ADD33R,0.9X0.8*%
%ADD34R,0.45X0.5*%
%ADD35R,0.45X0.5*%
%ADD36R,0.80648X0.86401*%
%ADD37R,1.2X1.4*%
%ADD38R,0.8001X1.04902*%
%ADD39R,0.8001X0.65024*%
%ADD40R,0.8001X1.04902*%
%ADD41R,0.8001X0.65024*%
%ADD42R,1.2X1.4*%
%ADD43C,1.46*%
%ADD44C,0.45*%
%ADD45C,0.6*%
%ADD46C,0.8*%
%ADD47C,0.5*%
%ADD48C,0.55*%
%ADD49C,0.15*%
%ADD50C,0.2*%
%ADD51C,0.127*%
%ADD52C,0.254*%
%ADD53C,0.3*%
%ADD54C,0.3424*%
%ADD55C,0.25*%
G75*


G04 Copper Start*
G36*
G01X-4132193Y1340341D02*
G02X-3833463Y1639071I298730J0D01*
G01X-133463Y1639071D01*
G02X165267Y1340341I0J-298730D01*
G01X165267Y-2359659D01*
G02X-133463Y-2658389I-298730J0D01*
G01X-3833463Y-2658389D01*
G02X-4132193Y-2359659I0J298730D01*
G01X-4132193Y1340341D01*
G37*
%LPC*%
G36*
G01X-3663404Y-418408D02*
G03X-3688818Y-443822I0J-25414D01*
G01X-3688818Y-563822D01*
G03X-3663404Y-589236I25414J0D01*
G01X-3603405Y-589236D01*
G03X-3577991Y-563822I0J25414D01*
G01X-3577991Y-485454D01*
G01X-3561818Y-469281D01*
G01X-3561818Y-563847D01*
G03X-3536404Y-589261I25414J0D01*
G01X-3476405Y-589261D01*
G03X-3450991Y-563847I0J25414D01*
G01X-3450991Y-493774D01*
G01X-3434818Y-477602D01*
G01X-3434818Y-563847D01*
G03X-3409404Y-589261I25414J0D01*
G01X-3383269Y-589261D01*
G01X-3318438Y-654093D01*
G03X-3295164Y-663733I23274J23274D01*
G01X-2722088Y-663733D01*
G01X-2722088Y-738527D01*
G03X-2696674Y-763941I25414J0D01*
G01X-2668569Y-763941D01*
G01X-2647689Y-784820D01*
G01X-2696674Y-784820D01*
G03X-2722088Y-810234I0J-25414D01*
G01X-2722088Y-886434D01*
G03X-2696674Y-911848I25414J0D01*
G01X-2616674Y-911848D01*
G03X-2592589Y-894543I0J25414D01*
G01X-2592304Y-894543D01*
G01X-2547402Y-939445D01*
G01X-2599460Y-939445D01*
G03X-2616674Y-932727I-17214J-18696D01*
G01X-2696674Y-932727D01*
G03X-2722088Y-958141I0J-25414D01*
G01X-2722088Y-1028141D01*
G03X-2762066Y-1043534I-4589J-47694D01*
G01X-2854122Y-1043534D01*
G01X-2875630Y-1022026D01*
G03X-2898904Y-1012385I-23274J-23274D01*
G01X-2936349Y-1012385D01*
G03X-2959623Y-1022026I0J-32914D01*
G01X-2981135Y-1043538D01*
G01X-3360331Y-1043643D01*
G03X-3383596Y-1053283I9J-32914D01*
G01X-3508714Y-1178402D01*
G01X-3536404Y-1178402D01*
G03X-3544662Y-1179781I0J-25414D01*
G01X-3576417Y-1148026D01*
G03X-3599691Y-1138385I-23274J-23274D01*
G01X-3726206Y-1138385D01*
G03X-3808940Y-1171299I-34820J-32914D01*
G03X-3726206Y-1204213I47914J0D01*
G01X-3688818Y-1204213D01*
G01X-3688818Y-1252719D01*
G01X-3706338Y-1270239D01*
G01X-3872206Y-1270239D01*
G03X-3954940Y-1303153I-34820J-32914D01*
G03X-3872206Y-1336067I47914J0D01*
G01X-3692705Y-1336067D01*
G03X-3686033Y-1335384I0J32914D01*
G03X-3663404Y-1349229I22628J11568D01*
G01X-3603405Y-1349229D01*
G03X-3598197Y-1348690I0J25414D01*
G03X-3591178Y-1359092I30293J12872D01*
G01X-3536178Y-1414092D01*
G03X-3512904Y-1423732I23274J23274D01*
G01X-3226538Y-1423732D01*
G01X-3021235Y-1629035D01*
G01X-3021235Y-1662547D01*
G03X-3074759Y-1733477I-12443J-46270D01*
G03X-2986992Y-1719595I41081J24659D01*
G01X-2947537Y-1759050D01*
G03X-2924263Y-1768690I23274J23274D01*
G01X-2862093Y-1768690D01*
G01X-2862093Y-1780776D01*
G03X-2836679Y-1806190I25414J0D01*
G01X-2756679Y-1806190D01*
G03X-2731265Y-1780776I0J25414D01*
G01X-2731265Y-1707750D01*
G03X-2722088Y-1717085I38437J28607D01*
G01X-2722088Y-1780776D01*
G03X-2696674Y-1806190I25414J0D01*
G01X-2616674Y-1806190D01*
G03X-2610931Y-1805532I0J25414D01*
G03X-2576558Y-1818712I33024J34715D01*
G01X-2544502Y-1850769D01*
G01X-2591260Y-1850769D01*
G01X-2591260Y-1838683D01*
G03X-2616674Y-1813269I-25414J0D01*
G01X-2696674Y-1813269D01*
G03X-2722088Y-1838683I0J-25414D01*
G01X-2722088Y-1928683D01*
G03X-2696674Y-1954097I25414J0D01*
G01X-2616674Y-1954097D01*
G03X-2591260Y-1928683I0J25414D01*
G01X-2591260Y-1916597D01*
G01X-2547815Y-1916597D01*
G01X-2544572Y-1919839D01*
G03X-2507917Y-1967764I47895J-1348D01*
G03X-2453439Y-1941832I11240J46577D01*
G01X-2426027Y-1969243D01*
G01X-2433392Y-1969243D01*
G03X-2458806Y-1994657I0J-25414D01*
G01X-2458806Y-2074657D01*
G03X-2433392Y-2100071I25414J0D01*
G01X-2343393Y-2100071D01*
G03X-2317979Y-2074657I0J25414D01*
G01X-2317979Y-1994657D01*
G03X-2343393Y-1969243I-25414J0D01*
G01X-2355479Y-1969243D01*
G01X-2355479Y-1960331D01*
G03X-2365119Y-1937057I-32914J0D01*
G01X-2530011Y-1772165D01*
G03X-2591260Y-1724802I-47895J1348D01*
G01X-2591260Y-1690776D01*
G03X-2616674Y-1665362I-25414J0D01*
G01X-2646939Y-1665362D01*
G03X-2653775Y-1651383I-45890J-13781D01*
G01X-2616674Y-1651383D01*
G03X-2591260Y-1625969I0J25414D01*
G01X-2591260Y-1623176D01*
G01X-2580387Y-1623176D01*
G03X-2557113Y-1613536I0J32914D01*
G01X-2451636Y-1508058D01*
G01X-2451636Y-1582995D01*
G03X-2426222Y-1608409I25414J0D01*
G01X-2350022Y-1608409D01*
G03X-2324608Y-1582995I0J25414D01*
G01X-2324608Y-1502995D01*
G03X-2344249Y-1478246I-25414J0D01*
G01X-2344249Y-1242402D01*
G01X-2309619Y-1207772D01*
G01X-2282003Y-1207772D01*
G03X-2269909Y-1205264I0J30414D01*
G03X-2272417Y-1217358I27906J-12094D01*
G01X-2272417Y-1294858D01*
G03X-2271497Y-1302280I30414J0D01*
G01X-2271497Y-1477581D01*
G01X-2276222Y-1477581D01*
G03X-2301636Y-1502995I0J-25414D01*
G01X-2301636Y-1582995D01*
G03X-2276222Y-1608409I25414J0D01*
G01X-2214258Y-1608409D01*
G01X-2211017Y-1611650D01*
G03X-2161499Y-1660884I47895J-1348D01*
G03X-2115428Y-1608409I-1623J47887D01*
G01X-2053336Y-1608409D01*
G01X-2053336Y-1776759D01*
G03X-2096834Y-1825819I4397J-47712D01*
G01X-2111666Y-1840651D01*
G03X-2121307Y-1863925I23274J-23274D01*
G01X-2121307Y-1969243D01*
G01X-2133392Y-1969243D01*
G03X-2158806Y-1994657I0J-25414D01*
G01X-2158806Y-2074657D01*
G03X-2133392Y-2100071I25414J0D01*
G01X-2043393Y-2100071D01*
G03X-2017979Y-2074657I0J25414D01*
G01X-2017979Y-1994657D01*
G03X-2043393Y-1969243I-25414J0D01*
G01X-2055479Y-1969243D01*
G01X-2055479Y-1877558D01*
G01X-2050286Y-1872366D01*
G03X-2005221Y-1844081I1348J47895D01*
G01X-1963708Y-1885594D01*
G03X-1940434Y-1895235I23274J23274D01*
G01X-1602546Y-1895235D01*
G03X-1519812Y-1862321I34820J32914D01*
G03X-1602546Y-1829407I-47914J0D01*
G01X-1926801Y-1829407D01*
G01X-1987508Y-1768699D01*
G01X-1987508Y-1606033D01*
G03X-1976779Y-1608409I10729J23038D01*
G01X-1900579Y-1608409D01*
G03X-1875165Y-1582995I0J25414D01*
G01X-1875165Y-1558953D01*
G03X-1837661Y-1530586I-6433J47480D01*
G03X-1842476Y-1483809I-43937J19113D01*
G03X-1842260Y-1480047I-32698J3762D01*
G01X-1842260Y-1352095D01*
G03X-1842980Y-1345250I-32914J0D01*
G01X-1826090Y-1362140D01*
G03X-1786802Y-1410623I47895J-1348D01*
G03X-1732915Y-1379155I8607J47135D01*
G01X-1732915Y-1423725D01*
G03X-1723275Y-1446999I32914J0D01*
G01X-1466182Y-1704091D01*
G03X-1456721Y-1710693I23274J23274D01*
G03X-1451598Y-1750331I45750J-14237D01*
G01X-1451598Y-1793660D01*
G03X-1426184Y-1819074I25414J0D01*
G01X-1336184Y-1819074D01*
G03X-1310770Y-1793660I0J25414D01*
G01X-1310770Y-1713731D01*
G01X-1301598Y-1713731D01*
G01X-1301598Y-1793660D01*
G03X-1276184Y-1819074I25414J0D01*
G01X-1186184Y-1819074D01*
G03X-1160770Y-1793660I0J25414D01*
G01X-1160770Y-1729503D01*
G01X-1151598Y-1738676D01*
G01X-1151598Y-1793660D01*
G03X-1126184Y-1819074I25414J0D01*
G01X-1036184Y-1819074D01*
G03X-1032545Y-1818812I0J25414D01*
G01X-1032545Y-1819023D01*
G01X-1058313Y-1844715D01*
G01X-1127179Y-1844715D01*
G03X-1152593Y-1870129I0J-25414D01*
G01X-1152593Y-1943057D01*
G01X-1161765Y-1943057D01*
G01X-1161765Y-1870129D01*
G03X-1187179Y-1844715I-25414J0D01*
G01X-1277179Y-1844715D01*
G03X-1302593Y-1870129I0J-25414D01*
G01X-1302593Y-1943057D01*
G01X-1302856Y-1943057D01*
G01X-1311765Y-1933995D01*
G01X-1311765Y-1870129D01*
G03X-1337179Y-1844715I-25414J0D01*
G01X-1427179Y-1844715D01*
G03X-1452593Y-1870129I0J-25414D01*
G01X-1452593Y-1950128D01*
G03X-1427179Y-1975542I25414J0D01*
G01X-1363313Y-1975542D01*
G01X-1354136Y-1984719D01*
G01X-1427179Y-1984719D01*
G03X-1452593Y-2010133I0J-25414D01*
G01X-1452593Y-2090133D01*
G03X-1427179Y-2115547I25414J0D01*
G01X-1337179Y-2115547D01*
G03X-1311765Y-2090133I0J25414D01*
G01X-1311765Y-2010133D01*
G01X-1311796Y-2008885D01*
G01X-1302562Y-2008885D01*
G01X-1302593Y-2010133D01*
G01X-1302593Y-2090133D01*
G03X-1277179Y-2115547I25414J0D01*
G01X-1187179Y-2115547D01*
G03X-1161765Y-2090133I0J25414D01*
G01X-1161765Y-2010133D01*
G01X-1161796Y-2008885D01*
G01X-1152562Y-2008885D01*
G01X-1152593Y-2010133D01*
G01X-1152593Y-2090133D01*
G03X-1127179Y-2115547I25414J0D01*
G01X-1037179Y-2115547D01*
G03X-1011765Y-2090133I0J25414D01*
G01X-1011765Y-2010133D01*
G01X-1011796Y-2008885D01*
G01X-1002562Y-2008885D01*
G01X-1002593Y-2010133D01*
G01X-1002593Y-2090133D01*
G03X-977179Y-2115547I25414J0D01*
G01X-887179Y-2115547D01*
G03X-861765Y-2090133I0J25414D01*
G01X-861765Y-2022814D01*
G03X-849632Y-2023841I10073J46843D01*
G01X-849632Y-2090133D01*
G03X-824218Y-2115547I25414J0D01*
G01X-734218Y-2115547D01*
G03X-708805Y-2090133I0J25414D01*
G01X-708805Y-2010133D01*
G03X-734218Y-1984719I-25414J0D01*
G01X-804583Y-1984719D01*
G03X-803961Y-1980150I-47109J8749D01*
G03X-803780Y-1975542I-47731J4179D01*
G01X-734218Y-1975542D01*
G03X-708805Y-1950128I0J25414D01*
G01X-708805Y-1913260D01*
G01X-656727Y-1861182D01*
G03X-647086Y-1837908I-23274J23274D01*
G01X-647086Y-1594776D01*
G03X-656727Y-1571502I-32914J0D01*
G01X-731503Y-1496727D01*
G03X-754776Y-1487087I-23273J-23274D01*
G01X-763057Y-1487087D01*
G03X-779276Y-1478731I-29652J-37636D01*
G01X-767322Y-1466777D01*
G03X-692006Y-1476598I41435J24060D01*
G03X-701827Y-1401282I-33880J33880D01*
G01X-688174Y-1387630D01*
G01X-602910Y-1387630D01*
G03X-579636Y-1377990I0J32914D01*
G01X-569258Y-1367611D01*
G03X-534030Y-1285836I1348J47895D01*
G03X-615805Y-1321064I-33880J-33880D01*
G01X-616544Y-1321802D01*
G01X-701808Y-1321802D01*
G03X-725082Y-1331442I0J-32914D01*
G01X-763151Y-1369512D01*
G01X-763151Y-1364366D01*
G01X-743404Y-1344619D01*
G03X-734101Y-1322159I-22461J22461D01*
G01X-734101Y-1164306D01*
G03X-743404Y-1141846I-31764J0D01*
G01X-756028Y-1129222D01*
G03X-772320Y-1120523I-22461J-22461D01*
G03X-832771Y-1085014I-46770J-10410D01*
G03X-863930Y-1147819I13682J-45919D01*
G01X-897965Y-1147819D01*
G01X-960420Y-1085364D01*
G03X-938631Y-1023364I-22006J42562D01*
G03X-999227Y-997931I-43794J-19438D01*
G03X-1004352Y-991297I-28398J-16639D01*
G01X-1171125Y-824523D01*
G03X-1187707Y-815570I-23274J-23274D01*
G01X-1187707Y-813120D01*
G01X-1187777Y-811236D01*
G01X-1066631Y-811236D01*
G01X-924061Y-953806D01*
G03X-900787Y-963447I23274J23274D01*
G01X-791646Y-963447D01*
G01X-762829Y-992264D01*
G01X-762829Y-1093233D01*
G03X-737415Y-1118647I25414J0D01*
G01X-617415Y-1118647D01*
G03X-592001Y-1093233I0J25414D01*
G01X-592001Y-953233D01*
G03X-617415Y-927819I-25414J0D01*
G01X-710478Y-927819D01*
G03X-731300Y-852112I-36895J30570D01*
G03X-795286Y-897619I-16074J-45138D01*
G01X-887154Y-897619D01*
G01X-1029724Y-755048D01*
G03X-1052998Y-745408I-23274J-23274D01*
G01X-1288888Y-745408D01*
G01X-1327710Y-706586D01*
G01X-1327710Y-672522D01*
G03X-1353124Y-647108I-25414J0D01*
G01X-1427495Y-647108D01*
G03X-1451883Y-615716I-46622J-11051D01*
G01X-1451883Y-361438D01*
G01X-1426844Y-336413D01*
G01X-1389657Y-336413D01*
G03X-1364244Y-310999I0J25414D01*
G01X-1364244Y-273849D01*
G01X-1324786Y-234414D01*
G01X-1299658Y-234414D01*
G03X-1274244Y-209000I0J25414D01*
G01X-1274244Y-159000D01*
G03X-1299658Y-133586I-25414J0D01*
G01X-1344658Y-133586D01*
G03X-1367158Y-147184I0J-25414D01*
G03X-1389657Y-133586I-22500J-11816D01*
G01X-1434657Y-133586D01*
G03X-1460071Y-159000I0J-25414D01*
G01X-1460071Y-176861D01*
G03X-1466271Y-181726I17074J-28139D01*
G01X-1538271Y-253726D01*
G03X-1547911Y-276999I23274J-23274D01*
G01X-1547911Y-606365D01*
G01X-1560991Y-619445D01*
G01X-1582428Y-619445D01*
G03X-1594504Y-616945I-12076J-27914D01*
G01X-1672004Y-616945D01*
G03X-1684098Y-619453I0J-30414D01*
G03X-1681590Y-607359I-27906J12094D01*
G01X-1681590Y-529859D01*
G03X-1712004Y-499446I-30414J0D01*
G01X-1722004Y-499446D01*
G03X-1737004Y-503402I0J-30414D01*
G03X-1752004Y-499446I-15000J-26458D01*
G01X-1762004Y-499446D01*
G03X-1777004Y-503402I0J-30414D01*
G03X-1792004Y-499446I-15000J-26458D01*
G01X-1795895Y-499446D01*
G01X-1536723Y-240273D01*
G03X-1527083Y-217000I-23274J23274D01*
G01X-1527083Y164000D01*
G03X-1536723Y187273I-32914J0D01*
G01X-1580723Y231273D01*
G03X-1593587Y239224I-23274J-23274D01*
G03X-1618227Y258412I-24640J-6226D01*
G01X-1663227Y258412D01*
G03X-1685727Y244814I0J-25414D01*
G03X-1708227Y258412I-22500J-11816D01*
G01X-1743994Y258412D01*
G03X-1755667Y269992I-39080J-27723D01*
G03X-1742592Y292209I-12339J22218D01*
G01X-1742592Y360754D01*
G01X-1691868Y411478D01*
G01X-1628001Y411478D01*
G03X-1602587Y436892I0J25414D01*
G01X-1602587Y526892D01*
G03X-1628001Y552306I-25414J0D01*
G01X-1708001Y552306D01*
G03X-1733415Y526892I0J-25414D01*
G01X-1733415Y463025D01*
G01X-1742592Y453848D01*
G01X-1742592Y526892D01*
G03X-1768006Y552306I-25414J0D01*
G01X-1848006Y552306D01*
G03X-1873420Y526892I0J-25414D01*
G01X-1873420Y436892D01*
G03X-1848006Y411478I25414J0D01*
G01X-1784962Y411478D01*
G01X-1788817Y407623D01*
G01X-1848006Y407623D01*
G03X-1873420Y382209I0J-25414D01*
G01X-1873420Y292209D01*
G03X-1848006Y266795I25414J0D01*
G01X-1814572Y266795D01*
G03X-1782141Y182785I31498J-36106D01*
G01X-1782141Y132318D01*
G03X-1783910Y123000I23644J-9318D01*
G01X-1783910Y73000D01*
G03X-1758496Y47586I25414J0D01*
G01X-1713497Y47586D01*
G03X-1688083Y73000I0J25414D01*
G01X-1688083Y123000D01*
G03X-1713497Y148414I-25414J0D01*
G01X-1716313Y148414D01*
G01X-1716313Y157584D01*
G01X-1708227Y157584D01*
G03X-1685727Y171182I0J25414D01*
G03X-1663227Y157584I22500J11816D01*
G01X-1618227Y157584D01*
G03X-1604291Y161746I0J25414D01*
G01X-1592911Y150366D01*
G01X-1592911Y-203366D01*
G01X-1842529Y-452985D01*
G01X-1842529Y-430555D01*
G01X-1839843Y-430555D01*
G03X-1814429Y-405141I0J25414D01*
G01X-1814429Y-325141D01*
G03X-1839843Y-299727I-25414J0D01*
G01X-1896810Y-299727D01*
G01X-1931270Y-265267D01*
G03X-1966668Y-183983I-34373J33380D01*
G03X-1998557Y-266706I1025J-47903D01*
G01X-1998557Y-277441D01*
G03X-1988917Y-300715I32914J0D01*
G01X-1941457Y-348175D01*
G01X-1941457Y-405141D01*
G03X-1916043Y-430555I25414J0D01*
G01X-1913357Y-430555D01*
G01X-1913357Y-499446D01*
G01X-1922003Y-499446D01*
G03X-1937003Y-503402I0J-30414D01*
G03X-1952003Y-499446I-15000J-26458D01*
G01X-1962003Y-499446D01*
G03X-1977003Y-503402I0J-30414D01*
G03X-1992003Y-499446I-15000J-26458D01*
G01X-2002003Y-499446D01*
G03X-2017003Y-503402I0J-30414D01*
G03X-2032003Y-499446I-15000J-26458D01*
G01X-2042003Y-499446D01*
G03X-2057003Y-503402I0J-30414D01*
G03X-2072003Y-499446I-15000J-26458D01*
G01X-2082003Y-499446D01*
G03X-2097003Y-503402I0J-30414D01*
G03X-2112003Y-499446I-15000J-26458D01*
G01X-2122003Y-499446D01*
G03X-2137003Y-503402I0J-30414D01*
G03X-2152003Y-499446I-15000J-26458D01*
G01X-2162003Y-499446D01*
G03X-2177003Y-503402I0J-30414D01*
G03X-2192003Y-499446I-15000J-26458D01*
G01X-2200669Y-499446D01*
G01X-2200669Y-428015D01*
G01X-2197983Y-428015D01*
G03X-2172569Y-402601I0J25414D01*
G01X-2172569Y-367498D01*
G01X-2088584Y-283513D01*
G03X-2029902Y-246069I11628J46482D01*
G03X-2070537Y-189549I-47054J9037D01*
G01X-2083882Y-176204D01*
G01X-2083882Y78052D01*
G03X-2060096Y61588I23786J8950D01*
G01X-2021996Y61588D01*
G01X-1878355Y61588D01*
G01X-1840384Y61588D01*
G03X-1814970Y87002I0J25414D01*
G01X-1814970Y111351D01*
G03X-1814970Y142654I-63514J15651D01*
G01X-1814970Y167002D01*
G03X-1840384Y192416I-25414J0D01*
G01X-1878484Y192416D01*
G01X-2022125Y192416D01*
G01X-2060096Y192416D01*
G03X-2083882Y175952I0J-25414D01*
G01X-2083882Y376368D01*
G01X-1889072Y571178D01*
G03X-1877909Y598128I-26951J26951D01*
G01X-1877909Y701318D01*
G03X-1889072Y728269I-38114J0D01*
G01X-1920261Y759457D01*
G03X-1933037Y779720I-41863J-12236D01*
G03X-1918645Y808784I-29086J32499D01*
G01X-1888920Y808784D01*
G03X-1853107Y844253I0J35814D01*
G01X-1849213Y1248362D01*
G03X-1885026Y1284521I-35812J345D01*
G01X-2095623Y1284521D01*
G03X-2120947Y1274032I0J-35814D01*
G01X-2180437Y1214542D01*
G03X-2190927Y1189218I25324J-25324D01*
G01X-2190927Y1072460D01*
G03X-2212611Y1059294I10815J-42252D01*
G01X-2213923Y1060697D01*
G03X-2243874Y1140724I-35288J32411D01*
G03X-2290801Y1069315I-5338J-47616D01*
G03X-2342608Y1059294I-19307J-39108D01*
G03X-2418722Y1030207I-32499J-29086D01*
G01X-2418722Y1018543D01*
G03X-2425450Y994058I41186J-24485D01*
G03X-2418722Y969573I47914J0D01*
G01X-2418722Y957909D01*
G03X-2342608Y928823I43614J0D01*
G03X-2277609Y928823I32499J29086D01*
G03X-2212611Y928823I32499J29086D01*
G03X-2185757Y914661I32499J29086D01*
G03X-2180437Y907873I30644J18536D01*
G01X-2091838Y819274D01*
G03X-2078009Y810679I25324J25324D01*
G03X-2063508Y779720I43587J1540D01*
G03X-2063508Y714722I29086J-32499D01*
G03X-2063508Y649723I29086J-32499D01*
G03X-2034422Y573609I29086J-32499D01*
G01X-1994443Y573609D01*
G01X-2071499Y496554D01*
G01X-2071499Y536508D01*
G03X-2158727Y536508I-43614J0D01*
G01X-2158727Y464209D01*
G03X-2139799Y428254I43614J0D01*
G01X-2148946Y419106D01*
G03X-2160110Y392156I26951J-26951D01*
G01X-2160110Y-191991D01*
G03X-2148946Y-218942I38114J0D01*
G01X-2136563Y-231326D01*
G01X-2202425Y-297187D01*
G01X-2274183Y-297187D01*
G03X-2299597Y-322601I0J-25414D01*
G01X-2299597Y-402601D01*
G03X-2274183Y-428015I25414J0D01*
G01X-2271497Y-428015D01*
G01X-2271497Y-522438D01*
G03X-2272417Y-529859I29494J-7422D01*
G01X-2272417Y-607359D01*
G03X-2269909Y-619453I30414J0D01*
G03X-2282003Y-616945I-12094J-27906D01*
G01X-2347434Y-616945D01*
G03X-2356122Y-601534I-31961J-7862D01*
G01X-2589711Y-367945D01*
G01X-2589711Y-359072D01*
G03X-2615125Y-333658I-25414J0D01*
G01X-2623997Y-333658D01*
G01X-2650430Y-307225D01*
G03X-2673704Y-297585I-23274J-23274D01*
G01X-2694059Y-297585D01*
G01X-2707704Y-283940D01*
G03X-2762430Y-232005I-47699J4539D01*
G03X-2799732Y-297585I7027J-47396D01*
G01X-3469583Y-297585D01*
G03X-3492857Y-307225I0J-32914D01*
G01X-3604040Y-418408D01*
G01X-3663404Y-418408D01*
G37*
G36*
G01X-3933908Y-1073997D02*
G03X-3838079Y-1073997I47914J0D01*
G03X-3933908Y-1073997I-47914J0D01*
G37*
G36*
G01X-3091641Y-2336905D02*
G03X-2959614Y-2187657I56647J82910D01*
G03X-2922162Y-2172729I2632J47842D01*
G01X-2764900Y-2172729D01*
G03X-2741626Y-2163089I0J32914D01*
G01X-2680541Y-2102004D01*
G01X-2616674Y-2102004D01*
G03X-2591260Y-2076590I0J25414D01*
G01X-2591260Y-1986590D01*
G03X-2616674Y-1961176I-25414J0D01*
G01X-2696674Y-1961176D01*
G03X-2722088Y-1986590I0J-25414D01*
G01X-2722088Y-1997500D01*
G03X-2731265Y-2006815I29225J-37969D01*
G01X-2731265Y-1986590D01*
G03X-2756679Y-1961176I-25414J0D01*
G01X-2836679Y-1961176D01*
G03X-2862093Y-1986590I0J-25414D01*
G01X-2862093Y-1998676D01*
G01X-2963499Y-1998676D01*
G01X-3024632Y-1937543D01*
G03X-3047905Y-1927903I-23274J-23274D01*
G01X-3394271Y-1927903D01*
G01X-3604630Y-1717544D01*
G03X-3627904Y-1707903I-23274J-23274D01*
G01X-3714270Y-1707903D01*
G01X-3814992Y-1607182D01*
G03X-3768084Y-1593732I12088J46364D01*
G01X-3601538Y-1593732D01*
G01X-3298799Y-1896470D01*
G03X-3275526Y-1906110I23274J23274D01*
G01X-2862093Y-1906110D01*
G01X-2862093Y-1928683D01*
G03X-2836679Y-1954097I25414J0D01*
G01X-2756679Y-1954097D01*
G03X-2731265Y-1928683I0J25414D01*
G01X-2731265Y-1838683D01*
G03X-2756679Y-1813269I-25414J0D01*
G01X-2836679Y-1813269D01*
G03X-2862093Y-1838683I0J-25414D01*
G01X-2862093Y-1840282D01*
G01X-3261892Y-1840282D01*
G01X-3564631Y-1537544D01*
G03X-3587904Y-1527904I-23274J-23274D01*
G01X-3604792Y-1527904D01*
G03X-3651104Y-1467703I-46312J12286D01*
G03X-3697416Y-1527904I0J-47914D01*
G01X-3768084Y-1527904D01*
G03X-3829295Y-1520827I-34820J-32914D01*
G01X-3829295Y-1511513D01*
G03X-3830490Y-1502724I-32914J0D01*
G03X-3902096Y-1454460I-47414J6906D01*
G03X-3895123Y-1540531I24192J-41358D01*
G01X-3895123Y-1606512D01*
G03X-3885482Y-1629786I32914J0D01*
G01X-3751178Y-1764091D01*
G03X-3727904Y-1773731I23274J23274D01*
G01X-3641538Y-1773731D01*
G01X-3431178Y-1984090D01*
G03X-3407905Y-1993731I23274J23274D01*
G01X-3061539Y-1993731D01*
G01X-3000406Y-2054863D01*
G03X-2977132Y-2064504I23274J23274D01*
G01X-2862093Y-2064504D01*
G01X-2862093Y-2076590D01*
G03X-2836679Y-2102004I25414J0D01*
G01X-2773635Y-2102004D01*
G01X-2778533Y-2106901D01*
G01X-2922162Y-2106901D01*
G03X-2983724Y-2100058I-34820J-32914D01*
G03X-3000594Y-2159658I26742J-39757D01*
G03X-3091641Y-2336905I-34400J-94338D01*
G37*
G36*
G01X-3805141Y-883657D02*
G03X-3709313Y-883657I47914J0D01*
G03X-3805141Y-883657I-47914J0D01*
G37*
G36*
G01X-3804869Y-610272D02*
G03X-3709041Y-610272I47914J0D01*
G03X-3804869Y-610272I-47914J0D01*
G37*
G36*
G01X-3609373Y528879D02*
G03X-3581586Y447474I33880J-33880D01*
G01X-3485302Y351190D01*
G03X-3458493Y340085I26809J26809D01*
G01X-3280993Y340085D01*
G03X-3254184Y351190I0J37914D01*
G01X-3211088Y394286D01*
G03X-3199983Y421095I-26809J26809D01*
G01X-3199983Y427096D01*
G01X-3197892Y427096D01*
G03X-3172478Y452510I0J25414D01*
G01X-3172478Y517534D01*
G03X-3178097Y533472I-25414J0D01*
G03X-3172478Y549411I-19795J15939D01*
G01X-3172478Y654313D01*
G03X-3197892Y679727I-25414J0D01*
G01X-3277902Y679727D01*
G03X-3303316Y654313I0J-25414D01*
G01X-3303316Y549411D01*
G03X-3297697Y533472I25414J0D01*
G03X-3303316Y517534I19795J-15938D01*
G01X-3303316Y452510D01*
G03X-3284613Y427998I25414J0D01*
G01X-3296698Y415913D01*
G01X-3442788Y415913D01*
G01X-3527968Y501092D01*
G03X-3609373Y528879I-47525J-6093D01*
G37*
G36*
G01X-3582775Y192159D02*
G03X-3608189Y166745I0J-25414D01*
G01X-3608189Y-39254D01*
G03X-3582775Y-64668I25414J0D01*
G01X-3375775Y-64668D01*
G03X-3350361Y-39254I0J25414D01*
G01X-3350361Y166745D01*
G03X-3375775Y192159I-25414J0D01*
G01X-3429265Y192159D01*
G03X-3510446Y192159I-40591J-37724D01*
G01X-3582775Y192159D01*
G37*
G36*
G01X-3440974Y517534D02*
G01X-3440974Y452510D01*
G03X-3415560Y427096I25414J0D01*
G01X-3408073Y427096D01*
G03X-3343996Y427096I32039J45213D01*
G01X-3335550Y427096D01*
G03X-3310136Y452510I0J25414D01*
G01X-3310136Y517534D01*
G03X-3315755Y533472I-25414J0D01*
G03X-3310136Y549411I-19795J15939D01*
G01X-3310136Y654313D01*
G03X-3335550Y679727I-25414J0D01*
G01X-3415560Y679727D01*
G03X-3440974Y654313I0J-25414D01*
G01X-3440974Y549411D01*
G03X-3435354Y533472I25414J0D01*
G03X-3440974Y517534I19795J-15938D01*
G37*
G36*
G01X-3339407Y-2126996D02*
G03X-3138580Y-2126996I100414J0D01*
G03X-3339407Y-2126996I-100414J0D01*
G37*
G36*
G01X-3278767Y841626D02*
G03X-3304181Y816212I0J-25414D01*
G01X-3304181Y736212D01*
G03X-3278767Y710798I25414J0D01*
G01X-3202567Y710798D01*
G03X-3177153Y736212I0J25414D01*
G01X-3177153Y816212D01*
G03X-3202567Y841626I-25414J0D01*
G01X-3278767Y841626D01*
G37*
G36*
G01X-2938036Y448958D02*
G03X-2912994Y438585I25041J25041D01*
G01X-2809459Y438585D01*
G03X-2728244Y471550I33323J34429D01*
G03X-2807295Y509413I-47892J1464D01*
G01X-2898325Y509413D01*
G01X-3003893Y614981D01*
G03X-3028934Y625353I-25041J-25041D01*
G01X-3033474Y625353D01*
G01X-3033474Y646942D01*
G03X-3058888Y672356I-25414J0D01*
G01X-3135088Y672356D01*
G03X-3160502Y646942I0J-25414D01*
G01X-3160502Y566942D01*
G03X-3135088Y541528I25414J0D01*
G01X-3058888Y541528D01*
G03X-3039541Y550463I0J25414D01*
G01X-2938036Y448958D01*
G37*
G36*
G01X-3134547Y844660D02*
G03X-3159961Y819246I0J-25414D01*
G01X-3159961Y739246D01*
G03X-3134547Y713832I25414J0D01*
G01X-3058347Y713832D01*
G03X-3032933Y739246I0J25414D01*
G01X-3032933Y819246D01*
G03X-3058347Y844660I-25414J0D01*
G01X-3134547Y844660D01*
G37*
G36*
G01X-3157908Y1306997D02*
G03X-3062080Y1306997I47914J0D01*
G03X-3157908Y1306997I-47914J0D01*
G37*
G36*
G01X-2945525Y658579D02*
G03X-2849697Y658579I47914J0D01*
G03X-2945525Y658579I-47914J0D01*
G37*
G36*
G01X-2637030Y777383D02*
G01X-2709238Y777383D01*
G03X-2734652Y751969I0J-25414D01*
G01X-2734652Y665568D01*
G03X-2709238Y640154I25414J0D01*
G01X-2628591Y640154D01*
G03X-2604323Y658021I0J25414D01*
G03X-2543028Y706233I13433J45993D01*
G03X-2528122Y703607I14906J40988D01*
G01X-2514939Y703607D01*
G03X-2475275Y703607I19832J43617D01*
G01X-2455823Y703607D01*
G03X-2426737Y779720I0J43614D01*
G03X-2426737Y844719I-29086J32499D01*
G03X-2455823Y920833I-29086J32499D01*
G01X-2472135Y920833D01*
G03X-2511811Y920833I-19838J-43614D01*
G01X-2528122Y920833D01*
G03X-2556442Y910387I0J-43614D01*
G01X-2556442Y966208D01*
G03X-2581856Y991622I-25414J0D01*
G01X-2686856Y991622D01*
G03X-2712270Y966208I0J-25414D01*
G01X-2712270Y806208D01*
G03X-2686856Y780794I25414J0D01*
G01X-2633619Y780794D01*
G01X-2637030Y777383D01*
G37*
G36*
G01X-2540874Y192416D02*
G03X-2566288Y167002I0J-25414D01*
G01X-2566288Y159916D01*
G01X-2583481Y159916D01*
G01X-2583481Y167002D01*
G03X-2608895Y192416I-25414J0D01*
G01X-2626920Y192416D01*
G03X-2675099Y192416I-24090J-41418D01*
G01X-2685095Y192416D01*
G03X-2710509Y167002I0J-25414D01*
G01X-2710509Y87002D01*
G03X-2685095Y61588I25414J0D01*
G01X-2608895Y61588D01*
G03X-2583481Y87002I0J25414D01*
G01X-2583481Y94088D01*
G01X-2566288Y94088D01*
G01X-2566288Y87002D01*
G03X-2540874Y61588I25414J0D01*
G01X-2464674Y61588D01*
G03X-2439260Y87002I0J25414D01*
G01X-2439260Y131408D01*
G03X-2428736Y169141I-36858J30614D01*
G03X-2449884Y202116I-47382J-7119D01*
G03X-2476119Y290123I-26235J40093D01*
G03X-2502353Y202115I0J-47914D01*
G03X-2513158Y192416I26235J-40093D01*
G01X-2540874Y192416D01*
G37*
G36*
G01X-2332710Y1266207D02*
G03X-2358124Y1291621I-25414J0D01*
G01X-2478124Y1291621D01*
G03X-2503538Y1266207I0J-25414D01*
G01X-2503538Y1126208D01*
G03X-2478124Y1100794I25414J0D01*
G01X-2358124Y1100794D01*
G03X-2332710Y1126208I0J25414D01*
G01X-2332710Y1166268D01*
G03X-2322709Y1196408I-40413J30139D01*
G03X-2332710Y1226547I-50414J0D01*
G01X-2332710Y1266207D01*
G37*
G36*
G01X-2452879Y371961D02*
G03X-2375609Y420598I30884J36633D01*
G03X-2342608Y435123I502J43611D01*
G03X-2266494Y464209I32499J29086D01*
G01X-2266494Y536508D01*
G03X-2342608Y565594I-43614J0D01*
G03X-2418722Y536508I-32499J-29086D01*
G01X-2418722Y464209D01*
G03X-2418006Y456341I43614J0D01*
G03X-2452879Y371961I-3989J-47748D01*
G37*
G36*
G01X-2343393Y-2240076D02*
G03X-2317979Y-2214662I0J25414D01*
G01X-2317979Y-2134662D01*
G03X-2343393Y-2109248I-25414J0D01*
G01X-2433392Y-2109248D01*
G03X-2458806Y-2134662I0J-25414D01*
G01X-2458806Y-2214662D01*
G03X-2433392Y-2240076I25414J0D01*
G01X-2343393Y-2240076D01*
G37*
G36*
G01X-2308806Y-1994657D02*
G01X-2308806Y-2074657D01*
G03X-2283392Y-2100071I25414J0D01*
G01X-2193393Y-2100071D01*
G03X-2167979Y-2074657I0J25414D01*
G01X-2167979Y-1994657D01*
G03X-2193393Y-1969243I-25414J0D01*
G01X-2217933Y-1969243D01*
G01X-2295012Y-1892165D01*
G03X-2376787Y-1856937I-47895J1348D01*
G03X-2341559Y-1938712I33880J-33880D01*
G01X-2302439Y-1977832D01*
G03X-2308806Y-1994657I19047J-16825D01*
G37*
G36*
G01X-2193393Y-2240076D02*
G03X-2167979Y-2214662I0J25414D01*
G01X-2167979Y-2134662D01*
G03X-2193393Y-2109248I-25414J0D01*
G01X-2283392Y-2109248D01*
G03X-2308806Y-2134662I0J-25414D01*
G01X-2308806Y-2214662D01*
G03X-2283392Y-2240076I25414J0D01*
G01X-2193393Y-2240076D01*
G37*
G36*
G01X-2037356Y-2109975D02*
G03X-2043393Y-2109248I-6037J-24687D01*
G01X-2133392Y-2109248D01*
G03X-2158806Y-2134662I0J-25414D01*
G01X-2158806Y-2214662D01*
G03X-2133392Y-2240076I25414J0D01*
G01X-2043393Y-2240076D01*
G03X-2017979Y-2214662I0J25414D01*
G01X-2017979Y-2183693D01*
G01X-2008806Y-2174521D01*
G01X-2008806Y-2214662D01*
G03X-1983392Y-2240076I25414J0D01*
G01X-1893392Y-2240076D01*
G03X-1867978Y-2214662I0J25414D01*
G01X-1867978Y-2207576D01*
G01X-1797458Y-2207576D01*
G03X-1774184Y-2197936I0J32914D01*
G01X-1704741Y-2128491D01*
G03X-1669513Y-2046716I1348J47895D01*
G03X-1751288Y-2081944I-33880J-33880D01*
G01X-1811092Y-2141748D01*
G01X-1856688Y-2141748D01*
G03X-1847419Y-2135236I-14004J29786D01*
G01X-1799741Y-2087557D01*
G03X-1764513Y-2005782I1348J47895D01*
G03X-1846288Y-2041010I-33880J-33880D01*
G01X-1867978Y-2062700D01*
G01X-1867978Y-1994657D01*
G03X-1893392Y-1969243I-25414J0D01*
G01X-1983392Y-1969243D01*
G03X-2008806Y-1994657I0J-25414D01*
G01X-2008806Y-2074657D01*
G03X-2007552Y-2082542I25414J0D01*
G03X-2016068Y-2088688I14757J-29420D01*
G01X-2037356Y-2109975D01*
G37*
G36*
G01X-1898522Y1345297D02*
G03X-1802694Y1345297I47914J0D01*
G03X-1898522Y1345297I-47914J0D01*
G37*
G36*
G01X-1451210Y649723D02*
G03X-1422124Y573609I29086J-32499D01*
G01X-1349826Y573609D01*
G03X-1320739Y649723I0J43614D01*
G03X-1320739Y714722I-29086J32499D01*
G03X-1320739Y779720I-29086J32499D01*
G03X-1320739Y844719I-29086J32499D01*
G03X-1349826Y920833I-29086J32499D01*
G01X-1422124Y920833D01*
G03X-1431772Y919752I0J-43614D01*
G01X-1472710Y919752D01*
G01X-1472710Y966208D01*
G03X-1498124Y991622I-25414J0D01*
G01X-1603124Y991622D01*
G03X-1628538Y966208I0J-25414D01*
G01X-1628538Y914753D01*
G03X-1630035Y902868I46417J-11885D01*
G03X-1628538Y890983I47914J0D01*
G01X-1628538Y806208D01*
G03X-1603124Y780794I25414J0D01*
G01X-1530284Y780794D01*
G01X-1535487Y775592D01*
G03X-1544859Y777383I-9372J-23623D01*
G01X-1625507Y777383D01*
G03X-1650920Y751969I0J-25414D01*
G01X-1650920Y665568D01*
G03X-1625507Y640154I25414J0D01*
G01X-1544859Y640154D01*
G03X-1519445Y665568I0J25414D01*
G01X-1519445Y673892D01*
G03X-1491621Y652033I41420J24086D01*
G03X-1456382Y655230I13596J45945D01*
G03X-1451210Y649723I34258J26993D01*
G37*
G36*
G01X-1574911Y-2129996D02*
G03X-1479083Y-2129996I47914J0D01*
G03X-1574911Y-2129996I-47914J0D01*
G37*
G36*
G01X-940632Y389913D02*
G01X-1161998Y389913D01*
G03X-1185271Y380273I0J-32914D01*
G01X-1315631Y249914D01*
G01X-1424177Y249914D01*
G03X-1506911Y217000I-34820J-32914D01*
G03X-1424177Y184086I47914J0D01*
G01X-1301997Y184086D01*
G03X-1278724Y193726I0J32914D01*
G01X-1148364Y324085D01*
G01X-926998Y324085D01*
G03X-903724Y333726I0J32914D01*
G01X-771725Y465725D01*
G03X-762084Y488999I-23274J23274D01*
G01X-762084Y704999D01*
G03X-771725Y728272I-32914J0D01*
G01X-813947Y770495D01*
G03X-825015Y777788I-23274J-23274D01*
G03X-827040Y779720I-31110J-30567D01*
G03X-821428Y785794I-29086J32499D01*
G01X-513126Y785794D01*
G03X-491620Y837714I0J30414D01*
G01X-517712Y863806D01*
G01X-517712Y1076208D01*
G03X-568904Y1098418I-30414J0D01*
G01X-1034938Y1098418D01*
G03X-1064963Y1072851I0J-30414D01*
G03X-1106613Y1059294I-9151J-42644D01*
G03X-1171612Y1059294I-32499J-29086D01*
G03X-1236610Y1059294I-32499J-29086D01*
G03X-1244361Y1066120I-32499J-29086D01*
G03X-1322967Y1073984I-42421J-27240D01*
G03X-1312724Y995653I36184J-35104D01*
G01X-1312724Y957909D01*
G03X-1236610Y928823I43614J0D01*
G03X-1171612Y928823I32499J29086D01*
G03X-1106613Y928823I32499J29086D01*
G03X-1050909Y920980I32499J29086D01*
G01X-965353Y835424D01*
G03X-957511Y779720I36929J-23205D01*
G03X-957511Y714722I29086J-32499D01*
G03X-957511Y649723I29086J-32499D01*
G03X-928424Y573609I29086J-32499D01*
G01X-856126Y573609D01*
G03X-827912Y583964I0J43614D01*
G01X-827912Y502632D01*
G01X-940632Y389913D01*
G37*
G36*
G01X-1398540Y1126208D02*
G03X-1373126Y1100794I25414J0D01*
G01X-1253126Y1100794D01*
G03X-1227712Y1126208I0J25414D01*
G01X-1227712Y1266207D01*
G03X-1253126Y1291621I-25414J0D01*
G01X-1373126Y1291621D01*
G03X-1398540Y1266207I0J-25414D01*
G01X-1398540Y1126208D01*
G37*
G36*
G01X-1316984Y-541005D02*
G03X-1352388Y-614436I9022J-49600D01*
G03X-1271630Y-625556I44426J23831D01*
G01X-1267221Y-625556D01*
G03X-1235918Y-625556I15651J63514D01*
G01X-1211570Y-625556D01*
G03X-1186156Y-600142I0J25414D01*
G01X-1186156Y-562042D01*
G01X-1186156Y-413874D01*
G01X-1186156Y-375903D01*
G03X-1211570Y-350489I-25414J0D01*
G01X-1235918Y-350489D01*
G03X-1267221Y-350489I-15651J-63514D01*
G01X-1291570Y-350489D01*
G03X-1316984Y-375903I0J-25414D01*
G01X-1316984Y-414003D01*
G01X-1316984Y-541005D01*
G37*
G36*
G01X-1095498Y464209D02*
G01X-1095498Y536508D01*
G03X-1171612Y565594I-43614J0D01*
G03X-1247725Y536508I-32499J-29086D01*
G01X-1247725Y464209D01*
G03X-1171612Y435123I43614J0D01*
G03X-1095498Y464209I32499J29086D01*
G37*
G36*
G01X-568124Y185478D02*
G01X-488124Y185478D01*
G03X-462710Y210892I0J25414D01*
G01X-462710Y222978D01*
G01X-456435Y222978D01*
G03X-433161Y232619I0J32914D01*
G01X-397575Y268205D01*
G03X-362347Y349980I1348J47895D01*
G03X-444122Y314752I-33880J-33880D01*
G01X-462710Y296165D01*
G01X-462710Y300892D01*
G03X-488124Y326306I-25414J0D01*
G01X-542072Y326306D01*
G01X-602715Y386949D01*
G01X-602715Y450815D01*
G03X-628129Y476229I-25414J0D01*
G01X-708128Y476229D01*
G03X-733542Y450815I0J-25414D01*
G01X-733542Y360815D01*
G03X-708128Y335401I25414J0D01*
G01X-644262Y335401D01*
G01X-635167Y326306D01*
G01X-708128Y326306D01*
G03X-733542Y300892I0J-25414D01*
G01X-733542Y210892D01*
G03X-708128Y185478I25414J0D01*
G01X-660839Y185478D01*
G03X-663562Y180214I41116J-24601D01*
G01X-707298Y180214D01*
G03X-732712Y154800I0J-25414D01*
G01X-732712Y78600D01*
G03X-707298Y53186I25414J0D01*
G01X-658083Y53186D01*
G01X-592707Y-12190D01*
G01X-592707Y-65621D01*
G03X-567294Y-91035I25414J0D01*
G01X-562708Y-91035D01*
G01X-562708Y-112707D01*
G03X-552335Y-137748I35414J0D01*
G01X-467863Y-222220D01*
G03X-386120Y-253880I47863J2220D01*
G03X-417780Y-172137I-33880J33880D01*
G01X-491880Y-98038D01*
G01X-491880Y-91035D01*
G01X-487294Y-91035D01*
G03X-461880Y-65621I0J25414D01*
G01X-461880Y10579D01*
G03X-487294Y35993I-25414J0D01*
G01X-540725Y35993D01*
G01X-601884Y97153D01*
G01X-601884Y116408D01*
G03X-580856Y188898I-17838J44470D01*
G03X-568124Y185478I12733J21994D01*
G37*
G36*
G01X-733326Y514178D02*
G03X-707912Y488764I25414J0D01*
G01X-627913Y488764D01*
G03X-602499Y514178I0J25414D01*
G01X-602499Y604178D01*
G03X-627913Y629592I-25414J0D01*
G01X-707912Y629592D01*
G03X-733326Y604178I0J-25414D01*
G01X-733326Y514178D01*
G37*
G36*
G01X-593322Y514178D02*
G03X-567908Y488764I25414J0D01*
G01X-487908Y488764D01*
G03X-462494Y514178I0J25414D01*
G01X-462494Y604178D01*
G03X-487908Y629592I-25414J0D01*
G01X-567908Y629592D01*
G03X-593322Y604178I0J-25414D01*
G01X-593322Y514178D01*
G37*
G36*
G01X-503035Y-1384997D02*
G03X-407207Y-1384997I47914J0D01*
G03X-503035Y-1384997I-47914J0D01*
G37*
G36*
G01X-498735Y-1262997D02*
G03X-402907Y-1262997I47914J0D01*
G03X-498735Y-1262997I-47914J0D01*
G37*
G36*
G01X-357913Y-1577997D02*
G03X-262085Y-1577997I47914J0D01*
G03X-357913Y-1577997I-47914J0D01*
G37*
G36*
G01X-336335Y-1322997D02*
G03X-240507Y-1322997I47914J0D01*
G03X-336335Y-1322997I-47914J0D01*
G37*
G36*
G01X-244878Y-1193962D02*
G03X-149049Y-1193962I47914J0D01*
G03X-244878Y-1193962I-47914J0D01*
G37*
G36*
G01X-168035Y-1389997D02*
G03X-72207Y-1389997I47914J0D01*
G03X-168035Y-1389997I-47914J0D01*
G37*
G36*
G01X-146913Y-1489370D02*
G03X-51085Y-1489370I47914J0D01*
G03X-146913Y-1489370I-47914J0D01*
G37*
%LPD*%
G36*
G01X-3455950Y-363413D02*
G01X-2860543Y-363413D01*
G01X-2860543Y-447906D01*
G01X-3007246Y-447906D01*
G01X-3074353Y-380799D01*
G03X-3097627Y-371158I-23274J-23274D01*
G01X-3407836Y-371158D01*
G03X-3431110Y-380799I0J-32914D01*
G01X-3469657Y-419346D01*
G03X-3476405Y-418434I-6747J-24502D01*
G01X-3510971Y-418434D01*
G01X-3455950Y-363413D01*
G37*
G36*
G01X-3499271Y-1357904D02*
G01X-3507945Y-1349229D01*
G01X-3476405Y-1349229D01*
G03X-3450991Y-1323815I0J25414D01*
G01X-3450991Y-1213773D01*
G01X-3433753Y-1196535D01*
G03X-3434818Y-1203816I24349J-7280D01*
G01X-3434818Y-1323815D01*
G03X-3409404Y-1349229I25414J0D01*
G01X-3349405Y-1349229D01*
G03X-3323991Y-1323815I0J25414D01*
G01X-3323991Y-1259846D01*
G01X-3307818Y-1243674D01*
G01X-3307818Y-1323815D01*
G03X-3282404Y-1349229I25414J0D01*
G01X-3222405Y-1349229D01*
G03X-3196991Y-1323815I0J25414D01*
G01X-3196991Y-1234985D01*
G01X-3175419Y-1213413D01*
G01X-3002446Y-1213413D01*
G03X-2930435Y-1210707I34820J32914D01*
G03X-2942551Y-1139671I-37192J30208D01*
G01X-2933884Y-1139671D01*
G03X-2923637Y-1138035I0J32914D01*
G03X-2873378Y-1108878I6010J47536D01*
G03X-2867756Y-1109362I5622J32430D01*
G01X-2862093Y-1109362D01*
G01X-2862093Y-1189148D01*
G03X-2836679Y-1214562I25414J0D01*
G01X-2808788Y-1214562D01*
G01X-2801709Y-1221641D01*
G01X-2836679Y-1221641D01*
G03X-2862093Y-1247055I0J-25414D01*
G01X-2862093Y-1337055D01*
G03X-2836679Y-1362469I25414J0D01*
G01X-2756679Y-1362469D01*
G03X-2731265Y-1337055I0J25414D01*
G01X-2731265Y-1261717D01*
G03X-2722088Y-1259816I-5084J47644D01*
G01X-2722088Y-1337055D01*
G03X-2696674Y-1362469I25414J0D01*
G01X-2616674Y-1362469D01*
G03X-2591260Y-1337055I0J25414D01*
G01X-2591260Y-1261342D01*
G01X-2417690Y-1087773D01*
G01X-2414321Y-1087773D01*
G01X-2480108Y-1153560D01*
G03X-2489748Y-1176834I23274J-23274D01*
G01X-2489748Y-1244986D01*
G03X-2563606Y-1253780I-33357J-34396D01*
G03X-2539867Y-1324268I40500J-25602D01*
G01X-2599101Y-1383503D01*
G03X-2616674Y-1376448I-17573J-18359D01*
G01X-2696674Y-1376448D01*
G03X-2722088Y-1401862I0J-25414D01*
G01X-2722088Y-1478062D01*
G03X-2696674Y-1503476I25414J0D01*
G01X-2616674Y-1503476D01*
G03X-2591260Y-1478062I0J25414D01*
G01X-2591260Y-1468204D01*
G03X-2587407Y-1464903I-19420J26574D01*
G01X-2442715Y-1320212D01*
G01X-2442715Y-1406043D01*
G01X-2591260Y-1554588D01*
G01X-2591260Y-1549769D01*
G03X-2616674Y-1524355I-25414J0D01*
G01X-2696674Y-1524355D01*
G03X-2722088Y-1549769I0J-25414D01*
G01X-2722088Y-1625969D01*
G03X-2718629Y-1638769I25414J0D01*
G03X-2740128Y-1671491I25801J-40374D01*
G03X-2756679Y-1665362I-16551J-19285D01*
G01X-2836679Y-1665362D01*
G03X-2862093Y-1690776I0J-25414D01*
G01X-2862093Y-1702862D01*
G01X-2910630Y-1702862D01*
G01X-2955407Y-1658085D01*
G01X-2955407Y-1615402D01*
G03X-2965047Y-1592128I-32914J0D01*
G01X-3189631Y-1367544D01*
G03X-3212905Y-1357904I-23274J-23274D01*
G01X-3499271Y-1357904D01*
G37*
G36*
G01X-3346685Y-1109467D02*
G01X-3266684Y-1109445D01*
G01X-3338229Y-1180991D01*
G03X-3349405Y-1178402I-11175J-22825D01*
G01X-3409404Y-1178402D01*
G03X-3416685Y-1179467I0J-25414D01*
G01X-3346685Y-1109467D01*
G37*
G36*
G01X-3111260Y-436986D02*
G01X-3044153Y-504093D01*
G03X-3020879Y-513734I23274J23274D01*
G01X-2860543Y-513734D01*
G01X-2860543Y-531124D01*
G03X-2880306Y-562062I27417J-39295D01*
G03X-2872373Y-597905I47180J-8357D01*
G01X-3281530Y-597905D01*
G01X-3323991Y-555445D01*
G01X-3323991Y-443848D01*
G03X-3324934Y-436986I-25414J0D01*
G01X-3111260Y-436986D01*
G37*
G36*
G01X-2492733Y-699445D02*
G01X-2584632Y-607546D01*
G03X-2590419Y-602935I-23274J-23274D01*
G03X-2589711Y-596979I-24706J5956D01*
G01X-2589711Y-524962D01*
G01X-2415228Y-699445D01*
G01X-2492733Y-699445D01*
G37*
G36*
G01X-1946376Y-689961D02*
G03X-1961299Y-637773I-45427J15238D01*
G01X-1952003Y-637773D01*
G03X-1937003Y-633817I0J30414D01*
G03X-1922003Y-637773I15000J26458D01*
G01X-1912003Y-637773D01*
G03X-1897003Y-633817I0J30414D01*
G03X-1882003Y-637773I15000J26458D01*
G01X-1872003Y-637773D01*
G03X-1857003Y-633817I0J30414D01*
G03X-1842003Y-637773I15000J26458D01*
G01X-1832003Y-637773D01*
G03X-1824855Y-636921I0J30414D01*
G01X-1824855Y-664031D01*
G01X-1827588Y-666764D01*
G03X-1876513Y-720330I-1348J-47895D01*
G03X-1816367Y-760895I47577J5671D01*
G03X-1777216Y-795642I46216J12644D01*
G03X-1729633Y-773826I7065J47390D01*
G03X-1702307Y-779949I23682J41652D01*
G03X-1672004Y-807773I30304J2590D01*
G01X-1594504Y-807773D01*
G03X-1589836Y-807413I0J30414D01*
G03X-1556118Y-818222I30451J36993D01*
G01X-1557342Y-819445D01*
G01X-1582428Y-819445D01*
G03X-1594504Y-816945I-12076J-27914D01*
G01X-1672004Y-816945D01*
G03X-1702418Y-847359I0J-30414D01*
G01X-1702418Y-857359D01*
G03X-1698461Y-872359I30414J0D01*
G03X-1702418Y-887359I26458J-15000D01*
G01X-1702418Y-897359D01*
G03X-1698461Y-912359I30414J0D01*
G03X-1702399Y-926288I26458J-15000D01*
G03X-1771223Y-969388I-20910J-43111D01*
G03X-1702418Y-1012519I47914J-10D01*
G01X-1702418Y-1017359D01*
G03X-1698461Y-1032359I30414J0D01*
G03X-1702418Y-1047359I26458J-15000D01*
G01X-1702418Y-1057359D01*
G03X-1698461Y-1072359I30414J0D01*
G03X-1702418Y-1087359I26458J-15000D01*
G01X-1702418Y-1097358D01*
G03X-1698461Y-1112358I30414J0D01*
G03X-1702418Y-1127358I26458J-15000D01*
G01X-1702418Y-1137358D01*
G03X-1698461Y-1152358I30414J0D01*
G03X-1702418Y-1167358I26458J-15000D01*
G01X-1702418Y-1177358D01*
G03X-1699910Y-1189452I30414J0D01*
G03X-1712004Y-1186944I-12094J-27906D01*
G01X-1722004Y-1186944D01*
G03X-1737004Y-1190901I0J-30414D01*
G03X-1752004Y-1186944I-15000J-26458D01*
G01X-1762004Y-1186944D01*
G03X-1774161Y-1189480I0J-30414D01*
G01X-1813961Y-1149679D01*
G03X-1837235Y-1140039I-23274J-23274D01*
G01X-1864865Y-1140039D01*
G03X-1941531Y-1154657I-33125J-34619D01*
G03X-1984472Y-1125102I-44265J-18340D01*
G03X-2040621Y-1071866I-47524J6104D01*
G03X-2074278Y-1141537I8625J-47131D01*
G01X-2077178Y-1144437D01*
G03X-2155512Y-1137931I-41435J-24060D01*
G03X-2226187Y-1112241I-45484J-15066D01*
G03X-2234810Y-1186944I25191J-40757D01*
G01X-2242003Y-1186944D01*
G03X-2254097Y-1189452I0J-30414D01*
G03X-2251589Y-1177358I-27906J12094D01*
G01X-2251589Y-1167358D01*
G03X-2255545Y-1152358I-30414J0D01*
G03X-2251589Y-1137358I-26458J15000D01*
G01X-2251589Y-1127358D01*
G03X-2254124Y-1115201I-30414J0D01*
G01X-2214759Y-1075837D01*
G03X-2186146Y-1010704I-15084J45478D01*
G03X-2253864Y-988901I-43697J-19655D01*
G03X-2251589Y-977359I-28139J11542D01*
G01X-2251589Y-967359D01*
G03X-2253076Y-957963I-30414J0D01*
G03X-2183287Y-927386I23233J41904D01*
G03X-2231228Y-868165I-46556J11327D01*
G03X-2243508Y-861012I-22315J-24194D01*
G03X-2207907Y-829922I-9615J46939D01*
G03X-2216307Y-783409I-45217J15850D01*
G03X-2191527Y-753563I-21320J42910D01*
G03X-2196965Y-715154I-46099J13063D01*
G03X-2167914Y-688733I-14882J45544D01*
G01X-2142044Y-688733D01*
G03X-2127591Y-741622I45133J-16086D01*
G03X-2072965Y-746321I30681J36803D01*
G03X-2023865Y-760736I35962J31662D01*
G03X-1989750Y-722593I-13138J46078D01*
G03X-1946376Y-689961I-2052J47870D01*
G37*
G36*
G01X-2126097Y1030207D02*
G03X-2144953Y1071213I-54014J0D01*
G01X-2144953Y1090394D01*
G01X-2088122Y1090394D01*
G03X-2052308Y1126208I0J35814D01*
G01X-2052308Y1238547D01*
G01X-1957436Y1238547D01*
G03X-1895726Y1192674I57013J12251D01*
G01X-1896154Y1148228D01*
G03X-1940505Y1092172I13960J-56618D01*
G03X-1897243Y1035271I58311J-562D01*
G01X-1897563Y1002022D01*
G01X-1898123Y1002022D01*
G03X-1933937Y966208I0J-35814D01*
G01X-1933937Y858297D01*
G03X-1962124Y866234I-28186J-46077D01*
G01X-2034422Y866234D01*
G03X-2051796Y863364I0J-54014D01*
G01X-2051796Y886689D01*
G03X-1984842Y975644I19602J54921D01*
G03X-2090498Y940535I-47352J-34034D01*
G01X-2128967Y940535D01*
G03X-2126097Y957909I-51144J17374D01*
G01X-2126097Y1030207D01*
G37*
G36*
G01X-1494694Y-1293658D02*
G01X-1494694Y-1140148D01*
G03X-1481161Y-1116786I-33014J34725D01*
G01X-1458538Y-1139408D01*
G01X-1458538Y-1192839D01*
G03X-1433124Y-1218253I25414J0D01*
G01X-1353124Y-1218253D01*
G03X-1327710Y-1192839I0J25414D01*
G01X-1327710Y-1116639D01*
G03X-1353124Y-1091225I-25414J0D01*
G01X-1406555Y-1091225D01*
G01X-1427566Y-1070214D01*
G01X-1353124Y-1070214D01*
G03X-1327710Y-1044800I0J25414D01*
G01X-1327710Y-968600D01*
G03X-1353124Y-943186I-25414J0D01*
G01X-1384066Y-943186D01*
G03X-1414769Y-930134I-32924J-34811D01*
G01X-1416369Y-928534D01*
G01X-1353126Y-928534D01*
G03X-1327712Y-903120I0J25414D01*
G01X-1327712Y-813120D01*
G03X-1353126Y-787706I-25414J0D01*
G01X-1432508Y-787706D01*
G01X-1418938Y-774136D01*
G01X-1353255Y-774136D01*
G01X-1325795Y-801596D01*
G03X-1317889Y-807428I23274J23274D01*
G03X-1318535Y-813120I24768J-5692D01*
G01X-1318535Y-903120D01*
G03X-1293121Y-928534I25414J0D01*
G01X-1213121Y-928534D01*
G03X-1187707Y-903120I0J25414D01*
G01X-1187707Y-901036D01*
G01X-1060540Y-1028204D01*
G01X-1060540Y-1064706D01*
G03X-1050899Y-1087979I32914J0D01*
G01X-997299Y-1141580D01*
G03X-1020999Y-1179182I24060J-41435D01*
G03X-1003599Y-1220083I47761J-3833D01*
G01X-1013121Y-1220083D01*
G03X-1036395Y-1229724I0J-32914D01*
G01X-1067998Y-1261326D01*
G01X-1187927Y-1261326D01*
G03X-1213119Y-1239265I-25192J-3353D01*
G01X-1293119Y-1239265D01*
G03X-1318533Y-1264679I0J-25414D01*
G01X-1318533Y-1340879D01*
G03X-1293119Y-1366293I25414J0D01*
G01X-1213119Y-1366293D01*
G03X-1187705Y-1340879I0J25414D01*
G01X-1187705Y-1327154D01*
G01X-1054364Y-1327154D01*
G03X-1031090Y-1317514I0J32914D01*
G01X-999488Y-1285911D01*
G01X-932829Y-1285911D01*
G01X-932829Y-1303259D01*
G03X-955317Y-1390324I4790J-47674D01*
G03X-881727Y-1338646I27278J39391D01*
G01X-824089Y-1338646D01*
G03X-826679Y-1351209I29174J-12563D01*
G01X-826679Y-1362661D01*
G01X-942338Y-1478320D01*
G03X-951641Y-1500780I22461J-22461D01*
G01X-951641Y-1548242D01*
G01X-976184Y-1548242D01*
G03X-1001598Y-1573656I0J-25414D01*
G01X-1001598Y-1635918D01*
G03X-1010770Y-1637190I1967J-47874D01*
G01X-1010770Y-1573656D01*
G03X-1036184Y-1548242I-25414J0D01*
G01X-1125081Y-1548242D01*
G03X-1129635Y-1542544I-27828J-17576D01*
G01X-1159635Y-1512544D01*
G03X-1182909Y-1502904I-23274J-23274D01*
G01X-1183500Y-1502904D01*
G03X-1182492Y-1495818I-24406J7086D01*
G01X-1182492Y-1405818D01*
G03X-1207906Y-1380404I-25414J0D01*
G01X-1287906Y-1380404D01*
G03X-1313320Y-1405818I0J-25414D01*
G01X-1313320Y-1495818D01*
G03X-1312312Y-1502904I25414J0D01*
G01X-1323505Y-1502904D01*
G03X-1322497Y-1495818I-24406J7086D01*
G01X-1322497Y-1405818D01*
G03X-1347911Y-1380404I-25414J0D01*
G01X-1407948Y-1380404D01*
G01X-1494694Y-1293658D01*
G37*
G36*
G01X-981612Y935135D02*
G01X-1007684Y935135D01*
G01X-1024778Y952229D01*
G01X-1024778Y1057844D01*
G01X-980903Y1057844D01*
G03X-883480Y1057844I48711J20666D01*
G01X-872934Y1057844D01*
G03X-791454Y1057844I40740J33766D01*
G01X-572935Y1057844D01*
G03X-558286Y1045576I40740J33766D01*
G01X-558286Y987644D01*
G03X-585108Y941610I26092J-46034D01*
G03X-558286Y895576I52914J0D01*
G01X-558286Y851208D01*
G03X-555310Y844024I10160J0D01*
G01X-551974Y840688D01*
G03X-572091Y826368I19780J-49078D01*
G01X-723188Y826368D01*
G03X-732191Y931425I-9004J52142D01*
G03X-741195Y826368I0J-52914D01*
G01X-809616Y826368D01*
G03X-856126Y860834I-46510J-14149D01*
G01X-928424Y860834D01*
G03X-933152Y860603I0J-48614D01*
G01X-951198Y878649D01*
G01X-951198Y904721D01*
G03X-981612Y935135I-30414J0D01*
G37*
G36*
G01X-603218Y205859D02*
G03X-602715Y210892I-24911J5033D01*
G01X-602715Y293854D01*
G01X-593538Y284677D01*
G01X-593538Y210892D01*
G03X-590504Y198851I25414J0D01*
G03X-603218Y205859I-29219J-37974D01*
G37*
G54D10*
G01X-4132193Y1340341D02*
G02X-3833463Y1639071I298730J0D01*
G01X-133463Y1639071D01*
G02X165267Y1340341I0J-298730D01*
G01X165267Y-2359659D01*
G02X-133463Y-2658389I-298730J0D01*
G01X-3833463Y-2658389D01*
G02X-4132193Y-2359659I0J298730D01*
G01X-4132193Y1340341D01*
G01X-3663404Y-418408D02*
G03X-3688818Y-443822I0J-25414D01*
G01X-3688818Y-563822D01*
G03X-3663404Y-589236I25414J0D01*
G01X-3603405Y-589236D01*
G03X-3577991Y-563822I0J25414D01*
G01X-3577991Y-485454D01*
G01X-3561818Y-469281D01*
G01X-3561818Y-563847D01*
G03X-3536404Y-589261I25414J0D01*
G01X-3476405Y-589261D01*
G03X-3450991Y-563847I0J25414D01*
G01X-3450991Y-493774D01*
G01X-3434818Y-477602D01*
G01X-3434818Y-563847D01*
G03X-3409404Y-589261I25414J0D01*
G01X-3383269Y-589261D01*
G01X-3318438Y-654093D01*
G03X-3295164Y-663733I23274J23274D01*
G01X-2722088Y-663733D01*
G01X-2722088Y-738527D01*
G03X-2696674Y-763941I25414J0D01*
G01X-2668569Y-763941D01*
G01X-2647689Y-784820D01*
G01X-2696674Y-784820D01*
G03X-2722088Y-810234I0J-25414D01*
G01X-2722088Y-886434D01*
G03X-2696674Y-911848I25414J0D01*
G01X-2616674Y-911848D01*
G03X-2592589Y-894543I0J25414D01*
G01X-2592304Y-894543D01*
G01X-2547402Y-939445D01*
G01X-2599460Y-939445D01*
G03X-2616674Y-932727I-17214J-18696D01*
G01X-2696674Y-932727D01*
G03X-2722088Y-958141I0J-25414D01*
G01X-2722088Y-1028141D01*
G03X-2762066Y-1043534I-4589J-47694D01*
G01X-2854122Y-1043534D01*
G01X-2875630Y-1022026D01*
G03X-2898904Y-1012385I-23274J-23274D01*
G01X-2936349Y-1012385D01*
G03X-2959623Y-1022026I0J-32914D01*
G01X-2981135Y-1043538D01*
G01X-3360331Y-1043643D01*
G03X-3383596Y-1053283I9J-32914D01*
G01X-3508714Y-1178402D01*
G01X-3536404Y-1178402D01*
G03X-3544662Y-1179781I0J-25414D01*
G01X-3576417Y-1148026D01*
G03X-3599691Y-1138385I-23274J-23274D01*
G01X-3726206Y-1138385D01*
G03X-3808940Y-1171299I-34820J-32914D01*
G03X-3726206Y-1204213I47914J0D01*
G01X-3688818Y-1204213D01*
G01X-3688818Y-1252719D01*
G01X-3706338Y-1270239D01*
G01X-3872206Y-1270239D01*
G03X-3954940Y-1303153I-34820J-32914D01*
G03X-3872206Y-1336067I47914J0D01*
G01X-3692705Y-1336067D01*
G03X-3686033Y-1335384I0J32914D01*
G03X-3663404Y-1349229I22628J11568D01*
G01X-3603405Y-1349229D01*
G03X-3598197Y-1348690I0J25414D01*
G03X-3591178Y-1359092I30293J12872D01*
G01X-3536178Y-1414092D01*
G03X-3512904Y-1423732I23274J23274D01*
G01X-3226538Y-1423732D01*
G01X-3021235Y-1629035D01*
G01X-3021235Y-1662547D01*
G03X-3074759Y-1733477I-12443J-46270D01*
G03X-2986992Y-1719595I41081J24659D01*
G01X-2947537Y-1759050D01*
G03X-2924263Y-1768690I23274J23274D01*
G01X-2862093Y-1768690D01*
G01X-2862093Y-1780776D01*
G03X-2836679Y-1806190I25414J0D01*
G01X-2756679Y-1806190D01*
G03X-2731265Y-1780776I0J25414D01*
G01X-2731265Y-1707750D01*
G03X-2722088Y-1717085I38437J28607D01*
G01X-2722088Y-1780776D01*
G03X-2696674Y-1806190I25414J0D01*
G01X-2616674Y-1806190D01*
G03X-2610931Y-1805532I0J25414D01*
G03X-2576558Y-1818712I33024J34715D01*
G01X-2544502Y-1850769D01*
G01X-2591260Y-1850769D01*
G01X-2591260Y-1838683D01*
G03X-2616674Y-1813269I-25414J0D01*
G01X-2696674Y-1813269D01*
G03X-2722088Y-1838683I0J-25414D01*
G01X-2722088Y-1928683D01*
G03X-2696674Y-1954097I25414J0D01*
G01X-2616674Y-1954097D01*
G03X-2591260Y-1928683I0J25414D01*
G01X-2591260Y-1916597D01*
G01X-2547815Y-1916597D01*
G01X-2544572Y-1919839D01*
G03X-2507917Y-1967764I47895J-1348D01*
G03X-2453439Y-1941832I11240J46577D01*
G01X-2426027Y-1969243D01*
G01X-2433392Y-1969243D01*
G03X-2458806Y-1994657I0J-25414D01*
G01X-2458806Y-2074657D01*
G03X-2433392Y-2100071I25414J0D01*
G01X-2343393Y-2100071D01*
G03X-2317979Y-2074657I0J25414D01*
G01X-2317979Y-1994657D01*
G03X-2343393Y-1969243I-25414J0D01*
G01X-2355479Y-1969243D01*
G01X-2355479Y-1960331D01*
G03X-2365119Y-1937057I-32914J0D01*
G01X-2530011Y-1772165D01*
G03X-2591260Y-1724802I-47895J1348D01*
G01X-2591260Y-1690776D01*
G03X-2616674Y-1665362I-25414J0D01*
G01X-2646939Y-1665362D01*
G03X-2653775Y-1651383I-45890J-13781D01*
G01X-2616674Y-1651383D01*
G03X-2591260Y-1625969I0J25414D01*
G01X-2591260Y-1623176D01*
G01X-2580387Y-1623176D01*
G03X-2557113Y-1613536I0J32914D01*
G01X-2451636Y-1508058D01*
G01X-2451636Y-1582995D01*
G03X-2426222Y-1608409I25414J0D01*
G01X-2350022Y-1608409D01*
G03X-2324608Y-1582995I0J25414D01*
G01X-2324608Y-1502995D01*
G03X-2344249Y-1478246I-25414J0D01*
G01X-2344249Y-1242402D01*
G01X-2309619Y-1207772D01*
G01X-2282003Y-1207772D01*
G03X-2269909Y-1205264I0J30414D01*
G03X-2272417Y-1217358I27906J-12094D01*
G01X-2272417Y-1294858D01*
G03X-2271497Y-1302280I30414J0D01*
G01X-2271497Y-1477581D01*
G01X-2276222Y-1477581D01*
G03X-2301636Y-1502995I0J-25414D01*
G01X-2301636Y-1582995D01*
G03X-2276222Y-1608409I25414J0D01*
G01X-2214258Y-1608409D01*
G01X-2211017Y-1611650D01*
G03X-2161499Y-1660884I47895J-1348D01*
G03X-2115428Y-1608409I-1623J47887D01*
G01X-2053336Y-1608409D01*
G01X-2053336Y-1776759D01*
G03X-2096834Y-1825819I4397J-47712D01*
G01X-2111666Y-1840651D01*
G03X-2121307Y-1863925I23274J-23274D01*
G01X-2121307Y-1969243D01*
G01X-2133392Y-1969243D01*
G03X-2158806Y-1994657I0J-25414D01*
G01X-2158806Y-2074657D01*
G03X-2133392Y-2100071I25414J0D01*
G01X-2043393Y-2100071D01*
G03X-2017979Y-2074657I0J25414D01*
G01X-2017979Y-1994657D01*
G03X-2043393Y-1969243I-25414J0D01*
G01X-2055479Y-1969243D01*
G01X-2055479Y-1877558D01*
G01X-2050286Y-1872366D01*
G03X-2005221Y-1844081I1348J47895D01*
G01X-1963708Y-1885594D01*
G03X-1940434Y-1895235I23274J23274D01*
G01X-1602546Y-1895235D01*
G03X-1519812Y-1862321I34820J32914D01*
G03X-1602546Y-1829407I-47914J0D01*
G01X-1926801Y-1829407D01*
G01X-1987508Y-1768699D01*
G01X-1987508Y-1606033D01*
G03X-1976779Y-1608409I10729J23038D01*
G01X-1900579Y-1608409D01*
G03X-1875165Y-1582995I0J25414D01*
G01X-1875165Y-1558953D01*
G03X-1837661Y-1530586I-6433J47480D01*
G03X-1842476Y-1483809I-43937J19113D01*
G03X-1842260Y-1480047I-32698J3762D01*
G01X-1842260Y-1352095D01*
G03X-1842980Y-1345250I-32914J0D01*
G01X-1826090Y-1362140D01*
G03X-1786802Y-1410623I47895J-1348D01*
G03X-1732915Y-1379155I8607J47135D01*
G01X-1732915Y-1423725D01*
G03X-1723275Y-1446999I32914J0D01*
G01X-1466182Y-1704091D01*
G03X-1456721Y-1710693I23274J23274D01*
G03X-1451598Y-1750331I45750J-14237D01*
G01X-1451598Y-1793660D01*
G03X-1426184Y-1819074I25414J0D01*
G01X-1336184Y-1819074D01*
G03X-1310770Y-1793660I0J25414D01*
G01X-1310770Y-1713731D01*
G01X-1301598Y-1713731D01*
G01X-1301598Y-1793660D01*
G03X-1276184Y-1819074I25414J0D01*
G01X-1186184Y-1819074D01*
G03X-1160770Y-1793660I0J25414D01*
G01X-1160770Y-1729503D01*
G01X-1151598Y-1738676D01*
G01X-1151598Y-1793660D01*
G03X-1126184Y-1819074I25414J0D01*
G01X-1036184Y-1819074D01*
G03X-1032545Y-1818812I0J25414D01*
G01X-1032545Y-1819023D01*
G01X-1058313Y-1844715D01*
G01X-1127179Y-1844715D01*
G03X-1152593Y-1870129I0J-25414D01*
G01X-1152593Y-1943057D01*
G01X-1161765Y-1943057D01*
G01X-1161765Y-1870129D01*
G03X-1187179Y-1844715I-25414J0D01*
G01X-1277179Y-1844715D01*
G03X-1302593Y-1870129I0J-25414D01*
G01X-1302593Y-1943057D01*
G01X-1302856Y-1943057D01*
G01X-1311765Y-1933995D01*
G01X-1311765Y-1870129D01*
G03X-1337179Y-1844715I-25414J0D01*
G01X-1427179Y-1844715D01*
G03X-1452593Y-1870129I0J-25414D01*
G01X-1452593Y-1950128D01*
G03X-1427179Y-1975542I25414J0D01*
G01X-1363313Y-1975542D01*
G01X-1354136Y-1984719D01*
G01X-1427179Y-1984719D01*
G03X-1452593Y-2010133I0J-25414D01*
G01X-1452593Y-2090133D01*
G03X-1427179Y-2115547I25414J0D01*
G01X-1337179Y-2115547D01*
G03X-1311765Y-2090133I0J25414D01*
G01X-1311765Y-2010133D01*
G01X-1311796Y-2008885D01*
G01X-1302562Y-2008885D01*
G01X-1302593Y-2010133D01*
G01X-1302593Y-2090133D01*
G03X-1277179Y-2115547I25414J0D01*
G01X-1187179Y-2115547D01*
G03X-1161765Y-2090133I0J25414D01*
G01X-1161765Y-2010133D01*
G01X-1161796Y-2008885D01*
G01X-1152562Y-2008885D01*
G01X-1152593Y-2010133D01*
G01X-1152593Y-2090133D01*
G03X-1127179Y-2115547I25414J0D01*
G01X-1037179Y-2115547D01*
G03X-1011765Y-2090133I0J25414D01*
G01X-1011765Y-2010133D01*
G01X-1011796Y-2008885D01*
G01X-1002562Y-2008885D01*
G01X-1002593Y-2010133D01*
G01X-1002593Y-2090133D01*
G03X-977179Y-2115547I25414J0D01*
G01X-887179Y-2115547D01*
G03X-861765Y-2090133I0J25414D01*
G01X-861765Y-2022814D01*
G03X-849632Y-2023841I10073J46843D01*
G01X-849632Y-2090133D01*
G03X-824218Y-2115547I25414J0D01*
G01X-734218Y-2115547D01*
G03X-708805Y-2090133I0J25414D01*
G01X-708805Y-2010133D01*
G03X-734218Y-1984719I-25414J0D01*
G01X-804583Y-1984719D01*
G03X-803961Y-1980150I-47109J8749D01*
G03X-803780Y-1975542I-47731J4179D01*
G01X-734218Y-1975542D01*
G03X-708805Y-1950128I0J25414D01*
G01X-708805Y-1913260D01*
G01X-656727Y-1861182D01*
G03X-647086Y-1837908I-23274J23274D01*
G01X-647086Y-1594776D01*
G03X-656727Y-1571502I-32914J0D01*
G01X-731503Y-1496727D01*
G03X-754776Y-1487087I-23273J-23274D01*
G01X-763057Y-1487087D01*
G03X-779276Y-1478731I-29652J-37636D01*
G01X-767322Y-1466777D01*
G03X-692006Y-1476598I41435J24060D01*
G03X-701827Y-1401282I-33880J33880D01*
G01X-688174Y-1387630D01*
G01X-602910Y-1387630D01*
G03X-579636Y-1377990I0J32914D01*
G01X-569258Y-1367611D01*
G03X-534030Y-1285836I1348J47895D01*
G03X-615805Y-1321064I-33880J-33880D01*
G01X-616544Y-1321802D01*
G01X-701808Y-1321802D01*
G03X-725082Y-1331442I0J-32914D01*
G01X-763151Y-1369512D01*
G01X-763151Y-1364366D01*
G01X-743404Y-1344619D01*
G03X-734101Y-1322159I-22461J22461D01*
G01X-734101Y-1164306D01*
G03X-743404Y-1141846I-31764J0D01*
G01X-756028Y-1129222D01*
G03X-772320Y-1120523I-22461J-22461D01*
G03X-832771Y-1085014I-46770J-10410D01*
G03X-863930Y-1147819I13682J-45919D01*
G01X-897965Y-1147819D01*
G01X-960420Y-1085364D01*
G03X-938631Y-1023364I-22006J42562D01*
G03X-999227Y-997931I-43794J-19438D01*
G03X-1004352Y-991297I-28398J-16639D01*
G01X-1171125Y-824523D01*
G03X-1187707Y-815570I-23274J-23274D01*
G01X-1187707Y-813120D01*
G01X-1187777Y-811236D01*
G01X-1066631Y-811236D01*
G01X-924061Y-953806D01*
G03X-900787Y-963447I23274J23274D01*
G01X-791646Y-963447D01*
G01X-762829Y-992264D01*
G01X-762829Y-1093233D01*
G03X-737415Y-1118647I25414J0D01*
G01X-617415Y-1118647D01*
G03X-592001Y-1093233I0J25414D01*
G01X-592001Y-953233D01*
G03X-617415Y-927819I-25414J0D01*
G01X-710478Y-927819D01*
G03X-731300Y-852112I-36895J30570D01*
G03X-795286Y-897619I-16074J-45138D01*
G01X-887154Y-897619D01*
G01X-1029724Y-755048D01*
G03X-1052998Y-745408I-23274J-23274D01*
G01X-1288888Y-745408D01*
G01X-1327710Y-706586D01*
G01X-1327710Y-672522D01*
G03X-1353124Y-647108I-25414J0D01*
G01X-1427495Y-647108D01*
G03X-1451883Y-615716I-46622J-11051D01*
G01X-1451883Y-361438D01*
G01X-1426844Y-336413D01*
G01X-1389657Y-336413D01*
G03X-1364244Y-310999I0J25414D01*
G01X-1364244Y-273849D01*
G01X-1324786Y-234414D01*
G01X-1299658Y-234414D01*
G03X-1274244Y-209000I0J25414D01*
G01X-1274244Y-159000D01*
G03X-1299658Y-133586I-25414J0D01*
G01X-1344658Y-133586D01*
G03X-1367158Y-147184I0J-25414D01*
G03X-1389657Y-133586I-22500J-11816D01*
G01X-1434657Y-133586D01*
G03X-1460071Y-159000I0J-25414D01*
G01X-1460071Y-176861D01*
G03X-1466271Y-181726I17074J-28139D01*
G01X-1538271Y-253726D01*
G03X-1547911Y-276999I23274J-23274D01*
G01X-1547911Y-606365D01*
G01X-1560991Y-619445D01*
G01X-1582428Y-619445D01*
G03X-1594504Y-616945I-12076J-27914D01*
G01X-1672004Y-616945D01*
G03X-1684098Y-619453I0J-30414D01*
G03X-1681590Y-607359I-27906J12094D01*
G01X-1681590Y-529859D01*
G03X-1712004Y-499446I-30414J0D01*
G01X-1722004Y-499446D01*
G03X-1737004Y-503402I0J-30414D01*
G03X-1752004Y-499446I-15000J-26458D01*
G01X-1762004Y-499446D01*
G03X-1777004Y-503402I0J-30414D01*
G03X-1792004Y-499446I-15000J-26458D01*
G01X-1795895Y-499446D01*
G01X-1536723Y-240273D01*
G03X-1527083Y-217000I-23274J23274D01*
G01X-1527083Y164000D01*
G03X-1536723Y187273I-32914J0D01*
G01X-1580723Y231273D01*
G03X-1593587Y239224I-23274J-23274D01*
G03X-1618227Y258412I-24640J-6226D01*
G01X-1663227Y258412D01*
G03X-1685727Y244814I0J-25414D01*
G03X-1708227Y258412I-22500J-11816D01*
G01X-1743994Y258412D01*
G03X-1755667Y269992I-39080J-27723D01*
G03X-1742592Y292209I-12339J22218D01*
G01X-1742592Y360754D01*
G01X-1691868Y411478D01*
G01X-1628001Y411478D01*
G03X-1602587Y436892I0J25414D01*
G01X-1602587Y526892D01*
G03X-1628001Y552306I-25414J0D01*
G01X-1708001Y552306D01*
G03X-1733415Y526892I0J-25414D01*
G01X-1733415Y463025D01*
G01X-1742592Y453848D01*
G01X-1742592Y526892D01*
G03X-1768006Y552306I-25414J0D01*
G01X-1848006Y552306D01*
G03X-1873420Y526892I0J-25414D01*
G01X-1873420Y436892D01*
G03X-1848006Y411478I25414J0D01*
G01X-1784962Y411478D01*
G01X-1788817Y407623D01*
G01X-1848006Y407623D01*
G03X-1873420Y382209I0J-25414D01*
G01X-1873420Y292209D01*
G03X-1848006Y266795I25414J0D01*
G01X-1814572Y266795D01*
G03X-1782141Y182785I31498J-36106D01*
G01X-1782141Y132318D01*
G03X-1783910Y123000I23644J-9318D01*
G01X-1783910Y73000D01*
G03X-1758496Y47586I25414J0D01*
G01X-1713497Y47586D01*
G03X-1688083Y73000I0J25414D01*
G01X-1688083Y123000D01*
G03X-1713497Y148414I-25414J0D01*
G01X-1716313Y148414D01*
G01X-1716313Y157584D01*
G01X-1708227Y157584D01*
G03X-1685727Y171182I0J25414D01*
G03X-1663227Y157584I22500J11816D01*
G01X-1618227Y157584D01*
G03X-1604291Y161746I0J25414D01*
G01X-1592911Y150366D01*
G01X-1592911Y-203366D01*
G01X-1842529Y-452985D01*
G01X-1842529Y-430555D01*
G01X-1839843Y-430555D01*
G03X-1814429Y-405141I0J25414D01*
G01X-1814429Y-325141D01*
G03X-1839843Y-299727I-25414J0D01*
G01X-1896810Y-299727D01*
G01X-1931270Y-265267D01*
G03X-1966668Y-183983I-34373J33380D01*
G03X-1998557Y-266706I1025J-47903D01*
G01X-1998557Y-277441D01*
G03X-1988917Y-300715I32914J0D01*
G01X-1941457Y-348175D01*
G01X-1941457Y-405141D01*
G03X-1916043Y-430555I25414J0D01*
G01X-1913357Y-430555D01*
G01X-1913357Y-499446D01*
G01X-1922003Y-499446D01*
G03X-1937003Y-503402I0J-30414D01*
G03X-1952003Y-499446I-15000J-26458D01*
G01X-1962003Y-499446D01*
G03X-1977003Y-503402I0J-30414D01*
G03X-1992003Y-499446I-15000J-26458D01*
G01X-2002003Y-499446D01*
G03X-2017003Y-503402I0J-30414D01*
G03X-2032003Y-499446I-15000J-26458D01*
G01X-2042003Y-499446D01*
G03X-2057003Y-503402I0J-30414D01*
G03X-2072003Y-499446I-15000J-26458D01*
G01X-2082003Y-499446D01*
G03X-2097003Y-503402I0J-30414D01*
G03X-2112003Y-499446I-15000J-26458D01*
G01X-2122003Y-499446D01*
G03X-2137003Y-503402I0J-30414D01*
G03X-2152003Y-499446I-15000J-26458D01*
G01X-2162003Y-499446D01*
G03X-2177003Y-503402I0J-30414D01*
G03X-2192003Y-499446I-15000J-26458D01*
G01X-2200669Y-499446D01*
G01X-2200669Y-428015D01*
G01X-2197983Y-428015D01*
G03X-2172569Y-402601I0J25414D01*
G01X-2172569Y-367498D01*
G01X-2088584Y-283513D01*
G03X-2029902Y-246069I11628J46482D01*
G03X-2070537Y-189549I-47054J9037D01*
G01X-2083882Y-176204D01*
G01X-2083882Y78052D01*
G03X-2060096Y61588I23786J8950D01*
G01X-2021996Y61588D01*
G01X-1878355Y61588D01*
G01X-1840384Y61588D01*
G03X-1814970Y87002I0J25414D01*
G01X-1814970Y111351D01*
G03X-1814970Y142654I-63514J15651D01*
G01X-1814970Y167002D01*
G03X-1840384Y192416I-25414J0D01*
G01X-1878484Y192416D01*
G01X-2022125Y192416D01*
G01X-2060096Y192416D01*
G03X-2083882Y175952I0J-25414D01*
G01X-2083882Y376368D01*
G01X-1889072Y571178D01*
G03X-1877909Y598128I-26951J26951D01*
G01X-1877909Y701318D01*
G03X-1889072Y728269I-38114J0D01*
G01X-1920261Y759457D01*
G03X-1933037Y779720I-41863J-12236D01*
G03X-1918645Y808784I-29086J32499D01*
G01X-1888920Y808784D01*
G03X-1853107Y844253I0J35814D01*
G01X-1849213Y1248362D01*
G03X-1885026Y1284521I-35812J345D01*
G01X-2095623Y1284521D01*
G03X-2120947Y1274032I0J-35814D01*
G01X-2180437Y1214542D01*
G03X-2190927Y1189218I25324J-25324D01*
G01X-2190927Y1072460D01*
G03X-2212611Y1059294I10815J-42252D01*
G01X-2213923Y1060697D01*
G03X-2243874Y1140724I-35288J32411D01*
G03X-2290801Y1069315I-5338J-47616D01*
G03X-2342608Y1059294I-19307J-39108D01*
G03X-2418722Y1030207I-32499J-29086D01*
G01X-2418722Y1018543D01*
G03X-2425450Y994058I41186J-24485D01*
G03X-2418722Y969573I47914J0D01*
G01X-2418722Y957909D01*
G03X-2342608Y928823I43614J0D01*
G03X-2277609Y928823I32499J29086D01*
G03X-2212611Y928823I32499J29086D01*
G03X-2185757Y914661I32499J29086D01*
G03X-2180437Y907873I30644J18536D01*
G01X-2091838Y819274D01*
G03X-2078009Y810679I25324J25324D01*
G03X-2063508Y779720I43587J1540D01*
G03X-2063508Y714722I29086J-32499D01*
G03X-2063508Y649723I29086J-32499D01*
G03X-2034422Y573609I29086J-32499D01*
G01X-1994443Y573609D01*
G01X-2071499Y496554D01*
G01X-2071499Y536508D01*
G03X-2158727Y536508I-43614J0D01*
G01X-2158727Y464209D01*
G03X-2139799Y428254I43614J0D01*
G01X-2148946Y419106D01*
G03X-2160110Y392156I26951J-26951D01*
G01X-2160110Y-191991D01*
G03X-2148946Y-218942I38114J0D01*
G01X-2136563Y-231326D01*
G01X-2202425Y-297187D01*
G01X-2274183Y-297187D01*
G03X-2299597Y-322601I0J-25414D01*
G01X-2299597Y-402601D01*
G03X-2274183Y-428015I25414J0D01*
G01X-2271497Y-428015D01*
G01X-2271497Y-522438D01*
G03X-2272417Y-529859I29494J-7422D01*
G01X-2272417Y-607359D01*
G03X-2269909Y-619453I30414J0D01*
G03X-2282003Y-616945I-12094J-27906D01*
G01X-2347434Y-616945D01*
G03X-2356122Y-601534I-31961J-7862D01*
G01X-2589711Y-367945D01*
G01X-2589711Y-359072D01*
G03X-2615125Y-333658I-25414J0D01*
G01X-2623997Y-333658D01*
G01X-2650430Y-307225D01*
G03X-2673704Y-297585I-23274J-23274D01*
G01X-2694059Y-297585D01*
G01X-2707704Y-283940D01*
G03X-2762430Y-232005I-47699J4539D01*
G03X-2799732Y-297585I7027J-47396D01*
G01X-3469583Y-297585D01*
G03X-3492857Y-307225I0J-32914D01*
G01X-3604040Y-418408D01*
G01X-3663404Y-418408D01*
G01X-3933908Y-1073997D02*
G03X-3838079Y-1073997I47914J0D01*
G03X-3933908Y-1073997I-47914J0D01*
G01X-3091641Y-2336905D02*
G03X-2959614Y-2187657I56647J82910D01*
G03X-2922162Y-2172729I2632J47842D01*
G01X-2764900Y-2172729D01*
G03X-2741626Y-2163089I0J32914D01*
G01X-2680541Y-2102004D01*
G01X-2616674Y-2102004D01*
G03X-2591260Y-2076590I0J25414D01*
G01X-2591260Y-1986590D01*
G03X-2616674Y-1961176I-25414J0D01*
G01X-2696674Y-1961176D01*
G03X-2722088Y-1986590I0J-25414D01*
G01X-2722088Y-1997500D01*
G03X-2731265Y-2006815I29225J-37969D01*
G01X-2731265Y-1986590D01*
G03X-2756679Y-1961176I-25414J0D01*
G01X-2836679Y-1961176D01*
G03X-2862093Y-1986590I0J-25414D01*
G01X-2862093Y-1998676D01*
G01X-2963499Y-1998676D01*
G01X-3024632Y-1937543D01*
G03X-3047905Y-1927903I-23274J-23274D01*
G01X-3394271Y-1927903D01*
G01X-3604630Y-1717544D01*
G03X-3627904Y-1707903I-23274J-23274D01*
G01X-3714270Y-1707903D01*
G01X-3814992Y-1607182D01*
G03X-3768084Y-1593732I12088J46364D01*
G01X-3601538Y-1593732D01*
G01X-3298799Y-1896470D01*
G03X-3275526Y-1906110I23274J23274D01*
G01X-2862093Y-1906110D01*
G01X-2862093Y-1928683D01*
G03X-2836679Y-1954097I25414J0D01*
G01X-2756679Y-1954097D01*
G03X-2731265Y-1928683I0J25414D01*
G01X-2731265Y-1838683D01*
G03X-2756679Y-1813269I-25414J0D01*
G01X-2836679Y-1813269D01*
G03X-2862093Y-1838683I0J-25414D01*
G01X-2862093Y-1840282D01*
G01X-3261892Y-1840282D01*
G01X-3564631Y-1537544D01*
G03X-3587904Y-1527904I-23274J-23274D01*
G01X-3604792Y-1527904D01*
G03X-3651104Y-1467703I-46312J12286D01*
G03X-3697416Y-1527904I0J-47914D01*
G01X-3768084Y-1527904D01*
G03X-3829295Y-1520827I-34820J-32914D01*
G01X-3829295Y-1511513D01*
G03X-3830490Y-1502724I-32914J0D01*
G03X-3902096Y-1454460I-47414J6906D01*
G03X-3895123Y-1540531I24192J-41358D01*
G01X-3895123Y-1606512D01*
G03X-3885482Y-1629786I32914J0D01*
G01X-3751178Y-1764091D01*
G03X-3727904Y-1773731I23274J23274D01*
G01X-3641538Y-1773731D01*
G01X-3431178Y-1984090D01*
G03X-3407905Y-1993731I23274J23274D01*
G01X-3061539Y-1993731D01*
G01X-3000406Y-2054863D01*
G03X-2977132Y-2064504I23274J23274D01*
G01X-2862093Y-2064504D01*
G01X-2862093Y-2076590D01*
G03X-2836679Y-2102004I25414J0D01*
G01X-2773635Y-2102004D01*
G01X-2778533Y-2106901D01*
G01X-2922162Y-2106901D01*
G03X-2983724Y-2100058I-34820J-32914D01*
G03X-3000594Y-2159658I26742J-39757D01*
G03X-3091641Y-2336905I-34400J-94338D01*
G01X-3805141Y-883657D02*
G03X-3709313Y-883657I47914J0D01*
G03X-3805141Y-883657I-47914J0D01*
G01X-3804869Y-610272D02*
G03X-3709041Y-610272I47914J0D01*
G03X-3804869Y-610272I-47914J0D01*
G01X-3609373Y528879D02*
G03X-3581586Y447474I33880J-33880D01*
G01X-3485302Y351190D01*
G03X-3458493Y340085I26809J26809D01*
G01X-3280993Y340085D01*
G03X-3254184Y351190I0J37914D01*
G01X-3211088Y394286D01*
G03X-3199983Y421095I-26809J26809D01*
G01X-3199983Y427096D01*
G01X-3197892Y427096D01*
G03X-3172478Y452510I0J25414D01*
G01X-3172478Y517534D01*
G03X-3178097Y533472I-25414J0D01*
G03X-3172478Y549411I-19795J15939D01*
G01X-3172478Y654313D01*
G03X-3197892Y679727I-25414J0D01*
G01X-3277902Y679727D01*
G03X-3303316Y654313I0J-25414D01*
G01X-3303316Y549411D01*
G03X-3297697Y533472I25414J0D01*
G03X-3303316Y517534I19795J-15938D01*
G01X-3303316Y452510D01*
G03X-3284613Y427998I25414J0D01*
G01X-3296698Y415913D01*
G01X-3442788Y415913D01*
G01X-3527968Y501092D01*
G03X-3609373Y528879I-47525J-6093D01*
G01X-3582775Y192159D02*
G03X-3608189Y166745I0J-25414D01*
G01X-3608189Y-39254D01*
G03X-3582775Y-64668I25414J0D01*
G01X-3375775Y-64668D01*
G03X-3350361Y-39254I0J25414D01*
G01X-3350361Y166745D01*
G03X-3375775Y192159I-25414J0D01*
G01X-3429265Y192159D01*
G03X-3510446Y192159I-40591J-37724D01*
G01X-3582775Y192159D01*
G01X-3440974Y517534D02*
G01X-3440974Y452510D01*
G03X-3415560Y427096I25414J0D01*
G01X-3408073Y427096D01*
G03X-3343996Y427096I32039J45213D01*
G01X-3335550Y427096D01*
G03X-3310136Y452510I0J25414D01*
G01X-3310136Y517534D01*
G03X-3315755Y533472I-25414J0D01*
G03X-3310136Y549411I-19795J15939D01*
G01X-3310136Y654313D01*
G03X-3335550Y679727I-25414J0D01*
G01X-3415560Y679727D01*
G03X-3440974Y654313I0J-25414D01*
G01X-3440974Y549411D01*
G03X-3435354Y533472I25414J0D01*
G03X-3440974Y517534I19795J-15938D01*
G01X-3339407Y-2126996D02*
G03X-3138580Y-2126996I100414J0D01*
G03X-3339407Y-2126996I-100414J0D01*
G01X-3278767Y841626D02*
G03X-3304181Y816212I0J-25414D01*
G01X-3304181Y736212D01*
G03X-3278767Y710798I25414J0D01*
G01X-3202567Y710798D01*
G03X-3177153Y736212I0J25414D01*
G01X-3177153Y816212D01*
G03X-3202567Y841626I-25414J0D01*
G01X-3278767Y841626D01*
G01X-2938036Y448958D02*
G03X-2912994Y438585I25041J25041D01*
G01X-2809459Y438585D01*
G03X-2728244Y471550I33323J34429D01*
G03X-2807295Y509413I-47892J1464D01*
G01X-2898325Y509413D01*
G01X-3003893Y614981D01*
G03X-3028934Y625353I-25041J-25041D01*
G01X-3033474Y625353D01*
G01X-3033474Y646942D01*
G03X-3058888Y672356I-25414J0D01*
G01X-3135088Y672356D01*
G03X-3160502Y646942I0J-25414D01*
G01X-3160502Y566942D01*
G03X-3135088Y541528I25414J0D01*
G01X-3058888Y541528D01*
G03X-3039541Y550463I0J25414D01*
G01X-2938036Y448958D01*
G01X-3134547Y844660D02*
G03X-3159961Y819246I0J-25414D01*
G01X-3159961Y739246D01*
G03X-3134547Y713832I25414J0D01*
G01X-3058347Y713832D01*
G03X-3032933Y739246I0J25414D01*
G01X-3032933Y819246D01*
G03X-3058347Y844660I-25414J0D01*
G01X-3134547Y844660D01*
G01X-3157908Y1306997D02*
G03X-3062080Y1306997I47914J0D01*
G03X-3157908Y1306997I-47914J0D01*
G01X-2945525Y658579D02*
G03X-2849697Y658579I47914J0D01*
G03X-2945525Y658579I-47914J0D01*
G01X-2637030Y777383D02*
G01X-2709238Y777383D01*
G03X-2734652Y751969I0J-25414D01*
G01X-2734652Y665568D01*
G03X-2709238Y640154I25414J0D01*
G01X-2628591Y640154D01*
G03X-2604323Y658021I0J25414D01*
G03X-2543028Y706233I13433J45993D01*
G03X-2528122Y703607I14906J40988D01*
G01X-2514939Y703607D01*
G03X-2475275Y703607I19832J43617D01*
G01X-2455823Y703607D01*
G03X-2426737Y779720I0J43614D01*
G03X-2426737Y844719I-29086J32499D01*
G03X-2455823Y920833I-29086J32499D01*
G01X-2472135Y920833D01*
G03X-2511811Y920833I-19838J-43614D01*
G01X-2528122Y920833D01*
G03X-2556442Y910387I0J-43614D01*
G01X-2556442Y966208D01*
G03X-2581856Y991622I-25414J0D01*
G01X-2686856Y991622D01*
G03X-2712270Y966208I0J-25414D01*
G01X-2712270Y806208D01*
G03X-2686856Y780794I25414J0D01*
G01X-2633619Y780794D01*
G01X-2637030Y777383D01*
G01X-2540874Y192416D02*
G03X-2566288Y167002I0J-25414D01*
G01X-2566288Y159916D01*
G01X-2583481Y159916D01*
G01X-2583481Y167002D01*
G03X-2608895Y192416I-25414J0D01*
G01X-2626920Y192416D01*
G03X-2675099Y192416I-24090J-41418D01*
G01X-2685095Y192416D01*
G03X-2710509Y167002I0J-25414D01*
G01X-2710509Y87002D01*
G03X-2685095Y61588I25414J0D01*
G01X-2608895Y61588D01*
G03X-2583481Y87002I0J25414D01*
G01X-2583481Y94088D01*
G01X-2566288Y94088D01*
G01X-2566288Y87002D01*
G03X-2540874Y61588I25414J0D01*
G01X-2464674Y61588D01*
G03X-2439260Y87002I0J25414D01*
G01X-2439260Y131408D01*
G03X-2428736Y169141I-36858J30614D01*
G03X-2449884Y202116I-47382J-7119D01*
G03X-2476119Y290123I-26235J40093D01*
G03X-2502353Y202115I0J-47914D01*
G03X-2513158Y192416I26235J-40093D01*
G01X-2540874Y192416D01*
G01X-2332710Y1266207D02*
G03X-2358124Y1291621I-25414J0D01*
G01X-2478124Y1291621D01*
G03X-2503538Y1266207I0J-25414D01*
G01X-2503538Y1126208D01*
G03X-2478124Y1100794I25414J0D01*
G01X-2358124Y1100794D01*
G03X-2332710Y1126208I0J25414D01*
G01X-2332710Y1166268D01*
G03X-2322709Y1196408I-40413J30139D01*
G03X-2332710Y1226547I-50414J0D01*
G01X-2332710Y1266207D01*
G01X-2452879Y371961D02*
G03X-2375609Y420598I30884J36633D01*
G03X-2342608Y435123I502J43611D01*
G03X-2266494Y464209I32499J29086D01*
G01X-2266494Y536508D01*
G03X-2342608Y565594I-43614J0D01*
G03X-2418722Y536508I-32499J-29086D01*
G01X-2418722Y464209D01*
G03X-2418006Y456341I43614J0D01*
G03X-2452879Y371961I-3989J-47748D01*
G01X-2343393Y-2240076D02*
G03X-2317979Y-2214662I0J25414D01*
G01X-2317979Y-2134662D01*
G03X-2343393Y-2109248I-25414J0D01*
G01X-2433392Y-2109248D01*
G03X-2458806Y-2134662I0J-25414D01*
G01X-2458806Y-2214662D01*
G03X-2433392Y-2240076I25414J0D01*
G01X-2343393Y-2240076D01*
G01X-2308806Y-1994657D02*
G01X-2308806Y-2074657D01*
G03X-2283392Y-2100071I25414J0D01*
G01X-2193393Y-2100071D01*
G03X-2167979Y-2074657I0J25414D01*
G01X-2167979Y-1994657D01*
G03X-2193393Y-1969243I-25414J0D01*
G01X-2217933Y-1969243D01*
G01X-2295012Y-1892165D01*
G03X-2376787Y-1856937I-47895J1348D01*
G03X-2341559Y-1938712I33880J-33880D01*
G01X-2302439Y-1977832D01*
G03X-2308806Y-1994657I19047J-16825D01*
G01X-2193393Y-2240076D02*
G03X-2167979Y-2214662I0J25414D01*
G01X-2167979Y-2134662D01*
G03X-2193393Y-2109248I-25414J0D01*
G01X-2283392Y-2109248D01*
G03X-2308806Y-2134662I0J-25414D01*
G01X-2308806Y-2214662D01*
G03X-2283392Y-2240076I25414J0D01*
G01X-2193393Y-2240076D01*
G01X-2037356Y-2109975D02*
G03X-2043393Y-2109248I-6037J-24687D01*
G01X-2133392Y-2109248D01*
G03X-2158806Y-2134662I0J-25414D01*
G01X-2158806Y-2214662D01*
G03X-2133392Y-2240076I25414J0D01*
G01X-2043393Y-2240076D01*
G03X-2017979Y-2214662I0J25414D01*
G01X-2017979Y-2183693D01*
G01X-2008806Y-2174521D01*
G01X-2008806Y-2214662D01*
G03X-1983392Y-2240076I25414J0D01*
G01X-1893392Y-2240076D01*
G03X-1867978Y-2214662I0J25414D01*
G01X-1867978Y-2207576D01*
G01X-1797458Y-2207576D01*
G03X-1774184Y-2197936I0J32914D01*
G01X-1704741Y-2128491D01*
G03X-1669513Y-2046716I1348J47895D01*
G03X-1751288Y-2081944I-33880J-33880D01*
G01X-1811092Y-2141748D01*
G01X-1856688Y-2141748D01*
G03X-1847419Y-2135236I-14004J29786D01*
G01X-1799741Y-2087557D01*
G03X-1764513Y-2005782I1348J47895D01*
G03X-1846288Y-2041010I-33880J-33880D01*
G01X-1867978Y-2062700D01*
G01X-1867978Y-1994657D01*
G03X-1893392Y-1969243I-25414J0D01*
G01X-1983392Y-1969243D01*
G03X-2008806Y-1994657I0J-25414D01*
G01X-2008806Y-2074657D01*
G03X-2007552Y-2082542I25414J0D01*
G03X-2016068Y-2088688I14757J-29420D01*
G01X-2037356Y-2109975D01*
G01X-1898522Y1345297D02*
G03X-1802694Y1345297I47914J0D01*
G03X-1898522Y1345297I-47914J0D01*
G01X-1451210Y649723D02*
G03X-1422124Y573609I29086J-32499D01*
G01X-1349826Y573609D01*
G03X-1320739Y649723I0J43614D01*
G03X-1320739Y714722I-29086J32499D01*
G03X-1320739Y779720I-29086J32499D01*
G03X-1320739Y844719I-29086J32499D01*
G03X-1349826Y920833I-29086J32499D01*
G01X-1422124Y920833D01*
G03X-1431772Y919752I0J-43614D01*
G01X-1472710Y919752D01*
G01X-1472710Y966208D01*
G03X-1498124Y991622I-25414J0D01*
G01X-1603124Y991622D01*
G03X-1628538Y966208I0J-25414D01*
G01X-1628538Y914753D01*
G03X-1630035Y902868I46417J-11885D01*
G03X-1628538Y890983I47914J0D01*
G01X-1628538Y806208D01*
G03X-1603124Y780794I25414J0D01*
G01X-1530284Y780794D01*
G01X-1535487Y775592D01*
G03X-1544859Y777383I-9372J-23623D01*
G01X-1625507Y777383D01*
G03X-1650920Y751969I0J-25414D01*
G01X-1650920Y665568D01*
G03X-1625507Y640154I25414J0D01*
G01X-1544859Y640154D01*
G03X-1519445Y665568I0J25414D01*
G01X-1519445Y673892D01*
G03X-1491621Y652033I41420J24086D01*
G03X-1456382Y655230I13596J45945D01*
G03X-1451210Y649723I34258J26993D01*
G01X-1574911Y-2129996D02*
G03X-1479083Y-2129996I47914J0D01*
G03X-1574911Y-2129996I-47914J0D01*
G01X-940632Y389913D02*
G01X-1161998Y389913D01*
G03X-1185271Y380273I0J-32914D01*
G01X-1315631Y249914D01*
G01X-1424177Y249914D01*
G03X-1506911Y217000I-34820J-32914D01*
G03X-1424177Y184086I47914J0D01*
G01X-1301997Y184086D01*
G03X-1278724Y193726I0J32914D01*
G01X-1148364Y324085D01*
G01X-926998Y324085D01*
G03X-903724Y333726I0J32914D01*
G01X-771725Y465725D01*
G03X-762084Y488999I-23274J23274D01*
G01X-762084Y704999D01*
G03X-771725Y728272I-32914J0D01*
G01X-813947Y770495D01*
G03X-825015Y777788I-23274J-23274D01*
G03X-827040Y779720I-31110J-30567D01*
G03X-821428Y785794I-29086J32499D01*
G01X-513126Y785794D01*
G03X-491620Y837714I0J30414D01*
G01X-517712Y863806D01*
G01X-517712Y1076208D01*
G03X-568904Y1098418I-30414J0D01*
G01X-1034938Y1098418D01*
G03X-1064963Y1072851I0J-30414D01*
G03X-1106613Y1059294I-9151J-42644D01*
G03X-1171612Y1059294I-32499J-29086D01*
G03X-1236610Y1059294I-32499J-29086D01*
G03X-1244361Y1066120I-32499J-29086D01*
G03X-1322967Y1073984I-42421J-27240D01*
G03X-1312724Y995653I36184J-35104D01*
G01X-1312724Y957909D01*
G03X-1236610Y928823I43614J0D01*
G03X-1171612Y928823I32499J29086D01*
G03X-1106613Y928823I32499J29086D01*
G03X-1050909Y920980I32499J29086D01*
G01X-965353Y835424D01*
G03X-957511Y779720I36929J-23205D01*
G03X-957511Y714722I29086J-32499D01*
G03X-957511Y649723I29086J-32499D01*
G03X-928424Y573609I29086J-32499D01*
G01X-856126Y573609D01*
G03X-827912Y583964I0J43614D01*
G01X-827912Y502632D01*
G01X-940632Y389913D01*
G01X-1398540Y1126208D02*
G03X-1373126Y1100794I25414J0D01*
G01X-1253126Y1100794D01*
G03X-1227712Y1126208I0J25414D01*
G01X-1227712Y1266207D01*
G03X-1253126Y1291621I-25414J0D01*
G01X-1373126Y1291621D01*
G03X-1398540Y1266207I0J-25414D01*
G01X-1398540Y1126208D01*
G01X-1316984Y-541005D02*
G03X-1352388Y-614436I9022J-49600D01*
G03X-1271630Y-625556I44426J23831D01*
G01X-1267221Y-625556D01*
G03X-1235918Y-625556I15651J63514D01*
G01X-1211570Y-625556D01*
G03X-1186156Y-600142I0J25414D01*
G01X-1186156Y-562042D01*
G01X-1186156Y-413874D01*
G01X-1186156Y-375903D01*
G03X-1211570Y-350489I-25414J0D01*
G01X-1235918Y-350489D01*
G03X-1267221Y-350489I-15651J-63514D01*
G01X-1291570Y-350489D01*
G03X-1316984Y-375903I0J-25414D01*
G01X-1316984Y-414003D01*
G01X-1316984Y-541005D01*
G01X-1095498Y464209D02*
G01X-1095498Y536508D01*
G03X-1171612Y565594I-43614J0D01*
G03X-1247725Y536508I-32499J-29086D01*
G01X-1247725Y464209D01*
G03X-1171612Y435123I43614J0D01*
G03X-1095498Y464209I32499J29086D01*
G01X-568124Y185478D02*
G01X-488124Y185478D01*
G03X-462710Y210892I0J25414D01*
G01X-462710Y222978D01*
G01X-456435Y222978D01*
G03X-433161Y232619I0J32914D01*
G01X-397575Y268205D01*
G03X-362347Y349980I1348J47895D01*
G03X-444122Y314752I-33880J-33880D01*
G01X-462710Y296165D01*
G01X-462710Y300892D01*
G03X-488124Y326306I-25414J0D01*
G01X-542072Y326306D01*
G01X-602715Y386949D01*
G01X-602715Y450815D01*
G03X-628129Y476229I-25414J0D01*
G01X-708128Y476229D01*
G03X-733542Y450815I0J-25414D01*
G01X-733542Y360815D01*
G03X-708128Y335401I25414J0D01*
G01X-644262Y335401D01*
G01X-635167Y326306D01*
G01X-708128Y326306D01*
G03X-733542Y300892I0J-25414D01*
G01X-733542Y210892D01*
G03X-708128Y185478I25414J0D01*
G01X-660839Y185478D01*
G03X-663562Y180214I41116J-24601D01*
G01X-707298Y180214D01*
G03X-732712Y154800I0J-25414D01*
G01X-732712Y78600D01*
G03X-707298Y53186I25414J0D01*
G01X-658083Y53186D01*
G01X-592707Y-12190D01*
G01X-592707Y-65621D01*
G03X-567294Y-91035I25414J0D01*
G01X-562708Y-91035D01*
G01X-562708Y-112707D01*
G03X-552335Y-137748I35414J0D01*
G01X-467863Y-222220D01*
G03X-386120Y-253880I47863J2220D01*
G03X-417780Y-172137I-33880J33880D01*
G01X-491880Y-98038D01*
G01X-491880Y-91035D01*
G01X-487294Y-91035D01*
G03X-461880Y-65621I0J25414D01*
G01X-461880Y10579D01*
G03X-487294Y35993I-25414J0D01*
G01X-540725Y35993D01*
G01X-601884Y97153D01*
G01X-601884Y116408D01*
G03X-580856Y188898I-17838J44470D01*
G03X-568124Y185478I12733J21994D01*
G01X-733326Y514178D02*
G03X-707912Y488764I25414J0D01*
G01X-627913Y488764D01*
G03X-602499Y514178I0J25414D01*
G01X-602499Y604178D01*
G03X-627913Y629592I-25414J0D01*
G01X-707912Y629592D01*
G03X-733326Y604178I0J-25414D01*
G01X-733326Y514178D01*
G01X-593322Y514178D02*
G03X-567908Y488764I25414J0D01*
G01X-487908Y488764D01*
G03X-462494Y514178I0J25414D01*
G01X-462494Y604178D01*
G03X-487908Y629592I-25414J0D01*
G01X-567908Y629592D01*
G03X-593322Y604178I0J-25414D01*
G01X-593322Y514178D01*
G01X-503035Y-1384997D02*
G03X-407207Y-1384997I47914J0D01*
G03X-503035Y-1384997I-47914J0D01*
G01X-498735Y-1262997D02*
G03X-402907Y-1262997I47914J0D01*
G03X-498735Y-1262997I-47914J0D01*
G01X-357913Y-1577997D02*
G03X-262085Y-1577997I47914J0D01*
G03X-357913Y-1577997I-47914J0D01*
G01X-336335Y-1322997D02*
G03X-240507Y-1322997I47914J0D01*
G03X-336335Y-1322997I-47914J0D01*
G01X-244878Y-1193962D02*
G03X-149049Y-1193962I47914J0D01*
G03X-244878Y-1193962I-47914J0D01*
G01X-168035Y-1389997D02*
G03X-72207Y-1389997I47914J0D01*
G03X-168035Y-1389997I-47914J0D01*
G01X-146913Y-1489370D02*
G03X-51085Y-1489370I47914J0D01*
G03X-146913Y-1489370I-47914J0D01*
G01X-3455950Y-363413D02*
G01X-2860543Y-363413D01*
G01X-2860543Y-447906D01*
G01X-3007246Y-447906D01*
G01X-3074353Y-380799D01*
G03X-3097627Y-371158I-23274J-23274D01*
G01X-3407836Y-371158D01*
G03X-3431110Y-380799I0J-32914D01*
G01X-3469657Y-419346D01*
G03X-3476405Y-418434I-6747J-24502D01*
G01X-3510971Y-418434D01*
G01X-3455950Y-363413D01*
G01X-3499271Y-1357904D02*
G01X-3507945Y-1349229D01*
G01X-3476405Y-1349229D01*
G03X-3450991Y-1323815I0J25414D01*
G01X-3450991Y-1213773D01*
G01X-3433753Y-1196535D01*
G03X-3434818Y-1203816I24349J-7280D01*
G01X-3434818Y-1323815D01*
G03X-3409404Y-1349229I25414J0D01*
G01X-3349405Y-1349229D01*
G03X-3323991Y-1323815I0J25414D01*
G01X-3323991Y-1259846D01*
G01X-3307818Y-1243674D01*
G01X-3307818Y-1323815D01*
G03X-3282404Y-1349229I25414J0D01*
G01X-3222405Y-1349229D01*
G03X-3196991Y-1323815I0J25414D01*
G01X-3196991Y-1234985D01*
G01X-3175419Y-1213413D01*
G01X-3002446Y-1213413D01*
G03X-2930435Y-1210707I34820J32914D01*
G03X-2942551Y-1139671I-37192J30208D01*
G01X-2933884Y-1139671D01*
G03X-2923637Y-1138035I0J32914D01*
G03X-2873378Y-1108878I6010J47536D01*
G03X-2867756Y-1109362I5622J32430D01*
G01X-2862093Y-1109362D01*
G01X-2862093Y-1189148D01*
G03X-2836679Y-1214562I25414J0D01*
G01X-2808788Y-1214562D01*
G01X-2801709Y-1221641D01*
G01X-2836679Y-1221641D01*
G03X-2862093Y-1247055I0J-25414D01*
G01X-2862093Y-1337055D01*
G03X-2836679Y-1362469I25414J0D01*
G01X-2756679Y-1362469D01*
G03X-2731265Y-1337055I0J25414D01*
G01X-2731265Y-1261717D01*
G03X-2722088Y-1259816I-5084J47644D01*
G01X-2722088Y-1337055D01*
G03X-2696674Y-1362469I25414J0D01*
G01X-2616674Y-1362469D01*
G03X-2591260Y-1337055I0J25414D01*
G01X-2591260Y-1261342D01*
G01X-2417690Y-1087773D01*
G01X-2414321Y-1087773D01*
G01X-2480108Y-1153560D01*
G03X-2489748Y-1176834I23274J-23274D01*
G01X-2489748Y-1244986D01*
G03X-2563606Y-1253780I-33357J-34396D01*
G03X-2539867Y-1324268I40500J-25602D01*
G01X-2599101Y-1383503D01*
G03X-2616674Y-1376448I-17573J-18359D01*
G01X-2696674Y-1376448D01*
G03X-2722088Y-1401862I0J-25414D01*
G01X-2722088Y-1478062D01*
G03X-2696674Y-1503476I25414J0D01*
G01X-2616674Y-1503476D01*
G03X-2591260Y-1478062I0J25414D01*
G01X-2591260Y-1468204D01*
G03X-2587407Y-1464903I-19420J26574D01*
G01X-2442715Y-1320212D01*
G01X-2442715Y-1406043D01*
G01X-2591260Y-1554588D01*
G01X-2591260Y-1549769D01*
G03X-2616674Y-1524355I-25414J0D01*
G01X-2696674Y-1524355D01*
G03X-2722088Y-1549769I0J-25414D01*
G01X-2722088Y-1625969D01*
G03X-2718629Y-1638769I25414J0D01*
G03X-2740128Y-1671491I25801J-40374D01*
G03X-2756679Y-1665362I-16551J-19285D01*
G01X-2836679Y-1665362D01*
G03X-2862093Y-1690776I0J-25414D01*
G01X-2862093Y-1702862D01*
G01X-2910630Y-1702862D01*
G01X-2955407Y-1658085D01*
G01X-2955407Y-1615402D01*
G03X-2965047Y-1592128I-32914J0D01*
G01X-3189631Y-1367544D01*
G03X-3212905Y-1357904I-23274J-23274D01*
G01X-3499271Y-1357904D01*
G01X-3346685Y-1109467D02*
G01X-3266684Y-1109445D01*
G01X-3338229Y-1180991D01*
G03X-3349405Y-1178402I-11175J-22825D01*
G01X-3409404Y-1178402D01*
G03X-3416685Y-1179467I0J-25414D01*
G01X-3346685Y-1109467D01*
G01X-3111260Y-436986D02*
G01X-3044153Y-504093D01*
G03X-3020879Y-513734I23274J23274D01*
G01X-2860543Y-513734D01*
G01X-2860543Y-531124D01*
G03X-2880306Y-562062I27417J-39295D01*
G03X-2872373Y-597905I47180J-8357D01*
G01X-3281530Y-597905D01*
G01X-3323991Y-555445D01*
G01X-3323991Y-443848D01*
G03X-3324934Y-436986I-25414J0D01*
G01X-3111260Y-436986D01*
G01X-2492733Y-699445D02*
G01X-2584632Y-607546D01*
G03X-2590419Y-602935I-23274J-23274D01*
G03X-2589711Y-596979I-24706J5956D01*
G01X-2589711Y-524962D01*
G01X-2415228Y-699445D01*
G01X-2492733Y-699445D01*
G01X-1946376Y-689961D02*
G03X-1961299Y-637773I-45427J15238D01*
G01X-1952003Y-637773D01*
G03X-1937003Y-633817I0J30414D01*
G03X-1922003Y-637773I15000J26458D01*
G01X-1912003Y-637773D01*
G03X-1897003Y-633817I0J30414D01*
G03X-1882003Y-637773I15000J26458D01*
G01X-1872003Y-637773D01*
G03X-1857003Y-633817I0J30414D01*
G03X-1842003Y-637773I15000J26458D01*
G01X-1832003Y-637773D01*
G03X-1824855Y-636921I0J30414D01*
G01X-1824855Y-664031D01*
G01X-1827588Y-666764D01*
G03X-1876513Y-720330I-1348J-47895D01*
G03X-1816367Y-760895I47577J5671D01*
G03X-1777216Y-795642I46216J12644D01*
G03X-1729633Y-773826I7065J47390D01*
G03X-1702307Y-779949I23682J41652D01*
G03X-1672004Y-807773I30304J2590D01*
G01X-1594504Y-807773D01*
G03X-1589836Y-807413I0J30414D01*
G03X-1556118Y-818222I30451J36993D01*
G01X-1557342Y-819445D01*
G01X-1582428Y-819445D01*
G03X-1594504Y-816945I-12076J-27914D01*
G01X-1672004Y-816945D01*
G03X-1702418Y-847359I0J-30414D01*
G01X-1702418Y-857359D01*
G03X-1698461Y-872359I30414J0D01*
G03X-1702418Y-887359I26458J-15000D01*
G01X-1702418Y-897359D01*
G03X-1698461Y-912359I30414J0D01*
G03X-1702399Y-926288I26458J-15000D01*
G03X-1771223Y-969388I-20910J-43111D01*
G03X-1702418Y-1012519I47914J-10D01*
G01X-1702418Y-1017359D01*
G03X-1698461Y-1032359I30414J0D01*
G03X-1702418Y-1047359I26458J-15000D01*
G01X-1702418Y-1057359D01*
G03X-1698461Y-1072359I30414J0D01*
G03X-1702418Y-1087359I26458J-15000D01*
G01X-1702418Y-1097358D01*
G03X-1698461Y-1112358I30414J0D01*
G03X-1702418Y-1127358I26458J-15000D01*
G01X-1702418Y-1137358D01*
G03X-1698461Y-1152358I30414J0D01*
G03X-1702418Y-1167358I26458J-15000D01*
G01X-1702418Y-1177358D01*
G03X-1699910Y-1189452I30414J0D01*
G03X-1712004Y-1186944I-12094J-27906D01*
G01X-1722004Y-1186944D01*
G03X-1737004Y-1190901I0J-30414D01*
G03X-1752004Y-1186944I-15000J-26458D01*
G01X-1762004Y-1186944D01*
G03X-1774161Y-1189480I0J-30414D01*
G01X-1813961Y-1149679D01*
G03X-1837235Y-1140039I-23274J-23274D01*
G01X-1864865Y-1140039D01*
G03X-1941531Y-1154657I-33125J-34619D01*
G03X-1984472Y-1125102I-44265J-18340D01*
G03X-2040621Y-1071866I-47524J6104D01*
G03X-2074278Y-1141537I8625J-47131D01*
G01X-2077178Y-1144437D01*
G03X-2155512Y-1137931I-41435J-24060D01*
G03X-2226187Y-1112241I-45484J-15066D01*
G03X-2234810Y-1186944I25191J-40757D01*
G01X-2242003Y-1186944D01*
G03X-2254097Y-1189452I0J-30414D01*
G03X-2251589Y-1177358I-27906J12094D01*
G01X-2251589Y-1167358D01*
G03X-2255545Y-1152358I-30414J0D01*
G03X-2251589Y-1137358I-26458J15000D01*
G01X-2251589Y-1127358D01*
G03X-2254124Y-1115201I-30414J0D01*
G01X-2214759Y-1075837D01*
G03X-2186146Y-1010704I-15084J45478D01*
G03X-2253864Y-988901I-43697J-19655D01*
G03X-2251589Y-977359I-28139J11542D01*
G01X-2251589Y-967359D01*
G03X-2253076Y-957963I-30414J0D01*
G03X-2183287Y-927386I23233J41904D01*
G03X-2231228Y-868165I-46556J11327D01*
G03X-2243508Y-861012I-22315J-24194D01*
G03X-2207907Y-829922I-9615J46939D01*
G03X-2216307Y-783409I-45217J15850D01*
G03X-2191527Y-753563I-21320J42910D01*
G03X-2196965Y-715154I-46099J13063D01*
G03X-2167914Y-688733I-14882J45544D01*
G01X-2142044Y-688733D01*
G03X-2127591Y-741622I45133J-16086D01*
G03X-2072965Y-746321I30681J36803D01*
G03X-2023865Y-760736I35962J31662D01*
G03X-1989750Y-722593I-13138J46078D01*
G03X-1946376Y-689961I-2052J47870D01*
G01X-2126097Y1030207D02*
G03X-2144953Y1071213I-54014J0D01*
G01X-2144953Y1090394D01*
G01X-2088122Y1090394D01*
G03X-2052308Y1126208I0J35814D01*
G01X-2052308Y1238547D01*
G01X-1957436Y1238547D01*
G03X-1895726Y1192674I57013J12251D01*
G01X-1896154Y1148228D01*
G03X-1940505Y1092172I13960J-56618D01*
G03X-1897243Y1035271I58311J-562D01*
G01X-1897563Y1002022D01*
G01X-1898123Y1002022D01*
G03X-1933937Y966208I0J-35814D01*
G01X-1933937Y858297D01*
G03X-1962124Y866234I-28186J-46077D01*
G01X-2034422Y866234D01*
G03X-2051796Y863364I0J-54014D01*
G01X-2051796Y886689D01*
G03X-1984842Y975644I19602J54921D01*
G03X-2090498Y940535I-47352J-34034D01*
G01X-2128967Y940535D01*
G03X-2126097Y957909I-51144J17374D01*
G01X-2126097Y1030207D01*
G01X-1494694Y-1293658D02*
G01X-1494694Y-1140148D01*
G03X-1481161Y-1116786I-33014J34725D01*
G01X-1458538Y-1139408D01*
G01X-1458538Y-1192839D01*
G03X-1433124Y-1218253I25414J0D01*
G01X-1353124Y-1218253D01*
G03X-1327710Y-1192839I0J25414D01*
G01X-1327710Y-1116639D01*
G03X-1353124Y-1091225I-25414J0D01*
G01X-1406555Y-1091225D01*
G01X-1427566Y-1070214D01*
G01X-1353124Y-1070214D01*
G03X-1327710Y-1044800I0J25414D01*
G01X-1327710Y-968600D01*
G03X-1353124Y-943186I-25414J0D01*
G01X-1384066Y-943186D01*
G03X-1414769Y-930134I-32924J-34811D01*
G01X-1416369Y-928534D01*
G01X-1353126Y-928534D01*
G03X-1327712Y-903120I0J25414D01*
G01X-1327712Y-813120D01*
G03X-1353126Y-787706I-25414J0D01*
G01X-1432508Y-787706D01*
G01X-1418938Y-774136D01*
G01X-1353255Y-774136D01*
G01X-1325795Y-801596D01*
G03X-1317889Y-807428I23274J23274D01*
G03X-1318535Y-813120I24768J-5692D01*
G01X-1318535Y-903120D01*
G03X-1293121Y-928534I25414J0D01*
G01X-1213121Y-928534D01*
G03X-1187707Y-903120I0J25414D01*
G01X-1187707Y-901036D01*
G01X-1060540Y-1028204D01*
G01X-1060540Y-1064706D01*
G03X-1050899Y-1087979I32914J0D01*
G01X-997299Y-1141580D01*
G03X-1020999Y-1179182I24060J-41435D01*
G03X-1003599Y-1220083I47761J-3833D01*
G01X-1013121Y-1220083D01*
G03X-1036395Y-1229724I0J-32914D01*
G01X-1067998Y-1261326D01*
G01X-1187927Y-1261326D01*
G03X-1213119Y-1239265I-25192J-3353D01*
G01X-1293119Y-1239265D01*
G03X-1318533Y-1264679I0J-25414D01*
G01X-1318533Y-1340879D01*
G03X-1293119Y-1366293I25414J0D01*
G01X-1213119Y-1366293D01*
G03X-1187705Y-1340879I0J25414D01*
G01X-1187705Y-1327154D01*
G01X-1054364Y-1327154D01*
G03X-1031090Y-1317514I0J32914D01*
G01X-999488Y-1285911D01*
G01X-932829Y-1285911D01*
G01X-932829Y-1303259D01*
G03X-955317Y-1390324I4790J-47674D01*
G03X-881727Y-1338646I27278J39391D01*
G01X-824089Y-1338646D01*
G03X-826679Y-1351209I29174J-12563D01*
G01X-826679Y-1362661D01*
G01X-942338Y-1478320D01*
G03X-951641Y-1500780I22461J-22461D01*
G01X-951641Y-1548242D01*
G01X-976184Y-1548242D01*
G03X-1001598Y-1573656I0J-25414D01*
G01X-1001598Y-1635918D01*
G03X-1010770Y-1637190I1967J-47874D01*
G01X-1010770Y-1573656D01*
G03X-1036184Y-1548242I-25414J0D01*
G01X-1125081Y-1548242D01*
G03X-1129635Y-1542544I-27828J-17576D01*
G01X-1159635Y-1512544D01*
G03X-1182909Y-1502904I-23274J-23274D01*
G01X-1183500Y-1502904D01*
G03X-1182492Y-1495818I-24406J7086D01*
G01X-1182492Y-1405818D01*
G03X-1207906Y-1380404I-25414J0D01*
G01X-1287906Y-1380404D01*
G03X-1313320Y-1405818I0J-25414D01*
G01X-1313320Y-1495818D01*
G03X-1312312Y-1502904I25414J0D01*
G01X-1323505Y-1502904D01*
G03X-1322497Y-1495818I-24406J7086D01*
G01X-1322497Y-1405818D01*
G03X-1347911Y-1380404I-25414J0D01*
G01X-1407948Y-1380404D01*
G01X-1494694Y-1293658D01*
G01X-981612Y935135D02*
G01X-1007684Y935135D01*
G01X-1024778Y952229D01*
G01X-1024778Y1057844D01*
G01X-980903Y1057844D01*
G03X-883480Y1057844I48711J20666D01*
G01X-872934Y1057844D01*
G03X-791454Y1057844I40740J33766D01*
G01X-572935Y1057844D01*
G03X-558286Y1045576I40740J33766D01*
G01X-558286Y987644D01*
G03X-585108Y941610I26092J-46034D01*
G03X-558286Y895576I52914J0D01*
G01X-558286Y851208D01*
G03X-555310Y844024I10160J0D01*
G01X-551974Y840688D01*
G03X-572091Y826368I19780J-49078D01*
G01X-723188Y826368D01*
G03X-732191Y931425I-9004J52142D01*
G03X-741195Y826368I0J-52914D01*
G01X-809616Y826368D01*
G03X-856126Y860834I-46510J-14149D01*
G01X-928424Y860834D01*
G03X-933152Y860603I0J-48614D01*
G01X-951198Y878649D01*
G01X-951198Y904721D01*
G03X-981612Y935135I-30414J0D01*
G01X-603218Y205859D02*
G03X-602715Y210892I-24911J5033D01*
G01X-602715Y293854D01*
G01X-593538Y284677D01*
G01X-593538Y210892D01*
G03X-590504Y198851I25414J0D01*
G03X-603218Y205859I-29219J-37974D01*
G04 Copper End*

G04 Pad Start*
G54D11*
G01X-3238994Y-2126996D03*
G01X-3034994Y-2253995D03*
G54D12*
G01X-243463Y-2249659D03*
G01X-3723463Y-2249659D03*
G01X-243463Y1230341D03*
G01X-3723463Y1230341D03*
G54D13*
G01X-2237003Y-568609D03*
G01X-2197003Y-568609D03*
G01X-2157003Y-568609D03*
G01X-2117003Y-568609D03*
G01X-2077003Y-568609D03*
G01X-2037003Y-568609D03*
G01X-1997003Y-568609D03*
G01X-1957003Y-568609D03*
G01X-1917003Y-568609D03*
G01X-1877003Y-568609D03*
G01X-1837003Y-568609D03*
G01X-1797004Y-568609D03*
G01X-1757004Y-568609D03*
G01X-1717004Y-568609D03*
G54D14*
G01X-1633254Y-652359D03*
G01X-1633254Y-692359D03*
G01X-1633254Y-732359D03*
G01X-1633254Y-772359D03*
G01X-1633254Y-812359D03*
G01X-1633254Y-852359D03*
G01X-1633254Y-892359D03*
G01X-1633254Y-932359D03*
G01X-1633254Y-972359D03*
G01X-1633254Y-1012359D03*
G01X-1633254Y-1052359D03*
G01X-1633254Y-1092358D03*
G01X-1633254Y-1132358D03*
G01X-1633254Y-1172358D03*
G54D13*
G01X-1717004Y-1256108D03*
G01X-1757004Y-1256108D03*
G01X-1797004Y-1256108D03*
G01X-1837003Y-1256108D03*
G01X-1877003Y-1256108D03*
G01X-1917003Y-1256108D03*
G01X-1957003Y-1256108D03*
G01X-1997003Y-1256108D03*
G01X-2037003Y-1256108D03*
G01X-2077003Y-1256108D03*
G01X-2117003Y-1256108D03*
G01X-2157003Y-1256108D03*
G01X-2197003Y-1256108D03*
G01X-2237003Y-1256108D03*
G54D14*
G01X-2320753Y-1172358D03*
G01X-2320753Y-1132358D03*
G01X-2320753Y-1092358D03*
G01X-2320753Y-1052359D03*
G01X-2320753Y-1012359D03*
G01X-2320753Y-972359D03*
G01X-2320753Y-932359D03*
G01X-2320753Y-892359D03*
G01X-2320753Y-852359D03*
G01X-2320753Y-812359D03*
G01X-2320753Y-772359D03*
G01X-2320753Y-732359D03*
G01X-2320753Y-692359D03*
G01X-2320753Y-652359D03*
G54D15*
G01X-1977003Y-912359D03*
G54D17*
G01X-3479275Y63746D03*
G01X-3093474Y63746D03*
G54D18*
G01X-1695624Y1161207D03*
G01X-1990623Y1161207D03*
G54D19*
G01X-688126Y701164D03*
G01X-688126Y996163D03*
G54D20*
G01X-1845623Y886208D03*
G01X-1550624Y886208D03*
G01X-2929355Y886208D03*
G01X-2634356Y886208D03*
G54D21*
G01X-1998273Y877218D03*
G01X-1998273Y812220D03*
G01X-1998273Y747221D03*
G01X-1998273Y682222D03*
G01X-1998273Y617224D03*
G54D22*
G01X-2115113Y500358D03*
G01X-2180111Y500358D03*
G01X-2245110Y500358D03*
G01X-2310109Y500358D03*
G01X-2375107Y500358D03*
G54D21*
G01X-2491973Y617224D03*
G01X-2491973Y682222D03*
G01X-2491973Y747221D03*
G01X-2491973Y812220D03*
G01X-2491973Y877218D03*
G54D22*
G01X-2375107Y994058D03*
G01X-2310109Y994058D03*
G01X-2245110Y994058D03*
G01X-2180111Y994058D03*
G01X-2115113Y994058D03*
G54D23*
G01X-2245110Y747221D03*
G54D21*
G01X-892275Y877218D03*
G01X-892275Y812220D03*
G01X-892275Y747221D03*
G01X-892275Y682222D03*
G01X-892275Y617224D03*
G54D22*
G01X-1009115Y500358D03*
G01X-1074114Y500358D03*
G01X-1139112Y500358D03*
G01X-1204111Y500358D03*
G01X-1269109Y500358D03*
G54D21*
G01X-1385975Y617224D03*
G01X-1385975Y682222D03*
G01X-1385975Y747221D03*
G01X-1385975Y812220D03*
G01X-1385975Y877218D03*
G54D22*
G01X-1269109Y994058D03*
G01X-1204111Y994058D03*
G01X-1139112Y994058D03*
G01X-1074114Y994058D03*
G01X-1009115Y994058D03*
G54D23*
G01X-1139112Y747221D03*
G54D24*
G01X-3379404Y-1263816D03*
G01X-3252404Y-1263816D03*
G01X-3633404Y-1263816D03*
G01X-3506404Y-1263816D03*
G01X-3506404Y-503848D03*
G01X-3379404Y-503848D03*
G01X-3252404Y-503822D03*
G01X-3633404Y-503822D03*
G54D25*
G01X-3442879Y-883857D03*
G54D26*
G01X-1393124Y-710622D03*
G01X-1253119Y-710622D03*
G01X-1393124Y-1006700D03*
G01X-1253119Y-1006700D03*
G01X-1393124Y-1154739D03*
G01X-1253119Y-1154739D03*
G01X-2796679Y-848334D03*
G01X-2656674Y-848334D03*
G54D27*
G01X-1877943Y-365141D03*
G01X-1877943Y-225136D03*
G01X-2236083Y-362601D03*
G01X-2236083Y-222596D03*
G54D26*
G01X-2796679Y-996241D03*
G01X-2656674Y-996241D03*
G54D27*
G01X-2238122Y-1683000D03*
G01X-2238122Y-1542995D03*
G01X-3096447Y779246D03*
G01X-3096447Y919251D03*
G01X-3240667Y776212D03*
G01X-3240667Y916217D03*
G01X-2388122Y-1683000D03*
G01X-2388122Y-1542995D03*
G54D26*
G01X-2796679Y-1587869D03*
G01X-2656674Y-1587869D03*
G01X-1393124Y-1302779D03*
G01X-1253119Y-1302779D03*
G01X-2796679Y-700427D03*
G01X-2656674Y-700427D03*
G01X-2796679Y-1439962D03*
G01X-2656674Y-1439962D03*
G54D28*
G01X-3096988Y606942D03*
G01X-3096988Y466937D03*
G54D27*
G01X-1938679Y-1683000D03*
G01X-1938679Y-1542995D03*
G54D28*
G01X-2021996Y127002D03*
G01X-2021996Y-13003D03*
G01X-1878484Y127002D03*
G01X-1878484Y-13003D03*
G54D29*
G01X-1251570Y-414003D03*
G01X-1391575Y-414003D03*
G01X-1251570Y-562042D03*
G01X-1391575Y-562042D03*
G54D28*
G01X-2646995Y127002D03*
G01X-2646995Y-13003D03*
G01X-2502774Y127002D03*
G01X-2502774Y-13003D03*
G54D26*
G01X-667298Y116700D03*
G01X-527294Y116700D03*
G54D29*
G01X-527294Y-27521D03*
G01X-667298Y-27521D03*
G54D30*
G01X-2796679Y-1292055D03*
G01X-2656674Y-1292055D03*
G01X-2796679Y-1144148D03*
G01X-2656674Y-1144148D03*
G54D31*
G01X-527908Y559178D03*
G01X-667913Y559178D03*
G54D30*
G01X-2796679Y-2031590D03*
G01X-2656674Y-2031590D03*
G54D32*
G01X-2388392Y-2034657D03*
G01X-2388392Y-2174662D03*
G01X-2238393Y-2034657D03*
G01X-2238393Y-2174662D03*
G01X-2088393Y-2034657D03*
G01X-2088393Y-2174662D03*
G54D31*
G01X-528124Y255892D03*
G01X-668128Y255892D03*
G01X-528124Y405815D03*
G01X-668128Y405815D03*
G01X-1668001Y481892D03*
G01X-1808006Y481892D03*
G01X-1668001Y337209D03*
G01X-1808006Y337209D03*
G01X-1253121Y-858120D03*
G01X-1393126Y-858120D03*
G01X-2655125Y-551979D03*
G01X-2795130Y-551979D03*
G01X-2655125Y-404072D03*
G01X-2795130Y-404072D03*
G54D30*
G01X-2796679Y-1883683D03*
G01X-2656674Y-1883683D03*
G01X-2796679Y-1735776D03*
G01X-2656674Y-1735776D03*
G01X-1387911Y-1450818D03*
G01X-1247906Y-1450818D03*
G54D32*
G01X-1938392Y-2034657D03*
G01X-1938392Y-2174662D03*
G01X-1381184Y-1613656D03*
G01X-1381184Y-1753660D03*
G01X-1231184Y-1613656D03*
G01X-1231184Y-1753660D03*
G01X-1081184Y-1613656D03*
G01X-1081184Y-1753660D03*
G01X-931184Y-1613656D03*
G01X-931184Y-1753660D03*
G01X-778223Y-1613656D03*
G01X-778223Y-1753660D03*
G01X-1382179Y-1910129D03*
G01X-1382179Y-2050133D03*
G01X-1232179Y-1910129D03*
G01X-1232179Y-2050133D03*
G01X-1082179Y-1910129D03*
G01X-1082179Y-2050133D03*
G01X-932179Y-1910129D03*
G01X-932179Y-2050133D03*
G01X-779218Y-1910129D03*
G01X-779218Y-2050133D03*
G54D33*
G01X-2088400Y-1683000D03*
G01X-2088400Y-1542995D03*
G54D34*
G01X-1735997Y98000D03*
G01X-1645997Y98000D03*
G54D35*
G01X-1322158Y-285999D03*
G01X-1412157Y-285999D03*
G01X-1322158Y-184000D03*
G01X-1412157Y-184000D03*
G54D36*
G01X-2819587Y708769D03*
G01X-2668914Y708769D03*
G01X-1735856Y708769D03*
G01X-1585183Y708769D03*
G54D37*
G01X-677415Y-1023233D03*
G01X-677415Y-1243232D03*
G01X-847415Y-1243232D03*
G01X-847415Y-1023233D03*
G54D38*
G01X-3237897Y601862D03*
G54D39*
G01X-3237897Y485022D03*
G54D40*
G01X-3375555Y601862D03*
G54D41*
G01X-3375555Y485022D03*
G54D42*
G01X-1313126Y1196207D03*
G01X-1043124Y1196207D03*
G01X-2418124Y1196207D03*
G01X-2148122Y1196207D03*
G54D34*
G01X-1730727Y207998D03*
G01X-1640727Y207998D03*
G54D43*
G01X-498121Y-1602997D03*
G01X-498121Y-1122998D03*
G01X-68122Y-1122998D03*
G01X-68122Y-1602997D03*
G04 Pad End*

G04 Via Start*
G54D44*
G01X-1761926Y692775D03*
G01X-1809122Y338004D03*
G01X-2476118Y242209D03*
G01X-396227Y316100D03*
G01X-2653040Y-1590262D03*
G01X-288421Y-1322997D03*
G01X-120121Y-1389997D03*
G01X-747373Y-897249D03*
G01X-639199Y-1223997D03*
G01X-973271Y244290D03*
G01X-1077988Y539238D03*
G01X-1582121Y902868D03*
G01X-2083122Y-1645617D03*
G01X-2243122Y-1622998D03*
G01X-2403122Y-1722998D03*
G01X-2793122Y-1590262D03*
G01X-1881597Y-1511473D03*
G01X-2793125Y-1441630D03*
G01X-2793124Y-714072D03*
G01X-2793124Y-864073D03*
G01X-2793122Y-992997D03*
G01X-823462Y395341D03*
G01X-2229843Y-1030359D03*
G01X-2229843Y-916059D03*
G01X-3352616Y692013D03*
G01X-1707297Y-802453D03*
G01X-1609803Y-55919D03*
G01X-1658063Y-38139D03*
G01X-1609803Y-3425D03*
G01X-1658063Y16048D03*
G01X-1609803Y49068D03*
G01X-1658063Y70235D03*
G01X-1609803Y101561D03*
G01X-1658063Y124421D03*
G01X-1849028Y-201565D03*
G01X-2476118Y162022D03*
G01X-2388793Y-1558668D03*
G01X-667298Y272005D03*
G01X-2118613Y-1168497D03*
G01X-854679Y-2242658D03*
G01X-1567726Y-1862321D03*
G01X-1053283Y-1160161D03*
G01X-1248109Y-1105399D03*
G01X-1253121Y-992997D03*
G01X-1416989Y-977997D03*
G01X-1902507Y-1620695D03*
G01X-2163122Y-1612998D03*
G01X-2477626Y-840499D03*
G01X-2253124Y-814073D03*
G01X-2237626Y-740499D03*
G01X-2917627Y-1090499D03*
G01X-3907026Y-1303153D03*
G01X-2736349Y-1214073D03*
G01X-2813124Y-1294073D03*
G01X-1393124Y-1294240D03*
G01X-2023423Y-1450815D03*
G01X-2797626Y-380499D03*
G01X-2666427Y-575621D03*
G01X-2653120Y-861629D03*
G01X-2657626Y-990499D03*
G01X-2833127Y-570419D03*
G01X-2726677Y-1075835D03*
G01X-2967627Y-1180500D03*
G01X-3036568Y871497D03*
G54D45*
G01X-3469856Y154435D03*
G54D46*
G01X-657736Y1023156D03*
G01X-1995623Y1165626D03*
G54D47*
G01X-2652356Y867209D03*
G01X-2373123Y1196408D03*
G54D44*
G01X-1478025Y697978D03*
G54D47*
G01X-1071236Y1188497D03*
G54D44*
G01X-2495107Y747224D03*
G01X-2491973Y877218D03*
G01X-2377536Y994058D03*
G54D47*
G01X-1313125Y1161408D03*
G01X-1286782Y1038880D03*
G54D44*
G01X-3756955Y-610272D03*
G01X-3757227Y-883657D03*
G01X-3761026Y-1171299D03*
G01X-3802904Y-1560818D03*
G01X-3877904Y-1495818D03*
G01X-3033678Y-1708817D03*
G01X-1907908Y779178D03*
G01X-2892529Y587878D03*
G01X-2249212Y1093108D03*
G01X-2096910Y-704819D03*
G01X-2037003Y-714659D03*
G01X-2211846Y-669609D03*
G01X-2076956Y-237031D03*
G01X-1965643Y-231887D03*
G54D45*
G01X-3376035Y472309D03*
G54D44*
G01X-1850608Y1345297D03*
G01X-527910Y574178D03*
G01X-667913Y559178D03*
G01X-2692828Y-1679143D03*
G01X-2496677Y-1921187D03*
G01X-2956982Y-2139815D03*
G01X-2388392Y-2169659D03*
G01X-2238393Y-2169659D03*
G01X-1798393Y-2039662D03*
G01X-1703393Y-2080596D03*
G01X-2044498Y-1365818D03*
G01X-1980575Y-1365818D03*
G01X-1920375Y-1370818D03*
G01X-1778195Y-1363488D03*
G01X-2577906Y-1770817D03*
G01X-2342907Y-1890817D03*
G01X-1924099Y-2049213D03*
G01X-2048939Y-1824471D03*
G01X-2692863Y-2035469D03*
G54D45*
G01X-3237897Y583258D03*
G01X-3375555Y583258D03*
G54D44*
G01X-1239870Y-1442301D03*
G01X-1382990Y-1624697D03*
G01X-1231184Y-1618658D03*
G01X-1092503Y-1615613D03*
G01X-919877Y-1624417D03*
G01X-1410971Y-1724930D03*
G01X-941030Y-1748865D03*
G01X-1232179Y-1910129D03*
G01X-779218Y-2066353D03*
G01X-1082179Y-2045131D03*
G01X-1232179Y-2050133D03*
G01X-1382179Y-2050396D03*
G01X-819090Y-1130933D03*
G01X-973239Y-1183015D03*
G01X-928039Y-1350933D03*
G01X-725887Y-1442717D03*
G01X-792709Y-1524723D03*
G01X-854704Y-1675491D03*
G01X-521531Y-1701979D03*
G01X-650610Y-1553275D03*
G01X-639199Y-1130933D03*
G01X-579715Y-983233D03*
G01X-999631Y-1683791D03*
G01X-851692Y-1975971D03*
G01X-567910Y-1319716D03*
G01X-1558117Y-703359D03*
G01X-1705951Y-732174D03*
G01X-1559385Y-770419D03*
G01X-1991803Y-674723D03*
G01X-1828935Y-714659D03*
G01X-1770151Y-748251D03*
G01X-1527708Y-1105423D03*
G01X-982425Y-1042803D03*
G01X-455121Y-1384997D03*
G01X-1897991Y-1174658D03*
G01X-932909Y-2050817D03*
G01X-2127907Y-1365762D03*
G54D45*
G01X-3240259Y775854D03*
G01X-3096177Y779326D03*
G54D44*
G01X-2897611Y658579D03*
G01X-2590890Y704013D03*
G01X-3097012Y589939D03*
G01X-2755402Y-279401D03*
G01X-2577425Y-361856D03*
G54D48*
G01X-3032994Y-2256995D03*
G01X-3238994Y-2126996D03*
G54D44*
G01X-3985359Y-91841D03*
G01X-3935359Y-146841D03*
G01X-3835359Y-146841D03*
G01X-3885359Y-91841D03*
G01X-3785359Y-91841D03*
G01X-3735359Y-146841D03*
G01X-3701359Y-91841D03*
G01X-3571359Y-90841D03*
G01X-3535359Y-146841D03*
G01X-3485359Y-91841D03*
G01X-3435359Y-146841D03*
G01X-3385359Y-91841D03*
G01X-3335359Y-146841D03*
G01X-3285359Y-91841D03*
G01X-3235359Y-146841D03*
G01X-3185359Y-91841D03*
G01X-3135359Y-146841D03*
G01X-3035359Y-146841D03*
G01X-3085359Y-91841D03*
G01X-2985359Y-91841D03*
G01X-2935359Y-146841D03*
G01X-2785359Y-91841D03*
G01X-2735359Y-146841D03*
G01X-2685359Y-91841D03*
G01X-2385359Y-91841D03*
G01X-2335359Y-146841D03*
G01X-2235359Y-146841D03*
G01X-2285359Y-91841D03*
G01X-2185359Y-91841D03*
G01X-2035359Y-146841D03*
G01X-1985359Y-91841D03*
G01X-1935359Y-146841D03*
G01X-1885359Y-91841D03*
G01X-1835359Y-146841D03*
G01X-1785359Y-91841D03*
G01X-1479359Y-99841D03*
G01X-1385359Y-91841D03*
G01X-1235359Y-146841D03*
G01X-1185359Y-91841D03*
G01X-1135359Y-146841D03*
G01X-1085359Y-91841D03*
G01X-1035359Y-146841D03*
G01X-985359Y-91841D03*
G01X-935359Y-146841D03*
G01X-885359Y-91841D03*
G01X-835359Y-146841D03*
G01X-461215Y-109144D03*
G01X-385359Y-91841D03*
G01X-335359Y-146841D03*
G01X-285359Y-91841D03*
G01X-235359Y-146841D03*
G01X-185359Y-91841D03*
G01X-135359Y-146841D03*
G01X-85358Y-91841D03*
G01X-35359Y-146841D03*
G01X14642Y-91841D03*
G01X64641Y-146841D03*
G01X114642Y-91841D03*
G01X-2374608Y877724D03*
G01X-2309608Y877724D03*
G01X-2244608Y877724D03*
G01X-2179608Y877724D03*
G01X-2114608Y877724D03*
G01X-2114608Y617724D03*
G01X-2179608Y682724D03*
G01X-2244608Y682724D03*
G01X-2309608Y682724D03*
G01X-2374608Y682724D03*
G01X-2244608Y747724D03*
G01X-2309608Y747724D03*
G01X-2374608Y747724D03*
G01X-2114608Y747724D03*
G01X-2179608Y747724D03*
G01X-2114608Y812724D03*
G01X-2179608Y812724D03*
G01X-2114608Y682724D03*
G01X-2374608Y617724D03*
G01X-2309608Y617724D03*
G01X-2244608Y812724D03*
G01X-2179608Y617724D03*
G01X-2244608Y617724D03*
G01X-2374608Y812724D03*
G01X-2309608Y812724D03*
G01X-1268610Y877724D03*
G01X-1268610Y812724D03*
G01X-1268610Y747724D03*
G01X-1268610Y682724D03*
G01X-1268610Y617724D03*
G01X-1203610Y617724D03*
G01X-1203610Y682724D03*
G01X-1203610Y747724D03*
G01X-1203610Y812724D03*
G01X-1203610Y877724D03*
G01X-1138610Y877724D03*
G01X-1138610Y812724D03*
G01X-1138610Y747724D03*
G01X-1138610Y682724D03*
G01X-1138610Y617724D03*
G01X-1073610Y617724D03*
G01X-1073610Y682724D03*
G01X-1073610Y747724D03*
G01X-1073610Y812724D03*
G01X-1073610Y877724D03*
G01X-1008610Y877724D03*
G01X-1008610Y812724D03*
G01X-1008610Y747724D03*
G01X-1008610Y682724D03*
G01X-1008610Y617724D03*
G01X-2081501Y-801856D03*
G01X-2026501Y-801856D03*
G01X-1971501Y-801856D03*
G01X-1916501Y-801856D03*
G01X-1861501Y-801856D03*
G01X-2081501Y-856856D03*
G01X-2026501Y-856856D03*
G01X-1971501Y-856856D03*
G01X-1916501Y-856856D03*
G01X-1861501Y-856856D03*
G01X-2081501Y-911856D03*
G01X-2026501Y-911856D03*
G01X-1971501Y-911856D03*
G01X-1916501Y-911856D03*
G01X-1861501Y-911856D03*
G01X-2081501Y-966856D03*
G01X-2026501Y-966856D03*
G01X-1971501Y-966856D03*
G01X-1916501Y-966856D03*
G01X-1861501Y-966856D03*
G01X-2081501Y-1021856D03*
G01X-2026501Y-1021856D03*
G01X-1971501Y-1021856D03*
G01X-1916501Y-1021856D03*
G01X-1861501Y-1021856D03*
G01X-3078393Y367003D03*
G01X-3078393Y267004D03*
G01X-2907306Y417936D03*
G01X-2846501Y367003D03*
G01X-2846501Y267004D03*
G01X-2846501Y167003D03*
G01X-2671210Y214425D03*
G01X-2785696Y214425D03*
G01X-2785696Y314425D03*
G01X-2614609Y264425D03*
G54D47*
G01X-1951033Y125025D03*
G01X-1307962Y-590605D03*
G54D44*
G01X-2776136Y473014D03*
G01X-2421995Y408594D03*
G01X-1985796Y-1172998D03*
G01X-2031996Y-1118998D03*
G01X-2200996Y-1152998D03*
G01X-1723308Y-969399D03*
G01X-3575493Y494999D03*
G01X-619723Y160877D03*
G01X-4035359Y145199D03*
G01X-3985359Y91199D03*
G01X-3935359Y145199D03*
G01X-3885359Y91199D03*
G01X-3835359Y145199D03*
G01X-3785359Y91199D03*
G01X-3735359Y145199D03*
G01X-3685359Y91199D03*
G01X-3678359Y177199D03*
G01X-3335359Y145199D03*
G01X-3285359Y91199D03*
G01X-3235359Y145199D03*
G01X-3185359Y91199D03*
G01X-3135359Y145199D03*
G01X-3085359Y91199D03*
G01X-3035359Y145199D03*
G01X-2385359Y91199D03*
G01X-2335359Y145199D03*
G01X-2285359Y91199D03*
G01X-2235359Y145199D03*
G01X-2185359Y91199D03*
G01X-1465359Y98199D03*
G01X-1435359Y146199D03*
G01X-1385359Y91199D03*
G01X-1335359Y146199D03*
G01X-1285359Y91199D03*
G01X-1235359Y146199D03*
G01X-1185359Y91199D03*
G01X-1135359Y146199D03*
G01X-1085359Y91199D03*
G01X-1035359Y146199D03*
G01X-985358Y91199D03*
G01X-935359Y146199D03*
G01X-885358Y91199D03*
G01X-835359Y146199D03*
G01X-435359Y143199D03*
G01X-385358Y91199D03*
G01X-335358Y143199D03*
G01X-285358Y91199D03*
G01X-235358Y143199D03*
G01X-185358Y91199D03*
G01X-135358Y143199D03*
G01X-85358Y91199D03*
G01X-35358Y143199D03*
G01X14642Y91199D03*
G01X64642Y143199D03*
G01X114642Y91199D03*
G01X114642Y199199D03*
G01X14642Y199199D03*
G01X-85358Y199199D03*
G01X-185359Y199199D03*
G01X64641Y254199D03*
G01X-35359Y254199D03*
G01X-135359Y254199D03*
G01X-235359Y254199D03*
G01X114641Y309199D03*
G01X14641Y309199D03*
G01X-85359Y309199D03*
G01X-185359Y309199D03*
G01X64641Y364199D03*
G01X-35359Y364199D03*
G01X-135359Y364199D03*
G01X-235359Y364199D03*
G01X114641Y419199D03*
G01X14641Y419199D03*
G01X-85359Y419199D03*
G01X-185359Y419199D03*
G01X64641Y474199D03*
G01X-35359Y474199D03*
G01X-135359Y474199D03*
G01X-235359Y474199D03*
G01X114641Y529199D03*
G01X14641Y529199D03*
G01X-85359Y529199D03*
G01X-185359Y529199D03*
G01X-185359Y-200841D03*
G01X-85358Y-200841D03*
G01X14642Y-200841D03*
G01X114642Y-200841D03*
G01X64642Y-255840D03*
G01X-35358Y-255840D03*
G01X-135358Y-255840D03*
G01X-235358Y-255840D03*
G01X114642Y-310840D03*
G01X14642Y-310840D03*
G01X-85358Y-310840D03*
G01X-185358Y-310840D03*
G01X64642Y-365840D03*
G01X-35358Y-365840D03*
G01X-135358Y-365840D03*
G01X-235358Y-365840D03*
G01X114642Y-420840D03*
G01X14642Y-420840D03*
G01X-85358Y-420840D03*
G01X-185358Y-420840D03*
G01X64642Y-475840D03*
G01X-35358Y-475840D03*
G01X-135358Y-475840D03*
G01X-235358Y-475840D03*
G01X114642Y-530840D03*
G01X14642Y-530840D03*
G01X-85358Y-530840D03*
G01X-185358Y-530840D03*
G01X-3785359Y-200841D03*
G01X-3885359Y-200841D03*
G01X-3985359Y-200841D03*
G01X-4085359Y-200841D03*
G01X-3735359Y-255840D03*
G01X-3835359Y-255840D03*
G01X-3935359Y-255840D03*
G01X-4035359Y-255840D03*
G01X-3785359Y-310840D03*
G01X-3885359Y-310840D03*
G01X-3985359Y-310840D03*
G01X-4085359Y-310840D03*
G01X-3735359Y-365840D03*
G01X-3835359Y-365840D03*
G01X-3935359Y-365840D03*
G01X-4035359Y-365840D03*
G01X-3785359Y-420840D03*
G01X-3885359Y-420840D03*
G01X-3985359Y-420840D03*
G01X-4085359Y-420840D03*
G01X-3735359Y-475840D03*
G01X-3835359Y-475840D03*
G01X-3935359Y-475840D03*
G01X-4035359Y-475840D03*
G01X-3785358Y-530840D03*
G01X-3885358Y-530840D03*
G01X-3985359Y-530840D03*
G01X-4085359Y-530840D03*
G01X-4085360Y199199D03*
G01X-3985360Y199199D03*
G01X-3885360Y199199D03*
G01X-3785359Y199199D03*
G01X-4035360Y254199D03*
G01X-3935360Y254199D03*
G01X-3835360Y254199D03*
G01X-3735360Y254199D03*
G01X-4085360Y309199D03*
G01X-3985360Y309199D03*
G01X-3885360Y309199D03*
G01X-3785360Y309199D03*
G01X-4035360Y364199D03*
G01X-3935360Y364199D03*
G01X-3835360Y364199D03*
G01X-3735360Y364199D03*
G01X-4085360Y419199D03*
G01X-3985360Y419199D03*
G01X-3885360Y419199D03*
G01X-3785360Y419199D03*
G01X-4033603Y468927D03*
G01X-3933603Y468927D03*
G01X-3833603Y468927D03*
G01X-3733603Y468927D03*
G01X-4083603Y523927D03*
G01X-3983603Y523927D03*
G01X-3883603Y523927D03*
G01X-3783603Y523927D03*
G01X-4085360Y-91841D03*
G01X-4085359Y91199D03*
G01X-2330359Y-340841D03*
G01X-2385359Y-290841D03*
G01X-2330359Y-240841D03*
G01X-2385359Y-190841D03*
G01X-2119324Y-361977D03*
G01X-2069324Y-307977D03*
G01X-2019324Y-361977D03*
G01X-1619324Y-362977D03*
G01X-1569324Y-307977D03*
G01X-1419324Y-360977D03*
G01X-1169324Y-305977D03*
G01X-1119324Y-360977D03*
G01X-1069323Y-305977D03*
G01X-1019324Y-360977D03*
G01X-969323Y-305977D03*
G01X-919324Y-360977D03*
G01X-869323Y-305977D03*
G01X-819323Y-360977D03*
G01X-1892104Y-650060D03*
G01X-1618103Y-543017D03*
G01X-1583317Y-598017D03*
G01X-1418103Y-544017D03*
G01X-1168103Y-599017D03*
G01X-1118103Y-544017D03*
G01X-1002091Y-670717D03*
G01X-1018103Y-544017D03*
G01X-968103Y-599017D03*
G01X-918103Y-544017D03*
G01X-868103Y-599017D03*
G01X-818103Y-544017D03*
G01X-768103Y-599017D03*
G01X-718103Y-543017D03*
G01X-799998Y-262999D03*
G01X-853998Y-196000D03*
G01X-650999Y-493999D03*
G01X-651999Y-553999D03*
G01X-609677Y-421498D03*
G01X-508999Y-217000D03*
G01X-2672995Y-268999D03*
G01X-2518739Y-644237D03*
G01X-683298Y-25406D03*
G01X-640432Y18160D03*
G01X-2556204Y24596D03*
G01X-2536704Y-25904D03*
G01X-2868994Y528999D03*
G01X-3602904Y-905971D03*
G01X-3585993Y-1011998D03*
G01X-3442892Y-1011998D03*
G01X-3300993Y-1011998D03*
G01X-3587993Y-762998D03*
G01X-3444892Y-762998D03*
G01X-3302993Y-762998D03*
G01X-3252404Y-503822D03*
G01X-902300Y-986932D03*
G01X-1243122Y-710622D03*
G01X-2236083Y-222596D03*
G01X-1627897Y355408D03*
G01X-1269109Y439359D03*
G01X-1009888Y461358D03*
G01X-696240Y675050D03*
G01X-1817507Y897577D03*
G01X-2206587Y1196207D03*
G01X-2929355Y879208D03*
G01X-3274993Y877998D03*
G01X-3932193Y678510D03*
G01X-3732193Y678510D03*
G01X-3732193Y878511D03*
G01X-3332193Y878511D03*
G01X-3332193Y1278511D03*
G01X-3132193Y278510D03*
G01X-2132192Y1278511D03*
G01X-1900423Y1250798D03*
G01X-1732192Y878511D03*
G01X-1532192Y278510D03*
G01X-1532192Y478510D03*
G01X-1332192Y278510D03*
G01X-1332192Y478510D03*
G01X-1132192Y278510D03*
G01X-1132192Y1278511D03*
G01X-932191Y278510D03*
G01X-932191Y478510D03*
G01X-932191Y1078511D03*
G01X-932191Y1278511D03*
G01X-732191Y878511D03*
G01X-532191Y1278511D03*
G01X-332191Y278510D03*
G01X-332191Y478510D03*
G01X-332191Y678510D03*
G01X-332191Y878511D03*
G01X-132191Y678510D03*
G01X-132191Y878511D03*
G01X-3932193Y-1858388D03*
G01X-3932193Y-1658388D03*
G01X-3932193Y-858388D03*
G01X-3932193Y-658388D03*
G01X-3732193Y-1858388D03*
G01X-3732193Y-1658388D03*
G01X-3702193Y-1378388D03*
G01X-3732193Y-1058388D03*
G01X-3522234Y-1468347D03*
G01X-3532193Y-658388D03*
G01X-3532193Y-258388D03*
G01X-3332193Y-2458389D03*
G01X-3332193Y-2258389D03*
G01X-3332193Y-2058389D03*
G01X-3332193Y-1658388D03*
G01X-3332193Y-1458388D03*
G01X-3332193Y-658388D03*
G01X-3332193Y-258388D03*
G01X-3132193Y-2458389D03*
G01X-3132193Y-2058389D03*
G01X-3132193Y-1658388D03*
G01X-3132193Y-1258388D03*
G01X-3132193Y-858388D03*
G01X-3132193Y-458388D03*
G01X-3132193Y-258388D03*
G01X-2932193Y-2458389D03*
G01X-2932193Y-1658388D03*
G01X-2932193Y-1458388D03*
G01X-2932193Y-1258388D03*
G01X-2932193Y-858388D03*
G01X-2932193Y-258388D03*
G01X-2732192Y-2458389D03*
G01X-2732192Y-2258389D03*
G01X-2532192Y-2458389D03*
G01X-2532192Y-2258389D03*
G01X-2532192Y-1658388D03*
G01X-2532314Y-1478266D03*
G01X-2332192Y-2458389D03*
G01X-2332192Y-2258389D03*
G01X-2132192Y-2458389D03*
G01X-2132192Y-2258389D03*
G01X-1932192Y-2458389D03*
G01X-1932192Y-2258389D03*
G01X-1732192Y-2458389D03*
G01X-1732192Y-2258389D03*
G01X-1532192Y-2458389D03*
G01X-1532192Y-2258389D03*
G01X-1332192Y-2458389D03*
G01X-1132192Y-2458389D03*
G01X-1132192Y-2258389D03*
G01X-1132192Y-658388D03*
G01X-932191Y-2458389D03*
G01X-732191Y-2458389D03*
G01X-732191Y-2258389D03*
G01X-732191Y-658388D03*
G01X-532191Y-2258389D03*
G01X-532191Y-2058389D03*
G01X-532191Y-858388D03*
G01X-532191Y-658388D03*
G01X-532191Y-458388D03*
G01X-332191Y-1858388D03*
G01X-332191Y-858388D03*
G01X-332191Y-658388D03*
G01X-332191Y-258388D03*
G01X-132191Y-1858388D03*
G01X-132191Y-858388D03*
G01X-132191Y-658388D03*
G01X-4019983Y1345052D03*
G01X-3983123Y1441912D03*
G01X-3913123Y1501912D03*
G01X-3805667Y1551912D03*
G01X-3705667Y1551912D03*
G01X-3605667Y1551912D03*
G01X-3505667Y1551912D03*
G01X-3405667Y1551912D03*
G01X-3305666Y1551912D03*
G01X-3205666Y1551912D03*
G01X-3105666Y1551912D03*
G01X76879Y861912D03*
G01X-203239Y-2568090D03*
G01X-303239Y-2568090D03*
G01X-403239Y-2568090D03*
G01X-503239Y-2568090D03*
G01X-603239Y-2568090D03*
G01X-703239Y-2568090D03*
G01X-803239Y-2568090D03*
G01X-903239Y-2568090D03*
G01X-1003239Y-2568090D03*
G01X-1103239Y-2568090D03*
G01X76879Y1161912D03*
G01X76879Y1061912D03*
G01X76879Y961912D03*
G01X-4043123Y1209187D03*
G01X-4043123Y1109187D03*
G01X-4043123Y-690814D03*
G01X-4043123Y-590814D03*
G01X-4043123Y609186D03*
G01X-4043123Y709187D03*
G01X-4043123Y809187D03*
G01X-4043123Y909187D03*
G01X-4043123Y1009187D03*
G01X-3103240Y-2568090D03*
G01X-3983123Y-2488090D03*
G01X-3203240Y-2568090D03*
G01X-3303240Y-2568090D03*
G01X-3403240Y-2568090D03*
G01X-3503240Y-2568090D03*
G01X-3603240Y-2568090D03*
G01X-3703240Y-2568090D03*
G01X-3803241Y-2568090D03*
G01X-3903123Y-2548090D03*
G01X-4027054Y-2384159D03*
G01X-4043123Y-2290815D03*
G01X-4043123Y-2190815D03*
G01X-4043123Y-2090815D03*
G01X-4043123Y-1990815D03*
G01X-4043123Y-1890815D03*
G01X-4043123Y-1790815D03*
G01X-4043123Y-1690815D03*
G01X-4043123Y-1590815D03*
G01X-4043123Y-1490815D03*
G01X-4043123Y-1390815D03*
G01X-4043123Y-1290815D03*
G01X-4043123Y-1190814D03*
G01X-4043123Y-1090814D03*
G01X-4043123Y-990814D03*
G01X-4043123Y-890814D03*
G01X-4043123Y-790814D03*
G01X-3003240Y-2568090D03*
G01X-2803240Y-2568090D03*
G01X-1203239Y-2568090D03*
G01X-1303239Y-2568090D03*
G01X-1403239Y-2568090D03*
G01X-1503239Y-2568090D03*
G01X-1603239Y-2568090D03*
G01X-1703239Y-2568090D03*
G01X-1803239Y-2568090D03*
G01X-1903240Y-2568090D03*
G01X-2003240Y-2568090D03*
G01X-2103240Y-2568090D03*
G01X-2203240Y-2568090D03*
G01X-2303240Y-2568090D03*
G01X-2403240Y-2568090D03*
G01X-2503240Y-2568090D03*
G01X-2603240Y-2568090D03*
G01X-2703240Y-2568090D03*
G01X-2903240Y-2568090D03*
G01X-115134Y1529052D03*
G01X-2605666Y1551912D03*
G01X-2505666Y1551912D03*
G01X-2405666Y1551912D03*
G01X-2305666Y1551912D03*
G01X-2205666Y1551912D03*
G01X-2105666Y1551912D03*
G01X-2005666Y1551912D03*
G01X-1905666Y1551912D03*
G01X-1805666Y1551912D03*
G01X-1705666Y1551912D03*
G01X-1605666Y1551912D03*
G01X-1505666Y1551912D03*
G01X-1405665Y1551912D03*
G01X-1305665Y1551912D03*
G01X-1205665Y1551912D03*
G01X-1105665Y1551912D03*
G01X-1005665Y1551912D03*
G01X-905665Y1551912D03*
G01X-805665Y1551912D03*
G01X-705665Y1551912D03*
G01X-605665Y1551912D03*
G01X-23121Y1481912D03*
G01X36879Y1391912D03*
G01X-505665Y1551912D03*
G01X-405665Y1551912D03*
G01X-305665Y1551912D03*
G01X-205665Y1551912D03*
G01X76879Y1261912D03*
G01X-3005666Y1551912D03*
G01X-2905666Y1551912D03*
G01X-2805666Y1551912D03*
G01X-2705666Y1551912D03*
G01X76879Y761912D03*
G01X63901Y-2376077D03*
G01X76879Y-2038090D03*
G01X76879Y-2138090D03*
G01X76879Y-2248090D03*
G01X76879Y661912D03*
G01X76879Y561912D03*
G01X76879Y-638089D03*
G01X76879Y-738089D03*
G01X76879Y-838089D03*
G01X76879Y-938089D03*
G01X76879Y-1038089D03*
G01X76879Y-1138089D03*
G01X76879Y-1238089D03*
G01X76879Y-1338090D03*
G01X76879Y-1438090D03*
G01X76879Y-1538090D03*
G01X76879Y-1638090D03*
G01X76879Y-1738090D03*
G01X76879Y-1838090D03*
G01X76879Y-1938090D03*
G01X16762Y-2468090D03*
G01X-73238Y-2528090D03*
G01X-4035359Y-146841D03*
G01X-2313995Y-1352997D03*
G01X-1783074Y230690D03*
G01X-1474117Y-658159D03*
G01X-1668103Y-598017D03*
G01X-1319997Y-289001D03*
G01X-1656413Y-477498D03*
G01X-1613411Y-412795D03*
G01X-1458997Y217000D03*
G01X-1635359Y-145841D03*
G01X-2330359Y-543699D03*
G01X-2481364Y-681285D03*
G01X-2341374Y-598907D03*
G01X-1068103Y-599017D03*
G01X-1650997Y829998D03*
G01X-2242110Y555007D03*
G01X-2476118Y581224D03*
G01X-2435995Y674999D03*
G01X-98999Y-1489370D03*
G01X-196964Y-1193962D03*
G01X-450821Y-1262997D03*
G01X-309999Y-1577997D03*
G01X-196621Y-1637997D03*
G01X-369621Y-1637997D03*
G01X-288164Y-1079283D03*
G01X-647910Y-1988305D03*
G01X-637338Y-1859168D03*
G01X-725664Y-1763241D03*
G01X-627910Y-1765616D03*
G01X-602207Y-1639788D03*
G01X-647632Y-1309516D03*
G01X-969290Y-2216570D03*
G01X-1649289Y-2240984D03*
G01X-2879862Y-2079395D03*
G01X-2726677Y-1804090D03*
G01X-3595993Y-1126099D03*
G01X-3575904Y-616972D03*
G01X-3237897Y485022D03*
G01X-1749197Y-55706D03*
G01X-1802996Y481999D03*
G01X-1514797Y-57237D03*
G01X-1514797Y69096D03*
G01X-1514797Y143402D03*
G01X-1526997Y-2129996D03*
G01X-3109994Y1306997D03*
G01X-3885993Y-1073997D03*
G01X-2651010Y150998D03*
G01X-420000Y-220000D03*
G01X-3651104Y-1515617D03*
G01X-2523105Y-1279382D03*
G01X-3023393Y317003D03*
G01X-3023393Y217003D03*
G01X-2907306Y317003D03*
G01X-2907306Y217003D03*
G01X-1657995Y-1710001D03*
G01X-1650001Y-1605697D03*
G01X-1550001Y-1710001D03*
G01X-2284703Y-1234702D03*
G01X-2502035Y-1193548D03*
G01X-3370002Y-1166116D03*
G01X-3506624Y-1154995D03*
G01X-3982193Y-2058389D03*
G01X-3982193Y-1908389D03*
G01X-3982193Y-1758389D03*
G01X-3982193Y-1608389D03*
G01X-3982193Y-1458389D03*
G01X-3982193Y-1308389D03*
G01X-3982193Y-1158389D03*
G01X-3982193Y-1008389D03*
G01X-3982193Y-858389D03*
G01X-3982193Y-708389D03*
G01X-3982193Y641610D03*
G01X-3982193Y791610D03*
G01X-3982193Y941610D03*
G01X-3982193Y1091610D03*
G01X-3982193Y1391610D03*
G01X-3982193Y1541610D03*
G01X-3832193Y-1908389D03*
G01X-3832193Y-1758389D03*
G01X-3832193Y-558390D03*
G01X-3832193Y641610D03*
G01X-3832193Y791610D03*
G01X-3832193Y941610D03*
G01X-3682193Y-1908389D03*
G01X-3682193Y-1608389D03*
G01X-3682193Y-1008389D03*
G01X-3682193Y-858389D03*
G01X-3682193Y-708389D03*
G01X-3682193Y-408390D03*
G01X-3682193Y-258390D03*
G01X-3682193Y341610D03*
G01X-3682193Y491610D03*
G01X-3682193Y641610D03*
G01X-3682193Y791610D03*
G01X-3682193Y941610D03*
G01X-3532193Y-2508389D03*
G01X-3532193Y-1908389D03*
G01X-3532193Y-1758389D03*
G01X-3532193Y341610D03*
G01X-3532193Y641610D03*
G01X-3532193Y791610D03*
G01X-3532193Y941610D03*
G01X-3382193Y-2508389D03*
G01X-3382193Y-2358389D03*
G01X-3382193Y-2208389D03*
G01X-3382193Y-2058389D03*
G01X-3382193Y-1908389D03*
G01X-3382193Y-1608389D03*
G01X-3382193Y-1458389D03*
G01X-3382193Y-258390D03*
G01X-3382193Y791610D03*
G01X-3382193Y941610D03*
G01X-3382193Y1091610D03*
G01X-3382193Y1241610D03*
G01X-3382193Y1391610D03*
G01X-3232193Y-2508389D03*
G01X-3232193Y-2358389D03*
G01X-3232193Y-1758389D03*
G01X-3232193Y-1608389D03*
G01X-3232193Y-1458389D03*
G01X-3232193Y-258390D03*
G01X-3232193Y341610D03*
G01X-3232193Y1091610D03*
G01X-3232193Y1241610D03*
G01X-3232193Y1391610D03*
G01X-3082193Y-2508389D03*
G01X-3082193Y-2358389D03*
G01X-3082193Y-2058389D03*
G01X-3082193Y-1608389D03*
G01X-3082193Y-1008389D03*
G01X-3082193Y-858389D03*
G01X-3082193Y-708389D03*
G01X-3082193Y-558390D03*
G01X-3082193Y-258390D03*
G01X-3082193Y191610D03*
G01X-3082193Y1091610D03*
G01X-3082193Y1241610D03*
G01X-3082193Y1391610D03*
G01X-2932194Y-2508389D03*
G01X-2932194Y-2358389D03*
G01X-2932194Y-1608389D03*
G01X-2932194Y-708389D03*
G01X-2932194Y-558390D03*
G01X-2932194Y-408390D03*
G01X-2932194Y1091610D03*
G01X-2932194Y1241610D03*
G01X-2932194Y1391610D03*
G01X-2782194Y-2508389D03*
G01X-2782194Y-2358389D03*
G01X-2782194Y941610D03*
G01X-2782194Y1091610D03*
G01X-2782194Y1241610D03*
G01X-2782194Y1391610D03*
G01X-2632194Y-2508389D03*
G01X-2632194Y-2358389D03*
G01X-2632194Y-2208389D03*
G01X-2632194Y341610D03*
G01X-2632194Y491610D03*
G01X-2632194Y1241610D03*
G01X-2632194Y1391610D03*
G01X-2482194Y-2508389D03*
G01X-2482194Y-2358389D03*
G01X-2482194Y-2208389D03*
G01X-2482194Y-1758389D03*
G01X-2482194Y-1608389D03*
G01X-2482194Y1391610D03*
G01X-2332194Y-2508389D03*
G01X-2332194Y-1758389D03*
G01X-2332194Y1391610D03*
G01X-2182194Y-2508389D03*
G01X-2182194Y-2358389D03*
G01X-2182194Y-1908389D03*
G01X-2182194Y-1758389D03*
G01X-2182194Y191610D03*
G01X-2182194Y1391610D03*
G01X-2032194Y-2508389D03*
G01X-2032194Y-2358389D03*
G01X-2032194Y941610D03*
G01X-1882194Y-2508389D03*
G01X-1882194Y-2358389D03*
G01X-1922194Y-1956957D03*
G01X-1882194Y1091610D03*
G01X-1732194Y-2508389D03*
G01X-1732194Y-2358389D03*
G01X-1732194Y-2208389D03*
G01X-1732194Y641610D03*
G01X-1732194Y941610D03*
G01X-1582194Y-2508389D03*
G01X-1582194Y-2358389D03*
G01X-1582194Y-1608389D03*
G01X-1582194Y491610D03*
G01X-1582194Y1091610D03*
G01X-1582194Y1241610D03*
G01X-1432194Y-2508389D03*
G01X-1432194Y-2358389D03*
G01X-1432194Y-2208389D03*
G01X-1432194Y341610D03*
G01X-1432194Y491610D03*
G01X-1432194Y941610D03*
G01X-1432194Y1091610D03*
G01X-1432194Y1241610D03*
G01X-1282194Y-2508389D03*
G01X-1282194Y-2358389D03*
G01X-1282194Y-2208389D03*
G01X-1282194Y341610D03*
G01X-1282194Y1391610D03*
G01X-1132194Y-2508389D03*
G01X-1132194Y-2358389D03*
G01X-1132194Y-2208389D03*
G01X-1132194Y-1158389D03*
G01X-1132194Y-708389D03*
G01X-1132194Y-258390D03*
G01X-1132194Y1091610D03*
G01X-1132194Y1391610D03*
G01X-982194Y-2508389D03*
G01X-982194Y-2358389D03*
G01X-982194Y191610D03*
G01X-982194Y1391610D03*
G01X-832194Y-2508389D03*
G01X-832194Y-2358389D03*
G01X-832194Y-858389D03*
G01X-832194Y-708389D03*
G01X-832194Y341610D03*
G01X-832194Y1091610D03*
G01X-832194Y1241610D03*
G01X-832194Y1391610D03*
G01X-682194Y-2508389D03*
G01X-682194Y-2358389D03*
G01X-682194Y-2208389D03*
G01X-682194Y-2058389D03*
G01X-682194Y-858389D03*
G01X-682194Y-708389D03*
G01X-682194Y1241610D03*
G01X-682194Y1391610D03*
G01X-532194Y-2508389D03*
G01X-532194Y-2358389D03*
G01X-532194Y-2208389D03*
G01X-532194Y-1908389D03*
G01X-532194Y-1758389D03*
G01X-532194Y-1008389D03*
G01X-532194Y-708389D03*
G01X-532194Y-558390D03*
G01X-532194Y-408390D03*
G01X-532194Y791610D03*
G01X-532194Y941610D03*
G01X-532194Y1091610D03*
G01X-532194Y1391610D03*
G01X-382194Y-2508389D03*
G01X-382194Y-1908389D03*
G01X-382194Y-1758389D03*
G01X-382194Y-708389D03*
G01X-382194Y-558390D03*
G01X-382194Y-408390D03*
G01X-382194Y191610D03*
G01X-382194Y491610D03*
G01X-382194Y641610D03*
G01X-382194Y791610D03*
G01X-382194Y941610D03*
G01X-232194Y-1908389D03*
G01X-232194Y-858389D03*
G01X-232194Y-708389D03*
G01X-232194Y-558390D03*
G01X-232194Y641610D03*
G01X-232194Y791610D03*
G01X-232194Y941610D03*
G01X-82194Y-1908389D03*
G01X-82194Y-1758389D03*
G01X-82194Y-1308389D03*
G01X-82194Y-1008389D03*
G01X-82194Y-858389D03*
G01X-82194Y-708389D03*
G01X-82194Y641610D03*
G01X-82194Y791610D03*
G01X-82194Y941610D03*
G01X67806Y-2508389D03*
G01X67806Y-558390D03*
G01X-2310001Y-1430001D03*
G01X-2309544Y-1483000D03*
G01X-243463Y-2039659D03*
G01X-33463Y-2249659D03*
G01X-243463Y-2459659D03*
G01X-453463Y-2249659D03*
G01X-391956Y-2101166D03*
G01X-391956Y-2398151D03*
G01X-94971Y-2398151D03*
G01X-94971Y-2101166D03*
G01X-437477Y-2169294D03*
G01X-323828Y-2443673D03*
G01X-49449Y-2330024D03*
G01X-163098Y-2055645D03*
G01X-437478Y-2330021D03*
G01X-323825Y-2055644D03*
G01X-49448Y-2169297D03*
G01X-163101Y-2443674D03*
G01X-3723463Y-2039659D03*
G01X-3513463Y-2249659D03*
G01X-3723463Y-2459659D03*
G01X-3933463Y-2249659D03*
G01X-3871956Y-2101166D03*
G01X-3871956Y-2398151D03*
G01X-3574971Y-2398151D03*
G01X-3574971Y-2101166D03*
G01X-3917478Y-2169294D03*
G01X-3803828Y-2443673D03*
G01X-3529449Y-2330024D03*
G01X-3643098Y-2055645D03*
G01X-3917479Y-2330021D03*
G01X-3803826Y-2055644D03*
G01X-3529448Y-2169297D03*
G01X-3643101Y-2443674D03*
G01X-243463Y1440341D03*
G01X-33463Y1230341D03*
G01X-243463Y1020341D03*
G01X-453463Y1230341D03*
G01X-391956Y1378834D03*
G01X-391956Y1081849D03*
G01X-94971Y1081849D03*
G01X-94971Y1378834D03*
G01X-437477Y1310706D03*
G01X-323828Y1036327D03*
G01X-49449Y1149976D03*
G01X-163098Y1424356D03*
G01X-437478Y1149979D03*
G01X-323825Y1424357D03*
G01X-49448Y1310704D03*
G01X-163101Y1036326D03*
G01X-3723463Y1440341D03*
G01X-3513463Y1230341D03*
G01X-3723463Y1020341D03*
G01X-3933463Y1230341D03*
G01X-3871956Y1378834D03*
G01X-3871956Y1081849D03*
G01X-3574971Y1081849D03*
G01X-3574971Y1378834D03*
G01X-3917478Y1310706D03*
G01X-3803828Y1036327D03*
G01X-3529449Y1149976D03*
G01X-3643098Y1424356D03*
G01X-3917479Y1149979D03*
G01X-3803826Y1424357D03*
G01X-3529448Y1310704D03*
G01X-3643101Y1036326D03*
G04 Via End*

G04 Track Start*
G54D49*
G01X-2355485Y-1132358D02*
G01X-2320753Y-1132358D01*
G01X-2320753Y-1172358D02*
G01X-2377163Y-1228769D01*
G01X-818121Y-1252997D02*
G01X-818929Y-1253804D01*
G01X-901130Y-1253804D01*
G01X-901937Y-1252997D01*
G01X-1013121Y-1252997D01*
G01X-1393124Y-841775D02*
G01X-1401900Y-841775D01*
G01X-1452484Y-892359D02*
G01X-1633254Y-892359D01*
G01X-1401900Y-841775D02*
G01X-1452484Y-892359D01*
G01X-2653118Y-1590262D02*
G01X-2580387Y-1590262D01*
G54D50*
G01X-2238122Y-1549757D02*
G01X-2236083Y-1547718D01*
G54D49*
G01X-2253543Y-892359D02*
G01X-2229843Y-916059D01*
G01X-2320753Y-892359D02*
G01X-2253543Y-892359D01*
G01X-2229843Y-1044373D02*
G01X-2229843Y-1030359D01*
G01X-2277829Y-1092358D02*
G01X-2229843Y-1044373D01*
G01X-2320753Y-1092358D02*
G01X-2277829Y-1092358D01*
G01X-2320753Y-1092358D02*
G01X-2322253Y-1093859D01*
G54D50*
G01X-2236083Y-1257028D02*
G01X-2237003Y-1256108D01*
G01X-1877943Y-567670D02*
G01X-1877003Y-568609D01*
G54D49*
G01X-2653120Y-1441630D02*
G01X-2610680Y-1441630D01*
G01X-2465767Y-852359D02*
G01X-2320753Y-852359D01*
G01X-2477626Y-840499D02*
G01X-2465767Y-852359D01*
G01X-2320753Y-772359D02*
G01X-2275333Y-772359D01*
G01X-3379624Y-546359D02*
G01X-3379624Y-524073D01*
G01X-3506624Y-524073D02*
G01X-3497921Y-515370D01*
G01X-3497921Y-494157D02*
G01X-3407836Y-404072D01*
G01X-3497921Y-515370D02*
G01X-3497921Y-494157D01*
G01X-3407836Y-404072D02*
G01X-3097627Y-404072D01*
G01X-1013121Y-1252997D02*
G01X-1054364Y-1294240D01*
G01X-1253119Y-1294240D01*
G01X-1633254Y-852359D02*
G01X-1543708Y-852359D01*
G01X-648121Y-970818D02*
G01X-648121Y-1032997D01*
G01X-1234124Y-848497D02*
G01X-1232544Y-848497D01*
G01X-1231844Y-847797D01*
G01X-1194399Y-847797D01*
G01X-839334Y-1252997D02*
G01X-818121Y-1252997D01*
G01X-1194399Y-847797D02*
G01X-1027626Y-1014570D01*
G01X-1027626Y-1064706D01*
G01X-2365766Y-652359D02*
G01X-2320753Y-652359D01*
G01X-2375766Y-692359D02*
G01X-2320753Y-692359D01*
G01X-2578670Y-861629D02*
G01X-2653120Y-861629D01*
G01X-2657626Y-990499D02*
G01X-2653120Y-995006D01*
G01X-2653120Y-1011629D01*
G01X-3506624Y-1222859D02*
G01X-3506624Y-1244072D01*
G01X-2967627Y-1180500D02*
G01X-3189052Y-1180500D01*
G01X-3252624Y-1244072D01*
G54D50*
G01X-1385975Y747221D02*
G01X-1442112Y747221D01*
G54D49*
G01X-3633624Y-1244072D02*
G01X-3692705Y-1303153D01*
G01X-3907026Y-1303153D01*
G01X-2507941Y-932359D02*
G01X-2578670Y-861629D01*
G01X-2320753Y-932359D02*
G01X-2507941Y-932359D01*
G01X-2117003Y-639915D02*
G01X-2132907Y-655819D01*
G01X-2117003Y-568609D02*
G01X-2117003Y-639915D01*
G01X-2988321Y-1671718D02*
G01X-2988321Y-1615402D01*
G01X-2796679Y-1735776D02*
G01X-2924263Y-1735776D01*
G01X-2988321Y-1671718D01*
G01X-3512904Y-1390818D02*
G01X-3567904Y-1335818D01*
G01X-2988321Y-1615402D02*
G01X-3212905Y-1390818D01*
G01X-3512904Y-1390818D01*
G01X-2796679Y-2031590D02*
G01X-2977132Y-2031590D01*
G01X-3627904Y-1740817D02*
G01X-3727904Y-1740817D01*
G01X-3862209Y-1606512D01*
G01X-3862209Y-1511513D01*
G01X-3877904Y-1495818D01*
G01X-2977132Y-2031590D02*
G01X-3047905Y-1960817D01*
G01X-3407905Y-1960817D01*
G01X-3627904Y-1740817D01*
G01X-3587904Y-1560818D02*
G01X-3802904Y-1560818D01*
G01X-2796679Y-1883683D02*
G01X-2807166Y-1873196D01*
G01X-3275526Y-1873196D01*
G01X-3587904Y-1560818D01*
G54D50*
G01X-1877943Y-365141D02*
G01X-1877943Y-567670D01*
G54D49*
G01X-1877943Y-365141D02*
G01X-1965643Y-277441D01*
G01X-1965643Y-231887D01*
G01X-1875174Y-1480047D02*
G01X-1938122Y-1542995D01*
G01X-1837908Y-1257012D02*
G01X-1837003Y-1256108D01*
G01X-2496677Y-1921187D02*
G01X-2534181Y-1883683D01*
G01X-2656674Y-1883683D01*
G01X-1798393Y-2039662D02*
G01X-1870693Y-2111962D01*
G01X-1992795Y-2111962D01*
G01X-2055495Y-2174662D02*
G01X-2088393Y-2174662D01*
G01X-2388392Y-2034657D02*
G01X-2388392Y-1960331D01*
G01X-2577906Y-1770817D01*
G01X-2238393Y-2034657D02*
G01X-2238393Y-1995331D01*
G01X-2342907Y-1890817D01*
G01X-2320753Y-732359D02*
G01X-2506366Y-732359D01*
G01X-2607906Y-630819D01*
G01X-3295164Y-630819D01*
G01X-3379624Y-546359D01*
G01X-3097627Y-404072D02*
G01X-3020879Y-480820D01*
G01X-2587306Y-480820D01*
G01X-2375766Y-692359D01*
G01X-932179Y-1910129D02*
G01X-917176Y-1910129D01*
G01X-851692Y-1975971D02*
G01X-1316337Y-1975971D01*
G01X-1382179Y-1910129D01*
G01X-837910Y-1490818D02*
G01X-837910Y-1553969D01*
G01X-778223Y-1613656D01*
G54D51*
G01X-794915Y-1375818D02*
G01X-794915Y-1351209D01*
G01X-765865Y-1322159D01*
G01X-765865Y-1164306D01*
G01X-778489Y-1151682D01*
G01X-798340Y-1151682D01*
G01X-819090Y-1130933D01*
G54D49*
G01X-701808Y-1354716D02*
G01X-837910Y-1490818D01*
G01X-567910Y-1319716D02*
G01X-602910Y-1354716D01*
G01X-701808Y-1354716D01*
G54D52*
G01X-1633254Y-1092358D02*
G01X-1540772Y-1092358D01*
G01X-1527708Y-1105423D01*
G54D49*
G01X-1633254Y-972359D02*
G01X-1720349Y-972359D01*
G01X-1723308Y-969399D01*
G01X-1797004Y-568609D02*
G01X-1791941Y-573672D01*
G01X-2253124Y-814073D02*
G01X-2254837Y-812359D01*
G01X-2320753Y-812359D01*
G01X-2275333Y-772359D02*
G01X-2243473Y-740499D01*
G01X-2237626Y-740499D01*
G01X-2132907Y-655819D02*
G01X-2198057Y-655819D01*
G01X-2211846Y-669609D01*
G01X-2726677Y-1075835D02*
G01X-2746663Y-1075835D01*
G01X-2747276Y-1076448D01*
G54D50*
G01X-2236083Y-1547718D02*
G01X-2236083Y-1257028D01*
G54D49*
G01X-2238122Y-1627998D02*
G01X-2238122Y-1683000D01*
G01X-2243122Y-1622998D02*
G01X-2238122Y-1627998D01*
G01X-2226362Y-1549757D02*
G01X-2238122Y-1549757D01*
G01X-2163122Y-1612998D02*
G01X-2226362Y-1549757D01*
G54D53*
G01X-2736349Y-1214073D02*
G01X-2752123Y-1214073D01*
G01X-2812123Y-1154073D01*
G54D49*
G01X-2653120Y-711630D02*
G01X-2653120Y-732843D01*
G01X-2493604Y-892359D01*
G01X-2320753Y-892359D01*
G01X-917176Y-1910129D02*
G01X-854704Y-1847656D01*
G01X-854704Y-1675491D01*
G01X-2096910Y-704819D02*
G01X-2077003Y-684912D01*
G01X-2077003Y-568609D01*
G01X-1543708Y-852359D02*
G01X-1393124Y-701775D01*
G01X-1561325Y-772359D02*
G01X-1559385Y-770419D01*
G01X-1633254Y-772359D02*
G01X-1561325Y-772359D01*
G01X-1697391Y-812359D02*
G01X-1707297Y-802453D01*
G01X-1633254Y-812359D02*
G01X-1697391Y-812359D01*
G01X-1633439Y-732174D02*
G01X-1705951Y-732174D01*
G01X-1633254Y-732359D02*
G01X-1633439Y-732174D01*
G01X-1797004Y-1256108D02*
G01X-1797004Y-1213184D01*
G01X-1837235Y-1172953D01*
G01X-1717004Y-1256108D02*
G01X-1437294Y-1535818D01*
G01X-1152909Y-1690817D02*
G01X-1090066Y-1753660D01*
G01X-1081184Y-1753660D01*
G01X-1152909Y-1565818D02*
G01X-1152909Y-1690817D01*
G01X-1182909Y-1535818D02*
G01X-1152909Y-1565818D01*
G01X-1437294Y-1535818D02*
G01X-1182909Y-1535818D01*
G01X-1282909Y-1680817D02*
G01X-1231184Y-1732542D01*
G01X-1231184Y-1753660D01*
G54D50*
G01X-1416989Y-977997D02*
G01X-1462628Y-932359D01*
G01X-1633254Y-932359D01*
G54D49*
G01X-1442908Y-1680817D02*
G01X-1430781Y-1680817D01*
G01X-1429694Y-1679730D01*
G01X-1392248Y-1679730D01*
G01X-1391161Y-1680817D01*
G01X-1282909Y-1680817D01*
G54D50*
G01X-1442112Y747221D02*
G01X-1478025Y711308D01*
G01X-1478025Y697978D01*
G54D49*
G01X-2083122Y-1645617D02*
G01X-2083122Y-1678000D01*
G01X-2088122Y-1683000D01*
G01X-2197003Y-1256108D02*
G01X-2197003Y-1299032D01*
G01X-2087907Y-1408128D02*
G01X-2087907Y-1542995D01*
G01X-3633624Y-524073D02*
G01X-3633624Y-494539D01*
G01X-3469583Y-330499D01*
G01X-3354763Y-1244072D02*
G01X-3379624Y-1244072D01*
G01X-2867756Y-1076448D02*
G01X-2898904Y-1045299D01*
G01X-2936349Y-1045299D01*
G01X-2967498Y-1076448D01*
G01X-2747276Y-1076448D02*
G01X-2867756Y-1076448D01*
G01X-2917627Y-1090499D02*
G01X-2933884Y-1106757D01*
G01X-3217448Y-1106757D01*
G01X-3354763Y-1244072D01*
G54D50*
G01X-2668914Y708769D02*
G01X-2655562Y708769D01*
G54D49*
G01X-2379396Y-624807D02*
G01X-2379396Y-638730D01*
G01X-2365766Y-652359D01*
G01X-2707692Y-330499D02*
G01X-2755402Y-282789D01*
G01X-2755402Y-279401D01*
G01X-3469583Y-330499D02*
G01X-2707692Y-330499D01*
G01X-2673704Y-330499D01*
G01X-2379396Y-624807D01*
G01X-1027626Y-1064706D02*
G01X-839334Y-1252997D01*
G54D51*
G01X-919877Y-1624417D02*
G01X-919877Y-1500780D01*
G01X-794915Y-1375818D01*
G54D49*
G01X-999631Y-1832581D02*
G01X-999631Y-1683791D01*
G01X-1087179Y-1920128D02*
G01X-999631Y-1832581D01*
G01X-3567904Y-1335818D02*
G01X-3567904Y-1203086D01*
G01X-3599691Y-1171299D01*
G01X-3761026Y-1171299D01*
G54D54*
G01X-1385975Y877218D02*
G01X-1556472Y877218D01*
G01X-1582121Y902868D01*
G54D50*
G01X-1585183Y708769D02*
G01X-1552227Y708769D01*
G01X-1448776Y812220D01*
G01X-1385975Y812220D01*
G01X-2655562Y708769D02*
G01X-2588332Y775998D01*
G01X-2576427Y775998D01*
G01X-2540206Y812220D01*
G01X-2491973Y812220D01*
G54D49*
G01X-2037003Y-568609D02*
G01X-2037003Y-714659D01*
G01X-1393124Y-701775D02*
G01X-1379069Y-701775D01*
G01X-1302522Y-778322D01*
G54D46*
G01X-1251570Y-414003D02*
G01X-1251570Y-562042D01*
G54D52*
G01X-1916023Y701318D02*
G01X-1916023Y598128D01*
G54D50*
G01X-2236083Y-567690D02*
G01X-2237003Y-568609D01*
G01X-2236083Y-380929D02*
G01X-2236083Y-567690D01*
G01X-3097012Y589939D02*
G01X-3028934Y589939D01*
G01X-2912994Y473999D02*
G01X-2781994Y473999D01*
G01X-3028934Y589939D02*
G01X-2912994Y473999D01*
G54D49*
G01X-1791941Y-573672D02*
G01X-1791941Y-677665D01*
G01X-1828935Y-714659D01*
G01X-1757004Y-568609D02*
G01X-1757004Y-735103D01*
G01X-1770151Y-748251D01*
G01X-1997003Y-568609D02*
G01X-1997003Y-671992D01*
G01X-1994272Y-674723D01*
G01X-1991803Y-674723D01*
G01X-1778195Y-1363488D02*
G01X-1837908Y-1303775D01*
G01X-1837908Y-1257012D01*
G01X-1938392Y-2174662D02*
G01X-1797458Y-2174662D01*
G01X-1703393Y-2080596D01*
G01X-1875174Y-1352095D02*
G01X-1875174Y-1480047D01*
G01X-1877003Y-1350266D02*
G01X-1875174Y-1352095D01*
G01X-1877003Y-1256108D02*
G01X-1877003Y-1350266D01*
G01X-1896286Y-1172953D02*
G01X-1897991Y-1174658D01*
G01X-1837235Y-1172953D02*
G01X-1896286Y-1172953D01*
G01X-2117003Y-1170107D02*
G01X-2117003Y-1256108D01*
G01X-2118613Y-1168497D02*
G01X-2117003Y-1170107D01*
G01X-2020422Y-1453816D02*
G01X-2020422Y-1782333D01*
G01X-2023423Y-1450815D02*
G01X-2020422Y-1453816D01*
G01X-1917003Y-1367447D02*
G01X-1917003Y-1256108D01*
G01X-1920375Y-1370818D02*
G01X-1917003Y-1367447D01*
G01X-1997003Y-1318323D02*
G01X-1997003Y-1256108D01*
G01X-1957003Y-1342246D02*
G01X-1957003Y-1256108D01*
G01X-1980575Y-1365818D02*
G01X-1957003Y-1342246D01*
G01X-2031996Y-1118998D02*
G01X-2031996Y-1145802D01*
G01X-2076996Y-1190802D01*
G01X-2076996Y-1256101D01*
G01X-2157003Y-1256108D02*
G01X-2157003Y-1196990D01*
G01X-2200996Y-1152998D01*
G54D50*
G01X-1393124Y-1154739D02*
G01X-1575505Y-972359D01*
G01X-1633254Y-972359D01*
G54D49*
G01X-1996816Y-1172998D02*
G01X-1985796Y-1172998D01*
G01X-2037003Y-1256108D02*
G01X-2037003Y-1213184D01*
G54D55*
G01X-3575493Y494999D02*
G01X-3458493Y377999D01*
G01X-3280993Y377999D01*
G01X-3237897Y421095D01*
G01X-3237897Y485022D01*
G54D49*
G01X-2044498Y-1365818D02*
G01X-1997003Y-1318323D01*
G01X-1992795Y-2111962D02*
G01X-2055495Y-2174662D01*
G01X-2037003Y-1213184D02*
G01X-1996816Y-1172998D01*
G01X-2197003Y-1299032D02*
G01X-2087907Y-1408128D01*
G54D46*
G01X-2021996Y127002D02*
G01X-1878484Y127002D01*
G54D49*
G01X-2020422Y-1782333D02*
G01X-1940434Y-1862321D01*
G54D52*
G01X-1998273Y747221D02*
G01X-1961926Y747221D01*
G01X-1916023Y701318D01*
G54D49*
G01X-668128Y405815D02*
G01X-528124Y265810D01*
G01X-528124Y255892D01*
G01X-456435Y255892D01*
G01X-396227Y316100D01*
G01X-2956982Y-2139815D02*
G01X-2764900Y-2139815D01*
G01X-2656674Y-2031590D01*
G01X-1749227Y208000D02*
G01X-1749227Y98190D01*
G01X-1749417Y98000D01*
G01X-1603997Y208000D02*
G01X-1634927Y208000D01*
G01X-1837003Y-568609D02*
G01X-1837996Y-567617D01*
G01X-1633254Y-692359D02*
G01X-1569116Y-692359D01*
G01X-1558117Y-703359D01*
G01X-1514997Y-619999D02*
G01X-1547358Y-652359D01*
G01X-1633254Y-652359D01*
G01X-1474117Y-658159D02*
G01X-1484797Y-647479D01*
G01X-1484797Y-347799D01*
G01X-1434067Y-205000D02*
G01X-1442997Y-205000D01*
G01X-1514997Y-276999D01*
G01X-1514997Y-619999D01*
G01X-1668001Y481892D02*
G01X-1809122Y340771D01*
G01X-1809122Y338004D01*
G01X-1837996Y-567617D02*
G01X-1837996Y-494999D01*
G01X-892275Y747221D02*
G01X-837221Y747221D01*
G01X-794998Y704999D01*
G01X-794998Y488999D01*
G01X-926998Y356999D02*
G01X-1161998Y356999D01*
G01X-1301997Y217000D01*
G01X-1458997Y217000D01*
G01X-794998Y488999D02*
G01X-926998Y356999D01*
G01X-1837996Y-494999D02*
G01X-1559997Y-217000D01*
G01X-1559997Y164000D01*
G01X-1603997Y208000D01*
G01X-1302522Y-778322D02*
G01X-1052998Y-778322D01*
G01X-900787Y-930533D01*
G01X-778012Y-930533D01*
G01X-685312Y-1023233D01*
G01X-677415Y-1023233D01*
G01X-725664Y-1763241D02*
G01X-735244Y-1753660D01*
G01X-778223Y-1753660D01*
G54D50*
G01X-420000Y-220000D02*
G01X-527294Y-112707D01*
G01X-527294Y-27521D01*
G01X-667298Y112484D01*
G01X-667298Y116700D01*
G54D49*
G01X-787987Y-1520001D02*
G01X-792709Y-1524723D01*
G01X-754776Y-1520001D02*
G01X-787987Y-1520001D01*
G01X-680000Y-1594776D02*
G01X-754776Y-1520001D01*
G01X-680000Y-1837908D02*
G01X-680000Y-1594776D01*
G01X-752221Y-1910129D02*
G01X-680000Y-1837908D01*
G01X-779218Y-1910129D02*
G01X-752221Y-1910129D01*
G01X-1484797Y-347799D02*
G01X-1311899Y-175000D01*
G54D50*
G01X-2076956Y-237031D02*
G01X-2092185Y-237031D01*
G01X-2227539Y-372384D01*
G54D52*
G01X-2121996Y392156D02*
G01X-2121996Y-191991D01*
G01X-2076956Y-237031D01*
G01X-2121996Y392156D02*
G01X-1916023Y598128D01*
G54D49*
G01X-1783074Y230690D02*
G01X-1760382Y207998D01*
G01X-1749227Y207998D01*
G01X-1730727Y207998D01*
G01X-2967498Y-1076448D02*
G01X-3360322Y-1076557D01*
G01X-3506624Y-1222859D01*
G01X-2088393Y-2034657D02*
G01X-2088393Y-1863925D01*
G01X-2048939Y-1824471D01*
G54D50*
G01X-2651010Y150998D02*
G01X-2651010Y131017D01*
G01X-2646995Y127002D01*
G54D49*
G01X-2646995Y127002D02*
G01X-2502774Y127002D01*
G54D50*
G01X-2630124Y-1288307D02*
G01X-2630124Y-1250123D01*
G01X-2432359Y-1052359D01*
G01X-2320753Y-1052359D01*
G54D49*
G01X-2653120Y-1011629D02*
G01X-2613849Y-972359D01*
G01X-2320753Y-972359D01*
G01X-2377163Y-1228769D02*
G01X-2377163Y-1547038D01*
G01X-2388793Y-1558668D01*
G01X-2409801Y-1186675D02*
G01X-2355485Y-1132358D01*
G01X-2580387Y-1590262D02*
G01X-2409801Y-1419676D01*
G01X-2409801Y-1186675D01*
G01X-2372359Y-1092358D02*
G01X-2320753Y-1092358D01*
G01X-2456834Y-1176834D02*
G01X-2372359Y-1092358D01*
G01X-2610680Y-1441630D02*
G01X-2456834Y-1287784D01*
G01X-2456834Y-1176834D01*
G01X-1940434Y-1862321D02*
G01X-1567726Y-1862321D01*
G01X-1757004Y-1256108D02*
G01X-1757004Y-1299032D01*
G01X-1527608Y-1307291D02*
G01X-1393124Y-1441775D01*
G01X-1527608Y-1307291D02*
G01X-1527608Y-1105523D01*
G54D50*
G01X-2630124Y-1154073D02*
G01X-2584073Y-1154073D01*
G01X-2560001Y-1130001D01*
G01X-2323111Y-1010001D02*
G01X-2320753Y-1012359D01*
G01X-2560001Y-1130001D02*
G01X-2560001Y-1030000D01*
G01X-2540001Y-1010001D01*
G01X-2323111Y-1010001D01*
G54D49*
G01X-1757004Y-1299032D02*
G01X-1700001Y-1356035D01*
G01X-1700001Y-1423725D01*
G01X-1442908Y-1680817D01*
G04 Track End*

M02*

