G04 Layer: InnerLayer4*
G04 EasyEDA Pro v2.2.28.1, 2024-10-13 15:23:24*
G04 Gerber Generator version 0.3*
G04 Scale: 100 percent, Rotated: No, Reflected: No*
G04 Dimensions in millimeters*
G04 Leading zeros omitted, absolute positions, 3 integers and 5 decimals*
%FSLAX35Y35*%
%MOMM*%
%ADD10C,5.2*%
%ADD11C,1.46*%
%ADD12C,0.45*%
%ADD13C,0.6*%
%ADD14C,0.8*%
%ADD15C,0.5*%
%ADD16C,0.5511*%
%ADD17C,0.55*%
G75*


G04 PlaneZone Start*
G36*
G01X-3833463Y-2658389D02*
G02X-4132193Y-2359659I0J298730D01*
G01X-4132193Y1340341D01*
G02X-3833463Y1639071I298730J0D01*
G01X-133463Y1639071D01*
G02X165267Y1340341I0J-298730D01*
G01X165267Y-2359659D01*
G02X-133463Y-2658389I-298730J0D01*
G01X-3833463Y-2658389D01*
G37*
%LPC*%
G36*
G01X-3955180Y-1303153D02*
G03X-3858872Y-1303153I48154J0D01*
G03X-3955180Y-1303153I-48154J0D01*
G37*
G36*
G01X-3934148Y-1073997D02*
G03X-3837839Y-1073997I48154J0D01*
G03X-3934148Y-1073997I-48154J0D01*
G37*
G36*
G01X-3926058Y-1495818D02*
G03X-3829750Y-1495818I48154J0D01*
G03X-3926058Y-1495818I-48154J0D01*
G37*
G36*
G01X-3851058Y-1560818D02*
G03X-3754750Y-1560818I48154J0D01*
G03X-3851058Y-1560818I-48154J0D01*
G37*
G36*
G01X-3809180Y-1171299D02*
G03X-3712872Y-1171299I48154J0D01*
G03X-3809180Y-1171299I-48154J0D01*
G37*
G36*
G01X-3805381Y-883657D02*
G03X-3709073Y-883657I48154J0D01*
G03X-3805381Y-883657I-48154J0D01*
G37*
G36*
G01X-3805109Y-610272D02*
G03X-3708801Y-610272I48154J0D01*
G03X-3805109Y-610272I-48154J0D01*
G37*
G36*
G01X-3699259Y-1515617D02*
G03X-3602950Y-1515617I48154J0D01*
G03X-3699259Y-1515617I-48154J0D01*
G37*
G36*
G01X-3623647Y494999D02*
G03X-3527339Y494999I48154J0D01*
G03X-3623647Y494999I-48154J0D01*
G37*
G36*
G01X-3525510Y154435D02*
G03X-3414202Y154435I55654J0D01*
G03X-3525510Y154435I-55654J0D01*
G37*
G36*
G01X-3376275Y416655D02*
G03X-3371335Y527764I241J55653D01*
G03X-3375314Y638911I-4219J55494D01*
G03X-3380254Y527802I-241J-55653D01*
G03X-3376275Y416655I4219J-55494D01*
G37*
G36*
G01X-3295913Y775854D02*
G03X-3184605Y775854I55654J0D01*
G03X-3295913Y775854I-55654J0D01*
G37*
G36*
G01X-3237897Y436868D02*
G03X-3221170Y530177I0J48154D01*
G03X-3237897Y638912I-16727J53081D01*
G03X-3254625Y530177I0J-55654D01*
G03X-3237897Y436868I16727J-45155D01*
G37*
G36*
G01X-3292148Y-2126996D02*
G03X-3185839Y-2126996I53154J0D01*
G03X-3292148Y-2126996I-53154J0D01*
G37*
G36*
G01X-3158148Y1306997D02*
G03X-3061840Y1306997I48154J0D01*
G03X-3158148Y1306997I-48154J0D01*
G37*
G36*
G01X-3151831Y779326D02*
G03X-3040523Y779326I55654J0D01*
G03X-3151831Y779326I-55654J0D01*
G37*
G36*
G01X-3145166Y589939D02*
G03X-3048858Y589939I48154J0D01*
G03X-3145166Y589939I-48154J0D01*
G37*
G36*
G01X-3086148Y-2256995D02*
G03X-2979840Y-2256995I53154J0D01*
G03X-3086148Y-2256995I-53154J0D01*
G37*
G36*
G01X-3081832Y-1708817D02*
G03X-2985524Y-1708817I48154J0D01*
G03X-3081832Y-1708817I-48154J0D01*
G37*
G36*
G01X-3015781Y-1180500D02*
G03X-2919472Y-1180500I48154J0D01*
G03X-3015781Y-1180500I-48154J0D01*
G37*
G36*
G01X-3005136Y-2139815D02*
G03X-2908828Y-2139815I48154J0D01*
G03X-3005136Y-2139815I-48154J0D01*
G37*
G36*
G01X-2965781Y-1090499D02*
G03X-2869473Y-1090499I48154J0D01*
G03X-2965781Y-1090499I-48154J0D01*
G37*
G36*
G01X-2945765Y658579D02*
G03X-2849457Y658579I48154J0D01*
G03X-2945765Y658579I-48154J0D01*
G37*
G36*
G01X-2881281Y-570419D02*
G03X-2784973Y-570419I48154J0D01*
G03X-2881281Y-570419I-48154J0D01*
G37*
G36*
G01X-2861278Y-1294073D02*
G03X-2764970Y-1294073I48154J0D01*
G03X-2861278Y-1294073I-48154J0D01*
G37*
G36*
G01X-2845780Y-380499D02*
G03X-2749472Y-380499I48154J0D01*
G03X-2845780Y-380499I-48154J0D01*
G37*
G36*
G01X-2824290Y473014D02*
G03X-2727982Y473014I48154J0D01*
G03X-2824290Y473014I-48154J0D01*
G37*
G36*
G01X-2803556Y-279401D02*
G03X-2707248Y-279401I48154J0D01*
G03X-2803556Y-279401I-48154J0D01*
G37*
G36*
G01X-2784503Y-1214073D02*
G03X-2688195Y-1214073I48154J0D01*
G03X-2784503Y-1214073I-48154J0D01*
G37*
G36*
G01X-2774831Y-1075835D02*
G03X-2678522Y-1075835I48154J0D01*
G03X-2774831Y-1075835I-48154J0D01*
G37*
G36*
G01X-2741017Y-2035469D02*
G03X-2644709Y-2035469I48154J0D01*
G03X-2741017Y-2035469I-48154J0D01*
G37*
G36*
G01X-2740983Y-1679143D02*
G03X-2644674Y-1679143I48154J0D01*
G03X-2740983Y-1679143I-48154J0D01*
G37*
G36*
G01X-2714581Y-575621D02*
G03X-2618273Y-575621I48154J0D01*
G03X-2714581Y-575621I-48154J0D01*
G37*
G36*
G01X-2705780Y-990499D02*
G03X-2609472Y-990499I48154J0D01*
G03X-2705780Y-990499I-48154J0D01*
G37*
G36*
G01X-2703010Y867209D02*
G03X-2601702Y867209I50654J0D01*
G03X-2703010Y867209I-50654J0D01*
G37*
G36*
G01X-2701274Y-861629D02*
G03X-2604966Y-861629I48154J0D01*
G03X-2701274Y-861629I-48154J0D01*
G37*
G36*
G01X-2701194Y-1590262D02*
G03X-2604886Y-1590262I48154J0D01*
G03X-2701194Y-1590262I-48154J0D01*
G37*
G36*
G01X-2699164Y150998D02*
G03X-2602856Y150998I48154J0D01*
G03X-2699164Y150998I-48154J0D01*
G37*
G36*
G01X-2639045Y704013D02*
G03X-2542736Y704013I48154J0D01*
G03X-2639045Y704013I-48154J0D01*
G37*
G36*
G01X-2626060Y-1770817D02*
G03X-2529752Y-1770817I48154J0D01*
G03X-2626060Y-1770817I-48154J0D01*
G37*
G36*
G01X-2571259Y-1279382D02*
G03X-2474951Y-1279382I48154J0D01*
G03X-2571259Y-1279382I-48154J0D01*
G37*
G36*
G01X-2544831Y-1921187D02*
G03X-2448523Y-1921187I48154J0D01*
G03X-2544831Y-1921187I-48154J0D01*
G37*
G36*
G01X-2543261Y747224D02*
G03X-2446953Y747224I48154J0D01*
G03X-2543261Y747224I-48154J0D01*
G37*
G36*
G01X-2540127Y877218D02*
G03X-2443819Y877218I48154J0D01*
G03X-2540127Y877218I-48154J0D01*
G37*
G36*
G01X-2525780Y-840499D02*
G03X-2429472Y-840499I48154J0D01*
G03X-2525780Y-840499I-48154J0D01*
G37*
G36*
G01X-2476118Y113868D02*
G03X-2449448Y202116I-0J48154D01*
G03X-2476119Y290363I-26671J40093D01*
G03X-2502789Y202115I0J-48154D01*
G03X-2476118Y113868I26671J-40093D01*
G37*
G36*
G01X-2470149Y408594D02*
G03X-2373841Y408594I48154J0D01*
G03X-2470149Y408594I-48154J0D01*
G37*
G36*
G01X-2436947Y-1558668D02*
G03X-2340638Y-1558668I48154J0D01*
G03X-2436947Y-1558668I-48154J0D01*
G37*
G36*
G01X-2436547Y-2169659D02*
G03X-2340238Y-2169659I48154J0D01*
G03X-2436547Y-2169659I-48154J0D01*
G37*
G36*
G01X-2425690Y994058D02*
G03X-2329382Y994058I48154J0D01*
G03X-2425690Y994058I-48154J0D01*
G37*
G36*
G01X-2423776Y1196408D02*
G03X-2322469Y1196408I50654J0D01*
G03X-2423776Y1196408I-50654J0D01*
G37*
G36*
G01X-2391061Y-1890817D02*
G03X-2294753Y-1890817I48154J0D01*
G03X-2391061Y-1890817I-48154J0D01*
G37*
G36*
G01X-2274820Y-771084D02*
G03X-2263049Y-861193I21697J-42989D01*
G03X-2215929Y-783488I9925J47120D01*
G03X-2196600Y-715286I-21697J42989D01*
G03X-2195389Y-624355I-15246J45677D01*
G03X-2252872Y-694822I-16457J-45255D01*
G03X-2274820Y-771084I15246J-45677D01*
G37*
G36*
G01X-2297366Y1093108D02*
G03X-2201058Y1093108I48154J0D01*
G03X-2297366Y1093108I-48154J0D01*
G37*
G36*
G01X-2286547Y-2169659D02*
G03X-2190238Y-2169659I48154J0D01*
G03X-2286547Y-2169659I-48154J0D01*
G37*
G36*
G01X-2277997Y-1030359D02*
G03X-2181689Y-1030359I48154J0D01*
G03X-2277997Y-1030359I-48154J0D01*
G37*
G36*
G01X-2277997Y-916059D02*
G03X-2181689Y-916059I48154J0D01*
G03X-2277997Y-916059I-48154J0D01*
G37*
G36*
G01X-2155421Y-1137448D02*
G03X-2248319Y-1144095I-45575J-15549D01*
G03X-2164188Y-1184046I47324J-8903D01*
G03X-2071289Y-1177400I45575J15549D01*
G03X-2155421Y-1137448I-47324J8903D01*
G37*
G36*
G01X-2211276Y-1612998D02*
G03X-2114968Y-1612998I48154J0D01*
G03X-2211276Y-1612998I-48154J0D01*
G37*
G36*
G01X-2022157Y-1498952D02*
G03X-1995456Y-1411615I-1266J48137D01*
G03X-1953579Y-1405693I14881J45797D01*
G03X-1872386Y-1374804I33204J34875D01*
G03X-1947371Y-1330943I-47989J3986D01*
G03X-2012536Y-1329800I-33204J-34875D01*
G03X-2086186Y-1341716I-31961J-36018D01*
G03X-2176061Y-1365729I-41721J-24045D01*
G03X-2086219Y-1389863I48154J-33D01*
G03X-2053413Y-1413140I41721J24045D01*
G03X-2022157Y-1498952I29990J-37675D01*
G37*
G36*
G01X-1955716Y-642839D02*
G03X-2039259Y-666558I-36087J-31884D01*
G03X-2060898Y-672852I2256J-48101D01*
G03X-2144428Y-697015I-36012J-31968D01*
G03X-2073015Y-746626I47517J-7805D01*
G03X-1989546Y-722824I36012J31968D01*
G03X-1955716Y-642839I-2256J48101D01*
G37*
G36*
G01X-2125110Y-237031D02*
G03X-2028802Y-237031I48154J0D01*
G03X-2125110Y-237031I-48154J0D01*
G37*
G36*
G01X-2097093Y-1824471D02*
G03X-2000785Y-1824471I48154J0D01*
G03X-2097093Y-1824471I-48154J0D01*
G37*
G36*
G01X-1999199Y-1219249D02*
G03X-1942267Y-1193590I13403J46251D01*
G03X-1849845Y-1175568I44276J18932D01*
G03X-1941519Y-1154065I-48145J910D01*
G03X-1984201Y-1124870I-44276J-18932D01*
G03X-2063301Y-1082408I-47795J5872D01*
G03X-2033590Y-1167125I31305J-36590D01*
G03X-1999199Y-1219249I47795J-5872D01*
G37*
G36*
G01X-2061277Y1165626D02*
G03X-1929969Y1165626I65654J0D01*
G03X-2061277Y1165626I-65654J0D01*
G37*
G36*
G01X-2013797Y-231887D02*
G03X-1917489Y-231887I48154J0D01*
G03X-2013797Y-231887I-48154J0D01*
G37*
G36*
G01X-2001687Y125025D02*
G03X-1900379Y125025I50654J0D01*
G03X-2001687Y125025I-50654J0D01*
G37*
G36*
G01X-1972253Y-2049213D02*
G03X-1875945Y-2049213I48154J0D01*
G03X-1972253Y-2049213I-48154J0D01*
G37*
G36*
G01X-1929752Y-1511473D02*
G03X-1833443Y-1511473I48154J0D01*
G03X-1929752Y-1511473I-48154J0D01*
G37*
G36*
G01X-1898762Y1345297D02*
G03X-1802454Y1345297I48154J0D01*
G03X-1898762Y1345297I-48154J0D01*
G37*
G36*
G01X-1782552Y-701721D02*
G03X-1870744Y-690767I-46384J-12938D01*
G03X-1816535Y-761189I41809J-23892D01*
G03X-1729553Y-774147I46384J12938D01*
G03X-1659240Y-720476I23602J41973D01*
G03X-1746549Y-706278I-46712J-11698D01*
G03X-1782552Y-701721I-23602J-41973D01*
G37*
G36*
G01X-1857276Y338004D02*
G03X-1760968Y338004I48154J0D01*
G03X-1857276Y338004I-48154J0D01*
G37*
G36*
G01X-1851150Y481999D02*
G03X-1754842Y481999I48154J0D01*
G03X-1851150Y481999I-48154J0D01*
G37*
G36*
G01X-1846547Y-2039662D02*
G03X-1750239Y-2039662I48154J0D01*
G03X-1846547Y-2039662I-48154J0D01*
G37*
G36*
G01X-1831228Y230690D02*
G03X-1734920Y230690I48154J0D01*
G03X-1831228Y230690I-48154J0D01*
G37*
G36*
G01X-1826349Y-1363488D02*
G03X-1730041Y-1363488I48154J0D01*
G03X-1826349Y-1363488I-48154J0D01*
G37*
G36*
G01X-1771463Y-969399D02*
G03X-1675154Y-969399I48154J0D01*
G03X-1771463Y-969399I-48154J0D01*
G37*
G36*
G01X-1751547Y-2080596D02*
G03X-1655239Y-2080596I48154J0D01*
G03X-1751547Y-2080596I-48154J0D01*
G37*
G36*
G01X-1630275Y902868D02*
G03X-1533967Y902868I48154J0D01*
G03X-1630275Y902868I-48154J0D01*
G37*
G36*
G01X-1615880Y-1862321D02*
G03X-1519572Y-1862321I48154J0D01*
G03X-1615880Y-1862321I-48154J0D01*
G37*
G36*
G01X-1431713Y-635341D02*
G03X-1519263Y-674913I-42405J-22818D01*
G03X-1588833Y-666274I-38854J-28447D01*
G03X-1593301Y-736236I30716J-37085D01*
G03X-1560296Y-818565I33916J-34184D01*
G03X-1524201Y-737543I911J48145D01*
G03X-1512971Y-686605I-33916J34184D01*
G03X-1431713Y-635341I38854J28447D01*
G37*
G36*
G01X-1575862Y-1105423D02*
G03X-1479554Y-1105423I48154J0D01*
G03X-1575862Y-1105423I-48154J0D01*
G37*
G36*
G01X-1575151Y-2129996D02*
G03X-1478843Y-2129996I48154J0D01*
G03X-1575151Y-2129996I-48154J0D01*
G37*
G36*
G01X-1526179Y697978D02*
G03X-1429871Y697978I48154J0D01*
G03X-1526179Y697978I-48154J0D01*
G37*
G36*
G01X-1507151Y217000D02*
G03X-1410843Y217000I48154J0D01*
G03X-1507151Y217000I-48154J0D01*
G37*
G36*
G01X-1465143Y-977997D02*
G03X-1368835Y-977997I48154J0D01*
G03X-1465143Y-977997I-48154J0D01*
G37*
G36*
G01X-1459125Y-1724930D02*
G03X-1362817Y-1724930I48154J0D01*
G03X-1459125Y-1724930I-48154J0D01*
G37*
G36*
G01X-1431144Y-1624697D02*
G03X-1334836Y-1624697I48154J0D01*
G03X-1431144Y-1624697I-48154J0D01*
G37*
G36*
G01X-1430333Y-2050396D02*
G03X-1334025Y-2050396I48154J0D01*
G03X-1430333Y-2050396I-48154J0D01*
G37*
G36*
G01X-1363779Y1161408D02*
G03X-1262471Y1161408I50654J0D01*
G03X-1363779Y1161408I-50654J0D01*
G37*
G36*
G01X-1358616Y-590605D02*
G03X-1257308Y-590605I50654J0D01*
G03X-1358616Y-590605I-50654J0D01*
G37*
G36*
G01X-1337436Y1038880D02*
G03X-1236128Y1038880I50654J0D01*
G03X-1337436Y1038880I-50654J0D01*
G37*
G36*
G01X-1288024Y-1442301D02*
G03X-1191716Y-1442301I48154J0D01*
G03X-1288024Y-1442301I-48154J0D01*
G37*
G36*
G01X-1280333Y-1910129D02*
G03X-1184025Y-1910129I48154J0D01*
G03X-1280333Y-1910129I-48154J0D01*
G37*
G36*
G01X-1280333Y-2050133D02*
G03X-1184025Y-2050133I48154J0D01*
G03X-1280333Y-2050133I-48154J0D01*
G37*
G36*
G01X-1279338Y-1618658D02*
G03X-1183030Y-1618658I48154J0D01*
G03X-1279338Y-1618658I-48154J0D01*
G37*
G36*
G01X-1140657Y-1615613D02*
G03X-1044349Y-1615613I48154J0D01*
G03X-1140657Y-1615613I-48154J0D01*
G37*
G36*
G01X-1130333Y-2045131D02*
G03X-1034025Y-2045131I48154J0D01*
G03X-1130333Y-2045131I-48154J0D01*
G37*
G36*
G01X-908807Y-1784648D02*
G03X-955438Y-1702917I-32224J35783D01*
G03X-1031855Y-1648008I-44193J19126D01*
G03X-985223Y-1729740I32224J-35783D01*
G03X-908807Y-1784648I44193J-19126D01*
G37*
G36*
G01X-1030579Y-1042803D02*
G03X-934271Y-1042803I48154J0D01*
G03X-1030579Y-1042803I-48154J0D01*
G37*
G36*
G01X-1021393Y-1183015D02*
G03X-925085Y-1183015I48154J0D01*
G03X-1021393Y-1183015I-48154J0D01*
G37*
G36*
G01X-981064Y-2050817D02*
G03X-884755Y-2050817I48154J0D01*
G03X-981064Y-2050817I-48154J0D01*
G37*
G36*
G01X-976193Y-1350933D02*
G03X-879885Y-1350933I48154J0D01*
G03X-976193Y-1350933I-48154J0D01*
G37*
G36*
G01X-816801Y-1705194D02*
G03X-872121Y-1630598I-37902J29703D01*
G03X-957779Y-1594715I-47756J6180D01*
G03X-902459Y-1669311I37902J-29703D01*
G03X-816801Y-1705194I47756J-6180D01*
G37*
G36*
G01X-899846Y-1975971D02*
G03X-803538Y-1975971I48154J0D01*
G03X-899846Y-1975971I-48154J0D01*
G37*
G36*
G01X-867244Y-1130933D02*
G03X-770935Y-1130933I48154J0D01*
G03X-867244Y-1130933I-48154J0D01*
G37*
G36*
G01X-840863Y-1524723D02*
G03X-744555Y-1524723I48154J0D01*
G03X-840863Y-1524723I-48154J0D01*
G37*
G36*
G01X-827372Y-2066353D02*
G03X-731064Y-2066353I48154J0D01*
G03X-827372Y-2066353I-48154J0D01*
G37*
G36*
G01X-795527Y-897249D02*
G03X-699219Y-897249I48154J0D01*
G03X-795527Y-897249I-48154J0D01*
G37*
G36*
G01X-774041Y-1442717D02*
G03X-677733Y-1442717I48154J0D01*
G03X-774041Y-1442717I-48154J0D01*
G37*
G36*
G01X-773818Y-1763241D02*
G03X-677509Y-1763241I48154J0D01*
G03X-773818Y-1763241I-48154J0D01*
G37*
G36*
G01X-723390Y1023156D02*
G03X-592082Y1023156I65654J0D01*
G03X-723390Y1023156I-65654J0D01*
G37*
G36*
G01X-716067Y559178D02*
G03X-619758Y559178I48154J0D01*
G03X-716067Y559178I-48154J0D01*
G37*
G36*
G01X-715452Y272005D02*
G03X-619144Y272005I48154J0D01*
G03X-715452Y272005I-48154J0D01*
G37*
G36*
G01X-667877Y160877D02*
G03X-571569Y160877I48154J0D01*
G03X-667877Y160877I-48154J0D01*
G37*
G36*
G01X-616064Y-1319716D02*
G03X-519756Y-1319716I48154J0D01*
G03X-616064Y-1319716I-48154J0D01*
G37*
G36*
G01X-576064Y574178D02*
G03X-479756Y574178I48154J0D01*
G03X-576064Y574178I-48154J0D01*
G37*
G36*
G01X-503275Y-1384997D02*
G03X-406967Y-1384997I48154J0D01*
G03X-503275Y-1384997I-48154J0D01*
G37*
G36*
G01X-498975Y-1262997D02*
G03X-402667Y-1262997I48154J0D01*
G03X-498975Y-1262997I-48154J0D01*
G37*
G36*
G01X-468154Y-220000D02*
G03X-371846Y-220000I48154J0D01*
G03X-468154Y-220000I-48154J0D01*
G37*
G36*
G01X-444381Y316100D02*
G03X-348073Y316100I48154J0D01*
G03X-444381Y316100I-48154J0D01*
G37*
G36*
G01X-358153Y-1577997D02*
G03X-261845Y-1577997I48154J0D01*
G03X-358153Y-1577997I-48154J0D01*
G37*
G36*
G01X-336575Y-1322997D02*
G03X-240267Y-1322997I48154J0D01*
G03X-336575Y-1322997I-48154J0D01*
G37*
G36*
G01X-245118Y-1193962D02*
G03X-148809Y-1193962I48154J0D01*
G03X-245118Y-1193962I-48154J0D01*
G37*
G36*
G01X-168275Y-1389997D02*
G03X-71967Y-1389997I48154J0D01*
G03X-168275Y-1389997I-48154J0D01*
G37*
G36*
G01X-147153Y-1489370D02*
G03X-50845Y-1489370I48154J0D01*
G03X-147153Y-1489370I-48154J0D01*
G37*
%LPD*%
G04 PlaneZone End*

G04 Pad Start*
G54D10*
G01X-243463Y-2249659D03*
G01X-3723463Y-2249659D03*
G01X-243463Y1230341D03*
G01X-3723463Y1230341D03*
G54D11*
G01X-498121Y-1602997D03*
G01X-498121Y-1122998D03*
G01X-68122Y-1122998D03*
G01X-68122Y-1602997D03*
G04 Pad End*

G04 Via Start*
G54D12*
G01X-1761926Y692775D03*
G01X-1809122Y338004D03*
G01X-2476118Y242209D03*
G01X-396227Y316100D03*
G01X-2653040Y-1590262D03*
G01X-288421Y-1322997D03*
G01X-120121Y-1389997D03*
G01X-747373Y-897249D03*
G01X-639199Y-1223997D03*
G01X-973271Y244290D03*
G01X-1077988Y539238D03*
G01X-1582121Y902868D03*
G01X-2083122Y-1645617D03*
G01X-2243122Y-1622998D03*
G01X-2403122Y-1722998D03*
G01X-2793122Y-1590262D03*
G01X-1881597Y-1511473D03*
G01X-2793125Y-1441630D03*
G01X-2793124Y-714072D03*
G01X-2793124Y-864073D03*
G01X-2793122Y-992997D03*
G01X-823462Y395341D03*
G01X-2229843Y-1030359D03*
G01X-2229843Y-916059D03*
G01X-3352616Y692013D03*
G01X-1707297Y-802453D03*
G01X-1609803Y-55919D03*
G01X-1658063Y-38139D03*
G01X-1609803Y-3425D03*
G01X-1658063Y16048D03*
G01X-1609803Y49068D03*
G01X-1658063Y70235D03*
G01X-1609803Y101561D03*
G01X-1658063Y124421D03*
G01X-1849028Y-201565D03*
G01X-2476118Y162022D03*
G01X-2388793Y-1558668D03*
G01X-667298Y272005D03*
G01X-2118613Y-1168497D03*
G01X-854679Y-2242658D03*
G01X-1567726Y-1862321D03*
G01X-1053283Y-1160161D03*
G01X-1248109Y-1105399D03*
G01X-1253121Y-992997D03*
G01X-1416989Y-977997D03*
G01X-1902507Y-1620695D03*
G01X-2163122Y-1612998D03*
G01X-2477626Y-840499D03*
G01X-2253124Y-814073D03*
G01X-2237626Y-740499D03*
G01X-2917627Y-1090499D03*
G01X-3907026Y-1303153D03*
G01X-2736349Y-1214073D03*
G01X-2813124Y-1294073D03*
G01X-1393124Y-1294240D03*
G01X-2023423Y-1450815D03*
G01X-2797626Y-380499D03*
G01X-2666427Y-575621D03*
G01X-2653120Y-861629D03*
G01X-2657626Y-990499D03*
G01X-2833127Y-570419D03*
G01X-2726677Y-1075835D03*
G01X-2967627Y-1180500D03*
G01X-3036568Y871497D03*
G54D13*
G01X-3469856Y154435D03*
G54D14*
G01X-657736Y1023156D03*
G01X-1995623Y1165626D03*
G54D15*
G01X-2652356Y867209D03*
G01X-2373123Y1196408D03*
G54D12*
G01X-1478025Y697978D03*
G54D15*
G01X-1071236Y1188497D03*
G54D12*
G01X-2495107Y747224D03*
G01X-2491973Y877218D03*
G01X-2377536Y994058D03*
G54D15*
G01X-1313125Y1161408D03*
G01X-1286782Y1038880D03*
G54D12*
G01X-3756955Y-610272D03*
G01X-3757227Y-883657D03*
G01X-3761026Y-1171299D03*
G01X-3802904Y-1560818D03*
G01X-3877904Y-1495818D03*
G01X-3033678Y-1708817D03*
G01X-1907908Y779178D03*
G01X-2892529Y587878D03*
G01X-2249212Y1093108D03*
G01X-2096910Y-704819D03*
G01X-2037003Y-714659D03*
G01X-2211846Y-669609D03*
G01X-2076956Y-237031D03*
G01X-1965643Y-231887D03*
G54D13*
G01X-3376035Y472309D03*
G54D12*
G01X-1850608Y1345297D03*
G01X-527910Y574178D03*
G01X-667913Y559178D03*
G01X-2692828Y-1679143D03*
G01X-2496677Y-1921187D03*
G01X-2956982Y-2139815D03*
G01X-2388392Y-2169659D03*
G01X-2238393Y-2169659D03*
G01X-1798393Y-2039662D03*
G01X-1703393Y-2080596D03*
G01X-2044498Y-1365818D03*
G01X-1980575Y-1365818D03*
G01X-1920375Y-1370818D03*
G01X-1778195Y-1363488D03*
G01X-2577906Y-1770817D03*
G01X-2342907Y-1890817D03*
G01X-1924099Y-2049213D03*
G01X-2048939Y-1824471D03*
G01X-2692863Y-2035469D03*
G54D13*
G01X-3237897Y583258D03*
G01X-3375555Y583258D03*
G54D12*
G01X-1239870Y-1442301D03*
G01X-1382990Y-1624697D03*
G01X-1231184Y-1618658D03*
G01X-1092503Y-1615613D03*
G01X-919877Y-1624417D03*
G01X-1410971Y-1724930D03*
G01X-941030Y-1748865D03*
G01X-1232179Y-1910129D03*
G01X-779218Y-2066353D03*
G01X-1082179Y-2045131D03*
G01X-1232179Y-2050133D03*
G01X-1382179Y-2050396D03*
G01X-819090Y-1130933D03*
G01X-973239Y-1183015D03*
G01X-928039Y-1350933D03*
G01X-725887Y-1442717D03*
G01X-792709Y-1524723D03*
G01X-854704Y-1675491D03*
G01X-521531Y-1701979D03*
G01X-650610Y-1553275D03*
G01X-639199Y-1130933D03*
G01X-579715Y-983233D03*
G01X-999631Y-1683791D03*
G01X-851692Y-1975971D03*
G01X-567910Y-1319716D03*
G01X-1558117Y-703359D03*
G01X-1705951Y-732174D03*
G01X-1559385Y-770419D03*
G01X-1991803Y-674723D03*
G01X-1828935Y-714659D03*
G01X-1770151Y-748251D03*
G01X-1527708Y-1105423D03*
G01X-982425Y-1042803D03*
G01X-455121Y-1384997D03*
G01X-1897991Y-1174658D03*
G01X-932909Y-2050817D03*
G01X-2127907Y-1365762D03*
G54D13*
G01X-3240259Y775854D03*
G01X-3096177Y779326D03*
G54D12*
G01X-2897611Y658579D03*
G01X-2590890Y704013D03*
G01X-3097012Y589939D03*
G01X-2755402Y-279401D03*
G01X-2577425Y-361856D03*
G54D17*
G01X-3032994Y-2256995D03*
G01X-3238994Y-2126996D03*
G54D12*
G01X-3985359Y-91841D03*
G01X-3935359Y-146841D03*
G01X-3835359Y-146841D03*
G01X-3885359Y-91841D03*
G01X-3785359Y-91841D03*
G01X-3735359Y-146841D03*
G01X-3701359Y-91841D03*
G01X-3571359Y-90841D03*
G01X-3535359Y-146841D03*
G01X-3485359Y-91841D03*
G01X-3435359Y-146841D03*
G01X-3385359Y-91841D03*
G01X-3335359Y-146841D03*
G01X-3285359Y-91841D03*
G01X-3235359Y-146841D03*
G01X-3185359Y-91841D03*
G01X-3135359Y-146841D03*
G01X-3035359Y-146841D03*
G01X-3085359Y-91841D03*
G01X-2985359Y-91841D03*
G01X-2935359Y-146841D03*
G01X-2785359Y-91841D03*
G01X-2735359Y-146841D03*
G01X-2685359Y-91841D03*
G01X-2385359Y-91841D03*
G01X-2335359Y-146841D03*
G01X-2235359Y-146841D03*
G01X-2285359Y-91841D03*
G01X-2185359Y-91841D03*
G01X-2035359Y-146841D03*
G01X-1985359Y-91841D03*
G01X-1935359Y-146841D03*
G01X-1885359Y-91841D03*
G01X-1835359Y-146841D03*
G01X-1785359Y-91841D03*
G01X-1479359Y-99841D03*
G01X-1385359Y-91841D03*
G01X-1235359Y-146841D03*
G01X-1185359Y-91841D03*
G01X-1135359Y-146841D03*
G01X-1085359Y-91841D03*
G01X-1035359Y-146841D03*
G01X-985359Y-91841D03*
G01X-935359Y-146841D03*
G01X-885359Y-91841D03*
G01X-835359Y-146841D03*
G01X-461215Y-109144D03*
G01X-385359Y-91841D03*
G01X-335359Y-146841D03*
G01X-285359Y-91841D03*
G01X-235359Y-146841D03*
G01X-185359Y-91841D03*
G01X-135359Y-146841D03*
G01X-85358Y-91841D03*
G01X-35359Y-146841D03*
G01X14642Y-91841D03*
G01X64641Y-146841D03*
G01X114642Y-91841D03*
G01X-2374608Y877724D03*
G01X-2309608Y877724D03*
G01X-2244608Y877724D03*
G01X-2179608Y877724D03*
G01X-2114608Y877724D03*
G01X-2114608Y617724D03*
G01X-2179608Y682724D03*
G01X-2244608Y682724D03*
G01X-2309608Y682724D03*
G01X-2374608Y682724D03*
G01X-2244608Y747724D03*
G01X-2309608Y747724D03*
G01X-2374608Y747724D03*
G01X-2114608Y747724D03*
G01X-2179608Y747724D03*
G01X-2114608Y812724D03*
G01X-2179608Y812724D03*
G01X-2114608Y682724D03*
G01X-2374608Y617724D03*
G01X-2309608Y617724D03*
G01X-2244608Y812724D03*
G01X-2179608Y617724D03*
G01X-2244608Y617724D03*
G01X-2374608Y812724D03*
G01X-2309608Y812724D03*
G01X-1268610Y877724D03*
G01X-1268610Y812724D03*
G01X-1268610Y747724D03*
G01X-1268610Y682724D03*
G01X-1268610Y617724D03*
G01X-1203610Y617724D03*
G01X-1203610Y682724D03*
G01X-1203610Y747724D03*
G01X-1203610Y812724D03*
G01X-1203610Y877724D03*
G01X-1138610Y877724D03*
G01X-1138610Y812724D03*
G01X-1138610Y747724D03*
G01X-1138610Y682724D03*
G01X-1138610Y617724D03*
G01X-1073610Y617724D03*
G01X-1073610Y682724D03*
G01X-1073610Y747724D03*
G01X-1073610Y812724D03*
G01X-1073610Y877724D03*
G01X-1008610Y877724D03*
G01X-1008610Y812724D03*
G01X-1008610Y747724D03*
G01X-1008610Y682724D03*
G01X-1008610Y617724D03*
G01X-2081501Y-801856D03*
G01X-2026501Y-801856D03*
G01X-1971501Y-801856D03*
G01X-1916501Y-801856D03*
G01X-1861501Y-801856D03*
G01X-2081501Y-856856D03*
G01X-2026501Y-856856D03*
G01X-1971501Y-856856D03*
G01X-1916501Y-856856D03*
G01X-1861501Y-856856D03*
G01X-2081501Y-911856D03*
G01X-2026501Y-911856D03*
G01X-1971501Y-911856D03*
G01X-1916501Y-911856D03*
G01X-1861501Y-911856D03*
G01X-2081501Y-966856D03*
G01X-2026501Y-966856D03*
G01X-1971501Y-966856D03*
G01X-1916501Y-966856D03*
G01X-1861501Y-966856D03*
G01X-2081501Y-1021856D03*
G01X-2026501Y-1021856D03*
G01X-1971501Y-1021856D03*
G01X-1916501Y-1021856D03*
G01X-1861501Y-1021856D03*
G01X-3078393Y367003D03*
G01X-3078393Y267004D03*
G01X-2907306Y417936D03*
G01X-2846501Y367003D03*
G01X-2846501Y267004D03*
G01X-2846501Y167003D03*
G01X-2671210Y214425D03*
G01X-2785696Y214425D03*
G01X-2785696Y314425D03*
G01X-2614609Y264425D03*
G54D15*
G01X-1951033Y125025D03*
G01X-1307962Y-590605D03*
G54D12*
G01X-2776136Y473014D03*
G01X-2421995Y408594D03*
G01X-1985796Y-1172998D03*
G01X-2031996Y-1118998D03*
G01X-2200996Y-1152998D03*
G01X-1723308Y-969399D03*
G01X-3575493Y494999D03*
G01X-619723Y160877D03*
G01X-4035359Y145199D03*
G01X-3985359Y91199D03*
G01X-3935359Y145199D03*
G01X-3885359Y91199D03*
G01X-3835359Y145199D03*
G01X-3785359Y91199D03*
G01X-3735359Y145199D03*
G01X-3685359Y91199D03*
G01X-3678359Y177199D03*
G01X-3335359Y145199D03*
G01X-3285359Y91199D03*
G01X-3235359Y145199D03*
G01X-3185359Y91199D03*
G01X-3135359Y145199D03*
G01X-3085359Y91199D03*
G01X-3035359Y145199D03*
G01X-2385359Y91199D03*
G01X-2335359Y145199D03*
G01X-2285359Y91199D03*
G01X-2235359Y145199D03*
G01X-2185359Y91199D03*
G01X-1465359Y98199D03*
G01X-1435359Y146199D03*
G01X-1385359Y91199D03*
G01X-1335359Y146199D03*
G01X-1285359Y91199D03*
G01X-1235359Y146199D03*
G01X-1185359Y91199D03*
G01X-1135359Y146199D03*
G01X-1085359Y91199D03*
G01X-1035359Y146199D03*
G01X-985358Y91199D03*
G01X-935359Y146199D03*
G01X-885358Y91199D03*
G01X-835359Y146199D03*
G01X-435359Y143199D03*
G01X-385358Y91199D03*
G01X-335358Y143199D03*
G01X-285358Y91199D03*
G01X-235358Y143199D03*
G01X-185358Y91199D03*
G01X-135358Y143199D03*
G01X-85358Y91199D03*
G01X-35358Y143199D03*
G01X14642Y91199D03*
G01X64642Y143199D03*
G01X114642Y91199D03*
G01X114642Y199199D03*
G01X14642Y199199D03*
G01X-85358Y199199D03*
G01X-185359Y199199D03*
G01X64641Y254199D03*
G01X-35359Y254199D03*
G01X-135359Y254199D03*
G01X-235359Y254199D03*
G01X114641Y309199D03*
G01X14641Y309199D03*
G01X-85359Y309199D03*
G01X-185359Y309199D03*
G01X64641Y364199D03*
G01X-35359Y364199D03*
G01X-135359Y364199D03*
G01X-235359Y364199D03*
G01X114641Y419199D03*
G01X14641Y419199D03*
G01X-85359Y419199D03*
G01X-185359Y419199D03*
G01X64641Y474199D03*
G01X-35359Y474199D03*
G01X-135359Y474199D03*
G01X-235359Y474199D03*
G01X114641Y529199D03*
G01X14641Y529199D03*
G01X-85359Y529199D03*
G01X-185359Y529199D03*
G01X-185359Y-200841D03*
G01X-85358Y-200841D03*
G01X14642Y-200841D03*
G01X114642Y-200841D03*
G01X64642Y-255840D03*
G01X-35358Y-255840D03*
G01X-135358Y-255840D03*
G01X-235358Y-255840D03*
G01X114642Y-310840D03*
G01X14642Y-310840D03*
G01X-85358Y-310840D03*
G01X-185358Y-310840D03*
G01X64642Y-365840D03*
G01X-35358Y-365840D03*
G01X-135358Y-365840D03*
G01X-235358Y-365840D03*
G01X114642Y-420840D03*
G01X14642Y-420840D03*
G01X-85358Y-420840D03*
G01X-185358Y-420840D03*
G01X64642Y-475840D03*
G01X-35358Y-475840D03*
G01X-135358Y-475840D03*
G01X-235358Y-475840D03*
G01X114642Y-530840D03*
G01X14642Y-530840D03*
G01X-85358Y-530840D03*
G01X-185358Y-530840D03*
G01X-3785359Y-200841D03*
G01X-3885359Y-200841D03*
G01X-3985359Y-200841D03*
G01X-4085359Y-200841D03*
G01X-3735359Y-255840D03*
G01X-3835359Y-255840D03*
G01X-3935359Y-255840D03*
G01X-4035359Y-255840D03*
G01X-3785359Y-310840D03*
G01X-3885359Y-310840D03*
G01X-3985359Y-310840D03*
G01X-4085359Y-310840D03*
G01X-3735359Y-365840D03*
G01X-3835359Y-365840D03*
G01X-3935359Y-365840D03*
G01X-4035359Y-365840D03*
G01X-3785359Y-420840D03*
G01X-3885359Y-420840D03*
G01X-3985359Y-420840D03*
G01X-4085359Y-420840D03*
G01X-3735359Y-475840D03*
G01X-3835359Y-475840D03*
G01X-3935359Y-475840D03*
G01X-4035359Y-475840D03*
G01X-3785358Y-530840D03*
G01X-3885358Y-530840D03*
G01X-3985359Y-530840D03*
G01X-4085359Y-530840D03*
G01X-4085360Y199199D03*
G01X-3985360Y199199D03*
G01X-3885360Y199199D03*
G01X-3785359Y199199D03*
G01X-4035360Y254199D03*
G01X-3935360Y254199D03*
G01X-3835360Y254199D03*
G01X-3735360Y254199D03*
G01X-4085360Y309199D03*
G01X-3985360Y309199D03*
G01X-3885360Y309199D03*
G01X-3785360Y309199D03*
G01X-4035360Y364199D03*
G01X-3935360Y364199D03*
G01X-3835360Y364199D03*
G01X-3735360Y364199D03*
G01X-4085360Y419199D03*
G01X-3985360Y419199D03*
G01X-3885360Y419199D03*
G01X-3785360Y419199D03*
G01X-4033603Y468927D03*
G01X-3933603Y468927D03*
G01X-3833603Y468927D03*
G01X-3733603Y468927D03*
G01X-4083603Y523927D03*
G01X-3983603Y523927D03*
G01X-3883603Y523927D03*
G01X-3783603Y523927D03*
G01X-4085360Y-91841D03*
G01X-4085359Y91199D03*
G01X-2330359Y-340841D03*
G01X-2385359Y-290841D03*
G01X-2330359Y-240841D03*
G01X-2385359Y-190841D03*
G01X-2119324Y-361977D03*
G01X-2069324Y-307977D03*
G01X-2019324Y-361977D03*
G01X-1619324Y-362977D03*
G01X-1569324Y-307977D03*
G01X-1419324Y-360977D03*
G01X-1169324Y-305977D03*
G01X-1119324Y-360977D03*
G01X-1069323Y-305977D03*
G01X-1019324Y-360977D03*
G01X-969323Y-305977D03*
G01X-919324Y-360977D03*
G01X-869323Y-305977D03*
G01X-819323Y-360977D03*
G01X-1892104Y-650060D03*
G01X-1618103Y-543017D03*
G01X-1583317Y-598017D03*
G01X-1418103Y-544017D03*
G01X-1168103Y-599017D03*
G01X-1118103Y-544017D03*
G01X-1002091Y-670717D03*
G01X-1018103Y-544017D03*
G01X-968103Y-599017D03*
G01X-918103Y-544017D03*
G01X-868103Y-599017D03*
G01X-818103Y-544017D03*
G01X-768103Y-599017D03*
G01X-718103Y-543017D03*
G01X-799998Y-262999D03*
G01X-853998Y-196000D03*
G01X-650999Y-493999D03*
G01X-651999Y-553999D03*
G01X-609677Y-421498D03*
G01X-508999Y-217000D03*
G01X-2672995Y-268999D03*
G01X-2518739Y-644237D03*
G01X-683298Y-25406D03*
G01X-640432Y18160D03*
G01X-2556204Y24596D03*
G01X-2536704Y-25904D03*
G01X-2868994Y528999D03*
G01X-3602904Y-905971D03*
G01X-3585993Y-1011998D03*
G01X-3442892Y-1011998D03*
G01X-3300993Y-1011998D03*
G01X-3587993Y-762998D03*
G01X-3444892Y-762998D03*
G01X-3302993Y-762998D03*
G01X-3252404Y-503822D03*
G01X-902300Y-986932D03*
G01X-1243122Y-710622D03*
G01X-2236083Y-222596D03*
G01X-1627897Y355408D03*
G01X-1269109Y439359D03*
G01X-1009888Y461358D03*
G01X-696240Y675050D03*
G01X-1817507Y897577D03*
G01X-2206587Y1196207D03*
G01X-2929355Y879208D03*
G01X-3274993Y877998D03*
G01X-3932193Y678510D03*
G01X-3732193Y678510D03*
G01X-3732193Y878511D03*
G01X-3332193Y878511D03*
G01X-3332193Y1278511D03*
G01X-3132193Y278510D03*
G01X-2132192Y1278511D03*
G01X-1900423Y1250798D03*
G01X-1732192Y878511D03*
G01X-1532192Y278510D03*
G01X-1532192Y478510D03*
G01X-1332192Y278510D03*
G01X-1332192Y478510D03*
G01X-1132192Y278510D03*
G01X-1132192Y1278511D03*
G01X-932191Y278510D03*
G01X-932191Y478510D03*
G01X-932191Y1078511D03*
G01X-932191Y1278511D03*
G01X-732191Y878511D03*
G01X-532191Y1278511D03*
G01X-332191Y278510D03*
G01X-332191Y478510D03*
G01X-332191Y678510D03*
G01X-332191Y878511D03*
G01X-132191Y678510D03*
G01X-132191Y878511D03*
G01X-3932193Y-1858388D03*
G01X-3932193Y-1658388D03*
G01X-3932193Y-858388D03*
G01X-3932193Y-658388D03*
G01X-3732193Y-1858388D03*
G01X-3732193Y-1658388D03*
G01X-3702193Y-1378388D03*
G01X-3732193Y-1058388D03*
G01X-3522234Y-1468347D03*
G01X-3532193Y-658388D03*
G01X-3532193Y-258388D03*
G01X-3332193Y-2458389D03*
G01X-3332193Y-2258389D03*
G01X-3332193Y-2058389D03*
G01X-3332193Y-1658388D03*
G01X-3332193Y-1458388D03*
G01X-3332193Y-658388D03*
G01X-3332193Y-258388D03*
G01X-3132193Y-2458389D03*
G01X-3132193Y-2058389D03*
G01X-3132193Y-1658388D03*
G01X-3132193Y-1258388D03*
G01X-3132193Y-858388D03*
G01X-3132193Y-458388D03*
G01X-3132193Y-258388D03*
G01X-2932193Y-2458389D03*
G01X-2932193Y-1658388D03*
G01X-2932193Y-1458388D03*
G01X-2932193Y-1258388D03*
G01X-2932193Y-858388D03*
G01X-2932193Y-258388D03*
G01X-2732192Y-2458389D03*
G01X-2732192Y-2258389D03*
G01X-2532192Y-2458389D03*
G01X-2532192Y-2258389D03*
G01X-2532192Y-1658388D03*
G01X-2532314Y-1478266D03*
G01X-2332192Y-2458389D03*
G01X-2332192Y-2258389D03*
G01X-2132192Y-2458389D03*
G01X-2132192Y-2258389D03*
G01X-1932192Y-2458389D03*
G01X-1932192Y-2258389D03*
G01X-1732192Y-2458389D03*
G01X-1732192Y-2258389D03*
G01X-1532192Y-2458389D03*
G01X-1532192Y-2258389D03*
G01X-1332192Y-2458389D03*
G01X-1132192Y-2458389D03*
G01X-1132192Y-2258389D03*
G01X-1132192Y-658388D03*
G01X-932191Y-2458389D03*
G01X-732191Y-2458389D03*
G01X-732191Y-2258389D03*
G01X-732191Y-658388D03*
G01X-532191Y-2258389D03*
G01X-532191Y-2058389D03*
G01X-532191Y-858388D03*
G01X-532191Y-658388D03*
G01X-532191Y-458388D03*
G01X-332191Y-1858388D03*
G01X-332191Y-858388D03*
G01X-332191Y-658388D03*
G01X-332191Y-258388D03*
G01X-132191Y-1858388D03*
G01X-132191Y-858388D03*
G01X-132191Y-658388D03*
G01X-4019983Y1345052D03*
G01X-3983123Y1441912D03*
G01X-3913123Y1501912D03*
G01X-3805667Y1551912D03*
G01X-3705667Y1551912D03*
G01X-3605667Y1551912D03*
G01X-3505667Y1551912D03*
G01X-3405667Y1551912D03*
G01X-3305666Y1551912D03*
G01X-3205666Y1551912D03*
G01X-3105666Y1551912D03*
G01X76879Y861912D03*
G01X-203239Y-2568090D03*
G01X-303239Y-2568090D03*
G01X-403239Y-2568090D03*
G01X-503239Y-2568090D03*
G01X-603239Y-2568090D03*
G01X-703239Y-2568090D03*
G01X-803239Y-2568090D03*
G01X-903239Y-2568090D03*
G01X-1003239Y-2568090D03*
G01X-1103239Y-2568090D03*
G01X76879Y1161912D03*
G01X76879Y1061912D03*
G01X76879Y961912D03*
G01X-4043123Y1209187D03*
G01X-4043123Y1109187D03*
G01X-4043123Y-690814D03*
G01X-4043123Y-590814D03*
G01X-4043123Y609186D03*
G01X-4043123Y709187D03*
G01X-4043123Y809187D03*
G01X-4043123Y909187D03*
G01X-4043123Y1009187D03*
G01X-3103240Y-2568090D03*
G01X-3983123Y-2488090D03*
G01X-3203240Y-2568090D03*
G01X-3303240Y-2568090D03*
G01X-3403240Y-2568090D03*
G01X-3503240Y-2568090D03*
G01X-3603240Y-2568090D03*
G01X-3703240Y-2568090D03*
G01X-3803241Y-2568090D03*
G01X-3903123Y-2548090D03*
G01X-4027054Y-2384159D03*
G01X-4043123Y-2290815D03*
G01X-4043123Y-2190815D03*
G01X-4043123Y-2090815D03*
G01X-4043123Y-1990815D03*
G01X-4043123Y-1890815D03*
G01X-4043123Y-1790815D03*
G01X-4043123Y-1690815D03*
G01X-4043123Y-1590815D03*
G01X-4043123Y-1490815D03*
G01X-4043123Y-1390815D03*
G01X-4043123Y-1290815D03*
G01X-4043123Y-1190814D03*
G01X-4043123Y-1090814D03*
G01X-4043123Y-990814D03*
G01X-4043123Y-890814D03*
G01X-4043123Y-790814D03*
G01X-3003240Y-2568090D03*
G01X-2803240Y-2568090D03*
G01X-1203239Y-2568090D03*
G01X-1303239Y-2568090D03*
G01X-1403239Y-2568090D03*
G01X-1503239Y-2568090D03*
G01X-1603239Y-2568090D03*
G01X-1703239Y-2568090D03*
G01X-1803239Y-2568090D03*
G01X-1903240Y-2568090D03*
G01X-2003240Y-2568090D03*
G01X-2103240Y-2568090D03*
G01X-2203240Y-2568090D03*
G01X-2303240Y-2568090D03*
G01X-2403240Y-2568090D03*
G01X-2503240Y-2568090D03*
G01X-2603240Y-2568090D03*
G01X-2703240Y-2568090D03*
G01X-2903240Y-2568090D03*
G01X-115134Y1529052D03*
G01X-2605666Y1551912D03*
G01X-2505666Y1551912D03*
G01X-2405666Y1551912D03*
G01X-2305666Y1551912D03*
G01X-2205666Y1551912D03*
G01X-2105666Y1551912D03*
G01X-2005666Y1551912D03*
G01X-1905666Y1551912D03*
G01X-1805666Y1551912D03*
G01X-1705666Y1551912D03*
G01X-1605666Y1551912D03*
G01X-1505666Y1551912D03*
G01X-1405665Y1551912D03*
G01X-1305665Y1551912D03*
G01X-1205665Y1551912D03*
G01X-1105665Y1551912D03*
G01X-1005665Y1551912D03*
G01X-905665Y1551912D03*
G01X-805665Y1551912D03*
G01X-705665Y1551912D03*
G01X-605665Y1551912D03*
G01X-23121Y1481912D03*
G01X36879Y1391912D03*
G01X-505665Y1551912D03*
G01X-405665Y1551912D03*
G01X-305665Y1551912D03*
G01X-205665Y1551912D03*
G01X76879Y1261912D03*
G01X-3005666Y1551912D03*
G01X-2905666Y1551912D03*
G01X-2805666Y1551912D03*
G01X-2705666Y1551912D03*
G01X76879Y761912D03*
G01X63901Y-2376077D03*
G01X76879Y-2038090D03*
G01X76879Y-2138090D03*
G01X76879Y-2248090D03*
G01X76879Y661912D03*
G01X76879Y561912D03*
G01X76879Y-638089D03*
G01X76879Y-738089D03*
G01X76879Y-838089D03*
G01X76879Y-938089D03*
G01X76879Y-1038089D03*
G01X76879Y-1138089D03*
G01X76879Y-1238089D03*
G01X76879Y-1338090D03*
G01X76879Y-1438090D03*
G01X76879Y-1538090D03*
G01X76879Y-1638090D03*
G01X76879Y-1738090D03*
G01X76879Y-1838090D03*
G01X76879Y-1938090D03*
G01X16762Y-2468090D03*
G01X-73238Y-2528090D03*
G01X-4035359Y-146841D03*
G01X-2313995Y-1352997D03*
G01X-1783074Y230690D03*
G01X-1474117Y-658159D03*
G01X-1668103Y-598017D03*
G01X-1319997Y-289001D03*
G01X-1656413Y-477498D03*
G01X-1613411Y-412795D03*
G01X-1458997Y217000D03*
G01X-1635359Y-145841D03*
G01X-2330359Y-543699D03*
G01X-2481364Y-681285D03*
G01X-2341374Y-598907D03*
G01X-1068103Y-599017D03*
G01X-1650997Y829998D03*
G01X-2242110Y555007D03*
G01X-2476118Y581224D03*
G01X-2435995Y674999D03*
G01X-98999Y-1489370D03*
G01X-196964Y-1193962D03*
G01X-450821Y-1262997D03*
G01X-309999Y-1577997D03*
G01X-196621Y-1637997D03*
G01X-369621Y-1637997D03*
G01X-288164Y-1079283D03*
G01X-647910Y-1988305D03*
G01X-637338Y-1859168D03*
G01X-725664Y-1763241D03*
G01X-627910Y-1765616D03*
G01X-602207Y-1639788D03*
G01X-647632Y-1309516D03*
G01X-969290Y-2216570D03*
G01X-1649289Y-2240984D03*
G01X-2879862Y-2079395D03*
G01X-2726677Y-1804090D03*
G01X-3595993Y-1126099D03*
G01X-3575904Y-616972D03*
G01X-3237897Y485022D03*
G01X-1749197Y-55706D03*
G01X-1802996Y481999D03*
G01X-1514797Y-57237D03*
G01X-1514797Y69096D03*
G01X-1514797Y143402D03*
G01X-1526997Y-2129996D03*
G01X-3109994Y1306997D03*
G01X-3885993Y-1073997D03*
G01X-2651010Y150998D03*
G01X-420000Y-220000D03*
G01X-3651104Y-1515617D03*
G01X-2523105Y-1279382D03*
G01X-3023393Y317003D03*
G01X-3023393Y217003D03*
G01X-2907306Y317003D03*
G01X-2907306Y217003D03*
G01X-1657995Y-1710001D03*
G01X-1650001Y-1605697D03*
G01X-1550001Y-1710001D03*
G01X-2284703Y-1234702D03*
G01X-2502035Y-1193548D03*
G01X-3370002Y-1166116D03*
G01X-3506624Y-1154995D03*
G01X-3982193Y-2058389D03*
G01X-3982193Y-1908389D03*
G01X-3982193Y-1758389D03*
G01X-3982193Y-1608389D03*
G01X-3982193Y-1458389D03*
G01X-3982193Y-1308389D03*
G01X-3982193Y-1158389D03*
G01X-3982193Y-1008389D03*
G01X-3982193Y-858389D03*
G01X-3982193Y-708389D03*
G01X-3982193Y641610D03*
G01X-3982193Y791610D03*
G01X-3982193Y941610D03*
G01X-3982193Y1091610D03*
G01X-3982193Y1391610D03*
G01X-3982193Y1541610D03*
G01X-3832193Y-1908389D03*
G01X-3832193Y-1758389D03*
G01X-3832193Y-558390D03*
G01X-3832193Y641610D03*
G01X-3832193Y791610D03*
G01X-3832193Y941610D03*
G01X-3682193Y-1908389D03*
G01X-3682193Y-1608389D03*
G01X-3682193Y-1008389D03*
G01X-3682193Y-858389D03*
G01X-3682193Y-708389D03*
G01X-3682193Y-408390D03*
G01X-3682193Y-258390D03*
G01X-3682193Y341610D03*
G01X-3682193Y491610D03*
G01X-3682193Y641610D03*
G01X-3682193Y791610D03*
G01X-3682193Y941610D03*
G01X-3532193Y-2508389D03*
G01X-3532193Y-1908389D03*
G01X-3532193Y-1758389D03*
G01X-3532193Y341610D03*
G01X-3532193Y641610D03*
G01X-3532193Y791610D03*
G01X-3532193Y941610D03*
G01X-3382193Y-2508389D03*
G01X-3382193Y-2358389D03*
G01X-3382193Y-2208389D03*
G01X-3382193Y-2058389D03*
G01X-3382193Y-1908389D03*
G01X-3382193Y-1608389D03*
G01X-3382193Y-1458389D03*
G01X-3382193Y-258390D03*
G01X-3382193Y791610D03*
G01X-3382193Y941610D03*
G01X-3382193Y1091610D03*
G01X-3382193Y1241610D03*
G01X-3382193Y1391610D03*
G01X-3232193Y-2508389D03*
G01X-3232193Y-2358389D03*
G01X-3232193Y-1758389D03*
G01X-3232193Y-1608389D03*
G01X-3232193Y-1458389D03*
G01X-3232193Y-258390D03*
G01X-3232193Y341610D03*
G01X-3232193Y1091610D03*
G01X-3232193Y1241610D03*
G01X-3232193Y1391610D03*
G01X-3082193Y-2508389D03*
G01X-3082193Y-2358389D03*
G01X-3082193Y-2058389D03*
G01X-3082193Y-1608389D03*
G01X-3082193Y-1008389D03*
G01X-3082193Y-858389D03*
G01X-3082193Y-708389D03*
G01X-3082193Y-558390D03*
G01X-3082193Y-258390D03*
G01X-3082193Y191610D03*
G01X-3082193Y1091610D03*
G01X-3082193Y1241610D03*
G01X-3082193Y1391610D03*
G01X-2932194Y-2508389D03*
G01X-2932194Y-2358389D03*
G01X-2932194Y-1608389D03*
G01X-2932194Y-708389D03*
G01X-2932194Y-558390D03*
G01X-2932194Y-408390D03*
G01X-2932194Y1091610D03*
G01X-2932194Y1241610D03*
G01X-2932194Y1391610D03*
G01X-2782194Y-2508389D03*
G01X-2782194Y-2358389D03*
G01X-2782194Y941610D03*
G01X-2782194Y1091610D03*
G01X-2782194Y1241610D03*
G01X-2782194Y1391610D03*
G01X-2632194Y-2508389D03*
G01X-2632194Y-2358389D03*
G01X-2632194Y-2208389D03*
G01X-2632194Y341610D03*
G01X-2632194Y491610D03*
G01X-2632194Y1241610D03*
G01X-2632194Y1391610D03*
G01X-2482194Y-2508389D03*
G01X-2482194Y-2358389D03*
G01X-2482194Y-2208389D03*
G01X-2482194Y-1758389D03*
G01X-2482194Y-1608389D03*
G01X-2482194Y1391610D03*
G01X-2332194Y-2508389D03*
G01X-2332194Y-1758389D03*
G01X-2332194Y1391610D03*
G01X-2182194Y-2508389D03*
G01X-2182194Y-2358389D03*
G01X-2182194Y-1908389D03*
G01X-2182194Y-1758389D03*
G01X-2182194Y191610D03*
G01X-2182194Y1391610D03*
G01X-2032194Y-2508389D03*
G01X-2032194Y-2358389D03*
G01X-2032194Y941610D03*
G01X-1882194Y-2508389D03*
G01X-1882194Y-2358389D03*
G01X-1922194Y-1956957D03*
G01X-1882194Y1091610D03*
G01X-1732194Y-2508389D03*
G01X-1732194Y-2358389D03*
G01X-1732194Y-2208389D03*
G01X-1732194Y641610D03*
G01X-1732194Y941610D03*
G01X-1582194Y-2508389D03*
G01X-1582194Y-2358389D03*
G01X-1582194Y-1608389D03*
G01X-1582194Y491610D03*
G01X-1582194Y1091610D03*
G01X-1582194Y1241610D03*
G01X-1432194Y-2508389D03*
G01X-1432194Y-2358389D03*
G01X-1432194Y-2208389D03*
G01X-1432194Y341610D03*
G01X-1432194Y491610D03*
G01X-1432194Y941610D03*
G01X-1432194Y1091610D03*
G01X-1432194Y1241610D03*
G01X-1282194Y-2508389D03*
G01X-1282194Y-2358389D03*
G01X-1282194Y-2208389D03*
G01X-1282194Y341610D03*
G01X-1282194Y1391610D03*
G01X-1132194Y-2508389D03*
G01X-1132194Y-2358389D03*
G01X-1132194Y-2208389D03*
G01X-1132194Y-1158389D03*
G01X-1132194Y-708389D03*
G01X-1132194Y-258390D03*
G01X-1132194Y1091610D03*
G01X-1132194Y1391610D03*
G01X-982194Y-2508389D03*
G01X-982194Y-2358389D03*
G01X-982194Y191610D03*
G01X-982194Y1391610D03*
G01X-832194Y-2508389D03*
G01X-832194Y-2358389D03*
G01X-832194Y-858389D03*
G01X-832194Y-708389D03*
G01X-832194Y341610D03*
G01X-832194Y1091610D03*
G01X-832194Y1241610D03*
G01X-832194Y1391610D03*
G01X-682194Y-2508389D03*
G01X-682194Y-2358389D03*
G01X-682194Y-2208389D03*
G01X-682194Y-2058389D03*
G01X-682194Y-858389D03*
G01X-682194Y-708389D03*
G01X-682194Y1241610D03*
G01X-682194Y1391610D03*
G01X-532194Y-2508389D03*
G01X-532194Y-2358389D03*
G01X-532194Y-2208389D03*
G01X-532194Y-1908389D03*
G01X-532194Y-1758389D03*
G01X-532194Y-1008389D03*
G01X-532194Y-708389D03*
G01X-532194Y-558390D03*
G01X-532194Y-408390D03*
G01X-532194Y791610D03*
G01X-532194Y941610D03*
G01X-532194Y1091610D03*
G01X-532194Y1391610D03*
G01X-382194Y-2508389D03*
G01X-382194Y-1908389D03*
G01X-382194Y-1758389D03*
G01X-382194Y-708389D03*
G01X-382194Y-558390D03*
G01X-382194Y-408390D03*
G01X-382194Y191610D03*
G01X-382194Y491610D03*
G01X-382194Y641610D03*
G01X-382194Y791610D03*
G01X-382194Y941610D03*
G01X-232194Y-1908389D03*
G01X-232194Y-858389D03*
G01X-232194Y-708389D03*
G01X-232194Y-558390D03*
G01X-232194Y641610D03*
G01X-232194Y791610D03*
G01X-232194Y941610D03*
G01X-82194Y-1908389D03*
G01X-82194Y-1758389D03*
G01X-82194Y-1308389D03*
G01X-82194Y-1008389D03*
G01X-82194Y-858389D03*
G01X-82194Y-708389D03*
G01X-82194Y641610D03*
G01X-82194Y791610D03*
G01X-82194Y941610D03*
G01X67806Y-2508389D03*
G01X67806Y-558390D03*
G01X-2310001Y-1430001D03*
G01X-2309544Y-1483000D03*
G01X-243463Y-2039659D03*
G01X-33463Y-2249659D03*
G01X-243463Y-2459659D03*
G01X-453463Y-2249659D03*
G01X-391956Y-2101166D03*
G01X-391956Y-2398151D03*
G01X-94971Y-2398151D03*
G01X-94971Y-2101166D03*
G01X-437477Y-2169294D03*
G01X-323828Y-2443673D03*
G01X-49449Y-2330024D03*
G01X-163098Y-2055645D03*
G01X-437478Y-2330021D03*
G01X-323825Y-2055644D03*
G01X-49448Y-2169297D03*
G01X-163101Y-2443674D03*
G01X-3723463Y-2039659D03*
G01X-3513463Y-2249659D03*
G01X-3723463Y-2459659D03*
G01X-3933463Y-2249659D03*
G01X-3871956Y-2101166D03*
G01X-3871956Y-2398151D03*
G01X-3574971Y-2398151D03*
G01X-3574971Y-2101166D03*
G01X-3917478Y-2169294D03*
G01X-3803828Y-2443673D03*
G01X-3529449Y-2330024D03*
G01X-3643098Y-2055645D03*
G01X-3917479Y-2330021D03*
G01X-3803826Y-2055644D03*
G01X-3529448Y-2169297D03*
G01X-3643101Y-2443674D03*
G01X-243463Y1440341D03*
G01X-33463Y1230341D03*
G01X-243463Y1020341D03*
G01X-453463Y1230341D03*
G01X-391956Y1378834D03*
G01X-391956Y1081849D03*
G01X-94971Y1081849D03*
G01X-94971Y1378834D03*
G01X-437477Y1310706D03*
G01X-323828Y1036327D03*
G01X-49449Y1149976D03*
G01X-163098Y1424356D03*
G01X-437478Y1149979D03*
G01X-323825Y1424357D03*
G01X-49448Y1310704D03*
G01X-163101Y1036326D03*
G01X-3723463Y1440341D03*
G01X-3513463Y1230341D03*
G01X-3723463Y1020341D03*
G01X-3933463Y1230341D03*
G01X-3871956Y1378834D03*
G01X-3871956Y1081849D03*
G01X-3574971Y1081849D03*
G01X-3574971Y1378834D03*
G01X-3917478Y1310706D03*
G01X-3803828Y1036327D03*
G01X-3529449Y1149976D03*
G01X-3643098Y1424356D03*
G01X-3917479Y1149979D03*
G01X-3803826Y1424357D03*
G01X-3529448Y1310704D03*
G01X-3643101Y1036326D03*
G04 Via End*

M02*

