G04 Layer: TopPasteMaskLayer*
G04 EasyEDA Pro v2.2.28.1, 2024-10-09 18:22:48*
G04 Gerber Generator version 0.3*
G04 Scale: 100 percent, Rotated: No, Reflected: No*
G04 Dimensions in millimeters*
G04 Leading zeros omitted, absolute positions, 3 integers and 5 decimals*
%FSLAX35Y35*%
%MOMM*%
%ADD10R,1.0X1.0*%
%ADD11R,0.508X0.3*%
%ADD12R,0.508X0.342*%
%ADD13R,0.342X0.508*%
%ADD14R,0.3X0.508*%
%ADD15R,0.8X0.8*%
%ADD16R,0.8X0.8*%
%ADD17R,1.2X1.0*%
%ADD18R,1.4X0.45001*%
%ADD19R,0.33X0.342*%
%ADD20R,0.762X0.294*%
%ADD21R,0.3X0.41*%
%ADD22R,0.33X0.294*%
%ADD23R,0.75X0.3*%
%ADD24R,0.75X0.342*%
%ADD25R,0.85X1.65*%
%ADD26R,0.67X0.3*%
%ADD27R,0.67X0.342*%
%ADD28R,0.8X1.6*%
%ADD29R,0.55001X1.2*%
%ADD30R,0.294X1.2*%
%ADD31R,3.29999X1.18999*%
%ADD32R,0.87X0.3*%
G75*


G04 PolygonModel Start*
G36*
G01X-2602119Y-198496D02*
G01X-2602119Y-281496D01*
G01X-2562119Y-281496D01*
G01X-2562119Y-198496D01*
G01X-2602119Y-198496D01*
G37*
G36*
G01X-2564921Y-457497D02*
G01X-2564921Y-384498D01*
G01X-2597921Y-384498D01*
G01X-2597921Y-457497D01*
G01X-2564921Y-457497D01*
G37*
G36*
G01X-592177Y-461497D02*
G01X-592177Y-381498D01*
G01X-627177Y-381498D01*
G01X-627177Y-461497D01*
G01X-592177Y-461497D01*
G37*
G36*
G01X-626376Y-199496D02*
G01X-626376Y-280496D01*
G01X-593376Y-280496D01*
G01X-593376Y-199496D01*
G01X-626376Y-199496D01*
G37*
G36*
G01X-3511398Y19589D02*
G01X-3424998Y19589D01*
G01X-3424998Y-20739D01*
G01X-3511398Y-20739D01*
G01X-3511398Y19589D01*
G37*
G36*
G01X-3482148Y95572D02*
G01X-3454498Y95572D01*
G01X-3425123Y122992D01*
G01X-3425123Y173319D01*
G01X-3431524Y179720D01*
G01X-3505123Y179720D01*
G01X-3511524Y173319D01*
G01X-3511524Y122992D01*
G01X-3482148Y95572D01*
G37*
G36*
G01X-2147477Y-468521D02*
G01X-2147477Y-437521D01*
G01X-2175541Y-437521D01*
G01X-2175541Y-468521D01*
G01X-2147477Y-468521D01*
G37*
G36*
G01X-2076476Y-468521D02*
G01X-2076476Y-437521D01*
G01X-2017412Y-437521D01*
G01X-2017412Y-468521D01*
G01X-2076476Y-468521D01*
G37*
G36*
G01X-3199812Y-16092D02*
G01X-3199812Y14908D01*
G01X-3227877Y14908D01*
G01X-3227877Y-16092D01*
G01X-3199812Y-16092D01*
G37*
G36*
G01X-3128812Y-16092D02*
G01X-3128812Y14908D01*
G01X-3069748Y14908D01*
G01X-3069748Y-16092D01*
G01X-3128812Y-16092D01*
G37*
G36*
G01X-2981620Y311760D02*
G01X-2950621Y311760D01*
G01X-2950621Y339824D01*
G01X-2981620Y339824D01*
G01X-2981620Y311760D01*
G37*
G36*
G01X-2981620Y240759D02*
G01X-2950621Y240759D01*
G01X-2950621Y181695D01*
G01X-2981620Y181695D01*
G01X-2981620Y240759D01*
G37*
G36*
G01X-2712615Y189069D02*
G01X-2743374Y189069D01*
G01X-2743374Y138625D01*
G01X-2712615Y138625D01*
G01X-2712615Y189069D01*
G37*
G36*
G01X-2712615Y240200D02*
G01X-2743374Y240200D01*
G01X-2743374Y270324D01*
G01X-2712615Y270324D01*
G01X-2712615Y240200D01*
G37*
G36*
G01X-1983517Y19420D02*
G01X-1897117Y19420D01*
G01X-1897117Y-20908D01*
G01X-1983517Y-20908D01*
G01X-1983517Y19420D01*
G37*
G36*
G01X-1954267Y95403D02*
G01X-1926617Y95403D01*
G01X-1897242Y122822D01*
G01X-1897242Y173150D01*
G01X-1903643Y179551D01*
G01X-1977242Y179551D01*
G01X-1983642Y173150D01*
G01X-1983642Y122822D01*
G01X-1954267Y95403D01*
G37*
G36*
G01X-2252744Y-16405D02*
G01X-2252744Y14595D01*
G01X-2280809Y14595D01*
G01X-2280809Y-16405D01*
G01X-2252744Y-16405D01*
G37*
G36*
G01X-2181743Y-16405D02*
G01X-2181743Y14595D01*
G01X-2122680Y14595D01*
G01X-2122680Y-16405D01*
G01X-2181743Y-16405D01*
G37*
G36*
G01X-1061713Y-468020D02*
G01X-1061713Y-437021D01*
G01X-1089778Y-437021D01*
G01X-1089778Y-468020D01*
G01X-1061713Y-468020D01*
G37*
G36*
G01X-990712Y-468020D02*
G01X-990712Y-437021D01*
G01X-931649Y-437021D01*
G01X-931649Y-468020D01*
G01X-990712Y-468020D01*
G37*
G36*
G01X-1258887Y-473102D02*
G01X-1345288Y-473102D01*
G01X-1345288Y-432774D01*
G01X-1258887Y-432774D01*
G01X-1258887Y-473102D01*
G37*
G36*
G01X-1288137Y-549086D02*
G01X-1315787Y-549086D01*
G01X-1345162Y-576505D01*
G01X-1345162Y-626832D01*
G01X-1338762Y-633233D01*
G01X-1265163Y-633233D01*
G01X-1258762Y-626832D01*
G01X-1258762Y-576505D01*
G01X-1288137Y-549086D01*
G37*

G04 Pad Start*
G54D10*
G01X-2532109Y-499D03*
G54D11*
G01X-2429217Y49488D03*
G54D12*
G01X-2429217Y-499D03*
G54D11*
G01X-2429217Y-50486D03*
G54D13*
G01X-2482122Y-103390D03*
G54D14*
G01X-2532109Y-103390D03*
G54D13*
G01X-2582096Y-103390D03*
G54D11*
G01X-2635001Y-50486D03*
G54D12*
G01X-2635001Y-499D03*
G54D11*
G01X-2635001Y49488D03*
G54D14*
G01X-2582096Y102393D03*
G01X-2532109Y102393D03*
G01X-2482122Y102393D03*
G54D10*
G01X-659162Y-499D03*
G54D11*
G01X-556270Y49488D03*
G54D12*
G01X-556270Y-499D03*
G54D11*
G01X-556270Y-50486D03*
G54D13*
G01X-609175Y-103390D03*
G54D14*
G01X-659162Y-103390D03*
G54D13*
G01X-709149Y-103390D03*
G54D11*
G01X-762054Y-50486D03*
G54D12*
G01X-762054Y-499D03*
G54D11*
G01X-762054Y49488D03*
G54D14*
G01X-709149Y102393D03*
G01X-659162Y102393D03*
G01X-609175Y102393D03*
G54D15*
G01X-3602957Y-623482D03*
G01X-3762850Y-624167D03*
G54D16*
G01X-2772852Y-1756155D03*
G01X-2612959Y-1755469D03*
G01X-2772852Y-2069198D03*
G01X-2612959Y-2068512D03*
G01X-2113939Y-2069198D03*
G01X-1954046Y-2068512D03*
G54D15*
G01X-3602957Y-905981D03*
G01X-3762850Y-906667D03*
G01X-3602957Y-1188480D03*
G01X-3762850Y-1189166D03*
G54D16*
G01X-2113939Y-1756155D03*
G01X-1954046Y-1755469D03*
G54D15*
G01X-647963Y-1987967D03*
G01X-807856Y-1988653D03*
G01X-647963Y-1876796D03*
G01X-807856Y-1877482D03*
G01X-647963Y-1765626D03*
G01X-807856Y-1766312D03*
G01X-647963Y-1654455D03*
G01X-807856Y-1655141D03*
G01X-647963Y-1543285D03*
G01X-807856Y-1543971D03*
G01X-647963Y-1432114D03*
G01X-807856Y-1432800D03*
G01X-647963Y-1320944D03*
G01X-807856Y-1321630D03*
G01X-647963Y-1209773D03*
G01X-807856Y-1210459D03*
G01X-647963Y-1098603D03*
G01X-807856Y-1099288D03*
G01X-647963Y-987432D03*
G01X-807856Y-988118D03*
G54D17*
G01X-969290Y-1454637D03*
G01X-969290Y-1074633D03*
G01X-1649289Y-1454637D03*
G01X-1649289Y-1074638D03*
G54D18*
G01X-1309289Y-1007132D03*
G01X-1309289Y-1522130D03*
G54D17*
G01X-969290Y-2216570D03*
G01X-969290Y-1836565D03*
G01X-1649289Y-2216570D03*
G01X-1649289Y-1836570D03*
G54D18*
G01X-1309289Y-1769065D03*
G01X-1309289Y-2284062D03*
G54D19*
G01X-2807037Y-820D03*
G54D20*
G01X-2785437Y65179D03*
G54D21*
G01X-2807037Y131179D03*
G01X-2906037Y131179D03*
G54D22*
G01X-2906037Y65179D03*
G54D19*
G01X-2906037Y-820D03*
G54D23*
G01X-1734136Y-402498D03*
G54D24*
G01X-1734136Y-452498D03*
G54D23*
G01X-1734136Y-502498D03*
G01X-1734136Y-552498D03*
G01X-1534137Y-552498D03*
G01X-1534137Y-502498D03*
G54D24*
G01X-1534137Y-452498D03*
G54D23*
G01X-1534137Y-402498D03*
G54D25*
G01X-1634136Y-477498D03*
G54D26*
G01X-1533735Y-50511D03*
G54D27*
G01X-1533735Y-499D03*
G54D26*
G01X-1533735Y49488D03*
G01X-1533735Y99501D03*
G01X-1733734Y99501D03*
G01X-1733734Y49488D03*
G54D27*
G01X-1733734Y-499D03*
G54D26*
G01X-1733734Y-50511D03*
G54D28*
G01X-1633734Y24495D03*
G54D29*
G01X-2966128Y713013D03*
G01X-2776136Y713013D03*
G01X-2776136Y473009D03*
G01X-2871132Y473009D03*
G54D30*
G01X-2966128Y473009D03*
G54D29*
G01X-2871132Y713013D03*
G54D31*
G01X-1857994Y839998D03*
G01X-1857994Y1347998D03*
G01X-2497998Y1093998D03*
G54D32*
G01X-369621Y-1637997D03*
G01X-369621Y-1487997D03*
G01X-369621Y-1437997D03*
G01X-369621Y-1387997D03*
G01X-369621Y-1337997D03*
G01X-369621Y-1287997D03*
G01X-369621Y-1237998D03*
G01X-369621Y-1087998D03*
G01X-196621Y-1087998D03*
G01X-196621Y-1237998D03*
G01X-196621Y-1287997D03*
G01X-196621Y-1337997D03*
G01X-196621Y-1387997D03*
G01X-196621Y-1437997D03*
G01X-196621Y-1487997D03*
G01X-196621Y-1637997D03*
G04 Pad End*

M02*

