G04 Layer: TopSolderMaskLayer*
G04 EasyEDA Pro v2.2.28.1, 2024-10-13 15:23:24*
G04 Gerber Generator version 0.3*
G04 Scale: 100 percent, Rotated: No, Reflected: No*
G04 Dimensions in millimeters*
G04 Leading zeros omitted, absolute positions, 3 integers and 5 decimals*
%FSLAX35Y35*%
%MOMM*%
%AMRoundRect*1,1,$1,$2,$3*1,1,$1,$4,$5*1,1,$1,0-$2,0-$3*1,1,$1,0-$4,0-$5*20,1,$1,$2,$3,$4,$5,0*20,1,$1,$4,$5,0-$2,0-$3,0*20,1,$1,0-$2,0-$3,0-$4,0-$5,0*20,1,$1,0-$4,0-$5,$2,$3,0*4,1,4,$2,$3,$4,$5,0-$2,0-$3,0-$4,0-$5,$2,$3,0*%
%ADD10C,3.0*%
%ADD11C,0.3*%
%ADD12C,0.3424*%
%ADD13C,1.602*%
%ADD14C,5.302*%
%ADD15RoundRect,0.09302X0.50429X-0.50429X-0.50429X-0.50429*%
%ADD16RoundRect,0.08109X0.26426X-0.16026X-0.26426X-0.16026*%
%ADD17RoundRect,0.08267X0.26347X-0.18047X-0.26347X-0.18047*%
%ADD18RoundRect,0.08267X0.18047X-0.26347X-0.18047X-0.26347*%
%ADD19RoundRect,0.0862X0.16026X-0.26426X-0.16026X-0.26426*%
%ADD20RoundRect,0.08109X0.16026X-0.26426X-0.16026X-0.26426*%
%ADD21RoundRect,0.08267X0.18047X0.4127X0.18047X-0.4127*%
%ADD22RoundRect,0.08267X0.18047X0.41247X0.18047X-0.41247*%
%ADD23RoundRect,0.09164X0.40518X0.40518X0.40518X-0.40518*%
%ADD24RoundRect,0.09164X-0.40518X-0.40518X-0.40518X0.40518*%
%ADD25RoundRect,0.09302X-0.60429X0.50429X0.60429X0.50429*%
%ADD26RoundRect,0.0858X-0.7079X0.23291X0.7079X0.23291*%
%ADD27R,0.33X0.342*%
%ADD28R,0.762X0.294*%
%ADD29R,0.3X0.41*%
%ADD30R,0.33X0.294*%
%ADD31RoundRect,0.08136X-0.38532X0.16032X0.38532X0.16032*%
%ADD32RoundRect,0.08295X-0.38453X0.18053X0.38453X0.18053*%
%ADD33R,0.85X1.65*%
%ADD34RoundRect,0.08136X0.34532X-0.16032X-0.34532X-0.16032*%
%ADD35RoundRect,0.08295X0.34453X-0.18053X-0.34453X-0.18053*%
%ADD36RoundRect,0.09131X-0.40514X0.80514X0.40514X0.80514*%
%ADD37RoundRect,0.0882X-0.28191X0.6069X0.28191X0.6069*%
%ADD38RoundRect,0.08111X-0.15745X0.61044X0.15745X0.61044*%
%ADD39RoundRect,0.09419X-1.6537X0.5987X1.6537X0.5987*%
%ADD40RoundRect,0.08267X-0.25947X0.18047X0.25947X0.18047*%
%ADD41RoundRect,0.08109X-0.16026X0.18126X0.16026X0.18126*%
%ADD42RoundRect,0.08267X-0.30947X0.18047X0.30947X0.18047*%
%ADD43RoundRect,0.08084X0.15738X0.15738X0.15738X-0.15738*%
%ADD44RoundRect,0.08084X0.15738X0.31038X0.15738X-0.31038*%
%ADD45RoundRect,0.076X-0.3128X-0.1128X-0.3128X0.1128*%
%ADD46RoundRect,0.08084X-0.15738X-0.31038X-0.15738X0.31038*%
%ADD47R,0.87X0.3*%
%ADD48C,1.46*%
%ADD49RoundRect,0.09131X0.40515X0.40514X0.40515X-0.40514*%
%ADD50RoundRect,0.08267X0.20947X0.18047X0.20947X-0.18047*%
%ADD51RoundRect,0.08267X-0.20947X0.18047X0.20947X0.18047*%
%ADD52RoundRect,0.09131X-0.40515X-0.40514X-0.40515X0.40514*%
%ADD53RoundRect,0.08267X-0.20947X-0.18047X-0.20947X0.18047*%
%ADD54RoundRect,0.08771X-0.27695X-0.40199X-0.27695X0.40199*%
%ADD55RoundRect,0.08267X-0.27947X-0.18047X-0.27947X0.18047*%
G75*


G04 Image Start*
G36*
G01X-3847627Y-1330911D02*
G01X-3847627Y-1331322D01*
G01X-3821914Y-1375780D01*
G01X-3796200Y-1420238D01*
G01X-3780068Y-1448210D01*
G01X-3763936Y-1476182D01*
G01X-3662663Y-1476182D01*
G01X-3561390Y-1476182D01*
G01X-3484795Y-1608849D01*
G01X-3408200Y-1741516D01*
G01X-3407913Y-1741506D01*
G01X-3407627Y-1741496D01*
G01X-3344847Y-1632701D01*
G01X-3282066Y-1523905D01*
G01X-3268355Y-1500066D01*
G01X-3254643Y-1476226D01*
G01X-3152848Y-1476090D01*
G01X-3051054Y-1475954D01*
G01X-3035772Y-1449466D01*
G01X-3020490Y-1422978D01*
G01X-2994058Y-1377212D01*
G01X-2967627Y-1331447D01*
G01X-2967627Y-1330973D01*
G01X-2967627Y-1330499D01*
G01X-3407627Y-1330499D01*
G01X-3847627Y-1330499D01*
G01X-3847627Y-1330911D01*
G37*
G36*
G01X-3714736Y-1560895D02*
G01X-3714736Y-1561125D01*
G01X-3561940Y-1825888D01*
G01X-3409143Y-2090651D01*
G01X-3408370Y-2091894D01*
G01X-3407597Y-2093136D01*
G01X-3371104Y-2030013D01*
G01X-3334610Y-1966890D01*
G01X-3300844Y-1908434D01*
G01X-3267077Y-1849978D01*
G01X-3184207Y-1706351D01*
G01X-3101338Y-1562724D01*
G01X-3100689Y-1561696D01*
G01X-3100039Y-1560669D01*
G01X-3164368Y-1560669D01*
G01X-3228696Y-1560669D01*
G01X-3317864Y-1716284D01*
G01X-3407032Y-1871899D01*
G01X-3407371Y-1872260D01*
G01X-3407710Y-1872622D01*
G01X-3496998Y-1716759D01*
G01X-3586286Y-1560897D01*
G01X-3650511Y-1560781D01*
G01X-3714736Y-1560665D01*
G01X-3714736Y-1560895D01*
G37*
G04 Image End*

G04 Text Start*
G36*
G01X-3267688Y-667919D02*
G01X-3267688Y-703677D01*
G01X-3247082Y-703677D01*
G01X-3247082Y-684434D01*
G01X-3246968Y-670040D01*
G01X-3246627Y-665343D01*
G01X-3245870Y-666101D01*
G01X-3245112Y-667313D01*
G01X-3242385Y-671404D01*
G01X-3240870Y-673525D01*
G01X-3238142Y-677616D01*
G01X-3236627Y-679737D01*
G01X-3233900Y-683828D01*
G01X-3231779Y-686858D01*
G01X-3229961Y-689586D01*
G01X-3227839Y-692616D01*
G01X-3225112Y-696707D01*
G01X-3223597Y-698828D01*
G01X-3220870Y-702919D01*
G01X-3220415Y-703677D01*
G01X-3199506Y-703677D01*
G01X-3199506Y-632162D01*
G01X-3220112Y-632162D01*
G01X-3220112Y-651858D01*
G01X-3220188Y-666593D01*
G01X-3220415Y-671404D01*
G01X-3221173Y-670495D01*
G01X-3222991Y-667768D01*
G01X-3224506Y-665646D01*
G01X-3228142Y-660192D01*
G01X-3229657Y-658071D01*
G01X-3232385Y-653980D01*
G01X-3233900Y-651858D01*
G01X-3237536Y-646404D01*
G01X-3239051Y-644283D01*
G01X-3241779Y-640192D01*
G01X-3243900Y-637162D01*
G01X-3246627Y-633071D01*
G01X-3247536Y-632313D01*
G01X-3257839Y-632162D01*
G01X-3267688Y-632162D01*
G01X-3267688Y-667919D01*
G37*
G36*
G01X-3305870Y-667919D02*
G01X-3305870Y-703677D01*
G01X-3283749Y-703677D01*
G01X-3283749Y-632162D01*
G01X-3305870Y-632162D01*
G01X-3305870Y-667919D01*
G37*
G36*
G01X-3404484Y-686194D02*
G01X-3403575Y-688467D01*
G01X-3379030Y-688467D01*
G01X-3378120Y-686194D01*
G01X-3373575Y-678012D01*
G01X-3369939Y-670740D01*
G01X-3365393Y-662558D01*
G01X-3361757Y-655285D01*
G01X-3357211Y-647103D01*
G01X-3353575Y-639831D01*
G01X-3349030Y-631649D01*
G01X-3343575Y-620740D01*
G01X-3341302Y-617103D01*
G01X-3335393Y-605285D01*
G01X-3331757Y-598921D01*
G01X-3328121Y-591649D01*
G01X-3323575Y-583467D01*
G01X-3319939Y-576194D01*
G01X-3315393Y-568012D01*
G01X-3311757Y-560740D01*
G01X-3310848Y-558467D01*
G01X-3329484Y-558467D01*
G01X-3343575Y-558921D01*
G01X-3348575Y-560285D01*
G01X-3349939Y-563467D01*
G01X-3375393Y-614376D01*
G01X-3378120Y-620740D01*
G01X-3389030Y-642558D01*
G01X-3390848Y-644376D01*
G01X-3391643Y-644262D01*
G01X-3392211Y-643012D01*
G01X-3393575Y-639831D01*
G01X-3420848Y-585285D01*
G01X-3422666Y-580740D01*
G01X-3431757Y-562558D01*
G01X-3433575Y-559830D01*
G01X-3438802Y-558808D01*
G01X-3452666Y-558467D01*
G01X-3470848Y-558467D01*
G01X-3470393Y-560740D01*
G01X-3469030Y-564376D01*
G01X-3467212Y-568012D01*
G01X-3462666Y-576194D01*
G01X-3459030Y-583467D01*
G01X-3454484Y-591649D01*
G01X-3450848Y-598921D01*
G01X-3446302Y-607103D01*
G01X-3442666Y-614376D01*
G01X-3438120Y-622558D01*
G01X-3432666Y-633467D01*
G01X-3430393Y-637103D01*
G01X-3424484Y-648921D01*
G01X-3420848Y-655285D01*
G01X-3417211Y-662558D01*
G01X-3412666Y-670740D01*
G01X-3409030Y-678012D01*
G01X-3404484Y-686194D01*
G37*
G36*
G01X-2795824Y-1930001D02*
G01X-2795824Y-1985456D01*
G01X-2757642Y-1985456D01*
G01X-2757642Y-1874547D01*
G01X-2733097Y-1874547D01*
G01X-2714574Y-1874206D01*
G01X-2708097Y-1873183D01*
G01X-2706279Y-1870910D01*
G01X-2695370Y-1858183D01*
G01X-2694006Y-1856365D01*
G01X-2777188Y-1855456D01*
G01X-2839460Y-1855797D01*
G01X-2859915Y-1856820D01*
G01X-2854460Y-1863638D01*
G01X-2849006Y-1870001D01*
G01X-2846733Y-1872274D01*
G01X-2843551Y-1874092D01*
G01X-2818551Y-1874547D01*
G01X-2795824Y-1874547D01*
G01X-2795824Y-1930001D01*
G37*
G36*
G01X-2684915Y-1985456D02*
G01X-2680029Y-1986138D01*
G01X-2663551Y-1986365D01*
G01X-2646620Y-1986024D01*
G01X-2640369Y-1985001D01*
G01X-2637642Y-1981365D01*
G01X-2634460Y-1978183D01*
G01X-2629006Y-1971820D01*
G01X-2626733Y-1969547D01*
G01X-2624006Y-1965910D01*
G01X-2620824Y-1962729D01*
G01X-2615369Y-1956365D01*
G01X-2613097Y-1954092D01*
G01X-2609460Y-1949547D01*
G01X-2607188Y-1947729D01*
G01X-2605938Y-1947729D01*
G01X-2604915Y-1948638D01*
G01X-2600369Y-1953183D01*
G01X-2597642Y-1956820D01*
G01X-2594460Y-1960001D01*
G01X-2589006Y-1966365D01*
G01X-2586733Y-1968638D01*
G01X-2583097Y-1973183D01*
G01X-2580824Y-1975456D01*
G01X-2575369Y-1981820D01*
G01X-2573097Y-1984092D01*
G01X-2569915Y-1985910D01*
G01X-2547188Y-1986365D01*
G01X-2532074Y-1986024D01*
G01X-2527642Y-1985001D01*
G01X-2531279Y-1980456D01*
G01X-2535824Y-1975910D01*
G01X-2538551Y-1972274D01*
G01X-2544006Y-1966820D01*
G01X-2546733Y-1963183D01*
G01X-2549915Y-1960001D01*
G01X-2555370Y-1953638D01*
G01X-2557642Y-1951365D01*
G01X-2561279Y-1946820D01*
G01X-2565824Y-1942274D01*
G01X-2569460Y-1937729D01*
G01X-2574006Y-1933183D01*
G01X-2576733Y-1929547D01*
G01X-2579915Y-1926365D01*
G01X-2582188Y-1923638D01*
G01X-2582642Y-1920456D01*
G01X-2580369Y-1916819D01*
G01X-2577188Y-1913638D01*
G01X-2571733Y-1907274D01*
G01X-2569460Y-1905001D01*
G01X-2566733Y-1901365D01*
G01X-2563551Y-1898183D01*
G01X-2558097Y-1891819D01*
G01X-2555824Y-1889547D01*
G01X-2553097Y-1885910D01*
G01X-2549915Y-1882729D01*
G01X-2544460Y-1876365D01*
G01X-2542188Y-1874092D01*
G01X-2539461Y-1870456D01*
G01X-2536279Y-1867274D01*
G01X-2530824Y-1860910D01*
G01X-2528551Y-1858638D01*
G01X-2526733Y-1856365D01*
G01X-2531620Y-1855683D01*
G01X-2548097Y-1855456D01*
G01X-2565029Y-1855797D01*
G01X-2571279Y-1856820D01*
G01X-2575824Y-1861365D01*
G01X-2579460Y-1865910D01*
G01X-2581733Y-1868183D01*
G01X-2587188Y-1874547D01*
G01X-2589460Y-1876819D01*
G01X-2592188Y-1880456D01*
G01X-2595369Y-1883638D01*
G01X-2600824Y-1890001D01*
G01X-2605369Y-1894547D01*
G01X-2607642Y-1894547D01*
G01X-2609460Y-1892274D01*
G01X-2614006Y-1887729D01*
G01X-2616733Y-1884092D01*
G01X-2619915Y-1880910D01*
G01X-2625369Y-1874547D01*
G01X-2627642Y-1872274D01*
G01X-2631278Y-1867729D01*
G01X-2635824Y-1863183D01*
G01X-2638551Y-1859547D01*
G01X-2642188Y-1856365D01*
G01X-2665370Y-1855456D01*
G01X-2681165Y-1855797D01*
G01X-2685824Y-1856820D01*
G01X-2682188Y-1861365D01*
G01X-2677642Y-1865910D01*
G01X-2674915Y-1869547D01*
G01X-2671733Y-1872729D01*
G01X-2667188Y-1878183D01*
G01X-2664915Y-1880456D01*
G01X-2662188Y-1884092D01*
G01X-2659006Y-1887274D01*
G01X-2654460Y-1892728D01*
G01X-2652188Y-1895001D01*
G01X-2649460Y-1898638D01*
G01X-2646279Y-1901819D01*
G01X-2641733Y-1907274D01*
G01X-2639460Y-1909547D01*
G01X-2636733Y-1913183D01*
G01X-2633551Y-1916365D01*
G01X-2630824Y-1919547D01*
G01X-2630029Y-1921592D01*
G01X-2630369Y-1923183D01*
G01X-2633097Y-1926819D01*
G01X-2636278Y-1930001D01*
G01X-2641733Y-1936365D01*
G01X-2644006Y-1938638D01*
G01X-2647642Y-1943183D01*
G01X-2649915Y-1945456D01*
G01X-2655370Y-1951820D01*
G01X-2657642Y-1954092D01*
G01X-2661279Y-1958638D01*
G01X-2663551Y-1960910D01*
G01X-2669006Y-1967274D01*
G01X-2671279Y-1969547D01*
G01X-2674915Y-1974092D01*
G01X-2679460Y-1978638D01*
G01X-2682188Y-1982274D01*
G01X-2684915Y-1985456D01*
G37*
G36*
G01X-2685370Y-2288543D02*
G01X-2680142Y-2289225D01*
G01X-2663551Y-2289452D01*
G01X-2641279Y-2289452D01*
G01X-2639915Y-2287180D01*
G01X-2637188Y-2283998D01*
G01X-2634915Y-2281725D01*
G01X-2631279Y-2277180D01*
G01X-2626733Y-2272634D01*
G01X-2624006Y-2268998D01*
G01X-2620824Y-2265816D01*
G01X-2616279Y-2260361D01*
G01X-2614006Y-2258089D01*
G01X-2610370Y-2253543D01*
G01X-2607642Y-2251271D01*
G01X-2606051Y-2250930D01*
G01X-2604915Y-2251725D01*
G01X-2600370Y-2256271D01*
G01X-2597642Y-2259907D01*
G01X-2594460Y-2263089D01*
G01X-2589915Y-2268543D01*
G01X-2587642Y-2270816D01*
G01X-2584006Y-2275361D01*
G01X-2579460Y-2279907D01*
G01X-2576733Y-2283543D01*
G01X-2573551Y-2286725D01*
G01X-2571279Y-2288543D01*
G01X-2548551Y-2289452D01*
G01X-2532415Y-2289111D01*
G01X-2527642Y-2288089D01*
G01X-2531279Y-2283543D01*
G01X-2535824Y-2278998D01*
G01X-2539461Y-2274452D01*
G01X-2544006Y-2269907D01*
G01X-2546733Y-2266271D01*
G01X-2552188Y-2260816D01*
G01X-2554915Y-2257180D01*
G01X-2558097Y-2253998D01*
G01X-2563551Y-2247634D01*
G01X-2565824Y-2245362D01*
G01X-2569460Y-2240816D01*
G01X-2574006Y-2236271D01*
G01X-2577642Y-2231725D01*
G01X-2582188Y-2227180D01*
G01X-2583551Y-2224907D01*
G01X-2582642Y-2223089D01*
G01X-2579006Y-2218543D01*
G01X-2576733Y-2216271D01*
G01X-2574006Y-2212634D01*
G01X-2570824Y-2209453D01*
G01X-2565370Y-2203089D01*
G01X-2563097Y-2200816D01*
G01X-2560370Y-2197180D01*
G01X-2557188Y-2193998D01*
G01X-2551733Y-2187634D01*
G01X-2549460Y-2185362D01*
G01X-2546733Y-2181725D01*
G01X-2543551Y-2178544D01*
G01X-2538097Y-2172180D01*
G01X-2535824Y-2169907D01*
G01X-2533097Y-2166271D01*
G01X-2527188Y-2160362D01*
G01X-2525824Y-2158543D01*
G01X-2570370Y-2158543D01*
G01X-2572188Y-2160816D01*
G01X-2575369Y-2163998D01*
G01X-2580824Y-2170362D01*
G01X-2583097Y-2172634D01*
G01X-2585824Y-2176271D01*
G01X-2589006Y-2179453D01*
G01X-2594460Y-2185816D01*
G01X-2596733Y-2188089D01*
G01X-2599460Y-2191725D01*
G01X-2604915Y-2197180D01*
G01X-2605938Y-2198089D01*
G01X-2607188Y-2198089D01*
G01X-2609461Y-2195816D01*
G01X-2611733Y-2193089D01*
G01X-2614006Y-2190816D01*
G01X-2617642Y-2186271D01*
G01X-2619915Y-2183998D01*
G01X-2625370Y-2177634D01*
G01X-2627642Y-2175362D01*
G01X-2631279Y-2170816D01*
G01X-2635824Y-2166271D01*
G01X-2638551Y-2162634D01*
G01X-2642188Y-2159452D01*
G01X-2665370Y-2158543D01*
G01X-2681165Y-2158884D01*
G01X-2685824Y-2159907D01*
G01X-2682188Y-2164453D01*
G01X-2679915Y-2166725D01*
G01X-2674460Y-2173089D01*
G01X-2672188Y-2175362D01*
G01X-2669460Y-2178998D01*
G01X-2666279Y-2182180D01*
G01X-2661733Y-2187634D01*
G01X-2659461Y-2189907D01*
G01X-2655824Y-2194453D01*
G01X-2653551Y-2196725D01*
G01X-2648097Y-2203089D01*
G01X-2645824Y-2205362D01*
G01X-2643097Y-2208998D01*
G01X-2639915Y-2212180D01*
G01X-2635370Y-2217634D01*
G01X-2633097Y-2219907D01*
G01X-2630824Y-2223089D01*
G01X-2630029Y-2224793D01*
G01X-2630370Y-2226271D01*
G01X-2634006Y-2230816D01*
G01X-2638551Y-2235362D01*
G01X-2641279Y-2238998D01*
G01X-2644461Y-2242180D01*
G01X-2649006Y-2247634D01*
G01X-2651279Y-2249907D01*
G01X-2654915Y-2254452D01*
G01X-2657188Y-2256725D01*
G01X-2662642Y-2263089D01*
G01X-2664915Y-2265361D01*
G01X-2668551Y-2269907D01*
G01X-2673097Y-2274452D01*
G01X-2675824Y-2278089D01*
G01X-2679006Y-2281271D01*
G01X-2683551Y-2286725D01*
G01X-2685370Y-2288543D01*
G37*
G36*
G01X-2854915Y-2223543D02*
G01X-2854915Y-2288543D01*
G01X-2814915Y-2288543D01*
G01X-2814915Y-2177634D01*
G01X-2743097Y-2177634D01*
G01X-2743097Y-2208543D01*
G01X-2808551Y-2208543D01*
G01X-2807642Y-2210362D01*
G01X-2805370Y-2213089D01*
G01X-2803097Y-2215362D01*
G01X-2800370Y-2218998D01*
G01X-2797188Y-2222180D01*
G01X-2792642Y-2227634D01*
G01X-2790370Y-2229907D01*
G01X-2787642Y-2233543D01*
G01X-2784461Y-2236725D01*
G01X-2779915Y-2242180D01*
G01X-2777642Y-2244452D01*
G01X-2774915Y-2248089D01*
G01X-2771733Y-2251271D01*
G01X-2767188Y-2256725D01*
G01X-2764915Y-2258998D01*
G01X-2762188Y-2262634D01*
G01X-2759006Y-2265816D01*
G01X-2754461Y-2271271D01*
G01X-2752188Y-2273543D01*
G01X-2749460Y-2277180D01*
G01X-2746279Y-2280361D01*
G01X-2740824Y-2286725D01*
G01X-2738097Y-2288089D01*
G01X-2715369Y-2288543D01*
G01X-2694006Y-2288543D01*
G01X-2695370Y-2286271D01*
G01X-2698097Y-2283089D01*
G01X-2700370Y-2280816D01*
G01X-2703097Y-2277180D01*
G01X-2706279Y-2273998D01*
G01X-2710824Y-2268543D01*
G01X-2713097Y-2266271D01*
G01X-2715824Y-2262634D01*
G01X-2719006Y-2259452D01*
G01X-2723551Y-2253998D01*
G01X-2725824Y-2251725D01*
G01X-2728551Y-2248089D01*
G01X-2731733Y-2244907D01*
G01X-2736279Y-2239452D01*
G01X-2738551Y-2237180D01*
G01X-2742188Y-2232634D01*
G01X-2744006Y-2229452D01*
G01X-2744915Y-2227634D01*
G01X-2704915Y-2227634D01*
G01X-2704915Y-2158543D01*
G01X-2854915Y-2158543D01*
G01X-2854915Y-2223543D01*
G37*
G36*
G01X-1886998Y-2288089D02*
G01X-1903930Y-2289111D01*
G01X-1952907Y-2289452D01*
G01X-2017907Y-2289452D01*
G01X-2017907Y-2159452D01*
G01X-1872452Y-2159452D01*
G01X-1874271Y-2161725D01*
G01X-1876998Y-2165362D01*
G01X-1879271Y-2167634D01*
G01X-1884725Y-2173998D01*
G01X-1886998Y-2176725D01*
G01X-1899043Y-2178089D01*
G01X-1933362Y-2178543D01*
G01X-1978816Y-2178543D01*
G01X-1978816Y-2270361D01*
G01X-1926544Y-2270361D01*
G01X-1872907Y-2270816D01*
G01X-1872225Y-2271384D01*
G01X-1872907Y-2272180D01*
G01X-1876089Y-2275361D01*
G01X-1878816Y-2278998D01*
G01X-1881089Y-2281271D01*
G01X-1884725Y-2285816D01*
G01X-1886998Y-2288089D01*
G37*
G36*
G01X-2054271Y-2209453D02*
G01X-2043362Y-2209453D01*
G01X-2043362Y-2289452D01*
G01X-2186089Y-2289452D01*
G01X-2186089Y-2228543D01*
G01X-2146998Y-2228543D01*
G01X-2146998Y-2248998D01*
G01X-2146543Y-2269907D01*
G01X-2113816Y-2270361D01*
G01X-2113816Y-2270361D01*
G01X-2081543Y-2270361D01*
G01X-2081543Y-2228543D01*
G01X-2146998Y-2228543D01*
G01X-2186089Y-2228543D01*
G01X-2186089Y-2178543D01*
G01X-2146998Y-2178543D01*
G01X-2146998Y-2193543D01*
G01X-2146543Y-2208998D01*
G01X-2113816Y-2209453D01*
G01X-2113816Y-2209453D01*
G01X-2081543Y-2209453D01*
G01X-2081543Y-2178543D01*
G01X-2146998Y-2178543D01*
G01X-2186089Y-2178543D01*
G01X-2186089Y-2159452D01*
G01X-2054271Y-2159452D01*
G01X-2054271Y-2209453D01*
G37*
G36*
G01X-3243030Y-969603D02*
G01X-3239507Y-970625D01*
G01X-3229848Y-970966D01*
G01X-3220189Y-970512D01*
G01X-3216666Y-969148D01*
G01X-3215302Y-965966D01*
G01X-3211666Y-958693D01*
G01X-3208030Y-952330D01*
G01X-3202575Y-941421D01*
G01X-3198939Y-935057D01*
G01X-3195302Y-927784D01*
G01X-3190757Y-919602D01*
G01X-3187121Y-912330D01*
G01X-3182575Y-904148D01*
G01X-3178939Y-896875D01*
G01X-3174393Y-888693D01*
G01X-3168939Y-877784D01*
G01X-3166666Y-874148D01*
G01X-3160757Y-862330D01*
G01X-3157120Y-855966D01*
G01X-3153484Y-848694D01*
G01X-3151211Y-844603D01*
G01X-3149848Y-841875D01*
G01X-3168484Y-840966D01*
G01X-3182575Y-841421D01*
G01X-3187575Y-842784D01*
G01X-3188939Y-845966D01*
G01X-3201666Y-871421D01*
G01X-3203484Y-875966D01*
G01X-3227121Y-923239D01*
G01X-3228939Y-925966D01*
G01X-3229848Y-926648D01*
G01X-3230757Y-925966D01*
G01X-3234393Y-918693D01*
G01X-3237121Y-912330D01*
G01X-3271666Y-843239D01*
G01X-3272575Y-840966D01*
G01X-3310757Y-840966D01*
G01X-3309848Y-843239D01*
G01X-3305302Y-851421D01*
G01X-3299848Y-862330D01*
G01X-3297575Y-865966D01*
G01X-3291666Y-877784D01*
G01X-3288029Y-884148D01*
G01X-3284393Y-891421D01*
G01X-3279848Y-899602D01*
G01X-3276211Y-906875D01*
G01X-3271666Y-915057D01*
G01X-3268030Y-922330D01*
G01X-3263484Y-930511D01*
G01X-3258030Y-941421D01*
G01X-3255757Y-945057D01*
G01X-3249848Y-956875D01*
G01X-3246211Y-963239D01*
G01X-3243030Y-969603D01*
G37*
G36*
G01X-3464848Y-969148D02*
G01X-3466211Y-970966D01*
G01X-3410757Y-970966D01*
G01X-3368939Y-970625D01*
G01X-3354393Y-969603D01*
G01X-3351666Y-965966D01*
G01X-3348484Y-962784D01*
G01X-3343030Y-956421D01*
G01X-3340757Y-954148D01*
G01X-3337121Y-949602D01*
G01X-3334848Y-947330D01*
G01X-3329393Y-940966D01*
G01X-3327120Y-938693D01*
G01X-3323484Y-934148D01*
G01X-3318484Y-929148D01*
G01X-3317802Y-927557D01*
G01X-3318484Y-926421D01*
G01X-3322120Y-921875D01*
G01X-3324393Y-919602D01*
G01X-3328030Y-915057D01*
G01X-3332575Y-910512D01*
G01X-3335302Y-906875D01*
G01X-3338484Y-903693D01*
G01X-3343939Y-897330D01*
G01X-3346211Y-895057D01*
G01X-3349848Y-890512D01*
G01X-3354393Y-885966D01*
G01X-3363939Y-884943D01*
G01X-3390757Y-884602D01*
G01X-3426211Y-884602D01*
G01X-3426211Y-860057D01*
G01X-3379848Y-860057D01*
G01X-3344848Y-859716D01*
G01X-3332575Y-858693D01*
G01X-3329848Y-855057D01*
G01X-3326666Y-851875D01*
G01X-3323030Y-847330D01*
G01X-3320302Y-844148D01*
G01X-3318484Y-841421D01*
G01X-3389393Y-840966D01*
G01X-3460757Y-840966D01*
G01X-3460757Y-902784D01*
G01X-3458484Y-903239D01*
G01X-3420302Y-903693D01*
G01X-3393143Y-904034D01*
G01X-3383484Y-905057D01*
G01X-3381211Y-907330D01*
G01X-3375757Y-913693D01*
G01X-3373484Y-915966D01*
G01X-3369848Y-920511D01*
G01X-3365302Y-925057D01*
G01X-3363939Y-927330D01*
G01X-3364848Y-929148D01*
G01X-3368484Y-933693D01*
G01X-3370757Y-935966D01*
G01X-3373484Y-939602D01*
G01X-3376666Y-942784D01*
G01X-3381211Y-948239D01*
G01X-3383484Y-950512D01*
G01X-3392348Y-951534D01*
G01X-3441893Y-952216D01*
G01X-3450757Y-953239D01*
G01X-3454393Y-957784D01*
G01X-3456666Y-960057D01*
G01X-3462120Y-966421D01*
G01X-3464848Y-969148D01*
G37*
G36*
G01X-3318029Y-1252102D02*
G01X-3314279Y-1253125D01*
G01X-3304848Y-1253466D01*
G01X-3295530Y-1253125D01*
G01X-3292120Y-1252102D01*
G01X-3285302Y-1238466D01*
G01X-3280757Y-1230284D01*
G01X-3277120Y-1223011D01*
G01X-3272575Y-1214829D01*
G01X-3268939Y-1207557D01*
G01X-3264393Y-1199375D01*
G01X-3260757Y-1192102D01*
G01X-3256211Y-1183920D01*
G01X-3252575Y-1176648D01*
G01X-3248030Y-1168466D01*
G01X-3242575Y-1157557D01*
G01X-3240302Y-1153920D01*
G01X-3234393Y-1142102D01*
G01X-3230757Y-1135738D01*
G01X-3225302Y-1124829D01*
G01X-3229280Y-1123807D01*
G01X-3243030Y-1123466D01*
G01X-3261666Y-1123466D01*
G01X-3262575Y-1125738D01*
G01X-3282575Y-1165738D01*
G01X-3285302Y-1172102D01*
G01X-3301666Y-1204829D01*
G01X-3303939Y-1208011D01*
G01X-3305188Y-1208352D01*
G01X-3306211Y-1207557D01*
G01X-3320757Y-1178466D01*
G01X-3323484Y-1172102D01*
G01X-3345302Y-1128466D01*
G01X-3347120Y-1125284D01*
G01X-3352461Y-1123920D01*
G01X-3366666Y-1123466D01*
G01X-3385302Y-1123466D01*
G01X-3384848Y-1125284D01*
G01X-3383484Y-1128466D01*
G01X-3379848Y-1134829D01*
G01X-3374393Y-1145738D01*
G01X-3369848Y-1153920D01*
G01X-3366211Y-1161193D01*
G01X-3361666Y-1169375D01*
G01X-3358030Y-1176648D01*
G01X-3353484Y-1184829D01*
G01X-3349848Y-1192102D01*
G01X-3345302Y-1200284D01*
G01X-3341666Y-1207557D01*
G01X-3337120Y-1215738D01*
G01X-3331666Y-1226648D01*
G01X-3329393Y-1230284D01*
G01X-3323484Y-1242102D01*
G01X-3319848Y-1248466D01*
G01X-3318029Y-1252102D01*
G37*
G36*
G01X-3534393Y-1252557D02*
G01X-3518030Y-1253238D01*
G01X-3467120Y-1253466D01*
G01X-3398939Y-1253466D01*
G01X-3398939Y-1123466D01*
G01X-3466666Y-1123466D01*
G01X-3517234Y-1123807D01*
G01X-3533484Y-1124829D01*
G01X-3530757Y-1128466D01*
G01X-3527575Y-1131647D01*
G01X-3523939Y-1136193D01*
G01X-3521211Y-1139375D01*
G01X-3519620Y-1141193D01*
G01X-3517575Y-1142102D01*
G01X-3476211Y-1142557D01*
G01X-3437120Y-1142557D01*
G01X-3437120Y-1176193D01*
G01X-3518030Y-1176193D01*
G01X-3518484Y-1178466D01*
G01X-3518939Y-1188011D01*
G01X-3518939Y-1195284D01*
G01X-3437120Y-1195284D01*
G01X-3437120Y-1234375D01*
G01X-3477575Y-1234375D01*
G01X-3508143Y-1234716D01*
G01X-3518939Y-1235738D01*
G01X-3521211Y-1238011D01*
G01X-3532120Y-1250738D01*
G01X-3534393Y-1252557D01*
G37*
G36*
G01X-3216211Y-1252102D02*
G01X-3199961Y-1253125D01*
G01X-3149393Y-1253466D01*
G01X-3081666Y-1253466D01*
G01X-3081666Y-1123466D01*
G01X-3149393Y-1123466D01*
G01X-3199961Y-1123807D01*
G01X-3216211Y-1124829D01*
G01X-3213484Y-1128466D01*
G01X-3210302Y-1131647D01*
G01X-3205757Y-1137102D01*
G01X-3203029Y-1140284D01*
G01X-3201666Y-1142557D01*
G01X-3119848Y-1142557D01*
G01X-3119848Y-1176193D01*
G01X-3200757Y-1176193D01*
G01X-3201211Y-1178466D01*
G01X-3201666Y-1188011D01*
G01X-3201666Y-1195284D01*
G01X-3119848Y-1195284D01*
G01X-3119848Y-1234375D01*
G01X-3160302Y-1234375D01*
G01X-3190870Y-1234716D01*
G01X-3201666Y-1235738D01*
G01X-3203939Y-1238011D01*
G01X-3208484Y-1243466D01*
G01X-3213939Y-1249829D01*
G01X-3216211Y-1252102D01*
G37*
G36*
G01X-2240152Y-1932198D02*
G01X-2240152Y-1986365D01*
G01X-2207577Y-1986365D01*
G01X-2207577Y-1925001D01*
G01X-2206062Y-1925380D01*
G01X-2203789Y-1926516D01*
G01X-2201516Y-1928031D01*
G01X-2198486Y-1929925D01*
G01X-2195077Y-1932198D01*
G01X-2189016Y-1935986D01*
G01X-2185607Y-1938259D01*
G01X-2179547Y-1942046D01*
G01X-2176137Y-1944319D01*
G01X-2172728Y-1945456D01*
G01X-2170456Y-1944698D01*
G01X-2168183Y-1943183D01*
G01X-2159092Y-1937501D01*
G01X-2155683Y-1935228D01*
G01X-2151895Y-1932956D01*
G01X-2148486Y-1930683D01*
G01X-2142425Y-1926895D01*
G01X-2139774Y-1925380D01*
G01X-2138922Y-1932766D01*
G01X-2138637Y-1955683D01*
G01X-2138637Y-1986365D01*
G01X-2106062Y-1986365D01*
G01X-2106062Y-1932577D01*
G01X-2106346Y-1892331D01*
G01X-2107198Y-1879168D01*
G01X-2109471Y-1880304D01*
G01X-2112501Y-1882198D01*
G01X-2122728Y-1889016D01*
G01X-2128789Y-1892804D01*
G01X-2135607Y-1897350D01*
G01X-2141668Y-1901137D01*
G01X-2151895Y-1907956D01*
G01X-2155683Y-1910228D01*
G01X-2165910Y-1917046D01*
G01X-2168941Y-1918941D01*
G01X-2171592Y-1920456D01*
G01X-2174244Y-1920834D01*
G01X-2176516Y-1919698D01*
G01X-2179168Y-1917804D01*
G01X-2185986Y-1913259D01*
G01X-2189774Y-1910986D01*
G01X-2200001Y-1904168D01*
G01X-2206062Y-1900380D01*
G01X-2216289Y-1893562D01*
G01X-2220077Y-1891289D01*
G01X-2230304Y-1884471D01*
G01X-2236365Y-1880683D01*
G01X-2239016Y-1878789D01*
G01X-2239869Y-1891763D01*
G01X-2240152Y-1932198D01*
G37*
G36*
G01X-2085607Y-1932198D02*
G01X-2085607Y-1986365D01*
G01X-2031062Y-1986365D01*
G01X-1990058Y-1986081D01*
G01X-1976138Y-1985228D01*
G01X-1974622Y-1983334D01*
G01X-1972728Y-1981441D01*
G01X-1970456Y-1978410D01*
G01X-1967804Y-1975759D01*
G01X-1964016Y-1971213D01*
G01X-1974338Y-1970645D01*
G01X-2007577Y-1970456D01*
G01X-2052274Y-1970456D01*
G01X-2052274Y-1893941D01*
G01X-2014774Y-1893941D01*
G01X-1986459Y-1893656D01*
G01X-1976516Y-1892804D01*
G01X-1974622Y-1890910D01*
G01X-1971592Y-1887122D01*
G01X-1967047Y-1881819D01*
G01X-1964774Y-1879546D01*
G01X-1963637Y-1878031D01*
G01X-2085607Y-1878031D01*
G01X-2085607Y-1932198D01*
G37*
G36*
G01X-1947728Y-1932198D02*
G01X-1947728Y-1986365D01*
G01X-1826516Y-1986365D01*
G01X-1826516Y-1878031D01*
G01X-1857577Y-1878031D01*
G01X-1857577Y-1970456D01*
G01X-1915910Y-1970456D01*
G01X-1915910Y-1878031D01*
G01X-1947728Y-1878031D01*
G01X-1947728Y-1932198D01*
G37*
G04 Text End*

G04 PolygonModel Start*
G54D10*
G01X-4133463Y-2159659D02*
G03X-3633463Y-2659659I500000J0D01*
G01X-3633463Y-2659659D02*
G01X-333463Y-2659659D01*
G01X-333463Y-2659659D02*
G03X166537Y-2159659I0J500000D01*
G01X166537Y1140341D02*
G03X-333463Y1640341I-500000J0D01*
G01X-3633463Y1640341D02*
G03X-4133463Y1140341I0J-500000D01*
G01X166537Y-2159659D02*
G01X166537Y-823990D01*
G01X-298405Y1640341D02*
G01X-3598405Y1640341D01*
G54D11*
G01X-2277405Y-452697D02*
G01X-2277105Y-452997D01*
G54D12*
G01X-3327053Y-821D02*
G01X-4097903Y-821D01*
G01X-351271Y-499D02*
G01X116538Y-499D01*
G01X131872Y-499D02*
G01X-351271Y-499D01*
G54D11*
G01X-3473535Y-2249659D02*
G03X-3197378Y-2525816I276157J0D01*
G01X-3187905Y-2525816D01*
G01X-3723463Y-1999061D02*
G01X-3734150Y-1999061D01*
G02X-3998756Y-1718669I26072J289654D01*
G01X-494061Y-2249659D02*
G01X-494061Y-2260346D01*
G02X-774453Y-2524952I-289654J26072D01*
G01X-243463Y-1999731D02*
G03X32694Y-1723574I0J276157D01*
G01X32694Y-1714101D01*
G01X-243463Y979744D02*
G01X-232776Y979744D01*
G02X31830Y699352I-26072J-289654D01*
G01X-493391Y1230341D02*
G03X-769548Y1506498I-276157J0D01*
G01X-779021Y1506498D01*
G01X-3472866Y1230341D02*
G01X-3472866Y1241028D01*
G02X-3192474Y1505634I289654J-26072D01*
G01X-3723463Y980413D02*
G03X-3999620Y704256I0J-276157D01*
G01X-3999620Y694783D01*
G36*
G01X-2651364Y-476521D02*
G01X-2673052Y-454833D01*
G01X-2673052Y-451090D01*
G01X-2652052Y-451090D01*
G01X-2651052Y-452090D01*
G01X-2651052Y-476521D01*
G01X-2651364Y-476521D01*
G37*
G36*
G01X-2256091Y-435897D02*
G01X-2256091Y-469852D01*
G01X-2289928Y-469852D01*
G01X-2329928Y-429852D01*
G01X-2330122Y-429852D01*
G01X-2330122Y-385269D01*
G01X-2296706Y-385269D01*
G01X-2296122Y-385852D01*
G01X-2296122Y-435897D01*
G01X-2256091Y-435897D01*
G37*
G36*
G01X-3985760Y-1800405D02*
G01X-3929706Y-1903777D01*
G01X-3848173Y-1970751D01*
G01X-3773191Y-1996958D01*
G01X-3774647Y-2031173D01*
G01X-3864188Y-2071212D01*
G01X-3923154Y-2141098D01*
G01X-3950817Y-2213895D01*
G01X-3970473Y-2245926D01*
G01X-4012695Y-2221903D01*
G01X-3999592Y-1817148D01*
G01X-3985760Y-1800405D01*
G37*
G36*
G01X-3186443Y-2525469D02*
G01X-3278168Y-2513457D01*
G01X-3355697Y-2478514D01*
G01X-3443054Y-2382421D01*
G01X-3464894Y-2328915D01*
G01X-3485641Y-2291788D01*
G01X-3538055Y-2362766D01*
G01X-3602481Y-2442479D01*
G01X-3669091Y-2488342D01*
G01X-3719321Y-2507997D01*
G01X-3694206Y-2637941D01*
G01X-3398284Y-2646677D01*
G01X-3186443Y-2525469D01*
G37*
G36*
G01X-692717Y-2511956D02*
G01X-589345Y-2455902D01*
G01X-522371Y-2374368D01*
G01X-496164Y-2299387D01*
G01X-461949Y-2300843D01*
G01X-421910Y-2390384D01*
G01X-352024Y-2449350D01*
G01X-279227Y-2477013D01*
G01X-247196Y-2496668D01*
G01X-271219Y-2538891D01*
G01X-675974Y-2525787D01*
G01X-692717Y-2511956D01*
G37*
G36*
G01X32347Y-1712638D02*
G01X20335Y-1804363D01*
G01X-14608Y-1881893D01*
G01X-110701Y-1969250D01*
G01X-164207Y-1991089D01*
G01X-201334Y-2011836D01*
G01X-130356Y-2064251D01*
G01X-50643Y-2128677D01*
G01X-4780Y-2195286D01*
G01X14875Y-2245517D01*
G01X144819Y-2220402D01*
G01X153555Y-1924480D01*
G01X32347Y-1712638D01*
G37*
G36*
G01X18834Y781087D02*
G01X-37220Y884460D01*
G01X-118754Y951433D01*
G01X-193735Y977641D01*
G01X-192279Y1011855D01*
G01X-102738Y1051894D01*
G01X-43772Y1121780D01*
G01X-16109Y1194577D01*
G01X3546Y1226608D01*
G01X45769Y1202585D01*
G01X32665Y797831D01*
G01X18834Y781087D01*
G37*
G36*
G01X-780484Y1506151D02*
G01X-688759Y1494139D01*
G01X-611229Y1459196D01*
G01X-523872Y1363104D01*
G01X-502033Y1309598D01*
G01X-481286Y1272471D01*
G01X-428871Y1343448D01*
G01X-364445Y1423162D01*
G01X-297836Y1469024D01*
G01X-247605Y1488680D01*
G01X-272720Y1618623D01*
G01X-568642Y1627359D01*
G01X-780484Y1506151D01*
G37*
G36*
G01X-3274209Y1492638D02*
G01X-3377582Y1436584D01*
G01X-3444555Y1355051D01*
G01X-3470763Y1280069D01*
G01X-3504977Y1281525D01*
G01X-3545016Y1371066D01*
G01X-3614902Y1430032D01*
G01X-3687699Y1457695D01*
G01X-3719730Y1477351D01*
G01X-3695707Y1519573D01*
G01X-3290953Y1506470D01*
G01X-3274209Y1492638D01*
G37*
G36*
G01X-3999273Y693321D02*
G01X-3987261Y785046D01*
G01X-3952318Y862575D01*
G01X-3856226Y949932D01*
G01X-3802720Y971771D01*
G01X-3765593Y992519D01*
G01X-3836570Y1044933D01*
G01X-3916284Y1109359D01*
G01X-3962146Y1175969D01*
G01X-3981802Y1226199D01*
G01X-4111745Y1201084D01*
G01X-4120481Y905162D01*
G01X-3999273Y693321D01*
G37*
G36*
G01X-2650473Y-159157D02*
G01X-2649912Y-159157D01*
G01X-2650691Y-162923D01*
G01X-2650687Y-169250D01*
G01X-2650473Y-159157D01*
G37*
G36*
G01X-1770988Y-621419D02*
G01X-2491937Y-621419D01*
G01X-2506306Y-621513D01*
G01X-2707364Y-420546D01*
G01X-2707364Y-401214D01*
G01X-2707122Y-159157D01*
G01X-2650473Y-159157D01*
G01X-2649908Y-132584D01*
G01X-2414012Y-132584D01*
G01X-2414012Y-68717D01*
G01X-2314092Y-68717D01*
G01X-2314092Y-284017D01*
G01X-876418Y-284017D01*
G01X-876418Y-131149D01*
G01X-520419Y-131149D01*
G01X-520419Y-383967D01*
G01X-814418Y-383967D01*
G01X-814418Y-404349D01*
G01X-1770988Y-404349D01*
G01X-1770988Y-621419D01*
G37*
G36*
G01X-1238015Y-621509D02*
G01X-1238015Y-522159D01*
G01X-1450407Y-522159D01*
G01X-1450407Y-283970D01*
G01X-642273Y-283970D01*
G01X-642272Y-284001D01*
G01X-545594Y-280918D01*
G01X-540490Y-159157D01*
G01X-465290Y-159157D01*
G01X-465290Y-395997D01*
G01X-466814Y-395997D01*
G01X-466814Y-403460D01*
G01X-684871Y-621419D01*
G01X-699241Y-621419D01*
G01X-856438Y-621288D01*
G01X-1238015Y-621509D01*
G37*
G36*
G01X-2004121Y67003D02*
G01X-2402122Y67003D01*
G01X-2402122Y167003D01*
G01X-2004121Y167003D01*
G01X-2004121Y67003D01*
G37*
G36*
G01X-1498214Y168327D02*
G01X-752215Y168327D01*
G01X-752215Y68327D01*
G01X-1498214Y68327D01*
G01X-1498214Y168327D01*
G37*
G36*
G01X-1496997Y-474999D02*
G01X-1441997Y-529999D01*
G01X-1441997Y-401999D01*
G01X-1443997Y-399999D01*
G01X-1492997Y-399999D01*
G01X-1496997Y-403999D01*
G01X-1496997Y-474999D01*
G37*
G36*
G01X-1818620Y34490D02*
G01X-1785090Y34490D01*
G01X-1818897Y68189D01*
G01X-1818620Y34490D01*
G37*
G36*
G01X-1873122Y167003D02*
G01X-1817121Y167003D01*
G01X-1817121Y67003D01*
G01X-1873122Y67003D01*
G01X-1873122Y167003D01*
G37*
G36*
G01X-1456438Y93327D02*
G01X-1771438Y93327D01*
G01X-1771438Y168327D01*
G01X-1456438Y168327D01*
G01X-1456438Y93327D01*
G37*

G04 Rect Start*
G36*
G01X-4283323Y409289D02*
G01X-4283323Y1134649D01*
G01X-3983603Y1134649D01*
G01X-3983603Y409289D01*
G01X-4283323Y409289D01*
G37*
G36*
G01X-4283323Y-2186363D02*
G01X-4283323Y-412463D01*
G01X-3983603Y-412463D01*
G01X-3983603Y-2186363D01*
G01X-4283323Y-2186363D01*
G37*
G36*
G01X-3770812Y-169177D02*
G01X-3770812Y-69187D01*
G01X-2645462Y-69187D01*
G01X-2645462Y-169177D01*
G01X-3770812Y-169177D01*
G37*
G36*
G01X-2349724Y-168717D02*
G01X-2349724Y-68717D01*
G01X-1478800Y-68717D01*
G01X-1478800Y-168717D01*
G01X-2349724Y-168717D01*
G37*
G36*
G01X-777418Y-69149D02*
G01X-777418Y-169149D01*
G01X-1591009Y-169149D01*
G01X-1591009Y-69149D01*
G01X-777418Y-69149D01*
G37*
G36*
G01X-2791718Y-69187D02*
G01X-2791718Y50003D01*
G01X-2663492Y50003D01*
G01X-2663492Y-69187D01*
G01X-2791718Y-69187D01*
G37*
G36*
G01X-1817897Y68189D02*
G01X-1817897Y-69002D01*
G01X-2401726Y-69002D01*
G01X-2401726Y68189D01*
G01X-1817897Y68189D01*
G37*
G36*
G01X-2322421Y-156712D02*
G01X-2413611Y-156712D01*
G01X-2413611Y-70882D01*
G01X-2322421Y-70882D01*
G01X-2322421Y-156712D01*
G37*
G36*
G01X-787916Y68189D02*
G01X-787916Y-69002D01*
G01X-1500744Y-69002D01*
G01X-1500744Y68189D01*
G01X-787916Y68189D01*
G37*
G36*
G01X-642120Y-330787D02*
G01X-518280Y-330787D01*
G01X-518280Y-352997D01*
G01X-642120Y-352997D01*
G01X-642120Y-330787D01*
G37*
G36*
G01X-3783892Y-69187D02*
G01X-3783892Y68003D01*
G01X-2922503Y68003D01*
G01X-2922503Y-69187D01*
G01X-3783892Y-69187D01*
G37*
G36*
G01X-3527663Y167535D02*
G01X-3527663Y67545D01*
G01X-3726012Y67545D01*
G01X-3726012Y167535D01*
G01X-3527663Y167535D01*
G37*
G36*
G01X208404Y400000D02*
G01X-265596Y400000D01*
G01X-265596Y550000D01*
G01X208404Y550000D01*
G01X208404Y400000D01*
G37*
G36*
G01X-265596Y-160675D02*
G01X-265596Y467325D01*
G01X-115596Y467325D01*
G01X-115596Y-160675D01*
G01X-265596Y-160675D01*
G37*
G36*
G01X-115596Y-68865D02*
G01X-115596Y-467865D01*
G01X-265596Y-467865D01*
G01X-265596Y-68865D01*
G01X-115596Y-68865D01*
G37*
G36*
G01X315952Y-414608D02*
G01X315952Y-1134968D01*
G01X16232Y-1134968D01*
G01X16232Y-414608D01*
G01X315952Y-414608D01*
G37*
G36*
G01X315952Y1145043D02*
G01X315952Y403143D01*
G01X16232Y403143D01*
G01X16232Y1145043D01*
G01X315952Y1145043D01*
G37*
G36*
G01X-540821Y-168855D02*
G01X-540821Y-68865D01*
G01X-458973Y-68865D01*
G01X-458973Y-168855D01*
G01X-540821Y-168855D01*
G37*
G36*
G01X-209173Y167857D02*
G01X-209173Y67867D01*
G01X-561522Y67867D01*
G01X-561522Y167857D01*
G01X-209173Y167857D01*
G37*
G36*
G01X-1644571Y-384498D02*
G01X-1644571Y-286498D01*
G01X-1552570Y-286498D01*
G01X-1552570Y-384498D01*
G01X-1644571Y-384498D01*
G37*
G36*
G01X315927Y-550000D02*
G01X-265473Y-550000D01*
G01X-265473Y-400000D01*
G01X315927Y-400000D01*
G01X315927Y-550000D01*
G37*
G36*
G01X-3408123Y67003D02*
G01X-3408123Y167003D01*
G01X-2921031Y167003D01*
G01X-2921031Y67003D01*
G01X-3408123Y67003D01*
G37*
G36*
G01X-2923722Y-69171D02*
G01X-2923722Y-17038D01*
G01X-2790495Y-17038D01*
G01X-2790495Y-69171D01*
G01X-2923722Y-69171D01*
G37*
G36*
G01X-1426653Y-361017D02*
G01X-1426653Y-284017D01*
G01X-1249653Y-284017D01*
G01X-1249653Y-361017D01*
G01X-1426653Y-361017D01*
G37*
G36*
G01X-177543Y68595D02*
G01X-177543Y-68595D01*
G01X-531373Y-68595D01*
G01X-531373Y68595D01*
G01X-177543Y68595D01*
G37*
G36*
G01X-3850435Y-85454D02*
G01X-3850435Y466546D01*
G01X-3700435Y466546D01*
G01X-3700435Y-85454D01*
G01X-3850435Y-85454D01*
G37*
G36*
G01X-3700435Y-69645D02*
G01X-3700435Y-468645D01*
G01X-3850435Y-468645D01*
G01X-3850435Y-69645D01*
G01X-3700435Y-69645D01*
G37*
G36*
G01X-4281958Y548680D02*
G01X-3700558Y548680D01*
G01X-3700558Y398680D01*
G01X-4281958Y398680D01*
G01X-4281958Y548680D01*
G37*
G36*
G01X-4174435Y-401319D02*
G01X-3700435Y-401319D01*
G01X-3700435Y-551319D01*
G01X-4174435Y-551319D01*
G01X-4174435Y-401319D01*
G37*
G36*
G01X-3046390Y111000D02*
G01X-3046390Y553000D01*
G01X-2883993Y553000D01*
G01X-2883993Y111000D01*
G01X-3046390Y111000D01*
G37*
G36*
G01X-540821Y-168865D02*
G01X-540821Y-68865D01*
G01X-201229Y-68865D01*
G01X-201229Y-168865D01*
G01X-540821Y-168865D01*
G37*
G36*
G01X-1450988Y-621419D02*
G01X-1450988Y-521419D01*
G01X-1369411Y-521419D01*
G01X-1369411Y-621419D01*
G01X-1450988Y-621419D01*
G37*
G36*
G01X-2808264Y150972D02*
G01X-2808264Y287973D01*
G01X-2646867Y287973D01*
G01X-2646867Y150972D01*
G01X-2808264Y150972D01*
G37*
G36*
G01X-1496988Y-550419D02*
G01X-1496988Y-621419D01*
G01X-1787565Y-621419D01*
G01X-1787565Y-550419D01*
G01X-1496988Y-550419D01*
G37*
G36*
G01X-2646995Y50000D02*
G01X-2792446Y50000D01*
G01X-2792446Y151744D01*
G01X-2646995Y151744D01*
G01X-2646995Y50000D01*
G37*
G36*
G01X-2613011Y67940D02*
G01X-2693462Y67940D01*
G01X-2693462Y121684D01*
G01X-2613011Y121684D01*
G01X-2613011Y67940D01*
G37*
G36*
G01X-1819620Y-68570D02*
G01X-1819620Y34490D01*
G01X-1767241Y34490D01*
G01X-1767241Y-68570D01*
G01X-1819620Y-68570D01*
G37*
G04 Rect End*

G04 Pad Start*
G54D13*
G01X-2333869Y-1374000D03*
G01X-2333869Y-1120000D03*
G01X-2587869Y-1120000D03*
G01X-2587869Y-1374000D03*
G54D14*
G01X-243463Y-2249659D03*
G01X-3723463Y-2249659D03*
G01X-243463Y1230341D03*
G01X-3723463Y1230341D03*
G54D15*
G01X-2532109Y-499D03*
G54D16*
G01X-2429217Y49488D03*
G54D17*
G01X-2429217Y-499D03*
G54D16*
G01X-2429217Y-50486D03*
G54D18*
G01X-2482122Y-103390D03*
G54D20*
G01X-2532109Y-103390D03*
G54D18*
G01X-2582096Y-103390D03*
G54D16*
G01X-2635001Y-50486D03*
G54D17*
G01X-2635001Y-499D03*
G54D16*
G01X-2635001Y49488D03*
G54D20*
G01X-2582096Y102393D03*
G01X-2532109Y102393D03*
G01X-2482122Y102393D03*
G54D15*
G01X-659162Y-499D03*
G54D16*
G01X-556270Y49488D03*
G54D17*
G01X-556270Y-499D03*
G54D16*
G01X-556270Y-50486D03*
G54D18*
G01X-609175Y-103390D03*
G54D20*
G01X-659162Y-103390D03*
G54D18*
G01X-709149Y-103390D03*
G54D16*
G01X-762054Y-50486D03*
G54D17*
G01X-762054Y-499D03*
G54D16*
G01X-762054Y49488D03*
G54D20*
G01X-709149Y102393D03*
G01X-659162Y102393D03*
G01X-609175Y102393D03*
G54D21*
G01X-2582122Y-421997D03*
G54D22*
G01X-2582122Y-239997D03*
G54D21*
G01X-609175Y-421997D03*
G54D22*
G01X-609175Y-239997D03*
G54D23*
G01X-3602957Y-623482D03*
G01X-3762850Y-624167D03*
G54D24*
G01X-2772852Y-1756155D03*
G01X-2612959Y-1755469D03*
G01X-2772852Y-2069198D03*
G01X-2612959Y-2068512D03*
G01X-2113939Y-2069198D03*
G01X-1954046Y-2068512D03*
G54D23*
G01X-3602957Y-905981D03*
G01X-3762850Y-906667D03*
G01X-3602957Y-1188480D03*
G01X-3762850Y-1189166D03*
G54D24*
G01X-2113939Y-1756155D03*
G01X-1954046Y-1755469D03*
G54D23*
G01X-647963Y-1987967D03*
G01X-807856Y-1988653D03*
G01X-647963Y-1876796D03*
G01X-807856Y-1877482D03*
G01X-647963Y-1765626D03*
G01X-807856Y-1766312D03*
G01X-647963Y-1654455D03*
G01X-807856Y-1655141D03*
G01X-647963Y-1543285D03*
G01X-807856Y-1543971D03*
G01X-647963Y-1432114D03*
G01X-807856Y-1432800D03*
G01X-647963Y-1320944D03*
G01X-807856Y-1321630D03*
G01X-647963Y-1209773D03*
G01X-807856Y-1210459D03*
G01X-647963Y-1098603D03*
G01X-807856Y-1099288D03*
G01X-647963Y-987432D03*
G01X-807856Y-988118D03*
G54D25*
G01X-969290Y-1454637D03*
G01X-969290Y-1074633D03*
G01X-1649289Y-1454637D03*
G01X-1649289Y-1074638D03*
G54D26*
G01X-1309289Y-1007132D03*
G01X-1309289Y-1522130D03*
G54D25*
G01X-969290Y-2216570D03*
G01X-969290Y-1836565D03*
G01X-1649289Y-2216570D03*
G01X-1649289Y-1836570D03*
G54D26*
G01X-1309289Y-1769065D03*
G01X-1309289Y-2284062D03*
G54D27*
G01X-2807037Y-820D03*
G54D28*
G01X-2785437Y65179D03*
G54D29*
G01X-2807037Y131179D03*
G01X-2906037Y131179D03*
G54D30*
G01X-2906037Y65179D03*
G54D27*
G01X-2906037Y-820D03*
G54D31*
G01X-1734136Y-402498D03*
G54D32*
G01X-1734136Y-452498D03*
G54D31*
G01X-1734136Y-502498D03*
G01X-1734136Y-552498D03*
G01X-1534137Y-552498D03*
G01X-1534137Y-502498D03*
G54D32*
G01X-1534137Y-452498D03*
G54D31*
G01X-1534137Y-402498D03*
G54D33*
G01X-1634136Y-477498D03*
G54D34*
G01X-1533735Y-50511D03*
G54D35*
G01X-1533735Y-499D03*
G54D34*
G01X-1533735Y49488D03*
G01X-1533735Y99501D03*
G01X-1733734Y99501D03*
G01X-1733734Y49488D03*
G54D35*
G01X-1733734Y-499D03*
G54D34*
G01X-1733734Y-50511D03*
G54D36*
G01X-1633734Y24495D03*
G54D37*
G01X-2966128Y713013D03*
G01X-2776136Y713013D03*
G01X-2776136Y473009D03*
G01X-2871132Y473009D03*
G54D38*
G01X-2966128Y473009D03*
G54D37*
G01X-2871132Y713013D03*
G54D39*
G01X-1857994Y839998D03*
G01X-1857994Y1347998D03*
G01X-2497998Y1093998D03*
G54D40*
G01X-1205717Y-925D03*
G01X-1090717Y-925D03*
G54D41*
G01X-2161476Y-453021D03*
G54D42*
G01X-2046477Y-453021D03*
G54D43*
G01X-2966121Y325760D03*
G54D44*
G01X-2966121Y210760D03*
G54D45*
G01X-2727995Y272420D03*
G54D46*
G01X-2727995Y158120D03*
G54D47*
G01X-369621Y-1637997D03*
G01X-369621Y-1487997D03*
G01X-369621Y-1437997D03*
G01X-369621Y-1387997D03*
G01X-369621Y-1337997D03*
G01X-369621Y-1287997D03*
G01X-369621Y-1237998D03*
G01X-369621Y-1087998D03*
G01X-196621Y-1087998D03*
G01X-196621Y-1237998D03*
G01X-196621Y-1287997D03*
G01X-196621Y-1337997D03*
G01X-196621Y-1387997D03*
G01X-196621Y-1437997D03*
G01X-196621Y-1487997D03*
G01X-196621Y-1637997D03*
G54D48*
G01X-498121Y-1602997D03*
G01X-498121Y-1122998D03*
G01X-68122Y-1122998D03*
G01X-68122Y-1602997D03*
G54D49*
G01X-1938844Y138990D03*
G54D50*
G01X-1938844Y-990D03*
G54D51*
G01X-2266744Y-905D03*
G54D42*
G01X-2151744Y-905D03*
G54D51*
G01X-1075713Y-452521D03*
G54D42*
G01X-960713Y-452521D03*
G54D52*
G01X-1303560Y-592672D03*
G54D53*
G01X-1303560Y-452693D03*
G54D41*
G01X-3213812Y-592D03*
G54D42*
G01X-3098812Y-592D03*
G54D54*
G01X-3466726Y113533D03*
G54D55*
G01X-3466726Y-767D03*
G04 Pad End*

M02*

